<?xml version="1.0" standalone="no"?>
<!DOCTYPE svg PUBLIC "-//W3C//DTD SVG 1.1//EN" "http://www.w3.org/Graphics/SVG/1.1/DTD/svg11.dtd">
<svg xmlns="http://www.w3.org/2000/svg"><metadata>This SVG WebFont was generated by YouWorkForThem.
Copyright  2012 by Rodrigo Saiani. All rights reserved.</metadata><defs><font horiz-adv-x="2048" id="ywftsvg"><font-face ascent="1540" bbox="-212.023 -860 2292 2230" cap-height="1434" descent="-508" font-family="" font-stretch="normal" font-weight="500" panose-1="0 0 6 0 0 0 0 0 0 0" underline-position="0" underline-thickness="0" unicode-range="U+0020-1F633" units-per-em="2048" x-height="1073"/><missing-glyph d="M1055 0h-850v1434h850v-1434zM346 139h565v1157h-565v-1157z" horiz-adv-x="1257"/><glyph d="M1223 1372q-147 0 -148 -135v-164h252v-209h-252v-864h-246v864h-374v-864h-248v864h-150v209h150v168q0 158 93 244t263 86q117 0 187 -31l-39 -182q-51 14 -111 14q-145 0 -145 -135v-164h374v168q0 158 93.5 244t261.5 86q119 0 188 -31l-39 -182q-51 14 -110 14z" glyph-name="f_f.liga" horiz-adv-x="1361" unicode="ff"/><glyph d="M819 1221q-1 342 393 342q172 0 312 -88l-99 -170q-74 61 -186 61q-174 0 -174 -152v-141h600v-1073h-242v864h-358v-864h-246v864h-364v-864h-248v864h-150v209h150v168q0 158 93 244t263 86q117 0 187 -31l-39 -182q-51 14 -111 14q-145 0 -145 -135v-164h364v148z" glyph-name="f_f_i.liga" horiz-adv-x="1783" unicode="ffi"/><glyph d="M1295 1372q-103 0 -151 -44t-48 -142v-113h245v-207h-245v-866h-246v864h-395v-864h-248v864h-150v209h150v168q0 158 93 244t263 86q117 0 187 -31l-39 -182q-51 14 -111 14q-145 0 -145 -135v-164h395v127q0 178 112.5 274.5t323.5 96.5q457 0 457 -410l-250 -4 q0 106 -47.5 160.5t-150.5 54.5zM1743 0h-250v1157l250 4v-1161z" glyph-name="f_f_l.liga" horiz-adv-x="1900" unicode="ffl"/><glyph d="M1055 0h-850v1434h850v-1434zM346 139h565v1157h-565v-1157z" glyph-name=".notdef" horiz-adv-x="1257"/><glyph glyph-name="glyph1" horiz-adv-x="0"/><glyph glyph-name="glyph2" horiz-adv-x="681"/><glyph glyph-name="space" horiz-adv-x="567" unicode=" "/><glyph d="M434 453h-213l-35 983h287zM324.5 303q70.5 0 117.5 -43t47 -125t-47 -125t-117.5 -43t-117.5 43t-47 125t47 125t117.5 43z" glyph-name="exclam" horiz-adv-x="647" unicode="!"/><glyph d="M362 979h-141l-37 455h213zM709 979h-142l-37 455h215z" glyph-name="quotedbl" horiz-adv-x="929" unicode="&quot;"/><glyph d="M1290 549v-154h-338l-49 -395h-158l48 395h-301l-50 -395h-161l51 395h-277v154h295l47 352h-299v154h318l49 379h160l-50 -379h299l46 379h159l-47 -379h303v-154h-321l-43 -352h319zM854 901h-297l-45 -352h299z" glyph-name="numbersign" horiz-adv-x="1390" unicode="#"/><glyph d="M582 215q135 0 206.5 50t71.5 132q0 47 -15.5 68.5t-26.5 34t-32.5 26t-38 21.5t-48 21.5t-52 20.5t-62 23t-101.5 38q-151 56 -259 144.5t-108 257.5t112.5 275.5t307.5 126.5l-7 201h193l-8 -201q225 -23 377 -133l-111 -193q-164 113 -356 113q-111 0 -176.5 -47 t-65.5 -119t29.5 -101.5t50 -44t60.5 -31.5t67.5 -27.5t82.5 -30.5t119 -44q156 -59 247 -140.5t91 -253.5t-125.5 -289t-338.5 -136l8 -215h-193l8 220q-227 23 -395 124l82 213q195 -104 406 -104z" glyph-name="dollar" horiz-adv-x="1206" unicode="$"/><glyph d="M390 1458q144 0 237.5 -93t93.5 -257t-92 -256t-238 -92q-145 0 -237.5 92t-92.5 256t92.5 257t236.5 93zM391 0h-160l971 1434h160zM389 1315q-72 0 -109.5 -54.5t-37.5 -152.5t37.5 -151.5t109.5 -53.5q147 0 147 206t-147 206zM1208 676q145 0 238.5 -93.5 t93.5 -256.5q0 -164 -92 -256.5t-238 -92.5t-238.5 92.5t-92.5 257.5t92 257t237 92zM1208 532q-72 0 -110.5 -54t-38.5 -152.5t39 -151.5t110 -53q145 -1 145 205t-145 206z" glyph-name="percent" horiz-adv-x="1595" unicode="%"/><glyph d="M158 328q0 111 60.5 202t182.5 179l33 22q-106 100 -156.5 180t-50.5 191q0 164 108.5 263t294.5 99t295 -90t109 -229q0 -219 -211 -379l-53 -41l244 -225q18 35 33 71l106 228l195 -84l-88 -205q-39 -90 -78 -164l243 -223l-145 -158l-223 201q-168 -190 -434 -191 q-221 0 -343 95.5t-122 257.5zM807 1120q0 137 -173 137q-79 0 -124 -41.5t-45 -109.5t35 -117t121 -125l47 33q139 102 139 223zM612 197q154 0 277 122l-299 271l-51 -39q-127 -94 -127 -197q0 -72 51 -114.5t149 -42.5z" glyph-name="ampersand" horiz-adv-x="1523" unicode="&amp;"/><glyph d="M309 979h-143l-37 455h215z" glyph-name="quotesingle" horiz-adv-x="473" unicode="'"/><glyph d="M354 686q0 -122 29 -249.5t63.5 -206t92 -157.5t88 -109t78.5 -73l-111 -108q-459 305 -459 925t459 910l111 -111q-131 -117 -170 -178t-75 -128.5t-56.5 -136.5t-35 -162.5t-14.5 -215.5z" glyph-name="parenleft" horiz-adv-x="798" unicode="("/><glyph d="M666 703.5q0 -162.5 -39 -309t-90.5 -242t-122 -179.5t-116.5 -121.5t-93 -68.5l-111 108q33 29 64.5 60t88 108.5t96.5 161.5t71.5 213t31.5 269.5t-31.5 269.5t-70.5 211t-96.5 158.5t-87 105t-64.5 59.5l111 111q47 -33 92 -70t116.5 -119.5t122 -176t89.5 -240 t39 -309z" glyph-name="parenright" horiz-adv-x="800" unicode=")"/><glyph d="M506 1317l172 117l74 -127l-183 -90l183 -89l-74 -127l-172 113l18 -203h-151l14 203l-168 -113l-74 127l183 89l-181 94l70 119l170 -111l-14 207h151z" glyph-name="asterisk" horiz-adv-x="897" unicode="*"/><glyph d="M805 793h428v-158h-428v-453h-160v453h-426v158h426v452h160v-452z" glyph-name="plus" horiz-adv-x="1449" unicode="+"/><glyph d="M304 276q58 0 102.5 -43t44.5 -136t-54.5 -196.5t-154.5 -179.5l-78 62q102 98 129 217q-53 8 -90 46t-37 99t40 96t98 35z" glyph-name="comma" horiz-adv-x="606" unicode=","/><glyph d="M786 508h-641v205h641v-205z" glyph-name="hyphen" horiz-adv-x="931" unicode="-"/><glyph d="M322 266q61 0 104 -38t43 -110t-43 -111.5t-103 -39.5t-103.5 39t-43.5 111t42.5 110.5t103.5 38.5z" glyph-name="period" horiz-adv-x="645" unicode="."/><glyph d="M227 -92h-202l518 1632h200z" glyph-name="slash" horiz-adv-x="743" unicode="/"/><glyph d="M693 1458q124 0 230.5 -45t191.5 -134t133 -233.5t48 -329.5t-48 -329.5t-133 -234t-192.5 -135.5t-230.5 -46t-230.5 46t-191.5 135.5t-133 233.5t-49 330t49 330t133 233t191.5 134t231.5 45zM692 1231q-162 0 -249 -134t-87 -381t88 -382t249 -135t249 136t88 382 t-88 380t-250 134z" glyph-name="zero" horiz-adv-x="1386" unicode="0"/><glyph d="M1069 233v-233h-876v233h311v914l-314 -135l-96 188l473 240h199v-1207h303z" glyph-name="one" horiz-adv-x="1204" unicode="1"/><glyph d="M599 1458q257 0 403.5 -112.5t146.5 -311.5q0 -157 -75 -253.5t-132 -152t-154 -136.5l-305 -261h709v-231h-1042v217l401 348q18 16 67.5 58.5t65.5 56.5t53 49t71 77.5t49 90t15 90.5q0 119 -82.5 178.5t-222.5 59.5q-190 0 -344 -107l-98 197q217 143 474 143z" glyph-name="two" horiz-adv-x="1320" unicode="2"/><glyph d="M578 1458q268 0 403 -97t135 -231q0 -259 -254 -354v-6q139 -25 227.5 -114t88.5 -218q0 -213 -166 -341t-420 -128q-154 0 -291 43t-233 121l114 195q166 -127 385 -127q160 0 249 67.5t89 171.5q0 207 -348 207h-182v203h168q139 0 222 51t83 139t-77 139.5t-208 51.5 q-186 0 -342 -117l-115 172q204 172 472 172z" glyph-name="three" horiz-adv-x="1267" unicode="3"/><glyph d="M1278 551v-205h-213v-346h-258l-2 346h-696v178l737 910h219v-883h213zM813 1096l-442 -545h440z" glyph-name="four" horiz-adv-x="1366" unicode="4"/><glyph d="M1116 1200h-667v-369q117 76 303 76t316 -112.5t130 -331.5t-156 -356.5t-436 -137.5t-440 133l96 201q150 -100 346 -100q145 0 234.5 71.5t89.5 192.5t-76 182.5t-216 61.5t-269 -107l-170 94v742h915v-240z" glyph-name="five" horiz-adv-x="1316" unicode="5"/><glyph d="M1081 1147q-145 86 -315 86t-287 -109t-125 -372q178 162 410 161q277 0 380 -149.5t103 -290.5q0 -215 -151.5 -356.5t-386.5 -141.5q-289 0 -451 180.5t-162 544.5q0 193 53.5 342.5t191 282.5t412.5 133t451 -121zM716 694q-213 0 -341 -155q10 -158 94 -249t217 -91 t212 72.5t79 186.5t-75.5 175t-185.5 61z" glyph-name="six" horiz-adv-x="1335" unicode="6"/><glyph d="M41 1200v236h1040v-209l-581 -1227h-279l578 1200h-758z" glyph-name="seven" horiz-adv-x="1169" unicode="7"/><glyph d="M641 1458q229 0 371.5 -103.5t142.5 -277.5q0 -111 -58.5 -194.5t-158.5 -120.5q113 -35 186.5 -129t73.5 -221q0 -199 -149.5 -321t-407.5 -122t-405.5 118t-147.5 312q0 127 75 227.5t189 139.5q-100 37 -162.5 120t-62.5 191q0 174 142.5 277.5t371.5 103.5zM642 1233 q-114 0 -180.5 -50t-66.5 -136t69.5 -136.5t177.5 -50.5t176.5 50.5t68.5 136.5t-65.5 136t-179.5 50zM642 662q-128 0 -209 -65t-81 -168t77 -167.5t213 -64.5t211 64.5t75 167.5t-79 168t-207 65z" glyph-name="eight" horiz-adv-x="1288" unicode="8"/><glyph d="M936 690q-168 -172 -392 -172q-206 0 -308.5 80t-143.5 171t-41 208q0 219 150.5 350t373.5 131q295 0 456 -173t161 -523q0 -209 -54.5 -365.5t-195 -289t-399.5 -132.5t-430 101l71 203q145 -80 330 -80t300.5 117.5t121.5 373.5zM595 1231q-128 0 -205 -67.5 t-77 -180.5t66.5 -178.5t180.5 -65.5t216.5 48.5t143.5 123.5q-8 156 -102.5 238t-222.5 82z" glyph-name="nine" horiz-adv-x="1267" unicode="9"/><glyph d="M323 1098q69 0 114.5 -42t45.5 -123t-46 -123t-115 -42q-70 0 -116 42t-46 122t47 123t116 43zM322 299q70 0 115.5 -41t45.5 -123t-46.5 -125t-114.5 -43t-115 43t-47 124t46 123t116 42z" glyph-name="colon" horiz-adv-x="643" unicode=":"/><glyph d="M318 1096q60 0 102.5 -39t42.5 -111t-42.5 -109.5t-102.5 -37.5t-102 37.5t-42 109.5t42 111t102 39zM310 276q58 0 102.5 -43t44.5 -136t-54.5 -196.5t-154.5 -179.5l-78 62q102 98 129 217q-51 8 -89 46t-38 99t40 96t98 35z" glyph-name="semicolon" horiz-adv-x="643" unicode=";"/><glyph d="M899 987l-639 -393l647 -410l-96 -139l-760 473v154l760 471z" glyph-name="less" horiz-adv-x="1026" unicode="&lt;"/><glyph d="M1167 713h-946v153h946v-153zM1167 311h-946v152h946v-152z" glyph-name="equal" horiz-adv-x="1380" unicode="="/><glyph d="M973 672v-154l-758 -471l-98 137l649 410l-639 393l88 158z" glyph-name="greater" horiz-adv-x="1024" unicode=">"/><glyph d="M508 1458q209 0 329.5 -95t120.5 -245t-95 -235.5t-192.5 -173t-101.5 -238.5h-194q0 186 77.5 272t154.5 163t77 163t-60.5 129t-164.5 43q-174 0 -305 -90l-101 172q78 59 200 97t255 38zM472 299q71 0 114 -44t43 -118t-43 -117t-114 -43t-114 43t-43 117t43 118 t114 44z" glyph-name="question" horiz-adv-x="1073" unicode="?"/><glyph d="M1028 1333q342 0 543 -185t201 -501q0 -240 -119 -392.5t-330 -152.5q-158 0 -231 105q-98 -86 -236 -86t-223.5 88.5t-85.5 278.5t126 304.5t335 114.5q145 0 292 -57l-55 -412q-10 -82 17.5 -122t76.5 -40q104 0 167 97.5t63 261.5q0 256 -146.5 390t-414.5 134 q-315 0 -512 -185.5t-197 -497.5t164 -460.5t438 -148.5q168 0 332 53l57 -168q-190 -68 -391 -67q-433 0 -575 170t-186 307t-44 311q0 256 119 452.5t331 302t484 105.5zM889 291q98 0 160 82q0 18 4 39l41 311q-47 18 -119 18q-106 0 -166.5 -72.5t-60.5 -178.5 t40 -152.5t101 -46.5z" glyph-name="at" horiz-adv-x="1865" unicode="@"/><glyph d="M1034 303h-592l-104 -303h-270l536 1434h268l549 -1434h-280zM961 512l-224 637l-223 -637h447z" glyph-name="A" horiz-adv-x="1486" unicode="A"/><glyph d="M1221 406q0 -195 -139.5 -300.5t-372.5 -105.5h-557v1434h499q244 0 364 -93.5t120 -263.5q0 -98 -49.5 -181t-149.5 -134q137 -39 211 -130t74 -226zM412 825h219q117 0 182.5 54.5t65.5 150.5q0 184 -254 184h-213v-389zM412 217h268q135 0 201.5 55.5t66.5 149.5 q0 205 -260 205h-276v-410z" glyph-name="B" horiz-adv-x="1339" unicode="B"/><glyph d="M815.5 1458q144.5 0 268.5 -36t204 -97l-121 -201q-145 98 -337.5 98.5t-315.5 -128.5t-123 -380t124 -380t320.5 -128t354.5 130l129 -186q-90 -82 -222 -131.5t-280.5 -49.5t-270.5 46t-218.5 136.5t-151.5 235.5t-56 329.5t53 328t150.5 232.5t222 135t270 46z" glyph-name="C" horiz-adv-x="1366" unicode="C"/><glyph d="M152 1434h440q318 0 470 -129t208.5 -266.5t56.5 -311.5q0 -233 -147 -480t-588 -247h-440v1434zM412 1202v-969h200q213 0 328 122t115 372q0 475 -443 475h-200z" glyph-name="D" horiz-adv-x="1445" unicode="D"/><glyph d="M1096 1214h-688v-376h600v-222h-600v-391h688v-225h-944v1434h944v-220z" glyph-name="E" horiz-adv-x="1208" unicode="E"/><glyph d="M1032 1212h-624v-436h546v-221h-546v-555h-256v1434h880v-222z" glyph-name="F" horiz-adv-x="1118" unicode="F"/><glyph d="M837 1223q-205 0 -325.5 -129t-120.5 -373t118 -376t309 -132t302 106v295h-381v209h629v-630q-96 -102 -239.5 -162t-302 -60t-277.5 44t-217.5 131t-155.5 233.5t-57 330.5q0 186 56 328q57 142 153 233q198 187 497 187t510 -166l-129 -188q-164 119 -369 119z" glyph-name="G" horiz-adv-x="1519" unicode="G"/><glyph d="M1360 0h-258l2 608h-696v-608h-256v1434h256v-605h696v605h256v-1434z" glyph-name="H" horiz-adv-x="1509" unicode="H"/><glyph d="M430 0h-256v1434h256v-1434z" glyph-name="I" horiz-adv-x="602" unicode="I"/><glyph d="M815 1434v-951q0 -298 -142 -407t-364 -109q-135 0 -229 27l20 217q49 -12 131 -12q164 0 245 62.5t81 234.5v938h258z" glyph-name="J" horiz-adv-x="966" unicode="J"/><glyph d="M414 0h-262v1434h262v-631l551 631h335l-606 -652l652 -782h-336l-496 588l-100 -107v-481z" glyph-name="K" horiz-adv-x="1382" unicode="K"/><glyph d="M408 229h673v-229h-929v1434h256v-1205z" glyph-name="L" horiz-adv-x="1146" unicode="L"/><glyph d="M1645 1434v-1434h-248v950l-430 -919h-144l-426 915v-946h-245v1434h247l506 -1090l490 1090h250z" glyph-name="M" horiz-adv-x="1796" unicode="M"/><glyph d="M1358 0h-217l-733 987v-987h-256v1434h219l727 -994v994h260v-1434z" glyph-name="N" horiz-adv-x="1507" unicode="N"/><glyph d="M839 1458q123 0 246 -44t224.5 -130t161 -230.5t59.5 -330.5t-59.5 -334.5t-161 -238t-224 -135.5t-259 -46t-260.5 46t-225 135.5t-161.5 238t-60.5 316.5t40 291.5t107.5 207.5t158.5 142.5t191 85t223 26.5zM825 1223q-190 0 -312 -128t-122 -373t122 -381t310 -136 t312.5 135t124.5 381t-122.5 374t-312.5 128z" glyph-name="O" horiz-adv-x="1650" unicode="O"/><glyph d="M152 1434h477q258 0 395 -124t137 -331t-139 -341t-393 -134h-221v-504h-256v1434zM408 1214v-489h210q131 0 201 67.5t70 190.5q0 231 -271 231h-210z" glyph-name="P" horiz-adv-x="1210" unicode="P"/><glyph d="M1530 723q0 -276 -123 -455.5t-322 -253.5l383 -157l-118 -195l-568 309q-261 12 -406 148.5t-201 281t-56 308.5t56.5 339t239.5 292.5t410 117.5q279 0 432.5 -130t213 -274.5t59.5 -330.5zM391 722q0 -245 122 -381t310 -136t312.5 135t124.5 381t-122 374t-313 128 q-190 0 -312 -128t-122 -373z" glyph-name="Q" horiz-adv-x="1650" unicode="Q"/><glyph d="M408 508v-508h-256v1434h518q285 0 417 -117t132 -320q0 -162 -74 -273.5t-209 -166.5l346 -557h-285l-307 508h-282zM408 729h270q127 0 197.5 67.5t70.5 183.5t-69.5 175t-225.5 59h-243v-485z" glyph-name="R" horiz-adv-x="1355" unicode="R"/><glyph d="M618 1458q283 0 474 -137l-111 -193q-164 113 -356 113q-113 0 -177.5 -47t-64.5 -133q0 -47 17.5 -69.5t30.5 -36t38 -28t43 -24.5t53 -23.5t58.5 -21.5t67.5 -24.5t71 -26.5q188 -70 278 -156t90 -233q0 -207 -147 -325t-393 -118q-127 0 -259 34t-237 97l82 213 q193 -104 399 -104q141 0 213 50t72 123t-34.5 103.5t-55 45t-99.5 45t-163 59.5q-174 60 -282.5 150t-108.5 270t137 288.5t364 108.5z" glyph-name="S" horiz-adv-x="1206" unicode="S"/><glyph d="M1247 1212h-448v-1212h-256v1212h-451v222h1155v-222z" glyph-name="T" horiz-adv-x="1339" unicode="T"/><glyph d="M1288 1434v-916q0 -143 -45 -251.5t-125 -172t-179 -94.5t-218 -31t-219.5 31t-180 94.5t-124.5 172t-45 251.5v916h256v-914q0 -150 80.5 -230.5t231.5 -80.5t231.5 81t80.5 230v914h256z" glyph-name="U" horiz-adv-x="1439" unicode="U"/><glyph d="M872 0h-276l-545 1434h281l407 -1151l396 1151h282z" glyph-name="V" horiz-adv-x="1468" unicode="V"/><glyph d="M1577 0h-209l-340 1026l-338 -1026h-209l-454 1434h274l303 -1039l328 1039h211l327 -1045l299 1045h263z" glyph-name="W" horiz-adv-x="2058" unicode="W"/><glyph d="M819 754l545 -754h-317l-367 553l-342 -553h-309l506 741l-486 693h322l309 -494l307 494h330z" glyph-name="X" horiz-adv-x="1427" unicode="X"/><glyph d="M784 0h-256v573l-499 861h297l338 -617l337 617h281l-498 -863v-571z" glyph-name="Y" horiz-adv-x="1345" unicode="Y"/><glyph d="M1219 221v-221h-1121v174l754 1038h-715v222h1041v-164l-768 -1049h809z" glyph-name="Z" horiz-adv-x="1325" unicode="Z"/><glyph d="M545 1436h-207v-1516h207v-178h-410v1872h410v-178z" glyph-name="bracketleft" horiz-adv-x="628" unicode="["/><glyph d="M647 -92h-201l-481 1632h201z" glyph-name="backslash" horiz-adv-x="794" unicode="\"/><glyph d="M494 -258h-410v178h205v1516h-205v178h410v-1872z" glyph-name="bracketright" horiz-adv-x="628" unicode="]"/><glyph d="M1014 842l-320 471l-315 -471h-264l483 706h197l481 -706h-262z" glyph-name="asciicircum" horiz-adv-x="1378" unicode="^"/><glyph d="M1309 -209h-1182v199h1182v-199z" glyph-name="underscore" horiz-adv-x="1441" unicode="_"/><glyph d="M571 1208h-155l-277 275h293z" glyph-name="grave" horiz-adv-x="710" unicode="`"/><glyph d="M556 1104q238 0 345 -97.5t107 -295.5v-457q0 -82 59 -82h45l-20 -160q-35 -33 -121 -32q-133 0 -174 120q-119 -131 -305 -131t-291 83t-105 245t117 239.5t283 77.5t266 -22v104q0 113 -56.5 159t-164.5 46q-172 0 -297 -98l-99 155q173 146 411 146zM547 455 q-219 0 -219 -146q0 -82 53 -117.5t133 -35.5q176 0 250 129v147q-96 23 -217 23z" glyph-name="a" horiz-adv-x="1171" unicode="a"/><glyph d="M391 965h6q115 139 314 139t322.5 -144.5t123.5 -409.5t-136 -423t-359 -158q-190 0 -306 144h-8l-41 -113h-162v1540h246v-575zM631 879q-131 0 -240 -131v-451q81 -111 221 -111t217.5 99.5t77.5 260.5t-72.5 247t-203.5 86z" glyph-name="b" horiz-adv-x="1251" unicode="b"/><glyph d="M630 1104q228 0 380 -131l-101 -172q-117 90 -256 90t-225 -91t-86 -257t88 -263.5t230 -97.5t266 103l108 -162q-70 -70 -173 -112t-226 -42q-236 0 -388.5 153.5t-152.5 418t154 414t382 149.5z" glyph-name="c" horiz-adv-x="1095" unicode="c"/><glyph d="M1102 0h-176l-33 125h-4q-57 -70 -140 -113t-175 -43t-174.5 33t-152 97.5t-111.5 177.5t-42 257t40 254.5t141 213t284 102.5q184 0 297 -103v539h246v-1540zM628 881q-129 0 -206.5 -86t-77.5 -253t80 -257t190 -90q152 0 242 135v440q-99 111 -228 111z" glyph-name="d" horiz-adv-x="1247" unicode="d"/><glyph d="M1092 605q0 -89 -15 -154h-735q39 -281 305 -281q174 0 305 111l103 -162q-176 -150 -445 -150q-306 0 -444 249q-72 130 -72 312q0 262 140.5 418t367.5 156q121 0 216 -43t153.5 -115t89.5 -162t31 -179zM608 909q-115 0 -186.5 -73t-83.5 -220h526q-4 135 -72.5 214 t-183.5 79z" glyph-name="e" horiz-adv-x="1185" unicode="e"/><glyph d="M563 1571q117 0 187 -31l-39 -182q-51 14 -111 14q-145 0 -145 -135v-164h250v-209h-250v-864h-248v864h-150v209h150v168q0 158 93 244t263 86z" glyph-name="f" horiz-adv-x="741" unicode="f"/><glyph d="M1112 1075v-1009q0 -258 -141.5 -381t-386.5 -123q-121 0 -229.5 34.5t-182.5 90.5l90 184q131 -96 320 -96q131 0 211.5 58t80.5 177v140q-68 -66 -138 -90.5t-163 -24.5q-205 0 -342 141t-137 389q0 129 42 233t112 170q144 136 334 136t309 -125h8l49 96h164zM642 879 q-132 0 -214 -81t-82 -231t78 -231.5t201 -81.5q156 0 243 127v397q-94 101 -226 101z" glyph-name="g" horiz-adv-x="1257" unicode="g"/><glyph d="M731 1100q166 0 265.5 -92.5t99.5 -282.5v-725h-246v682q0 104 -55.5 151.5t-137.5 47.5q-150 0 -266 -179v-702h-246v1540h244v-604q144 164 342 164z" glyph-name="h" horiz-adv-x="1241" unicode="h"/><glyph d="M290 1513q62 0 107 -35.5t45 -104t-45 -104.5t-107 -36t-106.5 36t-44.5 104.5t44.5 104t106.5 35.5zM412 0h-244v1073h244v-1073z" glyph-name="i" horiz-adv-x="581" unicode="i"/><glyph d="M299 1503q63 0 107.5 -35.5t44.5 -104.5t-44.5 -104.5t-107.5 -35.5t-106 35.5t-43 104.5t43 104.5t106 35.5zM424 1073v-1175q0 -154 -104 -245t-250 -91t-230 39l49 190q53 -18 129 -18t118 37.5t42 130.5v1132h246z" glyph-name="j" horiz-adv-x="591" unicode="j"/><glyph d="M391 0h-246v1540h246v-924l371 457h305l-397 -444l465 -629h-297l-326 455l-121 -136v-319z" glyph-name="k" horiz-adv-x="1148" unicode="k"/><glyph d="M403 0h-245v1540h245v-1540z" glyph-name="l" horiz-adv-x="561" unicode="l"/><glyph d="M1354 1100q164 0 256 -96.5t92 -270.5v-733h-250v705q0 178 -154 178t-247 -174v-709h-252v709q0 90 -43 132t-116 42t-137.5 -47.5t-105.5 -126.5v-709h-250l-2 1073h193l27 -149h8q61 92 138 134t181 42q225 0 309 -195q132 195 353 195z" glyph-name="m" horiz-adv-x="1849" unicode="m"/><glyph d="M731 1104q170 0 267.5 -94.5t97.5 -270.5v-739h-246v662q0 115 -45 161.5t-129 46.5q-164 0 -287 -176v-694h-244v1073h168l39 -160h8q78 96 164 143.5t207 47.5z" glyph-name="n" horiz-adv-x="1241" unicode="n"/><glyph d="M634.5 1104q106.5 0 202 -34t172 -100.5t122 -178t45.5 -255t-45.5 -255t-122 -178t-172 -100.5t-202 -34t-201.5 34t-172 100.5t-122 178t-45 255t45 255t122 178t172 100.5t201.5 34zM636 887q-136 0 -214 -92.5t-78 -258t78 -258t214 -92.5t213 92.5t77 258t-77 258 t-213 92.5z" glyph-name="o" horiz-adv-x="1269" unicode="o"/><glyph d="M694 1098q186 0 314.5 -139.5t128.5 -401.5t-145.5 -425t-356.5 -163q-147 0 -244 60v-451h-246v1497h174l46 -145h4q68 86 144.5 127t180.5 41zM637 881q-143 0 -246 -160v-483q80 -66 201 -66t207 100.5t86 269.5t-69.5 254t-178.5 85z" glyph-name="p" horiz-adv-x="1230" unicode="p"/><glyph d="M1110 1075v-1497h-250v467q-117 -76 -274 -76q-205 0 -348.5 153.5t-143.5 414.5q0 141 45 252.5t158 213t292 101.5t298 -123h6l51 94h166zM639 881q-125 0 -208 -89.5t-83 -256.5q0 -251 117 -299t164 -48q129 0 231 82v504q-96 107 -221 107z" glyph-name="q" horiz-adv-x="1255" unicode="q"/><glyph d="M639 1104q78 0 131 -31l-43 -225q-66 25 -111 24q-154 0 -223 -223v-649h-248v1073h189l41 -158h6q80 189 258 189z" glyph-name="r" horiz-adv-x="806" unicode="r"/><glyph d="M158 276q125 -96 311 -96q88 0 142.5 37t54.5 92.5t-45 80t-120 47t-108 34.5q-145 51 -213.5 119.5t-68.5 203.5t112.5 222.5t317 87.5t352.5 -111l-80 -170q-141 84 -289 84q-80 0 -128 -32.5t-48 -95t90 -98t148 -48.5q148 -45 213 -92t89.5 -99.5t24.5 -122.5 q0 -164 -119.5 -257t-318.5 -93q-111 0 -213 33t-170 84z" glyph-name="s" horiz-adv-x="985" unicode="s"/><glyph d="M473 1073h262v-209h-262v-579q0 -94 84 -95q63 0 139 29l62 -176q-119 -74 -260 -74q-272 0 -273 267v628h-168v209h168v137l111 142h137v-279z" glyph-name="t" horiz-adv-x="837" unicode="t"/><glyph d="M510 -25q-168 0 -266.5 97.5t-98.5 283.5v717h244v-659q0 -219 174 -219q156 0 275 174v704h243v-1073h-170l-49 150q-66 -82 -147.5 -128.5t-204.5 -46.5z" glyph-name="u" horiz-adv-x="1228" unicode="u"/><glyph d="M1110 1073l-438 -1073h-228l-424 1073l263 2l278 -817l281 815h268z" glyph-name="v" horiz-adv-x="1130" unicode="v"/><glyph d="M1581 1073l-383 -1073h-162l-245 715l-261 -715h-161l-349 1073h242l209 -747l248 747h162l241 -756l221 756h238z" glyph-name="w" horiz-adv-x="1601" unicode="w"/><glyph d="M1032 0h-280l-236 377l-229 -377h-287v8l385 545l-373 510v10h293l211 -352l217 352h277v-8l-353 -512l375 -545v-8z" glyph-name="x" horiz-adv-x="1036" unicode="x"/><glyph d="M274 -238q64 0 116 41t81 117l18 47l-444 1108h256l309 -852l277 852h262l-412 -1143q-131 -366 -404 -366q-136 0 -243 35l45 186q75 -25 139 -25z" glyph-name="y" horiz-adv-x="1202" unicode="y"/><glyph d="M928 209v-209h-848v168l518 696h-502v209h807v-178l-534 -686h559z" glyph-name="z" horiz-adv-x="997" unicode="z"/><glyph d="M731 1632v-145q-96 -10 -150.5 -66.5t-54.5 -154.5v-326q0 -82 -53 -141.5t-113 -73.5v-6q59 -14 112.5 -75.5t53.5 -139.5v-330q0 -94 54.5 -152.5t150.5 -66.5v-143q-190 0 -297.5 95t-107.5 257v270q0 195 -189 209v156q84 10 136.5 61t52.5 148v270q0 162 108.5 258 t296.5 96z" glyph-name="braceleft" horiz-adv-x="813" unicode="{"/><glyph d="M313 -186h-155v1882h155v-1882z" glyph-name="bar" horiz-adv-x="471" unicode="|"/><glyph d="M78 1632q186 0 295.5 -96t109.5 -258v-270q0 -96 51.5 -147.5t137.5 -61.5v-156q-188 -14 -189 -209v-270q0 -162 -107.5 -257t-297.5 -95v143q94 8 149.5 66.5t55.5 152.5v330q0 78 53 139.5t110 75.5v6q-59 14 -111 73.5t-52 139.5v328q0 98 -54.5 154.5t-150.5 64.5 v147z" glyph-name="braceright" horiz-adv-x="808" unicode="}"/><glyph d="M819 494q-66 0 -201.5 38.5t-203.5 38.5t-111 -84h-186q31 147 108.5 222t184.5 75q68 0 200 -38.5t182 -38.5t87 24.5t51 61.5h209q-31 -156 -120 -227.5t-200 -71.5z" glyph-name="asciitilde" horiz-adv-x="1265" unicode="~"/><glyph d="M324.5 1096q70.5 0 117.5 -43t47 -125t-48 -125t-116.5 -43t-116.5 43t-48 125t47 125t117.5 43zM475 -375h-295l41 983h213z" glyph-name="exclamdown" horiz-adv-x="647" unicode="¡"/><glyph d="M94 726q0 241 127 387.5t326 172.5l-8 213h161l-8 -211q190 -16 318 -127l-101 -172q-117 90 -256 90t-225 -91t-86 -257t88 -263t230 -97t266 102l108 -162q-125 -127 -325 -149l10 -191h-164l8 191q-209 25 -339 174t-130 390z" glyph-name="cent" horiz-adv-x="1110" unicode="¢"/><glyph d="M842 188q74 0 168 21l43 -207q-100 -33 -217 -33t-220.5 13.5t-207.5 13.5t-205 -25l-66 174q70 45 101.5 97.5t31.5 134.5v270h-125v148h125v258q0 201 117 305t303 104q244 0 408 -110l-119 -197q-123 82 -239 82t-166 -52t-50 -169v-221h394v-148h-394v-217 q0 -92 -20.5 -144.5t-75.5 -88.5q60 14 120 14t140 -11.5t154 -11.5z" glyph-name="sterling" horiz-adv-x="1280" unicode="£"/><glyph d="M1192 708q0 -173 -82 -296l166 -164l-115 -117l-168 166q-131 -86 -309 -86t-307 86l-166 -166l-117 115l164 164q-86 123 -86 300t92 300l-168 170l117 114l172 -174q127 80 299 80t301 -84l174 176l117 -114l-172 -172q88 -125 88 -298zM683 434q116 0 187.5 72 t71.5 201t-71.5 200.5t-188.5 71.5t-187.5 -71.5t-70.5 -200.5t71.5 -201t187.5 -72z" glyph-name="currency" horiz-adv-x="1368" unicode="¤"/><glyph d="M1167 770v-149h-387l-2 -3v-133h389v-147h-389v-338h-256v338h-391v147h391v136h-391v149h299l-407 664h301l335 -615l338 615h281l-406 -664h295z" glyph-name="yen" horiz-adv-x="1300" unicode="¥"/><glyph d="M307 1174v-809h-155v809h155z" glyph-name="brokenbar" horiz-adv-x="456" unicode="¦"/><glyph d="M562 1464q186 0 323 -63l-62 -170q-115 41 -229 41q-206 0 -207 -115q0 -75 76 -102.5t130 -38.5q187 -40 267 -104t80 -181q0 -166 -182 -242q186 -63 186 -227q0 -131 -111 -212t-315 -81t-366 86l65 172q51 -31 133 -49t156 -18q203 0 203 123q0 63 -64.5 90 t-141.5 43t-114 28q-223 72 -223 259t170 245q-76 33 -121 95.5t-45 142.5q0 131 103 204.5t289 73.5zM551 868q-84 0 -133 -41t-49 -113t49 -110.5t134 -38.5t134 39t49 111t-50 112.5t-134 40.5z" glyph-name="section" horiz-adv-x="1064" unicode="§"/><glyph d="M168 1485q53 0 86 -31t33 -93t-33 -93t-86 -31t-88 30.5t-35 92.5t35 93.5t88 31.5zM545 1485q53 0 86 -31t33 -93t-33 -93t-86 -31t-87 30.5t-34 92.5t34 93.5t87 31.5z" glyph-name="dieresis" horiz-adv-x="710" unicode="¨"/><glyph d="M838 1462q306 0 465 -146.5t218.5 -288.5t59.5 -310t-59.5 -310.5t-162 -236.5t-237.5 -147.5t-284 -53.5q-150 0 -285 53.5t-237.5 147.5t-162 236.5t-59.5 310.5t59.5 310t162 236.5t237.5 146.5t285 52zM839 1321q-257 0 -428 -167t-171 -439t170 -438t428 -166 t428 165.5t170 440t-170 439.5t-427 165zM837 1110q157 0 265 -84l-60 -117q-96 63 -199 63t-167 -63t-64 -179t68 -183.5t176 -67.5t191 68l67 -119q-108 -92 -272 -92t-270.5 102.5t-106.5 287.5t107.5 284.5t264.5 99.5z" glyph-name="copyright" horiz-adv-x="1675" unicode="©"/><glyph d="M379 1452q274 0 274 -225v-269q0 -53 49 -53h25l-10 -133q-43 -12 -84 -12q-102 0 -131 69q-78 -69 -184 -69t-167 56t-61 148t65 145.5t159 53.5t169 -10v43q2 109 -125 109q-96 0 -176 -45l-61 116q104 76 258 76zM360 1049q-114 0 -114 -80q0 -39 27.5 -60.5 t70.5 -21.5q84 0 137 57v94q-49 11 -121 11z" glyph-name="ordfeminine" horiz-adv-x="802" unicode="ª"/><glyph d="M512 803l-240 -281l240 -282l-129 -117l-332 397l326 400zM928 803l-238 -281l238 -282l-127 -117l-332 397l328 400z" glyph-name="guillemotleft" horiz-adv-x="1042" unicode="«"/><glyph d="M1192 289h-154v387h-876v155h1030v-542z" glyph-name="logicalnot" horiz-adv-x="1345" unicode="¬"/><glyph d="M838 1462q306 0 465 -146.5t218.5 -288.5t59.5 -310t-59.5 -310.5t-162 -236.5t-237.5 -147.5t-284 -53.5q-150 0 -285 53.5t-237.5 147.5t-162 236.5t-59.5 310.5t59.5 310t162 236.5t237.5 146.5t285 52zM839 1321q-257 0 -428 -167t-171 -439t170 -438t428 -166 t428 165.5t170 440t-170 439.5t-427 165zM586 1098h268q131 0 195.5 -60.5t64.5 -143.5q0 -154 -131 -214l172 -320h-158l-141 279h-135v-279h-135v738zM723 971v-211h123q55 0 87 30.5t32 77.5q0 102 -123 103h-119z" glyph-name="registered" horiz-adv-x="1675" unicode="®"/><glyph d="M612 1303h-516v131h516v-131z" glyph-name="macron" horiz-adv-x="710" unicode="¯"/><glyph d="M403.5 1446q131.5 0 224.5 -79t93 -225t-93 -224t-224.5 -78t-224.5 78t-93 224t93 225t224.5 79zM403 1280q-61 0 -97 -36t-36 -102t37 -102t97 -36t98.5 35.5t38.5 102.5t-38.5 102.5t-99.5 35.5z" glyph-name="degree" horiz-adv-x="808" unicode="°"/><glyph d="M694 981h430v-156h-430v-452h-157v452h-428v156h428v451h157v-451zM1124 23h-1015v157h1015v-157z" glyph-name="plusminus" horiz-adv-x="1222" unicode="±"/><glyph d="M297 1208h-156l138 275h290z" glyph-name="acute" horiz-adv-x="710" unicode="´"/><glyph d="M905 0h-160v1274h-122v-1274h-160v739q-166 25 -252 115t-86 238q0 342 395 342h385v-1434z" glyph-name="paragraph" horiz-adv-x="1056" unicode="¶"/><glyph d="M276 782q68 0 116 -43t48 -123t-48 -122.5t-116 -42.5t-115.5 43t-47.5 122q0 80 47.5 123t115.5 43z" glyph-name="periodcentered" horiz-adv-x="550" unicode="·"/><glyph d="M215 -346q147 25 147 91q0 56 -49 56q-20 0 -39 -10l-86 76l78 143h125l-57 -100q86 8 137 -36t51 -126t-72.5 -137t-189.5 -66z" glyph-name="cedilla" horiz-adv-x="710" unicode="¸"/><glyph d="M411 1452q140 0 240.5 -90t100.5 -258t-100.5 -258t-240.5 -90t-238.5 89t-98.5 259t98.5 259t238.5 89zM412 1292q-72 0 -116 -49t-44 -140t44 -140.5t116 -49.5t116.5 50.5t44.5 139.5t-44.5 139t-116.5 50z" glyph-name="ordmasculine" horiz-adv-x="823" unicode="º"/><glyph d="M993 520l-331 -397l-130 117l240 282l-240 281l136 117zM575 520l-333 -397l-127 117l239 282l-239 281l133 117z" glyph-name="guillemotright" horiz-adv-x="1044" unicode="»"/><glyph d="M1452 1563l-600 -1835h-147l602 1835h145zM539 764h176v-158h-541v158h176v471l-153 -59l-58 137l269 121h131v-670zM1970 324h127v-148h-127v-184h-178v184h-383v141l399 502h162v-495zM1790 324v260l-201 -260h201z" glyph-name="onequarter" horiz-adv-x="2179" unicode="¼"/><glyph d="M1452 1563l-600 -1835h-147l602 1835h145zM539 764h176v-158h-541v158h176v471l-153 -59l-58 137l269 121h131v-670zM1730 834q156 0 239 -69t83 -179q0 -166 -213 -324l-145 -106h377v-166h-613v151l236 185q150 119 149 223q0 53 -37 81.5t-98 28.5q-100 0 -199 -67 l-77 141q142 101 298 101z" glyph-name="onehalf" horiz-adv-x="2179" unicode="½"/><glyph d="M1452 1563l-600 -1835h-147l602 1835h145zM743 850q0 -119 -98 -193.5t-266 -74.5t-291 90l59 143q127 -65 219 -65q178 1 179 110q0 55 -38 80t-122 25h-113v139h97q66 0 103.5 25.5t37.5 72.5q0 92 -131 92q-100 0 -203 -73l-78 125q125 106 288 106t245 -59.5 t82 -153.5q0 -61 -37 -112t-109 -76q176 -43 176 -201zM2097 324v-148h-127v-184h-178v184h-383v141l399 502h162v-495h127zM1790 324v260l-201 -260h201z" glyph-name="threequarters" horiz-adv-x="2179" unicode="¾"/><glyph d="M588.5 788q-70.5 0 -114.5 43t-44 118t44 118t113.5 43t113.5 -43t44 -118t-43 -118t-113.5 -43zM553 -371q-211 0 -331 95.5t-120 243.5t95.5 235.5t192.5 175t102 237.5h192q0 -184 -77 -272t-153.5 -163t-76.5 -162t59.5 -130t165.5 -43q174 0 305 91l99 -173 q-76 -59 -198 -97t-255 -38z" glyph-name="questiondown" horiz-adv-x="1122" unicode="¿"/><glyph d="M674 1569l-277 274h293l137 -274h-153zM1034 303h-592l-104 -303h-270l536 1434h268l549 -1434h-280zM961 512l-224 637l-223 -637h447z" glyph-name="Agrave" horiz-adv-x="1486" unicode="À"/><glyph d="M807 1569h-156l135 274h293zM1034 303h-592l-104 -303h-270l536 1434h268l549 -1434h-280zM961 512l-224 637l-223 -637h447z" glyph-name="Aacute" horiz-adv-x="1486" unicode="Á"/><glyph d="M633 1587h-207l240 264h141l227 -264h-196l-105 111zM1034 303h-592l-104 -303h-270l536 1434h268l549 -1434h-280zM961 512l-224 637l-223 -637h447z" glyph-name="Acircumflex" horiz-adv-x="1486" unicode="Â"/><glyph d="M635 1677q-72 0 -109 -90l-123 68q25 94 83.5 139t117.5 45t132 -40t100 -40q59 0 98 96l133 -59q-27 -92 -79 -143t-114 -51t-133 37.5t-106 37.5zM1034 303h-592l-104 -303h-270l536 1434h268l549 -1434h-280zM961 512l-224 637l-223 -637h447z" glyph-name="Atilde" horiz-adv-x="1486" unicode="Ã"/><glyph d="M550 1597q-52 0 -87 31t-35 93t35 93t88 31t86 -30.5t33 -92.5t-34 -93.5t-86 -31.5zM928 1597q-53 0 -88 31t-35 93t34.5 93t88.5 31t86.5 -30.5t32.5 -92.5t-33 -93.5t-86 -31.5zM1034 303h-592l-104 -303h-270l536 1434h268l549 -1434h-280zM961 512l-224 637 l-223 -637h447z" glyph-name="Adieresis" horiz-adv-x="1486" unicode="Ä"/><glyph d="M741 1565q-76 0 -124 44t-48 116.5t48.5 116.5t123.5 44q76 0 123 -44t47 -116.5t-47 -116.5t-123 -44zM740 1798q-34 0 -52 -20.5t-18 -52t19.5 -53t51.5 -21.5q33 0 52.5 21.5t19.5 53t-19.5 52t-53.5 20.5zM1034 303h-592l-104 -303h-270l536 1434h268l549 -1434h-280 zM961 512l-224 637l-223 -637h447z" glyph-name="Aring" horiz-adv-x="1486" unicode="Å"/><glyph d="M1180 221h620v-221h-876v260h-435l-127 -260h-294l733 1434h999v-230h-620v-368h540v-228h-540v-387zM924 479v682l-330 -682h330z" glyph-name="AE" horiz-adv-x="1910" unicode="Æ"/><glyph d="M662 -346q147 25 147 91q0 30 -14.5 43t-34.5 13t-39 -10l-86 76l59 110q-248 37 -409.5 222t-165.5 518q0 183 54 327q55 144 151 233q196 181 497 181q139 0 263 -36t204 -97l-121 -201q-145 98 -337.5 98.5t-315.5 -128.5t-123 -380t124 -380t320.5 -128t354.5 130 l129 -186q-88 -80 -219 -129.5t-287 -51.5l-35 -59q86 8 137.5 -36t51.5 -126t-73 -137t-187 -66z" glyph-name="Ccedilla" horiz-adv-x="1366" unicode="Ç"/><glyph d="M688 1569h-156l-274 274h293zM1096 1214h-688v-376h600v-222h-600v-391h688v-225h-944v1434h944v-220z" glyph-name="Egrave" horiz-adv-x="1208" unicode="È"/><glyph d="M668 1569h-158l137 274h291zM1096 1214h-688v-376h600v-222h-600v-391h688v-225h-944v1434h944v-220z" glyph-name="Eacute" horiz-adv-x="1208" unicode="É"/><glyph d="M494 1587h-207l237 264h144l227 -264h-199l-102 111zM408 1214v-376h600v-222h-600v-391h688v-225h-944v1434h944v-220h-688z" glyph-name="Ecircumflex" horiz-adv-x="1208" unicode="Ê"/><glyph d="M410 1845q53 0 86.5 -30.5t33.5 -93t-33.5 -93.5t-86.5 -31t-87 31t-34 93t34 93t87 31zM787 1845q54 0 87 -30.5t33 -93t-33.5 -93.5t-86 -31t-87 31t-34.5 93t33.5 93t87.5 31zM1096 1214h-688v-376h600v-222h-600v-391h688v-225h-944v1434h944v-220z" glyph-name="Edieresis" horiz-adv-x="1208" unicode="Ë"/><glyph d="M387 1569h-154l-276 274h293zM430 0h-256v1434h256v-1434z" glyph-name="Igrave" horiz-adv-x="602" unicode="Ì"/><glyph d="M367 1569h-156l135 274h293zM430 0h-256v1434h256v-1434z" glyph-name="Iacute" horiz-adv-x="602" unicode="Í"/><glyph d="M193 1587h-207l239 264h142l229 -264h-199l-104 111zM174 1434h256v-1434h-256v1434z" glyph-name="Icircumflex" horiz-adv-x="602" unicode="Î"/><glyph d="M111 1845q53 0 85.5 -30.5t32.5 -92.5t-33.5 -93.5t-85.5 -31.5t-87 31t-35 93t35 93t88 31zM487 1845q53 0 86 -30.5t33 -92.5t-32 -93.5t-86 -31.5t-87.5 31t-33.5 93t33.5 93t86.5 31zM430 0h-256v1434h256v-1434z" glyph-name="Idieresis" horiz-adv-x="602" unicode="Ï"/><glyph d="M336 1434h440q318 0 470.5 -129t207.5 -266.5t55 -311.5q0 -233 -145 -480t-588 -247h-440v637h-184v182h184v615zM596 233h201q213 0 327.5 122t114.5 372q0 475 -442 475h-201v-383h231v-182h-231v-404z" glyph-name="Eth" horiz-adv-x="1630" unicode="Ð"/><glyph d="M880.5 1614q-61.5 0 -133 38t-106.5 38q-72 0 -106 -88l-123 65q25 94 82 139t116 45t132 -39.5t100 -39.5q59 0 100 96l131 -60q-27 -92 -79 -143t-113.5 -51zM1358 0h-217l-733 987v-987h-256v1434h219l727 -992v992h260v-1434z" glyph-name="Ntilde" horiz-adv-x="1507" unicode="Ñ"/><glyph d="M901 1569h-156l-274 274h293zM839 1458q123 0 246 -44t224.5 -130t161 -230.5t59.5 -330.5t-59.5 -334.5t-161 -238t-224 -135.5t-259 -46t-260.5 46t-225 135.5t-161.5 238t-60.5 316.5t40 291.5t107.5 207.5t158.5 142.5t191 85t223 26.5zM825 1223q-190 0 -312 -128 t-122 -373t122 -381t310 -136t312.5 135t124.5 381t-122.5 374t-312.5 128z" glyph-name="Ograve" horiz-adv-x="1650" unicode="Ò"/><glyph d="M881 1569h-158l137 274h291zM839 1458q123 0 246 -44t224.5 -130t161 -230.5t59.5 -330.5t-59.5 -334.5t-161 -238t-224 -135.5t-259 -46t-260.5 46t-225 135.5t-161.5 238t-60.5 316.5t40 291.5t107.5 207.5t158.5 142.5t191 85t223 26.5zM825 1223q-190 0 -312 -128 t-122 -373t122 -381t310 -136t312.5 135t124.5 381t-122.5 374t-312.5 128z" glyph-name="Oacute" horiz-adv-x="1650" unicode="Ó"/><glyph d="M707 1587h-207l239 264h142l227 -264h-199l-102 111zM839 1458q123 0 246 -44t224.5 -130t161 -230.5t59.5 -330.5t-59.5 -334.5t-161 -238t-224 -135.5t-259 -46t-260.5 46t-225 135.5t-161.5 238t-60.5 316.5t40 291.5t107.5 207.5t158.5 142.5t191 85t223 26.5z M823 205q188 0 312.5 135t124.5 381t-122 374t-313 128q-190 0 -312 -128t-122 -373t122 -381t310 -136z" glyph-name="Ocircumflex" horiz-adv-x="1650" unicode="Ô"/><glyph d="M948 1602q-62 0 -133.5 37.5t-107.5 37.5q-70 0 -107 -90l-123 68q25 94 82 139t117 45t133.5 -40t97.5 -40q60 0 101 96l131 -59q-25 -92 -77 -143t-114 -51zM839 1458q123 0 246 -44t224.5 -130t161 -230.5t59.5 -330.5t-59.5 -334.5t-161 -238t-224 -135.5t-259 -46 t-260.5 46t-225 135.5t-161.5 238t-60.5 316.5t40 291.5t107.5 207.5t158.5 142.5t191 85t223 26.5zM825 1223q-190 0 -312 -128t-122 -373t122 -381t310 -136t312.5 135t124.5 381t-122.5 374t-312.5 128z" glyph-name="Otilde" horiz-adv-x="1650" unicode="Õ"/><glyph d="M623 1845q53 0 86.5 -30.5t33.5 -92.5t-33.5 -93.5t-86.5 -31.5t-87 31t-34 93t34 93t87 31zM1001 1845q53 0 86 -30.5t33 -92.5t-32.5 -93.5t-86.5 -31.5q-53 0 -87.5 31t-34.5 93t34.5 93t87.5 31zM839 1458q123 0 246 -44t224.5 -130t161 -230.5t59.5 -330.5 t-59.5 -334.5t-161 -238t-224 -135.5t-259 -46t-260.5 46t-225 135.5t-161.5 238t-60.5 316.5t40 291.5t107.5 207.5t158.5 142.5t191 85t223 26.5zM825 1223q-190 0 -312 -128t-122 -373t122 -381t310 -136t312.5 135t124.5 381t-122.5 374t-312.5 128z" glyph-name="Odieresis" horiz-adv-x="1650" unicode="Ö"/><glyph d="M1176 131l-125 -125l-400 408l-399 -406l-125 123l397 408l-401 409l129 125l399 -407l400 407l125 -127l-400 -407z" glyph-name="multiply" horiz-adv-x="1300" unicode="×"/><glyph d="M1530 723q0 -186 -59.5 -334.5t-213 -284t-432.5 -135.5q-164 0 -307 66l-141 -254l-141 86l143 252q-260 207 -260 619t239.5 566t466.5 154q152 0 283 -51l133 233l141 -75l-131 -234q279 -197 279 -608zM391 727q0 -240 117 -381l481 848q-76 29 -164 29 q-190 0 -312 -128t-122 -368zM821 205q190 0 314.5 135t124.5 384t-136 384l-485 -862q82 -41 182 -41z" glyph-name="Oslash" horiz-adv-x="1650" unicode="Ø"/><glyph d="M795 1569h-154l-276 274h292zM1288 1434v-916q0 -143 -45 -251.5t-125 -172t-179 -94.5t-218 -31t-219.5 31t-180 94.5t-124.5 172t-45 251.5v916h256v-914q0 -150 80.5 -230.5t231.5 -80.5t231.5 81t80.5 230v914h256z" glyph-name="Ugrave" horiz-adv-x="1439" unicode="Ù"/><glyph d="M774 1569h-156l136 274h293zM1288 1434v-916q0 -143 -45 -251.5t-125 -172t-179 -94.5t-218 -31t-219.5 31t-180 94.5t-124.5 172t-45 251.5v916h256v-914q0 -150 80.5 -230.5t231.5 -80.5t231.5 81t80.5 230v914h256z" glyph-name="Uacute" horiz-adv-x="1439" unicode="Ú"/><glyph d="M600 1587h-207l240 264h141l227 -264h-196l-105 111zM1288 1434v-916q0 -143 -45 -251.5t-125 -172t-179 -94.5t-218 -31t-219.5 31t-180 94.5t-124.5 172t-45 251.5v916h256v-914q0 -150 80.5 -230.5t231.5 -80.5t231.5 81t80.5 230v914h256z" glyph-name="Ucircumflex" horiz-adv-x="1439" unicode="Û"/><glyph d="M518 1845q53 0 86 -30.5t33 -92.5t-34 -93.5t-86 -31.5t-87 31t-35 93t35 93t88 31zM895 1845q53 0 86 -30.5t33 -92.5t-33 -93.5t-86 -31.5t-88 31t-35 93t35 93t88 31zM1288 1434v-916q0 -143 -45 -251.5t-125 -172t-179 -94.5t-218 -31t-219.5 31t-180 94.5 t-124.5 172t-45 251.5v916h256v-914q0 -150 80.5 -230.5t231.5 -80.5t231.5 81t80.5 230v914h256z" glyph-name="Udieresis" horiz-adv-x="1439" unicode="Ü"/><glyph d="M741 1569h-155l135 274h293zM784 0h-256v573l-499 861h297l338 -617l337 617h281l-498 -863v-571z" glyph-name="Yacute" horiz-adv-x="1345" unicode="Ý"/><glyph d="M412 1202h227q240 0 364.5 -126t124.5 -326t-128 -328.5t-361 -128.5h-227v-293h-260v1434h260v-232zM856 754q0 219 -248 219h-196v-459h196q111 0 179.5 62.5t68.5 177.5z" glyph-name="Thorn" horiz-adv-x="1179" unicode="Þ"/><glyph d="M568 1565q210 0 325 -95.5t115 -245.5t-49.5 -211t-98.5 -111.5t-49 -84.5q0 -33 24.5 -60.5t85 -64.5t141.5 -119t81 -244q0 -163 -108.5 -257.5t-297.5 -94.5q-143 0 -248 37l46 185q102 -27 181 -27t128 50t49 116t-34 115t-81 82.5t-127 91.5t-80 168q0 84 46.5 133 t92.5 98.5t46 138.5q0 90 -47 136.5t-134 46.5q-176 0 -176 -183v-1165h-254v1188q0 176 106.5 276.5t316.5 100.5z" glyph-name="germandbls" horiz-adv-x="1236" unicode="ß"/><glyph d="M664 1219h-156l-275 272h293zM556 1104q238 0 345 -97.5t107 -295.5v-457q0 -82 59 -82h45l-20 -160q-35 -33 -121 -32q-133 0 -174 120q-119 -131 -305 -131t-291 83t-105 245t117 239.5t283 77.5t266 -22v104q0 113 -56.5 159t-164.5 46q-172 0 -297 -98l-99 155 q173 146 411 146zM547 455q-219 0 -219 -146q0 -82 53 -117.5t133 -35.5q176 0 250 129v147q-96 23 -217 23z" glyph-name="agrave" horiz-adv-x="1171" unicode="à"/><glyph d="M643 1219h-158l138 272h292zM556 1104q238 0 345 -97.5t107 -295.5v-457q0 -82 59 -82h45l-20 -160q-35 -33 -121 -32q-133 0 -174 120q-119 -131 -305 -131t-291 83t-105 245t117 239.5t283 77.5t266 -22v104q0 113 -56.5 159t-164.5 46q-172 0 -297 -98l-99 155 q173 146 411 146zM547 455q-219 0 -219 -146q0 -82 53 -117.5t133 -35.5q176 0 250 129v147q-96 23 -217 23z" glyph-name="aacute" horiz-adv-x="1171" unicode="á"/><glyph d="M469 1235h-207l240 264h141l227 -264h-198l-103 111zM1067 172h45l-20 -160q-35 -33 -121 -32q-133 0 -174 120q-119 -131 -305 -131t-291 83t-105 245t117 239.5t283 77.5t266 -22v104q0 113 -56.5 159t-164.5 46q-172 0 -297 -98l-99 155q173 146 411 146t345 -97.5 t107 -295.5v-457q0 -82 59 -82zM547 455q-219 0 -219 -146q0 -82 53 -117.5t133 -35.5q176 0 250 129v147q-96 23 -217 23z" glyph-name="acircumflex" horiz-adv-x="1171" unicode="â"/><glyph d="M710 1249q-62 0 -133 38t-108 38q-70 0 -107 -88l-122 66q25 94 82 139t117 45t133 -40t100 -40q57 0 98 98l131 -61q-25 -90 -77 -142.5t-114 -52.5zM556 1104q238 0 345 -97.5t107 -295.5v-457q0 -82 59 -82h45l-20 -160q-35 -33 -121 -32q-133 0 -174 120 q-119 -131 -305 -131t-291 83t-105 245t117 239.5t283 77.5t266 -22v104q0 113 -56.5 159t-164.5 46q-172 0 -297 -98l-99 155q173 146 411 146zM547 455q-219 0 -219 -146q0 -82 53 -117.5t133 -35.5q176 0 250 129v147q-96 23 -217 23z" glyph-name="atilde" horiz-adv-x="1171" unicode="ã"/><glyph d="M385 1493q53 0 87 -30.5t34 -92.5t-34 -93.5t-87 -31.5t-87 31t-34 93t34 93t87 31zM764 1493q53 0 86 -30.5t33 -92.5t-33 -93.5t-86 -31.5t-88 31t-35 93t35 93t88 31zM556 1104q238 0 345 -97.5t107 -295.5v-457q0 -82 59 -82h45l-20 -160q-35 -33 -121 -32 q-133 0 -174 120q-119 -131 -305 -131t-291 83t-105 245t117 238.5t283 76.5t266 -20v104q0 113 -56.5 159t-164.5 46q-172 0 -297 -98l-99 155q173 146 411 146zM547 455q-219 0 -219 -146q0 -82 53 -117.5t133 -35.5q176 0 250 129v147q-96 23 -217 23z" glyph-name="adieresis" horiz-adv-x="1171" unicode="ä"/><glyph d="M577 1534q75 0 123 -44t48 -117t-49 -117t-123 -44t-122 44t-48 117t48 117t123 44zM577 1448q-34 0 -53.5 -21.5t-19.5 -53.5t19.5 -52.5t53.5 -20.5t53 20.5t19 52.5t-19 53.5t-53 21.5zM556 1104q238 0 345 -97.5t107 -295.5v-457q0 -82 59 -82h45l-20 -160 q-35 -33 -121 -32q-133 0 -174 120q-119 -131 -305 -131t-291 83t-105 245t117 239.5t283 77.5t266 -22v104q0 113 -56.5 159t-164.5 46q-172 0 -297 -98l-99 155q173 146 411 146zM547 455q-219 0 -219 -146q0 -82 53 -117.5t133 -35.5q176 0 250 129v147q-96 23 -217 23z " glyph-name="aring" horiz-adv-x="1171" unicode="å"/><glyph d="M1759 610q0 -98 -10 -151h-721q14 -141 92 -212t232 -71t280 98l86 -143q-63 -74 -173.5 -115t-235.5 -41q-272 0 -406 205q-156 -205 -436 -205q-162 0 -266.5 87.5t-104.5 246.5q0 113 89.5 219.5t363.5 106.5q125 0 225 -21v78q0 203 -225 203q-164 0 -297 -92 l-98 158q184 137 419 137q133 0 218.5 -44t136.5 -147q131 190 389 191q197 0 319.5 -132.5t122.5 -355.5zM1026 625h502q-18 279 -240 278q-113 0 -181.5 -71.5t-80.5 -206.5zM332 319q0 -151 189 -151q85 0 165 51t92 121v113q-119 20 -209 20q-238 0 -237 -154z" glyph-name="ae" horiz-adv-x="1855" unicode="æ"/><glyph d="M494 -346q147 26 147 91q0 30 -14.5 43t-34.5 13t-39 -10l-86 76l59 113q-193 33 -312.5 181t-119.5 396t153.5 397.5t382 149.5t380.5 -131l-101 -172q-117 90 -256 90t-225 -91t-86 -257t88 -263.5t230.5 -97t265.5 102.5l108 -162q-68 -68 -169 -110t-220 -44l-35 -59 q86 8 137.5 -36t51.5 -126t-73 -137t-187 -66z" glyph-name="ccedilla" horiz-adv-x="1095" unicode="ç"/><glyph d="M526 1208l-274 275h293l137 -275h-156zM1092 605q0 -89 -15 -154h-735q39 -281 305 -281q174 0 305 111l103 -162q-176 -150 -445 -150q-306 0 -444 249q-72 130 -72 312q0 262 140.5 418t367.5 156q121 0 216 -43t153.5 -115t89.5 -162t31 -179zM608 909 q-115 0 -186.5 -73t-83.5 -220h526q-4 135 -72.5 214t-183.5 79z" glyph-name="egrave" horiz-adv-x="1185" unicode="è"/><glyph d="M662 1208h-156l135 275h293zM1092 605q0 -89 -15 -154h-735q39 -281 305 -281q174 0 305 111l103 -162q-176 -150 -445 -150q-306 0 -444 249q-72 130 -72 312q0 262 140.5 418t367.5 156q121 0 216 -43t153.5 -115t89.5 -162t31 -179zM608 909q-115 0 -186.5 -73 t-83.5 -220h526q-4 135 -72.5 214t-183.5 79z" glyph-name="eacute" horiz-adv-x="1185" unicode="é"/><glyph d="M487 1227h-206l239 262h142l227 -262h-197l-104 110zM1092 605q0 -89 -15 -154h-735q39 -281 305 -281q174 0 305 111l103 -162q-176 -150 -445 -150q-306 0 -444 249q-72 130 -72 312q0 262 140.5 418t367.5 156q121 0 216 -43t153.5 -115t89.5 -162t31 -179zM608 909 q-115 0 -186.5 -73t-83.5 -220h526q-4 135 -72.5 214t-183.5 79z" glyph-name="ecircumflex" horiz-adv-x="1185" unicode="ê"/><glyph d="M405 1235q-52 0 -87 31.5t-35 93.5q0 61 33.5 93t88 32t87 -32t32.5 -93t-33.5 -93t-85.5 -32zM782 1235q-53 0 -88 31.5t-35 93.5q0 61 35 93t88 32t86 -32t33 -93t-33 -93t-86 -32zM1092 605q0 -89 -15 -154h-735q39 -281 305 -281q174 0 305 111l103 -162 q-176 -150 -445 -150q-306 0 -444 249q-72 130 -72 312q0 262 140.5 418t367.5 156q121 0 216 -43t153.5 -115t89.5 -162t31 -179zM608 909q-115 0 -186.5 -73t-83.5 -220h526q-4 135 -72.5 214t-183.5 79z" glyph-name="edieresis" horiz-adv-x="1185" unicode="ë"/><glyph d="M338 1208h-156l-276 275h293zM385 0h-246v1073h246v-1073z" glyph-name="igrave" horiz-adv-x="524" unicode="ì"/><glyph d="M315 1208h-155l137 275h291zM385 0h-246v1073h246v-1073z" glyph-name="iacute" horiz-adv-x="524" unicode="í"/><glyph d="M143 1227h-206l237 264h143l228 -264h-199l-104 110zM139 1073h246v-1073h-246v1073z" glyph-name="icircumflex" horiz-adv-x="524" unicode="î"/><glyph d="M59 1485q53 0 87 -31t34 -93t-33.5 -93t-87.5 -31q-53 0 -87.5 30.5t-34.5 92.5t34.5 93.5t87.5 31.5zM436 1485q53 0 86 -31t33 -93t-33 -93t-86 -31t-87 30.5t-34 92.5t34 93.5t87 31.5zM385 0h-246v1073h246v-1073z" glyph-name="idieresis" horiz-adv-x="524" unicode="ï"/><glyph d="M94 542q0 142 40 251.5t143.5 210t295.5 100.5q191 0 306 -135q-59 164 -193 286l-223 -104l-53 100l178 84q-61 43 -137 82l133 133q111 -55 198 -125l193 93l53 -103l-151 -72q279 -274 278 -731q0 -307 -140.5 -475t-374.5 -168t-348 102.5t-156 215.5t-42 255z M623 190q129 0 204.5 91.5t75.5 252.5t-77.5 253t-207.5 92q-129 0 -201.5 -91.5t-72.5 -252.5q0 -162 75 -253.5t204 -91.5z" glyph-name="eth" horiz-adv-x="1249" unicode="ð"/><glyph d="M747.5 1249q-61.5 0 -133 38t-108.5 38q-70 0 -107 -88l-123 66q25 94 82.5 139t117.5 45t133 -40t100 -40q57 0 98 98l131 -61q-25 -90 -77 -142.5t-113.5 -52.5zM731 1104q170 0 267.5 -94.5t97.5 -270.5v-739h-246v662q0 115 -45 161.5t-129 46.5q-164 0 -287 -176 v-694h-244v1073h168l39 -160h8q78 96 164 143.5t207 47.5z" glyph-name="ntilde" horiz-adv-x="1241" unicode="ñ"/><glyph d="M711 1208h-156l-274 275h292zM634.5 1104q106.5 0 202 -34t172 -100.5t122 -178t45.5 -255t-45.5 -255t-122 -178t-172 -100.5t-202 -34t-201.5 34t-172 100.5t-122 178t-45 255t45 255t122 178t172 100.5t201.5 34zM636 887q-136 0 -214 -92.5t-78 -258t78 -258 t214 -92.5t213 92.5t77 258t-77 258t-213 92.5z" glyph-name="ograve" horiz-adv-x="1269" unicode="ò"/><glyph d="M690 1208h-158l138 275h291zM634.5 1104q106.5 0 202 -34t172 -100.5t122 -178t45.5 -255t-45.5 -255t-122 -178t-172 -100.5t-202 -34t-201.5 34t-172 100.5t-122 178t-45 255t45 255t122 178t172 100.5t201.5 34zM636 887q-136 0 -214 -92.5t-78 -258t78 -258 t214 -92.5t213 92.5t77 258t-77 258t-213 92.5z" glyph-name="oacute" horiz-adv-x="1269" unicode="ó"/><glyph d="M516 1227h-207l238 264h143l228 -264h-199l-103 110zM634.5 1104q106.5 0 202 -34t172 -100.5t122 -178t45.5 -255t-45.5 -255t-122 -178t-172 -100.5t-202 -34t-201.5 34t-172 100.5t-122 178t-45 255t45 255t122 178t172 100.5t201.5 34zM636 186q136 0 213 92.5 t77 258t-77 258t-213 92.5t-214 -92.5t-78 -258t78 -258t214 -92.5z" glyph-name="ocircumflex" horiz-adv-x="1269" unicode="ô"/><glyph d="M757 1241q-62 0 -133 38t-108 38q-70 0 -106 -90l-123 67q25 94 82 139.5t117 45.5t133 -40t98 -40q59 0 100 96l131 -59q-25 -92 -77 -143.5t-114 -51.5zM634.5 1104q106.5 0 202 -34t172 -100.5t122 -178t45.5 -255t-45.5 -255t-122 -178t-172 -100.5t-202 -34 t-201.5 34t-172 100.5t-122 178t-45 255t45 255t122 178t172 100.5t201.5 34zM636 887q-136 0 -214 -92.5t-78 -258t78 -258t214 -92.5t213 92.5t77 258t-77 258t-213 92.5z" glyph-name="otilde" horiz-adv-x="1269" unicode="õ"/><glyph d="M432 1485q53 0 87 -31t34 -93t-34 -93t-87 -31t-87 30.5t-34 92.5t34 93.5t87 31.5zM810 1485q54 0 87 -31t33 -93t-34 -93t-86 -31t-87 30.5t-35 92.5t34 93.5t88 31.5zM634.5 1104q106.5 0 202 -34t172 -100.5t122 -178t45.5 -255t-45.5 -255t-122 -178t-172 -100.5 t-202 -34t-201.5 34t-172 100.5t-122 178t-45 255t45 255t122 178t172 100.5t201.5 34zM636 887q-136 0 -214 -92.5t-78 -258t78 -258t214 -92.5t213 92.5t77 258t-77 258t-213 92.5z" glyph-name="odieresis" horiz-adv-x="1269" unicode="ö"/><glyph d="M527.5 1085q56.5 0 96.5 -34.5t40 -101.5t-40 -100.5t-96.5 -33.5t-96.5 34.5t-40 100.5t40 100.5t96.5 34.5zM1020 461h-973v155h973v-155zM527.5 270q56.5 0 96.5 -34.5t40 -101.5t-40 -101.5t-96.5 -34.5t-96.5 35t-40 101t40 101t96.5 35z" glyph-name="divide" horiz-adv-x="1028" unicode="÷"/><glyph d="M632 -31q-108 0 -206 37l-109 -207l-122 72l112 197q-213 150 -213 469q0 143 45 254.5t161.5 212t334.5 100.5q111 0 209 -35l100 197l125 -64l-111 -194q217 -150 218 -471q0 -143 -45.5 -255t-122 -178.5t-172.5 -100.5t-204 -34zM635 887q-135 0 -213 -92.5 t-78 -260.5t82 -260l315 594q-49 19 -106 19zM635 186q137 0 214 92.5t77 260.5t-82 260l-314 -594q48 -19 105 -19z" glyph-name="oslash" horiz-adv-x="1269" unicode="ø"/><glyph d="M553 1208l-274 275h292l138 -275h-156zM510 -25q-168 0 -266.5 97.5t-98.5 283.5v717h244v-659q0 -219 174 -219q156 0 275 174v704h243v-1073h-170l-49 150q-66 -82 -147.5 -128.5t-204.5 -46.5z" glyph-name="ugrave" horiz-adv-x="1228" unicode="ù"/><glyph d="M686 1208h-156l138 275h290zM510 -25q-168 0 -266.5 97.5t-98.5 283.5v717h244v-659q0 -219 174 -219q156 0 275 174v704h243v-1073h-170l-49 150q-66 -82 -147.5 -128.5t-204.5 -46.5z" glyph-name="uacute" horiz-adv-x="1228" unicode="ú"/><glyph d="M514 1227h-207l238 264h143l227 -264h-198l-103 110zM510 -25q-168 0 -266.5 97.5t-98.5 283.5v717h244v-659q0 -219 174 -219q156 0 275 174v704h243v-1073h-170l-49 150q-66 -82 -147.5 -128.5t-204.5 -46.5z" glyph-name="ucircumflex" horiz-adv-x="1228" unicode="û"/><glyph d="M430 1237q-53 0 -87 30.5t-34 92.5t34 93.5t87 31.5t87 -31t34 -93t-34 -93t-87 -31zM807 1237q-53 0 -87 30.5t-34 92.5t34 93.5t87 31.5t87 -31t34 -93t-34 -93t-87 -31zM510 -25q-168 0 -266.5 97.5t-98.5 283.5v717h244v-661q0 -217 174 -217q156 0 275 174v704h243 v-1073h-170l-49 150q-66 -82 -147.5 -128.5t-204.5 -46.5z" glyph-name="udieresis" horiz-adv-x="1228" unicode="ü"/><glyph d="M655 1219h-155l135 272h293zM274 -238q64 0 116 41t81 117l18 47l-444 1108h256l309 -852l277 852h262l-412 -1143q-131 -366 -404 -366q-136 0 -243 35l45 186q75 -25 139 -25z" glyph-name="yacute" horiz-adv-x="1202" unicode="ý"/><glyph d="M387 952h4q123 146 309 146t311.5 -139.5t125.5 -400.5t-144.5 -422t-349.5 -161q-150 0 -252 54v-461h-246v1866h242v-482zM641 881q-141 0 -250 -162v-481q80 -60 200 -60t207 96.5t87 267.5t-70 255t-174 84z" glyph-name="thorn" horiz-adv-x="1230" unicode="þ"/><glyph d="M399 1245q-53 0 -88 31t-35 93t35 93t88 31t87 -30.5t34 -92.5t-34 -93.5t-87 -31.5zM776 1245q-53 0 -87 31t-34 93t34 93t87 31t86 -30.5t33 -92.5t-33 -93.5t-86 -31.5zM274 -238q64 0 116 41t81 117l18 47l-444 1108h256l309 -852l277 852h262l-412 -1143 q-131 -366 -404 -366q-136 0 -243 35l45 186q75 -25 139 -25z" glyph-name="ydieresis" horiz-adv-x="1202" unicode="ÿ"/><glyph d="M999 1663h-516v131h516v-131zM1034 303h-592l-104 -303h-270l536 1434h268l549 -1434h-280zM961 512l-224 637l-223 -637h447z" glyph-name="Amacron" horiz-adv-x="1486" unicode="Ā"/><glyph d="M836 1313h-517v129h517v-129zM556 1104q238 0 345 -97.5t107 -295.5v-457q0 -82 59 -82h45l-20 -160q-35 -33 -121 -32q-133 0 -174 120q-119 -131 -305 -131t-291 83t-105 245t117 239.5t283 77.5t266 -22v104q0 113 -56.5 159t-164.5 46q-172 0 -297 -98l-99 155 q173 146 411 146zM547 455q-219 0 -219 -146q0 -82 53 -117.5t133 -35.5q176 0 250 129v147q-96 23 -217 23z" glyph-name="amacron" horiz-adv-x="1171" unicode="ā"/><glyph d="M740 1548q-114 0 -196.5 66.5t-94.5 195.5h129q10 -57 52 -89.5t111 -32.5q135 0 162 122h129q-12 -129 -95 -195.5t-197 -66.5zM1034 303h-592l-104 -303h-270l536 1434h268l549 -1434h-280zM961 512l-224 637l-223 -637h447z" glyph-name="Abreve" horiz-adv-x="1486" unicode="Ă"/><glyph d="M575 1335q137 0 162 125h131q-14 -129 -96 -195.5t-196 -66.5t-196.5 65.5t-94.5 196.5h127q26 -125 163 -125zM556 1104q238 0 345 -97.5t107 -295.5v-457q0 -82 59 -82h45l-20 -160q-35 -33 -121 -32q-133 0 -174 120q-119 -131 -305 -131t-291 83t-105 245t117 239.5 t283 77.5t266 -22v104q0 113 -56.5 159t-164.5 46q-172 0 -297 -98l-99 155q173 146 411 146zM547 455q-219 0 -219 -146q0 -82 53 -117.5t133 -35.5q176 0 250 129v147q-96 23 -217 23z" glyph-name="abreve" horiz-adv-x="1171" unicode="ă"/><glyph d="M1231 -188q0 -98 117 -113l-41 -141q-111 10 -179.5 68.5t-69.5 139.5t33.5 132t102.5 102h-53l-107 303h-592l-104 -303h-270l536 1434h268l549 -1434h-98q-53 -63 -72.5 -104t-19.5 -84zM961 512l-224 637l-223 -637h447z" glyph-name="Aogonek" horiz-adv-x="1486" unicode="Ą"/><glyph d="M1008 -178q0 -98 116 -113l-39 -141q-113 12 -181 70t-69 158t99 186q-102 14 -137 118q-119 -131 -305 -131t-291 83t-105 245t117 239.5t283 77.5t266 -22v104q0 113 -56.5 159t-164.5 46q-172 0 -297 -98l-99 155q173 146 411 146t345 -97.5t107 -295.5v-457 q0 -82 59 -82h45l-18 -145l16 -4q-59 -70 -80.5 -113t-21.5 -88zM547 455q-219 0 -219 -146q0 -82 53 -117.5t133 -35.5q176 0 250 129v147q-96 23 -217 23z" glyph-name="aogonek" horiz-adv-x="1171" unicode="ą"/><glyph d="M866 1583h-155l137 272h291zM815.5 1458q144.5 0 268.5 -36t204 -97l-121 -201q-145 98 -337.5 98.5t-315.5 -128.5t-123 -380t124 -380t320.5 -128t354.5 130l129 -186q-90 -82 -222 -131.5t-280.5 -49.5t-270.5 46t-218.5 136.5t-151.5 235.5t-56 329.5t53 328 t150.5 232.5t222 135t270 46z" glyph-name="Cacute" horiz-adv-x="1366" unicode="Ć"/><glyph d="M700 1208h-155l137 275h291zM630 1104q228 0 380 -131l-101 -172q-117 90 -256 90t-225 -91t-86 -257t88 -263.5t230 -97.5t266 103l108 -162q-70 -70 -173 -112t-226 -42q-236 0 -388.5 153.5t-152.5 418t154 414t382 149.5z" glyph-name="cacute" horiz-adv-x="1095" unicode="ć"/><glyph d="M804 1860q56 0 95 -33t39 -98q0 -66 -39 -100t-95 -34t-95 34t-39 100t39 98.5t95 32.5zM815.5 1458q144.5 0 268.5 -36t204 -97l-121 -201q-145 98 -337.5 98.5t-315.5 -128.5t-123 -380t124 -380t320.5 -128t354.5 130l129 -186q-90 -82 -222 -131.5t-280.5 -49.5 t-270.5 46t-218.5 136.5t-151.5 235.5t-56 329.5t53 328t150.5 232.5t222 135t270 46z" glyph-name="Cdotaccent" horiz-adv-x="1366" unicode="Ċ"/><glyph d="M638 1487q56 0 95 -33t39 -98q0 -66 -40 -99.5t-95 -33.5t-94 33.5t-39 99.5t39 98.5t95 32.5zM630 1104q228 0 380 -131l-101 -172q-117 90 -256 90t-225 -91t-86 -257t88 -263.5t230 -97.5t266 103l108 -162q-70 -70 -173 -112t-226 -42q-236 0 -388.5 153.5 t-152.5 418t154 414t382 149.5z" glyph-name="cdotaccent" horiz-adv-x="1095" unicode="ċ"/><glyph d="M719 1597l-234 258h203l105 -116l108 116h193l-222 -258h-153zM816.5 -31q-148.5 0 -270.5 46t-218.5 136.5t-151.5 235.5t-56 329t53 328q55 144 151 233q196 181 497 181q139 0 263 -36t204 -97l-121 -201q-145 98 -337.5 98.5t-315.5 -128.5t-123 -380t124 -380 t320.5 -128t354.5 130l129 -186q-90 -82 -222 -131.5t-280.5 -49.5z" glyph-name="Ccaron" horiz-adv-x="1366" unicode="Č"/><glyph d="M553 1225l-234 258h203l105 -117l108 117h193l-221 -258h-154zM635 -31q-236 0 -388.5 153.5t-152.5 418t153.5 414t382 149.5t380.5 -131l-101 -172q-117 90 -256 90t-225 -91t-86 -257t88 -263.5t230.5 -97t265.5 102.5l108 -162q-70 -70 -173 -112t-226 -42z" glyph-name="ccaron" horiz-adv-x="1095" unicode="č"/><glyph d="M565 1585l-233 258h203l102 -117l108 117h195l-223 -258h-152zM152 1434h440q318 0 470 -129t208.5 -266.5t56.5 -311.5q0 -233 -147 -480t-588 -247h-440v1434zM412 233h200q213 0 328 122t115 372q0 475 -443 475h-200v-969z" glyph-name="Dcaron" horiz-adv-x="1445" unicode="Ď"/><glyph d="M1102 0h-176l-33 125h-4q-57 -70 -140 -113t-175 -43t-174.5 33t-152 97.5t-111.5 177.5t-42 257t40 254.5t141 213t284 102.5q184 0 297 -103v539h246v-1540zM1329 1210h-115l9 330h198zM628 881q-129 0 -206.5 -86t-77.5 -253t80 -257t190 -90q152 0 242 135v440 q-99 111 -228 111z" glyph-name="dcaron" horiz-adv-x="1382" unicode="ď"/><glyph d="M905 1663h-516v131h516v-131zM152 1434h440q318 0 470 -129t208.5 -266.5t56.5 -311.5q0 -233 -147 -480t-588 -247h-440v1434zM412 1202v-969h200q213 0 328 122t115 372q0 475 -443 475h-200z" glyph-name="Dcroat" horiz-adv-x="1445" unicode="Đ"/><glyph d="M1227 1225h-125v-1225h-176l-33 125h-4q-57 -70 -140 -113t-175 -43t-174.5 33t-152 97.5t-111.5 177.5t-42 257t40 254.5t141 213t284 102.5q184 0 297 -103v224h-145v129h145v186h246v-186h125v-129zM628 881q-130 0 -207 -86t-77 -253t80 -257t190 -90q152 0 242 135 v440q-98 111 -228 111z" glyph-name="dcroat" horiz-adv-x="1247" unicode="đ"/><glyph d="M860 1663h-516v131h516v-131zM1096 1214h-688v-376h600v-222h-600v-391h688v-225h-944v1434h944v-220z" glyph-name="Emacron" horiz-adv-x="1208" unicode="Ē"/><glyph d="M854 1303h-516v131h516v-131zM1092 605q0 -89 -15 -154h-735q39 -281 305 -281q174 0 305 111l103 -162q-176 -150 -445 -150q-306 0 -444 249q-72 130 -72 312q0 262 140.5 418t367.5 156q121 0 216 -43t153.5 -115t89.5 -162t31 -179zM608 909q-115 0 -186.5 -73 t-83.5 -220h526q-4 135 -72.5 214t-183.5 79z" glyph-name="emacron" horiz-adv-x="1185" unicode="ē"/><glyph d="M601 1548q-114 0 -196.5 66.5t-95.5 195.5h127q12 -57 54 -89.5t112 -32.5q135 -1 160 122h129q-12 -129 -94 -195.5t-196 -66.5zM1096 1214h-688v-376h600v-222h-600v-391h688v-225h-944v1434h944v-220z" glyph-name="Ebreve" horiz-adv-x="1208" unicode="Ĕ"/><glyph d="M595 1188q-114 0 -197 66.5t-95 195.5h129q10 -59 52 -92t112 -33q135 0 162 125h129q-12 -129 -95 -195.5t-197 -66.5zM1092 605q0 -89 -15 -154h-735q39 -281 305 -281q174 0 305 111l103 -162q-176 -150 -445 -150q-306 0 -444 249q-72 130 -72 312q0 262 140.5 418 t367.5 156q121 0 216 -43t153.5 -115t89.5 -162t31 -179zM608 909q-115 0 -186.5 -73t-83.5 -220h526q-4 135 -72.5 214t-183.5 79z" glyph-name="ebreve" horiz-adv-x="1185" unicode="ĕ"/><glyph d="M603 1847q56 0 95 -32.5t39 -98.5t-39 -99.5t-95 -33.5t-95 34t-39 99q0 66 39 98.5t95 32.5zM1096 1214h-688v-376h600v-222h-600v-391h688v-225h-944v1434h944v-220z" glyph-name="Edotaccent" horiz-adv-x="1208" unicode="Ė"/><glyph d="M597 1223q-56 0 -94 32.5t-38 98.5t38 99.5t94 33.5t96 -34t40 -99q0 -66 -40 -98.5t-96 -32.5zM1092 605q0 -89 -15 -154h-735q39 -281 305 -281q174 0 305 111l103 -162q-176 -150 -445 -150q-306 0 -444 249q-72 130 -72 312q0 262 140.5 418t367.5 156q121 0 216 -43 t153.5 -115t89.5 -162t31 -179zM608 909q-115 0 -186.5 -73t-83.5 -220h526q-4 135 -72.5 214t-183.5 79z" glyph-name="edotaccent" horiz-adv-x="1185" unicode="ė"/><glyph d="M408 1214v-376h600v-222h-600v-391h688v-225h-318q-53 -63 -72.5 -104t-19.5 -84q0 -98 115 -113l-39 -141q-111 10 -179.5 68.5t-69.5 139.5t33 132t103 102h-497v1434h944v-220h-688z" glyph-name="Eogonek" horiz-adv-x="1208" unicode="Ę"/><glyph d="M1092 605q0 -89 -15 -154h-735q39 -281 305 -281q174 0 305 111l103 -162q-98 -82 -224 -119q-82 -100 -81 -178q0 -98 114 -113l-39 -141q-111 12 -179 69.5t-69.5 155.5t87.5 178l-54 -2q-306 0 -444 249q-72 130 -72 312q0 262 140.5 418t367.5 156q121 0 216 -43 t153.5 -115t89.5 -162t31 -179zM608 909q-115 0 -186.5 -73t-83.5 -220h526q-4 135 -72.5 214t-183.5 79z" glyph-name="eogonek" horiz-adv-x="1185" unicode="ę"/><glyph d="M518 1585l-233 258h202l105 -117l108 117h193l-221 -258h-154zM408 1214v-376h600v-222h-600v-391h688v-225h-944v1434h944v-220h-688z" glyph-name="Ecaron" horiz-adv-x="1208" unicode="Ě"/><glyph d="M514 1225l-233 258h202l103 -119l108 119h195l-223 -258h-152zM1092 605q0 -89 -15 -154h-735q39 -281 305 -281q174 0 305 111l103 -162q-176 -150 -445 -150q-306 0 -444 249q-72 130 -72 312q0 262 140.5 418t367.5 156q121 0 216 -43t153.5 -115t89.5 -162t31 -179z M608 909q-115 0 -186.5 -73t-83.5 -220h526q-4 135 -72.5 214t-183.5 79z" glyph-name="ecaron" horiz-adv-x="1185" unicode="ě"/><glyph d="M806 1561q-114 0 -197 66.5t-95 195.5h127q10 -57 53 -90t113 -33q135 0 160 123h129q-12 -129 -94 -195.5t-196 -66.5zM837 1223q-205 0 -325.5 -129t-120.5 -373t118 -376t309 -132t302 106v295h-381v209h629v-630q-96 -102 -239.5 -162t-302 -60t-277.5 44t-217.5 131 t-155.5 233.5t-57 330.5q0 186 56 328q57 142 153 233q198 187 497 187t510 -166l-129 -188q-164 119 -369 119z" glyph-name="Gbreve" horiz-adv-x="1519" unicode="Ğ"/><glyph d="M623.5 1188q-113.5 0 -196.5 66.5t-95 195.5h127q12 -57 54 -90t112 -33q134 0 161 123h129q-14 -129 -96 -195.5t-195.5 -66.5zM1112 1075v-1009q0 -258 -141.5 -381t-386.5 -123q-121 0 -229.5 34.5t-182.5 90.5l90 184q131 -96 320 -96q131 0 211.5 58t80.5 177v140 q-68 -66 -138 -90.5t-163 -24.5q-205 0 -342 141t-137 389q0 129 42 233t112 170q144 136 334 136t309 -125h8l49 96h164zM642 879q-132 0 -214 -81t-82 -231t78 -231.5t201 -81.5q156 0 243 127v397q-94 101 -226 101z" glyph-name="gbreve" horiz-adv-x="1257" unicode="ğ"/><glyph d="M808 1860q56 0 95 -33t39 -98q0 -66 -39 -100t-95 -34t-95 34t-39 100t39 98.5t95 32.5zM837 1223q-205 0 -325.5 -129t-120.5 -373t118 -376t309 -132t302 106v295h-381v209h629v-630q-96 -102 -239.5 -162t-302 -60t-277.5 44t-217.5 131t-155.5 233.5t-57 330.5 q0 186 56 328q57 142 153 233q198 187 497 187t510 -166l-129 -188q-164 119 -369 119z" glyph-name="Gdotaccent" horiz-adv-x="1519" unicode="Ġ"/><glyph d="M626 1487q56 0 95 -33t39 -98q0 -66 -39 -99.5t-95 -33.5t-94 33.5t-38 99.5t38 98.5t94 32.5zM1112 1075v-1009q0 -258 -141.5 -381t-386.5 -123q-121 0 -229.5 34.5t-182.5 90.5l90 184q131 -96 320 -96q131 0 211.5 58t80.5 177v140q-68 -66 -138 -90.5t-163 -24.5 q-205 0 -342 141t-137 389q0 129 42 233t112 170q144 136 334 136t309 -125h8l49 96h164zM642 879q-132 0 -214 -81t-82 -231t78 -231.5t201 -81.5q156 0 243 127v397q-94 101 -226 101z" glyph-name="gdotaccent" horiz-adv-x="1257" unicode="ġ"/><glyph d="M837 1223q-205 0 -325.5 -129t-120.5 -373t118 -376t309 -132t302 106v295h-381v209h629v-630q-96 -102 -239.5 -162t-302 -60t-277.5 44t-217.5 131t-155.5 233.5t-57 330.5q0 186 56 328q57 142 153 233q198 187 497 187t510 -166l-129 -188q-164 119 -369 119z M834 -438h-113l6 329h201z" glyph-name="Gcommaaccent" horiz-adv-x="1519" unicode="Ģ"/><glyph d="M1112 1075v-1009q0 -258 -141.5 -381t-386.5 -123q-121 0 -229.5 34.5t-182.5 90.5l90 184q131 -96 320 -96q131 0 211.5 58t80.5 177v140q-68 -66 -138 -90.5t-163 -24.5q-205 0 -342 141t-137 389q0 129 42 233t112 170q144 136 334 136t309 -125h8l49 96h164zM642 879 q-132 0 -214 -81t-82 -231t78 -231.5t201 -81.5q156 0 243 127v397q-94 101 -226 101zM639 -860h-115l8 330h199z" glyph-name="gcommaaccent" horiz-adv-x="1257" unicode="ģ"/><glyph d="M1575 1051h-109v-1051h-256l2 608h-696v-608h-258v1051h-106v159h106v224h258v-224h696v224h254v-224h109v-159zM1212 1051h-696v-222h696v222z" glyph-name="Hbar" horiz-adv-x="1724" unicode="Ħ"/><glyph d="M731 1100q166 0 265.5 -92.5t99.5 -282.5v-725h-246v682q0 104 -55.5 151.5t-137.5 47.5q-150 0 -266 -179v-702h-246v1188h-170v129h170v223h244v-223h205v-129h-205v-252q144 164 342 164z" glyph-name="hbar" horiz-adv-x="1241" unicode="ħ"/><glyph d="M559 1663h-516v131h516v-131zM430 0h-256v1434h256v-1434z" glyph-name="Imacron" horiz-adv-x="602" unicode="Ī"/><glyph d="M508 1303h-516v131h516v-131zM385 0h-246v1073h246v-1073z" glyph-name="imacron" horiz-adv-x="524" unicode="ī"/><glyph d="M430 0h-33q-53 -63 -72.5 -104t-19.5 -84q0 -98 115 -113l-39 -141q-111 10 -179.5 68.5t-69.5 139.5t33 132t103 102h-94v1434h256v-1434z" glyph-name="Iogonek" horiz-adv-x="602" unicode="Į"/><glyph d="M290 1233q-62 0 -106.5 36t-44.5 104.5t44.5 104t106.5 35.5t107 -35.5t45 -104t-45 -104.5t-107 -36zM324 -188q0 -98 114 -113l-39 -141q-111 10 -179 68.5t-69 139.5t32.5 132t103.5 102h-119v1073h244v-1059l14 -4q-61 -68 -81.5 -110.5t-20.5 -87.5z" glyph-name="iogonek" horiz-adv-x="581" unicode="į"/><glyph d="M303 1847q55 0 95 -32.5t40 -98.5t-40 -99.5t-95 -33.5t-94 34t-39 99q0 66 39 98.5t94 32.5zM430 0h-256v1434h256v-1434z" glyph-name="Idotaccent" horiz-adv-x="602" unicode="İ"/><glyph d="M385 0h-246v1073h246v-1073z" glyph-name="dotlessi" horiz-adv-x="524" unicode="ı"/><glyph d="M430 0h-256v1434h256v-1434zM1419 1434v-951q0 -298 -142 -407t-366 -109q-135 0 -229 27l23 217q49 -12 129 -12q166 0 245.5 62.5t79.5 234.5v938h260z" glyph-name="IJ" horiz-adv-x="1570" unicode="Ĳ"/><glyph d="M290 1513q62 0 107 -35.5t45 -104t-45 -104.5t-107 -36t-106.5 36t-44.5 104.5t44.5 104t106.5 35.5zM882 1503q64 0 107 -35.5t43 -104.5t-44 -104.5t-107 -35.5t-106.5 35.5t-43.5 104.5t43.5 104.5t107.5 35.5zM412 0h-244v1073h244v-1073zM1006 1073v-1175 q0 -154 -104 -245t-250 -91t-230 39l47 190q55 -18 131 -18t118 37.5t42 130.5v1132h246z" glyph-name="ij" horiz-adv-x="1171" unicode="ĳ"/><glyph d="M414 0h-262v1434h262v-631l551 631h335l-606 -652l652 -782h-336l-496 588l-100 -107v-481zM610 -109h199l-92 -329h-115z" glyph-name="Kcommaaccent" horiz-adv-x="1382" unicode="Ķ"/><glyph d="M391 0h-246v1540h246v-924l371 457h305l-397 -444l465 -629h-297l-326 455l-121 -136v-319zM483 -109h201l-94 -329h-115z" glyph-name="kcommaaccent" horiz-adv-x="1148" unicode="ķ"/><glyph d="M360 1583h-155l137 272h291zM408 229h673v-229h-929v1434h256v-1205z" glyph-name="Lacute" horiz-adv-x="1146" unicode="Ĺ"/><glyph d="M340 1675h-156l138 275h290zM403 0h-245v1540h245v-1540z" glyph-name="lacute" horiz-adv-x="561" unicode="ĺ"/><glyph d="M408 229h673v-229h-929v1434h256v-1205zM573 -438h-114l8 329h201z" glyph-name="Lcommaaccent" horiz-adv-x="1146" unicode="Ļ"/><glyph d="M403 0h-245v1540h245v-1540zM309 -438h-114l8 329h198z" glyph-name="lcommaaccent" horiz-adv-x="561" unicode="ļ"/><glyph d="M408 229h673v-229h-929v1434h256v-1205zM772 1100h-113l9 332h198z" glyph-name="Lcaron" horiz-adv-x="1146" unicode="Ľ"/><glyph d="M631 1210h-115l8 330h201zM403 0h-245v1540h245v-1540z" glyph-name="lcaron" horiz-adv-x="667" unicode="ľ"/><glyph d="M408 229h673v-229h-929v1434h256v-1205zM776 987q68 0 115 -43t47 -123t-47 -123t-116 -43t-116 43t-47 123t48 123t116 43z" glyph-name="Ldot" horiz-adv-x="1146" unicode="Ŀ"/><glyph d="M403 0h-245v1540h245v-1540zM657 967q68 0 116 -43t48 -123t-47 -123t-116 -43t-116.5 43t-47.5 123t47.5 123t115.5 43z" glyph-name="ldot" horiz-adv-x="790" unicode="ŀ"/><glyph d="M428 229h668v-229h-924v602l-176 -78v197l176 76v637h256v-521l266 113v-197l-266 -114v-486z" glyph-name="Lslash" horiz-adv-x="1163" unicode="Ł"/><glyph d="M463 0h-246v639l-166 -78v234l166 77v668h246v-553l182 84v-231l-182 -86v-754z" glyph-name="lslash" horiz-adv-x="698" unicode="ł"/><glyph d="M813 1583h-156l136 272h292zM1358 0h-217l-733 987v-987h-256v1434h219l727 -994v994h260v-1434z" glyph-name="Nacute" horiz-adv-x="1507" unicode="Ń"/><glyph d="M680 1219h-158l137 272h293zM731 1104q170 0 267.5 -94.5t97.5 -270.5v-739h-246v662q0 115 -45 161.5t-129 46.5q-164 0 -287 -176v-694h-244v1073h168l39 -160h8q78 96 164 143.5t207 47.5z" glyph-name="nacute" horiz-adv-x="1241" unicode="ń"/><glyph d="M1358 0h-217l-733 987v-987h-256v1434h219l727 -994v994h260v-1434zM762 -438h-113l6 329h201z" glyph-name="Ncommaaccent" horiz-adv-x="1507" unicode="Ņ"/><glyph d="M731 1104q170 0 267.5 -94.5t97.5 -270.5v-739h-246v662q0 115 -45 161.5t-129 46.5q-164 0 -287 -176v-694h-244v1073h168l39 -160h8q78 96 164 143.5t207 47.5zM649 -438h-112l8 329h198z" glyph-name="ncommaaccent" horiz-adv-x="1241" unicode="ņ"/><glyph d="M666 1597l-234 258h203l104 -116l109 116h192l-221 -258h-153zM1358 1434v-1434h-217l-733 987v-987h-256v1434h219l727 -994v994h260z" glyph-name="Ncaron" horiz-adv-x="1507" unicode="Ň"/><glyph d="M530 1233l-231 258h201l104 -117l109 117h194l-223 -258h-154zM731 1104q170 0 267.5 -94.5t97.5 -270.5v-739h-246v662q0 115 -45 161.5t-129 46.5q-164 0 -287 -176v-694h-244v1073h168l39 -160h8q78 96 164 143.5t207 47.5z" glyph-name="ncaron" horiz-adv-x="1241" unicode="ň"/><glyph d="M834.5 -455q-119.5 0 -213.5 27l20 217q49 -12 131 -12q162 0 242 59.5t84 220.5l-690 930v-987h-256v1434h219l727 -994v994h260l-2 -1434q-16 -260 -164 -362q-72 -50 -155 -71.5t-202.5 -21.5z" glyph-name="Eng" horiz-adv-x="1507" unicode="Ŋ"/><glyph d="M1096 739v-860q0 -154 -104.5 -244t-274.5 -90q-53 0 -168 29l49 197q66 -14 92 -15q76 0 118 41t42 111v754q0 117 -45 162.5t-129 45.5q-164 0 -287 -176v-694h-244v1073h168l39 -160h8q76 96 164 143.5t203 47.5q174 0 271.5 -94.5t97.5 -270.5z" glyph-name="eng" horiz-adv-x="1241" unicode="ŋ"/><glyph d="M1073 1663h-516v131h516v-131zM839 1458q123 0 246 -44t224.5 -130t161 -230.5t59.5 -330.5t-59.5 -334.5t-161 -238t-224 -135.5t-259 -46t-260.5 46t-225 135.5t-161.5 238t-60.5 316.5t40 291.5t107.5 207.5t158.5 142.5t191 85t223 26.5zM825 1223q-190 0 -312 -128 t-122 -373t122 -381t310 -136t312.5 135t124.5 381t-122.5 374t-312.5 128z" glyph-name="Omacron" horiz-adv-x="1650" unicode="Ō"/><glyph d="M883 1303h-516v131h516v-131zM634.5 1104q106.5 0 202 -34t172 -100.5t122 -178t45.5 -255t-45.5 -255t-122 -178t-172 -100.5t-202 -34t-201.5 34t-172 100.5t-122 178t-45 255t45 255t122 178t172 100.5t201.5 34zM636 887q-136 0 -214 -92.5t-78 -258t78 -258 t214 -92.5t213 92.5t77 258t-77 258t-213 92.5z" glyph-name="omacron" horiz-adv-x="1269" unicode="ō"/><glyph d="M725 1585h-129l41 266h215zM987 1585h-131l133 266h219zM839 1458q123 0 246 -44t224.5 -130t161 -230.5t59.5 -330.5t-59.5 -334.5t-161 -238t-224 -135.5t-259 -46t-260.5 46t-225 135.5t-161.5 238t-60.5 316.5t40 291.5t107.5 207.5t158.5 142.5t191 85t223 26.5z M825 1223q-190 0 -312 -128t-122 -373t122 -381t310 -136t312.5 135t124.5 381t-122.5 374t-312.5 128z" glyph-name="Ohungarumlaut" horiz-adv-x="1650" unicode="Ő"/><glyph d="M535 1225h-129l40 266h216zM797 1225h-133l135 266h219zM634.5 1104q106.5 0 202 -34t172 -100.5t122 -178t45.5 -255t-45.5 -255t-122 -178t-172 -100.5t-202 -34t-201.5 34t-172 100.5t-122 178t-45 255t45 255t122 178t172 100.5t201.5 34zM636 887q-136 0 -214 -92.5 t-78 -258t78 -258t214 -92.5t213 92.5t77 258t-77 258t-213 92.5z" glyph-name="ohungarumlaut" horiz-adv-x="1269" unicode="ő"/><glyph d="M1716 1206h-588v-377h517v-208h-517v-394h588v-227h-846q-325 0 -481 134t-213 272.5t-57 314.5t57 314.5t212 268.5t482 130h846v-228zM868 1219h-24q-213 0 -334 -132.5t-121 -364.5t121 -364.5t334 -132.5h24v994z" glyph-name="OE" horiz-adv-x="1828" unicode="Œ"/><glyph d="M1456 -25q-299 0 -434 226q-66 -117 -179 -171.5t-229 -54.5t-205.5 36t-160 103.5t-112.5 177t-42 245t42 244t152 213t316 104.5q131 0 242.5 -56.5t175.5 -171.5q119 227 405 228q117 0 211.5 -41t182.5 -148.5t88 -294.5q0 -100 -13 -157h-727q13 -107 79.5 -194 t229.5 -87t289 98l99 -143q-63 -72 -175 -114t-235 -42zM1422 903q-110 0 -177.5 -70.5t-79.5 -201.5h508q-8 127 -74.5 199.5t-176.5 72.5zM622 193q130 0 203.5 91t73.5 252.5t-72.5 253t-203.5 91.5t-206 -91.5t-75 -253t75 -252.5t205 -91z" glyph-name="oe" horiz-adv-x="2002" unicode="œ"/><glyph d="M700 1569h-157l137 274h293zM408 508v-508h-256v1434h518q285 0 417 -117t132 -320q0 -162 -74 -273.5t-209 -166.5l346 -557h-285l-307 508h-282zM408 729h270q127 0 197.5 67.5t70.5 183.5t-69.5 175t-225.5 59h-243v-485z" glyph-name="Racute" horiz-adv-x="1355" unicode="Ŕ"/><glyph d="M506 1219h-156l135 272h293zM639 1104q78 0 131 -31l-43 -225q-66 25 -111 24q-154 0 -223 -223v-649h-248v1073h189l41 -158h6q80 189 258 189z" glyph-name="racute" horiz-adv-x="806" unicode="ŕ"/><glyph d="M408 508v-508h-256v1434h518q285 0 417 -117t132 -320q0 -162 -74 -273.5t-209 -166.5l346 -557h-285l-307 508h-282zM408 729h270q127 0 197.5 67.5t70.5 183.5t-69.5 175t-225.5 59h-243v-485zM575 -109h201l-94 -329h-115z" glyph-name="Rcommaaccent" horiz-adv-x="1355" unicode="Ŗ"/><glyph d="M639 1104q78 0 131 -31l-43 -225q-66 25 -111 24q-154 0 -223 -223v-649h-248v1073h189l41 -158h6q80 189 258 189zM299 -438h-115l9 329h198z" glyph-name="rcommaaccent" horiz-adv-x="806" unicode="ŗ"/><glyph d="M551 1585l-232 258h201l105 -117l108 117h195l-223 -258h-154zM408 508v-508h-256v1434h518q285 0 417 -117t132 -320q0 -162 -74 -273.5t-209 -166.5l346 -557h-285l-307 508h-282zM408 729h270q127 0 197.5 67.5t70.5 183.5t-69.5 175t-225.5 59h-243v-485z" glyph-name="Rcaron" horiz-adv-x="1355" unicode="Ř"/><glyph d="M358 1233l-233 258h203l102 -117l109 117h194l-221 -258h-154zM639 1104q78 0 131 -31l-43 -225q-66 25 -111 24q-154 0 -223 -223v-649h-248v1073h189l41 -158h6q80 189 258 189z" glyph-name="rcaron" horiz-adv-x="806" unicode="ř"/><glyph d="M664 1583h-156l135 275h293zM618 1458q283 0 474 -137l-111 -193q-164 113 -356 113q-113 0 -177.5 -47t-64.5 -133q0 -47 17.5 -69.5t30.5 -36t38 -28t43 -24.5t53 -23.5t58.5 -21.5t67.5 -24.5t71 -26.5q188 -70 278 -156t90 -233q0 -207 -147 -325t-393 -118 q-127 0 -259 34t-237 97l82 213q193 -104 399 -104q141 0 213 50t72 123t-34.5 103.5t-55 45t-99.5 45t-163 59.5q-174 60 -282.5 150t-108.5 270t137 288.5t364 108.5z" glyph-name="Sacute" horiz-adv-x="1206" unicode="Ś"/><glyph d="M569 1208h-155l137 275h291zM158 276q125 -96 311 -96q88 0 142.5 37t54.5 92.5t-45 80t-120 47t-108 34.5q-145 51 -213.5 119.5t-68.5 203.5t112.5 222.5t317 87.5t352.5 -111l-80 -170q-141 84 -289 84q-80 0 -128 -32.5t-48 -95t90 -98t148 -48.5q148 -45 213 -92 t89.5 -99.5t24.5 -122.5q0 -164 -119.5 -257t-318.5 -93q-111 0 -213 33t-170 84z" glyph-name="sacute" horiz-adv-x="985" unicode="ś"/><glyph d="M492 -346q145 25 145 91q0 56 -49 56q-20 0 -39 -10l-86 76l61 110q-248 16 -430 129l82 213q193 -104 399 -104q141 0 213 50t72 123t-34.5 103.5t-55 45t-99.5 45t-163 59.5q-174 60 -282.5 150t-108.5 270t137 288.5t364 108.5q283 0 474 -137l-111 -193 q-164 113 -356 113q-113 0 -177.5 -47t-64.5 -133q0 -47 17.5 -69.5t30.5 -36t38 -28t43 -24.5t54 -23.5t58.5 -21.5t66.5 -24.5t71 -26.5q188 -70 278 -156t90 -233q0 -193 -130 -309.5t-353 -131.5l-39 -67q86 8 137.5 -36t51.5 -126t-73 -137t-187 -66z" glyph-name="Scedilla" horiz-adv-x="1206" unicode="Ş"/><glyph d="M158 276q125 -96 311 -96q88 0 142.5 37t54.5 92.5t-45 80t-120 47t-108 34.5q-145 51 -213.5 119.5t-68.5 203.5t112.5 222.5t317 87.5t352.5 -111l-80 -170q-141 84 -289 84q-80 0 -128 -32.5t-48 -95t90 -98t148 -48.5q148 -45 213 -92t89.5 -99.5t24.5 -122.5 q0 -145 -97 -236t-263 -110l-37 -63q86 8 137.5 -36t51.5 -126t-73 -137t-188 -66l-45 109q146 26 146 91q0 56 -49 56q-20 0 -39 -10l-86 76l57 104q-205 14 -336 115z" glyph-name="scedilla" horiz-adv-x="985" unicode="ş"/><glyph d="M516 1599l-233 259h202l103 -119l108 119h195l-223 -259h-152zM1130 418q0 -207 -147 -325t-393 -118q-127 0 -259 34t-237 97l82 213q193 -104 399 -104q141 0 213 50t72 123t-34.5 103.5t-55 45t-99.5 45t-163 59.5q-174 60 -282.5 150t-108.5 270t137 288.5t364 108.5 q283 0 474 -137l-111 -193q-164 113 -356 113q-113 0 -177.5 -47t-64.5 -133q0 -47 17.5 -69.5t30.5 -36t38 -28t43 -24.5t54 -23.5t58.5 -21.5t66.5 -24.5t71 -26.5q188 -70 278 -156t90 -233z" glyph-name="Scaron" horiz-adv-x="1206" unicode="Š"/><glyph d="M422 1225l-234 258h203l105 -117l108 117h193l-222 -258h-153zM158 276q125 -96 311 -96q88 0 142.5 37t54.5 92.5t-45 80t-120 47t-108 34.5q-145 51 -213.5 119.5t-68.5 203.5t112.5 222.5t317 87.5t352.5 -111l-80 -170q-141 84 -289 84q-80 0 -128 -32.5t-48 -95 t84.5 -96t157.5 -53.5q140 -39 231.5 -105.5t91.5 -218t-119.5 -244.5t-318.5 -93q-111 0 -213 33t-170 84z" glyph-name="scaron" horiz-adv-x="985" unicode="š"/><glyph d="M543 -346q147 25 147 91q0 56 -49 56q-20 0 -39 -10l-86 76l72 133h-45v1212h-451v222h1155v-222h-448v-1212h-86l-54 -90q88 8 139.5 -36t51.5 -126t-72.5 -137t-189.5 -66z" glyph-name="Tcommaaccent" horiz-adv-x="1339" unicode="Ţ"/><glyph d="M506 -255q0 56 -50 56q-22 0 -38 -10l-86 76l61 115q-168 43 -168 254v628h-168v209h168v137l111 142h137v-279h262v-209h-262v-579q0 -94 84 -95q63 0 139 29l62 -176q-113 -70 -248 -74l-35 -59q86 8 137.5 -36t51.5 -126t-73 -137t-188 -66l-45 109q148 26 148 91z " glyph-name="tcommaaccent" horiz-adv-x="837" unicode="ţ"/><glyph d="M596 1585l-234 258h203l105 -117l108 117h195l-223 -258h-154zM1247 1434v-222h-448v-1212h-256v1212h-451v222h1155z" glyph-name="Tcaron" horiz-adv-x="1339" unicode="Ť"/><glyph d="M635 1380h-115l8 332h201zM473 1073h262v-209h-262v-579q0 -94 84 -95q63 0 139 29l62 -176q-119 -74 -260 -74q-272 0 -273 267v628h-168v209h168v137l111 142h137v-279z" glyph-name="tcaron" horiz-adv-x="837" unicode="ť"/><glyph d="M938 1663h-516v131h516v-131zM1247 1212h-448v-1212h-256v1212h-451v222h1155v-222z" glyph-name="Tbar" horiz-adv-x="1339" unicode="Ŧ"/><glyph d="M498 -31q-272 0 -273 267v305h-127v129h127v194h-168v209h168v137l111 142h137v-279h262v-209h-262v-194h141v-129h-141v-256q0 -94 84 -95q63 0 139 29l62 -176q-119 -74 -260 -74z" glyph-name="tbar" horiz-adv-x="837" unicode="ŧ"/><glyph d="M967 1663h-516v131h516v-131zM1288 1434v-916q0 -143 -45 -251.5t-125 -172t-179 -94.5t-218 -31t-219.5 31t-180 94.5t-124.5 172t-45 251.5v916h256v-914q0 -150 80.5 -230.5t231.5 -80.5t231.5 81t80.5 230v914h256z" glyph-name="Umacron" horiz-adv-x="1439" unicode="Ū"/><glyph d="M881 1303h-516v131h516v-131zM510 -25q-168 0 -266.5 97.5t-98.5 283.5v717h244v-659q0 -219 174 -219q156 0 275 174v704h243v-1073h-170l-49 150q-66 -82 -147.5 -128.5t-204.5 -46.5z" glyph-name="umacron" horiz-adv-x="1228" unicode="ū"/><glyph d="M709 1886q76 0 123 -44t47 -116.5t-47.5 -116.5t-122.5 -44q-76 0 -124 44t-48 116.5t48 116.5t124 44zM708 1798q-34 0 -52.5 -20.5t-18.5 -52t19.5 -53t52.5 -21.5t52 21.5t19 53t-19 52t-53 20.5zM1288 1434v-916q0 -143 -45 -251.5t-125 -172t-179 -94.5t-218 -31 t-219.5 31t-180 94.5t-124.5 172t-45 251.5v916h256v-914q0 -150 80.5 -230.5t231.5 -80.5t231.5 81t80.5 230v914h256z" glyph-name="Uring" horiz-adv-x="1439" unicode="Ů"/><glyph d="M622 1204q-75 0 -123 44t-48 117t48 117t123 44t123 -44t48 -117t-48 -117t-123 -44zM622 1438q-34 0 -53.5 -20.5t-19.5 -52.5t19.5 -53.5t53.5 -21.5t53 21.5t19 53.5t-19 52.5t-53 20.5zM510 -25q-168 0 -266.5 97.5t-98.5 283.5v717h244v-659q0 -219 174 -219 q156 0 275 174v704h243v-1073h-170l-49 150q-66 -82 -147.5 -128.5t-204.5 -46.5z" glyph-name="uring" horiz-adv-x="1228" unicode="ů"/><glyph d="M618 1585h-129l41 266h215zM883 1585h-133l133 266h221zM1288 1434v-916q0 -143 -45 -251.5t-125 -172t-179 -94.5t-218 -31t-219.5 31t-180 94.5t-124.5 172t-45 251.5v916h256v-914q0 -150 80.5 -230.5t231.5 -80.5t231.5 81t80.5 230v914h256z" glyph-name="Uhungarumlaut" horiz-adv-x="1439" unicode="Ű"/><glyph d="M532 1225h-131l43 266h215zM795 1225h-133l135 266h219zM510 -25q-168 0 -266.5 97.5t-98.5 283.5v717h244v-659q0 -219 174 -219q156 0 275 174v704h243v-1073h-170l-49 150q-66 -82 -147.5 -128.5t-204.5 -46.5z" glyph-name="uhungarumlaut" horiz-adv-x="1228" unicode="ű"/><glyph d="M1288 1434v-916q0 -375 -293 -498q-55 -66 -74.5 -107.5t-19.5 -82.5q0 -98 115 -115l-39 -141q-111 12 -179.5 69.5t-69.5 154.5t85 177q-45 -6 -128 -6t-183.5 31t-180 94.5t-124.5 172t-45 251.5v916h256v-914q0 -150 80.5 -230.5t231.5 -80.5t231.5 81t80.5 230v914 h256z" glyph-name="Uogonek" horiz-adv-x="1439" unicode="Ų"/><glyph d="M961 -188q0 -98 114 -113l-39 -141q-111 10 -179.5 68.5t-69.5 139.5t33 132t104 102h-13l-49 150q-66 -82 -147.5 -128.5t-204.5 -46.5q-168 0 -266.5 97.5t-98.5 283.5v717h244v-659q0 -219 174 -219q156 0 275 174v704h243v-1073h-28q-53 -63 -72.5 -104t-19.5 -84z " glyph-name="uogonek" horiz-adv-x="1228" unicode="ų"/><glyph d="M922 1587h-207l239 264h142l229 -264h-199l-104 111zM2032 1434l-455 -1434h-209l-340 1026l-338 -1026h-209l-454 1434h274l303 -1039l328 1039h211l327 -1045l299 1045h263z" glyph-name="Wcircumflex" horiz-adv-x="2058" unicode="Ŵ"/><glyph d="M688 1227h-207l238 264h143l228 -264h-199l-105 110zM1581 1073l-383 -1073h-162l-245 715l-261 -715h-161l-349 1073h242l209 -747l248 747h162l241 -756l221 756h238z" glyph-name="wcircumflex" horiz-adv-x="1601" unicode="ŵ"/><glyph d="M569 1587h-209l240 264h143l228 -264h-199l-104 111zM784 0h-256v573l-499 861h297l338 -617l337 617h281l-498 -863v-571z" glyph-name="Ycircumflex" horiz-adv-x="1345" unicode="Ŷ"/><glyph d="M483 1235h-209l240 264h143l228 -264h-199l-104 111zM274 -238q64 0 116 41t81 117l18 47l-444 1108h256l309 -852l277 852h262l-412 -1143q-131 -366 -404 -366q-136 0 -243 35l45 186q75 -25 139 -25z" glyph-name="ycircumflex" horiz-adv-x="1202" unicode="ŷ"/><glyph d="M485 1845q53 0 87 -30.5t34 -92.5t-33.5 -93.5t-87.5 -31.5q-53 0 -88 31t-35 93t35 93t88 31zM862 1845q53 0 86 -30.5t33 -92.5t-33 -93.5t-86 -31.5t-87 31t-34 93t34 93t87 31zM784 0h-256v573l-499 861h297l338 -617l337 617h281l-498 -863v-571z" glyph-name="Ydieresis" horiz-adv-x="1345" unicode="Ÿ"/><glyph d="M727 1583h-158l138 272h292zM1219 221v-221h-1121v174l754 1038h-715v222h1041v-164l-768 -1049h809z" glyph-name="Zacute" horiz-adv-x="1325" unicode="Ź"/><glyph d="M547 1208h-156l135 275h293zM928 209v-209h-848v168l518 696h-502v209h807v-178l-534 -686h559z" glyph-name="zacute" horiz-adv-x="997" unicode="ź"/><glyph d="M663 1860q56 0 95 -33t39 -98q0 -66 -39 -100t-95 -34t-95.5 34t-39.5 100t39.5 98.5t95.5 32.5zM1219 221v-221h-1121v174l754 1038h-715v222h1041v-164l-768 -1049h809z" glyph-name="Zdotaccent" horiz-adv-x="1325" unicode="Ż"/><glyph d="M482 1487q56 0 96 -33t40 -98q0 -66 -40 -99.5t-96 -33.5t-94 33.5t-38 99.5t38 98.5t94 32.5zM928 209v-209h-848v168l518 696h-502v209h807v-178l-534 -686h559z" glyph-name="zdotaccent" horiz-adv-x="997" unicode="ż"/><glyph d="M578 1597l-234 258h203l104 -116l109 116h194l-223 -258h-153zM1219 221v-221h-1121v174l754 1038h-715v222h1041v-164l-768 -1049h809z" glyph-name="Zcaron" horiz-adv-x="1325" unicode="Ž"/><glyph d="M399 1225l-233 258h203l102 -117l109 117h194l-223 -258h-152zM928 209v-209h-848v168l518 696h-502v209h807v-178l-534 -686h559z" glyph-name="zcaron" horiz-adv-x="997" unicode="ž"/><glyph d="M709 1561q106 0 192 -29l-47 -195q-147 43 -198.5 -3t-51.5 -105v-154h254v-205h-254v-766q0 -156 -91 -241.5t-231 -85.5t-221 37l45 184q62 -16 116 -16t94 33.5t40 103.5v751h-149v205h149v158q0 164 92.5 246t260.5 82z" glyph-name="florin" horiz-adv-x="993" unicode="ƒ"/><glyph d="M618 1458q283 0 474 -137l-111 -193q-164 113 -356 113q-113 0 -177.5 -47t-64.5 -133q0 -47 17.5 -69.5t30.5 -36t38 -28t43 -24.5t53 -23.5t58.5 -21.5t67.5 -24.5t71 -26.5q188 -70 278 -156t90 -233q0 -207 -147 -325t-393 -118q-127 0 -259 34t-237 97l82 213 q193 -104 399 -104q141 0 213 50t72 123t-34.5 103.5t-55 45t-99.5 45t-163 59.5q-174 60 -282.5 150t-108.5 270t137 288.5t364 108.5zM616 -438h-114l8 329h199z" glyph-name="Scommaaccent" horiz-adv-x="1206" unicode="Ș"/><glyph d="M158 276q125 -96 311 -96q88 0 142.5 37t54.5 92.5t-45 80t-120 47t-108 34.5q-145 51 -213.5 119.5t-68.5 203.5t112.5 222.5t317 87.5t352.5 -111l-80 -170q-141 84 -289 84q-80 0 -128 -32.5t-48 -95t90 -98t148 -48.5q148 -45 213 -92t89.5 -99.5t24.5 -122.5 q0 -164 -119.5 -257t-318.5 -93q-111 0 -213 33t-170 84zM522 -438h-112l8 329h198z" glyph-name="scommaaccent" horiz-adv-x="985" unicode="ș"/><glyph d="M1247 1212h-448v-1212h-256v1212h-451v222h1155v-222zM668 -438h-113l6 329h201z" glyph-name="uni021A" horiz-adv-x="1339" unicode="Ț"/><glyph d="M473 1073h262v-209h-262v-579q0 -94 84 -95q63 0 139 29l62 -176q-119 -74 -260 -74q-272 0 -273 267v628h-168v209h168v137l111 142h137v-279zM483 -438h-114l8 329h198z" glyph-name="uni021B" horiz-adv-x="837" unicode="ț"/><glyph d="M461 1227l-103 110l-100 -110h-207l240 264h141l227 -264h-198z" glyph-name="circumflex" horiz-adv-x="710" unicode="ˆ"/><glyph d="M659 1483l-221 -258h-153l-234 258h203l104 -117l109 117h192z" glyph-name="caron" horiz-adv-x="710" unicode="ˇ"/><glyph d="M324 1221q-114 0 -196.5 66.5t-94.5 195.5h127q12 -57 54 -91t112 -34q134 0 159 125h129q-12 -129 -94 -195.5t-196 -66.5z" glyph-name="breve" horiz-adv-x="647" unicode="˘"/><glyph d="M275 1487q56 0 95.5 -33t39.5 -98q0 -66 -39 -99.5t-95 -33.5t-95.5 33.5t-39.5 99.5t39 98.5t95 32.5z" glyph-name="dotaccent" horiz-adv-x="552" unicode="˙"/><glyph d="M355 1526q75 0 123 -44t48 -117t-48 -117t-123 -44t-123 44t-48 117t48 117t123 44zM355 1438q-34 0 -53 -20.5t-19 -52.5t19.5 -53.5t53.5 -21.5t53 21.5t19 53.5t-19.5 52.5t-53.5 20.5z" glyph-name="ring" horiz-adv-x="710" unicode="˚"/><glyph d="M254 -199q0 -98 115 -112l-39 -142q-113 10 -180.5 68.5t-68.5 146.5t45 144t142 119l86 -25q-59 -70 -79.5 -113t-20.5 -86z" glyph-name="ogonek" horiz-adv-x="460" unicode="˛"/><glyph d="M500 1241q-62 0 -133.5 38t-108.5 38q-70 0 -106 -90l-123 67q25 94 82 139.5t117 45.5t133 -40t98 -40q59 0 100 96l131 -59q-25 -92 -76.5 -143.5t-113.5 -51.5z" glyph-name="tilde" horiz-adv-x="710" unicode="˜"/><glyph d="M180 1225h-131l43 266h215zM442 1225h-133l135 266h220z" glyph-name="hungarumlaut" horiz-adv-x="710" unicode="˝"/><glyph d="M272 -438h-114l8 329h199z" glyph-name="uni0326" horiz-adv-x="0" unicode="̦"/><glyph d="M1139 1073v-1073h-172l-47 147q-126 -172 -282 -172t-228 70v-430h-242v1458h244v-655q0 -113 64.5 -168t160.5 -55q158 0 258 178v700h244z" glyph-name="mu" horiz-adv-x="1288" unicode="μ"/><glyph d="M1118 1569h-155l-277 274h293zM1577 0h-209l-340 1026l-338 -1026h-209l-454 1434h274l303 -1039l328 1039h211l327 -1045l299 1045h263z" glyph-name="Wgrave" horiz-adv-x="2058" unicode="Ẁ"/><glyph d="M727 1208l-276 275h294l138 -275h-156zM1581 1073l-383 -1073h-162l-245 715l-261 -715h-161l-349 1073h244l207 -747l248 747h162l241 -756l221 756h238z" glyph-name="wgrave" horiz-adv-x="1601" unicode="ẁ"/><glyph d="M1096 1569h-156l135 274h293zM1577 0h-209l-340 1026l-338 -1026h-209l-454 1434h274l303 -1039l328 1039h211l327 -1045l299 1045h263z" glyph-name="Wacute" horiz-adv-x="2058" unicode="Ẃ"/><glyph d="M860 1208h-155l137 275h291zM1581 1073l-383 -1073h-162l-245 715l-261 -715h-161l-349 1073h244l207 -747l248 747h162l241 -756l221 756h238z" glyph-name="wacute" horiz-adv-x="1601" unicode="ẃ"/><glyph d="M840 1845q53 0 85.5 -30.5t32.5 -92.5t-33.5 -93.5t-85.5 -31.5t-87 31t-35 93t35 93t88 31zM1217 1845q53 0 85.5 -30.5t32.5 -92.5t-32.5 -93.5t-85.5 -31.5t-87 31t-34 93t34 93t87 31zM1577 0h-209l-340 1026l-338 -1026h-209l-454 1434h274l303 -1039l328 1039h211 l327 -1045l299 1045h263z" glyph-name="Wdieresis" horiz-adv-x="2058" unicode="Ẅ"/><glyph d="M604 1237q-53 0 -87 30.5t-34 92.5t34 93.5t87 31.5t87 -31t34 -93t-34 -93t-87 -31zM981 1237q-53 0 -87 30.5t-34 92.5t34 93.5t87 31.5t86 -31t33 -93t-33 -93t-86 -31zM1581 1073l-383 -1073h-162l-245 715l-261 -715h-161l-349 1073h244l207 -747l248 747h162 l241 -756l221 756h238z" glyph-name="wdieresis" horiz-adv-x="1601" unicode="ẅ"/><glyph d="M1337 366q0 -171 -126 -282t-312 -111t-291 47l39 213q97 -37 199 -37t164.5 56.5t62.5 148.5t-92 156t-299 70v137l289 250q0 104 -73 162.5t-193 58.5q-121 0 -196 -72.5t-75 -208.5v-954h-256v989q0 227 150.5 348t385.5 121t370 -128t135 -357l-269 -223 q172 -27 279.5 -120t107.5 -264z" glyph-name="uni1E9E" horiz-adv-x="1458" unicode="ẞ"/><glyph d="M764 1569h-156l-276 274h293zM784 0h-256v573l-499 861h297l338 -617l337 617h281l-498 -863v-571z" glyph-name="Ygrave" horiz-adv-x="1345" unicode="Ỳ"/><glyph d="M522 1219l-276 272h293l139 -272h-156zM274 -238q64 0 116 41t81 117l18 47l-444 1108h256l309 -852l277 852h262l-412 -1143q-131 -366 -404 -366q-136 0 -243 35l45 186q75 -25 139 -25z" glyph-name="ygrave" horiz-adv-x="1202" unicode="ỳ"/><glyph glyph-name="uni2009" horiz-adv-x="73" unicode=" "/><glyph d="M1069 428h-934v215h934v-215z" glyph-name="endash" horiz-adv-x="1206" unicode="–"/><glyph d="M1708 428h-1548v215h1548v-215z" glyph-name="emdash" horiz-adv-x="1841" unicode="—"/><glyph d="M383 1107q0 -71 -45 -115t-118 -44t-121 51.5t-48 141.5q0 188 201 329l100 -45q-79 -79 -102 -153q63 -10 98 -52t35 -113z" glyph-name="quoteleft" horiz-adv-x="497" unicode="‘"/><glyph d="M288 1470q73 0 120 -51t47 -141q0 -188 -197 -330l-102 45q80 82 100 156q-61 10 -97 51t-36 112t46 114.5t119 43.5z" glyph-name="quoteright" horiz-adv-x="542" unicode="’"/><glyph d="M278 299q72 0 120 -51t48 -139q0 -211 -208 -351l-95 37q90 88 113 180q-57 2 -99 44t-42 117t45.5 119t117.5 44z" glyph-name="quotesinglbase" horiz-adv-x="497" unicode="‚"/><glyph d="M403 1083.5q0 -75.5 -45.5 -119.5t-117.5 -44t-120 52t-48 140q0 211 209 348l94 -35q-93 -90 -113 -184q57 -4 99 -43t42 -114.5zM801 1082.5q0 -74.5 -46 -118.5t-118 -44t-120 52t-48 140q0 211 209 348l94 -35q-90 -88 -113 -182q57 -2 99.5 -44t42.5 -116.5z" glyph-name="quotedblleft" horiz-adv-x="897" unicode="“"/><glyph d="M657 1460q72 0 120 -51t48 -139q0 -211 -209 -350l-94 36q90 88 113 183q-57 4 -99 44t-42 114.5t45.5 118.5t117.5 44zM260 1460q72 0 120 -51t48 -139q0 -211 -209 -350l-96 36q92 88 115 183q-57 2 -99.5 43t-42.5 115.5t46 118.5t118 44z" glyph-name="quotedblright" horiz-adv-x="897" unicode="”"/><glyph d="M657 299q72 0 120 -51t48 -139q0 -211 -209 -351l-94 37q90 88 113 182q-57 4 -99 44t-42 115t45.5 119t117.5 44zM260 299q72 0 120 -51t48 -139q0 -211 -209 -351l-96 37q92 88 115 182q-57 2 -99.5 43t-42.5 116t46 119t118 44z" glyph-name="quotedblbase" horiz-adv-x="897" unicode="„"/><glyph d="M807 877h-256v-877h-225v877h-256v198h256v359h225v-359h256v-198z" glyph-name="dagger" horiz-adv-x="876" unicode="†"/><glyph d="M569 913v-213h238v-202h-238v-498h-227v498h-240v202h240v213h-240v201h240v322h227v-322h238v-201h-238z" glyph-name="daggerdbl" horiz-adv-x="911" unicode="‡"/><glyph d="M315 825q78 0 133.5 -48t55.5 -140t-56.5 -141.5t-132.5 -49.5t-130 49.5t-54 141.5t53 140t131 48z" glyph-name="bullet" horiz-adv-x="634" unicode="•"/><glyph d="M341 303q71 0 118 -43t47 -125t-47 -125t-118 -43t-118 43t-47 125t47 125t118 43zM907 303q70 0 117 -43t47 -125t-47 -125t-117 -43t-117 43t-47 125t47 125t117 43zM1474 303q69 0 116.5 -43t47.5 -125t-48 -125t-116 -43t-116.5 43t-48.5 125t48 125t117 43z" glyph-name="ellipsis" horiz-adv-x="1814" unicode="…"/><glyph d="M388 1458q144 0 238.5 -93t94.5 -257t-92.5 -256t-238.5 -92t-238.5 92t-92.5 256t92.5 257t236.5 93zM389 0h-160l971 1434h160zM240 1108q0 -205 147 -205t147 206t-145 206q-74 0 -111.5 -54.5t-37.5 -152.5zM1206 676q145 0 238.5 -93.5t93.5 -256.5 q0 -164 -92 -256.5t-238 -92.5t-238.5 92.5t-92.5 257.5t92 257t237 92zM1960 676q145 0 238.5 -93.5t93.5 -256.5q0 -164 -92.5 -256.5t-238.5 -92.5t-238.5 92.5t-92.5 257.5t92.5 257t237.5 92zM1206 532q-72 0 -110.5 -54t-38.5 -152.5t39 -151.5t110 -53 q145 -1 145 205t-145 206zM1960 532q-72 0 -111 -54t-39 -152.5t39 -151.5t111 -53q145 -1 145 205t-145 206z" glyph-name="perthousand" horiz-adv-x="2347" unicode="‰"/><glyph d="M571 803l-237 -281l237 -282l-127 -117l-331 397l325 400z" glyph-name="guilsinglleft" horiz-adv-x="702" unicode="‹"/><glyph d="M598 520l-332 -397l-127 117l240 282l-240 281l135 117z" glyph-name="guilsinglright" horiz-adv-x="716" unicode="›"/><glyph d="M604 1563l-600 -1835h-147l602 1835h145z" glyph-name="fraction" horiz-adv-x="483" unicode="⁄"/><glyph d="M915 -25q-227 0 -396 131.5t-226 382.5h-174v148h153q-2 41 -2 82t2 78h-153v147h174q53 254 226 384t419 130q150 0 270.5 -44t196.5 -111l-135 -177q-152 104 -308 104q-309 1 -397 -286h658l-33 -147h-651q-2 -31 -2 -73t4 -87h620l-33 -148h-555 q47 -135 142.5 -208.5t218.5 -73.5q194 0 356 127l127 -168q-82 -80 -211 -135.5t-291 -55.5z" glyph-name="Euro" horiz-adv-x="1478" unicode="€"/><glyph d="M791 1249h-240v-653h-197v653h-237v185h674v-185zM1749 596h-197v463l-213 -336h-67l-207 334v-461h-191v838h168l271 -447l303 447h133v-838z" glyph-name="trademark" horiz-adv-x="1837" unicode="™"/><glyph d="M1452 1563l-600 -1835h-147l602 1835h145zM350 764v471l-153 -59l-58 137l269 121h131v-670h176v-158h-541v158h176zM2093 225q0 -115 -96 -187.5t-245 -72.5t-246 72t-97 188q0 143 141 203q-112 56 -112 168t89 177t226 65t227.5 -64.5t90.5 -177.5t-121 -168 q143 -61 143 -203zM1755 688q-57 0 -95 -26.5t-38 -72.5t37 -71.5t95 -25.5t94 25.5t36 72.5t-36 72.5t-93 25.5zM1754 121q73 0 111 32.5t38 86.5t-41 88t-109 34t-109.5 -33.5t-41.5 -87.5t39.5 -87t112.5 -33z" glyph-name="oneeighth" horiz-adv-x="2172" unicode="⅛"/><glyph d="M1452 1563l-600 -1835h-147l602 1835h145zM743 850q0 -119 -98 -193.5t-266 -74.5t-291 90l59 143q127 -65 219 -65q178 1 179 110q0 55 -38 80t-122 25h-113v139h97q66 0 103.5 25.5t37.5 72.5q0 92 -131 92q-100 0 -203 -73l-78 125q125 106 288 106t245 -59.5 t82 -153.5q0 -61 -37 -112t-109 -76q176 -43 176 -201zM2093 225q0 -115 -96 -187.5t-245 -72.5t-246 72t-97 188q0 143 141 203q-112 56 -112 168t89 177t226 65t227.5 -64.5t90.5 -177.5t-121 -168q143 -61 143 -203zM1755 688q-57 0 -95 -26.5t-38 -72.5t37 -71.5 t95 -25.5t94 25.5t36 72.5t-36 72.5t-93 25.5zM1754 121q73 0 111 32.5t38 86.5t-41 88t-109 34t-109.5 -33.5t-41.5 -87.5t39.5 -87t112.5 -33z" glyph-name="threeeighths" horiz-adv-x="2172" unicode="⅜"/><glyph d="M1452 1563l-600 -1835h-147l602 1835h145zM496 1139q104 0 180 -71.5t76 -195.5t-97 -204t-257 -80t-277 76l53 137q111 -51 202 -51t134 36t43 94t-38.5 89.5t-110.5 31.5t-130 -53l-122 51v435h542v-166h-358v-164q56 35 160 35zM2093 225q0 -115 -96 -187.5 t-245 -72.5t-246 72t-97 188q0 143 141 203q-112 56 -112 168t89 177t226 65t227.5 -64.5t90.5 -177.5t-121 -168q143 -61 143 -203zM1755 688q-57 0 -95 -26.5t-38 -72.5t37 -71.5t95 -25.5t94 25.5t36 72.5t-36 72.5t-93 25.5zM1754 121q73 0 111 32.5t38 86.5t-41 88 t-109 34t-109.5 -33.5t-41.5 -87.5t39.5 -87t112.5 -33z" glyph-name="fiveeighths" horiz-adv-x="2172" unicode="⅝"/><glyph d="M1452 1563l-600 -1835h-147l602 1835h145zM111 1257v168l626 2v-151l-313 -670h-203l303 651h-413zM2093 225q0 -115 -96 -187.5t-245 -72.5t-246 72t-97 188q0 143 141 203q-112 56 -112 168t89 177t226 65t227.5 -64.5t90.5 -177.5t-121 -168q143 -61 143 -203z M1755 688q-57 0 -95 -26.5t-38 -72.5t37 -71.5t95 -25.5t94 25.5t36 72.5t-36 72.5t-93 25.5zM1754 121q73 0 111 32.5t38 86.5t-41 88t-109 34t-109.5 -33.5t-41.5 -87.5t39.5 -87t112.5 -33z" glyph-name="seveneighths" horiz-adv-x="2172" unicode="⅞"/><glyph d="M1188 637h-975v154h975v-154z" glyph-name="minus" horiz-adv-x="1400" unicode="−"/><glyph d="M1167 512v-152h-495l-103 -280h-159l100 280h-289v152h344l92 250h-436v153h492l94 263h162l-97 -263h295v-153h-350l-90 -250h440z" glyph-name="notequal" horiz-adv-x="1380" unicode="≠"/><glyph d="M1024 608q180 0 317.5 -103.5t169.5 -258.5h-96q-47 100 -153.5 163.5t-237.5 63.5t-237.5 -63.5t-153.5 -163.5h-96q33 156 170 259t317 103z" glyph-name="uni2322" unicode="⌢"/><glyph d="M1024 199q-180 0 -317.5 103.5t-169.5 258.5h96q47 -104 153.5 -170.5t237.5 -66.5t237.5 66.5t153.5 170.5h96q-33 -156 -170 -259t-317 -103z" glyph-name="uni2323" unicode="⌣"/><glyph d="M1024 1458q328 0 560.5 -233t232.5 -561t-232.5 -561.5t-560.5 -233.5t-560.5 233.5t-232.5 562.5t232.5 561t560.5 232zM843 1078q-93 0 -93 -198t93 -198t93 198t-93 198zM1205 1078q-93 0 -93 -198t93 -198t93 198t-93 198zM733 219q0 106 85 181t206 75t206 -74.5 t85 -181.5h110q0 158 -117.5 268.5t-283.5 110.5t-283.5 -110.5t-117.5 -268.5h110z" glyph-name="uni2639" unicode="☹"/><glyph d="M1024 1458q328 0 560.5 -233t232.5 -561t-232.5 -561.5t-560.5 -233.5t-560.5 233.5t-232.5 562.5t232.5 561t560.5 232zM843 1036q-93 0 -93 -198t93 -198t93 198t-93 198zM1205 1036q-93 0 -93 -198t93 -198t93 198t-93 198zM1024 199q180 0 317.5 103.5t169.5 258.5 h-96q-47 -104 -153.5 -170.5t-237.5 -66.5t-237.5 66.5t-153.5 170.5h-96q33 -156 170 -259t317 -103z" glyph-name="smileface" unicode="☺"/><glyph d="M1069 233v-233h-876v233h311v914l-314 -135l-96 188l473 240h199v-1207h303z" glyph-name="uniF6DC" horiz-adv-x="1204" unicode=""/><glyph d="M1200 508h-1055v217h1055v-217z" glyph-name="uniF6DE" horiz-adv-x="1347" unicode=""/><glyph d="M1024 1458q328 0 560.5 -233t232.5 -561t-232.5 -561.5t-560.5 -233.5t-560.5 233.5t-232.5 562.5t232.5 561t560.5 232zM843 1036q-93 0 -93 -198t93 -198t93 198t-93 198zM1205 1036q-93 0 -93 -198t93 -198t93 198t-93 198zM1027 510q-349 0 -552 172 q2 -250 150.5 -405.5t399.5 -155.5t398.5 156.5t149.5 406.5q-197 -174 -546 -174zM584 526q86 -47 176 -73v-101q-133 59 -176 174zM1466 526q-43 -115 -176 -174v101q92 26 176 73zM1225 328q-78 -23 -166 -27v115q86 2 166 20v-108zM825 434q80 -16 166 -18v-115 q-88 4 -166 27v106z" glyph-name="u1F600" unicode="😀"/><glyph d="M1024 1458q328 0 560.5 -233t232.5 -561t-232.5 -561.5t-560.5 -233.5t-560.5 233.5t-232.5 562.5t232.5 561t560.5 232zM801 1069q-70 0 -115 -78t-49 -221h94q13 203 69 203t68 -203h95q-4 143 -48 221t-114 78zM1249 1069q-70 0 -114.5 -78t-49.5 -221h95 q12 203 68 203t69 -203h94q-4 143 -48 221t-114 78zM1027 510q-349 0 -552 172q2 -250 150.5 -405.5t399.5 -155.5t398.5 156.5t149.5 406.5q-197 -174 -546 -174zM584 526q86 -47 176 -73v-101q-133 59 -176 174zM1466 526q-43 -115 -176 -174v101q92 26 176 73zM1225 328 q-78 -23 -166 -27v115q86 2 166 20v-108zM825 434q80 -16 166 -18v-115q-88 4 -166 27v106z" glyph-name="u1F601" unicode="😁"/><glyph d="M1919 193q-55 0 -88 34q-33 30 -43 98t-14 81q-82 -236 -288 -386.5t-463 -150.5t-462 149.5t-287 387.5q-4 -16 -9 -49t-12.5 -68.5t-38.5 -66.5q-30 -30 -85 -29.5t-94 39t-40 94t36 88.5q29 31 113.5 46t107.5 23q-20 88 -21 181q0 217 105.5 399t289 288.5 t398.5 106.5t397.5 -106.5t289 -289.5t106.5 -398q0 -92 -21 -181q23 -8 107.5 -23t117.5 -47t32 -87.5t-40 -94t-94 -38.5zM833 1051q-67 0 -108 -74t-45 -211h84q12 188 67.5 188t65.5 -188h86q-6 137 -44.5 211t-105.5 74zM1215 1051q-67 0 -105.5 -74t-44.5 -211h86 q10 188 65.5 188t67.5 -188h84q-4 137 -45 211t-108 74zM1751 629q0 55 -34 88t-132 48t-145 50l-10 -8q35 -47 53 -162q-187 -109 -457 -107t-461 107q18 115 53 162l-10 8q-47 -35 -145 -50t-132 -48t-34 -89t36 -92t82 -41.5t81 15.5q53 -170 191 -269.5t337 -99.5 t337 99.5t191 269.5q35 -20 81 -15t82 42t36 92zM1526 719q25 -8 73 -17.5t65 -27.5t18 -44t-19 -46t-47 -20t-44 18t-26.5 66t-19.5 71zM385 584q-20 20 -19 46t18 44t65.5 27.5t72.5 17.5q-10 -25 -19 -72t-27 -64t-43 -18t-48 19zM756 479v-100q-135 61 -181 176 q87 -47 181 -76zM1294 379v102q94 27 181 74q-46 -115 -181 -176zM1059 328v116q88 2 168 19v-109q-78 -22 -168 -26zM823 354v109q80 -16 168 -19v-116q-90 3 -168 26zM130 262q26 1 44 18t27.5 65t17.5 73q-23 -10 -71 -19.5t-66 -27.5t-18.5 -44t20.5 -46q20 -20 46 -19z M1964 281q20 20 20 45.5t-18 43.5t-66.5 28t-70.5 20q8 -25 17.5 -73t27.5 -65t44 -18t46 19z" glyph-name="u1F602" unicode="😂"/><glyph d="M1024 1458q328 0 560.5 -233t232.5 -561t-232.5 -561.5t-560.5 -233.5t-560.5 233.5t-232.5 562.5t232.5 561t560.5 232zM843 1098q-93 0 -93 -198t93 -198t93 198t-93 198zM1205 1098q-93 0 -93 -198t93 -198t93 198t-93 198zM1026 502q-324 0 -510 160 q0 -231 138.5 -376t370.5 -145t369.5 146t137.5 377q-182 -162 -506 -162zM1025 240q-146 0 -258 71.5t-151 206.5q182 -102 409 -102t409 102q-39 -135 -151 -206.5t-258 -71.5z" glyph-name="u1F603" unicode="😃"/><glyph d="M1024 1458q328 0 560.5 -233t232.5 -561t-232.5 -561.5t-560.5 -233.5t-560.5 233.5t-232.5 562.5t232.5 561t560.5 232zM801 1069q-70 0 -115 -78t-49 -221h94q13 203 69 203t68 -203h95q-4 143 -48 221t-114 78zM1249 1069q-70 0 -114.5 -78t-49.5 -221h95 q12 203 68 203t69 -203h94q-4 143 -48 221t-114 78zM1026 502q-324 0 -510 160q0 -231 138.5 -376t370.5 -145t369.5 146t137.5 377q-182 -162 -506 -162zM1025 240q-146 0 -258 71.5t-151 206.5q182 -102 409 -102t409 102q-39 -135 -151 -206.5t-258 -71.5z" glyph-name="u1F604" unicode="😄"/><glyph d="M1024 1458q328 0 560.5 -233t232.5 -561t-232.5 -561.5t-560.5 -233.5t-560.5 233.5t-232.5 562.5t232.5 561t560.5 232zM801 1069q-70 0 -115 -78t-49 -221h94q13 203 69 203t68 -203h95q-4 143 -48 221t-114 78zM1249 1069q-70 0 -114.5 -78t-49.5 -221h95 q12 203 68 203t69 -203h94q-4 143 -48 221t-114 78zM1464 827q0 -41 33 -72.5t80 -31.5t80 31.5t33 72.5t-50.5 111t-56.5 119h-12q-6 -49 -56.5 -119t-50.5 -111zM1632 834q0 -22 -15 -38t-40 -16t-40 16t-15 38t23.5 57t31.5 55q8 -20 31.5 -55t23.5 -57zM1026 502 q-324 0 -510 160q0 -231 138.5 -376t370.5 -145t369.5 146t137.5 377q-182 -162 -506 -162zM1025 240q-146 0 -258 71.5t-151 206.5q182 -102 409 -102t409 102q-39 -135 -151 -206.5t-258 -71.5z" glyph-name="u1F605" unicode="😅"/><glyph d="M1024 1458q328 0 560.5 -233t232.5 -561t-232.5 -561.5t-560.5 -233.5t-560.5 233.5t-232.5 562.5t232.5 561t560.5 232zM958 934l-249 149l-41 -108l166 -64v-8l-166 -80l41 -108l249 166v53zM1380 975l-41 108l-249 -149v-53l249 -166l41 108l-166 80v8zM1025 176 q232 0 369.5 145.5t137.5 376.5q-182 -162 -506 -162t-510 160q0 -231 138.5 -375.5t370.5 -144.5zM1025 274q-146 0 -258 72t-151 207q182 -102 409 -102t409 102q-39 -135 -151 -207t-258 -72z" glyph-name="u1F606" unicode="😆"/><glyph d="M1817 646q0 -196 -106.5 -380t-289 -290.5t-397.5 -106.5t-398.5 106.5t-289 290.5t-105.5 380q0 384 275 620q-82 47 -127 104t-45 113q0 125 200.5 220t489.5 95q188 0 349 -44t251 -116.5t90 -154.5q0 -57 -45 -114.5t-127 -102.5q275 -240 275 -620zM1591 1485 q0 88 -164.5 152.5t-403.5 64.5t-402.5 -64.5t-163.5 -150.5q0 -37 41 -75t116 -69q188 115 410 115q221 0 410 -115q157 64 157 142zM843 640.5q93 0.5 93 198.5t-93 197.5t-93 -198.5t93 -197.5zM1205 640.5q93 0.5 93 198.5t-93 197.5t-93 -198.5t93 -197.5zM1024 199 q180 0 317.5 103.5t169.5 258.5h-96q-47 -104 -153.5 -170.5t-237.5 -66.5t-237.5 66.5t-153.5 170.5h-96q33 -156 170 -259t317 -103z" glyph-name="u1F607" unicode="😇"/><glyph d="M1817 664q0 -215 -106.5 -398.5t-289 -290t-397.5 -106.5t-398.5 106.5t-289 290t-105.5 398.5q0 158 57.5 299t162.5 249v414l299 -217q133 49 274 49t274 -49l299 217v-414q102 -109 161 -250t59 -298zM760 817q0 -193 90 -192.5t90 192.5v156l-360 114l-23 -88 l203 -65v-117zM1108 817q0 -193 90 -192.5t90 192.5v117l203 65l-23 88l-360 -114v-156zM1024 199q180 0 317.5 103.5t169.5 258.5h-96q-47 -104 -153.5 -170.5t-237.5 -66.5t-237.5 66.5t-153.5 170.5h-96q33 -156 170 -259t317 -103z" glyph-name="u1F608" unicode="😈"/><glyph d="M1024 1458q328 0 560.5 -233t232.5 -561t-232.5 -561.5t-560.5 -233.5t-560.5 233.5t-232.5 562.5t232.5 561t560.5 232zM844 1076q-92 0 -92 -196t92 -196t92 196t-92 196zM1372 950l-41 99l-215 -134v-79l215 -154l41 98l-141 94zM1024 199q180 0 317.5 103.5 t169.5 258.5h-96q-47 -104 -153.5 -170.5t-237.5 -66.5t-237.5 66.5t-153.5 170.5h-96q33 -156 170 -259t317 -103z" glyph-name="u1F609" unicode="😉"/><glyph d="M1024 1458q328 0 560.5 -233t232.5 -561t-232.5 -561.5t-560.5 -233.5t-560.5 233.5t-232.5 562.5t232.5 561t560.5 232zM801 1069q-70 0 -115 -78t-49 -221h94q13 203 69 203t68 -203h95q-4 143 -48 221t-114 78zM1249 1069q-70 0 -114.5 -78t-49.5 -221h95 q12 203 68 203t69 -203h94q-4 143 -48 221t-114 78zM1024 225q180 0 317.5 103.5t169.5 259.5h-96q-47 -104 -153.5 -171t-237.5 -67t-237.5 66.5t-153.5 171.5h-96q33 -156 170 -259.5t317 -103.5z" glyph-name="u1F60A" unicode="😊"/><glyph d="M1024 1458q328 0 560.5 -233t232.5 -561t-232.5 -561.5t-560.5 -233.5t-560.5 233.5t-232.5 562.5t232.5 561t560.5 232zM801 1069q-70 0 -115 -78t-49 -221h94q13 203 69 203t68 -203h95q-4 143 -48 221t-114 78zM1249 1069q-70 0 -114.5 -78t-49.5 -221h95 q12 203 68 203t69 -203h94q-4 143 -48 221t-114 78zM1024 412q-113 0 -200 56t-113 142h-105q29 -129 145.5 -215t272.5 -86q43 0 86 8q136 -206 250 -122q59 33 66.5 95t-48.5 185q47 61 64 135h-105q-27 -86 -113.5 -142t-199.5 -56zM1321 264q-51 -37 -131 74 q74 27 131 76q31 -74 30 -105t-30 -45z" glyph-name="u1F60B" unicode="😋"/><glyph d="M1024 1458q328 0 560.5 -233t232.5 -561t-232.5 -561.5t-560.5 -233.5t-560.5 233.5t-232.5 562.5t232.5 561t560.5 232zM799 688q70 0 114.5 78t49.5 221h-95q-12 -203 -68 -203t-69 203h-94q4 -143 48 -221t114 -78zM1247 688q70 0 115 78t49 221h-94 q-13 -203 -69 -203t-68 203h-95q4 -143 48 -221t114 -78zM1024 199q180 0 317.5 103.5t169.5 258.5h-96q-47 -104 -153.5 -170.5t-237.5 -66.5t-237.5 66.5t-153.5 170.5h-96q33 -156 170 -259t317 -103z" glyph-name="u1F60C" unicode="😌"/><glyph d="M1024 1458q328 0 560.5 -233t232.5 -561t-232.5 -561.5t-560.5 -233.5t-560.5 233.5t-232.5 562.5t232.5 561t560.5 232zM694 659h105q61 0 88.5 24t46.5 77l59 162h64l57 -162q20 -53 48 -77t87 -24h105q76 0 112.5 33t57.5 105l39 125h123l-54 108h-1229l-53 -108h137 l37 -125q20 -72 57 -105t113 -33zM1024 199q180 0 317.5 103.5t169.5 258.5h-96q-47 -104 -153.5 -170.5t-237.5 -66.5t-237.5 66.5t-153.5 170.5h-96q33 -156 170 -259t317 -103z" glyph-name="u1F60E" unicode="😎"/><glyph d="M1024 1458q328 0 560.5 -233t232.5 -561t-232.5 -561.5t-560.5 -233.5t-560.5 233.5t-232.5 562.5t232.5 561t560.5 232zM932 735v123h-324v-123h324zM1438 735v123h-324v-123h324zM1024 340v-121q188 0 332.5 121t179.5 303h-123q-33 -133 -141.5 -218t-247.5 -85z" glyph-name="u1F60F" unicode="😏"/><glyph d="M1024 1458q328 0 560.5 -233t232.5 -561t-232.5 -561.5t-560.5 -233.5t-560.5 233.5t-232.5 562.5t232.5 561t560.5 232zM843 1036q-93 0 -93 -198t93 -198t93 198t-93 198zM1205 1036q-93 0 -93 -198t93 -198t93 198t-93 198zM1432 358v123h-816v-123h816z" glyph-name="u1F610" unicode="😐"/><glyph d="M1024 1458q328 0 560.5 -233t232.5 -561t-232.5 -561.5t-560.5 -233.5t-560.5 233.5t-232.5 562.5t232.5 561t560.5 232zM932 735v123h-324v-123h324zM1438 735v123h-324v-123h324zM1432 358v123h-816v-123h816z" glyph-name="u1F611" unicode="😑"/><glyph d="M1024 1458q328 0 560.5 -233t232.5 -561t-232.5 -561.5t-560.5 -233.5t-560.5 233.5t-232.5 562.5t232.5 561t560.5 232zM946 985h-414v-94h228q0 -199 93 -199t93 199v94zM1475 985h-414v-94h227q0 -199 93.5 -199t93.5 199v94zM1432 358v123h-816v-123h816z" glyph-name="u1F612" unicode="😒"/><glyph d="M1024 1458q328 0 560.5 -233t232.5 -561t-232.5 -561.5t-560.5 -233.5t-560.5 233.5t-232.5 562.5t232.5 561t560.5 232zM938 872v246l-385 -190l22 -88l183 90v-58q0 -195 90 -194.5t90 194.5zM1110 872q0 -195 90 -194.5t90 194.5v58l183 -90l24 88l-387 190v-246z M1395 567q0 -47 41 -87t100 -40t100 40t41 87t-28.5 92.5t-63.5 96.5t-41 102h-14q-8 -51 -42 -102t-63.5 -96.5t-29.5 -92.5zM1606 580q0 -28 -19.5 -47t-50.5 -19t-50.5 19.5t-19.5 47.5t30 70.5t40 67.5q12 -25 41 -68t29 -71zM1432 248v123h-816v-123h816z" glyph-name="u1F613" unicode="😓"/><glyph d="M1024 1458q328 0 560.5 -233t232.5 -561t-232.5 -561.5t-560.5 -233.5t-560.5 233.5t-232.5 562.5t232.5 561t560.5 232zM801 1008q-70 0 -115 -78t-49 -221h94q12 203 68 202q57 0 69 -202h95q-4 143 -48 221t-114 78zM1249 1008q-70 0 -114.5 -78t-49.5 -221h95 q12 203 69 202q55 0 68 -202h94q-4 143 -48 221t-114 78zM1432 317v123h-816v-123h816z" glyph-name="u1F614" unicode="😔"/><glyph d="M1024 1458q328 0 560.5 -233t232.5 -561t-232.5 -561.5t-560.5 -233.5t-560.5 233.5t-232.5 562.5t232.5 561t560.5 232zM837 1016q-81 0 -81 -174t81 -174t81 174t-81 174zM1292 911h-196v-73q0 -125 98 -125t98 125v73zM791 186q248 264 700 254l-47 129 q-453 8 -701 -256z" glyph-name="u1F615" unicode="😕"/><glyph d="M1024 1458q328 0 560.5 -233t232.5 -561t-232.5 -561.5t-560.5 -233.5t-560.5 233.5t-232.5 562.5t232.5 561t560.5 232zM985 930l-45 127l-362 -131l45 -127zM1477 926l-363 131l-47 -127l363 -131zM705 496q67 0 103 -50.5t76.5 -99.5t140.5 -49t140.5 49t75 99.5 t102.5 50.5q129 0 181 -150l98 27q-22 88 -69.5 148.5t-95.5 85t-105 26.5t-97.5 -16.5t-64 -46t-61 -74.5t-105.5 -47q-70 0 -106.5 44t-77.5 90t-142 50q-154 0 -207 -106.5t-65 -153.5l98 -27q51 150 181 150z" glyph-name="u1F616" unicode="😖"/><glyph d="M1024 1458q328 0 560.5 -233t232.5 -561t-232.5 -561.5t-560.5 -233.5t-560.5 233.5t-232.5 562.5t232.5 561t560.5 232zM843 1036q-93 0 -93 -198t93 -198t93 198t-93 198zM1205 1036q-93 0 -93 -198t93 -198t93 198t-93 198zM1430 451v102h-812v-102h170 q18 -358 236 -361q100 0 161.5 89t71.5 272h173zM1024 193q-59 0 -90 58t-43 200h264q-12 -141 -42 -199.5t-89 -58.5z" glyph-name="u1F61B" unicode="😛"/><glyph d="M1024 1458q328 0 560.5 -233t232.5 -561t-232.5 -561.5t-560.5 -233.5t-560.5 233.5t-232.5 562.5t232.5 561t560.5 232zM844 1076q-92 0 -92 -196t92 -196t92 196t-92 196zM1372 950l-41 99l-215 -134v-79l215 -154l41 98l-141 94zM1430 451v102h-812v-102h173 q16 -358 233 -361q100 0 161.5 89t71.5 272h173zM1024 193q-59 0 -90 58t-41 200h262q-12 -141 -42 -199.5t-89 -58.5z" glyph-name="u1F61C" unicode="😜"/><glyph d="M1024 1458q328 0 560.5 -233t232.5 -561t-232.5 -561.5t-560.5 -233.5t-560.5 233.5t-232.5 562.5t232.5 561t560.5 232zM958 899l-249 150l-41 -109l166 -63v-9l-166 -80l41 -108l249 166v53zM1380 940l-41 109l-249 -150v-53l249 -166l41 108l-166 80v9zM1430 451v102 h-812v-102h173q16 -358 233 -361q100 0 161.5 89t71.5 272h173zM1024 193q-59 0 -90 58t-41 200h262q-12 -141 -42 -199.5t-89 -58.5z" glyph-name="u1F61D" unicode="😝"/><glyph d="M1024 1458q328 0 560.5 -233t232.5 -561t-232.5 -561.5t-560.5 -233.5t-560.5 233.5t-232.5 562.5t232.5 561t560.5 232zM819 662q86 0 86 184v94l45 25v120l-297 -157v-127l78 43q2 -182 88 -182zM1143 846q0 -184 86 -184t88 182l78 -43v127l-297 157v-120l45 -25v-94z M1024 567q-180 0 -317.5 -103.5t-169.5 -258.5h96q47 100 153.5 163.5t237.5 63.5t237.5 -63.5t153.5 -163.5h96q-33 156 -170 259t-317 103z" glyph-name="u1F61E" unicode="😞"/><glyph d="M1024 1458q328 0 560.5 -233t232.5 -561t-232.5 -561.5t-560.5 -233.5t-560.5 233.5t-232.5 562.5t232.5 561t560.5 232zM905 887v94l45 25v120l-297 -157v-127l78 43q2 -182 86 -183q88 0 88 185zM1143 887q0 -184 88 -185q84 0 86 183l78 -43v127l-297 157v-120l45 -25 v-94zM1024 557q-178 0 -297 -81t-156 -208h103q37 78 125 126t225 48t225 -48t125 -126h103q-37 127 -156 208t-297 81zM1024 342q-68 0 -112 -41t-56 -108h70q20 68 98 67.5t98 -67.5h70q-12 68 -56 108.5t-112 40.5z" glyph-name="u1F61F" unicode="😟"/><glyph d="M1024 1458q328 0 560.5 -233t232.5 -561t-232.5 -561.5t-560.5 -233.5t-560.5 233.5t-232.5 562.5t232.5 561t560.5 232zM760 817q0 -193 90 -192.5t90 192.5v156l-360 114l-23 -88l203 -65v-117zM1108 817q0 -193 90 -192.5t90 192.5v117l203 65l-23 88l-360 -114v-156z M1024 608q-180 0 -317.5 -103.5t-169.5 -258.5h96q47 100 153.5 163.5t237.5 63.5t237.5 -63.5t153.5 -163.5h96q-33 156 -170 259t-317 103z" glyph-name="u1F620" unicode="😠"/><glyph d="M1024 1458q328 0 560.5 -233t232.5 -561t-232.5 -561.5t-560.5 -233.5t-560.5 233.5t-232.5 562.5t232.5 561t560.5 232zM760 817q0 -193 90 -192.5t90 192.5v156l-360 114l-23 -88l203 -65v-117zM1108 817q0 -193 90 -192.5t90 192.5v117l203 65l-23 88l-360 -114v-156z M1024 557q-178 0 -297 -81t-156 -208h103q37 78 125 126t225 48t225 -48t125 -126h103q-37 127 -156 208t-297 81zM1024 342q-68 0 -112 -41t-56 -108h70q20 68 98 67.5t98 -67.5h70q-12 68 -56 108.5t-112 40.5z" glyph-name="u1F621" unicode="😡"/><glyph d="M1024 1458q328 0 560.5 -233t232.5 -561t-232.5 -561.5t-560.5 -233.5t-560.5 233.5t-232.5 562.5t232.5 561t560.5 232zM811 772q74 0 118 68.5t48 197.5h-94q-12 -160 -72.5 -159.5t-75.5 159.5h-94q6 -129 51 -197.5t119 -68.5zM1248.5 469q62.5 0 104.5 42t42 82 t-9.5 64.5t-20.5 42t-31.5 45t-30.5 43.5q94 53 104 250h-94q-14 -160 -74.5 -159.5t-73.5 159.5h-94q8 -215 117 -258q-4 -6 -28.5 -39.5t-41 -63t-16.5 -77.5q0 -47 42 -89t104.5 -42zM1248.5 545q-31.5 0 -52 21.5t-20.5 49.5t30.5 72.5t40.5 71.5q12 -27 43 -72t31 -73 t-20.5 -49t-52 -21zM1024 444q-166 0 -291 -79.5t-155 -200.5h116q29 63 120 104t210 41t210 -41t120 -104h116q-31 121 -155.5 200.5t-290.5 79.5z" glyph-name="u1F622" unicode="😢"/><glyph d="M1024 1458q328 0 560.5 -233t232.5 -561t-232.5 -561.5t-560.5 -233.5t-560.5 233.5t-232.5 562.5t232.5 561t560.5 232zM958 899l-249 150l-41 -109l166 -63v-9l-166 -80l41 -108l249 166v53zM1380 940l-41 109l-249 -150v-53l249 -166l41 108l-166 80v9zM1024 608 q-180 0 -317.5 -103.5t-169.5 -258.5h96q47 100 153.5 163.5t237.5 63.5t237.5 -63.5t153.5 -163.5h96q-33 156 -170 259t-317 103z" glyph-name="u1F623" unicode="😣"/><glyph d="M231 662q0 218 105.5 400.5t289 289t398.5 106.5t397.5 -106.5t289 -289.5t106.5 -398t-107.5 -398.5t-288.5 -290.5l-96 379q55 -37 86 -88h92q-47 143 -211 215l-43 172l-41 -8l37 -145q-31 10 -63 18l-19 119l-39 -6l15 -107q-55 8 -113 8t-108 -6l14 105l-39 6 l-19 -119q-33 -6 -61 -14l35 141l-41 8l-41 -168q-172 -72 -221 -219h92q33 55 96 94l-98 -389q-184 104 -294 288.5t-110 402.5zM631 889l325 -96l27 94l-324 94zM1067 887l27 -94l323 96l-28 92zM1026 -131q-104 0 -201 25l76 524q57 10 125 10t129 -12l76 -518 q-101 -29 -205 -29zM678 -51l106 438q33 12 72 23l-78 -502q-51 16 -100 41zM1278 -88l-78 496q39 -10 72 -25l104 -430q-47 -25 -98 -41zM1376 -47l45 22l68 -264l-51 -8zM635 -29l43 -22l-60 -246l-51 8zM1231 -102l47 14l37 -231l-51 -11zM778 -92l47 -14l-32 -224 l-52 11zM834 -264l8 37q123 -55 108 -140q-10 -51 -44 -74.5t-78 -17.5t-62 37q-16 -43 -49 -61.5t-73 -11.5t-65.5 37t-25.5 77q-25 -25 -70 -16q-45 8 -69.5 43t-14.5 86q14 82 150 94l-6 -37q-25 -6 -37 -10t-28.5 -19.5t-21.5 -41.5t10 -45t41 -24t46 17l29 -12 q0 -39 20.5 -63.5t50.5 -28.5q70 -12 99 61l30 2q10 -25 37 -30t47.5 8.5t25.5 39.5q10 52 -58 93zM1505 -213l-6 37q135 -8 150 -94q10 -51 -14.5 -86t-67.5 -42t-72 13q0 -47 -25.5 -75.5t-64.5 -35.5q-90 -14 -123 74q-16 -29 -61 -37t-79 15.5t-44 74.5q-14 82 108 142 l6 -37q-66 -45 -55 -98t74 -44q25 2 35 29l30 -2q27 -71 78 -64t71.5 31.5t20.5 63.5l29 12q16 -18 44 -15t43 23t10 46q-10 52 -87 69z" glyph-name="u1F624" unicode="😤"/><glyph d="M1024 1458q328 0 560.5 -233t232.5 -561t-232.5 -561.5t-560.5 -233.5t-560.5 233.5t-232.5 562.5t232.5 561t560.5 232zM973 942l-53 90l-308 -168l52 -90zM1436 864l-308 168l-53 -90l309 -168zM1415 608q0 -47 41 -87t100.5 -40t100.5 40t41 87t-29 92t-63.5 96.5 t-40.5 102.5h-15q-8 -51 -41.5 -102.5t-63.5 -96.5t-30 -92zM1626 622q0 -28 -19.5 -47.5t-50 -19.5t-50 19.5t-19.5 47.5t29.5 70.5t39.5 67.5q12 -25 41 -67.5t29 -70.5zM1024 608q-180 0 -317.5 -103.5t-169.5 -258.5h96q47 100 153.5 163.5t237.5 63.5t237.5 -63.5 t153.5 -163.5h96q-33 156 -170 259t-317 103z" glyph-name="u1F625" unicode="😥"/><glyph d="M1024 1458q328 0 560.5 -233t232.5 -561t-232.5 -561.5t-560.5 -233.5t-560.5 233.5t-232.5 562.5t232.5 561t560.5 232zM843 1145.5q-93 -0.5 -93 -198.5t93 -197.5t93 198.5t-93 197.5zM1205 1145.5q-93 -0.5 -93 -198.5t93 -197.5t93 198.5t-93 197.5zM1024 645 q-176 0 -285.5 -115.5t-128.5 -314.5h828q-18 199 -128 314.5t-286 115.5zM1024 537q104 0 185 -56.5t100 -163.5h-570q18 106 99.5 163t185.5 57z" glyph-name="u1F626" unicode="😦"/><glyph d="M1024 1458q328 0 560.5 -233t232.5 -561t-232.5 -561.5t-560.5 -233.5t-560.5 233.5t-232.5 562.5t232.5 561t560.5 232zM938 858v246l-385 -191l22 -88l183 90v-57q0 -195 90 -194.5t90 194.5zM1110 858q0 -195 90 -194.5t90 194.5v57l183 -90l24 88l-387 191v-246z M1024 623q-209 0 -333 -138.5t-126 -357.5q180 82 459 82q143 0 276.5 -21.5t182.5 -60.5q0 219 -125 357.5t-334 138.5zM1024 510q125 0 218 -59.5t126 -176.5q-141 41 -344 41t-344 -41q33 117 126 176.5t218 59.5z" glyph-name="u1F627" unicode="😧"/><glyph d="M1024 1458q328 0 560.5 -233t232.5 -561t-232.5 -561.5t-560.5 -233.5t-560.5 233.5t-232.5 562.5t232.5 561t560.5 232zM760 1102q-86 0 -146.5 -60.5t-60.5 -146.5t60.5 -146.5t146.5 -60.5t146.5 60.5t60.5 146.5t-60.5 146.5t-146.5 60.5zM1288 1102 q-86 0 -146.5 -60.5t-60.5 -146.5t60.5 -146.5t146.5 -60.5t146.5 60.5t60.5 146.5t-60.5 146.5t-146.5 60.5zM761 1026q54 0 93 -38t39 -93t-39 -93t-93 -38t-93 38t-39 93t39 93t93 38zM1287 1026q54 0 93 -38t39 -93t-39 -93t-93 -38t-93 38t-39 93t39 93t93 38z M760.5 946q-21.5 0 -36.5 -15.5t-15 -36t15 -35.5t36.5 -15t36 15t14.5 35.5t-14.5 36t-36 15.5zM1287.5 946q-21.5 0 -36 -15.5t-14.5 -36t14.5 -35.5t36 -15t36.5 15t15 35.5t-15 36t-36.5 15.5zM1024 668q-176 0 -285.5 -116t-128.5 -314h828q-18 199 -128 314.5 t-286 115.5zM1024 559q104 0 185 -56.5t100 -162.5h-570q18 106 99.5 162.5t185.5 56.5z" glyph-name="u1F628" unicode="😨"/><glyph d="M1024 1458q328 0 560.5 -233t232.5 -561t-232.5 -561.5t-560.5 -233.5t-560.5 233.5t-232.5 562.5t232.5 561t560.5 232zM781 1036q-93 0 -93 -198t93 -198t93 198t-93 198zM1144 1036q-93 0 -93 -198t93 -198t93 198t-93 198zM1137 174q86 0 145 60.5t59 145.5 t-59 145.5t-145 60.5t-145.5 -60.5t-59.5 -145.5t59.5 -145.5t145.5 -60.5z" glyph-name="u1F62E" unicode="😮"/><glyph d="M1024 1458q328 0 560.5 -233t232.5 -561t-232.5 -561.5t-560.5 -233.5t-560.5 233.5t-232.5 562.5t232.5 561t560.5 232zM909 1104l-307 -113l43 -114l307 112zM1444 991l-307 113l-41 -115l307 -112zM541.5 778q-103.5 0 -158.5 -88h317q-55 88 -158.5 88zM1508.5 778 q-103.5 0 -160.5 -88h319q-55 88 -158.5 88zM354 594q0 -23 4 -43h365q6 20 6 43t-6 45h-363q-6 -23 -6 -45zM1321 594q0 -23 4 -43h365q6 20 6 43t-6 45h-363q-6 -23 -6 -45zM381 498q25 -41 60.5 -62.5t99.5 -29.5q118 15 159 92h-319zM1348 498q25 -41 60.5 -62.5 t98.5 -29.5q119 15 160 92h-319zM1024 156q111 0 188.5 78.5t77.5 189.5h-534q0 -111 78.5 -189.5t189.5 -78.5z" glyph-name="u1F633" unicode="😳"/><glyph d="M311 1681v-323q84 86 201 86t199 -88t82 -248q0 -92 -28 -165t-95 -138.5t-170 -65.5q-139 0 -207 90h-6l-27 -77h-129v929h180zM463 1288q-96 0 -152 -96v-225q47 -70 150 -70q61 0 104 57.5t43 148.5t-41 138t-104 47z" glyph-name="glyph386" horiz-adv-x="921"/><glyph d="M1845 1098q147 0 256 -96.5t109 -258.5v-743h-248v680q0 104 -54.5 151.5t-135.5 47.5q-152 0 -267 -179v-700h-245v1202h-463v-1202h-262v1202h-443v232h1411v-500q144 164 342 164z" glyph-name="T_h.dlig" horiz-adv-x="2355"/><glyph d="M821 1221q-1 342 393 342q172 0 312 -88l-96 -170q-76 61 -189 61q-172 0 -172 -152v-141h608v-1175q0 -154 -104.5 -245t-249.5 -91t-229 39l47 190q55 -18 131 -18t118 37.5t42 130.5v923h-363v-864h-248v864h-366v-864h-248v864h-150v209h150v168q0 158 93 244t263 86 q117 0 187 -31l-39 -182q-51 14 -111 14q-145 0 -145 -135v-164h366v148z" glyph-name="f_f_j.dlig" horiz-adv-x="1816"/><glyph d="M207 1221q1 342 395 342q172 0 309 -88l-96 -170q-76 61 -188 61q-172 0 -172 -152v-141h600v-1073h-244v864h-356v-864h-248v864h-150v209h150v148z" glyph-name="f_i.dlig" horiz-adv-x="1193"/><glyph d="M207 1221q1 342 395 342q172 0 309 -88l-96 -170q-76 61 -188 61q-172 0 -172 -152v-141h647v-1175q0 -154 -103 -245t-249 -91t-230 39l47 190q53 -18 130 -18t118 37.5t41 130.5v923h-401v-864h-248v864h-150v209h150v148z" glyph-name="f_j.dlig" horiz-adv-x="1241"/><glyph d="M643 1571q457 0 457 -410l-250 -4q0 106 -47 160.5t-151 54.5t-151.5 -44t-47.5 -142v-113h245v-207h-245v-866h-246v866h-152v207h152v127q0 178 112.5 274.5t323.5 96.5zM1100 0h-250v1157l250 4v-1161z" glyph-name="f_l.dlig" horiz-adv-x="1288"/><glyph d="M1135 -31q-272 0 -273 267v628h-407v-864h-248v864h-150v209h150v168q0 158 93 244t263 86q117 0 187 -31l-39 -182q-51 14 -111 14q-145 0 -145 -135v-164h407v137l111 142h137v-279h262v-209h-262v-579q0 -94 84 -95q63 0 139 29l62 -176q-117 -74 -260 -74z" glyph-name="f_t.dlig" horiz-adv-x="1474"/><glyph d="M864 225h-483l-78 -225h-235l426 1165h258l428 -1165h-240zM801 410l-178 518l-179 -518h357z" glyph-name="A.c2sc" horiz-adv-x="1249"/><glyph d="M686 1286h-158l138 275h292zM864 225h-483l-78 -225h-235l426 1165h258l428 -1165h-240zM801 410l-178 518l-179 -518h357z" glyph-name="Aacute.aalt" horiz-adv-x="1249"/><glyph d="M618 1403q138 0 164 125h129q-12 -129 -94.5 -195.5t-196.5 -66.5t-197 66.5t-95 195.5h127q25 -125 163 -125zM864 225h-483l-78 -225h-235l426 1165h258l428 -1165h-240zM801 410l-178 518l-179 -518h357z" glyph-name="Abreve.aalt" horiz-adv-x="1249"/><glyph d="M512 1305h-207l240 262h141l227 -262h-196l-105 110zM864 225h-483l-78 -225h-235l426 1165h258l428 -1165h-240zM801 410l-178 518l-179 -518h357z" glyph-name="Acircumflex.aalt" horiz-adv-x="1249"/><glyph d="M429 1313q-52 0 -87 31.5t-35 93.5q0 61 34 93t88 32t87 -32t33 -93t-34 -93t-86 -32zM807 1313q-53 0 -88 31.5t-35 93.5q0 61 35 93t88 32t86 -32t33 -93t-33 -93t-86 -32zM864 225h-483l-78 -225h-235l426 1165h258l428 -1165h-240zM801 410l-178 518l-179 -518h357z " glyph-name="Adieresis.aalt" horiz-adv-x="1249"/><glyph d="M551 1286l-275 275h293l138 -275h-156zM864 225h-483l-78 -225h-235l426 1165h258l428 -1165h-240zM801 410l-178 518l-179 -518h357z" glyph-name="Agrave.aalt" horiz-adv-x="1249"/><glyph d="M879 1380h-517v129h517v-129zM864 225h-483l-78 -225h-235l426 1165h258l428 -1165h-240zM801 410l-178 518l-179 -518h357z" glyph-name="Amacron.aalt" horiz-adv-x="1249"/><glyph d="M1069 -199q0 -98 117 -112l-41 -142q-111 10 -179.5 68.5t-68.5 142.5t37 136.5t115 105.5h-109l-76 225h-483l-78 -225h-235l426 1165h258l428 -1165h-9q-59 -70 -80.5 -113t-21.5 -86zM801 410l-178 518l-179 -518h357z" glyph-name="Aogonek.aalt" horiz-adv-x="1249"/><glyph d="M621 1280q-76 0 -124 44t-48 116.5t48 118t124 45.5t123 -45.5t47 -118t-47 -116.5t-123 -44zM620 1516q-34 0 -52.5 -21.5t-18.5 -53.5t19.5 -52.5t52.5 -20.5t52 20.5t19 52.5t-19 53.5t-53 21.5zM864 225h-483l-78 -225h-235l426 1165h258l428 -1165h-240zM801 410 l-178 518l-179 -518h357z" glyph-name="Aring.aalt" horiz-adv-x="1249"/><glyph d="M512 1395q-70 0 -106 -90l-123 65q25 94 83 139t117 45t132 -38.5t100 -38.5q57 0 98 96l131 -62q-25 -90 -76.5 -142t-113.5 -52t-133.5 39t-108.5 39zM864 225h-483l-78 -225h-235l426 1165h258l428 -1165h-240zM801 410l-178 518l-179 -518h357z" glyph-name="Atilde.aalt" horiz-adv-x="1249"/><glyph d="M1022 965v-267h418v-202h-418v-293h485v-203h-733v227h-334l-108 -227h-264l591 1165h848v-200h-485zM774 430v492l-235 -492h235z" glyph-name="AE.aalt" horiz-adv-x="1605"/><glyph d="M1042 328q0 -154 -108.5 -241t-290.5 -87h-491v1165h432q387 0 387 -291q0 -182 -162 -264q233 -47 233 -282zM387 674h178q82 2 124 42t42 111q0 141 -166 142h-178v-295zM782 356q0 156 -184 156h-211v-322h201q194 0 194 166z" glyph-name="B.aalt" horiz-adv-x="1132"/><glyph d="M685.5 979q-145.5 0 -240.5 -98.5t-95 -294t97.5 -299t242.5 -103.5t277 97l102 -170q-154 -135 -398 -135.5t-407 148.5q-80 73 -127 191.5t-47 270.5t47 270t128 190q161 144 393.5 144t392.5 -125l-109 -170q-111 84 -256.5 84z" glyph-name="C.aalt" horiz-adv-x="1146"/><glyph d="M709 1286h-156l137 275h291zM685.5 979q-145.5 0 -240.5 -98.5t-95 -294t97.5 -299t242.5 -103.5t277 97l102 -170q-154 -135 -398 -135.5t-407 148.5q-80 73 -127 192.5t-47 270.5t47 269t128 190q161 144 393.5 144t392.5 -125l-109 -170q-111 84 -256.5 84z" glyph-name="Cacute.aalt" horiz-adv-x="1146"/><glyph d="M561 1303l-233 258h202l105 -119l108 119h193l-221 -258h-154zM90 587q0 151 47 269t128 190q161 144 393.5 144t392.5 -125l-109 -170q-111 84 -256.5 84t-240.5 -98.5t-95 -294t97.5 -299t243 -103t276.5 96.5l102 -170q-154 -135 -398 -135.5t-407 148.5 q-80 73 -127 192.5t-47 270.5z" glyph-name="Ccaron.aalt" horiz-adv-x="1146"/><glyph d="M528 -360q146 26 146 91q0 56 -49 56q-20 0 -39 -10l-86 76l69 129q-209 29 -344 183t-135 421q0 152 47 270t128 190q161 144 393.5 144t392.5 -125l-109 -170q-111 84 -256.5 84t-240.5 -98.5t-95 -294t97.5 -299t242.5 -103.5t277 97l102 -170q-144 -128 -377 -136 l-47 -79q86 8 137.5 -36t51.5 -126t-73 -137.5t-188 -65.5z" glyph-name="Ccedilla.aalt" horiz-adv-x="1146"/><glyph d="M646 1565q56 0 95 -34t39 -99q0 -66 -39 -99t-95 -33t-95 33t-39 99t39 99.5t95 33.5zM685.5 979q-145.5 0 -240.5 -98.5t-95 -294t97.5 -299t242.5 -103.5t277 97l102 -170q-154 -135 -398 -135.5t-407 148.5q-80 73 -127 191.5t-47 270.5t47 270t128 190 q161 144 393.5 144t392.5 -125l-109 -170q-111 84 -256.5 84z" glyph-name="Cdotaccent.aalt" horiz-adv-x="1146"/><glyph d="M152 1165h405q272 0 430 -139t158 -436t-159 -443.5t-429 -146.5h-405v1165zM397 963v-760h133q182 0 272.5 93t90.5 292t-89 287t-274 88h-133z" glyph-name="D.aalt" horiz-adv-x="1234"/><glyph d="M152 1165h405q272 0 430 -139t158 -436t-159 -443.5t-429 -146.5h-405v494h-183v204h183v467zM397 203h133q182 0 272.5 93t90.5 292t-89 287t-274 88h-133v-265h211v-204h-211v-291z" glyph-name="Eth.aalt" horiz-adv-x="1234"/><glyph d="M500 1303l-234 258h203l104 -117l109 117h195l-224 -258h-153zM152 1165h405q272 0 430 -139t158 -436t-159 -443.5t-429 -146.5h-405v1165zM397 203h133q182 0 272.5 93t90.5 292t-89 287t-274 88h-133v-760z" glyph-name="Dcaron.aalt" horiz-adv-x="1234"/><glyph d="M842 1380h-516v131h516v-131zM152 1165h405q272 0 430 -139t158 -436t-159 -443.5t-429 -146.5h-405v1165zM397 963v-760h133q182 0 272.5 93t90.5 292t-89 287t-274 88h-133z" glyph-name="Dcroat.aalt" horiz-adv-x="1234"/><glyph d="M930 965h-533v-269h467v-204h-467v-289h533v-203h-778v1165h778v-200z" glyph-name="E.aalt" horiz-adv-x="1028"/><glyph d="M621 1286h-158l137 275h293zM930 965h-533v-269h467v-204h-467v-289h533v-203h-778v1165h778v-200z" glyph-name="Eacute.aalt" horiz-adv-x="1028"/><glyph d="M552 1403q138 0 165 125h129q-14 -129 -96 -195.5t-196 -66.5t-197 66.5t-95 195.5h127q25 -125 163 -125zM930 965h-533v-269h467v-204h-467v-289h533v-203h-778v1165h778v-200z" glyph-name="Ebreve.aalt" horiz-adv-x="1028"/><glyph d="M473 1303l-233 258h202l103 -119l108 119h195l-223 -258h-152zM397 965v-269h467v-204h-467v-289h533v-203h-778v1165h778v-200h-533z" glyph-name="Ecaron.aalt" horiz-adv-x="1028"/><glyph d="M446 1305h-206l239 262h142l227 -262h-197l-104 110zM397 965v-269h467v-204h-467v-289h533v-203h-778v1165h778v-200h-533z" glyph-name="Ecircumflex.aalt" horiz-adv-x="1028"/><glyph d="M364 1563q54 0 86.5 -32t32.5 -93t-33.5 -93t-86.5 -32t-87 31.5t-34 93.5q0 61 34 93t88 32zM741 1563q53 0 86 -32t33 -93t-32.5 -93t-86 -32t-88.5 31.5t-35 93t35 93.5t88 32zM930 965h-533v-269h467v-204h-467v-289h533v-203h-778v1165h778v-200z" glyph-name="Edieresis.aalt" horiz-adv-x="1028"/><glyph d="M556 1565q56 0 95 -34t39 -99q0 -66 -39 -99t-95 -33t-95 33t-39 99t39 99.5t95 33.5zM930 965h-533v-269h467v-204h-467v-289h533v-203h-778v1165h778v-200z" glyph-name="Edotaccent.aalt" horiz-adv-x="1028"/><glyph d="M641 1286h-156l-274 275h293zM930 965h-533v-269h467v-204h-467v-289h533v-203h-778v1165h778v-200z" glyph-name="Egrave.aalt" horiz-adv-x="1028"/><glyph d="M813 1380h-516v129h516v-129zM930 965h-533v-269h467v-204h-467v-289h533v-203h-778v1165h778v-200z" glyph-name="Emacron.aalt" horiz-adv-x="1028"/><glyph d="M397 965v-269h467v-204h-467v-289h533v-203h-258q-55 -63 -73.5 -104t-18.5 -84q0 -98 114 -113l-39 -141q-113 10 -180 68.5t-68 139.5t32.5 132t103.5 102h-391v1165h778v-200h-533z" glyph-name="Eogonek.aalt" horiz-adv-x="1028"/><glyph d="M913 965h-526v-342h463v-203h-463v-420h-235v1165h761v-200z" glyph-name="F.aalt" horiz-adv-x="974"/><glyph d="M668 975q-164 0 -251 -99.5t-87 -291t87 -295t249 -103.5q78 0 138 28t83 50v223h-277v181h498v-500q-31 -61 -160 -127t-309 -66q-226 -1 -382 141q-79 72 -125 193t-46 277q0 310 166.5 457t397.5 147t423 -123l-110 -184q-131 92 -295 92z" glyph-name="G.aalt" horiz-adv-x="1196"/><glyph d="M638 1403q138 0 163 125h129q-12 -129 -94 -195.5t-196 -66.5t-197 66.5t-95 195.5h127q25 -125 163 -125zM668 975q-164 0 -251 -99.5t-87 -291t87 -295t249 -103.5q78 0 138 28t83 50v223h-277v181h498v-500q-31 -61 -160 -127t-309 -66q-226 -1 -382 141 q-79 72 -125 193t-46 277q0 310 166.5 457t397.5 147t423 -123l-110 -184q-131 92 -295 92z" glyph-name="Gbreve.aalt" horiz-adv-x="1196"/><glyph d="M668 975q-164 0 -251 -99.5t-87 -291t87 -295t249 -103.5q78 0 138 28t83 50v223h-277v181h498v-500q-31 -61 -160 -127t-309 -66q-226 -1 -382 141q-79 72 -125 193t-46 277q0 310 166.5 457t397.5 147t423 -123l-110 -184q-131 92 -295 92zM688 -442h-113l9 329h198z " glyph-name="Gcommaaccent.aalt" horiz-adv-x="1196"/><glyph d="M642 1565q56 0 95 -34t39 -99q0 -66 -39 -99t-95 -33t-95 33t-39 99t39 99.5t95 33.5zM668 975q-164 0 -251 -99.5t-87 -291t87 -295t249 -103.5q78 0 138 28t83 50v223h-277v181h498v-500q-31 -61 -160 -127t-309 -66q-226 -1 -382 141q-79 72 -125 193t-46 277 q0 310 166.5 457t397.5 147t423 -123l-110 -184q-131 92 -295 92z" glyph-name="Gdotaccent.aalt" horiz-adv-x="1196"/><glyph d="M1157 1165v-1165h-252v465h-508v-465h-245v1165h245v-487h508v487h252z" glyph-name="H.aalt" horiz-adv-x="1306"/><glyph d="M1245 809h-80v-809h-252v465h-507v-465h-246v809h-103v143h103v213h246v-213h507v213h252v-213h80v-143zM913 809h-507v-131h507v131z" glyph-name="Hbar.aalt" horiz-adv-x="1304"/><glyph d="M428 0h-238v1165h238v-1165z" glyph-name="I.aalt" horiz-adv-x="618"/><glyph d="M428 0h-238v1165h238v-1165z" glyph-name="dotlessi.aalt" horiz-adv-x="618"/><glyph d="M379 1286h-158l137 275h293zM428 0h-238v1165h238v-1165z" glyph-name="Iacute.aalt" horiz-adv-x="618"/><glyph d="M205 1305h-207l240 264h141l227 -264h-198l-103 110zM190 1165h238v-1165h-238v1165z" glyph-name="Icircumflex.aalt" horiz-adv-x="618"/><glyph d="M121 1563q53 0 87 -31t34 -93t-34 -93t-87 -31t-87 30.5t-34 92.5t34 93.5t87 31.5zM500 1563q53 0 85.5 -31t32.5 -93t-32.5 -93t-85.5 -31t-88 30.5t-35 92.5t35 93.5t88 31.5zM428 0h-238v1165h238v-1165z" glyph-name="Idieresis.aalt" horiz-adv-x="618"/><glyph d="M399 1286h-155l-275 275h293zM428 0h-238v1165h238v-1165z" glyph-name="Igrave.aalt" horiz-adv-x="618"/><glyph d="M428 0h-238v1165h238v-1165zM1255 1165v-815q0 -381 -413 -381q-139 0 -211 31l39 205q58 -17 152 -17q198 -1 198 197v780h235z" glyph-name="IJ.aalt" horiz-adv-x="1404"/><glyph d="M571 1380h-516v131h516v-131zM428 0h-238v1165h238v-1165z" glyph-name="Imacron.aalt" horiz-adv-x="618"/><glyph d="M428 0h-31q-53 -63 -72.5 -104t-19.5 -82q0 -100 115 -115l-39 -141q-111 12 -179.5 69.5t-69.5 138.5t33 132t103 102h-78v1165h238v-1165z" glyph-name="Iogonek.aalt" horiz-adv-x="618"/><glyph d="M637 1165v-815q0 -381 -414 -381q-139 0 -211 31l39 205q59 -17 153 -17q198 -1 197 197v780h236z" glyph-name="J.aalt" horiz-adv-x="786"/><glyph d="M397 0h-245v1165h245v-508l420 508h301l-469 -530l504 -635h-305l-350 465l-101 -115v-350z" glyph-name="K.aalt" horiz-adv-x="1177"/><glyph d="M397 0h-245v1165h245v-508l420 508h301l-469 -530l504 -635h-305l-350 465l-101 -115v-350zM520 -109h201l-94 -329h-115z" glyph-name="Kcommaaccent.aalt" horiz-adv-x="1177"/><glyph d="M387 213h565v-213h-800v1165h235v-952z" glyph-name="L.aalt" horiz-adv-x="1013"/><glyph d="M379 1286h-156l137 275h291zM387 213h565v-213h-800v1165h235v-952z" glyph-name="Lacute.aalt" horiz-adv-x="1013"/><glyph d="M387 213h565v-213h-800v1165h235v-952zM735 836h-114l8 329h198z" glyph-name="Lcaron.aalt" horiz-adv-x="1009"/><glyph d="M387 213h565v-213h-800v1165h235v-952zM559 -438h-115l9 329h200z" glyph-name="Lcommaaccent.aalt" horiz-adv-x="1013"/><glyph d="M387 213h565v-213h-800v1165h235v-952zM668 827q61 0 104 -38.5t43 -112.5t-43 -113t-104 -39t-105.5 40t-44.5 112t44.5 111.5t105.5 39.5z" glyph-name="Ldot.aalt" horiz-adv-x="1013"/><glyph d="M1008 213v-213h-801v516l-154 -49v160l154 49v489h237v-413l168 55v-160l-168 -55v-379h564z" glyph-name="Lslash.aalt" horiz-adv-x="1064"/><glyph d="M1405 1165v-1165h-238v690l-319 -653h-133l-328 663v-700h-235v1165h221l413 -835l400 835h219z" glyph-name="M.aalt" horiz-adv-x="1554"/><glyph d="M1165 1165v-1165h-213l-565 762v-762h-235v1165h206l572 -784v784h235z" glyph-name="N.aalt" horiz-adv-x="1316"/><glyph d="M723 1286h-158l137 275h291zM1165 1165v-1165h-213l-565 762v-762h-235v1165h206l572 -784v784h235z" glyph-name="Nacute.aalt" horiz-adv-x="1316"/><glyph d="M573 1303l-233 258h203l104 -119l109 119h192l-221 -258h-154zM1165 1165v-1165h-213l-565 762v-762h-235v1165h206l572 -784v784h235z" glyph-name="Ncaron.aalt" horiz-adv-x="1316"/><glyph d="M1165 1165v-1165h-213l-565 762v-762h-235v1165h206l572 -784v784h235zM594 -109h199l-95 -329h-112z" glyph-name="Ncommaaccent.aalt" horiz-adv-x="1316"/><glyph d="M1165 1165v-1243q0 -375 -411 -375q-137 0 -209 31l37 205q60 -16 152 -16q196 0 196 188v76l-543 731v-762h-235v1165h206l572 -784v784h235z" glyph-name="Eng.aalt" horiz-adv-x="1310"/><glyph d="M549 1395q-70 0 -107 -90l-123 65q25 94 82.5 139t117.5 45t133 -38.5t98 -38.5q59 0 100 96l131 -62q-25 -90 -77 -142t-114 -52t-133 39t-108 39zM1165 1165v-1165h-213l-565 762v-762h-235v1165h206l572 -784v784h235z" glyph-name="Ntilde.aalt" horiz-adv-x="1316"/><glyph d="M684 1198q224 0 357 -108.5t185 -228.5t52 -273.5t-52 -274t-184.5 -229.5t-357.5 -109t-357 109t-184.5 229.5t-52.5 274t52.5 273.5t184.5 228.5t357 108.5zM686 973q-148 0 -245 -99.5t-97 -281.5t98.5 -287.5t243.5 -105.5t241.5 105.5t96.5 287.5t-95 281.5 t-243 99.5z" glyph-name="O.c2sc" horiz-adv-x="1368"/><glyph d="M752 1309h-158l137 272h291zM684 1198q224 0 357 -108.5t185 -228.5t52 -273.5t-52 -274t-184.5 -229.5t-357.5 -109t-357 109t-184.5 229.5t-52.5 274t52.5 273.5t184.5 228.5t357 108.5zM686 973q-148 0 -245 -99.5t-97 -281.5t98.5 -287.5t243.5 -105.5t241.5 105.5 t96.5 287.5t-95 281.5t-243 99.5z" glyph-name="Oacute.aalt" horiz-adv-x="1368"/><glyph d="M578 1325h-207l239 264h142l227 -264h-199l-102 113zM684 1198q224 0 357 -108.5t185 -228.5t52 -273.5t-52 -274t-184.5 -229.5t-357.5 -109t-357 109t-184.5 229.5t-52.5 274t52.5 273.5t184.5 228.5t357 108.5zM686 199q145 0 241.5 105.5t96.5 287.5t-95 281.5 t-243 99.5t-245 -99.5t-97 -281.5t98.5 -287.5t243.5 -105.5z" glyph-name="Ocircumflex.aalt" horiz-adv-x="1368"/><glyph d="M494 1585q53 0 86.5 -31.5t33.5 -93.5t-33.5 -93.5t-86.5 -31.5t-87 32t-34 93t34 93t87 32zM872 1585q53 0 86 -31.5t33 -93.5t-32.5 -93.5t-86.5 -31.5q-53 0 -87.5 32t-34.5 93t34.5 93t87.5 32zM684 1198q224 0 357 -108.5t185 -228.5t52 -273.5t-52 -274 t-184.5 -229.5t-357.5 -109t-357 109t-184.5 229.5t-52.5 274t52.5 273.5t184.5 228.5t357 108.5zM686 973q-148 0 -245 -99.5t-97 -281.5t98.5 -287.5t243.5 -105.5t241.5 105.5t96.5 287.5t-95 281.5t-243 99.5z" glyph-name="Odieresis.aalt" horiz-adv-x="1368"/><glyph d="M772 1309h-156l-274 272h293zM684 1198q224 0 357 -108.5t185 -228.5t52 -273.5t-52 -274t-184.5 -229.5t-357.5 -109t-357 109t-184.5 229.5t-52.5 274t52.5 273.5t184.5 228.5t357 108.5zM686 973q-148 0 -245 -99.5t-97 -281.5t98.5 -287.5t243.5 -105.5t241.5 105.5 t96.5 287.5t-95 281.5t-243 99.5z" glyph-name="Ograve.aalt" horiz-adv-x="1368"/><glyph d="M596 1323h-129l41 266h215zM858 1323h-131l133 266h221zM684 1198q224 0 357 -108.5t185 -228.5t52 -273.5t-52 -274t-184.5 -229.5t-357.5 -109t-357 109t-184.5 229.5t-52.5 274t52.5 273.5t184.5 228.5t357 108.5zM686 973q-148 0 -245 -99.5t-97 -281.5t98.5 -287.5 t243.5 -105.5t241.5 105.5t96.5 287.5t-95 281.5t-243 99.5z" glyph-name="Ohungarumlaut.aalt" horiz-adv-x="1368"/><glyph d="M944 1403h-516v129h516v-129zM684 1198q224 0 357 -108.5t185 -228.5t52 -273.5t-52 -274t-184.5 -229.5t-357.5 -109t-357 109t-184.5 229.5t-52.5 274t52.5 273.5t184.5 228.5t357 108.5zM686 973q-148 0 -245 -99.5t-97 -281.5t98.5 -287.5t243.5 -105.5t241.5 105.5 t96.5 287.5t-95 281.5t-243 99.5z" glyph-name="Omacron.aalt" horiz-adv-x="1368"/><glyph d="M1278 603q0 -324 -184.5 -476t-409.5 -152q-94 0 -184 27l-94 -203l-140 62l94 202q-123 76 -196.5 207.5t-73.5 301.5q0 322 184.5 474t409.5 152q100 0 195 -31l92 197l133 -53l-94 -203q123 -74 195.5 -205t72.5 -300zM344 582q0 -192 119 -299l319 678q-47 12 -98 12 q-145 0 -242.5 -99.5t-97.5 -291.5zM684 199q147 0 243.5 104.5t96.5 294.5t-115 293l-313 -680q43 -12 88 -12z" glyph-name="Oslash.aalt" horiz-adv-x="1359"/><glyph d="M820 1339q-62 0 -134 38t-108 38q-70 0 -107 -88l-123 66q25 94 82.5 139t117.5 45t133 -40t97 -40q60 0 101 98l131 -61q-25 -90 -76.5 -142.5t-113.5 -52.5zM684 1198q224 0 357 -108.5t185 -228.5t52 -273.5t-52 -274t-184.5 -229.5t-357.5 -109t-357 109 t-184.5 229.5t-52.5 274t52.5 273.5t184.5 228.5t357 108.5zM686 973q-148 0 -245 -99.5t-97 -281.5t98.5 -287.5t243.5 -105.5t241.5 105.5t96.5 287.5t-95 281.5t-243 99.5z" glyph-name="Otilde.aalt" horiz-adv-x="1368"/><glyph d="M1434 965h-471v-269h405v-204h-405v-289h471v-203h-744q-239 0 -369.5 100.5t-180.5 216t-50 268.5t50 268.5t181.5 215.5t370.5 96h742v-200zM725 965h-53q-154 2 -247 -96.5t-93 -281.5t95 -286.5t245 -103.5h53v768z" glyph-name="OE.aalt" horiz-adv-x="1531"/><glyph d="M152 1165h428q221 0 329.5 -106.5t108.5 -287.5t-119 -291.5t-324 -110.5h-188v-369h-235v1165zM387 965v-394h168q104 0 163.5 52.5t59.5 147.5t-58 144.5t-165 49.5h-168z" glyph-name="P.aalt" horiz-adv-x="1107"/><glyph d="M387 987h143q217 0 328 -106.5t111 -284.5t-118 -285.5t-312 -107.5h-154v-203h-233v1165h235v-178zM385 784v-381h127q104 0 160.5 51.5t56.5 141.5t-56.5 139t-160.5 49h-127z" glyph-name="Thorn.aalt" horiz-adv-x="1058"/><glyph d="M1278 562q0 -180 -89 -320t-237 -209l271 -137l-148 -193l-422 272q-224 13 -344.5 121.5t-169.5 226t-49 268.5t52.5 270.5t184.5 228t357 108.5q224 0 409 -151t185 -485zM344 592q0 -182 98.5 -287.5t243.5 -105.5t241.5 104.5t96.5 287.5t-95 282.5t-243 99.5 t-245 -99.5t-97 -281.5z" glyph-name="Q.aalt" horiz-adv-x="1359"/><glyph d="M397 389v-389h-245v1165h448q436 0 436 -372q0 -127 -54 -221.5t-155 -141.5l260 -430h-280l-213 389h-197zM397 592h191q96 0 147 50t51 140q0 182 -198 183h-191v-373z" glyph-name="R.aalt" horiz-adv-x="1142"/><glyph d="M612 1286h-155l135 275h293zM397 389v-389h-245v1165h448q436 0 436 -372q0 -127 -54 -221.5t-155 -141.5l260 -430h-280l-213 389h-197zM397 592h191q96 0 147 50t51 140q0 182 -198 183h-191v-373z" glyph-name="Racute.aalt" horiz-adv-x="1142"/><glyph d="M465 1303l-234 258h203l105 -119l106 119h195l-222 -258h-153zM397 389v-389h-245v1165h448q436 0 436 -372q0 -127 -54 -221.5t-155 -141.5l260 -430h-280l-213 389h-197zM397 592h191q96 0 147 50t51 140q0 182 -198 183h-191v-373z" glyph-name="Rcaron.aalt" horiz-adv-x="1142"/><glyph d="M397 389v-389h-245v1165h448q436 0 436 -372q0 -127 -54 -221.5t-155 -141.5l260 -430h-280l-213 389h-197zM397 592h191q96 0 147 50t51 140q0 182 -198 183h-191v-373zM496 -109h200l-94 -329h-115z" glyph-name="Rcommaaccent.aalt" horiz-adv-x="1142"/><glyph d="M518 1198q115 0 212 -32.5t159 -82.5l-94 -172q-125 92 -271 93q-80 0 -125 -36t-45 -92t21.5 -78t36 -32t44.5 -24q32 -16 112 -46q209 -78 281.5 -151.5t72.5 -200.5q0 -172 -119 -270.5t-326.5 -98.5t-374.5 109l70 188q147 -86 307 -86q98 0 150.5 39t52.5 103.5 t-53 96.5t-121 58.5t-82 32.5q-156 61 -231.5 135t-75.5 219.5t110.5 236.5t288.5 91z" glyph-name="S.aalt" horiz-adv-x="1017"/><glyph d="M586 1286h-158l137 275h291zM518 1198q115 0 212 -32.5t159 -82.5l-94 -172q-125 92 -271 93q-80 0 -125 -36t-45 -92t21.5 -78t36 -32t44.5 -24q32 -16 112 -46q209 -78 281.5 -151.5t72.5 -200.5q0 -172 -119 -270.5t-326.5 -98.5t-374.5 109l70 188q147 -86 307 -86 q98 0 150.5 39t52.5 103.5t-53 96.5t-121 58.5t-82 32.5q-156 61 -231.5 135t-75.5 219.5t110.5 236.5t288.5 91z" glyph-name="Sacute.aalt" horiz-adv-x="1017"/><glyph d="M436 1303l-233 258h203l104 -119l108 119h193l-221 -258h-154zM922 344q0 -172 -119 -270.5t-326.5 -98.5t-374.5 109l70 188q147 -86 307 -86q98 0 150.5 39t52.5 103.5t-53 96.5t-121 58.5t-82 32.5q-156 61 -231.5 135t-75.5 219.5t110.5 236.5t288.5 91 q115 0 212 -32.5t159 -82.5l-94 -172q-125 92 -271 93q-80 0 -125 -36t-45 -92t21.5 -78t36 -32t44.5 -24q32 -16 112 -46q209 -78 281.5 -151.5t72.5 -200.5z" glyph-name="Scaron.aalt" horiz-adv-x="1017"/><glyph d="M401 -346q148 26 148 91q0 30 -14.5 43t-34.5 13t-39 -10l-86 76l59 110q-193 14 -332 107l70 188q147 -86 307 -86q98 0 150.5 39t52.5 103.5t-53 96.5t-121 58.5t-82 32.5q-156 61 -231.5 135t-75.5 219.5t110.5 236.5t288.5 91q115 0 212 -32.5t159 -82.5l-94 -172 q-125 92 -271 93q-80 0 -125 -36t-45 -92t21.5 -78t36 -32t44.5 -24q32 -16 112 -46q209 -78 281.5 -151.5t72.5 -216t-98.5 -238.5t-266.5 -113l-39 -67q86 8 137.5 -36t51.5 -126t-73 -137t-188 -66z" glyph-name="Scedilla.c2sc" horiz-adv-x="1017"/><glyph d="M518 1198q115 0 212 -32.5t159 -82.5l-94 -172q-125 92 -271 93q-80 0 -125 -36t-45 -92t21.5 -78t36 -32t44.5 -24q32 -16 112 -46q209 -78 281.5 -151.5t72.5 -200.5q0 -172 -119 -270.5t-326.5 -98.5t-374.5 109l70 188q147 -86 307 -86q98 0 150.5 39t52.5 103.5 t-53 96.5t-121 58.5t-82 32.5q-156 61 -231.5 135t-75.5 219.5t110.5 236.5t288.5 91zM526 -438h-114l8 329h201z" glyph-name="Scommaaccent.aalt" horiz-adv-x="1017"/><glyph d="M1069 304q0 -140 -103.5 -234.5t-244.5 -94.5t-223 37l32 197q70 -29 141 -29t113.5 43t42.5 113q0 164 -264 168v127l176 188q0 70 -46 114t-125 44t-130 -52.5t-51 -150.5v-774h-235v803q0 190 121.5 288.5t301.5 98.5t289 -99.5t109 -279.5l-191 -201q133 -18 210 -92 t77 -214z" glyph-name="germandbls.aalt" horiz-adv-x="1159"/><glyph d="M1006 956h-357v-956h-235v956h-355v209h947v-209z" glyph-name="T.aalt" horiz-adv-x="1062"/><glyph d="M778 1378h-516v131h516v-131zM1006 956h-357v-956h-235v956h-355v209h947v-209z" glyph-name="Tbar.aalt" horiz-adv-x="1062"/><glyph d="M438 1300l-233 259h203l102 -119l108 119h195l-223 -259h-152zM1006 956h-357v-956h-235v956h-355v209h947v-209z" glyph-name="Tcaron.aalt" horiz-adv-x="1062"/><glyph d="M434 -346q146 26 146 91q0 56 -50 56q-20 0 -38 -10l-86 76l71 133h-63v956h-355v209h947v-209h-357v-956h-47l-51 -90q86 8 137 -36t51 -126t-72.5 -137t-189.5 -66z" glyph-name="Tcommaaccent.c2sc" horiz-adv-x="1062"/><glyph d="M1006 1165v-209h-357v-956h-235v956h-355v209h947zM451 -109h200l-94 -329h-113z" glyph-name="uni021A.aalt" horiz-adv-x="1062"/><glyph d="M1104 1165v-725q0 -231 -134 -349t-342 -118t-342 118t-134 349v725h235v-747q0 -100 62.5 -161.5t178.5 -61.5t177 61t61 162v747h238z" glyph-name="U.aalt" horiz-adv-x="1255"/><glyph d="M700 1286h-155l137 275h291zM1104 1165v-725q0 -231 -134 -349t-342 -118t-342 118t-134 349v725h235v-747q0 -100 62.5 -161.5t178.5 -61.5t177 61t61 162v747h238z" glyph-name="Uacute.aalt" horiz-adv-x="1255"/><glyph d="M528 1305h-206l237 262h143l228 -262h-199l-104 110zM1104 1165v-725q0 -231 -134 -349t-342 -118t-342 118t-134 349v725h235v-747q0 -100 62.5 -161.5t178.5 -61.5t177 61t61 162v747h238z" glyph-name="Ucircumflex.aalt" horiz-adv-x="1255"/><glyph d="M444 1563q53 0 87 -32t34 -93t-33.5 -93t-87.5 -32q-53 0 -86.5 31.5t-33.5 93.5q0 61 33.5 93t86.5 32zM821 1563q53 0 86 -32t33 -93t-33 -93t-86 -32t-87 31.5t-34 93.5t34 93.5t87 31.5zM1104 1165v-725q0 -231 -134 -349t-342 -118t-342 118t-134 349v725h235v-747 q0 -100 62.5 -161.5t178.5 -61.5t177 61t61 162v747h238z" glyph-name="Udieresis.aalt" horiz-adv-x="1255"/><glyph d="M723 1286h-156l-276 275h295zM1104 1165v-725q0 -231 -134 -349t-342 -118t-342 118t-134 349v725h235v-747q0 -100 62.5 -161.5t178.5 -61.5t177 61t61 162v747h238z" glyph-name="Ugrave.aalt" horiz-adv-x="1255"/><glyph d="M545 1300h-129l43 267h215zM809 1300h-133l135 267h219zM1104 1165v-725q0 -231 -134 -349t-342 -118t-342 118t-134 349v725h235v-747q0 -100 62.5 -161.5t178.5 -61.5t177 61t61 162v747h238z" glyph-name="Uhungarumlaut.aalt" horiz-adv-x="1255"/><glyph d="M895 1380h-518v129h518v-129zM1104 1165v-725q0 -231 -134 -349t-342 -118t-342 118t-134 349v725h235v-747q0 -100 62.5 -161.5t178.5 -61.5t177 61t61 162v747h238z" glyph-name="Umacron.aalt" horiz-adv-x="1255"/><glyph d="M1104 1165v-725q0 -166 -73 -274.5t-197 -155.5q-51 -63 -71 -104t-20 -82q0 -98 115 -113l-39 -141q-111 10 -179.5 68.5t-69.5 156.5t92 180l-35 -2q-207 0 -341 118t-134 349v725h235v-747q0 -100 62.5 -161.5t178.5 -61.5t177 61t61 162v747h238z" glyph-name="Uogonek.aalt" horiz-adv-x="1255"/><glyph d="M636 1604q75 0 123 -45.5t48 -118t-48 -116.5t-123 -44t-123 44t-48 116.5t48 118t123 45.5zM636 1516q-34 0 -53.5 -21.5t-19.5 -53.5t19.5 -52.5t53.5 -20.5t52.5 20.5t18.5 52.5t-18.5 53.5t-52.5 21.5zM1104 1165v-725q0 -231 -134 -349t-342 -118t-342 118t-134 349 v725h235v-747q0 -100 62.5 -161.5t178.5 -61.5t177 61t61 162v747h238z" glyph-name="Uring.aalt" horiz-adv-x="1255"/><glyph d="M1161 1165l-448 -1165h-252l-447 1165h269l313 -899l307 899h258z" glyph-name="V.aalt" horiz-adv-x="1175"/><glyph d="M1694 1165l-363 -1175h-196l-267 823l-268 -823h-194l-363 1175h256l223 -821l254 819h195l256 -811l227 813h240z" glyph-name="W.aalt" horiz-adv-x="1716"/><glyph d="M950 1282h-155l137 274h291zM1694 1165l-363 -1175h-196l-267 823l-268 -823h-194l-363 1175h256l223 -821l254 819h195l256 -811l227 813h240z" glyph-name="Wacute.aalt" horiz-adv-x="1716"/><glyph d="M778 1300h-207l238 265h143l228 -265h-199l-102 111zM1694 1165l-363 -1175h-196l-267 823l-268 -823h-194l-363 1175h256l223 -821l254 819h195l256 -811l227 813h240z" glyph-name="Wcircumflex.aalt" horiz-adv-x="1716"/><glyph d="M694 1309q-53 0 -87 31.5t-34 93.5q0 61 34 93t87 32t87 -32t34 -93t-34 -93t-87 -32zM1071 1309q-53 0 -87 31.5t-34 93.5q0 61 34 93t87 32t87 -32t34 -93t-34 -93t-87 -32zM1694 1165l-363 -1175h-196l-267 823l-268 -823h-194l-363 1175h256l223 -821l254 819h195 l256 -811l227 813h240z" glyph-name="Wdieresis.aalt" horiz-adv-x="1716"/><glyph d="M817 1282l-274 274h293l137 -274h-156zM1694 1165l-363 -1175h-196l-267 823l-268 -823h-194l-363 1175h256l223 -821l254 819h195l256 -811l227 813h240z" glyph-name="Wgrave.aalt" horiz-adv-x="1716"/><glyph d="M754 596l426 -596h-271l-282 420l-269 -420h-268l414 584l-416 581h272l267 -405l254 405h262z" glyph-name="X.aalt" horiz-adv-x="1234"/><glyph d="M680 0h-236v455l-419 710h260l282 -503l260 503h248l-395 -710v-455z" glyph-name="Y.aalt" horiz-adv-x="1099"/><glyph d="M631 1286h-158l137 275h293zM680 0h-236v455l-419 710h260l282 -503l260 503h248l-395 -710v-455z" glyph-name="Yacute.aalt" horiz-adv-x="1099"/><glyph d="M457 1305h-207l239 262h142l227 -262h-199l-102 110zM680 0h-236v455l-419 710h260l282 -503l260 503h248l-395 -710v-455z" glyph-name="Ycircumflex.aalt" horiz-adv-x="1099"/><glyph d="M373 1313q-53 0 -87 31.5t-34 93.5q0 61 33 93t87 32t88 -32t34 -93t-34 -93t-87 -32zM752 1313q-53 0 -88 31.5t-35 93.5q0 61 34.5 93t88.5 32q53 0 85.5 -32t32.5 -93t-32.5 -93t-85.5 -32zM680 0h-236v455l-419 710h260l282 -503l260 503h248l-395 -710v-455z" glyph-name="ydieresis.aalt" horiz-adv-x="1099"/><glyph d="M496 1286l-275 275h293l137 -275h-155zM680 0h-236v455l-419 710h260l282 -503l260 503h248l-395 -710v-455z" glyph-name="Ygrave.aalt" horiz-adv-x="1099"/><glyph d="M975 213v-213h-866v176l540 782h-522v207h821v-170l-561 -782h588z" glyph-name="Z.aalt" horiz-adv-x="1046"/><glyph d="M625 1303h-156l137 274h291zM975 213v-213h-866v176l540 782h-522v207h821v-170l-561 -782h588z" glyph-name="Zacute.aalt" horiz-adv-x="1046"/><glyph d="M477 1319l-233 258h202l105 -119l108 119h193l-221 -258h-154zM975 213v-213h-866v176l540 782h-522v207h821v-170l-561 -782h588z" glyph-name="Zcaron.aalt" horiz-adv-x="1046"/><glyph d="M562 1581q56 0 95 -34t39 -99q0 -66 -39 -98.5t-95 -32.5t-95 32.5t-39 98.5t39 99.5t95 33.5zM975 213v-213h-866v176l540 782h-522v207h821v-170l-561 -782h588z" glyph-name="Zdotaccent.aalt" horiz-adv-x="1046"/><glyph d="M693 1458q124 0 230.5 -46t191.5 -134t133 -233.5t48 -329.5t-48 -329.5t-133 -235t-192.5 -135.5t-230.5 -46t-230.5 46t-191.5 135.5t-133 234.5t-49 330q0 184 49 329.5t133 233.5t191.5 134t231.5 46zM692 1229q-162 0 -249 -134t-87 -380t88 -382t249 -136t249 136 t88 382t-88 380t-250 134z" glyph-name="zero.case" horiz-adv-x="1386"/><glyph d="M1069 233v-233h-876v233h311v914l-314 -135l-96 188l473 240h199v-1207h303z" glyph-name="one.case" horiz-adv-x="1204"/><glyph d="M599 1458q257 0 403.5 -112.5t146.5 -311.5q0 -157 -75 -253.5t-132 -152t-154 -136.5l-305 -261h709v-231h-1042v217l401 348q18 16 67.5 58.5t65.5 56.5t53 49t71 77.5t49 90t15 90.5q0 119 -82.5 178.5t-222.5 59.5q-190 0 -344 -107l-98 197q217 143 474 143z" glyph-name="two.case" horiz-adv-x="1320"/><glyph d="M578 1458q268 0 403 -97t135 -231q0 -259 -254 -354v-6q139 -25 227.5 -114t88.5 -218q0 -213 -166 -341t-420 -128q-154 0 -291 43t-233 121l114 195q166 -127 385 -127q160 0 249 67.5t89 171.5q0 207 -348 207h-182v203h168q139 0 222 51t83 139t-77 139.5t-208 51.5 q-186 0 -342 -117l-115 172q204 172 472 172z" glyph-name="three.case" horiz-adv-x="1267"/><glyph d="M1278 551v-205h-213v-346h-258l-2 346h-696v178l737 910h219v-883h213zM813 1096l-442 -545h440z" glyph-name="four.case" horiz-adv-x="1366"/><glyph d="M1116 1200h-667v-369q117 76 303 76t316 -112.5t130 -331.5t-156 -356.5t-436 -137.5t-440 133l96 201q150 -100 346 -100q145 0 234.5 71.5t89.5 192.5t-76 182.5t-216 61.5t-269 -107l-170 94v742h915v-240z" glyph-name="five.case" horiz-adv-x="1316"/><glyph d="M1081 1147q-145 86 -315 86t-287 -109t-125 -372q178 162 410 161q277 0 380 -149.5t103 -290.5q0 -215 -151.5 -356.5t-386.5 -141.5q-289 0 -451 180.5t-162 544.5q0 193 53.5 342.5t191 282.5t412.5 133t451 -121zM716 694q-213 0 -341 -155q10 -158 94 -249t217 -91 t212 72.5t79 186.5t-75.5 175t-185.5 61z" glyph-name="six.case" horiz-adv-x="1421"/><glyph d="M41 1200v236h1040v-209l-581 -1227h-279l578 1200h-758z" glyph-name="seven.case" horiz-adv-x="1169"/><glyph d="M641 1458q229 0 371.5 -103.5t142.5 -277.5q0 -111 -58.5 -194.5t-158.5 -120.5q113 -35 186.5 -129t73.5 -221q0 -199 -149.5 -321t-407.5 -122t-405.5 118t-147.5 312q0 127 75 227.5t189 139.5q-100 37 -162.5 120t-62.5 191q0 174 142.5 277.5t371.5 103.5zM642 1233 q-114 0 -180.5 -50t-66.5 -136t69.5 -136.5t177.5 -50.5t176.5 50.5t68.5 136.5t-65.5 136t-179.5 50zM642 662q-128 0 -209 -65t-81 -168t77 -167.5t213 -64.5t211 64.5t75 167.5t-79 168t-207 65z" glyph-name="eight.case" horiz-adv-x="1288"/><glyph d="M936 690q-168 -172 -392 -172q-206 0 -308.5 80t-143.5 171t-41 208q0 219 150.5 350t373.5 131q295 0 456 -173t161 -523q0 -209 -54.5 -365.5t-195 -289t-399.5 -132.5t-430 101l71 203q145 -80 330 -80t300.5 117.5t121.5 373.5zM595 1231q-128 0 -205 -67.5 t-77 -180.5t66.5 -178.5t180.5 -65.5t216.5 48.5t143.5 123.5q-8 156 -102.5 238t-222.5 82z" glyph-name="nine.case" horiz-adv-x="1280"/><glyph d="M610 1116q209 0 318.5 -106.5t152.5 -216t43 -245.5t-43 -249t-152.5 -222.5t-318.5 -109.5q-207 0 -320.5 109.5t-157.5 222.5t-44 249t44 245.5t157.5 216t320.5 106.5zM607 899q-118 0 -197.5 -94t-79.5 -260t79.5 -263.5t197.5 -97.5t198 98.5t80 263.5t-80 259 t-198 94z" glyph-name="zero.oldstyle" horiz-adv-x="1214"/><glyph d="M922 195v-203h-723v203h239v618l-245 -131l-99 176l408 217h182v-880h238z" glyph-name="one.oldstyle" horiz-adv-x="1056"/><glyph d="M532 1118q195 0 313 -93t118 -245q0 -100 -57.5 -186t-209.5 -211l-211 -178h500v-205h-829v156l309 264q145 125 196.5 186.5t51.5 135.5t-61.5 121.5t-157.5 47.5q-154 0 -271 -102l-112 156q183 153 421 153z" glyph-name="two.oldstyle" horiz-adv-x="1120"/><glyph d="M578 1098q268 0 403 -97.5t135 -231.5q0 -259 -254 -353v-6q139 -25 227.5 -114t88.5 -218q0 -213 -166 -341t-420 -128q-154 0 -291 43t-233 121l114 194q166 -127 385 -127q160 0 249 68t89 172q0 208 -348 207h-182v202h168q139 0 222 51.5t83 139.5t-77 139t-208 51 q-186 0 -342 -116l-115 172q204 172 472 172z" glyph-name="three.oldstyle" horiz-adv-x="1267"/><glyph d="M1278 190v-204h-213v-346h-258l-2 346h-696v178l737 909h219v-883h213zM813 735l-442 -545h440z" glyph-name="four.oldstyle" horiz-adv-x="1366"/><glyph d="M1116 836h-667v-369q117 76 303 76t316 -113t130 -332t-156 -356t-436 -137t-440 133l96 201q150 -100 346 -101q145 0 234.5 72t89.5 193t-76 182t-216 61t-269 -106l-170 94v739h915v-237z" glyph-name="five.oldstyle" horiz-adv-x="1316"/><glyph d="M1081 1147q-145 86 -315 86t-287 -109t-125 -372q178 162 410 161q277 0 380 -149.5t103 -290.5q0 -215 -151.5 -356.5t-386.5 -141.5q-289 0 -451 180.5t-162 544.5q0 193 53.5 342.5t191 282.5t412.5 133t451 -121zM716 694q-213 0 -341 -155q10 -158 94 -249t217 -91 t212 72.5t79 186.5t-75.5 175t-185.5 61z" glyph-name="six.oldstyle" horiz-adv-x="1335"/><glyph d="M41 836v235h1040v-209l-581 -1227h-279l578 1201h-758z" glyph-name="seven.oldstyle" horiz-adv-x="1169"/><glyph d="M641 1460q229 0 371.5 -104.5t142.5 -276.5q0 -113 -58.5 -195.5t-158.5 -119.5q113 -35 186.5 -130t73.5 -220q0 -201 -149.5 -322t-407.5 -121t-405.5 118t-147.5 312q0 127 75 226.5t189 138.5q-100 37 -162.5 121t-62.5 192q0 172 142.5 276.5t371.5 104.5zM642 1235 q-114 0 -180.5 -50t-66.5 -136t69.5 -136.5t177.5 -50.5t176.5 49.5t68.5 136.5t-65.5 137t-179.5 50zM642 664q-128 0 -209 -66t-81 -168t77 -166.5t213 -64.5t211 63.5t75 167.5t-79 169t-207 65z" glyph-name="eight.oldstyle" horiz-adv-x="1288"/><glyph d="M936 326q-168 -172 -392 -172q-205 0 -308 79.5t-144 171t-41 207.5q0 219 150.5 350.5t373.5 131.5q295 0 456 -173t161 -524q0 -209 -54.5 -365.5t-195.5 -288.5t-399 -132q-259 0 -430 100l71 203q145 -80 330 -80t300.5 118t121.5 374zM595 866q-128 0 -205 -68 t-77 -180t66.5 -177.5t180.5 -65.5t216.5 48t143.5 124q-8 156 -102.5 237.5t-222.5 81.5z" glyph-name="nine.oldstyle" horiz-adv-x="1267"/><glyph d="M423 528q165 0 267.5 -109.5t102.5 -319.5t-102.5 -321.5t-267.5 -111.5t-265.5 110.5t-100.5 321.5t100.5 320.5t265.5 109.5zM424 371q-84 0 -125 -65.5t-41 -207.5q0 -276 166 -276t166 276q0 143 -41 208t-125 65z" glyph-name="zero.sinf" horiz-adv-x="847"/><glyph d="M539 -160h176v-157h-541v157h176v471l-153 -59l-58 137l269 121h131v-670z" glyph-name="one.sinf" horiz-adv-x="847"/><glyph d="M398 528q156 0 239.5 -68.5t83.5 -180.5q0 -166 -213 -322l-146 -107h379v-167h-614v153l235 182q150 121 150 224q0 55 -37 83.5t-98 28.5q-100 0 -197 -67l-80 139q142 102 298 102z" glyph-name="two.sinf" horiz-adv-x="847"/><glyph d="M379 182q143 0 143 97q0 92 -133 92q-100 0 -203 -72l-77 125q127 104 290 104t244.5 -59t81.5 -154q0 -61 -37.5 -112t-109.5 -76q178 -43 178 -201q0 -119 -100 -192.5t-266 -73.5t-292 88l62 143q127 -63 227 -63q168 0 168 109q0 55 -38 79.5t-122 24.5h-110v141h94z " glyph-name="three.sinf" horiz-adv-x="847"/><glyph d="M641 16h127v-149h-127v-184h-178v184h-383v143l399 502h162v-496zM461 16v258l-201 -258h201z" glyph-name="four.sinf" horiz-adv-x="847"/><glyph d="M553 -42q-1 120 -149 120q-72 0 -130 -53l-122 51v434h542v-166h-358v-164q56 35 160 35t180 -70.5t76 -195.5t-97 -205t-257 -80t-277 76l53 137q111 -51 202 -51t134 37t43 95z" glyph-name="five.sinf" horiz-adv-x="847"/><glyph d="M492 528q135 0 237 -69l-63 -140q-74 49 -179 50q-197 0 -204 -246q82 76 203 76t197.5 -66.5t76.5 -189.5t-84 -203t-241 -80t-251 103t-94 325t111 331t291 109zM455 53q-50 0 -96 -23.5t-72 -60.5q6 -74 47 -115.5t104 -41.5t100 35.5t37 87.5t-35 85t-85 33z" glyph-name="six.sinf" horiz-adv-x="847"/><glyph d="M111 334v168l626 2v-152l-313 -669h-203l303 651h-413z" glyph-name="seven.sinf" horiz-adv-x="847"/><glyph d="M420 -340q-148 0 -244 71.5t-96 186.5q0 143 139 205q-113 57 -113 167t89.5 175t226.5 65t227 -64.5t90 -164.5q0 -123 -121 -180q145 -61 146 -203q0 -115 -98 -186.5t-246 -71.5zM424 383q-57 0 -94 -26.5t-37 -72.5t36 -73t94 -27t95 27t37 73t-37 72.5t-94 26.5z M423 -186q73 0 110.5 33.5t37.5 86.5t-40.5 87t-108.5 34t-110 -33.5t-42 -87.5q0 -53 40 -86.5t113 -33.5z" glyph-name="eight.sinf" horiz-adv-x="841"/><glyph d="M403 526q180 0 269.5 -108.5t89.5 -296.5q0 -240 -104.5 -350.5t-272.5 -110.5t-272 66l55 141q84 -47 182 -47t158.5 54t60.5 177q-96 -76 -211.5 -76t-192.5 74t-77 199t89 201.5t226 76.5zM412 360q-61 0 -98.5 -32.5t-37.5 -89t32 -87t85 -30.5t100.5 18.5t71.5 48.5 q-6 82 -49 127t-104 45z" glyph-name="nine.sinf" horiz-adv-x="847"/><glyph d="M423 1737q165 0 267.5 -109.5t102.5 -319.5t-102.5 -322t-267.5 -112t-265.5 112t-100.5 322t100.5 319.5t265.5 109.5zM424 1579q-84 0 -125 -64.5t-41 -207.5q0 -276 166 -276.5t166 276.5q0 143 -41 207.5t-125 64.5z" glyph-name="zero.superior" horiz-adv-x="847"/><glyph d="M539 1049h176v-158h-541v158h176v471l-153 -58l-58 135l269 121h131v-669z" glyph-name="one.superior" horiz-adv-x="847"/><glyph d="M398 1737q156 0 239.5 -69t83.5 -179q0 -166 -213 -324l-146 -106h379v-168h-614v153l235 185q150 119 150 223q0 53 -37 82t-98 29q-100 0 -197 -68l-80 141q142 101 298 101z" glyph-name="two.superior" horiz-adv-x="847"/><glyph d="M743 1135q0 -119 -98 -193t-266 -74t-291 90l59 142q127 -64 219 -64t135.5 30t43.5 82t-38 76.5t-122 24.5h-113v142h97q66 0 103.5 25.5t37.5 72.5q0 90 -131 90q-100 0 -203 -72l-78 125q125 104 288 104t245 -59t82 -151q0 -63 -37 -113.5t-109 -77.5 q176 -43 176 -200z" glyph-name="three.superior" horiz-adv-x="847"/><glyph d="M639 1225h127v-148h-127v-186h-178v186h-383v142l399 501h162v-495zM459 1225v260l-201 -260h201z" glyph-name="four.superior" horiz-adv-x="847"/><glyph d="M694 1552h-358v-163q56 35 160 35t180 -71t76 -195t-97 -204t-257 -80t-277 74l53 139q111 -53 202 -53t134 37t43 95t-38.5 90t-110.5 32t-130 -55l-122 51v434h542v-166z" glyph-name="five.superior" horiz-adv-x="847"/><glyph d="M492 1737q135 0 237 -70l-63 -139q-74 51 -179 51q-197 0 -204 -248q82 78 203 78t197.5 -67.5t76.5 -189.5t-84 -203t-241 -81t-251 103t-94 325t111 331.5t291 109.5zM455 1262q-50 0 -96 -24t-72 -58q6 -76 47 -117t104 -41t100 35t37 87t-35 85t-85 33z" glyph-name="six.superior" horiz-adv-x="847"/><glyph d="M111 1542v170h626v-151l-313 -670h-203l303 651h-413z" glyph-name="seven.superior" horiz-adv-x="847"/><glyph d="M420 868q-148 0 -244 72t-96 186q0 143 139 205q-113 57 -113 169t89.5 176.5t226.5 64.5t227 -65.5t90 -166.5q0 -123 -121 -178q145 -63 146 -205q0 -115 -98 -186.5t-246 -71.5zM424 1591q-57 0 -94 -26.5t-37 -72.5t36 -71.5t94 -25.5t95 25.5t37 71.5t-37 72.5 t-94 26.5zM423 1024q73 0 110.5 33t37.5 87t-40.5 87t-108.5 33t-110 -33t-42 -87t40 -87t113 -33z" glyph-name="eight.superior" horiz-adv-x="841"/><glyph d="M385 1735q180 0 269 -108.5t89 -295.5q0 -242 -104.5 -352.5t-272.5 -110.5t-272 66l56 141q84 -45 183 -45t158.5 54.5t61.5 175.5q-98 -76 -214 -76t-192.5 73.5t-76.5 198.5t89 202t226 77zM394 1569q-62 0 -99 -32t-37 -89t32 -88t85 -31t101 18.5t71 49.5 q-4 84 -47.5 128t-105.5 44z" glyph-name="nine.superior" horiz-adv-x="847"/><glyph d="M666.5 1464q117.5 0 220 -46t182.5 -134t126 -233.5t46 -331.5t-46 -332.5t-126 -236t-182.5 -135.5t-220 -46t-220 46t-183.5 135.5t-127 235.5t-46 333q0 186 46 331.5t127 233.5t183.5 134t220 46zM666 1237q-150 0 -230 -134t-80 -384t80 -386t230 -136t229.5 136 t79.5 385t-79.5 384t-229.5 135z" glyph-name="zero.tnum" horiz-adv-x="1331"/><glyph d="M1186 233v-233h-877v233h309v914l-311 -135l-96 188l473 240h197v-1207h305z" glyph-name="one.tnum" horiz-adv-x="1331"/><glyph d="M610 1458q258 0 403.5 -112.5t145.5 -311.5q0 -157 -74.5 -253.5t-131 -152t-152.5 -136.5l-305 -261h706v-231h-1042v217l401 348q93 75 158 137t99 104.5t49.5 91.5t15.5 89q0 119 -82 178.5t-221 59.5q-190 0 -347 -107l-96 197q215 143 473 143z" glyph-name="two.tnum" horiz-adv-x="1331"/><glyph d="M596 1458q268 0 403.5 -97t135.5 -231q0 -258 -254 -354v-6q139 -25 228 -114t89 -218q0 -213 -166 -341t-420 -128q-156 0 -293 43t-231 121l115 195q164 -127 383 -127q160 0 249 67.5t89 171.5q0 207 -346 207h-185v203h170q137 0 220 51t83 139t-76.5 139.5 t-207.5 51.5q-186 0 -342 -117l-115 172q203 172 471 172z" glyph-name="three.tnum" horiz-adv-x="1331"/><glyph d="M1257 551v-205h-213v-346h-258l-2 346h-696v178l737 910h219v-883h213zM795 1096l-445 -545h443z" glyph-name="four.tnum" horiz-adv-x="1331"/><glyph d="M1108 1200h-666v-369q118 76 304 76t316 -112.5t130 -331.5t-155.5 -356.5t-436.5 -137.5t-440 133l96 201q150 -100 346 -100q145 0 234.5 71.5t89.5 192.5t-76 182.5t-216 61.5t-269 -107l-170 94v742h913v-240z" glyph-name="five.tnum" horiz-adv-x="1331"/><glyph d="M1079 1147q-145 86 -315 86t-287 -109t-125 -372q178 162 410 161q277 0 380 -149.5t103 -290.5q0 -215 -151.5 -356.5t-386.5 -141.5q-289 0 -451 180.5t-162 544.5q0 193 53.5 342.5t191 282.5t412.5 133t451 -121zM716 694q-214 0 -343 -155q10 -158 94 -249t217 -91 t212 72.5t79 186.5t-75.5 175t-183.5 61z" glyph-name="six.tnum" horiz-adv-x="1331"/><glyph d="M135 1200v236h1065l4 -244l-594 -1192h-299l613 1200h-789z" glyph-name="seven.tnum" horiz-adv-x="1331"/><glyph d="M664 1458q229 0 371.5 -103.5t142.5 -277.5q0 -111 -58.5 -194.5t-158.5 -120.5q113 -35 186.5 -129t73.5 -221q0 -199 -149.5 -321t-407.5 -122t-405.5 118t-147.5 312q0 127 74.5 227.5t189.5 139.5q-100 37 -162.5 120t-62.5 191q0 174 142.5 277.5t371.5 103.5z M665 1233q-114 0 -180.5 -50t-66.5 -136t69.5 -136.5t177.5 -50.5t177 50.5t69 136.5t-66 136t-180 50zM665 662q-128 0 -209 -65t-81 -168t76.5 -167.5t212.5 -64.5t211 64.5t75 167.5t-78.5 168t-206.5 65z" glyph-name="eight.tnum" horiz-adv-x="1331"/><glyph d="M975 690q-171 -172 -393 -172q-205 0 -307.5 80t-143.5 171t-41 208q0 219 149.5 350t374.5 131q295 0 455 -173t160 -523q0 -209 -54.5 -365.5t-193.5 -289t-400 -132.5q-260 0 -431 101l71 203q145 -80 331 -80t301.5 117.5t121.5 373.5zM633 1231q-129 0 -206 -67.5 t-77 -180.5t66 -178.5t180 -65.5t218 48.5t142 123.5q-8 156 -101 238t-222 82z" glyph-name="nine.tnum" horiz-adv-x="1331"/><glyph d="M671 1116q112 0 212 -37t180 -105.5t127 -179t47 -247.5t-47 -250t-170 -221.5t-351 -108.5t-352 108.5t-172.5 221.5t-48.5 250t48.5 247.5t129 179t183 105.5t214.5 37zM667 895q-136 0 -227.5 -92t-91.5 -258t91 -262.5t227 -96.5t227.5 97.5t91.5 262.5t-91 257 t-227 92z" glyph-name="zero.tnum.oldstyle" horiz-adv-x="1331"/><glyph d="M1081 195v-203h-723v203h238v618l-246 -131l-98 176l407 217h185v-880h237z" glyph-name="one.tnum.oldstyle" horiz-adv-x="1331"/><glyph d="M637 1118q213 0 339 -95t126 -253q0 -106 -68.5 -197.5t-240.5 -210.5l-228 -151h563v-211h-901v199l361 233q132 97 181.5 145t64 81.5t14.5 74.5q0 78 -63.5 126t-178.5 48q-168 0 -297 -100l-110 166q109 72 204 108.5t234 36.5z" glyph-name="two.tnum.oldstyle" horiz-adv-x="1331"/><glyph d="M622 1098q270 0 403.5 -97.5t133.5 -231.5q0 -259 -254 -353v-6q139 -25 228.5 -114t89.5 -218q0 -213 -166 -341t-420 -128q-322 0 -524 164l114 194q164 -127 383 -127q160 0 249 68t89 172q0 208 -346 207h-182v202h168q137 0 220 51.5t83 139.5t-77 139t-208 51 q-186 0 -340 -116l-116 172q202 172 472 172z" glyph-name="three.tnum.oldstyle" horiz-adv-x="1331"/><glyph d="M1249 190v-204h-211v-346h-260l-2 346h-694v178l737 909h219v-883h211zM786 735l-442 -545h440z" glyph-name="four.tnum.oldstyle" horiz-adv-x="1331"/><glyph d="M1112 836h-668v-369q118 76 304 76t316 -113t130 -332t-155.5 -356t-436.5 -137t-440 133l96 201q150 -100 346 -101q145 0 234.5 72t89.5 193t-76 182t-216 61t-269 -106l-170 94v739h915v-237z" glyph-name="five.tnum.oldstyle" horiz-adv-x="1331"/><glyph d="M1075 1147q-145 86 -315 86t-287 -109t-125 -372q178 162 410 161q277 0 380 -149.5t103 -290.5q0 -215 -151.5 -356.5t-387.5 -141.5q-289 0 -450.5 180.5t-161.5 544.5q0 193 53.5 342.5t191 282.5t412.5 133t451 -121zM710 694q-212 0 -341 -155q10 -160 94 -250 t217 -90t212 72.5t79 186.5t-75.5 175t-185.5 61z" glyph-name="six.tnum.oldstyle" horiz-adv-x="1331"/><glyph d="M147 836v235h1039v-209l-580 -1227h-278l577 1201h-758z" glyph-name="seven.tnum.oldstyle" horiz-adv-x="1331"/><glyph d="M664 1460q229 0 371.5 -104.5t142.5 -276.5q0 -113 -58.5 -195.5t-158.5 -119.5q113 -35 186.5 -130t73.5 -220q0 -201 -149.5 -322t-407.5 -121t-405.5 118t-147.5 312q0 127 74.5 226.5t189.5 138.5q-100 37 -162.5 121t-62.5 192q0 172 142.5 276.5t371.5 104.5z M665 1235q-114 0 -180.5 -50t-66.5 -136t69.5 -136.5t177.5 -50.5t177 49.5t69 136.5t-66 137t-180 50zM665 664q-128 0 -209 -66t-81 -168t76.5 -166.5t212.5 -64.5t211 63.5t75 167.5t-78.5 169t-206.5 65z" glyph-name="eight.tnum.oldstyle" horiz-adv-x="1331"/><glyph d="M981 326q-171 -172 -393 -172q-204 0 -307 79.5t-144 171t-41 207.5q0 219 151 350.5t374 131.5q295 0 454.5 -173t159.5 -524q0 -209 -53.5 -365.5t-194.5 -288.5t-399 -132q-259 0 -430 100l71 203q145 -80 330 -80t300.5 118t121.5 374zM640 866q-128 0 -206 -68 t-78 -180t68 -177.5t180 -65.5t216 48t145 124q-10 156 -103.5 237.5t-221.5 81.5z" glyph-name="nine.tnum.oldstyle" horiz-adv-x="1331"/><glyph d="M423 834q165 0 267.5 -110t102.5 -320t-102.5 -321.5t-267.5 -111.5t-265.5 112.5t-100.5 322.5t100.5 319t265.5 109zM424 678q-84 0 -125 -65.5t-41 -209.5q0 -274 166 -274t166 274q0 143 -41 209t-125 66z" glyph-name="zero.dnom" horiz-adv-x="847"/><glyph d="M539 145h176v-155h-541v155h176v473l-153 -59l-58 137l269 121h131v-672z" glyph-name="one.dnom" horiz-adv-x="847"/><glyph d="M398 834q156 0 239.5 -69t83.5 -179q0 -166 -213 -324l-146 -106h379v-166h-614v151l235 185q150 119 150 223q0 53 -37 81.5t-98 28.5q-100 0 -197 -67l-80 141q142 101 298 101z" glyph-name="two.dnom" horiz-adv-x="847"/><glyph d="M545 244q0 104 -160 104h-113v139h97q66 0 103.5 26t37.5 73q0 90 -131 90q-100 0 -203 -72l-78 125q125 107 288 107t245 -59.5t82 -153.5q0 -63 -37 -113.5t-109 -77.5q176 -41 176 -201q0 -117 -98 -191.5t-266 -74.5t-291 90l59 142q127 -63 219 -63t135.5 29.5 t43.5 80.5z" glyph-name="three.dnom" horiz-adv-x="847"/><glyph d="M639 324h127v-148h-127v-184h-178v184h-383v141l399 502h162v-495zM459 324v260l-201 -260h201z" glyph-name="four.dnom" horiz-adv-x="847"/><glyph d="M694 649h-358v-162q56 33 160 33t180 -69.5t76 -194.5t-97 -205t-257 -80t-277 76l53 137q111 -53 202 -53t134 37t43 95t-38.5 90t-110.5 32t-130 -53l-122 49v436h542v-168z" glyph-name="five.dnom" horiz-adv-x="847"/><glyph d="M492 836q135 0 237 -70l-63 -141q-74 51 -179 51q-197 0 -204 -246q82 76 203 76t197.5 -67.5t76.5 -189.5t-84 -203t-241 -81t-251 103.5t-94 325.5t111 332t291 110zM455 360q-50 0 -96 -24.5t-72 -59.5q6 -76 47 -116.5t104 -40.5t100 34.5t37 86.5t-35 86t-85 34z " glyph-name="six.dnom" horiz-adv-x="847"/><glyph d="M111 641v168h626v-152l-313 -667h-203l303 651h-413z" glyph-name="seven.dnom" horiz-adv-x="847"/><glyph d="M420 -35q-148 0 -244 72t-96 188q0 143 139 203q-113 56 -113 168t89.5 177t226.5 65t227 -64.5t90 -177.5t-121 -168q145 -61 146 -203q0 -115 -98 -187.5t-246 -72.5zM424 688q-57 0 -94 -26.5t-37 -72.5t36 -71.5t94 -25.5t95 25.5t37 72.5t-37 72.5t-94 25.5z M423 121q73 0 110.5 32.5t37.5 86.5t-40.5 88t-108.5 34t-110 -33.5t-42 -87.5t40 -87t113 -33z" glyph-name="eight.dnom" horiz-adv-x="841"/><glyph d="M385 834q180 0 269 -110t89 -296q0 -240 -104.5 -351.5t-272.5 -111.5t-272 68l56 139q84 -45 183 -45t158.5 54.5t61.5 174.5q-98 -74 -214 -73.5t-192.5 73t-76.5 197.5t89 203t226 78zM394 668q-62 0 -99 -33t-37 -89.5t32 -88t85 -31.5t101 18.5t71 49.5 q-4 84 -47.5 129t-105.5 45z" glyph-name="nine.dnom" horiz-adv-x="847"/><glyph d="M425 1450q165 0 267.5 -109.5t102.5 -318.5t-102.5 -320.5t-267.5 -111.5t-265.5 110.5t-100.5 321.5t100.5 319.5t265.5 108.5zM426 1294q-84 0 -125 -65.5t-41 -206.5q0 -276 166 -276.5t166 276.5q0 141 -41 206.5t-125 65.5z" glyph-name="zero.numr" horiz-adv-x="847"/><glyph d="M539 764h176v-158h-541v158h176v471l-153 -59l-58 137l269 121h131v-670z" glyph-name="one.numr" horiz-adv-x="847"/><glyph d="M398 1450q156 0 239.5 -67.5t83.5 -180.5q0 -166 -213 -321l-146 -109h379v-166h-614v152l235 184q150 121 150 223q0 53 -37 83t-98 30q-100 0 -197 -68l-80 140q142 100 298 100z" glyph-name="two.numr" horiz-adv-x="847"/><glyph d="M743 850q0 -119 -98 -193.5t-266 -74.5t-291 90l59 143q127 -65 219 -65q178 1 179 110q0 55 -38 80t-122 25h-113v139h97q66 0 103.5 25.5t37.5 72.5q0 92 -131 92q-100 0 -203 -73l-78 125q125 106 288 106t245 -59.5t82 -153.5q0 -61 -37 -112t-109 -76 q176 -43 176 -201z" glyph-name="three.numr" horiz-adv-x="847"/><glyph d="M639 940h127v-149h-127v-185h-178v185h-383v143l399 500h162v-494zM459 940v258l-201 -258h201z" glyph-name="four.numr" horiz-adv-x="847"/><glyph d="M694 1268h-358v-164q56 35 160 35t180 -71.5t76 -195.5t-97 -204t-257 -80t-277 76l53 137q111 -51 202 -51t134 36t43 94t-38.5 89.5t-110.5 31.5t-130 -53l-122 51v435h542v-166z" glyph-name="five.numr" horiz-adv-x="847"/><glyph d="M492 1452q135 0 237 -70l-63 -139q-74 49 -179 49q-197 0 -204 -245q82 75 203 75t197.5 -66.5t76.5 -189.5t-84 -203.5t-241 -80.5t-251 103t-94 325t111 332t291 110zM455 977q-50 0 -96 -24.5t-72 -59.5q6 -74 47 -116t104 -42t100 35t37 88t-35 86t-85 33z" glyph-name="six.numr" horiz-adv-x="847"/><glyph d="M111 1257v168l626 2v-151l-313 -670h-203l303 651h-413z" glyph-name="seven.numr" horiz-adv-x="847"/><glyph d="M420 582q-148 0 -244 72.5t-96 187.5q0 143 139 205q-113 55 -113 167t89.5 176t226.5 64t227 -64.5t90 -164.5q0 -126 -121 -181q145 -61 146 -202q0 -115 -98 -187.5t-246 -72.5zM424 1307q-57 0 -94 -27t-37 -74t36 -72.5t94 -25.5t95 25.5t37 72.5t-37 74t-94 27z M423 737q73 0 110.5 34t37.5 87t-40.5 87t-108.5 34t-110 -34t-42 -87t40 -87t113 -34z" glyph-name="eight.numr" horiz-adv-x="841"/><glyph d="M385 1450q180 0 269 -109.5t89 -296.5q0 -240 -104.5 -351t-272.5 -111t-272 67l56 142q84 -47 183 -47t158.5 54t61.5 175q-98 -74 -214 -74t-192.5 72.5t-76.5 197.5t89 203t226 78zM394 1284q-62 0 -99 -32.5t-37 -89t32 -88.5t85 -32t101 19.5t71 50.5 q-4 82 -47.5 127t-105.5 45z" glyph-name="nine.numr" horiz-adv-x="847"/><glyph d="M630 1180q110 0 205 -36t169.5 -107.5t117.5 -188t43 -266.5t-43 -268.5t-156 -230.5t-335 -112q-225 0 -337 112t-155 230.5t-43 268.5t43 266.5t118 188t169 107.5t204 36zM632 971q-138 0 -213 -101.5t-75 -288.5t74 -291t212 -104t213 103t75 291t-74 289.5 t-212 101.5z" glyph-name="zero.sc" horiz-adv-x="1261"/><glyph d="M893 207v-207h-713v207h246v700l-240 -106l-84 168l377 198h170v-960h244z" glyph-name="one.sc" horiz-adv-x="1021"/><glyph d="M694 792q0 177 -252 177q-124 0 -233 -78l-96 168q172 129 380 129t324.5 -95.5t116.5 -256.5q0 -115 -61.5 -206t-208.5 -222l-224 -197h529v-211h-819v186l315 281q24 18 81.5 73.5t102.5 110t45 141.5z" glyph-name="two.sc" horiz-adv-x="1103"/><glyph d="M478 1186q224 0 323.5 -81t99.5 -200q0 -90 -51 -165.5t-141 -110.5v-8q109 -18 174 -94t65 -175q0 -170 -128 -272.5t-333 -102.5q-127 0 -238.5 37t-180.5 101l96 166q123 -94 295 -95q121 0 187.5 50t66.5 128t-60.5 115t-185.5 37h-162v172h137q106 0 167 39t61 107 t-54.5 106.5t-148.5 38.5q-150 0 -274 -88l-101 164q162 131 386 131z" glyph-name="three.sc" horiz-adv-x="1038"/><glyph d="M1040 453v-183h-166v-270h-221l-4 270h-538v156l577 735h186v-708h166zM659 864l-325 -411h323z" glyph-name="four.sc" horiz-adv-x="1128"/><glyph d="M932 950h-526v-274q88 61 236 61t250.5 -91t102.5 -268t-123.5 -289t-345.5 -112t-364 105l80 180q125 -76 255 -76t198.5 53.5t68.5 143.5t-57 136t-163 46t-210 -84l-146 80v606h744v-217z" glyph-name="five.sc" horiz-adv-x="1110"/><glyph d="M670 979q-135 0 -219 -85t-93 -273q138 123 306 123t279.5 -93.5t111.5 -265.5t-122 -290t-308 -118q-229 0 -359.5 147.5t-130.5 444.5q0 156 41 276t148.5 227.5t326.5 107.5t371 -101l-104 -170q-113 70 -248 70zM621 553q-147 0 -246 -119q10 -115 72.5 -183.5 t158.5 -68.5t154.5 54.5t58.5 138.5t-55 131t-143 47z" glyph-name="six.sc" horiz-adv-x="1191"/><glyph d="M45 950v213h823v-184l-444 -979h-240l441 950h-580z" glyph-name="seven.sc" horiz-adv-x="954"/><glyph d="M530 1180q182 0 298 -84t116 -226q0 -90 -46 -158.5t-124 -95.5q88 -35 145.5 -113.5t57.5 -178.5q0 -156 -121 -254.5t-325 -98.5t-322.5 98.5t-118.5 254.5q0 100 57.5 180t143.5 112q-74 31 -124 98.5t-50 155.5q0 141 115.5 225.5t297.5 84.5zM531.5 979 q-82.5 0 -133 -37.5t-50.5 -101.5t52.5 -102t129.5 -38q78 0 130.5 38t52.5 102t-49.5 101.5t-132 37.5zM531.5 526q-93.5 0 -155 -49t-61.5 -126t58.5 -127t157.5 -50t153.5 50t54.5 127t-57 126t-150.5 49z" glyph-name="eight.sc" horiz-adv-x="1067"/><glyph d="M745 549q-125 -137 -293 -137q-162 0 -246.5 64.5t-118.5 139t-34 170.5q0 182 120 291t298 109q238 0 367 -146.5t129 -443.5q0 -462 -212 -540.5t-321 -78.5q-178 0 -332 82l60 174q131 -57 268 -57t224 91t91 282zM486 981q-93 0 -151.5 -51t-58.5 -137t52.5 -133.5 t139.5 -47.5t159.5 34t103.5 89q-8 121 -80 183.5t-165 62.5z" glyph-name="nine.sc" horiz-adv-x="1050"/><glyph d="M322 1308q0 -272 184 -460l-127 -94q-242 202 -242 542t242 553l127 -94q-184 -175 -184 -447z" glyph-name="glyph602" horiz-adv-x="604"/><glyph d="M504 1295q0 -341 -242 -541l-127 94q184 190 184 460t-186 447l129 94q242 -213 242 -554z" glyph-name="glyph603" horiz-adv-x="604"/><glyph d="M825 1249h-538v187h538v-187z" glyph-name="glyph604" horiz-adv-x="1148"/><glyph d="M381 403h-180l-43 760h264zM290 268q56 0 96 -35.5t40 -103.5t-40 -104.5t-96 -36.5t-95 36.5t-39 104.5t39 103.5t95 35.5z" glyph-name="exclam.aalt" horiz-adv-x="579"/><glyph d="M288 862q-56 0 -96 36t-40 103q0 68 40 105t96 37t95 -37t39 -105t-39 -103.5t-95 -35.5zM197 725h180l43 -760h-266z" glyph-name="exclamdown.aalt" horiz-adv-x="575"/><glyph d="M354 638q0 -353 95.5 -522t187.5 -249l-90 -111q-261 208 -330.5 410t-69.5 475.5t133 445.5t267 271l88 -111q-281 -256 -281 -609z" glyph-name="parenleft.aalt" horiz-adv-x="765"/><glyph d="M604 560.5q0 -103.5 -17.5 -199t-40 -164t-64.5 -137t-71.5 -107.5t-91 -98t-114.5 -99l-88 111q92 84 157.5 199.5t95 237.5t29.5 325.5t-94 367.5t-188 250l90 111q148 -116 225.5 -221t108 -194t47 -184t16.5 -198.5z" glyph-name="parenright.aalt" horiz-adv-x="737"/><glyph d="M436 1188q192 0 289.5 -75t97.5 -208t-71.5 -199.5t-143 -126t-71.5 -130.5v-54h-205v47q0 93 51 152t102.5 108.5t69.5 84t18 71.5q0 119 -165 119q-117 0 -215 -68l-99 168q150 111 342 111zM431 266q56 0 96 -36.5t40 -105.5t-40 -104.5t-96 -35.5t-97 35.5t-41 104.5 t41 105.5t97 36.5z" glyph-name="question.aalt" horiz-adv-x="927"/><glyph d="M476 1135q58 0 99 -37t41 -106.5t-41 -105.5t-99 -36t-100 36t-42 105.5t42 106.5t100 37zM586 727v-53q0 -96 -59.5 -154.5t-119 -116.5t-59.5 -129q0 -41 35 -66.5t104 -25.5q125 0 211 80l117 -164q-82 -70 -164 -98.5t-192 -28.5q-174 0 -268.5 75t-94.5 193 t66.5 188.5t133 129.5t66.5 129v41h224z" glyph-name="questiondown.aalt" horiz-adv-x="937"/><glyph d="M129 457q0 182 94 295.5t256 140.5l-8 201h176l-12 -195q131 -14 223 -84l-76 -174q-84 63 -185 63t-162.5 -65t-61.5 -189t63.5 -194t169.5 -70t189 72l84 -156q-102 -96 -254 -112l12 -191h-174l10 199q-150 35 -247 155.5t-97 303.5z" glyph-name="cent.oldstyle" horiz-adv-x="1030"/><glyph d="M922 334q0 -137 -88.5 -231.5t-239.5 -120.5l8 -189h-194l8 184q-182 20 -314 107l70 188q147 -86 307 -86q98 0 150.5 39t52.5 103t-53 96.5t-121 59.5q-68 26 -82 32q-156 61 -231.5 135t-75.5 207t81 220t218 112l-6 199h188l-6 -195q178 -18 295 -111l-94 -172 q-125 92 -271 93q-80 0 -125 -36t-45 -92t21.5 -78t36 -32t45.5 -25t175.5 -69t217 -127.5t72.5 -210.5z" glyph-name="dollar.aalt" horiz-adv-x="1044"/><glyph d="M1028 1538q342 0 543 -185.5t201 -500.5q0 -240 -119 -392.5t-330 -152.5q-158 0 -231 105q-98 -86 -236 -86t-223.5 89t-85.5 279t126 304t335 114q145 0 292 -57l-55 -412q-10 -82 17.5 -122t76.5 -40q104 0 167 97.5t63 261.5q0 256 -146.5 390t-414.5 134 q-315 0 -512 -185.5t-197 -497.5t164 -460.5t438 -148.5q168 0 332 53l57 -168q-190 -68 -356 -68t-280.5 24t-219 82t-178.5 146t-118 225.5t-44 311.5q0 256 119 452.5t331 302t484 105.5zM889 496q98 0 160 82q0 18 4 38l41 312q-47 18 -119 18q-106 0 -166.5 -72 t-60.5 -178t40 -153t101 -47z" glyph-name="glyph613" horiz-adv-x="1865"/><glyph d="M911 934q0 -252 -117.5 -252t-117.5 252v74l-268 86l30 116l473 -151v-125zM1372 934q0 -252 -118.5 -252t-118.5 252v125l475 151l30 -116l-268 -86v-74zM1024 496q223 0 392 -119t210 -297h-127q-57 104 -186 171.5t-289 67.5t-289 -67.5t-186 -171.5h-127 q41 178 210 297t392 119z" glyph-name="u1F620.aalt"/><glyph d="M911 989q0 -256 -119.5 -256t-119.5 256v15l-240 -119l-31 114l510 254v-264zM1376 989q0 -256 -119.5 -256t-119.5 256v264l510 -254l-29 -114l-242 119v-15zM1025 678q275 0 439 -182.5t166 -470.5q-66 49 -242 78.5t-364 29.5q-369 0 -606 -108q2 289 167 471t440 182 zM1025 528q-165 0 -288 -77.5t-168 -231.5q187 53 455 53t455 -53q-43 154 -166 231.5t-288 77.5z" glyph-name="u1F627.aalt"/><glyph d="M918 1233l53 -150l-479 -174l-54 150zM1565 909l-480 174l54 150l479 -174zM1389 434q-74 0 -116 -56t-87 -113.5t-162 -57.5q-115 0 -160 57.5t-87 113.5t-115 56q-147 0 -207 -172l-111 33q27 102 98.5 198.5t212.5 96.5q115 -4 160 -56.5t69.5 -83t59.5 -51t80 -20.5 t80 22.5t59.5 54t70 85t159.5 49.5q182 0 240.5 -122t72.5 -173l-113 -33q-59 172 -204 172z" glyph-name="u1F616.aalt"/><glyph d="M653.5 1198q108.5 0 108.5 -229t-108.5 -229.5t-108.5 229.5q0 229 108.5 229zM1255 1059v-96q0 -164 -130 -164t-130 164v96h260zM592 102l-62 170q328 348 926 336l62 -170q-598 12 -926 -336z" glyph-name="u1F615.aalt"/><glyph d="M743 877q-98 0 -157.5 90t-67.5 260h125q15 -211 78 -211t85.5 51t31.5 160h125q-8 -170 -64.5 -260t-155.5 -90zM1319 475q-82 0 -138.5 55.5t-56.5 118.5t47.5 139.5t69.5 98.5q-143 55 -156 340h123q10 -109 33 -160t66 -51t65.5 51t30.5 160h125q-10 -260 -137 -330 q14 -20 40.5 -58t54 -76t27.5 -108t-56 -125t-138 -55zM1320 575q42 0 68.5 29t26.5 66t-40 96t-56 92q-14 -33 -54 -92t-40 -96t26.5 -66t68.5 -29zM1023 444q218 0 384 -105.5t207 -264.5h-156q-37 84 -157.5 138t-277.5 54t-277.5 -54t-157.5 -138h-154q39 160 205 265 t384 105z" glyph-name="u1F622.aalt"/><glyph d="M952 1100l-409 -219l-68 116l406 222zM1565 997l-68 -116l-410 219l72 119zM1911 660q0 -62 -54.5 -115t-133 -53t-133 53t-54.5 115t39 121t84 126t55 137h19q10 -70 55 -137t84 -126t39 -121zM1632 679q0 -36 25.5 -63.5t65.5 -27.5t66 26.5t26 63.5t-38.5 93t-52.5 89 q-16 -35 -54 -90t-38 -91zM1024 598q223 0 392 -119t210 -297h-127q-57 104 -186 172t-289 68t-289 -67.5t-186 -172.5h-127q41 178 210 297t392 119z" glyph-name="u1F625.aalt"/><glyph d="M866 973q0 -244 -114 -244t-113 242l-104 -60v170l391 207v-158l-60 -34v-123zM1295 729q-114 0 -113 244v123l-60 34v158l391 -207v-170l-104 60q0 -242 -114 -242zM1024 598q223 0 392 -119t210 -297h-127q-57 104 -186 172t-289 68t-289 -67.5t-186 -172.5h-127 q41 178 210 297t392 119z" glyph-name="u1F61E.aalt"/><glyph d="M915 907h-430v150h430v-150zM1565 907h-430v150h430v-150zM1561 340h-1074v147h1074v-147z" glyph-name="u1F611.aalt"/><glyph d="M730 1268q91 0 149.5 -103.5t62.5 -292.5h-123q-8 139 -29.5 204t-62.5 65t-61.5 -64.5t-28.5 -204.5h-123q4 188 64.5 292t151.5 104zM1322 1268q91 0 149.5 -103.5t64.5 -292.5h-125q-8 139 -28.5 204t-61.5 65t-62.5 -64.5t-29.5 -204.5h-123q6 188 65.5 292 t150.5 104zM1024 264q-205 0 -359.5 114t-191.5 284h139q35 -113 150 -188t262 -75t263 75t151 188h137q-20 -96 -84 -179q74 -162 64.5 -243.5t-87.5 -126.5q-51 -27 -129 -25.5t-202 186.5q-55 -10 -113 -10zM1415 203q37 20 39 61t-39 139q-76 -63 -172 -100 q59 -82 99 -103.5t73 3.5z" glyph-name="u1F60B.aalt"/><glyph d="M791 1008q0 -256 -120 -256t-120 256v75l-240 -118l-30 114l510 254v-325zM1255 1008q0 -256 -119.5 -256t-119.5 256v325l510 -254l-29 -114l-242 118v-75zM1767 605q0 -63 -54 -115t-133 -52t-133 52.5t-54 114.5t38.5 121.5t84 127t55.5 135.5h18q10 -68 55.5 -135.5 t84 -126.5t38.5 -122zM1489 622q0 -36 25.5 -61.5t65.5 -25.5t65.5 26.5t25.5 62.5t-38 92t-52 91q-14 -33 -53 -91t-39 -94zM1440 264h-1073v150h1073v-150z" glyph-name="u1F613.aalt"/><glyph d="M516 1171l25 115l428 -123l-25 -114zM1079 1163l426 123l25 -115l-426 -122zM1026 485q-86 0 -160 -12l-139 -952l-63 14l147 928q-51 -12 -92 -29l-211 -872l-66 10l211 829q-82 -49 -123 -120h-118q31 88 102.5 161.5t179.5 118.5l54 211l51 -8l-45 -182q39 12 77 20 l25 150l51 -9l-20 -131q153 19 282 -2l-20 133l51 9l25 -152q41 -8 78 -22l-46 184l52 10l55 -217q209 -92 270 -274h-118q-39 66 -111 112l209 -821l-64 -10l-211 866q-43 18 -92 33l146 -926l-64 -14l-139 950q-78 14 -164 14zM410 -328q-31 -8 -46.5 -13t-37 -24.5 t-26.5 -52.5t14.5 -57.5t52.5 -30.5t57 23l35 -17q2 -51 27.5 -80.5t89 -40t100.5 81.5l39 4q12 -35 46 -41t61.5 11.5t32.5 50.5t-8 57.5t-25.5 33.5t-39.5 28l9 47q158 -72 139 -176q-12 -66 -56.5 -96.5t-98.5 -23.5t-81 50q-20 -55 -63 -78.5t-93 -14.5t-82 45t-34 97 q-33 -31 -88 -21t-87 54.5t-20 112.5q16 98 191 118zM1628 -283q174 -16 193 -120q12 -68 -20 -111t-86 -53t-91 18q-2 -59 -32 -95t-82 -45t-95 14.5t-65 80.5q-18 -37 -76 -48t-102 19.5t-55 94.5t28 104.5t110 75.5l9 -47q-25 -16 -38.5 -26.5t-26.5 -36t-7 -58.5 t32.5 -50.5t59.5 -8.5q33 2 47 36l39 -2q18 -47 52 -65.5t72 -12t64.5 36t28.5 78.5l35 19q20 -25 57 -23q35 6 53.5 32t14.5 50t-9 35.5t-18 24.5t-42 24.5t-42 11.5z" glyph-name="u1F624.aalt"/><glyph d="M715 1225.5q123 -0.5 123 -261.5t-123 -261.5t-123 261.5t123 261.5zM1192 1225.5q123 -0.5 123 -261.5t-123 -261.5t-123 261.5t123 261.5zM1183.5 88q-112.5 0 -192.5 79t-80 191.5t80 192.5t192.5 80t191.5 -80t79 -192.5t-79 -191.5t-191.5 -79z" glyph-name="u1F62E.aalt"/><glyph d="M785.5 1225.5q121.5 -0.5 121.5 -261.5t-121.5 -261.5t-121.5 261.5t121.5 261.5zM1263.5 1225.5q122.5 -0.5 122.5 -261.5t-122.5 -261.5t-122.5 261.5t122.5 261.5zM1559 453h-226q-14 -242 -95 -360t-215 -118t-215 118t-93 360h-226v135h1070v-135zM1024 111 q78 0 118 77t56 265h-348q14 -188 55 -265t119 -77z" glyph-name="u1F61B.aalt"/><glyph d="M938 1042v-69l-332 -219l-51 143l217 107v10l-217 84l51 143zM1493 1098l-217 -84v-10l217 -107l-51 -143l-330 219v69l330 199zM1559 453h-226q-14 -242 -95 -360t-215 -118t-215 118t-93 360h-226v135h1070v-135zM1024 111q78 0 118 77t56 265h-348q14 -188 55 -265 t119 -77z" glyph-name="u1F61D.aalt"/><glyph d="M794 1188q81 0 128 -88t53 -252h-103q-14 227 -79.5 227t-79.5 -227h-103q6 164 54.5 252t129.5 88zM1254 1188q81 0 129.5 -88t54.5 -252h-103q-12 227 -78.5 227t-80.5 -227h-101q6 164 52 252t127 88zM1024 96q-240 0 -404.5 120t-230.5 325q-41 -25 -95 -18t-98 50 t-45 107.5t36 101.5t96 49.5t127.5 26.5t115.5 49l11 -12q-21 -28 -28 -48t-10 -27t-6.5 -20.5t-8.5 -28.5t-5 -19l-6 -52q229 -127 553 -127t549 127l-3 24q-3 24 -7 42t-5 23.5t-5.5 20.5t-8.5 22.5t-12 28.5t-23 34l11 12q49 -35 115.5 -49t126.5 -26.5t96 -50.5 t37 -100.5t-46 -111.5q-41 -39 -96 -46t-96 18q-63 -205 -229 -325t-406 -120zM1815.5 683.5q0.5 31.5 -21.5 52.5t-79.5 32.5t-86.5 22.5q10 -27 22 -85t34 -80t51.5 -23t56.5 24q23 25 23.5 56.5zM233 683q0 -31 25 -56t55.5 -24t55.5 24q18 20 29.5 77.5t23.5 86.5 q-29 -10 -87.5 -21.5t-76.5 -32.5q-25 -23 -25 -54zM700 504q-111 33 -215 92q53 -139 215 -213v121zM1350 383q162 74 217 213q-104 -59 -217 -92v-121zM164 545l10 -13q-35 -47 -49 -114.5t-26.5 -126.5t-48.5 -97t-100.5 -37t-112.5 48t-49 112.5t42 106.5q31 33 90.5 45 t128 26.5t115.5 49.5zM1874 532l12 13q47 -35 114.5 -49.5t126 -26.5t95.5 -50t38 -100.5t-46 -111.5q-49 -47 -115.5 -49t-102.5 36t-48.5 97t-25.5 126.5t-48 114.5zM1270 483q-98 -20 -203 -22v-139q109 4 203 30v131zM985 461q-106 2 -203 22v-131q94 -27 203 -30v139z M59 428q-31 -10 -88 -21t-79 -33t-22.5 -52.5t25.5 -56.5t56.5 -24.5t51.5 22.5t32.5 78.5t23.5 86.5zM1991 428q10 -29 22 -86t34 -79t52.5 -22.5t57.5 23.5q23 25 22.5 56.5t-21.5 53.5t-79.5 33t-87.5 21z" glyph-name="u1F602.aalt"/><glyph d="M677 1311q114 0 193.5 -80t79.5 -192.5t-79.5 -192.5t-193.5 -80t-194 80t-80 192.5t80 192.5t194 80zM1372.5 1311q112.5 0 193.5 -80t81 -192.5t-81 -192.5t-193.5 -80t-192.5 80t-80 192.5t80 192.5t192.5 80zM677 1212q-73 0 -124 -51t-51 -122.5t51 -123t124 -51.5 t123 51.5t50 123t-50 122.5t-123 51zM1372 1212q-72 0 -123 -51t-51 -122.5t51 -123t123 -51.5t123 51.5t51 123t-51 122.5t-123 51zM677 1106q28 0 47 -20.5t19 -48t-19 -47t-47 -19.5t-48.5 19.5t-20.5 47t20.5 48t48.5 20.5zM1373.5 1106q27.5 0 47 -20.5t19.5 -48 t-19.5 -47t-47 -19.5t-48 19.5t-20.5 47t20.5 48t48 20.5zM1025 737q232 0 376.5 -152.5t169.5 -414.5h-1092q25 262 169.5 414.5t376.5 152.5zM1024 594q-139 0 -244.5 -74t-130.5 -215h752q-25 141 -131.5 215t-245.5 74z" glyph-name="u1F628.aalt"/><glyph d="M469 1202l375 172l80 -123l-428 -176zM1124 1251l78 123l377 -172l-27 -127zM346.5 936q63.5 0 118.5 -31t88 -84h-416q35 53 90.5 84t119 31zM1701.5 936q63.5 0 119 -31t90.5 -84h-416q33 53 88 84t118.5 31zM590 695q0 -30 -6 -56h-475q-8 27 -8 57t8 58h475 q6 -29 6 -59zM1458 696q0 30 6 58h475q18 -64 0 -115h-475q-6 27 -6 57zM137 569h418q-31 -51 -78 -79.5t-131 -38.5q-84 10 -131 38.5t-78 79.5zM1493 569h418q-31 -51 -78 -79.5t-131 -38.5q-84 10 -131 38.5t-78 79.5zM1022 86q-148 0 -254 106.5t-106 256.5h718 q0 -150 -105 -256.5t-253 -106.5z" glyph-name="u1F633.aalt"/><glyph d="M784.5 1368q122.5 0 122.5 -261t-122.5 -261t-122.5 261t122.5 261zM1261.5 1368q122.5 0 122.5 -261t-122.5 -261t-122.5 261t122.5 261zM1023 709q232 0 376.5 -153t169.5 -415h-1092q25 262 169.5 415t376.5 153zM1023 565q-138 0 -244.5 -74.5t-131.5 -214.5h752 q-25 139 -131.5 214t-244.5 75z" glyph-name="u1F626.aalt"/><glyph d="M784.5 1225.5q122.5 -0.5 122.5 -261.5t-122.5 -261.5t-122.5 261.5t122.5 261.5zM1261.5 1225.5q122.5 -0.5 122.5 -261.5t-122.5 -261.5t-122.5 261.5t122.5 261.5zM299 756q266 -226 726 -226q218 0 406.5 57.5t315.5 172.5q-2 -330 -197.5 -538t-526.5 -208 t-526.5 207t-197.5 535zM442 551q57 -150 232 -229v131q-119 35 -232 98zM1608 551q-113 -61 -234 -98v-131q175 79 234 229zM1286 291v141q-102 -23 -217 -26v-150q117 4 217 35zM762 430v-141q102 -29 219 -33v150q-115 4 -219 24z" glyph-name="u1F600.aalt"/><glyph d="M729 1268q92 0 149.5 -103.5t63.5 -292.5h-125q-8 139 -28.5 204t-61.5 65t-61.5 -64.5t-28.5 -204.5h-125q6 188 65.5 292t151.5 104zM1321 1268q92 0 149.5 -103.5t63.5 -292.5h-125q-8 139 -28.5 204t-61.5 65t-61.5 -64.5t-28.5 -204.5h-125q6 188 65.5 292 t151.5 104zM299 756q266 -226 726 -226q218 0 406.5 57.5t315.5 172.5q-2 -330 -197.5 -538t-526.5 -208t-526.5 207t-197.5 535zM442 551q57 -150 232 -229v131q-119 35 -232 98zM1608 551q-113 -61 -234 -98v-131q175 79 234 229zM1286 291v141q-102 -23 -217 -26v-150 q117 4 217 35zM762 430v-141q102 -29 219 -33v150q-115 4 -219 24z" glyph-name="u1F601.aalt"/><glyph d="M786.5 1225.5q122.5 -0.5 122.5 -261.5t-122.5 -261.5t-122.5 261.5t122.5 261.5zM1263.5 1225.5q122.5 -0.5 122.5 -261.5t-122.5 -261.5t-122.5 261.5t122.5 261.5zM1561 340h-1074v147h1074v-147z" glyph-name="u1F610.aalt"/><glyph d="M727 1059q-75 0 -90 -266h-123q6 188 65.5 290.5t150.5 102.5t149.5 -102.5t64.5 -290.5h-125q-8 139 -29.5 202.5t-62.5 63.5zM1322 1186q91 0 149.5 -102.5t64.5 -290.5h-125q-8 139 -28.5 202.5t-61.5 63.5t-61.5 -63.5t-30.5 -202.5h-123q6 188 65.5 290.5 t150.5 102.5zM1561 340h-1074v147h1074v-147z" glyph-name="u1F614.aalt"/><glyph d="M938 1042v-69l-332 -219l-51 143l217 107v10l-217 84l51 143zM1493 1098l-215 -84v-10l215 -107l-51 -143l-330 219v69l330 199zM1024 598q223 0 392 -119t210 -297h-127q-57 104 -186 172t-289 68t-289 -67.5t-186 -172.5h-127q41 178 210 297t392 119z" glyph-name="u1F623.aalt"/><glyph d="M911 975q0 -252 -117.5 -252t-117.5 252v74l-268 86l30 116l473 -151v-125zM1372 975q0 -252 -118.5 -252t-118.5 252v125l475 151l30 -116l-268 -86v-74zM1023 594q241 0 398.5 -109.5t206.5 -279.5h-135q-51 104 -169 168.5t-301 64.5t-301 -64.5t-169 -168.5h-135 q49 170 206.5 279.5t398.5 109.5zM1023 303q91 0 149.5 -54t74.5 -147h-92q-29 92 -132 92.5t-132 -92.5h-92q16 92 74.5 146.5t149.5 54.5z" glyph-name="u1F621.aalt"/><glyph d="M726 766q-91 0 -148.5 102.5t-63.5 290.5h123q15 -266 90 -266q41 0 62.5 63.5t29.5 202.5h125q-6 -188 -66.5 -290.5t-151.5 -102.5zM1318 766q-91 0 -148.5 102.5t-63.5 290.5h123q10 -139 30.5 -202.5t61.5 -63.5t61.5 63.5t28.5 202.5h125q-6 -188 -66.5 -290.5 t-151.5 -102.5zM1024 119q-238 0 -419 136t-224 343h127q63 -139 202.5 -227t313.5 -88t314.5 88t201.5 227h127q-43 -207 -224 -343t-419 -136z" glyph-name="u1F60C.aalt"/><glyph d="M1023 2230q251 0 462 -65.5t330.5 -174t119.5 -231.5q0 -86 -64.5 -173t-178 -157.5t-289.5 -114.5t-381 -44t-381 44t-288.5 115.5t-176 157.5t-63.5 172q0 123 118.5 230.5t329.5 174t462 66.5zM1023 2103q-216 0 -395 -47t-279.5 -125t-100.5 -168q0 -121 215 -223 t559 -102t561 101t217 222q0 90 -101.5 168t-280.5 126t-395 48zM784.5 1225.5q122.5 -0.5 122.5 -261.5t-122.5 -261.5t-122.5 261.5t122.5 261.5zM1261.5 1225.5q122.5 -0.5 122.5 -261.5t-122.5 -261.5t-122.5 261.5t122.5 261.5zM1024 119q-238 0 -419 136t-224 343h127 q61 -139 201.5 -227t314.5 -88t313.5 88t202.5 227h127q-43 -207 -224 -343t-419 -136z" glyph-name="u1F607.aalt"/><glyph d="M268 2003l486 -352q-303 -43 -486 -209v561zM1780 2003v-561q-180 166 -486 209zM913 934q0 -252 -118.5 -252t-118.5 252v156l-268 86l30 116l475 -151v-207zM1372 934q0 -252 -117.5 -252t-117.5 252v207l473 151l30 -116l-268 -86v-156zM1024 119q-238 0 -419 136 t-224 343h127q63 -139 202.5 -227t313.5 -88t314.5 88t201.5 227h127q-43 -207 -224 -343t-419 -136z" glyph-name="u1F608.aalt"/><glyph d="M784.5 1307.5q122.5 -0.5 122.5 -261.5t-122.5 -261.5t-122.5 261.5t122.5 261.5zM1261.5 1307.5q122.5 -0.5 122.5 -261.5t-122.5 -261.5t-122.5 261.5t122.5 261.5zM1024 43q-307 0 -488.5 190.5t-183.5 495.5q246 -208 674 -210q201 -1 376 53.5t294 160.5 q-2 -307 -183.5 -498.5t-488.5 -191.5zM1025 172q194 0 341.5 95.5t198.5 273.5q-240 -135 -541 -138q-299 2 -539 138q51 -178 198.5 -273.5t341.5 -95.5z" glyph-name="u1F603.aalt"/><glyph d="M628 1268q91 0 148.5 -103.5t63.5 -292.5h-123q-10 139 -30.5 204t-61.5 65t-61.5 -64.5t-28.5 -204.5h-125q6 188 66.5 292t151.5 104zM1220 1268q91 0 148 -103.5t64 -292.5h-123q-15 269 -90 269q-41 0 -62.5 -64.5t-30.5 -204.5h-125q6 188 67 292t152 104zM1800 945 q0 -50 -43 -93t-105.5 -43t-105.5 43t-43 93t31 97.5t66.5 100.5t41.5 108h17q8 -55 44 -108t66.5 -100.5t30.5 -97.5zM1577 958q0 -28 20.5 -49.5t53 -21.5t53 21.5t20.5 50.5t-30.5 73.5t-42.5 71.5q-12 -27 -43 -72.5t-31 -73.5zM922 43q-307 0 -488.5 190.5 t-183.5 495.5q246 -208 674 -210q201 -1 375.5 53.5t293.5 160.5q-2 -307 -183 -498.5t-488 -191.5zM923 172q194 0 341 95.5t198 273.5q-240 -135 -540 -138q-299 2 -539 138q51 -178 198.5 -273.5t341.5 -95.5z" glyph-name="u1F605.aalt"/><glyph d="M730 1268q91 0 148.5 -103.5t63.5 -292.5h-123q-10 139 -30.5 204t-61.5 65t-61.5 -64.5t-28.5 -204.5h-125q6 188 66.5 292t151.5 104zM1322 1268q91 0 148.5 -103.5t63.5 -292.5h-123q-15 269 -90 269q-41 0 -62.5 -64.5t-29.5 -204.5h-125q6 188 66.5 292t151.5 104z M1024 43q-307 0 -488.5 190.5t-183.5 495.5q246 -208 674 -210q201 -1 376 53.5t294 160.5q-2 -307 -183.5 -498.5t-488.5 -191.5zM1025 172q194 0 341.5 95.5t198.5 273.5q-240 -135 -541 -138q-299 2 -539 138q51 -178 198.5 -273.5t341.5 -95.5z" glyph-name="u1F604.aalt"/><glyph d="M936 1090v-70l-330 -219l-51 143l215 105v12l-215 84l51 141zM1493 1145l-217 -84v-12l217 -105l-51 -143l-332 219v70l332 196zM1024 88q-307 0 -488.5 191.5t-183.5 496.5q123 -104 298 -157.5t376 -53.5t376 53.5t294 159.5q-2 -305 -183.5 -497.5t-488.5 -192.5z M1025 451q-300 0 -540 135q51 -178 198.5 -272.5t341.5 -94.5t341.5 94.5t198.5 272.5q-240 -135 -540 -135z" glyph-name="u1F606.aalt"/><glyph d="M727 1141q-75 0 -90 -269h-123q6 188 65.5 292t150.5 104t149.5 -103.5t64.5 -292.5h-125q-8 139 -29.5 204t-62.5 65zM1322 1268q91 0 149.5 -103.5t64.5 -292.5h-125q-8 139 -28.5 204t-61.5 65t-61.5 -64.5t-30.5 -204.5h-123q6 188 65.5 292t150.5 104zM1024 154 q-238 0 -419 136t-224 343h127q63 -139 202.5 -227.5t313.5 -88.5t314.5 88.5t201.5 227.5h127q-43 -207 -224 -343t-419 -136z" glyph-name="u1F60A.aalt"/><glyph d="M1468 727h-137q-82 0 -117.5 32t-62.5 99l-78 215h-82l-80 -215q-25 -68 -60.5 -99.5t-117.5 -31.5h-137q-100 0 -148.5 43t-74.5 139l-51 164h-179l70 144h1622l70 -144h-162l-51 -164q-29 -96 -77 -139t-147 -43zM1032.5 119q-237.5 0 -419 136t-224.5 343h127 q61 -139 201.5 -227t314.5 -88t313.5 88t202.5 227h127q-43 -207 -224 -343t-418.5 -136z" glyph-name="u1F60E.aalt"/><glyph d="M868 936h-430v147h430v-147zM1427 936h-430v147h430v-147zM934 145v160q184 0 327.5 113t186.5 287h162q-45 -240 -235.5 -400t-440.5 -160z" glyph-name="u1F60F.aalt"/><glyph d="M948 1157v-125q0 -262 -121.5 -262t-121.5 262h-302v125h545zM1645 1157v-125q0 -262 -122 -262t-122 262h-301v125h545zM1587 412h-1073v147h1073v-147z" glyph-name="u1F612.aalt"/><glyph d="M784.5 1278q122.5 0 122.5 -260t-122.5 -260t-122.5 260t122.5 260zM1261.5 1278q122.5 0 122.5 -260t-122.5 -260t-122.5 260t122.5 260zM639 172h-145q0 186 155.5 317.5t374.5 131.5t373.5 -131.5t154.5 -317.5h-145q0 119 -112.5 203t-271.5 84t-271.5 -84 t-112.5 -203z" glyph-name="uni2639.aalt"/><glyph d="M785.5 1276q121.5 0 121.5 -258t-121.5 -258t-121.5 258t121.5 258zM1483 1112l-187 -100l187 -125l-53 -129l-285 203v104l285 176zM1024 119q-238 0 -419 136t-224 343h127q63 -139 202.5 -227t313.5 -88t314.5 88t201.5 227h127q-43 -207 -224 -343t-419 -136z" glyph-name="u1F609.aalt"/><glyph d="M864 1028q0 -244 -112 -244q-113 0 -115 240l-105 -57v168l394 208v-159l-62 -33v-123zM1294 784q-113 0 -112 244v123l-60 33v159l391 -208v-168l-104 57q-2 -240 -115 -240zM1023 594q241 0 398.5 -109.5t206.5 -279.5h-135q-51 104 -169 168.5t-301 64.5t-301 -64.5 t-169 -168.5h-135q49 170 206.5 279.5t398.5 109.5zM1023 303q91 0 149.5 -54t74.5 -147h-92q-29 92 -132 92.5t-132 -92.5h-92q16 92 74.5 146.5t149.5 54.5z" glyph-name="u1F61F.aalt"/><glyph d="M492 -33q-158 0 -252.5 79t-94.5 206q0 88 49.5 156.5t157.5 146.5l19 12q-86 80 -124 142.5t-38 152.5q0 125 92.5 208t240.5 83t240 -73.5t92 -175.5t-46 -172t-136 -140l-37 -29l166 -149l125 241l176 -69l-157 -301l186 -166l-141 -133l-156 141q-141 -160 -362 -160 zM545 971q-57 0 -93 -33t-36 -78t27.5 -84t84.5 -96q82 61 113 103t31 86t-35 73t-92 29zM514 150q117 0 203 102l-213 194l-19 -14q-120 -93 -120 -168q0 -53 38.5 -83.5t110.5 -30.5z" glyph-name="ampersand.aalt" horiz-adv-x="1271"/><glyph d="M129 457q0 182 94 295.5t256 140.5l-8 201h176l-12 -195q131 -14 223 -84l-76 -174q-84 63 -185 63t-162.5 -65t-61.5 -189t63.5 -194t169.5 -70t189 72l84 -156q-102 -96 -254 -112l12 -191h-174l10 199q-150 35 -247 155.5t-97 303.5z" glyph-name="cent.sc" horiz-adv-x="1030"/><glyph d="M329 1149q126 0 205.5 -77t79.5 -212t-78.5 -211t-205.5 -76t-206 76t-79 211t79 212t205 77zM340 0h-145l806 1130h144zM215 860q1 -158 113 -158t112 119t-26.5 158t-85.5 39q-113 0 -113 -158zM1023 561q126 0 207 -76.5t81 -212.5t-80 -213t-207 -77t-206 76.5 t-79 213t79 213t205 76.5zM1133 270q0 160 -112 160t-112 -158t113 -157q59 0 85 39t26 116z" glyph-name="percent.aalt" horiz-adv-x="1339"/><glyph d="M327 1149q126 0 206.5 -77t80.5 -212t-79.5 -211t-206.5 -76t-206 76t-79 211t79 212t205 77zM338 0h-145l806 1130h144zM326 1018q-113 0 -113 -158t113 -158q61 0 86.5 40t25.5 119t-26.5 118t-85.5 39zM1021 561q126 0 207 -76.5t81 -212.5t-80 -213t-207 -77 t-206 76.5t-79 213t79 213t205 76.5zM1663 561q125 0 206 -76.5t81 -212.5t-80 -213t-207 -77t-206 76.5t-79 213t80 213t205 76.5zM1019 430q-112 0 -112 -158t113 -157q59 0 84.5 39t25.5 116q1 160 -111 160zM1774 270q0 160 -112 160t-112 -158t113 -157q59 0 85 39 t26 116z" glyph-name="perthousand.aalt" horiz-adv-x="1974"/><glyph d="M785.5 1276q121.5 0 121.5 -258t-121.5 -258t-121.5 258t121.5 258zM1483 1112l-187 -102l187 -121l-53 -131l-285 203v104l285 176zM1559 453h-226q-14 -242 -95 -360t-215 -118t-215 118t-93 360h-226v135h1070v-135zM1024 111q78 0 118 77t56 265h-348 q14 -188 55 -265t119 -77z" glyph-name="u1F61C.aalt"/><glyph d="M786.5 1225.5q122.5 -0.5 122.5 -261.5t-122.5 -261.5t-122.5 261.5t122.5 261.5zM1263.5 1225.5q122.5 -0.5 122.5 -261.5t-122.5 -261.5t-122.5 261.5t122.5 261.5zM1024 119q-238 0 -419 136t-224 343h127q63 -139 202.5 -227t313.5 -88t314.5 88t201.5 227h127 q-43 -207 -224 -343t-419 -136z" glyph-name="smileface.aalt"/></font>
</defs>
</svg>
