<?xml version="1.0" standalone="no"?>
<!DOCTYPE svg PUBLIC "-//W3C//DTD SVG 1.1//EN" "http://www.w3.org/Graphics/SVG/1.1/DTD/svg11.dtd">
<svg xmlns="http://www.w3.org/2000/svg"><metadata>This SVG WebFont was generated by YouWorkForThem.
Copyright  2012 by Rodrigo Saiani. All rights reserved.</metadata><defs><font horiz-adv-x="2048" id="ywftsvg"><font-face ascent="1540" bbox="-212.026 -825 2261 2230" cap-height="1434" descent="-508" font-family="" font-stretch="normal" font-weight="250" panose-1="0 0 3 0 0 0 0 0 0 0" underline-position="0" underline-thickness="0" unicode-range="U+0020-1F633" units-per-em="2048" x-height="1073"/><missing-glyph d="M999 0h-788v1434h788v-1434zM317 104h576v1227h-576v-1227z" horiz-adv-x="1210"/><glyph d="M1073 1458q-184 0 -184 -166v-219h280v-100h-280v-973h-119v973h-403v-973h-119v973h-166v100h166v211q0 147 77.5 214t211.5 67q82 0 147 -19l-22 -102q-49 14 -109 14q-186 0 -186 -166v-219h403v211q0 147 78 214t209 67q82 0 149 -19l-24 -102q-50 14 -109 14z" glyph-name="f_f.liga" horiz-adv-x="1206" unicode="ff"/><glyph d="M1397 1073v-1073h-115v973h-399v-973h-119v973h-397v-973h-119v973h-166v100h166v211q0 147 77.5 214t211.5 67q82 0 147 -19l-22 -102q-49 14 -109 14q-186 0 -186 -166v-219h397v187q0 305 330 305q94 0 152.5 -19.5t117.5 -60.5l-66 -88q-63 61 -200 61 q-215 0 -215 -192v-193h514z" glyph-name="f_f_i.liga" horiz-adv-x="1550" unicode="ffi"/><glyph d="M1175 1565q176 0 257 -92.5t81 -245.5l-118 -15q0 139 -54.5 192.5t-175.5 53.5t-170 -48t-49 -169v-168h281v-100h-281v-973h-119v973h-460v-973h-119v973h-166v100h166v211q0 147 77.5 214t211.5 67q82 0 147 -19l-22 -102q-49 14 -109 14q-186 0 -186 -166v-219h460 v156q0 188 86 262t262 74zM1513 0h-118v1212l118 15v-1227z" glyph-name="f_f_l.liga" horiz-adv-x="1697" unicode="ffl"/><glyph d="M999 0h-788v1434h788v-1434zM317 104h576v1227h-576v-1227z" glyph-name=".notdef" horiz-adv-x="1210"/><glyph glyph-name="glyph1" horiz-adv-x="0"/><glyph glyph-name="glyph2" horiz-adv-x="681"/><glyph glyph-name="space" horiz-adv-x="614" unicode=" "/><glyph d="M352 397h-104l-27 1039h166zM295 201q49 0 78.5 -31t29.5 -83t-29.5 -82t-79.5 -30t-80 30t-30 82t31 83t80 31z" glyph-name="exclam" horiz-adv-x="589" unicode="!"/><glyph d="M350 979h-96l-25 455h142zM623 979h-95l-24 455h139z" glyph-name="quotedbl" horiz-adv-x="874" unicode="&quot;"/><glyph d="M1282 520v-94h-340l-53 -426h-101l56 426h-357l-55 -426h-104l57 426h-303v94h315l54 412h-324v94h336l53 408h100l-53 -408h355l51 408h100l-51 -408h311v-94h-323l-52 -412h328zM907 932h-356l-51 -412h354z" glyph-name="numbersign" horiz-adv-x="1411" unicode="#"/><glyph d="M1065 371q0 -166 -118 -275.5t-329 -120.5l13 -200h-117l12 202q-236 16 -413 129l51 99q194 -115 396 -115t293 75t91 179t-58.5 165.5t-204 124t-190.5 80t-99 44t-115 69t-100.5 110t-39.5 159.5q0 154 111.5 254t312.5 108l-10 184h117l-11 -186q188 -14 369 -127 l-53 -94q-184 119 -383 119q-150 0 -240 -68.5t-90 -177.5t89 -182.5t345 -171.5q182 -78 253 -137.5t94.5 -115.5t23.5 -130z" glyph-name="dollar" horiz-adv-x="1155" unicode="$"/><glyph d="M376 1458q126 0 208 -83t82 -228t-82 -228t-208 -83t-211 82t-85 228t85 229t211 83zM342 0h-117l963 1434h119zM376 1364q-85 0 -135.5 -57.5t-50.5 -159.5t50.5 -160.5t136.5 -58.5t132 57t46 162q0 104 -47 160.5t-132 56.5zM1138 600q126 0 207.5 -83t81.5 -228.5 t-81.5 -229.5t-207.5 -84t-211 83t-85 230.5t85 229.5t211 82zM1138 508q-85 0 -135.5 -58.5t-50.5 -161t50.5 -160.5t135.5 -58t132 57t47 160.5t-47 162t-132 58.5z" glyph-name="percent" horiz-adv-x="1507" unicode="%"/><glyph d="M580 -25q-203 0 -308.5 91.5t-105.5 234.5q0 199 229 371l76 57q-192 165 -218 250.5t-26 142.5q0 150 99.5 243t276.5 93t276.5 -81t99.5 -212q0 -180 -205 -344l-121 -92l342 -328q33 68 62 154l67 193l111 -41l-80 -211q-37 -100 -74 -177l277 -266l-90 -88l-252 242 q-84 -123 -187.5 -177.5t-248.5 -54.5zM854 1163q0 189 -255 189q-118 0 -183.5 -60t-65.5 -154t40 -149t147 -149l36 -35l103 78q178 135 178 280zM565 84q225 0 365 205l-379 362l-100 -78q-162 -119 -162 -262q0 -102 70.5 -164.5t205.5 -62.5z" glyph-name="ampersand" horiz-adv-x="1478" unicode="&amp;"/><glyph d="M311 979h-96l-25 455h142z" glyph-name="quotesingle" horiz-adv-x="522" unicode="'"/><glyph d="M287 689q0 -124 27.5 -261t61.5 -221t106 -190.5t143 -163.5l-43 -62q-35 23 -69 50.5t-102.5 108.5t-117.5 176t-89 254t-40 340t38 336.5t88 251t130.5 189.5t159.5 135l43 -63q-2 -2 -27 -24.5t-40 -40t-46 -52.5t-52.5 -72t-49 -87t-47 -109.5t-38 -129t-27.5 -155.5 t-9 -210z" glyph-name="parenleft" horiz-adv-x="749" unicode="("/><glyph d="M586 719q0 -359 -120.5 -560.5t-190.5 -270t-83.5 -79t-23.5 -18.5l-45 62q46 39 111 129t110 182t81 242.5t36 312.5t-36 310.5t-81 239.5t-114 184.5t-105 115.5l45 63q96 -63 195 -198q221 -301 221 -715z" glyph-name="parenright" horiz-adv-x="751" unicode=")"/><glyph d="M465 1329l192 117l43 -68l-202 -116l200 -103l-41 -67l-192 114l12 -217h-90l6 217l-184 -114l-43 65l201 105l-203 110l45 74l184 -115l-6 215h90z" glyph-name="asterisk" horiz-adv-x="864" unicode="*"/><glyph d="M807 780h448v-116h-448v-471h-117v471h-446v116h446v471h117v-471z" glyph-name="plus" horiz-adv-x="1505" unicode="+"/><glyph d="M323 190q46 0 72.5 -31.5t26.5 -84.5q0 -168 -166 -293l-49 37q90 90 100 182q-33 4 -59.5 30.5t-26.5 68.5t28 66.5t74 24.5z" glyph-name="comma" horiz-adv-x="655" unicode=","/><glyph d="M745 541h-561v106h561v-106z" glyph-name="hyphen" horiz-adv-x="929" unicode="-"/><glyph d="M328 201q49 0 79.5 -30t30.5 -83t-30.5 -83t-79.5 -30t-80 30t-31 83t31 83t80 30z" glyph-name="period" horiz-adv-x="655" unicode="."/><glyph d="M162 -82h-121l561 1622h123z" glyph-name="slash" horiz-adv-x="718" unicode="/"/><glyph d="M646.5 1458q107.5 0 201.5 -44t170 -132t119 -235.5t43 -333.5t-43 -329.5t-119 -230.5t-170 -132.5t-201.5 -45.5t-202 45.5t-169 132.5t-118.5 230t-44 329t44 334t118.5 236t169 132t202 44zM646.5 1339q-187.5 0 -297 -163.5t-109.5 -460.5t110.5 -459t295.5 -162 t296 163t111 459t-109.5 459.5t-297 163.5z" glyph-name="zero" horiz-adv-x="1292" unicode="0"/><glyph d="M942 109v-109h-735v109h307v1187l-350 -172l-53 93l438 223h90v-1331h303z" glyph-name="one" horiz-adv-x="1110" unicode="1"/><glyph d="M604 1458q244 0 374 -116.5t130 -299.5t-110 -299t-201 -197t-107 -93l-379 -336h840v-117h-997v119l405 360q37 33 113 98.5t149.5 134t116.5 150t43 170.5q0 147 -99.5 226t-275.5 79q-225 0 -397 -133l-72 101q223 153 467 153z" glyph-name="two" horiz-adv-x="1298" unicode="2"/><glyph d="M602 1458q225 0 350 -96t125 -230t-74.5 -223.5t-195.5 -130.5v-6q143 -16 240.5 -113.5t97.5 -234.5q0 -197 -161.5 -323t-433.5 -126t-476 158l73 100q187 -139 407 -139t341 95t121 237t-114 209t-347 67h-135v123h127q172 0 287.5 68t115.5 188t-101 189t-287 69 t-365 -141l-74 90q200 170 479 170z" glyph-name="three" horiz-adv-x="1257" unicode="3"/><glyph d="M1004 514h229v-111h-229v-403h-121l-4 403h-752v101l766 930h111v-920zM276 514h603l4 733l-607 -731v-2z" glyph-name="four" horiz-adv-x="1347" unicode="4"/><glyph d="M1061 1321h-717v-522q135 94 331 94t302 -77t148 -161t42 -190q0 -223 -146.5 -356.5t-410.5 -133.5t-422 131l68 95q137 -105 344 -105t323.5 99.5t116.5 258.5t-104 240.5t-278 81.5t-336 -119l-99 64v719h838v-119z" glyph-name="five" horiz-adv-x="1302" unicode="5"/><glyph d="M740 1458q225 0 390 -112l-69 -101q-158 92 -350 92q-255 0 -370.5 -182t-115.5 -475q98 98 209 151.5t281 53.5t276.5 -76t150.5 -162t44 -194q0 -201 -147.5 -339.5t-360.5 -138.5q-573 0 -574 719q0 458 174.5 585.5t259 153t202.5 25.5zM698 766q-289 0 -458 -223 q8 -213 124 -331t300 -118t289.5 101.5t105.5 254.5t-106.5 234.5t-254.5 81.5z" glyph-name="six" horiz-adv-x="1236" unicode="6"/><glyph d="M68 1321v113h1013v-113l-675 -1321h-140l686 1321h-884z" glyph-name="seven" horiz-adv-x="1193" unicode="7"/><glyph d="M633 1458q213 0 339 -99t126 -253q0 -115 -63.5 -199t-178.5 -127q121 -25 206 -133t85 -250q0 -190 -133 -306t-384 -116t-384 116t-133 306q0 143 86 250t209 133q-113 41 -176.5 125t-63.5 201q0 154 126 253t339 99zM634 1346q-157 0 -249 -67t-92 -185t96 -184 t245 -66t244 65.5t95 184.5t-91 185.5t-248 66.5zM633 721q-174 0 -283.5 -87t-109.5 -228t101 -226.5t292 -85.5q190 0 288.5 85t98.5 227t-106.5 228.5t-280.5 86.5z" glyph-name="eight" horiz-adv-x="1259" unicode="8"/><glyph d="M563 1458q276 0 418.5 -169t142.5 -498q0 -442 -174 -629t-450 -187q-207 0 -394 109l64 102q154 -92 351 -92t341 158t144 508q-117 -100 -223.5 -143.5t-256.5 -43.5q-195 0 -322.5 119t-127.5 322t144 323.5t343 120.5zM203 1014q0 -148 88 -232t231 -84t280.5 56.5 t196.5 142.5q-4 113 -41.5 201t-128.5 164.5t-255 76.5t-267.5 -88.5t-103.5 -236.5z" glyph-name="nine" horiz-adv-x="1239" unicode="9"/><glyph d="M328 1098q49 0 79.5 -31t30.5 -83t-30.5 -82t-79.5 -30t-80 30t-31 82t31 83t80 31zM328 201q49 0 79.5 -31t30.5 -83t-30.5 -82t-79.5 -30t-80 30t-31 82t31 83t80 31z" glyph-name="colon" horiz-adv-x="655" unicode=":"/><glyph d="M328 1096q49 0 79.5 -31t30.5 -83t-30.5 -82t-79.5 -30t-80 30t-31 82t31 83t80 31zM323 190q46 0 72.5 -31.5t26.5 -84.5q0 -168 -166 -293l-49 37q90 90 100 182q-33 4 -59.5 30.5t-26.5 68.5t28 66.5t74 24.5z" glyph-name="semicolon" horiz-adv-x="655" unicode=";"/><glyph d="M881 1016l-686 -422l677 -424l-59 -98l-752 471v102l756 475z" glyph-name="less" horiz-adv-x="1024" unicode="&lt;"/><glyph d="M1176 784h-943v107h943v-107zM1176 371h-943v104h943v-104z" glyph-name="equal" horiz-adv-x="1421" unicode="="/><glyph d="M958 643v-100l-749 -469l-62 96l678 424l-682 422l62 106z" glyph-name="greater" horiz-adv-x="1019" unicode=">"/><glyph d="M492 1458q188 0 300.5 -96t112.5 -247t-101.5 -246t-201.5 -188t-100 -245h-115q0 177 99.5 273t198.5 183t99 210t-77.5 185.5t-210.5 62.5q-213 0 -357 -111l-63 84q70 57 179.5 96t236.5 39zM455 203q49 0 78.5 -31t29.5 -83t-29.5 -82t-78.5 -30t-80 30t-31 82t31 83 t80 31z" glyph-name="question" horiz-adv-x="1085" unicode="?"/><glyph d="M962 1298q224 0 374.5 -73.5t240.5 -224t90 -366.5t-107.5 -360.5t-272.5 -144.5t-220 113q-109 -113 -270 -113q-115 0 -196 84.5t-81 266.5t124 297.5t323 115.5q137 0 254 -49l-64 -424q-14 -94 21.5 -140.5t101.5 -46.5q121 0 194.5 109t73.5 303q0 268 -161.5 406.5 t-449.5 138.5t-438.5 -139.5t-205.5 -280.5t-55 -312q0 -338 172 -479t448 -141q68 0 176.5 15.5t179.5 37.5l31 -98q-80 -27 -186.5 -44t-177.5 -17q-768 0 -768 743q0 246 114.5 434.5t312.5 288.5t422 100zM944 788q-137 0 -219 -88t-82 -219t52.5 -189.5t138.5 -58.5 q125 0 206 109q-2 35 4 72l50 352q-55 22 -150 22z" glyph-name="at" horiz-adv-x="1779" unicode="@"/><glyph d="M1038 383h-688l-139 -383h-129l532 1434h166l533 -1434h-137zM997 494l-301 831l-305 -831h606z" glyph-name="A" horiz-adv-x="1392" unicode="A"/><glyph d="M1139 389q0 -199 -134.5 -294t-355.5 -95h-465v1434h412q217 0 332.5 -90.5t115.5 -251.5q0 -115 -65.5 -206t-149.5 -132q104 -17 176 -81.5t103 -133t31 -150.5zM305 784h266q162 0 256.5 77t94.5 208q0 258 -357 258h-260v-543zM305 106h328q193 0 289 74t96 203 q0 291 -375 291h-338v-568z" glyph-name="B" horiz-adv-x="1284" unicode="B"/><glyph d="M1184 1241q-168 109 -389.5 109t-370.5 -151q-74 -75 -116 -201t-42 -288q0 -329 154 -478.5t389.5 -146.5t404.5 144l70 -88q-197 -166 -479.5 -166t-463.5 169q-91 85 -143.5 229.5t-54.5 336t50.5 339t144.5 234.5q185 175 461 175t450 -127z" glyph-name="C" horiz-adv-x="1345" unicode="C"/><glyph d="M184 1434h394q285 0 428 -120t196 -259.5t53 -325.5t-53 -328.5t-196.5 -271.5t-427.5 -129h-394v1434zM305 1327v-1212h291q258 0 398.5 155.5t140.5 458.5t-138.5 450.5t-400.5 147.5h-291z" glyph-name="D" horiz-adv-x="1400" unicode="D"/><glyph d="M1065 1327h-760v-536h678v-111h-678v-565h760v-115h-881v1434h881v-107z" glyph-name="E" horiz-adv-x="1167" unicode="E"/><glyph d="M983 1325h-678v-565h594v-109h-594v-651h-121v1434h799v-109z" glyph-name="F" horiz-adv-x="1032" unicode="F"/><glyph d="M809.5 1458q157.5 0 271 -48t209.5 -130l-76 -84q-186 154 -425.5 154t-381 -161t-141.5 -464t143.5 -466t385.5 -163q137 0 243.5 51.5t163.5 120.5v398h-471v108h592v-553q-188 -244 -549 -244q-263 0 -442 179q-88 88 -138.5 235.5t-50.5 331.5t50.5 323.5 t137.5 228.5t204 136t274.5 47z" glyph-name="G" horiz-adv-x="1519" unicode="G"/><glyph d="M1262 0h-121v676h-836v-676h-121v1434h121v-650h836v650h121v-1434z" glyph-name="H" horiz-adv-x="1447" unicode="H"/><glyph d="M326 0h-121v1434h121v-1434z" glyph-name="I" horiz-adv-x="530" unicode="I"/><glyph d="M625 475v959h116v-990q0 -321 -158.5 -395t-286.5 -74t-190 13l13 112h1h6l73 -6q271 0 348.5 96.5t77.5 284.5z" glyph-name="J" horiz-adv-x="927" unicode="J"/><glyph d="M305 0h-121v1434h121v-742l690 742h150l-643 -678l692 -756h-164l-610 668l-115 -119v-549z" glyph-name="K" horiz-adv-x="1255" unicode="K"/><glyph d="M305 106h707v-106h-828v1434h121v-1328z" glyph-name="L" horiz-adv-x="1120" unicode="L"/><glyph d="M1468 0v1155h-10l-538 -1155h-66l-539 1159h-10v-1159h-121v1434h129l582 -1262l565 1262h129v-1434h-121z" glyph-name="M" horiz-adv-x="1773" unicode="M"/><glyph d="M1305 0h-107l-893 1221v-1221h-121v1434h109l891 -1219v1219h121v-1434z" glyph-name="N" horiz-adv-x="1488" unicode="N"/><glyph d="M815 1458q100 0 195.5 -26.5t181.5 -85t150.5 -142.5t103.5 -209t39 -293t-58.5 -315t-154.5 -234t-213 -132.5t-244 -45.5t-243.5 45.5t-214 132.5t-156 234.5t-58.5 315.5t39 292.5t103.5 208.5t151.5 142.5t182.5 85t195.5 26.5zM814 1350q-112 0 -209 -39t-174 -115 t-121 -197.5t-44 -274.5t44 -275.5t159 -243.5t339 -121t344 117.5t165 241.5t45 279t-44 276.5t-121 197.5t-174 115t-209 39z" glyph-name="O" horiz-adv-x="1628" unicode="O"/><glyph d="M184 1434h408q229 0 349 -110t120 -302t-122 -317t-345 -125h-289v-580h-121v1434zM305 1327v-639h273q172 0 264 88t92 248q0 303 -356 303h-273z" glyph-name="P" horiz-adv-x="1122" unicode="P"/><glyph d="M143 703q0 168 39 292.5t103.5 208.5t151.5 142.5t182.5 85t195.5 26.5t247.5 -41t285 -220t137.5 -472t-129 -473t-332 -244l418 -203l-58 -106l-532 276l6 2l-43 -2q-258 0 -406.5 132.5t-207 280t-58.5 315.5zM808 84q112 0 210 41t176 117.5t123 200.5t45 279 q0 311 -160.5 469.5t-387.5 158.5t-343.5 -115t-160.5 -236.5t-44 -274.5t44 -275.5t119 -201.5t171 -121t208 -42z" glyph-name="Q" horiz-adv-x="1628" unicode="Q"/><glyph d="M305 584v-584h-121v1434h465q367 0 453 -250q24 -68 24 -152q0 -156 -73.5 -272.5t-227.5 -157.5l367 -602h-137l-355 584h-395zM305 692h379q152 0 233.5 91t81.5 239t-86 226.5t-284 78.5h-324v-635z" glyph-name="R" horiz-adv-x="1296" unicode="R"/><glyph d="M586 1458q100 0 192 -22.5t139.5 -46t108.5 -60.5l-53 -94q-184 119 -383 119q-152 0 -241 -68.5t-89 -189.5q0 -84 56 -138q30 -30 56.5 -51.5t127 -71.5t194.5 -81q190 -80 280.5 -162t90.5 -217q0 -178 -128 -289t-355 -111q-121 0 -247 35t-222 96l51 99 q88 -53 198.5 -84t210.5 -31q188 0 279.5 75t91.5 189.5t-89 182t-277 139.5q-63 27 -98.5 41t-89.5 40.5t-84 48.5q-90 64 -129.5 133t-39.5 163q0 156 122 256t327 100z" glyph-name="S" horiz-adv-x="1155" unicode="S"/><glyph d="M1208 1325h-493v-1325h-121v1325h-492v109h1106v-109z" glyph-name="T" horiz-adv-x="1310" unicode="T"/><glyph d="M1243 1434v-918q0 -283 -156 -412t-373.5 -129t-329.5 93.5t-156 200t-44 247.5v918h121v-932q0 -193 107.5 -300.5t302.5 -107.5t301 107.5t106 300.5v932h121z" glyph-name="U" horiz-adv-x="1427" unicode="U"/><glyph d="M795 0h-168l-545 1434h131l504 -1338l487 1338h131z" glyph-name="V" horiz-adv-x="1419" unicode="V"/><glyph d="M1567 0h-150l-389 1260l-385 -1260h-149l-433 1434h129l379 -1289l394 1289h145l385 -1287l383 1287h127z" glyph-name="W" horiz-adv-x="2062" unicode="W"/><glyph d="M713 754l536 -754h-164l-452 651l-414 -651h-149l495 743l-473 691h166l385 -598l383 598h164z" glyph-name="X" horiz-adv-x="1386" unicode="X"/><glyph d="M694 0h-121v573l-503 861h145l422 -750l416 750h141l-500 -861v-573z" glyph-name="Y" horiz-adv-x="1331" unicode="Y"/><glyph d="M1200 109v-109h-1063v113l885 1212h-836v109h973v-103l-885 -1222h926z" glyph-name="Z" horiz-adv-x="1353" unicode="Z"/><glyph d="M446 1532h-163v-1657h163v-104h-282v1863h282v-102z" glyph-name="bracketleft" horiz-adv-x="571" unicode="["/><glyph d="M631 -82h-123l-488 1622h123z" glyph-name="backslash" horiz-adv-x="710" unicode="\"/><glyph d="M406 -229h-283v104h166v1657h-166v102h283v-1863z" glyph-name="bracketright" horiz-adv-x="571" unicode="]"/><glyph d="M1186 864h-135l-381 582h-11l-383 -582h-135l447 676h155z" glyph-name="asciicircum" horiz-adv-x="1419" unicode="^"/><glyph d="M1337 -106h-1183v88h1183v-88z" glyph-name="underscore" horiz-adv-x="1482" unicode="_"/><glyph d="M477 1208h-108l-232 226h182z" glyph-name="grave" horiz-adv-x="612" unicode="`"/><glyph d="M113 283q-1 303 453 303q118 0 268 -25v172q0 141 -71 199.5t-189 58.5t-194.5 -27.5t-150.5 -84.5l-59 79q170 140 385 140t306 -87t91 -288v-551q0 -90 70 -90q23 0 31 2l-17 -78q-16 -12 -66 -12t-82 28.5t-46 98.5q-117 -145 -346 -146q-176 0 -279.5 76t-103.5 232z M236 285q0 -109 74.5 -156t189.5 -47q234 0 334 166v203q-156 27 -287 26q-311 0 -311 -192z" glyph-name="a" horiz-adv-x="1124" unicode="a"/><glyph d="M303 934h4q66 78 159 121t198 43q203 0 327.5 -143.5t124.5 -407.5t-135 -418t-365 -154q-92 0 -177 37t-140 109h-6l-25 -121h-84v1540h119v-606zM655 991q-98 0 -183 -47t-169 -158v-536q102 -168 326 -168q160 0 262 129t102 339t-95.5 325.5t-242.5 115.5z" glyph-name="b" horiz-adv-x="1228" unicode="b"/><glyph d="M627 991q-174 0 -282.5 -117.5t-108.5 -331.5t113.5 -337t285.5 -123t323 121l68 -80q-158 -147 -390 -147.5t-377.5 149t-145.5 418.5q0 131 42 237q43 108 113 176q147 142 365.5 142t370.5 -131l-70 -84q-74 55 -139.5 81.5t-167.5 26.5z" glyph-name="c" horiz-adv-x="1097" unicode="c"/><glyph d="M1032 0h-82l-24 127h-6q-59 -63 -147.5 -107.5t-181.5 -44.5t-174 31t-150.5 94.5t-111.5 175.5t-42 254q0 283 139.5 425.5t342.5 142.5q202 0 318 -123v565h119v-1540zM596 991q-142 0 -220.5 -78.5t-109 -169.5t-30.5 -207q0 -227 108 -340.5t250 -113.5 q193 0 319 166v600q-137 143 -317 143z" glyph-name="d" horiz-adv-x="1218" unicode="d"/><glyph d="M1067 580q0 -57 -6 -105h-821q39 -393 387 -393q205 0 352 127l72 -76q-180 -158 -445 -158q-202 1 -342 135q-70 66 -110.5 174.5t-40.5 245.5q0 270 133 419t354 149q150 0 258 -76q208 -146 209 -442zM599 991q-161 0 -261.5 -109.5t-104.5 -299.5h725 q-8 182 -103 295.5t-256 113.5z" glyph-name="e" horiz-adv-x="1204" unicode="e"/><glyph d="M537 1565q82 0 147 -19l-22 -102q-49 14 -109 14q-186 0 -186 -166v-219h282v-100h-282v-973h-119v973h-166v100h166v211q0 147 78 214t211 67z" glyph-name="f" horiz-adv-x="686" unicode="f"/><glyph d="M1061 1073v-1042q0 -227 -123 -340t-345 -113t-390 129l59 92q141 -109 334 -108q152 0 249 72.5t97 224.5v178q-80 -78 -158.5 -107.5t-180 -29.5t-186.5 33.5t-153.5 97t-109.5 167t-41 233.5t47 236q48 106 122 170q154 132 343.5 132t320.5 -111h6l43 86h66zM629 991 q-158 0 -273.5 -111.5t-115.5 -317.5t106.5 -316.5t287 -110.5t308.5 162v563q-112 131 -313 131z" glyph-name="g" horiz-adv-x="1245" unicode="g"/><glyph d="M301 1540v-625q82 96 167 139.5t191 43.5q152 0 258.5 -92.5t106.5 -257.5v-748h-119v717q0 158 -82 216t-194 58q-186 0 -326 -217v-774h-119v1540h117z" glyph-name="h" horiz-adv-x="1210" unicode="h"/><glyph d="M244 1458q37 0 63.5 -24.5t26.5 -69.5t-26.5 -69.5t-63.5 -24.5t-63.5 24.5t-26.5 69.5t26.5 69.5t63.5 24.5zM301 0h-115v1073h115v-1073z" glyph-name="i" horiz-adv-x="487" unicode="i"/><glyph d="M261 1436q38 0 64.5 -23.5t26.5 -69t-26.5 -70t-64.5 -24.5t-63.5 23.5t-25.5 70t25.5 70t63.5 23.5zM324 1073v-1214q0 -145 -89.5 -213t-230.5 -68q-82 0 -135 19l20 102q39 -14 101 -14q109 0 162 50t53 169v1169h119z" glyph-name="j" horiz-adv-x="505" unicode="j"/><glyph d="M303 0h-119v1540h119v-1030l477 563h164l-407 -457l491 -616h-164l-407 524l-154 -172v-352z" glyph-name="k" horiz-adv-x="1058" unicode="k"/><glyph d="M303 0h-119v1540h119v-1540z" glyph-name="l" horiz-adv-x="487" unicode="l"/><glyph d="M1292 1098q158 0 246 -94.5t88 -278.5v-725h-119v725q0 266 -219 266q-98 0 -175 -54t-148 -163v-774h-119v733q0 137 -63.5 197.5t-160.5 60.5t-181.5 -61.5t-137.5 -155.5v-774h-119v1073h95l24 -158h4q70 94 141.5 138.5t183.5 44.5t184.5 -47t115.5 -154 q82 111 169 156t191 45z" glyph-name="m" horiz-adv-x="1812" unicode="m"/><glyph d="M694.5 1098q147.5 0 238.5 -89t91 -261v-748h-119v717q0 152 -60.5 213t-174.5 61q-227 0 -371 -221v-770h-115v1073h88l17 -168h4q80 94 167 143.5t234.5 49.5z" glyph-name="n" horiz-adv-x="1210" unicode="n"/><glyph d="M622.5 1098q102.5 0 191.5 -33t162 -99.5t115 -176t42 -253t-42 -253t-115 -176t-162 -99.5t-191.5 -33t-191.5 33t-161.5 99.5t-114.5 176t-42 253t42 253t114.5 176t161.5 99.5t191.5 33zM623 991q-176 0 -281.5 -120.5t-105.5 -333.5t105 -334t282 -121 q176 0 281.5 122t105.5 333t-105.5 332.5t-281.5 121.5z" glyph-name="o" horiz-adv-x="1245" unicode="o"/><glyph d="M655 1098q193 0 315 -135.5t122 -401.5q0 -129 -42 -240.5t-110 -186.5t-155 -117t-177 -42q-178 0 -305 82v-479h-119v1495h86l25 -168h6q70 94 153.5 143.5t200.5 49.5zM641 991q-199 0 -338 -243v-574q66 -51 126.5 -71.5t142.5 -20.5t148 31.5t122.5 89t91.5 149.5 t35 205q0 219 -95.5 326.5t-232.5 107.5z" glyph-name="p" horiz-adv-x="1204" unicode="p"/><glyph d="M1038 1073v-1495h-118v496q-133 -98 -316 -98t-293 100t-154 210.5t-44 250t44 250t158.5 211t298.5 100.5q185 0 314 -111h6l49 86h55zM624 989q-165 0 -276.5 -116.5t-111.5 -340.5q0 -119 36.5 -210t126 -164.5t201.5 -73.5t183 31.5t137 83.5v663q-131 127 -296 127z " glyph-name="q" horiz-adv-x="1224" unicode="q"/><glyph d="M561 1098q82 0 113 -23l-21 -108q-53 14 -108 14q-168 0 -246 -231v-750h-115v1073h90l23 -158h6q35 90 105.5 136.5t152.5 46.5z" glyph-name="r" horiz-adv-x="714" unicode="r"/><glyph d="M500 1098q102 0 194 -31t156 -80l-59 -90q-152 94 -279 94t-196.5 -51t-69.5 -131q0 -101 111 -155q65 -32 109 -44t74.5 -22t54 -18.5t65.5 -25t66 -30.5q136 -79 136 -220.5t-105.5 -230t-295.5 -88.5q-92 0 -189.5 32t-165.5 87l52 103q55 -51 138 -83t161 -32 q137 0 209.5 57.5t72.5 141t-64 121.5t-102 50.5t-75 24.5q-36 12 -88 31q-132 49 -194 97q-87 68 -87 201.5t105.5 212.5t265.5 79z" glyph-name="s" horiz-adv-x="960" unicode="s"/><glyph d="M369 190q0 -108 102 -108q51 0 131 37l37 -94q-90 -49 -185 -49.5t-149.5 50t-54.5 150.5v797h-189v100h189v176l65 99h54v-275h264v-100h-264v-783z" glyph-name="t" horiz-adv-x="727" unicode="t"/><glyph d="M1014 0h-92l-25 162h-6q-154 -186 -375 -187q-145 0 -238.5 91.5t-93.5 291.5v715h119v-688q0 -303 227 -303q111 0 193 55.5t172 151.5v784h119v-1073z" glyph-name="u" horiz-adv-x="1200" unicode="u"/><glyph d="M1006 1073l-431 -1073h-126l-412 1073h123l358 -946l365 946h123z" glyph-name="v" horiz-adv-x="1042" unicode="v"/><glyph d="M1536 1073l-373 -1073h-98l-295 877l-301 -877h-98l-334 1073h127l262 -907l305 907h92l293 -917l305 917h115z" glyph-name="w" horiz-adv-x="1572" unicode="w"/><glyph d="M51 1073h146l290 -428l287 428l146 -2l-365 -514l397 -557h-147l-316 471l-327 -471l-142 2l398 559l-367 508v4z" glyph-name="x" horiz-adv-x="974" unicode="x"/><glyph d="M256 -422q-82 0 -139 21l22 94q45 -17 115 -17t137.5 61.5t106.5 166.5l24 65l-461 1104h127l387 -971h9l352 971h119l-424 -1139q-131 -356 -375 -356z" glyph-name="y" horiz-adv-x="1116" unicode="y"/><glyph d="M874 104v-104h-792v96l631 869h-609v108h752v-106l-643 -863h661z" glyph-name="z" horiz-adv-x="956" unicode="z"/><glyph d="M676 1593v-80q-94 -12 -148.5 -78.5t-54.5 -174.5v-293q0 -90 -59.5 -157t-118.5 -75v-8q57 -8 117.5 -77.5t60.5 -155.5v-295q0 -104 54.5 -174t148.5 -82v-76q-156 0 -246 93t-90 245v252q0 104 -51 162.5t-135 66.5v88q80 14 133 72.5t53 154.5v252q0 150 91 245 t245 95z" glyph-name="braceleft" horiz-adv-x="796" unicode="{"/><glyph d="M279 -143h-95v1853h95v-1853z" glyph-name="bar" horiz-adv-x="462" unicode="|"/><glyph d="M121 1593q154 0 245 -95t91 -245v-252q0 -96 53 -154.5t133 -72.5v-88q-84 -8 -135 -66.5t-51 -162.5v-252q0 -152 -90.5 -245t-245.5 -93v76q94 12 148.5 81.5t54.5 174.5v295q0 86 60 155.5t116 77.5v8q-57 8 -116.5 75t-59.5 157v293q0 109 -54.5 175t-148.5 78v80z " glyph-name="braceright" horiz-adv-x="796" unicode="}"/><glyph d="M861 561q-83 0 -243.5 43t-242.5 43t-129 -94h-103q31 100 94.5 158.5t141.5 58.5t242.5 -44t226.5 -44q98 0 143 96h123q-33 -113 -101.5 -165t-151.5 -52z" glyph-name="asciitilde" horiz-adv-x="1306" unicode="~"/><glyph d="M294 1071q50 0 79.5 -29.5t29.5 -82t-29.5 -83t-78.5 -30.5t-80 30.5t-31 83t30 82t80 29.5zM379 -389h-182l39 1038h104z" glyph-name="exclamdown" horiz-adv-x="589" unicode="¡"/><glyph d="M113 724q0 243 126 388t316 170l-2 217h119l-4 -215q199 -12 336 -129l-70 -84q-74 55 -139.5 82t-167.5 27q-174 0 -282.5 -118t-108.5 -332t113 -337t285 -123t324 121l68 -80q-135 -127 -338 -145l4 -195h-119l5 195q-207 18 -336 166.5t-129 391.5z" glyph-name="cent" horiz-adv-x="1097" unicode="¢"/><glyph d="M894 94q84 0 173 19l27 -117q-180 -38 -337 -17t-267 21t-201 -25l-47 119q150 66 149 258v330h-135v113h135v309q0 176 98.5 265t247.5 89q225 0 381 -123l-67 -100q-84 57 -149.5 81.5t-153.5 24.5q-223 0 -224 -254v-292h461v-113h-461v-317q0 -100 -30.5 -157.5 t-87.5 -103.5q76 20 142 20t164 -15t182 -15z" glyph-name="sterling" horiz-adv-x="1359" unicode="£"/><glyph d="M1073 683q0 -165 -86 -275l150 -148l-82 -86l-154 152q-115 -76 -275 -76t-276 78l-151 -154l-86 84l151 148q-92 114 -92 280t88 279l-145 147l84 86l151 -154q115 76 275 76t274 -78l154 152l84 -82l-152 -149q88 -115 88 -280zM623 365q131 0 220 86t89 235 q0 150 -89 235t-220 85t-220.5 -85t-89.5 -235t89.5 -235.5t220.5 -85.5z" glyph-name="currency" horiz-adv-x="1249" unicode="¤"/><glyph d="M1149 729v-119h-414v-139h414v-119h-414v-352h-121v352h-415v119h415v137l-2 2h-413v119h342l-430 705h157l408 -695l418 695h141l-428 -705h342z" glyph-name="yen" horiz-adv-x="1341" unicode="¥"/><glyph d="M279 942h-95v776h95v-776zM279 -152h-95v766h95v-766z" glyph-name="brokenbar" horiz-adv-x="462" unicode="¦"/><glyph d="M509 1458q163 0 279 -57l-32 -82q-100 41 -230 41t-193 -45t-63 -119q0 -107 92 -142t169 -54t144 -42.5t117 -77.5t50 -151q0 -178 -219 -256q106 -33 158.5 -87t52.5 -142q0 -125 -97.5 -200t-271.5 -75t-311 68l36 88q106 -59 254 -59t209.5 46t61.5 124t-48 112 t-109.5 50t-167 39t-171 92t-65.5 171t55 168t156 90q-92 31 -147.5 93.5t-55.5 144.5q0 125 92 193.5t255 68.5zM496.5 899q-105.5 0 -167 -50t-61.5 -136t61.5 -134.5t167 -48.5t168 48.5t62.5 134.5t-62.5 136t-168 50z" glyph-name="section" horiz-adv-x="1003" unicode="§"/><glyph d="M142 1438q40 0 64.5 -23.5t24.5 -66.5t-24.5 -67t-64.5 -24t-63.5 24t-23.5 66t23.5 66.5t63.5 24.5zM470 1438q40 0 63.5 -24.5t23.5 -66.5t-22.5 -66t-63.5 -24t-64.5 24t-23.5 67t23.5 66.5t63.5 23.5z" glyph-name="dieresis" horiz-adv-x="612" unicode="¨"/><glyph d="M852 1462q147 0 281.5 -52t235.5 -146.5t160.5 -235.5t59.5 -309t-59.5 -309.5t-160.5 -235.5t-235.5 -147.5t-281.5 -53.5t-281.5 53.5t-236 147.5t-161.5 235.5t-60 309.5t60 309t161.5 235.5t236 146.5t281.5 52zM852 1364q-174 0 -317.5 -77t-231.5 -225t-88 -342 t88 -343.5t232.5 -227t317.5 -77.5t316.5 77.5t230.5 227t87 343.5t-87 342t-230.5 225t-317.5 77zM852 1110q156 0 256 -90l-49 -82q-39 29 -77.5 51.5t-145.5 22.5t-177.5 -74t-70.5 -208t77.5 -210t198.5 -76t215 80l49 -82q-104 -96 -269 -96t-269.5 96.5t-104.5 285.5 t105.5 285.5t261.5 96.5z" glyph-name="copyright" horiz-adv-x="1701" unicode="©"/><glyph d="M625 809q-70 0 -90 55q-73 -59 -175 -59t-160.5 52t-58.5 138t62.5 134.5t156.5 48.5t172 -11v54q0 154 -143 153q-80 0 -178 -43l-35 62q88 61 217 61q227 0 228 -219v-311q0 -49 45 -50h16l-8 -59q-27 -6 -49 -6zM231 1020q0 -76 33 -104.5t86 -28.5q102 0 178 63v135 q-51 10 -153 11q-144 0 -144 -76z" glyph-name="ordfeminine" horiz-adv-x="817" unicode="ª"/><glyph d="M442 819l-245 -295l243 -295l-78 -67l-301 360l297 363zM770 819l-244 -295l244 -295l-80 -67l-301 360l297 363z" glyph-name="guillemotleft" horiz-adv-x="913" unicode="«"/><glyph d="M1200 330h-129v358h-885v115h1014v-473z" glyph-name="logicalnot" horiz-adv-x="1386" unicode="¬"/><glyph d="M852 1462q147 0 281.5 -52t235.5 -146.5t160.5 -235.5t59.5 -309t-59.5 -309.5t-160.5 -235.5t-235.5 -147.5t-281.5 -53.5t-281.5 53.5t-236 147.5t-161.5 235.5t-60 309.5t60 309t161.5 235.5t236 146.5t281.5 52zM852 1364q-174 0 -317.5 -77t-231.5 -225t-88 -342 t88 -343.5t232.5 -227t317.5 -77.5t316.5 77.5t230.5 227t87 343.5t-87 342t-230.5 225t-317.5 77zM612 1098h246q137 0 194.5 -57.5t57.5 -147.5q0 -135 -133 -203l172 -325h-123l-149 292h-164v-292h-101v733zM713 1004v-252h139q68 0 108.5 37.5t40.5 93.5 q0 121 -147 121h-141z" glyph-name="registered" horiz-adv-x="1701" unicode="®"/><glyph d="M522 1343h-432v91h432v-91z" glyph-name="macron" horiz-adv-x="612" unicode="¯"/><glyph d="M374 1458q108 0 183.5 -63.5t75.5 -183t-76 -181t-184 -61.5q-109 0 -184.5 61.5t-75.5 181t76.5 183t184.5 63.5zM376 1352q-64 0 -103.5 -36t-39.5 -104.5t39 -103.5t103 -35t103.5 35t39.5 103.5t-39 104.5t-103 36z" glyph-name="degree" horiz-adv-x="747" unicode="°"/><glyph d="M688 961h451v-113h-451v-471h-113v471h-450v113h450v471h113v-471zM1139 43h-1014v115h1014v-115z" glyph-name="plusminus" horiz-adv-x="1263" unicode="±"/><glyph d="M252 1208h-113l156 226h180z" glyph-name="acute" horiz-adv-x="612" unicode="´"/><glyph d="M858 0h-121v1327h-121v-1327h-120v772q-342 31 -342 340q0 150 89 236t277 86h338v-1434z" glyph-name="paragraph" horiz-adv-x="1042" unicode="¶"/><glyph d="M302 748q48 0 81 -30t33 -88t-33 -89t-82 -31t-81 31t-32 89t33 88t81 30z" glyph-name="periodcentered" horiz-adv-x="600" unicode="·"/><glyph d="M188 -324q148 23 148 95q0 37 -19.5 53t-44.5 16t-41 -8l-57 49l84 137h84l-63 -94q68 4 113.5 -39t45.5 -106q0 -154 -223 -176z" glyph-name="cedilla" horiz-adv-x="612" unicode="¸"/><glyph d="M413 1454q124 0 213 -83t89 -241.5t-89 -242.5t-213 -84t-212 83t-88 242.5t88 242.5t212 83zM414 1374q-94 0 -152.5 -66.5t-58.5 -179.5t58 -178t153 -65q94 0 152.5 65.5t58.5 177.5t-58.5 179t-152.5 67z" glyph-name="ordmasculine" horiz-adv-x="823" unicode="º"/><glyph d="M526 522l-301 -360l-82 67l246 295l-246 295l86 66zM852 522l-299 -360l-80 67l246 295l-246 295l84 66z" glyph-name="guillemotright" horiz-adv-x="913" unicode="»"/><glyph d="M1364 1524l-571 -1768h-97l576 1768h92zM489 715h173v-107h-463v107h172v559l-164 -78l-49 92l252 129h79v-702zM1841 317h123v-100h-123v-217h-117v217h-387v100l414 494h90v-494zM1724 317v308l-251 -308h251z" glyph-name="onequarter" horiz-adv-x="2060" unicode="¼"/><glyph d="M1364 1524l-571 -1768h-97l576 1768h92zM489 715h173v-107h-463v107h172v559l-164 -78l-49 92l252 129h79v-702zM1624 821q142 0 219.5 -67.5t77.5 -169.5q0 -182 -242 -371l-141 -111h406v-106h-570v94l236 193q184 150 184 292q0 63 -45 100.5t-119 37.5 q-117 0 -209 -80l-63 86q124 102 266 102z" glyph-name="onehalf" horiz-adv-x="2060" unicode="½"/><glyph d="M1364 1524l-571 -1768h-97l576 1768h92zM392 1434q146 0 220 -59.5t74 -145.5q0 -57 -39 -108.5t-96 -71.5v-7q74 -14 122 -66t48 -134q0 -113 -91 -186.5t-247 -73.5t-285 100l70 94q98 -84 210 -84t163 42t51 111t-48 102.5t-157 33.5h-72v106h56q86 0 137 32t51 91 q0 113 -158 113q-111 0 -206 -88l-66 82q117 117 263 117zM1841 317h123v-100h-123v-217h-117v217h-387v100l414 494h90v-494zM1726 317v308l-253 -308h253z" glyph-name="threequarters" horiz-adv-x="2060" unicode="¾"/><glyph d="M579.5 897q-49.5 0 -80 30.5t-30.5 83t30.5 82t80 29.5t80 -29.5t30.5 -82t-30.5 -83t-80 -30.5zM543 -358q-190 0 -302 96t-112 247t100.5 246t200.5 186t100 247h117q0 -176 -99 -272.5t-198.5 -183t-99.5 -210.5q0 -123 78 -185.5t209 -62.5q215 0 358 111l63 -84 q-70 -57 -180 -96t-235 -39z" glyph-name="questiondown" horiz-adv-x="1161" unicode="¿"/><glyph d="M674 1569l-232 225h183l159 -225h-110zM1038 383h-688l-139 -383h-129l532 1434h166l533 -1434h-137zM997 494l-301 831l-305 -831h606z" glyph-name="Agrave" horiz-adv-x="1392" unicode="À"/><glyph d="M735 1569h-110l155 225h181zM1038 383h-688l-139 -383h-129l532 1434h166l533 -1434h-137zM997 494l-301 831l-305 -831h606z" glyph-name="Aacute" horiz-adv-x="1392" unicode="Á"/><glyph d="M575 1591h-141l230 217h67l217 -217h-133l-123 109zM1038 383h-688l-139 -383h-129l532 1434h166l533 -1434h-137zM997 494l-301 831l-305 -831h606z" glyph-name="Acircumflex" horiz-adv-x="1392" unicode="Â"/><glyph d="M594 1681q-72 0 -113 -79l-67 34q27 76 75 112t98 36t116.5 -37t99.5 -37q57 0 100 88l66 -43q-23 -70 -66 -108.5t-94 -38.5t-114.5 36.5t-100.5 36.5zM1038 383h-688l-139 -383h-129l532 1434h166l533 -1434h-137zM997 494l-301 831l-305 -831h606z" glyph-name="Atilde" horiz-adv-x="1392" unicode="Ã"/><glyph d="M536 1618q-40 0 -63.5 23.5t-23.5 65.5t23.5 66.5t63.5 24.5t64.5 -23.5t24.5 -66.5t-24.5 -66.5t-64.5 -23.5zM864 1618q-41 0 -64.5 23.5t-23.5 66.5t23.5 66.5t63.5 23.5t63.5 -24.5t23.5 -66.5t-22.5 -65.5t-63.5 -23.5zM1038 383h-688l-139 -383h-129l532 1434h166 l533 -1434h-137zM997 494l-301 831l-305 -831h606z" glyph-name="Adieresis" horiz-adv-x="1392" unicode="Ä"/><glyph d="M703 1581q-61 0 -104.5 35t-43.5 104.5t42.5 105.5t104.5 36t106 -36t44 -105.5t-44 -104.5t-105 -35zM704 1796q-32 0 -51.5 -20.5t-19.5 -54.5t19.5 -54t51 -20t51 20.5t19.5 53t-19 54t-51 21.5zM1038 383h-688l-139 -383h-129l532 1434h166l533 -1434h-137zM997 494 l-301 831l-305 -831h606z" glyph-name="Aring" horiz-adv-x="1392" unicode="Å"/><glyph d="M981 1327v-543h612v-108h-612v-561h686v-115h-807v311h-483l-150 -311h-145l709 1434h876v-107h-686zM860 422v881h-6l-424 -881h430z" glyph-name="AE" horiz-adv-x="1769" unicode="Æ"/><glyph d="M659 -324q148 23 148 93.5t-66 70.5q-23 0 -39 -8l-57 49l62 99q-248 29 -404 205t-160 526q-2 190 50.5 337.5t144.5 234.5q185 175 461 175t450 -127l-65 -90q-168 109 -389.5 109t-370.5 -151q-74 -75 -116 -201t-42 -288q0 -329 154 -478.5t389.5 -146.5t404.5 144 l70 -88q-197 -166 -487 -166h-13l-34 -51q68 4 114.5 -39t46.5 -106q0 -154 -225 -176z" glyph-name="Ccedilla" horiz-adv-x="1345" unicode="Ç"/><glyph d="M674 1569h-111l-229 225h182zM1065 1327h-760v-536h678v-111h-678v-565h760v-115h-881v1434h881v-107z" glyph-name="Egrave" horiz-adv-x="1167" unicode="È"/><glyph d="M627 1569h-113l156 225h180zM1065 1327h-760v-536h678v-111h-678v-565h760v-115h-881v1434h881v-107z" glyph-name="Eacute" horiz-adv-x="1167" unicode="É"/><glyph d="M465 1591h-141l229 217h70l217 -217h-135l-123 109zM305 1327v-536h678v-109h-678v-567h760v-115h-881v1434h881v-107h-760z" glyph-name="Ecircumflex" horiz-adv-x="1167" unicode="Ê"/><glyph d="M425 1798q40 0 64.5 -23.5t24.5 -66.5t-23.5 -66.5t-64.5 -23.5t-64.5 23.5t-23.5 65.5t23.5 66.5t63.5 24.5zM754 1798q41 0 63.5 -24.5t22.5 -66.5t-22.5 -65.5t-63.5 -23.5t-64.5 23.5t-23.5 66.5t23.5 66.5t64.5 23.5zM1065 1327h-760v-536h678v-111h-678v-565h760 v-115h-881v1434h881v-107z" glyph-name="Edieresis" horiz-adv-x="1167" unicode="Ë"/><glyph d="M346 1569h-110l-232 225h184zM326 0h-121v1434h121v-1434z" glyph-name="Igrave" horiz-adv-x="530" unicode="Ì"/><glyph d="M297 1569h-111l156 225h180zM326 0h-121v1434h121v-1434z" glyph-name="Iacute" horiz-adv-x="530" unicode="Í"/><glyph d="M510 1591h-133l-123 109l-117 -109h-141l229 217h68zM205 1434h121v-1434h-121v1434z" glyph-name="Icircumflex" horiz-adv-x="530" unicode="Î"/><glyph d="M97 1798q40 0 64.5 -23.5t24.5 -66.5t-24.5 -66.5t-64.5 -23.5t-63.5 23.5t-23.5 65.5t23.5 66.5t63.5 24.5zM425 1798q40 0 63.5 -24.5t23.5 -66.5t-22.5 -65.5t-63.5 -23.5t-64.5 23.5t-23.5 66.5t23.5 66.5t63.5 23.5zM326 0h-121v1434h121v-1434z" glyph-name="Idieresis" horiz-adv-x="530" unicode="Ï"/><glyph d="M381 1434h393q289 0 430.5 -120t195.5 -259.5t54 -325.5t-54 -328.5t-197 -271.5t-429 -129h-393v686h-197v109h197v639zM502 115h291q260 0 399 155.5t139 458.5t-138 450.5t-400 147.5h-291v-532h241v-109h-241v-571z" glyph-name="Eth" horiz-adv-x="1597" unicode="Ð"/><glyph d="M829 1608q-45 0 -108.5 36.5t-99.5 36.5q-72 0 -113 -79l-68 34q27 76 75 111t98 35t117 -37t99 -37q60 0 101 88l65 -41q-48 -147 -166 -147zM1305 0h-107l-893 1221v-1221h-121v1434h109l891 -1219v1219h121v-1434z" glyph-name="Ntilde" horiz-adv-x="1488" unicode="Ñ"/><glyph d="M874 1569h-110l-232 225h185zM815 1458q100 0 195.5 -26.5t181.5 -85t150.5 -142.5t103.5 -209t39 -293t-58.5 -315t-154.5 -234t-213 -132.5t-244 -45.5t-243.5 45.5t-214 132.5t-156 234.5t-58.5 315.5t39 292.5t103.5 208.5t151.5 142.5t182.5 85t195.5 26.5z M814 1350q-112 0 -209 -39t-174 -115t-121 -197.5t-44 -274.5t44 -275.5t159 -243.5t339 -121t344 117.5t165 241.5t45 279t-44 276.5t-121 197.5t-174 115t-209 39z" glyph-name="Ograve" horiz-adv-x="1628" unicode="Ò"/><glyph d="M827 1569h-112l155 225h181zM815 1458q100 0 195.5 -26.5t181.5 -85t150.5 -142.5t103.5 -209t39 -293t-58.5 -315t-154.5 -234t-213 -132.5t-244 -45.5t-243.5 45.5t-214 132.5t-156 234.5t-58.5 315.5t39 292.5t103.5 208.5t151.5 142.5t182.5 85t195.5 26.5zM814 1350 q-112 0 -209 -39t-174 -115t-121 -197.5t-44 -274.5t44 -275.5t159 -243.5t339 -121t344 117.5t165 241.5t45 279t-44 276.5t-121 197.5t-174 115t-209 39z" glyph-name="Oacute" horiz-adv-x="1628" unicode="Ó"/><glyph d="M666 1591h-142l230 217h69l215 -217h-133l-123 109zM815 1458q100 0 195.5 -26.5t181.5 -85t150.5 -142.5t103.5 -209t39 -293t-58.5 -315t-154.5 -234t-213 -132.5t-244 -45.5t-243.5 45.5t-214 132.5t-156 234.5t-58.5 315.5t39 292.5t103.5 208.5t151.5 142.5 t182.5 85t195.5 26.5zM808 84q112 0 210 41t176 117.5t123 200.5t45 279q0 311 -160.5 469.5t-387.5 158.5t-343.5 -115t-160.5 -236.5t-44 -274.5t44 -275.5t119 -201.5t171 -121t208 -42z" glyph-name="Ocircumflex" horiz-adv-x="1628" unicode="Ô"/><glyph d="M899 1608q-51 0 -114.5 36.5t-100.5 36.5q-72 0 -113 -79l-67 34q27 76 75 112t98 36t116.5 -37t99.5 -37q57 0 100 88l66 -43q-23 -70 -66 -108.5t-94 -38.5zM815 1458q100 0 195.5 -26.5t181.5 -85t150.5 -142.5t103.5 -209t39 -293t-58.5 -315t-154.5 -234 t-213 -132.5t-244 -45.5t-243.5 45.5t-214 132.5t-156 234.5t-58.5 315.5t39 292.5t103.5 208.5t151.5 142.5t182.5 85t195.5 26.5zM814 1350q-112 0 -209 -39t-174 -115t-121 -197.5t-44 -274.5t44 -275.5t159 -243.5t339 -121t344 117.5t165 241.5t45 279t-45 276.5 t-121 197.5t-173 115t-209 39z" glyph-name="Otilde" horiz-adv-x="1628" unicode="Õ"/><glyph d="M626 1798q40 0 64.5 -23.5t24.5 -66.5t-23.5 -66.5t-64.5 -23.5t-64.5 23.5t-23.5 65.5t23.5 66.5t63.5 24.5zM954 1798q41 0 63.5 -24.5t22.5 -66.5t-22.5 -65.5t-63.5 -23.5t-64.5 23.5t-23.5 66.5t23.5 66.5t64.5 23.5zM815 1458q100 0 195.5 -26.5t181.5 -85 t150.5 -142.5t103.5 -209t39 -293t-58.5 -315t-154.5 -234t-213 -132.5t-244 -45.5t-243.5 45.5t-214 132.5t-156 234.5t-58.5 315.5t39 292.5t103.5 208.5t151.5 142.5t182.5 85t195.5 26.5zM814 1350q-112 0 -209 -39t-174 -115t-121 -197.5t-44 -274.5t44 -275.5 t159 -243.5t339 -121t344 117.5t165 241.5t45 279t-44 276.5t-121 197.5t-174 115t-209 39z" glyph-name="Odieresis" horiz-adv-x="1628" unicode="Ö"/><glyph d="M1208 90l-78 -86l-425 449l-426 -447l-80 84l424 449l-428 450l84 82l423 -446l424 446l82 -88l-424 -446z" glyph-name="multiply" horiz-adv-x="1404" unicode="×"/><glyph d="M790 -25q-152 0 -301 82l-137 -241l-94 53l141 248q-256 203 -256 617t230 569t419 155t330 -69l129 229l95 -53l-134 -232q272 -199 273 -612q0 -186 -58.5 -333.5t-154.5 -234.5t-213 -132.5t-269 -45.5zM266 723q0 -328 191 -504l610 1073q-115 58 -240 58t-222 -39 t-174 -115t-121 -197.5t-44 -275.5zM791 84q129 0 227 41t176 117.5t123 200.5t45 280q0 340 -205 510l-614 -1079q119 -70 248 -70z" glyph-name="Oslash" horiz-adv-x="1628" unicode="Ø"/><glyph d="M780 1569h-110l-230 225h183zM1243 1434v-918q0 -283 -156 -412t-373.5 -129t-329.5 93.5t-156 200t-44 247.5v918h121v-932q0 -193 107.5 -300.5t302.5 -107.5t301 107.5t106 300.5v932h121z" glyph-name="Ugrave" horiz-adv-x="1427" unicode="Ù"/><glyph d="M733 1569h-112l155 225h180zM1243 1434v-918q0 -283 -156 -412t-373.5 -129t-329.5 93.5t-156 200t-44 247.5v918h121v-932q0 -193 107.5 -300.5t302.5 -107.5t301 107.5t106 300.5v932h121z" glyph-name="Uacute" horiz-adv-x="1427" unicode="Ú"/><glyph d="M571 1591h-141l229 217h70l217 -217h-135l-123 109zM1243 1434v-918q0 -283 -156 -412t-373.5 -129t-329.5 93.5t-156 200t-44 247.5v918h121v-932q0 -193 107.5 -300.5t302.5 -107.5t301 107.5t106 300.5v932h121z" glyph-name="Ucircumflex" horiz-adv-x="1427" unicode="Û"/><glyph d="M531 1798q40 0 65 -23.5t25 -66.5t-24 -66.5t-65 -23.5t-64.5 23.5t-23.5 65.5t23.5 66.5t63.5 24.5zM860 1798q41 0 63.5 -24.5t22.5 -66.5t-22.5 -65.5t-63.5 -23.5t-64.5 23.5t-23.5 66.5t23.5 66.5t64.5 23.5zM1243 1434v-918q0 -283 -156 -412t-373.5 -129 t-329.5 93.5t-156 200t-44 247.5v918h121v-932q0 -193 107.5 -300.5t302.5 -107.5t301 107.5t106 300.5v932h121z" glyph-name="Udieresis" horiz-adv-x="1427" unicode="Ü"/><glyph d="M676 1569h-111l156 225h180zM694 0h-121v573l-503 861h145l422 -750l416 750h141l-500 -861v-573z" glyph-name="Yacute" horiz-adv-x="1331" unicode="Ý"/><glyph d="M307 1176h277q229 0 349 -111t120 -301t-122 -317.5t-345 -127.5h-279v-319h-123v1434h123v-258zM307 1067v-639h262q172 0 265.5 88t93.5 247t-91.5 231.5t-267.5 72.5h-262z" glyph-name="Thorn" horiz-adv-x="1114" unicode="Þ"/><glyph d="M516 1565q154 0 240 -85t86 -217t-53.5 -199t-105.5 -122.5t-52 -108.5t33.5 -93t83 -79.5t98.5 -86t84 -117t35 -154.5q0 -156 -90.5 -241t-226.5 -85t-245 41l35 101q98 -37 197 -37q98 0 152.5 62.5t54.5 139.5t-35 137t-83 104t-131 117t-83 164t52 150.5t104.5 122 t52.5 167.5t-54.5 158.5t-152.5 53.5q-209 0 -209 -198v-1260h-119v1257q0 139 89 223.5t243 84.5z" glyph-name="germandbls" horiz-adv-x="1077" unicode="ß"/><glyph d="M530 1208l-229 226h182l158 -226h-111zM113 283q-1 303 453 303q118 0 268 -25v172q0 141 -71 199.5t-189 58.5t-194.5 -27.5t-150.5 -84.5l-59 79q170 140 385 140t306 -87t91 -288v-551q0 -90 70 -90q23 0 31 2l-17 -78q-16 -12 -66 -12t-82 28.5t-46 98.5 q-117 -145 -346 -146q-176 0 -279.5 76t-103.5 232zM236 285q0 -109 74.5 -156t189.5 -47q234 0 334 166v203q-156 27 -287 26q-311 0 -311 -192z" glyph-name="agrave" horiz-adv-x="1124" unicode="à"/><glyph d="M594 1208h-113l156 226h180zM113 283q-1 303 453 303q118 0 268 -25v172q0 141 -71 199.5t-189 58.5t-194.5 -27.5t-150.5 -84.5l-59 79q170 140 385 140t306 -87t91 -288v-551q0 -90 70 -90q23 0 31 2l-17 -78q-16 -12 -66 -12t-82 28.5t-46 98.5q-117 -145 -346 -146 q-176 0 -279.5 76t-103.5 232zM236 285q0 -109 74.5 -156t189.5 -47q234 0 334 166v203q-156 27 -287 26q-311 0 -311 -192z" glyph-name="aacute" horiz-adv-x="1124" unicode="á"/><glyph d="M432 1231h-141l229 217h70l215 -217h-133l-123 108zM1022 82q20 0 31 2l-17 -78q-16 -12 -66 -12t-82 28.5t-46 98.5q-117 -145 -346 -146q-176 0 -279.5 76t-103.5 232q0 227 168 265t301 38t252 -25v172q0 141 -71 199.5t-189 58.5t-194.5 -27.5t-150.5 -84.5l-59 79 q170 140 385 140t306 -87t91 -288v-551q0 -90 70 -90zM236 285q0 -109 74.5 -156t189.5 -47q234 0 334 166v203q-156 27 -287 26q-311 0 -311 -192z" glyph-name="acircumflex" horiz-adv-x="1124" unicode="â"/><glyph d="M451 1321q-72 0 -113 -80l-68 35q52 145 179 145q45 0 111.5 -35.5t98.5 -35.5q59 0 101 86l65 -41q-49 -148 -166 -148q-45 0 -108 37t-100 37zM113 283q-1 303 453 303q118 0 268 -25v172q0 141 -71 199.5t-189 58.5t-194.5 -27.5t-150.5 -84.5l-59 79q170 140 385 140 t306 -87t91 -288v-551q0 -90 70 -90q23 0 31 2l-17 -78q-16 -12 -66 -12t-82 28.5t-46 98.5q-117 -145 -346 -146q-176 0 -279.5 76t-103.5 232zM236 285q0 -109 74.5 -156t189.5 -47q234 0 334 166v203q-156 27 -287 26q-311 0 -311 -192z" glyph-name="atilde" horiz-adv-x="1124" unicode="ã"/><glyph d="M393 1257q-41 0 -64.5 24t-23.5 66t23.5 66.5t63.5 24.5t64.5 -24.5t24.5 -66.5t-23.5 -66t-64.5 -24zM721 1257q-41 0 -64.5 24t-23.5 66t23.5 66.5t64.5 24.5t63.5 -24.5t22.5 -66.5t-22.5 -66t-63.5 -24zM1022 82q20 0 31 2l-17 -78q-16 -12 -66 -12t-82 28.5 t-46 98.5q-117 -145 -346 -146q-176 0 -279.5 76t-103.5 232q0 227 168 265t301 38t252 -25v172q0 141 -71 199.5t-189 58.5t-194.5 -27.5t-150.5 -84.5l-59 79q170 140 385 140t306 -87t91 -288v-551q0 -90 70 -90zM236 285q0 -109 74.5 -156t189.5 -47q234 0 334 166v203 q-156 27 -287 26q-311 0 -311 -192z" glyph-name="adieresis" horiz-adv-x="1124" unicode="ä"/><glyph d="M560 1221q-62 0 -105 34.5t-43 104.5t44 105.5t104 35.5t104.5 -35.5t44.5 -105.5t-43.5 -104.5t-105.5 -34.5zM560 1436q-32 0 -51.5 -21.5t-19.5 -54.5t20.5 -53.5t51.5 -20.5t50.5 20.5t19.5 53.5t-19.5 54.5t-51.5 21.5zM1022 82q20 0 31 2l-17 -78q-16 -12 -66 -12 t-82 28.5t-46 98.5q-117 -145 -346 -146q-176 0 -279.5 76t-103.5 232q0 227 168 265t301 38t252 -25v172q0 141 -71 199.5t-189 58.5t-194.5 -27.5t-150.5 -84.5l-59 79q170 140 385 140t306 -87t91 -288v-551q0 -90 70 -90zM236 285q0 -109 74.5 -156t189.5 -47 q234 0 334 166v203q-156 27 -287 26q-311 0 -311 -192z" glyph-name="aring" horiz-adv-x="1124" unicode="å"/><glyph d="M848 705q0 286 -298 286q-148 0 -306 -112l-62 84q88 63 179.5 99t227.5 36t217 -52.5t124 -164.5q61 104 165.5 160.5t231.5 56.5q190 0 310 -128t120 -380l2 -47q2 -47 -2 -49h-790q8 -199 105 -305.5t265 -106.5q102 0 192.5 38t151.5 97l50 -84q-166 -158 -404 -158 q-287 0 -416 236q-61 -111 -174.5 -173.5t-266.5 -62.5t-255 84t-102 236q0 182 140.5 257t307.5 75q168 0 287 -25v103zM1318 991q-155 0 -248 -103.5t-99 -287.5h667q-6 186 -85.5 288.5t-234.5 102.5zM850 352v140q-363 63 -488.5 -2.5t-125.5 -188.5q0 -164 100 -191.5 t145 -27.5q143 0 256 83t113 187z" glyph-name="ae" horiz-adv-x="1896" unicode="æ"/><glyph d="M502 -324q147 23 147 93.5t-65 70.5q-23 0 -39 -8l-58 49l62 101q-195 27 -315.5 173t-120.5 388q0 131 42 237q43 108 113 176q147 142 365.5 142t370.5 -131l-70 -84q-74 55 -139.5 81.5t-167.5 26.5q-174 0 -282.5 -117.5t-108.5 -331.5t113.5 -337t285.5 -123 t323 121l68 -80q-158 -147 -395 -148h-4l-35 -51q68 4 115 -39t47 -106q0 -154 -226 -176z" glyph-name="ccedilla" horiz-adv-x="1097" unicode="ç"/><glyph d="M555 1208l-229 226h182l158 -226h-111zM1067 580q0 -57 -6 -105h-821q39 -393 387 -393q205 0 352 127l72 -76q-180 -158 -445 -158q-202 1 -342 135q-70 66 -110.5 174.5t-40.5 245.5q0 270 133 419t354 149q150 0 258 -76q208 -146 209 -442zM599 991 q-161 0 -261.5 -109.5t-104.5 -299.5h725q-8 182 -103 295.5t-256 113.5z" glyph-name="egrave" horiz-adv-x="1204" unicode="è"/><glyph d="M618 1208h-112l156 226h180zM1067 580q0 -57 -6 -105h-821q39 -393 387 -393q205 0 352 127l72 -76q-180 -158 -445 -158q-202 1 -342 135q-70 66 -110.5 174.5t-40.5 245.5q0 270 133 419t354 149q150 0 258 -76q208 -146 209 -442zM599 991q-161 0 -261.5 -109.5 t-104.5 -299.5h725q-8 182 -103 295.5t-256 113.5z" glyph-name="eacute" horiz-adv-x="1204" unicode="é"/><glyph d="M457 1231h-142l230 217h69l217 -217h-135l-123 108zM1067 580q0 -57 -6 -105h-821q39 -393 387 -393q205 0 352 127l72 -76q-180 -158 -445 -158q-202 1 -342 135q-70 66 -110.5 174.5t-40.5 245.5q0 270 133 419t354 149q150 0 258 -76q208 -146 209 -442zM599 991 q-161 0 -261.5 -109.5t-104.5 -299.5h725q-8 182 -103 295.5t-256 113.5z" glyph-name="ecircumflex" horiz-adv-x="1204" unicode="ê"/><glyph d="M418 1257q-41 0 -64.5 24t-23.5 66t23.5 66.5t63.5 24.5t64.5 -23.5t24.5 -66.5t-23.5 -67t-64.5 -24zM746 1257q-41 0 -65 24t-24 67t24 66.5t65 23.5t63 -24.5t22 -66.5t-22 -66t-63 -24zM1067 580q0 -57 -6 -105h-821q39 -393 387 -393q205 0 352 127l72 -76 q-180 -158 -445 -158q-202 1 -342 135q-70 66 -110.5 174.5t-40.5 245.5q0 270 133 419t354 149q150 0 258 -76q208 -146 209 -442zM599 991q-161 0 -261.5 -109.5t-104.5 -299.5h725q-8 182 -103 295.5t-256 113.5z" glyph-name="edieresis" horiz-adv-x="1204" unicode="ë"/><glyph d="M270 1208h-108l-232 226h183zM272 0h-118v1073h118v-1073z" glyph-name="igrave" horiz-adv-x="425" unicode="ì"/><glyph d="M223 1208h-110l155 226h181zM272 0h-118v1073h118v-1073z" glyph-name="iacute" horiz-adv-x="425" unicode="í"/><glyph d="M436 1231h-133l-123 108l-119 -108h-139l230 217h67zM154 1073h118v-1073h-118v1073z" glyph-name="icircumflex" horiz-adv-x="425" unicode="î"/><glyph d="M24 1438q40 0 63.5 -23.5t23.5 -66.5t-23.5 -67t-63.5 -24t-63.5 24t-23.5 66t23.5 66.5t63.5 24.5zM351 1438q40 0 63.5 -24.5t23.5 -66.5t-23.5 -66t-63.5 -24t-63.5 24t-23.5 67t23.5 66.5t63.5 23.5zM272 0h-118v1073h118v-1073z" glyph-name="idieresis" horiz-adv-x="425" unicode="ï"/><glyph d="M1112 569q0 -285 -133 -439.5t-349 -154.5t-324.5 99.5t-150.5 210t-42 253t41 252t145 209t315 99.5t334 -164q-82 209 -243 356l-273 -133l-43 82l240 117q-72 53 -166 106l49 78q119 -63 215 -137l211 102l43 -82l-178 -86q309 -293 309 -768zM612 82q168 0 272.5 123 t104.5 332t-108.5 331.5t-277.5 122.5t-268 -121.5t-99 -332.5t104 -333t272 -122z" glyph-name="eth" horiz-adv-x="1224" unicode="ð"/><glyph d="M487 1321q-72 0 -112 -80l-68 35q27 76 75 110.5t98 34.5t117 -35.5t99 -35.5q60 0 101 86l65 -41q-49 -148 -166 -148q-45 0 -108.5 37t-100.5 37zM694.5 1098q147.5 0 238.5 -89t91 -261v-748h-119v717q0 152 -60.5 213t-174.5 61q-227 0 -371 -221v-770h-115v1073h88 l17 -168h4q80 94 167 143.5t234.5 49.5z" glyph-name="ntilde" horiz-adv-x="1210" unicode="ñ"/><glyph d="M682 1208h-111l-231 226h184zM622.5 1098q102.5 0 191.5 -33t162 -99.5t115 -176t42 -253t-42 -253t-115 -176t-162 -99.5t-191.5 -33t-191.5 33t-161.5 99.5t-114.5 176t-42 253t42 253t114.5 176t161.5 99.5t191.5 33zM623 991q-176 0 -281.5 -120.5t-105.5 -333.5 t105 -334t282 -121q176 0 281.5 122t105.5 333t-105.5 332.5t-281.5 121.5z" glyph-name="ograve" horiz-adv-x="1245" unicode="ò"/><glyph d="M635 1208h-113l156 226h180zM622.5 1098q102.5 0 191.5 -33t162 -99.5t115 -176t42 -253t-42 -253t-115 -176t-162 -99.5t-191.5 -33t-191.5 33t-161.5 99.5t-114.5 176t-42 253t42 253t114.5 176t161.5 99.5t191.5 33zM623 991q-176 0 -281.5 -120.5t-105.5 -333.5 t105 -334t282 -121q176 0 281.5 122t105.5 333t-105.5 332.5t-281.5 121.5z" glyph-name="oacute" horiz-adv-x="1245" unicode="ó"/><glyph d="M473 1231h-141l229 217h70l215 -217h-133l-123 108zM622.5 1098q102.5 0 191.5 -33t162 -99.5t115 -176t42 -253t-42 -253t-115 -176t-162 -99.5t-191.5 -33t-191.5 33t-161.5 99.5t-114.5 176t-42 253t42 253t114.5 176t161.5 99.5t191.5 33zM623 82q176 0 281.5 122 t105.5 333t-105.5 332.5t-281.5 121.5t-281.5 -120.5t-105.5 -333.5t105.5 -334t281.5 -121z" glyph-name="ocircumflex" horiz-adv-x="1245" unicode="ô"/><glyph d="M492 1321q-72 0 -113 -80l-68 35q27 76 75 111.5t98 35.5t117 -36.5t99 -36.5q58 0 101 88l65 -43q-49 -148 -166 -148q-45 0 -108.5 37t-99.5 37zM622.5 1098q102.5 0 191.5 -34t162 -99.5t115 -176t42 -253t-42 -252t-115 -176t-162 -99.5t-191.5 -33t-191.5 33 t-161.5 99.5t-114.5 176t-42 252t42 253t114.5 176t161.5 99.5t191.5 34zM623 991q-176 0 -281.5 -121.5t-105.5 -333.5t105 -333t282 -121q176 0 281.5 122t105.5 333t-105.5 332.5t-281.5 121.5z" glyph-name="otilde" horiz-adv-x="1245" unicode="õ"/><glyph d="M433 1438q40 0 64.5 -23.5t24.5 -66.5t-23.5 -67t-64.5 -24t-64.5 24t-23.5 66t23.5 66.5t63.5 24.5zM762 1438q41 0 63.5 -24.5t22.5 -66.5t-22.5 -66t-63.5 -24t-64.5 24t-23.5 67t23.5 66.5t64.5 23.5zM622.5 1098q102.5 0 191.5 -33t162 -99.5t115 -176t42 -253 t-42 -253t-115 -176t-162 -99.5t-191.5 -33t-191.5 33t-161.5 99.5t-114.5 176t-42 253t42 253t114.5 176t161.5 99.5t191.5 33zM623 991q-176 0 -281.5 -120.5t-105.5 -333.5t105 -334t282 -121q176 0 281.5 122t105.5 333t-105.5 332.5t-281.5 121.5z" glyph-name="odieresis" horiz-adv-x="1245" unicode="ö"/><glyph d="M644 1098q48 0 84 -31t36 -90t-36 -90t-84 -31t-83 31t-35 90t35 90t83 31zM1151 479h-1014v115h1014v-115zM644 217q48 0 84 -31.5t36 -91.5t-36 -89.5t-84 -29.5t-83 30t-35 89t35 91t83 32z" glyph-name="divide" horiz-adv-x="1282" unicode="÷"/><glyph d="M1133 537q0 -286 -151 -424t-359 -138q-113 0 -211 39l-101 -196l-88 43l103 200q-213 147 -213 476q0 285 150.5 423t359.5 138q117 0 215 -43l96 188l84 -45l-96 -188q211 -147 211 -473zM236 518q0 -232 143 -352l407 790q-74 35 -163 35q-176 0 -281.5 -120.5 t-105.5 -352.5zM623 82q176 0 281.5 122t105.5 350t-142 351l-405 -792q72 -31 160 -31z" glyph-name="oslash" horiz-adv-x="1245" unicode="ø"/><glyph d="M690 1208h-110l-230 226h182zM1014 0h-92l-25 162h-6q-154 -186 -375 -187q-145 0 -238.5 91.5t-93.5 291.5v715h119v-688q0 -303 227 -303q111 0 193 55.5t172 151.5v784h119v-1073z" glyph-name="ugrave" horiz-adv-x="1200" unicode="ù"/><glyph d="M643 1208h-113l156 226h180zM1014 0h-92l-25 162h-6q-154 -186 -375 -187q-145 0 -238.5 91.5t-93.5 291.5v715h119v-688q0 -303 227 -303q111 0 193 55.5t172 151.5v784h119v-1073z" glyph-name="uacute" horiz-adv-x="1200" unicode="ú"/><glyph d="M481 1231h-141l229 217h70l217 -217h-135l-123 108zM1014 1073v-1073h-92l-25 162h-6q-154 -186 -375 -187q-145 0 -238.5 91.5t-93.5 291.5v715h119v-688q0 -303 227 -303q111 0 193 55.5t172 151.5v784h119z" glyph-name="ucircumflex" horiz-adv-x="1200" unicode="û"/><glyph d="M441 1438q40 0 64.5 -23.5t24.5 -66.5t-23.5 -67t-64.5 -24t-64.5 24t-23.5 66t23.5 66.5t63.5 24.5zM770 1438q41 0 63.5 -24.5t22.5 -66.5t-22.5 -66t-63.5 -24t-64.5 24t-23.5 67t23.5 66.5t64.5 23.5zM1014 0h-92l-25 162h-6q-154 -186 -375 -187q-145 0 -238.5 91.5 t-93.5 291.5v715h119v-688q0 -303 227 -303q111 0 193 55.5t172 151.5v784h119v-1073z" glyph-name="udieresis" horiz-adv-x="1200" unicode="ü"/><glyph d="M590 1208h-111l156 226h180zM256 -422q-82 0 -139 21l22 94q45 -17 115 -17t137.5 61.5t106.5 166.5l24 65l-461 1104h127l387 -971h9l352 971h119l-424 -1139q-131 -356 -375 -356z" glyph-name="yacute" horiz-adv-x="1116" unicode="ý"/><glyph d="M295 905h6q70 94 154 143.5t200 49.5q193 0 315 -135.5t122 -401.5q0 -129 -42 -240.5t-110 -186.5t-155 -117t-177 -42q-178 0 -305 82v-479h-119v1856h111v-529zM641 991q-197 0 -338 -241v-574q66 -53 126.5 -73.5t142.5 -20.5t148 31.5t122.5 89t91.5 149.5t35 205 q0 219 -95.5 326.5t-232.5 107.5z" glyph-name="thorn" horiz-adv-x="1204" unicode="þ"/><glyph d="M390 1257q-40 0 -63.5 24t-23.5 66t23.5 66.5t63.5 24.5t64.5 -24.5t24.5 -66.5t-24.5 -66t-64.5 -24zM719 1257q-41 0 -64.5 24t-23.5 66t23.5 66.5t64.5 24.5t63.5 -24.5t22.5 -66.5t-22.5 -66t-63.5 -24zM256 -422q-82 0 -139 21l22 94q45 -17 115 -17t137.5 61.5 t106.5 166.5l24 65l-461 1104h127l387 -971h9l352 971h119l-424 -1139q-131 -356 -375 -356z" glyph-name="ydieresis" horiz-adv-x="1116" unicode="ÿ"/><glyph d="M920 1704h-433v90h433v-90zM1038 383h-688l-139 -383h-129l532 1434h166l533 -1434h-137zM997 494l-301 831l-305 -831h606z" glyph-name="Amacron" horiz-adv-x="1392" unicode="Ā"/><glyph d="M778 1343h-434v91h434v-91zM113 283q-1 303 453 303q118 0 268 -25v172q0 141 -71 199.5t-189 58.5t-194.5 -27.5t-150.5 -84.5l-59 79q170 140 385 140t306 -87t91 -288v-551q0 -90 70 -90q23 0 31 2l-17 -78q-16 -12 -66 -12t-82 28.5t-46 98.5q-117 -145 -346 -146 q-176 0 -279.5 76t-103.5 232zM236 285q0 -109 74.5 -156t189.5 -47q234 0 334 166v203q-156 27 -287 26q-311 0 -311 -192z" glyph-name="amacron" horiz-adv-x="1124" unicode="ā"/><glyph d="M704.5 1575q-92.5 0 -163 59.5t-84.5 159.5h94q12 -63 54 -97t100 -34q57 0 97 34t52 97h100q-16 -100 -86.5 -159.5t-163 -59.5zM1038 383h-688l-139 -383h-129l532 1434h166l533 -1434h-137zM997 494l-301 831l-305 -831h606z" glyph-name="Abreve" horiz-adv-x="1392" unicode="Ă"/><glyph d="M561 1303q124 0 150 131h102q-18 -102 -89 -161t-163 -59t-161.5 59.5t-86.5 160.5h95q12 -63 54 -97t99 -34zM1022 82q20 0 31 2l-17 -78q-16 -12 -66 -12t-82 28.5t-46 98.5q-117 -145 -346 -146q-176 0 -279.5 76t-103.5 232q0 227 168 265t301 38t252 -25v172 q0 141 -71 199.5t-189 58.5t-194.5 -27.5t-150.5 -84.5l-59 79q170 140 385 140t306 -87t91 -288v-551q0 -90 70 -90zM236 285q0 -109 74.5 -156t189.5 -47q234 0 334 166v203q-156 27 -287 26q-311 0 -311 -192z" glyph-name="abreve" horiz-adv-x="1124" unicode="ă"/><glyph d="M1161 -182q0 -104 101 -123l-29 -84q-88 14 -133 65.5t-47 126.5q-2 115 118 209l-133 371h-688l-139 -383h-129l532 1434h166l533 -1434h-74q-45 -59 -61.5 -97t-16.5 -85zM997 494l-301 831l-305 -831h606z" glyph-name="Aogonek" horiz-adv-x="1392" unicode="Ą"/><glyph d="M113 283q-1 303 453 303q118 0 268 -25v172q0 141 -71 199.5t-189 58.5t-194.5 -27.5t-150.5 -84.5l-59 79q170 140 385 140t306 -87t91 -288v-551q0 -90 70 -90q23 0 31 2l-11 -47l25 -12q-57 -70 -75.5 -112t-18.5 -91q0 -104 100 -123l-29 -84q-178 29 -182 205 q-2 90 94 176q-47 4 -73.5 32.5t-40.5 92.5q-117 -145 -346 -146q-176 0 -279.5 76t-103.5 232zM236 285q0 -109 74.5 -156t189.5 -47q234 0 334 166v203q-158 27 -287 26q-311 0 -311 -192z" glyph-name="aogonek" horiz-adv-x="1124" unicode="ą"/><glyph d="M811 1569h-113l156 225h180zM1184 1241q-168 109 -389.5 109t-370.5 -151q-74 -75 -116 -201t-42 -288q0 -329 154 -478.5t389.5 -146.5t404.5 144l70 -88q-197 -166 -479.5 -166t-463.5 169q-91 85 -143.5 229.5t-54.5 336t50.5 339t144.5 234.5q185 175 461 175 t450 -127z" glyph-name="Cacute" horiz-adv-x="1345" unicode="Ć"/><glyph d="M668 1208h-113l156 226h180zM627 991q-174 0 -282.5 -117.5t-108.5 -331.5t113.5 -337t285.5 -123t323 121l68 -80q-158 -147 -390 -147.5t-377.5 149t-145.5 418.5q0 131 42 237q43 108 113 176q147 142 365.5 142t370.5 -131l-70 -84q-74 55 -139.5 81.5t-167.5 26.5z " glyph-name="cacute" horiz-adv-x="1097" unicode="ć"/><glyph d="M778 1798q37 0 63.5 -24.5t26.5 -70.5t-26.5 -69.5t-63.5 -23.5t-63.5 23.5t-26.5 69.5t26.5 70.5t63.5 24.5zM1184 1241q-168 109 -389.5 109t-370.5 -151q-74 -75 -116 -201t-42 -288q0 -329 154 -478.5t389.5 -146.5t404.5 144l70 -88q-197 -166 -479.5 -166 t-463.5 169q-91 85 -143.5 229.5t-54.5 336t50.5 339t144.5 234.5q185 175 461 175t450 -127z" glyph-name="Cdotaccent" horiz-adv-x="1345" unicode="Ċ"/><glyph d="M636 1438q38 0 64.5 -24.5t26.5 -71t-26.5 -70t-64.5 -23.5t-64.5 24.5t-26.5 70t26.5 70t64.5 24.5zM627 991q-174 0 -282.5 -117.5t-108.5 -331.5t113.5 -337t285.5 -123t323 121l68 -80q-158 -147 -390 -147.5t-377.5 149t-145.5 418.5q0 131 42 237q43 108 113 176 q147 142 365.5 142t370.5 -131l-70 -84q-74 55 -139.5 81.5t-167.5 26.5z" glyph-name="cdotaccent" horiz-adv-x="1097" unicode="ċ"/><glyph d="M725 1587l-219 207h133l123 -123l133 123h125l-205 -207h-90zM799 1458q276 0 450 -127l-65 -90q-168 109 -389.5 109t-370.5 -151q-74 -75 -116 -201t-42 -288q0 -329 154 -478.5t389 -146.5t405 144l70 -88q-197 -166 -479.5 -166t-463.5 169q-91 85 -143.5 229.5 t-54.5 336t50.5 339t144.5 234.5q185 175 461 175z" glyph-name="Ccaron" horiz-adv-x="1345" unicode="Č"/><glyph d="M582 1227l-220 207h134l125 -123l131 123h127l-207 -207h-90zM113 543q0 131 42 237q43 108 113 176q147 142 365.5 142t370.5 -131l-70 -84q-74 55 -139.5 81.5t-167.5 26.5q-174 0 -282.5 -117.5t-108.5 -331.5t113.5 -337t285 -123t323.5 121l68 -80 q-158 -147 -390 -147.5t-377.5 149t-145.5 418.5z" glyph-name="ccaron" horiz-adv-x="1097" unicode="č"/><glyph d="M565 1587l-219 207h133l123 -123l133 123h125l-205 -207h-90zM184 1434h394q285 0 428 -120t196 -259.5t53 -325.5t-53 -328.5t-196.5 -271.5t-427.5 -129h-394v1434zM305 115h291q258 0 398.5 155.5t140.5 458.5t-138.5 450.5t-400.5 147.5h-291v-1212z" glyph-name="Dcaron" horiz-adv-x="1400" unicode="Ď"/><glyph d="M1032 0h-82l-24 127h-6q-59 -63 -147.5 -107.5t-181.5 -44.5t-174 31t-150.5 94.5t-111.5 175.5t-42 254q0 283 139.5 425.5t342.5 142.5q202 0 318 -123v565h119v-1540zM1219 1245h-72l16 295h127zM596 991q-142 0 -220.5 -78.5t-109 -169.5t-30.5 -207 q0 -227 108 -340.5t250 -113.5q193 0 319 166v600q-137 143 -317 143z" glyph-name="dcaron" horiz-adv-x="1216" unicode="ď"/><glyph d="M834 1704h-433v90h433v-90zM184 1434h394q285 0 428 -120t196 -259.5t53 -325.5t-53 -328.5t-196.5 -271.5t-427.5 -129h-394v1434zM305 1327v-1212h291q258 0 398.5 155.5t140.5 458.5t-138.5 450.5t-400.5 147.5h-291z" glyph-name="Dcroat" horiz-adv-x="1400" unicode="Đ"/><glyph d="M1186 1262h-154v-1262h-82l-24 127h-6q-59 -63 -147.5 -107.5t-181.5 -44.5t-174 31t-150.5 94.5t-111.5 175.5t-42 254q0 283 139.5 425.5t342.5 142.5q202 0 318 -123v287h-161v90h161v188h119v-188h154v-90zM596 991q-142 0 -220.5 -78.5t-109 -169.5t-30.5 -207 q0 -227 108 -340.5t250 -113.5q192 0 319 166v600q-137 143 -317 143z" glyph-name="dcroat" horiz-adv-x="1218" unicode="đ"/><glyph d="M811 1704h-434v90h434v-90zM1065 1327h-760v-536h678v-111h-678v-565h760v-115h-881v1434h881v-107z" glyph-name="Emacron" horiz-adv-x="1167" unicode="Ē"/><glyph d="M803 1343h-434v91h434v-91zM1067 580q0 -57 -6 -105h-821q39 -393 387 -393q205 0 352 127l72 -76q-180 -158 -445 -158q-202 1 -342 135q-70 66 -110.5 174.5t-40.5 245.5q0 270 133 419t354 149q150 0 258 -76q208 -146 209 -442zM599 991q-161 0 -261.5 -109.5 t-104.5 -299.5h725q-8 182 -103 295.5t-256 113.5z" glyph-name="emacron" horiz-adv-x="1204" unicode="ē"/><glyph d="M594 1575q-92 0 -162 59.5t-86 159.5h94q12 -63 54.5 -97t99.5 -34t97 34t52 97h103q-18 -100 -89 -159.5t-163 -59.5zM1065 1327h-760v-536h678v-111h-678v-565h760v-115h-881v1434h881v-107z" glyph-name="Ebreve" horiz-adv-x="1167" unicode="Ĕ"/><glyph d="M586 1214q-92 0 -162 59.5t-86 160.5h94q12 -63 54 -97t100 -34q57 0 97 33.5t52 97.5h103q-18 -100 -89 -160t-163 -60zM1067 580q0 -57 -6 -105h-821q39 -393 387 -393q205 0 352 127l72 -76q-180 -158 -445 -158q-202 1 -342 135q-70 66 -110.5 174.5t-40.5 245.5 q0 270 133 419t354 149q150 0 258 -76q208 -146 209 -442zM599 991q-161 0 -261.5 -109.5t-104.5 -299.5h725q-8 182 -103 295.5t-256 113.5z" glyph-name="ebreve" horiz-adv-x="1204" unicode="ĕ"/><glyph d="M595 1798q38 0 64.5 -24.5t26.5 -70.5t-26.5 -69.5t-64.5 -23.5t-64.5 24.5t-26.5 69.5t26.5 69.5t64.5 24.5zM1065 1327h-760v-536h678v-111h-678v-565h760v-115h-881v1434h881v-107z" glyph-name="Edotaccent" horiz-adv-x="1167" unicode="Ė"/><glyph d="M587 1249q-38 0 -64.5 24.5t-26.5 70t26.5 70t64.5 24.5t64.5 -24.5t26.5 -71t-26.5 -70t-64.5 -23.5zM1067 580q0 -57 -6 -105h-821q39 -393 387 -393q205 0 352 127l72 -76q-180 -158 -445 -158q-202 1 -342 135q-70 66 -110.5 174.5t-40.5 245.5q0 270 133 419 t354 149q150 0 258 -76q208 -146 209 -442zM599 991q-161 0 -261.5 -109.5t-104.5 -299.5h725q-8 182 -103 295.5t-256 113.5z" glyph-name="edotaccent" horiz-adv-x="1204" unicode="ė"/><glyph d="M305 1327v-536h678v-111h-678v-565h760v-115h-272q-45 -59 -61.5 -97t-16.5 -85q0 -104 100 -123l-29 -84q-88 14 -133 65.5t-47 126.5q-2 109 103 197h-525v1434h881v-107h-760z" glyph-name="Eogonek" horiz-adv-x="1167" unicode="Ę"/><glyph d="M1067 580q0 -57 -6 -105h-821q39 -393 387 -393q205 0 352 127l72 -76q-125 -109 -281 -141q-41 -55 -55.5 -92t-14.5 -82q0 -104 99 -123l-27 -84q-178 29 -182 201q-2 86 80 165q-31 -2 -96.5 -2t-152.5 34t-156.5 100.5t-110.5 175t-41 245.5q0 270 133 419t354 149 q150 0 258 -76q208 -146 209 -442zM599 991q-161 0 -261.5 -109.5t-104.5 -299.5h725q-8 182 -103 295.5t-256 113.5z" glyph-name="eogonek" horiz-adv-x="1204" unicode="ę"/><glyph d="M541 1587l-219 207h133l125 -123l131 123h127l-207 -207h-90zM305 1327v-536h678v-111h-678v-565h760v-115h-881v1434h881v-107h-760z" glyph-name="Ecaron" horiz-adv-x="1167" unicode="Ě"/><glyph d="M532 1227l-219 207h133l125 -123l131 123h127l-206 -207h-91zM1067 580q0 -57 -6 -105h-821q39 -393 387 -393q205 0 352 127l72 -76q-180 -158 -445 -158q-202 1 -342 135q-70 66 -110.5 174.5t-40.5 245.5q0 270 133 419t354 149q150 0 258 -76q208 -146 209 -442z M599 991q-161 0 -261.5 -109.5t-104.5 -299.5h725q-8 182 -103 295.5t-256 113.5z" glyph-name="ecaron" horiz-adv-x="1204" unicode="ě"/><glyph d="M768 1575q-92 0 -162.5 59.5t-85.5 159.5h94q12 -63 54.5 -97t99.5 -34t97.5 32.5t52.5 98.5h100q-16 -102 -87 -160.5t-163 -58.5zM809.5 1458q157.5 0 271 -48t209.5 -130l-76 -84q-186 154 -425.5 154t-381 -161t-141.5 -464t143.5 -466t385.5 -163q137 0 243.5 51.5 t163.5 120.5v398h-471v108h592v-553q-188 -244 -549 -244q-263 0 -442 179q-88 88 -138.5 235.5t-50.5 331.5t50.5 323.5t137.5 228.5t204 136t274.5 47z" glyph-name="Gbreve" horiz-adv-x="1519" unicode="Ğ"/><glyph d="M612.5 1214q-92.5 0 -162 59.5t-85.5 160.5h94q12 -63 54 -97t99 -34t97.5 34t52.5 97h102q-18 -100 -88.5 -160t-163 -60zM1061 1073v-1042q0 -227 -123 -340t-345 -113t-390 129l59 92q141 -109 334 -108q152 0 249 72.5t97 224.5v178q-80 -78 -158.5 -107.5 t-180 -29.5t-186.5 33.5t-153.5 97t-109.5 167t-41 233.5t47 236q48 106 122 170q154 132 343.5 132t320.5 -111h6l43 86h66zM629 991q-158 0 -273.5 -111.5t-115.5 -317.5t106.5 -316.5t287 -110.5t308.5 162v563q-112 131 -313 131z" glyph-name="gbreve" horiz-adv-x="1245" unicode="ğ"/><glyph d="M768 1798q37 0 63.5 -24.5t26.5 -70.5t-26.5 -69.5t-63.5 -23.5t-63.5 23.5t-26.5 69.5t26.5 70.5t63.5 24.5zM809.5 1458q157.5 0 271 -48t209.5 -130l-76 -84q-186 154 -425.5 154t-381 -161t-141.5 -464t143.5 -466t385.5 -163q137 0 243.5 51.5t163.5 120.5v398h-471 v108h592v-553q-188 -244 -549 -244q-263 0 -442 179q-88 88 -138.5 235.5t-50.5 331.5t50.5 323.5t137.5 228.5t204 136t274.5 47z" glyph-name="Gdotaccent" horiz-adv-x="1519" unicode="Ġ"/><glyph d="M613 1438q38 0 65 -24.5t27 -71t-27 -70t-65 -23.5t-64.5 24.5t-26.5 70t26.5 70t64.5 24.5zM1061 1073v-1042q0 -227 -123 -340t-345 -113t-390 129l59 92q141 -109 334 -108q152 0 249 72.5t97 224.5v178q-80 -78 -158.5 -107.5t-180 -29.5t-186.5 33.5t-153.5 97 t-109.5 167t-41 233.5t47 236q48 106 122 170q154 132 343.5 132t320.5 -111h6l43 86h66zM629 991q-158 0 -273.5 -111.5t-115.5 -317.5t106.5 -316.5t287 -110.5t308.5 162v563q-112 131 -313 131z" glyph-name="gdotaccent" horiz-adv-x="1245" unicode="ġ"/><glyph d="M809.5 1458q157.5 0 271 -48t209.5 -130l-76 -84q-186 154 -425.5 154t-381 -161t-141.5 -464t143.5 -466t385.5 -163q137 0 243.5 51.5t163.5 120.5v398h-471v108h592v-553q-188 -244 -549 -244q-263 0 -442 179q-88 88 -138.5 235.5t-50.5 331.5t50.5 323.5 t137.5 228.5t204 136t274.5 47zM807 -403h-72l15 294h129z" glyph-name="Gcommaaccent" horiz-adv-x="1519" unicode="Ģ"/><glyph d="M1061 1073v-1042q0 -227 -123 -340t-345 -113t-390 129l59 92q141 -109 334 -108q152 0 249 72.5t97 224.5v178q-80 -78 -158.5 -107.5t-180 -29.5t-186.5 33.5t-153.5 97t-109.5 167t-41 233.5t47 236q48 106 122 170q154 132 343.5 132t320.5 -111h6l43 86h66zM629 991 q-158 0 -273.5 -111.5t-115.5 -317.5t106.5 -316.5t287 -110.5t308.5 162v563q-112 131 -313 131zM602 -825h-72l15 295h129z" glyph-name="gcommaaccent" horiz-adv-x="1245" unicode="ģ"/><glyph d="M1522 1081h-131v-1081h-121v676h-836v-676h-121v1081h-129v103h129v250h121v-250h836v250h121v-250h131v-103zM1270 1081h-836v-297h836v297z" glyph-name="Hbar" horiz-adv-x="1705" unicode="Ħ"/><glyph d="M659 1098q152 0 258.5 -92.5t106.5 -257.5v-748h-119v717q0 158 -82 216t-194 58q-186 0 -326 -217v-774h-119v1210h-182v90h182v240h117v-240h221v-90h-221v-295q82 96 167 139.5t191 43.5z" glyph-name="hbar" horiz-adv-x="1210" unicode="ħ"/><glyph d="M481 1704h-432v90h432v-90zM326 0h-121v1434h121v-1434z" glyph-name="Imacron" horiz-adv-x="530" unicode="Ī"/><glyph d="M408 1343h-433v91h433v-91zM272 0h-118v1073h118v-1073z" glyph-name="imacron" horiz-adv-x="425" unicode="ī"/><glyph d="M227 -182q0 -104 101 -123l-29 -84q-88 14 -133 65.5t-47 126.5q-2 109 102 197h-16v1434h121v-1434h-21q-45 -59 -61.5 -97t-16.5 -85z" glyph-name="Iogonek" horiz-adv-x="530" unicode="Į"/><glyph d="M244 1270q-37 0 -63.5 24.5t-26.5 69.5t26.5 69.5t63.5 24.5t63.5 -24.5t26.5 -69.5t-26.5 -69.5t-63.5 -24.5zM264 -182q0 -104 98 -123l-28 -84q-88 14 -133 65.5t-47 126.5q-2 109 104 197h-72v1073h115v-1040l12 8l43 -21q-55 -70 -73.5 -111.5t-18.5 -90.5z" glyph-name="iogonek" horiz-adv-x="487" unicode="į"/><glyph d="M266 1798q37 0 63.5 -24.5t26.5 -70.5t-26.5 -69.5t-63.5 -23.5t-63.5 24.5t-26.5 69.5t26.5 69.5t63.5 24.5zM326 0h-121v1434h121v-1434z" glyph-name="Idotaccent" horiz-adv-x="530" unicode="İ"/><glyph d="M272 0h-118v1073h118v-1073z" glyph-name="dotlessi" horiz-adv-x="425" unicode="ı"/><glyph d="M326 0h-121v1434h121v-1434zM1155 475v959h119v-990q0 -319 -158.5 -394t-288 -75t-188.5 13l12 112h1h5l72 -6q169 0 245.5 30t128.5 95.5t52 255.5z" glyph-name="IJ" horiz-adv-x="1458" unicode="Ĳ"/><glyph d="M244 1458q37 0 63.5 -24.5t26.5 -69.5t-26.5 -69.5t-63.5 -24.5t-63.5 24.5t-26.5 69.5t26.5 69.5t63.5 24.5zM749 1436q38 0 64.5 -23.5t26.5 -69t-27 -70t-65 -24.5t-63.5 23.5t-25.5 70t26 70t64 23.5zM301 0h-115v1073h115v-1073zM811 1073v-1214q0 -145 -88 -213 t-231 -68q-82 0 -136 19l21 102q39 -14 100 -14q109 0 162 50t53 169v1169h119z" glyph-name="ij" horiz-adv-x="995" unicode="ĳ"/><glyph d="M305 0h-121v1434h121v-742l690 742h150l-643 -678l692 -756h-164l-612 668l-113 -119v-549zM584 -109h127l-72 -294h-70z" glyph-name="Kcommaaccent" horiz-adv-x="1255" unicode="Ķ"/><glyph d="M303 0h-119v1540h119v-1030l477 563h164l-407 -457l491 -616h-164l-407 524l-154 -172v-352zM459 -109h127l-72 -294h-70z" glyph-name="kcommaaccent" horiz-adv-x="1058" unicode="ķ"/><glyph d="M268 1569h-110l155 225h181zM305 106h707v-106h-828v1434h121v-1328z" glyph-name="Lacute" horiz-adv-x="1120" unicode="Ĺ"/><glyph d="M262 1675h-110l155 226h180zM303 0h-119v1540h119v-1540z" glyph-name="lacute" horiz-adv-x="487" unicode="ĺ"/><glyph d="M305 106h707v-106h-828v1434h121v-1328zM516 -403h-72l15 294h127z" glyph-name="Lcommaaccent" horiz-adv-x="1120" unicode="Ļ"/><glyph d="M303 0h-119v1540h119v-1540zM242 -403h-70l14 294h127z" glyph-name="lcommaaccent" horiz-adv-x="487" unicode="ļ"/><glyph d="M305 106h707v-106h-828v1434h121v-1328zM598 1137h-72l15 295h127z" glyph-name="Lcaron" horiz-adv-x="1120" unicode="Ľ"/><glyph d="M303 0h-119v1540h119v-1540zM471 1245h-72l15 295h129z" glyph-name="lcaron" horiz-adv-x="436" unicode="ľ"/><glyph d="M305 106h707v-106h-828v1434h121v-1328zM681 915q48 0 81 -28.5t33 -87.5t-33 -89t-81 -30t-81 30q-33 28 -33 88t33 88.5t81 28.5z" glyph-name="Ldot" horiz-adv-x="1120" unicode="Ŀ"/><glyph d="M303 0h-119v1540h119v-1540zM503 932q48 0 80.5 -30t32.5 -88t-32.5 -89t-80.5 -31t-81 31t-33 89t33 88t81 30z" glyph-name="ldot" horiz-adv-x="555" unicode="ŀ"/><glyph d="M350 106h701v-106h-820v674l-192 -88v108l192 82v658h119v-598l295 129v-105l-295 -127v-627z" glyph-name="Lslash" horiz-adv-x="1157" unicode="Ł"/><glyph d="M348 0h-119v778l-168 -92v113l168 92v649h119v-584l193 107v-111l-193 -106v-846z" glyph-name="lslash" horiz-adv-x="602" unicode="ł"/><glyph d="M764 1569h-113l156 225h180zM1305 0h-107l-893 1221v-1221h-121v1434h109l891 -1219v1219h121v-1434z" glyph-name="Nacute" horiz-adv-x="1488" unicode="Ń"/><glyph d="M631 1208h-113l156 226h180zM694.5 1098q147.5 0 238.5 -89t91 -261v-748h-119v717q0 152 -60.5 213t-174.5 61q-227 0 -371 -221v-770h-115v1073h88l17 -168h4q80 94 167 143.5t234.5 49.5z" glyph-name="nacute" horiz-adv-x="1210" unicode="ń"/><glyph d="M1305 0h-107l-893 1221v-1221h-121v1434h109l891 -1219v1219h121v-1434zM721 -403h-72l15 294h127z" glyph-name="Ncommaaccent" horiz-adv-x="1488" unicode="Ņ"/><glyph d="M694.5 1098q147.5 0 238.5 -89t91 -261v-748h-119v717q0 152 -60.5 213t-174.5 61q-227 0 -371 -221v-770h-115v1073h88l17 -168h4q80 94 167 143.5t234.5 49.5zM586 -403h-70l14 294h127z" glyph-name="ncommaaccent" horiz-adv-x="1210" unicode="ņ"/><glyph d="M678 1587l-219 207h133l123 -123l133 123h125l-205 -207h-90zM1305 1434v-1434h-107l-893 1221v-1221h-121v1434h109l891 -1219v1219h121z" glyph-name="Ncaron" horiz-adv-x="1488" unicode="Ň"/><glyph d="M545 1227l-219 207h133l123 -123l133 123h125l-205 -207h-90zM694.5 1098q147.5 0 238.5 -89t91 -261v-748h-119v717q0 152 -60.5 213t-174.5 61q-227 0 -371 -221v-770h-115v1073h88l17 -168h4q80 94 167 143.5t234.5 49.5z" glyph-name="ncaron" horiz-adv-x="1210" unicode="ň"/><glyph d="M305 0h-121v1434h109l891 -1219v1219h121l-2 -1434q-17 -280 -215 -366q-112 -48 -235.5 -48t-184.5 13l12 112h11l41 -4l28 -2q256 0 334.5 82t89.5 236l-879 1198v-1221z" glyph-name="Eng" horiz-adv-x="1488" unicode="Ŋ"/><glyph d="M668 1098q174 0 265 -88t91 -262v-889q0 -145 -88 -213t-231 -68q-80 0 -148 19l33 102q33 -14 121 -14t141 50t53 169v813q0 152 -60.5 213t-176.5 61q-225 0 -369 -221v-770h-115v1073h88l19 -168h2q78 92 166 142.5t209 50.5z" glyph-name="eng" horiz-adv-x="1210" unicode="ŋ"/><glyph d="M1012 1704h-434v90h434v-90zM815 1458q100 0 195.5 -26.5t181.5 -85t150.5 -142.5t103.5 -209t39 -293t-58.5 -315t-154.5 -234t-213 -132.5t-244 -45.5t-243.5 45.5t-214 132.5t-156 234.5t-58.5 315.5t39 292.5t103.5 208.5t151.5 142.5t182.5 85t195.5 26.5zM814 1350 q-112 0 -209 -39t-174 -115t-121 -197.5t-44 -274.5t44 -275.5t159 -243.5t339 -121t344 117.5t165 241.5t45 279t-44 276.5t-121 197.5t-174 115t-209 39z" glyph-name="Omacron" horiz-adv-x="1628" unicode="Ō"/><glyph d="M817 1343h-432v91h432v-91zM622.5 1098q102.5 0 191.5 -33t162 -99.5t115 -176t42 -253t-42 -253t-115 -176t-162 -99.5t-191.5 -33t-191.5 33t-161.5 99.5t-114.5 176t-42 253t42 253t114.5 176t161.5 99.5t191.5 33zM623 991q-176 0 -281.5 -120.5t-105.5 -333.5 t105 -334t282 -121q176 0 281.5 122t105.5 333t-105.5 332.5t-281.5 121.5z" glyph-name="omacron" horiz-adv-x="1245" unicode="ō"/><glyph d="M702 1571h-90l35 223h164zM920 1571h-91l117 223h164zM815 1458q100 0 195.5 -26.5t181.5 -85t150.5 -142.5t103.5 -209t39 -293t-58.5 -315t-154.5 -234t-213 -132.5t-244 -45.5t-243.5 45.5t-214 132.5t-156 234.5t-58.5 315.5t39 292.5t103.5 208.5t151.5 142.5 t182.5 85t195.5 26.5zM814 1350q-112 0 -209 -39t-174 -115t-121 -197.5t-44 -274.5t44 -275.5t159 -243.5t339 -121t344 117.5t165 241.5t45 279t-44 276.5t-121 197.5t-174 115t-209 39z" glyph-name="Ohungarumlaut" horiz-adv-x="1628" unicode="Ő"/><glyph d="M510 1210h-90l35 224h163zM727 1210h-90l117 224h164zM622.5 1098q102.5 0 191.5 -33t162 -99.5t115 -176t42 -253t-42 -253t-115 -176t-162 -99.5t-191.5 -33t-191.5 33t-161.5 99.5t-114.5 176t-42 253t42 253t114.5 176t161.5 99.5t191.5 33zM623 991 q-176 0 -281.5 -120.5t-105.5 -333.5t105 -334t282 -121q176 0 281.5 122t105.5 333t-105.5 332.5t-281.5 121.5z" glyph-name="ohungarumlaut" horiz-adv-x="1245" unicode="ő"/><glyph d="M1642 1333h-626v-553h543v-104h-543v-576h626v-100h-794q-322 0 -513.5 188.5t-191.5 529.5t192.5 528.5t520.5 187.5h786v-101zM897 1333h-53q-268 0 -421 -168.5t-153 -448.5t151.5 -448t422.5 -168h53v1233z" glyph-name="OE" horiz-adv-x="1744" unicode="Œ"/><glyph d="M1118 494q0 -106 35 -186.5t76 -123.5t109.5 -72.5t156.5 -29.5q197 0 342 135l68 -84q-174 -158 -406 -158q-156 0 -276.5 72t-178.5 215q-47 -139 -173 -213t-269 -74q-207 0 -348 149.5t-141 412t141 412t350 149.5q141 0 264 -74t176 -219q45 147 162 220t247 73 q247 0 364.5 -154.5t117.5 -343.5v-6l-1 -46q-1 -40 -3 -54h-813zM610 82q172 0 271.5 121t99.5 333t-99.5 333.5t-271.5 121.5t-275.5 -121.5t-103.5 -332.5t103.5 -333t275.5 -122zM1464 991q-154 0 -246 -103.5t-100 -287.5h690q-4 178 -97 284.5t-247 106.5z" glyph-name="oe" horiz-adv-x="2074" unicode="œ"/><glyph d="M651 1569h-112l155 225h180zM305 584v-584h-121v1434h465q367 0 453 -250q24 -68 24 -152q0 -156 -73.5 -272.5t-227.5 -157.5l367 -602h-137l-355 584h-395zM305 692h379q152 0 233.5 91t81.5 239t-86 226.5t-284 78.5h-324v-635z" glyph-name="Racute" horiz-adv-x="1296" unicode="Ŕ"/><glyph d="M436 1208h-110l155 226h181zM560 1098q81 0 114 -23l-21 -108q-53 14 -108 14q-168 0 -246 -231v-750h-115v1073h90l23 -158h6q35 90 105.5 136.5t151.5 46.5z" glyph-name="racute" horiz-adv-x="714" unicode="ŕ"/><glyph d="M305 584v-584h-121v1434h465q367 0 453 -250q24 -68 24 -152q0 -156 -73.5 -272.5t-227.5 -157.5l367 -602h-137l-355 584h-395zM305 692h379q152 0 233.5 91t81.5 239t-86 226.5t-284 78.5h-324v-635zM551 -109h127l-72 -294h-69z" glyph-name="Rcommaaccent" horiz-adv-x="1296" unicode="Ŗ"/><glyph d="M561 1098q82 0 113 -23l-21 -108q-53 14 -108 14q-168 0 -246 -231v-750h-115v1073h90l23 -158h6q35 90 105.5 136.5t152.5 46.5zM244 -403h-72l14 294h127z" glyph-name="rcommaaccent" horiz-adv-x="714" unicode="ŗ"/><glyph d="M565 1587l-219 207h133l123 -123l133 123h125l-205 -207h-90zM305 584v-584h-121v1434h465q367 0 453 -250q24 -68 24 -152q0 -156 -73.5 -272.5t-227.5 -157.5l367 -602h-137l-355 584h-395zM305 692h379q152 0 233.5 91t81.5 239t-86 226.5t-284 78.5h-324v-635z" glyph-name="Rcaron" horiz-adv-x="1296" unicode="Ř"/><glyph d="M352 1227l-219 207h133l123 -123l133 123h125l-207 -207h-88zM561 1098q82 0 113 -23l-21 -108q-53 14 -108 14q-168 0 -246 -231v-750h-115v1073h90l23 -158h6q35 90 105.5 136.5t152.5 46.5z" glyph-name="rcaron" horiz-adv-x="714" unicode="ř"/><glyph d="M592 1569h-111l156 223h180zM586 1458q100 0 192 -22.5t139.5 -46t108.5 -60.5l-53 -94q-184 119 -383 119q-152 0 -241 -68.5t-89 -189.5q0 -84 56 -138q30 -30 56.5 -51.5t127 -71.5t194.5 -81q190 -80 280.5 -162t90.5 -217q0 -178 -128 -289t-355 -111 q-121 0 -247 35t-222 96l51 99q88 -53 198.5 -84t210.5 -31q188 0 279.5 75t91.5 189.5t-89 182t-277 139.5q-63 27 -98.5 41t-89.5 40.5t-84 48.5q-90 64 -129.5 133t-39.5 163q0 156 122 256t327 100z" glyph-name="Sacute" horiz-adv-x="1155" unicode="Ś"/><glyph d="M522 1208h-112l155 226h180zM500 1098q102 0 194 -31t156 -80l-59 -90q-152 94 -279 94t-196.5 -51t-69.5 -131q0 -101 111 -155q65 -32 109 -44t74.5 -22t54 -18.5t65.5 -25t66 -30.5q136 -79 136 -220.5t-105.5 -230t-295.5 -88.5q-92 0 -189.5 32t-165.5 87l52 103 q55 -51 138 -83t161 -32q137 0 209.5 57.5t72.5 141t-66.5 123t-103.5 50.5q-261 79 -350.5 149t-89.5 203.5t105.5 212.5t265.5 79z" glyph-name="sacute" horiz-adv-x="960" unicode="ś"/><glyph d="M475 -324q148 23 148 93.5t-66 70.5q-23 0 -39 -8l-57 49l59 96q-231 18 -407 129l51 99q88 -53 198.5 -84t210.5 -31q188 0 279.5 75t91.5 189.5t-89 182t-277 139.5q-63 27 -98.5 41t-89.5 40.5t-84 48.5q-90 64 -129.5 133t-39.5 163q0 156 122 256t327 100 q100 0 192 -22.5t139.5 -46t108.5 -60.5l-53 -94q-184 119 -383 119q-152 0 -241 -68.5t-89 -189.5q0 -84 56 -138q30 -30 56.5 -51.5t127 -71.5t194.5 -81q190 -80 280.5 -162t90.5 -217q0 -174 -123 -284.5t-342 -115.5l-35 -51q68 4 114 -39t46 -106q0 -154 -223 -176z " glyph-name="Scedilla" horiz-adv-x="1155" unicode="Ş"/><glyph d="M406 -324q147 23 147 93.5t-66 70.5q-23 0 -38 -8l-58 49l58 94q-90 2 -183.5 34t-159.5 85l52 103q55 -51 138 -83t161 -32q137 0 209.5 57.5t72.5 141t-66.5 123t-103.5 50.5q-261 79 -350.5 149t-89.5 203.5t105.5 212.5t265.5 79q102 0 194 -31t156 -80l-59 -90 q-152 94 -279 94t-196.5 -51t-69.5 -131q0 -101 111 -155q65 -32 109 -44t74.5 -22t54 -18.5t65.5 -25t66 -30.5q136 -79 136 -213.5t-86 -219.5t-244 -101l-36 -56q68 4 114.5 -39t46.5 -106q0 -154 -225 -176z" glyph-name="scedilla" horiz-adv-x="960" unicode="ş"/><glyph d="M508 1587l-219 205h131l125 -121l133 121h125l-207 -205h-88zM1065 375q0 -178 -128 -289t-355 -111q-121 0 -247 35t-222 96l51 99q88 -53 198.5 -84t210.5 -31q188 0 279.5 75t91.5 189.5t-89 182t-277 139.5q-63 27 -98.5 41t-89.5 40.5t-84 48.5q-90 64 -129.5 133 t-39.5 163q0 156 122 256t327 100q100 0 192 -22.5t139.5 -46t108.5 -60.5l-53 -94q-184 119 -383 119q-152 0 -241 -68.5t-89 -189.5q0 -84 56 -138q30 -30 56.5 -51.5t127 -71.5t194.5 -81q190 -80 280.5 -162t90.5 -217z" glyph-name="Scaron" horiz-adv-x="1155" unicode="Š"/><glyph d="M436 1227l-219 207h133l123 -123l133 123h125l-205 -207h-90zM756.5 63.5q-105.5 -88.5 -295.5 -88.5q-92 0 -189.5 32t-165.5 87l52 103q55 -51 138 -83t161 -32q137 0 209.5 57.5t72.5 141t-66.5 123t-103.5 50.5q-261 79 -350.5 149t-89.5 203.5t105.5 212.5t265.5 79 q102 0 194 -31t156 -80l-59 -90q-152 94 -279 94t-196.5 -51t-69.5 -131q0 -101 111 -155q65 -32 109 -44t74.5 -22t54 -18.5t65.5 -25t66 -30.5q136 -79 136 -220.5t-105.5 -230z" glyph-name="scaron" horiz-adv-x="960" unicode="š"/><glyph d="M543 -324q147 23 147 93.5t-65 70.5q-23 0 -39 -8l-58 49l74 119h-8v1325h-492v109h1106v-109h-493v-1325h-31l-51 -76q68 4 115 -39t47 -106q0 -154 -226 -176z" glyph-name="Tcommaaccent" horiz-adv-x="1310" unicode="Ţ"/><glyph d="M369 190q0 -108 102 -108q51 0 131 37l37 -94q-90 -49 -180 -50q-29 1 -56 5l-36 -56q68 4 114.5 -39t46.5 -106q0 -154 -225 -176l-27 73q148 23 148 93.5t-66 70.5q-23 0 -39 -8l-57 49l76 121q-88 47 -88 174v797h-189v100h189v176l65 99h54v-275h264v-100h-264v-783z " glyph-name="tcommaaccent" horiz-adv-x="727" unicode="ţ"/><glyph d="M608 1587l-219 207h133l123 -123l133 123h125l-205 -207h-90zM1208 1434v-109h-493v-1325h-121v1325h-492v109h1106z" glyph-name="Tcaron" horiz-adv-x="1310" unicode="Ť"/><glyph d="M518 1280h-72l15 295h129zM369 190q0 -108 102 -108q51 0 131 37l37 -94q-90 -49 -185 -49.5t-149.5 50t-54.5 150.5v797h-189v100h189v176l65 99h54v-275h264v-100h-264v-783z" glyph-name="tcaron" horiz-adv-x="727" unicode="ť"/><glyph d="M879 1704h-435v90h435v-90zM1208 1325h-493v-1325h-121v1325h-492v109h1106v-109z" glyph-name="Tbar" horiz-adv-x="1310" unicode="Ŧ"/><glyph d="M369 190q0 -108 102 -108q51 0 131 37l37 -94q-90 -49 -185 -49.5t-149.5 50t-54.5 150.5v436h-154v88h154v273h-189v100h189v176l65 99h54v-275h264v-100h-264v-273h159v-88h-159v-422z" glyph-name="tbar" horiz-adv-x="727" unicode="ŧ"/><glyph d="M918 1704h-435v90h435v-90zM1243 1434v-918q0 -283 -156 -412t-373.5 -129t-329.5 93.5t-156 200t-44 247.5v918h121v-932q0 -193 107.5 -300.5t302.5 -107.5t301 107.5t106 300.5v932h121z" glyph-name="Umacron" horiz-adv-x="1427" unicode="Ū"/><glyph d="M827 1343h-434v91h434v-91zM1014 0h-92l-25 162h-6q-154 -186 -375 -187q-145 0 -238.5 91.5t-93.5 291.5v715h119v-688q0 -303 227 -303q111 0 193 55.5t172 151.5v784h119v-1073z" glyph-name="umacron" horiz-adv-x="1200" unicode="ū"/><glyph d="M700 1862q61 0 104.5 -36t43.5 -105.5t-43 -104.5t-105 -35t-105.5 35t-43.5 104.5t44 105.5t105 36zM699 1796q-32 0 -51 -20.5t-19 -54.5t20.5 -54t51 -20t50 20.5t19.5 53t-19.5 54t-51.5 21.5zM1243 1434v-918q0 -283 -156 -412t-373.5 -129t-329.5 93.5t-156 200 t-44 247.5v918h121v-932q0 -193 107.5 -300.5t302.5 -107.5t301 107.5t106 300.5v932h121z" glyph-name="Uring" horiz-adv-x="1427" unicode="Ů"/><glyph d="M609 1501q60 0 104.5 -35.5t44.5 -105.5t-43 -104.5t-105 -34.5t-105.5 34.5t-43.5 104.5t44 105.5t104 35.5zM609 1436q-32 0 -51 -20.5t-19 -54.5t20.5 -54.5t51 -20.5t50 20.5t19.5 53.5t-19.5 54.5t-51.5 21.5zM1014 0h-92l-25 162h-6q-154 -186 -375 -187 q-145 0 -238.5 91.5t-93.5 291.5v715h119v-688q0 -303 227 -303q111 0 193 55.5t172 151.5v784h119v-1073z" glyph-name="uring" horiz-adv-x="1200" unicode="ů"/><glyph d="M608 1571h-90l35 223h164zM827 1571h-92l117 223h164zM1243 1434v-918q0 -283 -156 -412t-373.5 -129t-329.5 93.5t-156 200t-44 247.5v918h121v-932q0 -193 107.5 -300.5t302.5 -107.5t301 107.5t106 300.5v932h121z" glyph-name="Uhungarumlaut" horiz-adv-x="1427" unicode="Ű"/><glyph d="M518 1210h-90l35 224h164zM737 1210h-92l117 224h164zM1014 0h-92l-25 162h-6q-154 -186 -375 -187q-145 0 -238.5 91.5t-93.5 291.5v715h119v-688q0 -303 227 -303q111 0 193 55.5t172 151.5v784h119v-1073z" glyph-name="uhungarumlaut" horiz-adv-x="1200" unicode="ű"/><glyph d="M1243 1434v-918q0 -203 -85 -329t-228 -177q-51 -63 -68.5 -103t-17.5 -89q0 -104 98 -123l-29 -84q-176 29 -180 203q-2 88 84 170q-277 -45 -411 66.5t-178 218t-44 247.5v918h121v-932q0 -193 107.5 -300.5t302.5 -107.5t301 107.5t106 300.5v932h121z" glyph-name="Uogonek" horiz-adv-x="1427" unicode="Ų"/><glyph d="M954 -182q0 -104 101 -123l-29 -84q-88 14 -134 65.5t-48 126.5q-2 109 104 197h-26l-25 162h-6q-154 -186 -375 -187q-145 0 -238.5 91.5t-93.5 291.5v715h119v-688q0 -303 227 -303q111 0 193 55.5t172 151.5v784h119v-1036l35 -17q-55 -70 -75 -111.5t-20 -90.5z" glyph-name="uogonek" horiz-adv-x="1200" unicode="ų"/><glyph d="M881 1591h-142l230 217h69l215 -217h-133l-123 109zM2003 1434l-436 -1434h-150l-389 1260l-385 -1260h-149l-433 1434h129l379 -1289l394 1289h145l385 -1287l383 1287h127z" glyph-name="Wcircumflex" horiz-adv-x="2062" unicode="Ŵ"/><glyph d="M639 1231h-141l229 217h68l217 -217h-133l-123 108zM1536 1073l-373 -1073h-98l-295 877l-301 -877h-98l-334 1073h127l262 -907l305 907h92l293 -917l305 917h115z" glyph-name="wcircumflex" horiz-adv-x="1572" unicode="ŵ"/><glyph d="M516 1591h-141l229 217h68l217 -217h-133l-123 109zM694 0h-121v573l-503 861h145l422 -750l416 750h141l-500 -861v-573z" glyph-name="Ycircumflex" horiz-adv-x="1331" unicode="Ŷ"/><glyph d="M430 1231h-141l229 217h68l217 -217h-133l-123 108zM256 -422q-82 0 -139 21l22 94q45 -17 115 -17t137.5 61.5t106.5 166.5l24 65l-461 1104h127l387 -971h9l352 971h119l-424 -1139q-131 -356 -375 -356z" glyph-name="ycircumflex" horiz-adv-x="1116" unicode="ŷ"/><glyph d="M476 1798q40 0 64.5 -23.5t24.5 -66.5t-24.5 -66.5t-64.5 -23.5t-63.5 23.5t-23.5 65.5t23.5 66.5t63.5 24.5zM805 1798q41 0 63.5 -24.5t22.5 -66.5t-22.5 -65.5t-63.5 -23.5t-64.5 23.5t-23.5 66.5t23.5 66.5t64.5 23.5zM694 0h-121v573l-503 861h145l422 -750l416 750 h141l-500 -861v-573z" glyph-name="Ydieresis" horiz-adv-x="1331" unicode="Ÿ"/><glyph d="M690 1569h-112l155 225h180zM1200 109v-109h-1063v113l885 1212h-836v109h973v-103l-885 -1222h926z" glyph-name="Zacute" horiz-adv-x="1353" unicode="Ź"/><glyph d="M475 1208h-110l155 226h180zM874 104v-104h-792v96l631 869h-609v108h752v-106l-643 -863h661z" glyph-name="zacute" horiz-adv-x="956" unicode="ź"/><glyph d="M658 1798q38 0 65 -24.5t27 -70.5t-27 -69.5t-65 -23.5t-64.5 23.5t-26.5 69.5t26.5 70.5t64.5 24.5zM1200 109v-109h-1063v113l885 1212h-836v109h973v-103l-885 -1222h926z" glyph-name="Zdotaccent" horiz-adv-x="1353" unicode="Ż"/><glyph d="M444 1438q37 0 64 -24.5t27 -71t-27 -70t-64 -23.5t-63.5 24.5t-26.5 70t26.5 70t63.5 24.5zM874 104v-104h-792v96l631 869h-609v108h752v-106l-643 -863h661z" glyph-name="zdotaccent" horiz-adv-x="956" unicode="ż"/><glyph d="M604 1587l-219 207h133l125 -123l131 123h127l-207 -207h-90zM1200 109v-109h-1063v113l885 1212h-836v109h973v-103l-885 -1222h926z" glyph-name="Zcaron" horiz-adv-x="1353" unicode="Ž"/><glyph d="M391 1227l-219 207h131l125 -123l133 123h125l-207 -207h-88zM874 104v-104h-792v96l631 869h-609v108h752v-106l-643 -863h661z" glyph-name="zcaron" horiz-adv-x="956" unicode="ž"/><glyph d="M680 1565q90 0 137 -19l-22 -102q-39 14 -122 14t-132 -42t-49 -122v-221h288v-92h-288v-930q0 -147 -83 -213.5t-225 -66.5q-68 0 -141 18l25 102q47 -14 104 -14q199 0 199 164v940h-178v92h178v211q0 147 84 214t225 67z" glyph-name="florin" horiz-adv-x="919" unicode="ƒ"/><glyph d="M586 1458q100 0 192 -22.5t139.5 -46t108.5 -60.5l-53 -94q-184 119 -383 119q-152 0 -241 -68.5t-89 -189.5q0 -84 56 -138q30 -30 56.5 -51.5t127 -71.5t194.5 -81q190 -80 280.5 -162t90.5 -217q0 -178 -128 -289t-355 -111q-121 0 -247 35t-222 96l51 99 q88 -53 198.5 -84t210.5 -31q188 0 279.5 75t91.5 189.5t-89 182t-277 139.5q-63 27 -98.5 41t-89.5 40.5t-84 48.5q-90 64 -129.5 133t-39.5 163q0 156 122 256t327 100zM575 -403h-71l14 294h127z" glyph-name="Scommaaccent" horiz-adv-x="1155" unicode="Ș"/><glyph d="M500 1098q102 0 194 -31t156 -80l-59 -90q-152 94 -279 94t-196.5 -51t-69.5 -131q0 -101 111 -155q65 -32 109 -44t74.5 -22t54 -18.5t65.5 -25t66 -30.5q136 -79 136 -220.5t-105.5 -230t-295.5 -88.5q-92 0 -189.5 32t-165.5 87l52 103q55 -51 138 -83t161 -32 q137 0 209.5 57.5t72.5 141t-64 121.5t-102 50.5t-75 24.5q-36 12 -88 31q-132 49 -194 97q-87 68 -87 201.5t105.5 212.5t265.5 79zM506 -403h-72l15 294h129z" glyph-name="scommaaccent" horiz-adv-x="960" unicode="ș"/><glyph d="M1208 1325h-493v-1325h-121v1325h-492v109h1106v-109zM643 -403h-72l15 294h129z" glyph-name="uni021A" horiz-adv-x="1310" unicode="Ț"/><glyph d="M369 190q0 -108 102 -108q51 0 131 37l37 -94q-90 -49 -185 -49.5t-149.5 50t-54.5 150.5v797h-189v100h189v176l65 99h54v-275h264v-100h-264v-783zM377 -403h-70l15 294h127z" glyph-name="uni021B" horiz-adv-x="727" unicode="ț"/><glyph d="M430 1231l-123 108l-119 -108h-139l230 217h67l217 -217h-133z" glyph-name="circumflex" horiz-adv-x="612" unicode="ˆ"/><glyph d="M563 1434l-207 -207h-88l-219 207h131l125 -123l133 123h125z" glyph-name="caron" horiz-adv-x="612" unicode="ˇ"/><glyph d="M305 1214q-92 0 -162.5 58.5t-85.5 161.5h95q12 -66 54 -98.5t99 -32.5t97.5 32.5t52.5 98.5h102q-18 -102 -89 -161t-163 -59z" glyph-name="breve" horiz-adv-x="614" unicode="˘"/><glyph d="M244 1438q37 0 63.5 -24.5t26.5 -71t-26.5 -70t-63.5 -23.5t-63.5 24.5t-26.5 70t26.5 70t63.5 24.5z" glyph-name="dotaccent" horiz-adv-x="487" unicode="˙"/><glyph d="M307 1501q61 0 104.5 -35.5t43.5 -105.5t-42.5 -104.5t-104.5 -34.5t-105 34.5t-43 104.5t43 105.5t104 35.5zM308 1436q-32 0 -51 -20.5t-19 -54.5t19 -54.5t51 -20.5t51.5 20.5t19.5 53.5t-19.5 54.5t-51.5 21.5z" glyph-name="ring" horiz-adv-x="612" unicode="˚"/><glyph d="M170 -203q0 -104 100 -123l-28 -84q-88 14 -133.5 64.5t-47.5 128.5q-2 131 160 237l43 -20q-55 -70 -74.5 -112t-19.5 -91z" glyph-name="ogonek" horiz-adv-x="352" unicode="˛"/><glyph d="M423 1247q-50 0 -113.5 37t-100.5 37q-72 0 -113 -80l-67 35q27 76 75 111.5t98 35.5t116.5 -36.5t99.5 -36.5q57 0 100 88l66 -43q-23 -70 -67 -109t-94 -39z" glyph-name="tilde" horiz-adv-x="612" unicode="˜"/><glyph d="M152 1210h-91l35 224h164zM369 1210h-90l116 224h164z" glyph-name="hungarumlaut" horiz-adv-x="612" unicode="˝"/><glyph d="M279 -403h-72l14 294h129z" glyph-name="uni0326" horiz-adv-x="0" unicode="̦"/><glyph d="M1044 0h-92l-24 158h-6q-76 -94 -146.5 -138.5t-177.5 -44.5q-219 0 -293 103v-473h-121v1468h119v-715q0 -133 85 -204.5t210 -71.5q186 0 328 217v774h118v-1073z" glyph-name="mu" horiz-adv-x="1230" unicode="μ"/><glyph d="M1090 1569h-111l-231 225h184zM1567 0h-150l-389 1260l-385 -1260h-149l-433 1434h129l379 -1289l394 1289h145l385 -1287l383 1287h127z" glyph-name="Wgrave" horiz-adv-x="2062" unicode="Ẁ"/><glyph d="M737 1208l-231 226h184l158 -226h-111zM1536 1073l-373 -1073h-98l-295 877l-301 -877h-98l-334 1073h127l262 -907l305 907h92l293 -917l305 917h115z" glyph-name="wgrave" horiz-adv-x="1572" unicode="ẁ"/><glyph d="M1042 1569h-112l155 225h181zM1567 0h-150l-389 1260l-385 -1260h-149l-433 1434h129l379 -1289l394 1289h145l385 -1287l383 1287h127z" glyph-name="Wacute" horiz-adv-x="2062" unicode="Ẃ"/><glyph d="M801 1208h-113l156 226h180zM1536 1073l-373 -1073h-98l-295 877l-301 -877h-98l-334 1073h127l262 -907l305 907h92l293 -917l305 917h115z" glyph-name="wacute" horiz-adv-x="1572" unicode="ẃ"/><glyph d="M841 1798q40 0 64.5 -23.5t24.5 -66.5t-23.5 -66.5t-64.5 -23.5t-64.5 23.5t-23.5 65.5t23.5 66.5t63.5 24.5zM1169 1798q41 0 63.5 -24.5t22.5 -66.5t-22.5 -65.5t-63.5 -23.5t-64.5 23.5t-23.5 66.5t23.5 66.5t64.5 23.5zM1567 0h-150l-389 1260l-385 -1260h-149 l-433 1434h129l379 -1289l394 1289h145l385 -1287l383 1287h127z" glyph-name="Wdieresis" horiz-adv-x="2062" unicode="Ẅ"/><glyph d="M599 1257q-40 0 -63.5 24t-23.5 66t23.5 66.5t63.5 24.5t64.5 -23.5t24.5 -66.5t-24.5 -67t-64.5 -24zM928 1257q-41 0 -64.5 24t-23.5 67t23.5 66.5t64.5 23.5t63.5 -24.5t22.5 -66.5t-22.5 -66t-63.5 -24zM1536 1073l-373 -1073h-98l-295 877l-301 -877h-98l-334 1073 h127l262 -907l305 907h92l293 -917l305 917h115z" glyph-name="wdieresis" horiz-adv-x="1572" unicode="ẅ"/><glyph d="M1204 365q0 -168 -123 -279t-287 -111t-286 60l31 104q43 -20 111.5 -35.5t123.5 -15.5q131 0 216 75t85 189t-106.5 204.5t-382.5 86.5v111l358 313q0 125 -86 204t-226 79t-232.5 -80t-92.5 -240v-1030h-123v1053q0 182 128 293.5t329 111.5t315.5 -112.5t114.5 -305.5 l-334 -290q186 -8 286.5 -76t140.5 -142.5t40 -166.5z" glyph-name="uni1E9E" horiz-adv-x="1347" unicode="ẞ"/><glyph d="M725 1569h-111l-231 225h184zM694 0h-121v573l-503 861h145l422 -750l416 750h141l-500 -861v-573z" glyph-name="Ygrave" horiz-adv-x="1331" unicode="Ỳ"/><glyph d="M528 1208l-231 226h184l158 -226h-111zM256 -422q-82 0 -139 21l22 94q45 -17 115 -17t137.5 61.5t106.5 166.5l24 65l-461 1104h127l387 -971h9l352 971h119l-424 -1139q-131 -356 -375 -356z" glyph-name="ygrave" horiz-adv-x="1116" unicode="ỳ"/><glyph glyph-name="uni2009" horiz-adv-x="102" unicode=" "/><glyph d="M1075 479h-907v107h907v-107z" glyph-name="endash" horiz-adv-x="1249" unicode="–"/><glyph d="M1761 479h-1595v107h1595v-107z" glyph-name="emdash" horiz-adv-x="1878" unicode="—"/><glyph d="M281 1180q0 -49 -31 -78t-80 -29t-79 37t-30 94q0 150 170 254l29 -28q-19 -13 -47.5 -59t-32.5 -75q43 -8 72 -37.5t29 -78.5z" glyph-name="quoteleft" horiz-adv-x="423" unicode="‘"/><glyph d="M253 1458q50 0 78.5 -37t28.5 -94q0 -150 -170 -254l-28 29q23 15 49.5 58.5t30.5 74.5q-43 8 -72 38t-29 79t31 77.5t81 28.5z" glyph-name="quoteright" horiz-adv-x="501" unicode="’"/><glyph d="M256 211q49 0 77.5 -36t28.5 -93q0 -150 -167 -254l-31 27q72 72 80 129q-43 6 -72 38.5t-29 81.5t32 78t81 29z" glyph-name="quotesinglbase" horiz-adv-x="423" unicode="‚"/><glyph d="M559 1181q0 -48 -30.5 -78t-79.5 -30t-79 37t-30 94q0 150 170 254l29 -28q-21 -14 -48.5 -57.5t-29.5 -74.5q41 -4 69.5 -36.5t28.5 -80.5zM281 1181q0 -48 -31 -78t-81 -30t-79 37t-29 94q0 150 170 254l29 -28q-72 -72 -80 -134q43 -8 72 -37.5t29 -77.5z" glyph-name="quotedblleft" horiz-adv-x="702" unicode="“"/><glyph d="M256 1458q49 0 79 -37t30 -94q0 -150 -170 -254l-31 29l18 18q17 17 37.5 50.5t24.5 62.5q-41 6 -71 39t-30 81t32 76.5t81 28.5zM534 1458q49 0 79 -37t30 -94q0 -150 -170 -254l-31 29q25 19 51.5 61.5t28.5 71.5q-43 8 -71.5 38t-28.5 79t31.5 77.5t80.5 28.5z" glyph-name="quotedblright" horiz-adv-x="702" unicode="”"/><glyph d="M256 211q49 0 79 -36t30 -93q0 -150 -170 -254l-31 27q6 6 20.5 20t35 48t24.5 63q-41 6 -71 38.5t-30 80.5t32 77t81 29zM534 211q49 0 79 -36t30 -93q0 -150 -170 -254l-31 29q26 17 52 59.5t28 73.5q-43 6 -71.5 36.5t-28.5 78.5t31.5 77t80.5 29z" glyph-name="quotedblbase" horiz-adv-x="702" unicode="„"/><glyph d="M766 971h-287v-971h-119v971h-284v102h284v361h119v-361h287v-102z" glyph-name="dagger" horiz-adv-x="841" unicode="†"/><glyph d="M524 967v-250h269v-107h-269v-610h-116v610h-269v107h269v250h-269v106h269v363h116v-363h269v-106h-269z" glyph-name="daggerdbl" horiz-adv-x="933" unicode="‡"/><glyph d="M330 774q68 0 117 -44t49 -127t-49.5 -127t-116.5 -44q-68 0 -117 44t-49 127t49 127t117 44z" glyph-name="bullet" horiz-adv-x="661" unicode="•"/><glyph d="M328 201q49 0 78.5 -31t29.5 -83t-29.5 -82t-78.5 -30t-80 30t-31 82t31 83t80 31zM895 201q49 0 79 -31t30 -83t-30 -82t-79 -30t-80 30t-31 82t31 83t80 31zM1462 201q49 0 79 -31t30 -83t-30 -82t-79 -30t-79.5 30t-30.5 82t30.5 83t79.5 31z" glyph-name="ellipsis" horiz-adv-x="1789" unicode="…"/><glyph d="M376 1458q126 0 208 -83t82 -228t-82 -228t-208 -83t-211 82t-85 228t85 229t211 83zM342 0h-117l963 1434h119zM376 1364q-85 0 -135.5 -57.5t-50.5 -159.5t50.5 -160.5t136.5 -58.5t132 57t46 162q0 104 -47 160.5t-132 56.5zM1138 600q126 0 207.5 -83t81.5 -228.5 t-81.5 -229.5t-207.5 -84t-211 83t-85 230.5t85 229.5t211 82zM1834 600q126 0 208 -83t82 -228.5t-82 -229.5t-208 -84t-212 83t-86 230.5t86 229.5t212 82zM1138 508q-85 0 -135.5 -58.5t-50.5 -161t50.5 -160.5t135.5 -58t132 57t47 160.5t-47 162t-132 58.5zM1833 508 q-86 0 -135 -58.5t-49 -161t49 -160.5t135 -58t132 57t46 160.5t-46 162t-132 58.5z" glyph-name="perthousand" horiz-adv-x="2203" unicode="‰"/><glyph d="M557 819l-244 -295l244 -295l-80 -67l-301 360l297 363z" glyph-name="guilsinglleft" horiz-adv-x="731" unicode="‹"/><glyph d="M571 522l-301 -360l-82 67l246 295l-246 295l86 66z" glyph-name="guilsinglright" horiz-adv-x="757" unicode="›"/><glyph d="M547 1524l-574 -1768h-96l576 1768h94z" glyph-name="fraction" horiz-adv-x="423" unicode="⁄"/><glyph d="M899 -27q-209 0 -358.5 131.5t-194.5 389.5h-203v114h187q-4 54 -4 108t4 103h-187v115h201q47 262 201.5 393t392.5 131t430 -158l-74 -88q-176 127 -361 127t-302 -103t-158 -302h784l-28 -115h-772q-4 -49 -4 -103t6 -108h737l-29 -114h-690q45 -190 159 -296 t263 -106q211 0 399 137l74 -88q-219 -168 -473 -168z" glyph-name="Euro" horiz-adv-x="1458" unicode="€"/><glyph d="M696 1343h-225v-626h-102v626h-226v91h553v-91zM1573 717h-105v467l-264 -469h-35l-251 469v-467h-103v717h76l299 -562l305 562h78v-717z" glyph-name="trademark" horiz-adv-x="1716" unicode="™"/><glyph d="M1364 1524l-571 -1768h-97l576 1768h92zM489 715h173v-107h-463v107h172v559l-164 -78l-49 92l252 129h79v-702zM1966 211q0 -96 -88 -169t-226 -73t-227.5 73t-89.5 169q0 158 170 215q-55 18 -93 64t-38 128t77 142.5t202 60.5t201.5 -60.5t76.5 -143.5 q0 -150 -131 -191q166 -55 166 -215zM1653.5 713q-68.5 0 -114.5 -33t-46 -86q0 -117 159.5 -117t159.5 117q0 53 -45 86t-113.5 33zM1653 78q90 0 136 39t46 105t-49 106.5t-132 40.5t-135.5 -41t-52.5 -107t48.5 -104.5t138.5 -38.5z" glyph-name="oneeighth" horiz-adv-x="2060" unicode="⅛"/><glyph d="M1364 1524l-571 -1768h-97l576 1768h92zM721 842q0 -113 -91 -186.5t-247 -73.5t-285 100l70 94q98 -84 210 -84t163 42t51 111t-48 102.5t-157 33.5h-72v106h56q86 0 137 32t51 91q0 113 -158 113q-111 0 -206 -88l-66 82q117 117 263 117t220 -59.5t74 -145.5 q0 -57 -39 -108.5t-96 -71.5v-7q74 -14 122 -66t48 -134zM1505 426q-129 42 -129 192q0 82 76 142.5t201 60.5t201.5 -60.5t76.5 -143.5q0 -149 -129 -191q164 -55 164 -215q0 -96 -88 -169t-226 -73t-227.5 73t-89.5 169q0 158 170 215zM1653.5 713q-68.5 0 -114.5 -33 t-46 -86q0 -117 159.5 -117t159.5 117q0 53 -45 86t-113.5 33zM1653 78q90 0 136 39t46 105t-49 106.5t-132 40.5t-135.5 -41t-52.5 -107t48.5 -104.5t138.5 -38.5z" glyph-name="threeeighths" horiz-adv-x="2060" unicode="⅜"/><glyph d="M1364 1524l-571 -1768h-97l576 1768h92zM430 1143q104 0 186 -72.5t82 -194.5t-93 -203t-235 -81t-247 84l57 88q86 -64 186 -64t151.5 48.5t51.5 125.5t-50 119.5t-139 42.5t-147 -57l-77 37v401h485v-106h-371v-207q56 39 160 39zM1966 211q0 -96 -88 -169t-226 -73 t-227.5 73t-89.5 169q0 156 170 215q-55 18 -93 64t-38 128t77 142.5t202 60.5t201.5 -60.5t76.5 -143.5q0 -150 -131 -191q166 -55 166 -215zM1653.5 713q-68.5 0 -114.5 -33t-46 -86q0 -117 159.5 -117t159.5 117q0 53 -45 86t-113.5 33zM1653 78q90 0 136 39t46 105 t-49 106.5t-132 40.5t-135.5 -41t-52.5 -107t48.5 -104.5t138.5 -38.5z" glyph-name="fiveeighths" horiz-adv-x="2060" unicode="⅝"/><glyph d="M1364 1524l-571 -1768h-97l576 1768h92zM121 1294v111h577v-86l-370 -711h-127l352 686h-432zM1966 211q0 -96 -88 -169t-226 -73t-227.5 73t-89.5 169q0 158 170 215q-55 18 -93 64t-38 128t77 142.5t202 60.5t201.5 -60.5t76.5 -143.5q0 -150 -131 -191 q166 -55 166 -215zM1653.5 713q-68.5 0 -114.5 -33t-46 -86q0 -117 159.5 -117t159.5 117q0 53 -45 86t-113.5 33zM1653 78q90 0 136 39t46 105t-49 106.5t-132 40.5t-135.5 -41t-52.5 -107t48.5 -104.5t138.5 -38.5z" glyph-name="seveneighths" horiz-adv-x="2060" unicode="⅞"/><glyph d="M1157 668h-942v110h942v-110z" glyph-name="minus" horiz-adv-x="1372" unicode="−"/><glyph d="M1176 475v-104h-506l-111 -314h-123l111 314h-314v104h351l110 307h-461v109h498l96 272h123l-96 -272h322v-109h-361l-108 -307h469z" glyph-name="notequal" horiz-adv-x="1421" unicode="≠"/><glyph d="M1024 608q180 0 317.5 -103.5t169.5 -258.5h-96q-47 100 -153.5 163.5t-237.5 63.5t-237.5 -63.5t-153.5 -163.5h-96q33 156 170 259t317 103z" glyph-name="uni2322" unicode="⌢"/><glyph d="M1024 199q-180 0 -317.5 103.5t-169.5 258.5h96q47 -104 153.5 -170.5t237.5 -66.5t237.5 66.5t153.5 170.5h96q-33 -156 -170 -259t-317 -103z" glyph-name="uni2323" unicode="⌣"/><glyph d="M1024 1458q328 0 560.5 -233t232.5 -561t-232.5 -561.5t-560.5 -233.5t-560.5 233.5t-232.5 562.5t232.5 561t560.5 232zM843 1078q-93 0 -93 -198t93 -198t93 198t-93 198zM1205 1078q-93 0 -93 -198t93 -198t93 198t-93 198zM733 219q0 106 85 181t206 75t206 -74.5 t85 -181.5h110q0 158 -117.5 268.5t-283.5 110.5t-283.5 -110.5t-117.5 -268.5h110z" glyph-name="uni2639" unicode="☹"/><glyph d="M1024 1458q328 0 560.5 -233t232.5 -561t-232.5 -561.5t-560.5 -233.5t-560.5 233.5t-232.5 562.5t232.5 561t560.5 232zM843 1036q-93 0 -93 -198t93 -198t93 198t-93 198zM1205 1036q-93 0 -93 -198t93 -198t93 198t-93 198zM1024 199q180 0 317.5 103.5t169.5 258.5 h-96q-47 -104 -153.5 -170.5t-237.5 -66.5t-237.5 66.5t-153.5 170.5h-96q33 -156 170 -259t317 -103z" glyph-name="smileface" unicode="☺"/><glyph d="M942 109v-109h-735v109h307v1187l-350 -172l-53 93l438 223h90v-1331h303z" glyph-name="uniF6DC" horiz-adv-x="1110" unicode=""/><glyph d="M1178 541h-994v106h994v-106z" glyph-name="uniF6DE" horiz-adv-x="1361" unicode=""/><glyph d="M1024 1458q328 0 560.5 -233t232.5 -561t-232.5 -561.5t-560.5 -233.5t-560.5 233.5t-232.5 562.5t232.5 561t560.5 232zM843 1036q-93 0 -93 -198t93 -198t93 198t-93 198zM1205 1036q-93 0 -93 -198t93 -198t93 198t-93 198zM1027 510q-349 0 -552 172 q2 -250 150.5 -405.5t399.5 -155.5t398.5 156.5t149.5 406.5q-197 -174 -546 -174zM584 526q86 -47 176 -73v-101q-133 59 -176 174zM1466 526q-43 -115 -176 -174v101q92 26 176 73zM1225 328q-78 -23 -166 -27v115q86 2 166 20v-108zM825 434q80 -16 166 -18v-115 q-88 4 -166 27v106z" glyph-name="u1F600" unicode="😀"/><glyph d="M1024 1458q328 0 560.5 -233t232.5 -561t-232.5 -561.5t-560.5 -233.5t-560.5 233.5t-232.5 562.5t232.5 561t560.5 232zM801 1069q-70 0 -115 -78t-49 -221h94q13 203 69 203t68 -203h95q-4 143 -48 221t-114 78zM1249 1069q-70 0 -114.5 -78t-49.5 -221h95 q12 203 68 203t69 -203h94q-4 143 -48 221t-114 78zM1027 510q-349 0 -552 172q2 -250 150.5 -405.5t399.5 -155.5t398.5 156.5t149.5 406.5q-197 -174 -546 -174zM584 526q86 -47 176 -73v-101q-133 59 -176 174zM1466 526q-43 -115 -176 -174v101q92 26 176 73zM1225 328 q-78 -23 -166 -27v115q86 2 166 20v-108zM825 434q80 -16 166 -18v-115q-88 4 -166 27v106z" glyph-name="u1F601" unicode="😁"/><glyph d="M1919 193q-55 0 -88 34q-33 30 -43 98t-14 81q-82 -236 -288 -386.5t-463 -150.5t-462 149.5t-287 387.5q-4 -16 -9 -49t-12.5 -68.5t-38.5 -66.5q-30 -30 -85 -29.5t-94 39t-40 94t36 88.5q29 31 113.5 46t107.5 23q-20 88 -21 181q0 217 105.5 399t289 288.5 t398.5 106.5t397.5 -106.5t289 -289.5t106.5 -398q0 -92 -21 -181q23 -8 107.5 -23t117.5 -47t32 -87.5t-40 -94t-94 -38.5zM833 1051q-67 0 -108 -74t-45 -211h84q12 188 67.5 188t65.5 -188h86q-6 137 -44.5 211t-105.5 74zM1215 1051q-67 0 -105.5 -74t-44.5 -211h86 q10 188 65.5 188t67.5 -188h84q-4 137 -45 211t-108 74zM1751 629q0 55 -34 88t-132 48t-145 50l-10 -8q35 -47 53 -162q-187 -109 -457 -107t-461 107q18 115 53 162l-10 8q-47 -35 -145 -50t-132 -48t-34 -89t36 -92t82 -41.5t81 15.5q53 -170 191 -269.5t337 -99.5 t337 99.5t191 269.5q35 -20 81 -15t82 42t36 92zM1526 719q25 -8 73 -17.5t65 -27.5t18 -44t-19 -46t-47 -20t-44 18t-26.5 66t-19.5 71zM385 584q-20 20 -19 46t18 44t65.5 27.5t72.5 17.5q-10 -25 -19 -72t-27 -64t-43 -18t-48 19zM756 479v-100q-135 61 -181 176 q87 -47 181 -76zM1294 379v102q94 27 181 74q-46 -115 -181 -176zM1059 328v116q88 2 168 19v-109q-78 -22 -168 -26zM823 354v109q80 -16 168 -19v-116q-90 3 -168 26zM130 262q26 1 44 18t27.5 65t17.5 73q-23 -10 -71 -19.5t-66 -27.5t-18.5 -44t20.5 -46q20 -20 46 -19z M1964 281q20 20 20 45.5t-18 43.5t-66.5 28t-70.5 20q8 -25 17.5 -73t27.5 -65t44 -18t46 19z" glyph-name="u1F602" unicode="😂"/><glyph d="M1024 1458q328 0 560.5 -233t232.5 -561t-232.5 -561.5t-560.5 -233.5t-560.5 233.5t-232.5 562.5t232.5 561t560.5 232zM843 1098q-93 0 -93 -198t93 -198t93 198t-93 198zM1205 1098q-93 0 -93 -198t93 -198t93 198t-93 198zM1026 502q-324 0 -510 160 q0 -231 138.5 -376t370.5 -145t369.5 146t137.5 377q-182 -162 -506 -162zM1025 240q-146 0 -258 71.5t-151 206.5q182 -102 409 -102t409 102q-39 -135 -151 -206.5t-258 -71.5z" glyph-name="u1F603" unicode="😃"/><glyph d="M1024 1458q328 0 560.5 -233t232.5 -561t-232.5 -561.5t-560.5 -233.5t-560.5 233.5t-232.5 562.5t232.5 561t560.5 232zM801 1069q-70 0 -115 -78t-49 -221h94q13 203 69 203t68 -203h95q-4 143 -48 221t-114 78zM1249 1069q-70 0 -114.5 -78t-49.5 -221h95 q12 203 68 203t69 -203h94q-4 143 -48 221t-114 78zM1026 502q-324 0 -510 160q0 -231 138.5 -376t370.5 -145t369.5 146t137.5 377q-182 -162 -506 -162zM1025 240q-146 0 -258 71.5t-151 206.5q182 -102 409 -102t409 102q-39 -135 -151 -206.5t-258 -71.5z" glyph-name="u1F604" unicode="😄"/><glyph d="M1024 1458q328 0 560.5 -233t232.5 -561t-232.5 -561.5t-560.5 -233.5t-560.5 233.5t-232.5 562.5t232.5 561t560.5 232zM801 1069q-70 0 -115 -78t-49 -221h94q13 203 69 203t68 -203h95q-4 143 -48 221t-114 78zM1249 1069q-70 0 -114.5 -78t-49.5 -221h95 q12 203 68 203t69 -203h94q-4 143 -48 221t-114 78zM1464 827q0 -41 33 -72.5t80 -31.5t80 31.5t33 72.5t-50.5 111t-56.5 119h-12q-6 -49 -56.5 -119t-50.5 -111zM1632 834q0 -22 -15 -38t-40 -16t-40 16t-15 38t23.5 57t31.5 55q8 -20 31.5 -55t23.5 -57zM1026 502 q-324 0 -510 160q0 -231 138.5 -376t370.5 -145t369.5 146t137.5 377q-182 -162 -506 -162zM1025 240q-146 0 -258 71.5t-151 206.5q182 -102 409 -102t409 102q-39 -135 -151 -206.5t-258 -71.5z" glyph-name="u1F605" unicode="😅"/><glyph d="M1024 1458q328 0 560.5 -233t232.5 -561t-232.5 -561.5t-560.5 -233.5t-560.5 233.5t-232.5 562.5t232.5 561t560.5 232zM958 934l-249 149l-41 -108l166 -64v-8l-166 -80l41 -108l249 166v53zM1380 975l-41 108l-249 -149v-53l249 -166l41 108l-166 80v8zM1025 176 q232 0 369.5 145.5t137.5 376.5q-182 -162 -506 -162t-510 160q0 -231 138.5 -375.5t370.5 -144.5zM1025 274q-146 0 -258 72t-151 207q182 -102 409 -102t409 102q-39 -135 -151 -207t-258 -72z" glyph-name="u1F606" unicode="😆"/><glyph d="M1817 646q0 -196 -106.5 -380t-289 -290.5t-397.5 -106.5t-398.5 106.5t-289 290.5t-105.5 380q0 384 275 620q-82 47 -127 104t-45 113q0 125 200.5 220t489.5 95q188 0 349 -44t251 -116.5t90 -154.5q0 -57 -45 -114.5t-127 -102.5q275 -240 275 -620zM1591 1485 q0 88 -164.5 152.5t-403.5 64.5t-402.5 -64.5t-163.5 -150.5q0 -37 41 -75t116 -69q188 115 410 115q221 0 410 -115q157 64 157 142zM843 640.5q93 0.5 93 198.5t-93 197.5t-93 -198.5t93 -197.5zM1205 640.5q93 0.5 93 198.5t-93 197.5t-93 -198.5t93 -197.5zM1024 199 q180 0 317.5 103.5t169.5 258.5h-96q-47 -104 -153.5 -170.5t-237.5 -66.5t-237.5 66.5t-153.5 170.5h-96q33 -156 170 -259t317 -103z" glyph-name="u1F607" unicode="😇"/><glyph d="M1817 664q0 -215 -106.5 -398.5t-289 -290t-397.5 -106.5t-398.5 106.5t-289 290t-105.5 398.5q0 158 57.5 299t162.5 249v414l299 -217q133 49 274 49t274 -49l299 217v-414q102 -109 161 -250t59 -298zM760 817q0 -193 90 -192.5t90 192.5v156l-360 114l-23 -88 l203 -65v-117zM1108 817q0 -193 90 -192.5t90 192.5v117l203 65l-23 88l-360 -114v-156zM1024 199q180 0 317.5 103.5t169.5 258.5h-96q-47 -104 -153.5 -170.5t-237.5 -66.5t-237.5 66.5t-153.5 170.5h-96q33 -156 170 -259t317 -103z" glyph-name="u1F608" unicode="😈"/><glyph d="M1024 1458q328 0 560.5 -233t232.5 -561t-232.5 -561.5t-560.5 -233.5t-560.5 233.5t-232.5 562.5t232.5 561t560.5 232zM844 1076q-92 0 -92 -196t92 -196t92 196t-92 196zM1372 950l-41 99l-215 -134v-79l215 -154l41 98l-141 94zM1024 199q180 0 317.5 103.5 t169.5 258.5h-96q-47 -104 -153.5 -170.5t-237.5 -66.5t-237.5 66.5t-153.5 170.5h-96q33 -156 170 -259t317 -103z" glyph-name="u1F609" unicode="😉"/><glyph d="M1024 1458q328 0 560.5 -233t232.5 -561t-232.5 -561.5t-560.5 -233.5t-560.5 233.5t-232.5 562.5t232.5 561t560.5 232zM801 1069q-70 0 -115 -78t-49 -221h94q13 203 69 203t68 -203h95q-4 143 -48 221t-114 78zM1249 1069q-70 0 -114.5 -78t-49.5 -221h95 q12 203 68 203t69 -203h94q-4 143 -48 221t-114 78zM1024 225q180 0 317.5 103.5t169.5 259.5h-96q-47 -104 -153.5 -171t-237.5 -67t-237.5 66.5t-153.5 171.5h-96q33 -156 170 -259.5t317 -103.5z" glyph-name="u1F60A" unicode="😊"/><glyph d="M1024 1458q328 0 560.5 -233t232.5 -561t-232.5 -561.5t-560.5 -233.5t-560.5 233.5t-232.5 562.5t232.5 561t560.5 232zM801 1069q-70 0 -115 -78t-49 -221h94q13 203 69 203t68 -203h95q-4 143 -48 221t-114 78zM1249 1069q-70 0 -114.5 -78t-49.5 -221h95 q12 203 68 203t69 -203h94q-4 143 -48 221t-114 78zM1024 412q-113 0 -200 56t-113 142h-105q29 -129 145.5 -215t272.5 -86q43 0 86 8q136 -206 250 -122q59 33 66.5 95t-48.5 185q47 61 64 135h-105q-27 -86 -113.5 -142t-199.5 -56zM1321 264q-51 -37 -131 74 q74 27 131 76q31 -74 30 -105t-30 -45z" glyph-name="u1F60B" unicode="😋"/><glyph d="M1024 1458q328 0 560.5 -233t232.5 -561t-232.5 -561.5t-560.5 -233.5t-560.5 233.5t-232.5 562.5t232.5 561t560.5 232zM799 688q70 0 114.5 78t49.5 221h-95q-12 -203 -68 -203t-69 203h-94q4 -143 48 -221t114 -78zM1247 688q70 0 115 78t49 221h-94 q-13 -203 -69 -203t-68 203h-95q4 -143 48 -221t114 -78zM1024 199q180 0 317.5 103.5t169.5 258.5h-96q-47 -104 -153.5 -170.5t-237.5 -66.5t-237.5 66.5t-153.5 170.5h-96q33 -156 170 -259t317 -103z" glyph-name="u1F60C" unicode="😌"/><glyph d="M1024 1458q328 0 560.5 -233t232.5 -561t-232.5 -561.5t-560.5 -233.5t-560.5 233.5t-232.5 562.5t232.5 561t560.5 232zM694 659h105q61 0 88.5 24t46.5 77l59 162h64l57 -162q20 -53 48 -77t87 -24h105q76 0 112.5 33t57.5 105l39 125h123l-54 108h-1229l-53 -108h137 l37 -125q20 -72 57 -105t113 -33zM1024 199q180 0 317.5 103.5t169.5 258.5h-96q-47 -104 -153.5 -170.5t-237.5 -66.5t-237.5 66.5t-153.5 170.5h-96q33 -156 170 -259t317 -103z" glyph-name="u1F60E" unicode="😎"/><glyph d="M1024 1458q328 0 560.5 -233t232.5 -561t-232.5 -561.5t-560.5 -233.5t-560.5 233.5t-232.5 562.5t232.5 561t560.5 232zM932 735v123h-324v-123h324zM1438 735v123h-324v-123h324zM1024 340v-121q188 0 332.5 121t179.5 303h-123q-33 -133 -141.5 -218t-247.5 -85z" glyph-name="u1F60F" unicode="😏"/><glyph d="M1024 1458q328 0 560.5 -233t232.5 -561t-232.5 -561.5t-560.5 -233.5t-560.5 233.5t-232.5 562.5t232.5 561t560.5 232zM843 1036q-93 0 -93 -198t93 -198t93 198t-93 198zM1205 1036q-93 0 -93 -198t93 -198t93 198t-93 198zM1432 358v123h-816v-123h816z" glyph-name="u1F610" unicode="😐"/><glyph d="M1024 1458q328 0 560.5 -233t232.5 -561t-232.5 -561.5t-560.5 -233.5t-560.5 233.5t-232.5 562.5t232.5 561t560.5 232zM932 735v123h-324v-123h324zM1438 735v123h-324v-123h324zM1432 358v123h-816v-123h816z" glyph-name="u1F611" unicode="😑"/><glyph d="M1024 1458q328 0 560.5 -233t232.5 -561t-232.5 -561.5t-560.5 -233.5t-560.5 233.5t-232.5 562.5t232.5 561t560.5 232zM946 985h-414v-94h228q0 -199 93 -199t93 199v94zM1475 985h-414v-94h227q0 -199 93.5 -199t93.5 199v94zM1432 358v123h-816v-123h816z" glyph-name="u1F612" unicode="😒"/><glyph d="M1024 1458q328 0 560.5 -233t232.5 -561t-232.5 -561.5t-560.5 -233.5t-560.5 233.5t-232.5 562.5t232.5 561t560.5 232zM938 872v246l-385 -190l22 -88l183 90v-58q0 -195 90 -194.5t90 194.5zM1110 872q0 -195 90 -194.5t90 194.5v58l183 -90l24 88l-387 190v-246z M1395 567q0 -47 41 -87t100 -40t100 40t41 87t-28.5 92.5t-63.5 96.5t-41 102h-14q-8 -51 -42 -102t-63.5 -96.5t-29.5 -92.5zM1606 580q0 -28 -19.5 -47t-50.5 -19t-50.5 19.5t-19.5 47.5t30 70.5t40 67.5q12 -25 41 -68t29 -71zM1432 248v123h-816v-123h816z" glyph-name="u1F613" unicode="😓"/><glyph d="M1024 1458q328 0 560.5 -233t232.5 -561t-232.5 -561.5t-560.5 -233.5t-560.5 233.5t-232.5 562.5t232.5 561t560.5 232zM801 1008q-70 0 -115 -78t-49 -221h94q12 203 68 202q57 0 69 -202h95q-4 143 -48 221t-114 78zM1249 1008q-70 0 -114.5 -78t-49.5 -221h95 q12 203 69 202q55 0 68 -202h94q-4 143 -48 221t-114 78zM1432 317v123h-816v-123h816z" glyph-name="u1F614" unicode="😔"/><glyph d="M1024 1458q328 0 560.5 -233t232.5 -561t-232.5 -561.5t-560.5 -233.5t-560.5 233.5t-232.5 562.5t232.5 561t560.5 232zM837 1016q-81 0 -81 -174t81 -174t81 174t-81 174zM1292 911h-196v-73q0 -125 98 -125t98 125v73zM791 186q248 264 700 254l-47 129 q-453 8 -701 -256z" glyph-name="u1F615" unicode="😕"/><glyph d="M1024 1458q328 0 560.5 -233t232.5 -561t-232.5 -561.5t-560.5 -233.5t-560.5 233.5t-232.5 562.5t232.5 561t560.5 232zM985 930l-45 127l-362 -131l45 -127zM1477 926l-363 131l-47 -127l363 -131zM705 496q67 0 103 -50.5t76.5 -99.5t140.5 -49t140.5 49t75 99.5 t102.5 50.5q129 0 181 -150l98 27q-22 88 -69.5 148.5t-95.5 85t-105 26.5t-97.5 -16.5t-64 -46t-61 -74.5t-105.5 -47q-70 0 -106.5 44t-77.5 90t-142 50q-154 0 -207 -106.5t-65 -153.5l98 -27q51 150 181 150z" glyph-name="u1F616" unicode="😖"/><glyph d="M1024 1458q328 0 560.5 -233t232.5 -561t-232.5 -561.5t-560.5 -233.5t-560.5 233.5t-232.5 562.5t232.5 561t560.5 232zM843 1036q-93 0 -93 -198t93 -198t93 198t-93 198zM1205 1036q-93 0 -93 -198t93 -198t93 198t-93 198zM1430 451v102h-812v-102h170 q18 -358 236 -361q100 0 161.5 89t71.5 272h173zM1024 193q-59 0 -90 58t-43 200h264q-12 -141 -42 -199.5t-89 -58.5z" glyph-name="u1F61B" unicode="😛"/><glyph d="M1024 1458q328 0 560.5 -233t232.5 -561t-232.5 -561.5t-560.5 -233.5t-560.5 233.5t-232.5 562.5t232.5 561t560.5 232zM844 1076q-92 0 -92 -196t92 -196t92 196t-92 196zM1372 950l-41 99l-215 -134v-79l215 -154l41 98l-141 94zM1430 451v102h-812v-102h173 q16 -358 233 -361q100 0 161.5 89t71.5 272h173zM1024 193q-59 0 -90 58t-41 200h262q-12 -141 -42 -199.5t-89 -58.5z" glyph-name="u1F61C" unicode="😜"/><glyph d="M1024 1458q328 0 560.5 -233t232.5 -561t-232.5 -561.5t-560.5 -233.5t-560.5 233.5t-232.5 562.5t232.5 561t560.5 232zM958 899l-249 150l-41 -109l166 -63v-9l-166 -80l41 -108l249 166v53zM1380 940l-41 109l-249 -150v-53l249 -166l41 108l-166 80v9zM1430 451v102 h-812v-102h173q16 -358 233 -361q100 0 161.5 89t71.5 272h173zM1024 193q-59 0 -90 58t-41 200h262q-12 -141 -42 -199.5t-89 -58.5z" glyph-name="u1F61D" unicode="😝"/><glyph d="M1024 1458q328 0 560.5 -233t232.5 -561t-232.5 -561.5t-560.5 -233.5t-560.5 233.5t-232.5 562.5t232.5 561t560.5 232zM819 662q86 0 86 184v94l45 25v120l-297 -157v-127l78 43q2 -182 88 -182zM1143 846q0 -184 86 -184t88 182l78 -43v127l-297 157v-120l45 -25v-94z M1024 567q-180 0 -317.5 -103.5t-169.5 -258.5h96q47 100 153.5 163.5t237.5 63.5t237.5 -63.5t153.5 -163.5h96q-33 156 -170 259t-317 103z" glyph-name="u1F61E" unicode="😞"/><glyph d="M1024 1458q328 0 560.5 -233t232.5 -561t-232.5 -561.5t-560.5 -233.5t-560.5 233.5t-232.5 562.5t232.5 561t560.5 232zM905 887v94l45 25v120l-297 -157v-127l78 43q2 -182 86 -183q88 0 88 185zM1143 887q0 -184 88 -185q84 0 86 183l78 -43v127l-297 157v-120l45 -25 v-94zM1024 557q-178 0 -297 -81t-156 -208h103q37 78 125 126t225 48t225 -48t125 -126h103q-37 127 -156 208t-297 81zM1024 342q-68 0 -112 -41t-56 -108h70q20 68 98 67.5t98 -67.5h70q-12 68 -56 108.5t-112 40.5z" glyph-name="u1F61F" unicode="😟"/><glyph d="M1024 1458q328 0 560.5 -233t232.5 -561t-232.5 -561.5t-560.5 -233.5t-560.5 233.5t-232.5 562.5t232.5 561t560.5 232zM760 817q0 -193 90 -192.5t90 192.5v156l-360 114l-23 -88l203 -65v-117zM1108 817q0 -193 90 -192.5t90 192.5v117l203 65l-23 88l-360 -114v-156z M1024 608q-180 0 -317.5 -103.5t-169.5 -258.5h96q47 100 153.5 163.5t237.5 63.5t237.5 -63.5t153.5 -163.5h96q-33 156 -170 259t-317 103z" glyph-name="u1F620" unicode="😠"/><glyph d="M1024 1458q328 0 560.5 -233t232.5 -561t-232.5 -561.5t-560.5 -233.5t-560.5 233.5t-232.5 562.5t232.5 561t560.5 232zM760 817q0 -193 90 -192.5t90 192.5v156l-360 114l-23 -88l203 -65v-117zM1108 817q0 -193 90 -192.5t90 192.5v117l203 65l-23 88l-360 -114v-156z M1024 557q-178 0 -297 -81t-156 -208h103q37 78 125 126t225 48t225 -48t125 -126h103q-37 127 -156 208t-297 81zM1024 342q-68 0 -112 -41t-56 -108h70q20 68 98 67.5t98 -67.5h70q-12 68 -56 108.5t-112 40.5z" glyph-name="u1F621" unicode="😡"/><glyph d="M1024 1458q328 0 560.5 -233t232.5 -561t-232.5 -561.5t-560.5 -233.5t-560.5 233.5t-232.5 562.5t232.5 561t560.5 232zM811 772q74 0 118 68.5t48 197.5h-94q-12 -160 -72.5 -159.5t-75.5 159.5h-94q6 -129 51 -197.5t119 -68.5zM1248.5 469q62.5 0 104.5 42t42 82 t-9.5 64.5t-20.5 42t-31.5 45t-30.5 43.5q94 53 104 250h-94q-14 -160 -74.5 -159.5t-73.5 159.5h-94q8 -215 117 -258q-4 -6 -28.5 -39.5t-41 -63t-16.5 -77.5q0 -47 42 -89t104.5 -42zM1248.5 545q-31.5 0 -52 21.5t-20.5 49.5t30.5 72.5t40.5 71.5q12 -27 43 -72t31 -73 t-20.5 -49t-52 -21zM1024 444q-166 0 -291 -79.5t-155 -200.5h116q29 63 120 104t210 41t210 -41t120 -104h116q-31 121 -155.5 200.5t-290.5 79.5z" glyph-name="u1F622" unicode="😢"/><glyph d="M1024 1458q328 0 560.5 -233t232.5 -561t-232.5 -561.5t-560.5 -233.5t-560.5 233.5t-232.5 562.5t232.5 561t560.5 232zM958 899l-249 150l-41 -109l166 -63v-9l-166 -80l41 -108l249 166v53zM1380 940l-41 109l-249 -150v-53l249 -166l41 108l-166 80v9zM1024 608 q-180 0 -317.5 -103.5t-169.5 -258.5h96q47 100 153.5 163.5t237.5 63.5t237.5 -63.5t153.5 -163.5h96q-33 156 -170 259t-317 103z" glyph-name="u1F623" unicode="😣"/><glyph d="M231 662q0 218 105.5 400.5t289 289t398.5 106.5t397.5 -106.5t289 -289.5t106.5 -398t-107.5 -398.5t-288.5 -290.5l-96 379q55 -37 86 -88h92q-47 143 -211 215l-43 172l-41 -8l37 -145q-31 10 -63 18l-19 119l-39 -6l15 -107q-55 8 -113 8t-108 -6l14 105l-39 6 l-19 -119q-33 -6 -61 -14l35 141l-41 8l-41 -168q-172 -72 -221 -219h92q33 55 96 94l-98 -389q-184 104 -294 288.5t-110 402.5zM631 889l325 -96l27 94l-324 94zM1067 887l27 -94l323 96l-28 92zM1026 -131q-104 0 -201 25l76 524q57 10 125 10t129 -12l76 -518 q-101 -29 -205 -29zM678 -51l106 438q33 12 72 23l-78 -502q-51 16 -100 41zM1278 -88l-78 496q39 -10 72 -25l104 -430q-47 -25 -98 -41zM1376 -47l45 22l68 -264l-51 -8zM635 -29l43 -22l-60 -246l-51 8zM1231 -102l47 14l37 -231l-51 -11zM778 -92l47 -14l-32 -224 l-52 11zM834 -264l8 37q123 -55 108 -140q-10 -51 -44 -74.5t-78 -17.5t-62 37q-16 -43 -49 -61.5t-73 -11.5t-65.5 37t-25.5 77q-25 -25 -70 -16q-45 8 -69.5 43t-14.5 86q14 82 150 94l-6 -37q-25 -6 -37 -10t-28.5 -19.5t-21.5 -41.5t10 -45t41 -24t46 17l29 -12 q0 -39 20.5 -63.5t50.5 -28.5q70 -12 99 61l30 2q10 -25 37 -30t47.5 8.5t25.5 39.5q10 52 -58 93zM1505 -213l-6 37q135 -8 150 -94q10 -51 -14.5 -86t-67.5 -42t-72 13q0 -47 -25.5 -75.5t-64.5 -35.5q-90 -14 -123 74q-16 -29 -61 -37t-79 15.5t-44 74.5q-14 82 108 142 l6 -37q-66 -45 -55 -98t74 -44q25 2 35 29l30 -2q27 -71 78 -64t71.5 31.5t20.5 63.5l29 12q16 -18 44 -15t43 23t10 46q-10 52 -87 69z" glyph-name="u1F624" unicode="😤"/><glyph d="M1024 1458q328 0 560.5 -233t232.5 -561t-232.5 -561.5t-560.5 -233.5t-560.5 233.5t-232.5 562.5t232.5 561t560.5 232zM973 942l-53 90l-308 -168l52 -90zM1436 864l-308 168l-53 -90l309 -168zM1415 608q0 -47 41 -87t100.5 -40t100.5 40t41 87t-29 92t-63.5 96.5 t-40.5 102.5h-15q-8 -51 -41.5 -102.5t-63.5 -96.5t-30 -92zM1626 622q0 -28 -19.5 -47.5t-50 -19.5t-50 19.5t-19.5 47.5t29.5 70.5t39.5 67.5q12 -25 41 -67.5t29 -70.5zM1024 608q-180 0 -317.5 -103.5t-169.5 -258.5h96q47 100 153.5 163.5t237.5 63.5t237.5 -63.5 t153.5 -163.5h96q-33 156 -170 259t-317 103z" glyph-name="u1F625" unicode="😥"/><glyph d="M1024 1458q328 0 560.5 -233t232.5 -561t-232.5 -561.5t-560.5 -233.5t-560.5 233.5t-232.5 562.5t232.5 561t560.5 232zM843 1145.5q-93 -0.5 -93 -198.5t93 -197.5t93 198.5t-93 197.5zM1205 1145.5q-93 -0.5 -93 -198.5t93 -197.5t93 198.5t-93 197.5zM1024 645 q-176 0 -285.5 -115.5t-128.5 -314.5h828q-18 199 -128 314.5t-286 115.5zM1024 537q104 0 185 -56.5t100 -163.5h-570q18 106 99.5 163t185.5 57z" glyph-name="u1F626" unicode="😦"/><glyph d="M1024 1458q328 0 560.5 -233t232.5 -561t-232.5 -561.5t-560.5 -233.5t-560.5 233.5t-232.5 562.5t232.5 561t560.5 232zM938 858v246l-385 -191l22 -88l183 90v-57q0 -195 90 -194.5t90 194.5zM1110 858q0 -195 90 -194.5t90 194.5v57l183 -90l24 88l-387 191v-246z M1024 623q-209 0 -333 -138.5t-126 -357.5q180 82 459 82q143 0 276.5 -21.5t182.5 -60.5q0 219 -125 357.5t-334 138.5zM1024 510q125 0 218 -59.5t126 -176.5q-141 41 -344 41t-344 -41q33 117 126 176.5t218 59.5z" glyph-name="u1F627" unicode="😧"/><glyph d="M1024 1458q328 0 560.5 -233t232.5 -561t-232.5 -561.5t-560.5 -233.5t-560.5 233.5t-232.5 562.5t232.5 561t560.5 232zM760 1102q-86 0 -146.5 -60.5t-60.5 -146.5t60.5 -146.5t146.5 -60.5t146.5 60.5t60.5 146.5t-60.5 146.5t-146.5 60.5zM1288 1102 q-86 0 -146.5 -60.5t-60.5 -146.5t60.5 -146.5t146.5 -60.5t146.5 60.5t60.5 146.5t-60.5 146.5t-146.5 60.5zM761 1026q54 0 93 -38t39 -93t-39 -93t-93 -38t-93 38t-39 93t39 93t93 38zM1287 1026q54 0 93 -38t39 -93t-39 -93t-93 -38t-93 38t-39 93t39 93t93 38z M760.5 946q-21.5 0 -36.5 -15.5t-15 -36t15 -35.5t36.5 -15t36 15t14.5 35.5t-14.5 36t-36 15.5zM1287.5 946q-21.5 0 -36 -15.5t-14.5 -36t14.5 -35.5t36 -15t36.5 15t15 35.5t-15 36t-36.5 15.5zM1024 668q-176 0 -285.5 -116t-128.5 -314h828q-18 199 -128 314.5 t-286 115.5zM1024 559q104 0 185 -56.5t100 -162.5h-570q18 106 99.5 162.5t185.5 56.5z" glyph-name="u1F628" unicode="😨"/><glyph d="M1024 1458q328 0 560.5 -233t232.5 -561t-232.5 -561.5t-560.5 -233.5t-560.5 233.5t-232.5 562.5t232.5 561t560.5 232zM781 1036q-93 0 -93 -198t93 -198t93 198t-93 198zM1144 1036q-93 0 -93 -198t93 -198t93 198t-93 198zM1137 174q86 0 145 60.5t59 145.5 t-59 145.5t-145 60.5t-145.5 -60.5t-59.5 -145.5t59.5 -145.5t145.5 -60.5z" glyph-name="u1F62E" unicode="😮"/><glyph d="M1024 1458q328 0 560.5 -233t232.5 -561t-232.5 -561.5t-560.5 -233.5t-560.5 233.5t-232.5 562.5t232.5 561t560.5 232zM909 1104l-307 -113l43 -114l307 112zM1444 991l-307 113l-41 -115l307 -112zM541.5 778q-103.5 0 -158.5 -88h317q-55 88 -158.5 88zM1508.5 778 q-103.5 0 -160.5 -88h319q-55 88 -158.5 88zM354 594q0 -23 4 -43h365q6 20 6 43t-6 45h-363q-6 -23 -6 -45zM1321 594q0 -23 4 -43h365q6 20 6 43t-6 45h-363q-6 -23 -6 -45zM381 498q25 -41 60.5 -62.5t99.5 -29.5q118 15 159 92h-319zM1348 498q25 -41 60.5 -62.5 t98.5 -29.5q119 15 160 92h-319zM1024 156q111 0 188.5 78.5t77.5 189.5h-534q0 -111 78.5 -189.5t189.5 -78.5z" glyph-name="u1F633" unicode="😳"/><glyph d="M254 1673v-366q80 92 196 92t196.5 -86t80.5 -236t-84 -245t-188 -95q-139 0 -205 88h-4l-15 -75h-73v923h96zM446 1313q-121 0 -192 -123v-266q55 -102 192 -103q74 0 129.5 70.5t55.5 186.5t-52.5 175.5t-132.5 59.5z" glyph-name="glyph386" horiz-adv-x="899"/><glyph d="M1970 717q0 274 -278 274q-184 0 -324 -217v-774h-119v1325h-534v-1325h-121v1325h-492v109h1264v-519q82 96 165.5 139.5t192.5 43.5q152 0 258.5 -92.5t106.5 -257.5v-748h-119v717z" glyph-name="T_h.dlig" horiz-adv-x="2273"/><glyph d="M1393 1073v-1214q0 -145 -89.5 -213t-232.5 -68q-82 0 -133 19l20 102q45 -14 99 -14q109 0 163 50t54 169v1069h-387v-973h-119v973h-401v-973h-119v973h-166v100h166v211q0 147 77.5 214t211.5 67q82 0 147 -19l-22 -102q-49 14 -109 14q-186 0 -186 -166v-219h401v187 q0 305 330 305q94 0 152.5 -19.5t117.5 -60.5l-65 -88q-63 61 -201 61q-215 0 -215 -192v-193h506z" glyph-name="f_f_j.dlig" horiz-adv-x="1546"/><glyph d="M883 1073v-1073h-115v973h-401v-973h-119v973h-166v100h166v187q0 305 332 305q94 0 152.5 -19.5t115.5 -60.5l-64 -88q-63 61 -200 61q-217 0 -217 -192v-193h516z" glyph-name="f_i.dlig" horiz-adv-x="1036"/><glyph d="M942 1073v-1214q0 -145 -89 -213t-232 -68q-82 0 -134 19l21 102q37 -14 98 -14q109 0 163 50t54 169v1069h-456v-973h-119v973h-166v100h166v187q0 305 332 305q94 0 152.5 -19.5t115.5 -60.5l-64 -88q-63 61 -200 61q-217 0 -217 -192v-193h575z" glyph-name="f_j.dlig" horiz-adv-x="1095"/><glyph d="M597 1565q177 0 258 -92.5t81 -245.5l-119 -15q0 139 -55 192.5t-175 53.5t-170 -48t-50 -169v-168h282v-100h-282v-973h-119v973h-166v100h166v156q0 188 86 262t263 74zM936 0h-119v1212l119 15v-1227z" glyph-name="f_l.dlig" horiz-adv-x="1132"/><glyph d="M952 190q0 -108 103 -108q51 0 131 37l37 -94q-93 -49 -187 -49t-148 50t-54 150v797h-467v-973h-119v973h-166v100h166v211q0 147 77.5 214t211.5 67q82 0 147 -19l-22 -102q-49 14 -109 14q-186 0 -186 -166v-219h467v176l63 99h55v-275h265v-100h-265v-783z" glyph-name="f_t.dlig" horiz-adv-x="1310"/><glyph d="M854 285h-549l-100 -285h-123l424 1165h147l428 -1165h-127zM813 397l-235 666l-234 -666h469z" glyph-name="A.c2sc" horiz-adv-x="1163"/><glyph d="M612 1270h-110l155 223h181zM854 285h-549l-100 -285h-123l424 1165h147l428 -1165h-127zM813 397l-235 666l-234 -666h469z" glyph-name="Aacute.aalt" horiz-adv-x="1163"/><glyph d="M581.5 1276q-92.5 0 -163 59.5t-84.5 159.5h94q12 -63 54 -97t100 -34q57 0 97 33t52 98h100q-16 -102 -86.5 -160.5t-163 -58.5zM854 285h-549l-100 -285h-123l424 1165h147l428 -1165h-127zM813 397l-235 666l-234 -666h469z" glyph-name="Abreve.aalt" horiz-adv-x="1163"/><glyph d="M453 1292h-142l230 217h67l217 -217h-133l-123 109zM854 285h-549l-100 -285h-123l424 1165h147l428 -1165h-127zM813 397l-235 666l-234 -666h469z" glyph-name="Acircumflex.aalt" horiz-adv-x="1163"/><glyph d="M413 1319q-40 0 -63.5 23.5t-23.5 65.5t23.5 65.5t63.5 23.5t64.5 -23.5t24.5 -65.5t-24.5 -65.5t-64.5 -23.5zM741 1319q-41 0 -64.5 23.5t-23.5 65.5t23.5 65.5t63.5 23.5t63.5 -23.5t23.5 -65.5t-22.5 -65.5t-63.5 -23.5zM854 285h-549l-100 -285h-123l424 1165h147 l428 -1165h-127zM813 397l-235 666l-234 -666h469z" glyph-name="Adieresis.aalt" horiz-adv-x="1163"/><glyph d="M551 1270l-232 223h183l160 -223h-111zM854 285h-549l-100 -285h-123l424 1165h147l428 -1165h-127zM813 397l-235 666l-234 -666h469z" glyph-name="Agrave.aalt" horiz-adv-x="1163"/><glyph d="M797 1405h-432v90h432v-90zM854 285h-549l-100 -285h-123l424 1165h147l428 -1165h-127zM813 397l-235 666l-234 -666h469z" glyph-name="Amacron.aalt" horiz-adv-x="1163"/><glyph d="M987 -203q0 -104 100 -123l-28 -84q-176 28 -180 193q-2 119 129 217h-54l-100 285h-549l-100 -285h-123l424 1165h147l428 -1165q-55 -70 -74.5 -112t-19.5 -91zM813 397l-235 666l-234 -666h469z" glyph-name="Aogonek.aalt" horiz-adv-x="1163"/><glyph d="M580 1282q-61 0 -104.5 35t-43.5 104.5t43 105.5t105 36t104.5 -36t42.5 -105.5t-43 -104.5t-104 -35zM581 1497q-32 0 -51.5 -21.5t-19.5 -54.5t19.5 -53t51 -20t51 19t19.5 53t-19 55.5t-51 21.5zM854 285h-549l-100 -285h-123l424 1165h147l428 -1165h-127zM813 397 l-235 666l-234 -666h469z" glyph-name="Aring.aalt" horiz-adv-x="1163"/><glyph d="M678 1309q-43 0 -106.5 36.5t-100.5 36.5q-72 0 -113 -79l-67 34q27 76 75 111t98 35t116.5 -37t99.5 -37q57 0 100 88l66 -41q-48 -147 -168 -147zM854 285h-549l-100 -285h-123l424 1165h147l428 -1165h-127zM813 397l-235 666l-234 -666h469z" glyph-name="Atilde.aalt" horiz-adv-x="1163"/><glyph d="M801 1059v-404h440v-112h-440v-432h506v-111h-631v285h-344l-127 -285h-123l532 1165h693v-106h-506zM676 397v660l-295 -660h295z" glyph-name="AE.aalt" horiz-adv-x="1433"/><glyph d="M954 318q0 -137 -97 -227.5t-265 -90.5h-426v1165h344q360 0 360 -288q0 -80 -32.5 -140.5t-114.5 -113.5q106 -20 168.5 -94t62.5 -211zM289 657h223q117 0 175 56.5t58 154.5q0 190 -231 191h-225v-402zM289 111h282q256 0 256 219q0 213 -247 213h-291v-432z" glyph-name="B.aalt" horiz-adv-x="1071"/><glyph d="M238 588q0 -246 119.5 -375t310.5 -129q156 0 315 123l57 -94q-172 -137 -382 -137t-372 144q-79 70 -125 191t-46 275t46 274t125 190q157 140 369.5 140t366.5 -125l-59 -94q-141 113 -295 112q-193 0 -311.5 -124.5t-118.5 -370.5z" glyph-name="C.aalt" horiz-adv-x="1163"/><glyph d="M668 1270h-113l156 223h180zM238 588q0 -246 119.5 -375t310.5 -129q156 0 315 123l57 -94q-172 -137 -382 -137t-372 144q-79 70 -125 191t-46 275t46 274t125 190q157 140 369.5 140t366.5 -125l-59 -94q-141 113 -295 112q-193 0 -311.5 -124.5t-118.5 -370.5z" glyph-name="Cacute.aalt" horiz-adv-x="1163"/><glyph d="M582 1288l-220 205h134l125 -121l131 121h127l-207 -205h-90zM115 586q0 154 46 274t125 190q157 140 369.5 140t366.5 -125l-59 -94q-141 113 -295 112q-193 0 -311.5 -124.5t-118.5 -370.5t119.5 -375t310.5 -129q155 0 315 123l57 -94q-172 -137 -382 -137t-372 144 q-79 70 -125 191t-46 275z" glyph-name="Ccaron.aalt" horiz-adv-x="1163"/><glyph d="M526 -350q148 23 148 93q0 36 -18.5 53.5t-44.5 17.5t-42 -9l-57 50l76 125q-191 20 -332 171.5t-141 434.5q0 154 46 274t125 190q157 140 369.5 140t366.5 -125l-59 -94q-141 113 -295 112q-193 0 -311.5 -124.5t-118.5 -370.5t119.5 -375t310.5 -129q156 0 315 123 l57 -94q-167 -134 -372 -138l-52 -77q68 4 115 -39t47 -107q0 -154 -225 -176z" glyph-name="Ccedilla.aalt" horiz-adv-x="1163"/><glyph d="M636 1497q38 0 64.5 -23.5t26.5 -69.5t-26.5 -69.5t-64.5 -23.5t-64.5 23.5t-26.5 69.5t26.5 69.5t64.5 23.5zM238 588q0 -246 119.5 -375t310.5 -129q156 0 315 123l57 -94q-172 -137 -382 -137t-372 144q-79 70 -125 191t-46 275t46 274t125 190q157 140 369.5 140 t366.5 -125l-59 -94q-141 113 -295 112q-193 0 -311.5 -124.5t-118.5 -370.5z" glyph-name="Cdotaccent.aalt" horiz-adv-x="1163"/><glyph d="M166 1165h319q256 0 411 -132t155 -435t-153 -450.5t-413 -147.5h-319v1165zM285 1059v-948h174q236 0 352.5 111.5t116.5 368.5t-116 362.5t-353 105.5h-174z" glyph-name="D.aalt" horiz-adv-x="1165"/><glyph d="M166 1165h319q256 0 411 -132t155 -435t-153 -450.5t-413 -147.5h-319v535h-191v108h191v522zM285 111h174q236 0 352.5 111.5t116.5 368.5t-116 362.5t-353 105.5h-174v-416h250v-108h-250v-424z" glyph-name="Eth.aalt" horiz-adv-x="1165"/><glyph d="M483 1290l-219 205h131l125 -121l133 121h125l-207 -205h-88zM166 1165h319q256 0 411 -132t155 -435t-153 -450.5t-413 -147.5h-319v1165zM285 111h174q236 0 352.5 111.5t116.5 368.5t-116 362.5t-353 105.5h-174v-948z" glyph-name="Dcaron.aalt" horiz-adv-x="1165"/><glyph d="M752 1407h-433v90h433v-90zM166 1165h319q256 0 411 -132t155 -435t-153 -450.5t-413 -147.5h-319v1165zM285 1059v-948h174q236 0 352.5 111.5t116.5 368.5t-116 362.5t-353 105.5h-174z" glyph-name="Dcroat.aalt" horiz-adv-x="1165"/><glyph d="M883 1059h-598v-402h536v-112h-536v-434h598v-111h-717v1165h717v-106z" glyph-name="E.aalt" horiz-adv-x="1007"/><glyph d="M573 1270h-112l155 223h181zM883 1059h-598v-402h536v-112h-536v-434h598v-111h-717v1165h717v-106z" glyph-name="Eacute.aalt" horiz-adv-x="1007"/><glyph d="M541 1276q-92 0 -162 59.5t-86 159.5h94q12 -63 54 -97t100 -34q57 0 97 32.5t52 98.5h103q-18 -102 -89 -160.5t-163 -58.5zM883 1059h-598v-402h536v-112h-536v-434h598v-111h-717v1165h717v-106z" glyph-name="Ebreve.aalt" horiz-adv-x="1007"/><glyph d="M487 1288l-219 205h133l123 -121l133 121h125l-204 -205h-91zM285 1059v-402h536v-112h-536v-434h598v-111h-717v1165h717v-106h-598z" glyph-name="Ecaron.aalt" horiz-adv-x="1007"/><glyph d="M412 1292h-142l230 217h69l217 -217h-135l-123 109zM285 1059v-402h536v-112h-536v-434h598v-111h-717v1165h717v-106h-598z" glyph-name="Ecircumflex.aalt" horiz-adv-x="1007"/><glyph d="M372 1497q40 0 64.5 -23.5t24.5 -65.5t-23.5 -65.5t-64.5 -23.5t-64.5 23.5t-23.5 65.5t23.5 65.5t63.5 23.5zM700 1497q41 0 63.5 -23.5t22.5 -65.5t-22.5 -65.5t-63.5 -23.5t-64.5 23.5t-23.5 65.5t23.5 65.5t64.5 23.5zM883 1059h-598v-402h536v-112h-536v-434h598 v-111h-717v1165h717v-106z" glyph-name="Edieresis.aalt" horiz-adv-x="1007"/><glyph d="M542 1497q38 0 64.5 -23.5t26.5 -69.5t-26.5 -69.5t-64.5 -23.5t-64.5 23.5t-26.5 69.5t26.5 69.5t64.5 23.5zM883 1059h-598v-402h536v-112h-536v-434h598v-111h-717v1165h717v-106z" glyph-name="Edotaccent.aalt" horiz-adv-x="1007"/><glyph d="M621 1270h-111l-229 223h182zM883 1059h-598v-402h536v-112h-536v-434h598v-111h-717v1165h717v-106z" glyph-name="Egrave.aalt" horiz-adv-x="1007"/><glyph d="M758 1405h-434v90h434v-90zM883 1059h-598v-402h536v-112h-536v-434h598v-111h-717v1165h717v-106z" glyph-name="Emacron.aalt" horiz-adv-x="1007"/><glyph d="M285 1059v-402h536v-112h-536v-434h598v-111h-250q-57 -70 -75.5 -112t-18.5 -91q0 -104 100 -123l-29 -84q-88 14 -134 64.5t-48 128.5q-2 119 131 217h-393v1165h717v-106h-598z" glyph-name="Eogonek.aalt" horiz-adv-x="1007"/><glyph d="M866 1059h-581v-457h516v-110h-516v-492h-119v1165h700v-106z" glyph-name="F.aalt" horiz-adv-x="960"/><glyph d="M115 584q0 154 46 274t125 190q160 142 382.5 142t386.5 -133l-70 -94q-143 117 -335.5 116.5t-302 -130.5t-109.5 -367.5t115.5 -369.5t320.5 -132q136 0 254 79l26 17v344h-340v113h463v-506q-190 -152 -416 -152q-227 1 -381 145q-76 70 -120.5 190t-44.5 274z" glyph-name="G.aalt" horiz-adv-x="1181"/><glyph d="M637 1276q-92 0 -161.5 59.5t-86.5 159.5h94q12 -63 54.5 -97t99.5 -34t97 33t52 98h103q-18 -102 -89 -160.5t-163 -58.5zM115 584q0 154 46 274t125 190q160 142 382.5 142t386.5 -133l-70 -94q-143 117 -335.5 116.5t-302 -130.5t-109.5 -367.5t115.5 -369.5 t320.5 -132q136 0 254 79l26 17v344h-340v113h463v-506q-190 -152 -416 -152q-227 1 -381 145q-76 70 -120.5 190t-44.5 274z" glyph-name="Gbreve.aalt" horiz-adv-x="1181"/><glyph d="M115 584q0 154 46 274t125 190q160 142 382.5 142t386.5 -133l-70 -94q-143 117 -335.5 116.5t-302 -130.5t-109.5 -367.5t115.5 -369.5t320.5 -132q136 0 254 79l26 17v344h-340v113h463v-506q-190 -152 -416 -152q-227 1 -381 145q-76 70 -120.5 190t-44.5 274z M584 -109h127l-70 -294h-72z" glyph-name="Gcommaaccent.aalt" horiz-adv-x="1181"/><glyph d="M638 1311q-38 0 -64.5 23.5t-26.5 69.5t26.5 69.5t64.5 23.5t64.5 -23.5t26.5 -69.5t-26.5 -69.5t-64.5 -23.5zM115 584q0 154 46 274t125 190q160 142 382.5 142t386.5 -133l-70 -94q-143 117 -335.5 116.5t-302 -130.5t-109.5 -367.5t115.5 -369.5t320.5 -132 q136 0 254 79l26 17v344h-340v113h463v-506q-190 -152 -416 -152q-227 1 -381 145q-76 70 -120.5 190t-44.5 274z" glyph-name="Gdotaccent.aalt" horiz-adv-x="1181"/><glyph d="M1042 1165v-1165h-118v510h-639v-510h-119v1165h119v-542h639v542h118z" glyph-name="H.aalt" horiz-adv-x="1208"/><glyph d="M1151 776h-92v-776h-119v510h-639v-510h-119v776h-96v101h96v288h119v-288h639v288h119v-288h92v-101zM940 776h-639v-153h639v153z" glyph-name="Hbar.aalt" horiz-adv-x="1236"/><glyph d="M328 0h-123v1165h123v-1165z" glyph-name="I.aalt" horiz-adv-x="532"/><glyph d="M328 0h-123v1165h123v-1165z" glyph-name="dotlessi.aalt" horiz-adv-x="532"/><glyph d="M299 1270h-111l156 223h180zM328 0h-123v1165h123v-1165z" glyph-name="Iacute.aalt" horiz-adv-x="532"/><glyph d="M512 1292h-133l-123 109l-119 -109h-139l229 217h68zM205 1165h123v-1165h-123v1165z" glyph-name="Icircumflex.aalt" horiz-adv-x="532"/><glyph d="M99 1497q40 0 64.5 -23.5t24.5 -65.5t-24.5 -65.5t-64.5 -23.5t-63.5 23.5t-23.5 65.5t23.5 65.5t63.5 23.5zM427 1497q40 0 63.5 -23.5t23.5 -65.5t-22.5 -65.5t-63.5 -23.5t-64.5 23.5t-23.5 65.5t23.5 65.5t63.5 23.5zM328 0h-123v1165h123v-1165z" glyph-name="Idieresis.aalt" horiz-adv-x="532"/><glyph d="M348 1270h-110l-232 223h182zM328 0h-123v1165h123v-1165z" glyph-name="Igrave.aalt" horiz-adv-x="532"/><glyph d="M1098 1165v-835q0 -180 -99.5 -267.5t-314.5 -87.5q-88 0 -131 15l6 102q61 -10 125 -10q154 0 224.5 61.5t70.5 194.5v827h119zM328 0h-123v1165h123v-1165z" glyph-name="IJ.aalt" horiz-adv-x="1263"/><glyph d="M483 1405h-432v90h432v-90zM328 0h-123v1165h123v-1165z" glyph-name="Imacron.aalt" horiz-adv-x="532"/><glyph d="M328 0h-15q-55 -70 -74.5 -111t-19.5 -90q0 -104 100 -123l-28 -84q-176 28 -180 193q-2 119 127 215h-33v1165h123v-1165z" glyph-name="Iogonek.aalt" horiz-adv-x="532"/><glyph d="M563 1165v-835q0 -180 -98 -267.5t-315 -87.5q-86 0 -130 15l7 102q61 -10 125 -10q154 0 223 61.5t69 194.5v827h119z" glyph-name="J.aalt" horiz-adv-x="731"/><glyph d="M285 0h-119v1165h119v-614l528 614h158l-486 -553l531 -612h-168l-438 524l-125 -141v-383z" glyph-name="K.aalt" horiz-adv-x="1060"/><glyph d="M285 0h-119v1165h119v-614l528 614h158l-486 -553l531 -612h-168l-438 524l-125 -141v-383zM467 -109h127l-72 -294h-69z" glyph-name="Kcommaaccent.aalt" horiz-adv-x="1060"/><glyph d="M285 109h589v-109h-708v1165h119v-1056z" glyph-name="L.aalt" horiz-adv-x="935"/><glyph d="M348 1270h-112l155 223h180zM285 109h589v-109h-708v1165h119v-1056z" glyph-name="Lacute.aalt" horiz-adv-x="935"/><glyph d="M285 109h589v-109h-708v1165h119v-1056zM614 868h-71l14 295h129z" glyph-name="Lcaron.aalt" horiz-adv-x="927"/><glyph d="M285 109h589v-109h-708v1165h119v-1056zM502 -403h-72l14 294h127z" glyph-name="Lcommaaccent.aalt" horiz-adv-x="935"/><glyph d="M285 109h589v-109h-708v1165h119v-1056zM549 737q49 0 82 -28.5t33 -87.5t-33 -89t-82 -30t-82 30q-33 28 -33 88t33 88.5t82 28.5z" glyph-name="Ldot.aalt" horiz-adv-x="935"/><glyph d="M922 109v-109h-709v524l-152 -57v106l152 56v536h119v-491l182 67v-104l-182 -68v-460h590z" glyph-name="Lslash.aalt" horiz-adv-x="974"/><glyph d="M1325 1165v-1165h-119v918l-405 -920h-92l-424 922v-920h-119v1165h125l463 -1003l448 1003h123z" glyph-name="M.aalt" horiz-adv-x="1492"/><glyph d="M1102 1165v-1165h-117l-700 967v-967h-119v1165h119l698 -966v966h119z" glyph-name="N.aalt" horiz-adv-x="1269"/><glyph d="M682 1270h-113l156 223h180zM1102 1165v-1165h-117l-700 967v-967h-119v1165h119l698 -966v966h119z" glyph-name="Nacute.aalt" horiz-adv-x="1269"/><glyph d="M596 1288l-219 205h133l125 -121l131 121h127l-207 -205h-90zM1102 1165v-1165h-117l-700 967v-967h-119v1165h119l698 -966v966h119z" glyph-name="Ncaron.aalt" horiz-adv-x="1269"/><glyph d="M1102 1165v-1165h-117l-700 967v-967h-119v1165h119l698 -966v966h119zM545 -109h127l-72 -294h-70z" glyph-name="Ncommaaccent.aalt" horiz-adv-x="1269"/><glyph d="M1102 1165v-1247q0 -172 -98.5 -255t-309.5 -83q-88 0 -131 14l6 103q61 -10 125 -10q150 0 219.5 58t69.5 181v76l-698 965v-967h-119v1165h119l698 -966v966h119z" glyph-name="Eng.aalt" horiz-adv-x="1257"/><glyph d="M748 1309q-45 0 -108.5 36.5t-100.5 36.5q-72 0 -113 -79l-68 34q27 76 75 111t98.5 35t118 -37t98.5 -37q59 0 100 88l65 -41q-48 -147 -165 -147zM1102 1165v-1165h-117l-700 967v-967h-119v1165h119l698 -966v966h119z" glyph-name="Ntilde.aalt" horiz-adv-x="1269"/><glyph d="M695 1190q91 0 188.5 -36t179.5 -106.5t132 -190.5t50 -271.5t-50 -272t-174 -229.5t-339 -109q-163 0 -365 130.5t-202 479t200.5 477t379.5 128.5zM238 596q0 -241 131 -377.5t314 -136.5t309 135t126 374t-124 365.5t-307 126.5t-316 -123t-133 -364z" glyph-name="O.c2sc" horiz-adv-x="1359"/><glyph d="M713 1300h-113l156 226h180zM695 1190q91 0 188.5 -36t179.5 -106.5t132 -190.5t50 -271.5t-50 -272t-174 -229.5t-339 -109q-163 0 -365 130.5t-202 479t200.5 477t379.5 128.5zM238 596q0 -241 131 -377.5t314 -136.5t309 135t126 374t-124 365.5t-307 126.5t-316 -123 t-133 -364z" glyph-name="Oacute.aalt" horiz-adv-x="1359"/><glyph d="M551 1323h-141l229 217h70l217 -217h-135l-123 109zM695 1190q91 0 188.5 -36t179.5 -106.5t132 -190.5t50 -271.5t-50 -272t-174 -229.5t-339 -109q-163 0 -365 130.5t-202 479t200.5 477t379.5 128.5zM683 82q183 0 309 135t126 374t-124 365.5t-307 126.5t-316 -122.5 t-133 -364.5q0 -241 131 -377.5t314 -136.5z" glyph-name="Ocircumflex.aalt" horiz-adv-x="1359"/><glyph d="M511 1530q40 0 64.5 -23.5t24.5 -66.5t-23.5 -66.5t-64.5 -23.5t-64.5 23.5t-23.5 65.5t23.5 66.5t63.5 24.5zM840 1530q41 0 63.5 -24.5t22.5 -66.5t-22.5 -65.5t-63.5 -23.5t-64.5 23.5t-23.5 66.5t23.5 66.5t64.5 23.5zM695 1190q91 0 188.5 -36t179.5 -106.5 t132 -190.5t50 -271.5t-50 -272t-174 -229.5t-339 -109q-163 0 -365 130.5t-202 479t200.5 477t379.5 128.5zM238 596q0 -241 131 -377.5t314 -136.5t309 135t126 374t-124 365.5t-307 126.5t-316 -123t-133 -364z" glyph-name="Odieresis.aalt" horiz-adv-x="1359"/><glyph d="M760 1300h-111l-229 226h182zM695 1190q91 0 188.5 -36t179.5 -106.5t132 -190.5t50 -271.5t-50 -272t-174 -229.5t-339 -109q-163 0 -365 130.5t-202 479t200.5 477t379.5 128.5zM238 596q0 -241 131 -377.5t314 -136.5t309 135t126 374t-124 365.5t-307 126.5 t-316 -123t-133 -364z" glyph-name="Ograve.aalt" horiz-adv-x="1359"/><glyph d="M588 1303h-90l34 221h164zM807 1303h-92l116 221h164zM695 1190q91 0 188.5 -36t179.5 -106.5t132 -190.5t50 -271.5t-50 -272t-174 -229.5t-339 -109q-163 0 -365 130.5t-202 479t200.5 477t379.5 128.5zM238 596q0 -241 131 -377.5t314 -136.5t309 135t126 374 t-124 365.5t-307 126.5t-316 -123t-133 -364z" glyph-name="Ohungarumlaut.aalt" horiz-adv-x="1359"/><glyph d="M897 1436h-434v90h434v-90zM695 1190q91 0 188.5 -36t179.5 -106.5t132 -190.5t50 -271.5t-50 -272t-174 -229.5t-339 -109q-163 0 -365 130.5t-202 479t200.5 477t379.5 128.5zM238 596q0 -241 131 -377.5t314 -136.5t309 135t126 374t-124 365.5t-307 126.5t-316 -123 t-133 -364z" glyph-name="Omacron.aalt" horiz-adv-x="1359"/><glyph d="M1245 600q0 -166 -50 -286.5t-174 -229.5t-339 -109q-106 0 -211 43l-94 -194l-88 45l94 192q-121 76 -194.5 208t-73.5 317q0 347 200.5 475.5t345.5 128.5q144 0 254 -47l91 186l86 -47l-93 -186q113 -74 179.5 -202t66.5 -294zM238 578q0 -133 53 -242t141 -174 l434 885q-84 37 -178 37t-172 -31t-141.5 -89.5t-100 -155.5t-36.5 -230zM682 82q184 0 310 135t126 371q0 276 -168 407l-432 -880q78 -33 164 -33z" glyph-name="Oslash.aalt" horiz-adv-x="1359"/><glyph d="M569 1413q-72 0 -112 -80l-68 35q27 76 75 112t98 36t118 -37t98 -37q60 0 101 86l65 -41q-49 -148 -166 -148q-45 0 -108.5 37t-100.5 37zM695 1190q91 0 188.5 -36t179.5 -106.5t132 -190.5t50 -271.5t-50 -272t-174 -229.5t-339 -109q-163 0 -365 130.5t-202 479 t200.5 477t379.5 128.5zM238 596q0 -241 131 -377.5t314 -136.5t309 135t126 374t-124 365.5t-307 126.5t-316 -123t-133 -364z" glyph-name="Otilde.aalt" horiz-adv-x="1359"/><glyph d="M1337 1059h-512v-404h449v-112h-449v-432h512v-111h-708q-193 0 -307.5 99.5t-160.5 216t-46 269.5t47 270.5t160 215.5t317 94h698v-106zM707 1059h-56q-188 2 -300.5 -115.5t-112.5 -355.5t116.5 -364t296.5 -126h56v961z" glyph-name="OE.aalt" horiz-adv-x="1462"/><glyph d="M166 1165h377q190 0 291.5 -95t101.5 -261t-103.5 -269.5t-289.5 -103.5h-258v-436h-119v1165zM285 1059v-512h225q143 0 223 67.5t80 191.5t-79 188.5t-224 64.5h-225z" glyph-name="P.aalt" horiz-adv-x="1052"/><glyph d="M285 950h190q178 0 284.5 -94t106.5 -254t-102 -259t-268 -99h-213v-244h-117v1165h119v-215zM283 840v-488h168q141 0 216.5 65.5t75.5 181.5t-74.5 178.5t-217.5 62.5h-168z" glyph-name="Thorn.aalt" horiz-adv-x="980"/><glyph d="M1245 586q0 -238 -111.5 -386.5t-283.5 -199.5l305 -131l-65 -102l-422 208q-199 4 -325 113t-177 228.5t-51 255.5t48.5 279.5t200.5 241t318 97.5q215 0 339 -106.5t174 -226t50 -271.5zM683 82q183 0 309 135t126 374t-124 365.5t-307 126.5t-316 -122.5t-133 -364.5 q0 -241 131 -377.5t314 -136.5z" glyph-name="Q.aalt" horiz-adv-x="1345"/><glyph d="M285 457v-457h-119v1165h375q199 0 283 -90q84 -89 85 -233q0 -303 -227 -369l274 -473h-143l-260 457h-268zM285 565h243q258 0 258 252q0 123 -63.5 182.5t-194.5 59.5h-243v-494z" glyph-name="R.aalt" horiz-adv-x="1026"/><glyph d="M545 1270h-111l156 223h180zM285 457v-457h-119v1165h375q199 0 283 -90q84 -89 85 -233q0 -303 -227 -369l274 -473h-143l-260 457h-268zM285 565h243q258 0 258 252q0 123 -63.5 182.5t-194.5 59.5h-243v-494z" glyph-name="Racute.aalt" horiz-adv-x="1026"/><glyph d="M461 1288l-219 205h133l123 -121l133 121h125l-207 -205h-88zM285 457v-457h-119v1165h375q199 0 283 -90q84 -89 85 -233q0 -303 -227 -369l274 -473h-143l-260 457h-268zM285 565h243q258 0 258 252q0 125 -63.5 183.5t-194.5 58.5h-243v-494z" glyph-name="Rcaron.aalt" horiz-adv-x="1026"/><glyph d="M285 457v-457h-119v1165h375q199 0 283 -90q84 -89 85 -233q0 -303 -227 -369l274 -473h-143l-260 457h-268zM285 565h243q258 0 258 252q0 125 -63.5 183.5t-194.5 58.5h-243v-494zM446 -109h127l-71 -294h-70z" glyph-name="Rcommaaccent.aalt" horiz-adv-x="1026"/><glyph d="M493 1190q166 0 324 -107l-49 -90q-137 96 -261 96.5t-186.5 -54t-62.5 -152.5q0 -97 116 -165q87 -51 197 -95q141 -63 208 -133t67 -183q0 -150 -98.5 -241t-270.5 -91q-90 0 -186 29t-168 80l43 92q137 -90 286.5 -90t213 57.5t63.5 147.5t-62.5 142t-164.5 95.5 t-140 62.5q-114 57 -167.5 125t-53.5 187t93 203t259 84z" glyph-name="S.aalt" horiz-adv-x="962"/><glyph d="M514 1270h-111l156 223h180zM493 1190q166 0 324 -107l-49 -90q-137 96 -261 96.5t-186.5 -54t-62.5 -152.5q0 -97 116 -165q87 -51 197 -95q141 -63 208 -133t67 -183q0 -150 -98.5 -241t-270.5 -91q-90 0 -186 29t-168 80l43 92q137 -90 286.5 -90t213 57.5t63.5 147.5 t-62.5 142t-164.5 95.5t-140 62.5q-114 57 -167.5 125t-53.5 187t93 203t259 84z" glyph-name="Sacute.aalt" horiz-adv-x="962"/><glyph d="M430 1288l-219 205h133l123 -121l133 121h125l-207 -205h-88zM846 307q0 -150 -98.5 -241t-270.5 -91q-90 0 -186 29t-168 80l43 92q137 -90 286.5 -90t213 57.5t63.5 147.5t-62.5 142t-164.5 95.5t-140 62.5q-114 57 -167.5 125t-53.5 187t93.5 203t259 84t323.5 -107 l-49 -90q-137 96 -261 96.5t-186.5 -54t-62.5 -152.5q0 -97 116 -165q54 -31 120.5 -61t78.5 -34q139 -63 206 -133t67 -183z" glyph-name="Scaron.aalt" horiz-adv-x="962"/><glyph d="M379 -324q147 23 147 95q0 37 -19.5 53t-44 16t-40.5 -8l-57 49l59 96q-174 16 -301 107l43 92q137 -90 286.5 -90t213 57.5t63.5 147.5t-62.5 142t-164.5 95.5t-140 62.5q-114 57 -167.5 125t-53.5 187t93.5 203t259 84t323.5 -107l-49 -90q-137 96 -261 96.5 t-186.5 -54t-62.5 -152.5q0 -97 116 -165q54 -31 120.5 -61t78.5 -34q139 -63 206 -133t67 -198t-91 -218t-251 -99l-35 -51q68 4 114 -39t46 -106q0 -154 -223 -176z" glyph-name="Scedilla.c2sc" horiz-adv-x="962"/><glyph d="M493 1190q166 0 324 -107l-49 -90q-137 96 -261 96.5t-186.5 -54t-62.5 -152.5q0 -97 116 -165q87 -51 197 -95q141 -63 208 -133t67 -183q0 -150 -98.5 -241t-270.5 -91q-90 0 -186 29t-168 80l43 92q137 -90 286.5 -90t213 57.5t63.5 147.5t-62.5 142t-164.5 95.5 t-140 62.5q-114 57 -167.5 125t-53.5 187t93 203t259 84zM479 -403h-71l14 294h127z" glyph-name="Scommaaccent.aalt" horiz-adv-x="962"/><glyph d="M936 312q0 -142 -96.5 -239.5t-223.5 -97.5t-213 48l25 100q78 -39 171 -39t153.5 59.5t60.5 155.5q0 227 -334 223v94l242 246q0 98 -59.5 159.5t-154.5 61.5t-158.5 -60t-63.5 -177v-846h-119v864q0 147 98 236.5t250 89.5t241 -93t89 -261l-230 -228q139 -8 230.5 -81 t91.5 -215z" glyph-name="germandbls.aalt" horiz-adv-x="1050"/><glyph d="M981 1059h-391v-1059h-121v1059h-393v106h905v-106z" glyph-name="T.aalt" horiz-adv-x="1056"/><glyph d="M729 1403h-434v90h434v-90zM981 1059h-391v-1059h-121v1059h-393v106h905v-106z" glyph-name="Tbar.aalt" horiz-adv-x="1056"/><glyph d="M459 1286l-219 205h133l125 -121l131 121h127l-207 -205h-90zM981 1059h-391v-1059h-121v1059h-393v106h905v-106z" glyph-name="Tcaron.aalt" horiz-adv-x="1056"/><glyph d="M408 -324q147 23 147 95q0 37 -19.5 53t-44.5 16t-40 -8l-58 49l76 125v1053h-393v106h905v-106h-391v-1059h-41l-51 -76q68 4 113.5 -39t45.5 -106q0 -154 -223 -176z" glyph-name="Tcommaaccent.c2sc" horiz-adv-x="1056"/><glyph d="M981 1059h-391v-1059h-121v1059h-393v106h905v-106zM451 -109h127l-70 -294h-72z" glyph-name="uni021A.aalt" horiz-adv-x="1056"/><glyph d="M1038 1165v-764q0 -236 -126.5 -332t-309.5 -96q-181 0 -308.5 97.5t-127.5 330.5v764h119v-792q0 -127 82 -209t235 -82q154 0 236 82t82 209v792h118z" glyph-name="U.aalt" horiz-adv-x="1206"/><glyph d="M641 1270h-113l156 223h180zM1038 1165v-764q0 -236 -126.5 -332t-309.5 -96q-181 0 -308.5 97.5t-127.5 330.5v764h119v-792q0 -127 82 -209t235 -82q154 0 236 82t82 209v792h118z" glyph-name="Uacute.aalt" horiz-adv-x="1206"/><glyph d="M479 1292h-141l229 217h68l217 -217h-133l-123 109zM1038 1165v-764q0 -236 -126.5 -332t-309.5 -96q-181 0 -308.5 97.5t-127.5 330.5v764h119v-792q0 -127 82 -209t235 -82q154 0 236 82t82 209v792h118z" glyph-name="Ucircumflex.aalt" horiz-adv-x="1206"/><glyph d="M439 1497q40 0 64.5 -23.5t24.5 -65.5t-24.5 -65.5t-64.5 -23.5t-63.5 23.5t-23.5 65.5t23.5 65.5t63.5 23.5zM768 1497q41 0 63.5 -23.5t22.5 -65.5t-22.5 -65.5t-63.5 -23.5t-64.5 23.5t-23.5 65.5t23.5 65.5t64.5 23.5zM1038 1165v-764q0 -236 -126.5 -332t-309.5 -96 q-181 0 -308.5 97.5t-127.5 330.5v764h119v-792q0 -127 82 -209t235 -82q154 0 236 82t82 209v792h118z" glyph-name="Udieresis.aalt" horiz-adv-x="1206"/><glyph d="M688 1270h-110l-232 223h184zM1038 1165v-764q0 -236 -126.5 -332t-309.5 -96q-181 0 -308.5 97.5t-127.5 330.5v764h119v-792q0 -127 82 -209t235 -82q154 0 236 82t82 209v792h118z" glyph-name="Ugrave.aalt" horiz-adv-x="1206"/><glyph d="M516 1272h-90l35 221h164zM733 1272h-90l117 221h164zM1038 1165v-764q0 -236 -126.5 -332t-309.5 -96q-181 0 -308.5 97.5t-127.5 330.5v764h119v-792q0 -127 82 -209t235 -82q154 0 236 82t82 209v792h118z" glyph-name="Uhungarumlaut.aalt" horiz-adv-x="1206"/><glyph d="M823 1405h-432v90h432v-90zM1038 1165v-764q0 -236 -126.5 -332t-309.5 -96q-181 0 -308.5 97.5t-127.5 330.5v764h119v-792q0 -127 82 -209t235 -82q154 0 236 82t82 209v792h118z" glyph-name="Umacron.aalt" horiz-adv-x="1206"/><glyph d="M1038 1165v-764q0 -307 -241 -397q-47 -59 -63.5 -98t-16.5 -86q0 -104 100 -123l-29 -84q-178 29 -182 201q-2 86 78 163q-40 -4 -106 -4q-158 0 -285 97.5t-127 330.5v764h119v-792q0 -127 82 -209t235 -82q154 0 236 82t82 209v792h118z" glyph-name="Uogonek.aalt" horiz-adv-x="1206"/><glyph d="M606 1563q61 0 105.5 -36t44.5 -105.5t-43 -104.5t-105 -35t-105.5 35t-43.5 104.5t43 105.5t104 36zM607 1497q-32 0 -51 -21.5t-19 -54.5t20.5 -53t51 -20t50 19t19.5 53t-19.5 55.5t-51.5 21.5zM1038 1165v-764q0 -236 -126.5 -332t-309.5 -96q-181 0 -308.5 97.5 t-127.5 330.5v764h119v-792q0 -127 82 -209t235 -82q154 0 236 82t82 209v792h118z" glyph-name="Uring.aalt" horiz-adv-x="1206"/><glyph d="M1051 1165l-445 -1165h-117l-448 1165h133l375 -1018l364 1018h138z" glyph-name="V.aalt" horiz-adv-x="1091"/><glyph d="M1642 1165l-356 -1183h-115l-317 1013l-319 -1013h-115l-359 1183h132l288 -995l310 997h131l307 -1003l293 1001h120z" glyph-name="W.aalt" horiz-adv-x="1703"/><glyph d="M893 1270h-113l156 225h180zM1642 1165l-356 -1183h-115l-317 1013l-319 -1013h-115l-359 1183h132l288 -995l310 997h131l307 -1003l293 1001h120z" glyph-name="Wacute.aalt" horiz-adv-x="1703"/><glyph d="M731 1292h-141l229 217h68l217 -217h-133l-123 109zM1642 1165l-356 -1183h-115l-317 1013l-319 -1013h-115l-359 1183h132l288 -995l310 997h131l307 -1003l293 1001h120z" glyph-name="Wcircumflex.aalt" horiz-adv-x="1703"/><glyph d="M692 1319q-41 0 -64.5 23.5t-23.5 65.5t23.5 66.5t63.5 24.5t64.5 -24.5t24.5 -66.5t-23.5 -65.5t-64.5 -23.5zM1020 1319q-41 0 -64.5 23.5t-23.5 65.5t23.5 66.5t64.5 24.5t63.5 -24.5t22.5 -66.5t-22.5 -65.5t-63.5 -23.5zM1642 1165l-356 -1183h-115l-317 1013 l-319 -1013h-115l-359 1183h132l288 -995l310 997h131l307 -1003l293 1001h120z" glyph-name="Wdieresis.aalt" horiz-adv-x="1703"/><glyph d="M829 1270l-231 225h184l158 -225h-111zM1642 1165l-356 -1183h-115l-317 1013l-319 -1013h-115l-359 1183h132l288 -995l310 997h131l307 -1003l293 1001h120z" glyph-name="Wgrave.aalt" horiz-adv-x="1703"/><glyph d="M657 596l408 -596h-141l-336 500l-328 -500h-139l397 600l-383 565h146l311 -473l301 473h143z" glyph-name="X.aalt" horiz-adv-x="1185"/><glyph d="M606 0h-119v453l-413 712h133l340 -596l319 596h129l-389 -712v-453z" glyph-name="Y.aalt" horiz-adv-x="1071"/><glyph d="M565 1270h-110l155 223h181zM606 0h-119v453l-413 712h133l340 -596l319 596h129l-389 -712v-453z" glyph-name="Yacute.aalt" horiz-adv-x="1071"/><glyph d="M406 1292h-142l230 217h67l217 -217h-133l-123 109zM606 0h-119v453l-413 712h133l340 -596l319 596h129l-389 -712v-453z" glyph-name="Ycircumflex.aalt" horiz-adv-x="1071"/><glyph d="M366 1319q-40 0 -63.5 23.5t-23.5 65.5t23.5 65.5t63.5 23.5t64.5 -23.5t24.5 -65.5t-24.5 -65.5t-64.5 -23.5zM694 1319q-41 0 -64.5 23.5t-23.5 65.5t23.5 65.5t64.5 23.5t63.5 -23.5t22.5 -65.5t-22.5 -65.5t-63.5 -23.5zM606 0h-119v453l-413 712h133l340 -596 l319 596h129l-389 -712v-453z" glyph-name="ydieresis.aalt" horiz-adv-x="1071"/><glyph d="M504 1270l-232 223h185l157 -223h-110zM606 0h-119v453l-413 712h133l340 -596l319 596h129l-389 -712v-453z" glyph-name="Ygrave.aalt" horiz-adv-x="1071"/><glyph d="M952 109v-109h-817v109l643 950h-604v106h741v-112l-641 -944h678z" glyph-name="Z.aalt" horiz-adv-x="1060"/><glyph d="M584 1300h-113l156 226h180zM952 109v-109h-817v109l643 950h-604v106h741v-112l-641 -944h678z" glyph-name="Zacute.aalt" horiz-adv-x="1060"/><glyph d="M498 1319l-219 207h133l125 -123l131 123h127l-207 -207h-90zM952 109v-109h-817v109l643 950h-604v106h741v-112l-641 -944h678z" glyph-name="Zcaron.aalt" horiz-adv-x="1060"/><glyph d="M552 1530q38 0 64.5 -24.5t26.5 -70.5t-26.5 -70t-64.5 -24t-64.5 25t-26.5 70t26.5 69.5t64.5 24.5zM952 109v-109h-817v109l643 950h-604v106h741v-112l-641 -944h678z" glyph-name="Zdotaccent.aalt" horiz-adv-x="1060"/><glyph d="M646.5 1458q107.5 0 201.5 -44t170 -132t119 -235.5t43 -333.5t-43 -329.5t-119 -230.5t-170 -132.5t-201.5 -45.5t-202 45.5t-169 132.5t-118.5 230t-44 329t44 334t118.5 236t169 132t202 44zM646.5 1339q-187.5 0 -297 -163.5t-109.5 -460.5t110.5 -459t295.5 -162 t296 163t111 459t-109.5 459.5t-297 163.5z" glyph-name="zero.case" horiz-adv-x="1292"/><glyph d="M942 109v-109h-735v109h307v1187l-350 -172l-53 93l438 223h90v-1331h303z" glyph-name="one.case" horiz-adv-x="1110"/><glyph d="M604 1458q244 0 374 -116.5t130 -299.5t-110 -299t-201 -197t-107 -93l-379 -336h840v-117h-997v119l405 360q37 33 113 98.5t149.5 134t116.5 150t43 170.5q0 147 -99.5 226t-275.5 79q-225 0 -397 -133l-72 101q223 153 467 153z" glyph-name="two.case" horiz-adv-x="1298"/><glyph d="M602 1458q225 0 350 -96t125 -230t-74.5 -223.5t-195.5 -130.5v-6q143 -16 240.5 -113.5t97.5 -234.5q0 -197 -161.5 -323t-433.5 -126t-476 158l73 100q187 -139 407 -139t341 95t121 237t-114 209t-347 67h-135v123h127q172 0 287.5 68t115.5 188t-101 189t-287 69 t-365 -141l-74 90q200 170 479 170z" glyph-name="three.case" horiz-adv-x="1257"/><glyph d="M1004 514h229v-111h-229v-403h-121l-4 403h-752v101l766 930h111v-920zM276 514h603l4 733l-607 -731v-2z" glyph-name="four.case" horiz-adv-x="1347"/><glyph d="M1061 1321h-717v-522q135 94 331 94t302 -77t148 -161t42 -190q0 -223 -146.5 -356.5t-410.5 -133.5t-422 131l68 95q137 -105 344 -105t323.5 99.5t116.5 258.5t-104 240.5t-278 81.5t-336 -119l-99 64v719h838v-119z" glyph-name="five.case" horiz-adv-x="1302"/><glyph d="M740 1458q225 0 390 -112l-69 -101q-158 92 -350 92q-255 0 -370.5 -182t-115.5 -475q98 98 209 151.5t281 53.5t276.5 -76t150.5 -162t44 -194q0 -201 -147.5 -339.5t-360.5 -138.5q-573 0 -574 719q0 458 174.5 585.5t259 153t202.5 25.5zM698 766q-289 0 -458 -223 q8 -213 124 -331t300 -118t289.5 101.5t105.5 254.5t-106.5 234.5t-254.5 81.5z" glyph-name="six.case" horiz-adv-x="1402"/><glyph d="M68 1321v113h1013v-113l-675 -1321h-140l686 1321h-884z" glyph-name="seven.case" horiz-adv-x="1193"/><glyph d="M633 1458q213 0 339 -99t126 -253q0 -115 -63.5 -199t-178.5 -127q121 -25 206 -133t85 -250q0 -190 -133 -306t-384 -116t-384 116t-133 306q0 143 86 250t209 133q-113 41 -176.5 125t-63.5 201q0 154 126 253t339 99zM634 1346q-157 0 -249 -67t-92 -185t96 -184 t245 -66t244 65.5t95 184.5t-91 185.5t-248 66.5zM633 721q-174 0 -283.5 -87t-109.5 -228t101 -226.5t292 -85.5q190 0 288.5 85t98.5 227t-106.5 228.5t-280.5 86.5z" glyph-name="eight.case" horiz-adv-x="1259"/><glyph d="M563 1458q276 0 418.5 -169t142.5 -498q0 -442 -174 -629t-450 -187q-207 0 -394 109l64 102q154 -92 351 -92t341 158t144 508q-117 -100 -223.5 -143.5t-256.5 -43.5q-195 0 -322.5 119t-127.5 322t144 323.5t343 120.5zM203 1014q0 -148 88 -232t231 -84t280.5 56.5 t196.5 142.5q-4 113 -41.5 201t-128.5 164.5t-255 76.5t-267.5 -88.5t-103.5 -236.5z" glyph-name="nine.case" horiz-adv-x="1239"/><glyph d="M616 1120q215 0 360.5 -154.5t145.5 -413.5t-146.5 -421t-360.5 -162t-358 162t-144 422t144 413.5t359 153.5zM616 1014q-160 0 -268 -126t-108 -337t110 -343t268 -132t267.5 134t109.5 343t-109.5 335t-269.5 126z" glyph-name="zero.oldstyle" horiz-adv-x="1234"/><glyph d="M831 106v-106h-634v106h262v805l-285 -172l-63 97l383 237h88l-2 -967h251z" glyph-name="one.oldstyle" horiz-adv-x="1001"/><glyph d="M514 1108q178 0 282.5 -95t104.5 -211t-71.5 -213t-278.5 -276l-242 -207h613v-106h-775v104l308 267q18 14 112.5 97t149.5 146.5t55 158.5t-71.5 161.5t-192.5 66.5q-180 0 -307 -122l-64 84q55 45 96 71.5t116 50t165 23.5z" glyph-name="two.oldstyle" horiz-adv-x="1069"/><glyph d="M602 1098q225 0 350 -96.5t125 -229.5t-74.5 -223t-195.5 -131v-6q143 -16 240.5 -113.5t97.5 -235.5q0 -197 -161.5 -322.5t-433.5 -125.5t-476 158l73 100q187 -139 407 -139t341 94t121 236t-114 210t-347 68h-135v123h127q172 0 287.5 67.5t115.5 187.5t-101 189.5 t-287 69.5t-365 -141l-74 90q200 170 479 170z" glyph-name="three.oldstyle" horiz-adv-x="1257"/><glyph d="M1004 154h229v-111h-229v-403h-121l-4 403h-752v100l766 930h111v-919zM276 154h603l4 733l-607 -731v-2z" glyph-name="four.oldstyle" horiz-adv-x="1347"/><glyph d="M1061 954h-717v-522q135 94 331 94t302 -76.5t148 -160.5t42 -191q0 -223 -146.5 -356t-410.5 -133t-422 131l68 94q137 -104 344 -104t323.5 99t116.5 258t-104 240t-278 81t-336 -117l-99 63v719h838v-119z" glyph-name="five.oldstyle" horiz-adv-x="1302"/><glyph d="M740 1458q225 0 390 -112l-69 -101q-158 92 -350 92q-255 0 -370.5 -182t-115.5 -475q98 98 209 151.5t281 53.5t276.5 -76t150.5 -162t44 -194q0 -201 -147.5 -339.5t-360.5 -138.5q-573 0 -574 719q0 458 174.5 585.5t259 153t202.5 25.5zM698 766q-289 0 -458 -223 q8 -213 124 -331t300 -118t289.5 101.5t105.5 254.5t-106.5 234.5t-254.5 81.5z" glyph-name="six.oldstyle" horiz-adv-x="1236"/><glyph d="M68 954v113h1013v-113l-675 -1321h-140l686 1321h-884z" glyph-name="seven.oldstyle" horiz-adv-x="1193"/><glyph d="M633 1466q213 0 339 -99t126 -253q0 -115 -63.5 -199t-178.5 -127q121 -25 206 -133t85 -249q0 -188 -133 -305t-384 -117t-384 115.5t-133 306.5q0 143 86 249.5t209 132.5q-113 41 -176.5 125t-63.5 201q0 154 126 253t339 99zM634 1354q-157 0 -249 -66.5t-92 -185.5 t96 -184.5t245 -65.5t244 65.5t95 184.5t-91 185.5t-248 66.5zM633 731q-174 0 -283.5 -88t-109.5 -229t101 -226.5t292 -85.5q190 0 288.5 85t98.5 227t-106.5 229.5t-280.5 87.5z" glyph-name="eight.oldstyle" horiz-adv-x="1259"/><glyph d="M563 1092q276 0 418.5 -169t142.5 -499q0 -443 -174 -629t-450 -186q-207 0 -394 108l64 103q154 -92 352 -92t341 157.5t143 507.5q-117 -100 -223.5 -143t-256.5 -43q-195 0 -322.5 118.5t-127.5 321.5t144 324t343 121zM203 647q0 -148 88 -231.5t231 -83.5t280.5 56 t196.5 142q-4 113 -41.5 201t-128 165t-254.5 77q-165 0 -268.5 -89t-103.5 -237z" glyph-name="nine.oldstyle" horiz-adv-x="1239"/><glyph d="M409 528q146 0 238 -106.5t92 -318.5t-93 -319.5t-238 -107.5t-236.5 107.5t-91.5 319.5t91.5 318.5t237.5 106.5zM408 418q-197 0 -197 -315.5t197 -315.5q205 0 205 315.5t-205 315.5z" glyph-name="zero.sinf" horiz-adv-x="819"/><glyph d="M489 -190h173v-107h-463v107h172v559l-164 -78l-49 92l252 129h79v-702z" glyph-name="one.sinf" horiz-adv-x="819"/><glyph d="M382 528q142 0 220 -67.5t78 -169.5q0 -182 -244 -371l-141 -110h407v-107h-569v94l236 193q182 150 182 293q0 63 -45 101t-117 38q-117 0 -209 -82l-63 86q123 102 265 102z" glyph-name="two.sinf" horiz-adv-x="819"/><glyph d="M392 528q146 0 220 -59t74 -145q0 -57 -39 -108.5t-96 -72.5v-6q74 -14 122 -66.5t48 -133.5q0 -113 -91 -187t-247 -74t-285 101l70 94q98 -84 210 -84t163 42.5t51 110.5t-48 102t-157 34h-72v106h56q86 0 137 32t51 91q0 113 -158 113q-113 0 -206 -88l-66 82 q117 116 263 116z" glyph-name="three.sinf" horiz-adv-x="819"/><glyph d="M600 20h123v-100h-123v-217h-117v217h-387v100l412 494h92v-494zM483 20v308l-252 -308h252z" glyph-name="four.sinf" horiz-adv-x="819"/><glyph d="M641 406h-371v-207q55 39 159 39t186.5 -72t82.5 -195t-92 -203.5t-235 -80.5t-248 84l57 88q86 -63 186 -63t151.5 49t51.5 125t-50 118.5t-139 42.5t-147 -57l-77 37v401h485v-106z" glyph-name="five.sinf" horiz-adv-x="819"/><glyph d="M467 528q129 0 242 -79l-60 -93q-84 64 -191 64t-170 -70.5t-63 -236.5q90 94 238 94q102 0 183 -66.5t81 -188.5t-85 -199t-206 -77q-342 0 -342 408q0 341 147.5 392.5t225.5 51.5zM446 96q-64 0 -126 -30.5t-89 -71.5q4 -98 57.5 -153.5t136.5 -55.5t129 44t46 113 t-45 111.5t-109 42.5z" glyph-name="six.sinf" horiz-adv-x="819"/><glyph d="M121 389v111h577v-86l-370 -711h-127l352 686h-432z" glyph-name="seven.sinf" horiz-adv-x="819"/><glyph d="M725 -82q0 -96 -89 -169t-227 -73t-226.5 73t-88.5 169q0 158 170 215q-55 18 -93 64.5t-38 113.5q0 96 77 156.5t201 60.5t201.5 -60t77.5 -144q0 -150 -131 -191q166 -55 166 -215zM411.5 420q-67.5 0 -113.5 -32t-46 -87q0 -117 159.5 -117t159.5 117q0 55 -46 87 t-113.5 32zM411 -215q91 0 137 39.5t46 105.5t-50 106t-133 40t-134.5 -40t-51.5 -107t47.5 -105.5t138.5 -38.5z" glyph-name="eight.sinf" horiz-adv-x="819"/><glyph d="M389 528q338 0 338 -409q0 -339 -151.5 -391t-221.5 -52q-145 0 -237 80l59 88q80 -57 180 -57t171 70.5t71 234.5q-110 -96 -226 -96t-197 67.5t-81 191.5t87 198.5t208 74.5zM399 418q-80 0 -128 -42t-48 -116t39 -114t107 -40t133 26t92 65q-4 109 -59.5 165 t-135.5 56z" glyph-name="nine.sinf" horiz-adv-x="819"/><glyph d="M409 1716q146 0 238 -106.5t92 -318.5t-93 -319.5t-238 -107.5t-236.5 107.5t-91.5 319.5t91.5 318.5t237.5 106.5zM408 1606q-197 0 -197 -315.5t197 -315.5q205 0 205 315.5t-205 315.5z" glyph-name="zero.superior" horiz-adv-x="819"/><glyph d="M489 997h173v-106h-463v106h172v559l-164 -77l-49 92l252 129h79v-703z" glyph-name="one.superior" horiz-adv-x="819"/><glyph d="M382 1716q142 0 220 -67.5t78 -169.5q0 -182 -244 -371l-141 -111h407v-106h-569v94l236 193q182 150 182 292q0 63 -45 100.5t-117 37.5q-117 0 -209 -80l-63 86q123 102 265 102z" glyph-name="two.superior" horiz-adv-x="819"/><glyph d="M392 1716q146 0 220 -59.5t74 -145.5q0 -57 -39 -108t-96 -72v-6q74 -14 122 -66.5t48 -134.5q0 -113 -91 -186.5t-247 -73.5t-285 101l70 94q98 -84 210 -84t163 42.5t51 110.5t-48 102t-157 34h-72v106h56q86 0 137 32t51 91q0 113 -158 113q-111 0 -206 -88l-66 81 q117 117 263 117z" glyph-name="three.superior" horiz-adv-x="819"/><glyph d="M600 1208h123v-100h-123v-217h-117v217h-387v100l412 494h92v-494zM483 1208v308l-252 -308h252z" glyph-name="four.superior" horiz-adv-x="819"/><glyph d="M641 1593h-371v-207q55 39 159 39t186.5 -72.5t82.5 -194.5t-92 -203t-235 -81t-248 84l57 89q86 -63 186 -63t151.5 47.5t51.5 124.5t-50 120t-139 43t-147 -57l-77 36v402h485v-107z" glyph-name="five.superior" horiz-adv-x="819"/><glyph d="M467 1716q129 0 242 -80l-60 -92q-84 64 -191 64t-170 -72t-63 -236q90 94 238 95q102 0 183 -66.5t81 -189.5t-85 -199t-206 -76q-342 0 -342 408q0 337 147.5 390.5t225.5 53.5zM446 1284q-64 0 -126 -30.5t-89 -71.5q4 -98 57.5 -153.5t136.5 -55.5t129 44.5t46 112.5 t-45 111t-109 43z" glyph-name="six.superior" horiz-adv-x="819"/><glyph d="M121 1577v111h577v-86l-370 -711h-127l352 686h-432z" glyph-name="seven.superior" horiz-adv-x="819"/><glyph d="M725 1106q0 -96 -89 -169t-227 -73t-226.5 73t-88.5 169q0 156 170 215q-55 18 -93 63.5t-38 127.5t77 143t201 61t201.5 -60.5t77.5 -143.5q0 -150 -131 -191q166 -55 166 -215zM411.5 1608q-67.5 0 -113.5 -33t-46 -86q0 -117 159.5 -117t159.5 117q0 53 -46 86 t-113.5 33zM411 973q91 0 137 39.5t46 105.5t-50 106t-133 40t-134.5 -41t-51.5 -107t47.5 -104.5t138.5 -38.5z" glyph-name="eight.superior" horiz-adv-x="819"/><glyph d="M389 1716q338 0 338 -409q0 -339 -151.5 -391t-221.5 -52q-143 0 -237 80l59 88q80 -57 180 -57t171 70.5t71 234.5q-110 -96 -226 -96t-197 67.5t-81 191.5t87 198.5t208 74.5zM399 1606q-80 0 -128 -42t-48 -116t39 -114t107 -40t133 26t92 64q-4 106 -59.5 164 t-135.5 58z" glyph-name="nine.superior" horiz-adv-x="819"/><glyph d="M665.5 1458q108.5 0 203 -44t169 -132t118.5 -235.5t44 -334.5t-44 -330.5t-118.5 -231t-169 -132.5t-203 -45t-202.5 45t-169 132.5t-119 230.5t-44 331t44 335t119 235t169 132t202.5 44zM665.5 1339q-188.5 0 -298 -163.5t-109.5 -461.5t110.5 -460t297.5 -162 q186 0 296.5 163t110.5 460t-109.5 460.5t-298 163.5z" glyph-name="zero.tnum" horiz-adv-x="1331"/><glyph d="M1116 109v-109h-733v109h307v1187l-352 -172l-51 93l436 223h90v-1331h303z" glyph-name="one.tnum" horiz-adv-x="1331"/><glyph d="M628 1458q244 0 373 -116.5t129 -298.5t-101 -291t-195.5 -194t-120.5 -105l-379 -336h840v-117h-998v119l406 360q37 33 112.5 98.5t150 135t117 150t42.5 169.5q0 147 -99.5 226t-275.5 79q-225 0 -398 -133l-71 101q224 153 468 153z" glyph-name="two.tnum" horiz-adv-x="1331"/><glyph d="M659 1458q225 0 350.5 -96t125.5 -230t-75 -223.5t-196 -130.5v-6q143 -16 240.5 -113.5t97.5 -234.5q0 -197 -161 -323t-433 -126t-477 158l74 100q188 -139 408 -139t340 95t120 237t-112.5 209t-348.5 67h-133v123h125q174 0 289 68t115 188t-101 189t-287 69 t-366 -141l-74 90q203 170 479 170z" glyph-name="three.tnum" horiz-adv-x="1331"/><glyph d="M989 514h230v-111h-230v-403h-121l-4 403h-751v101l766 930h110v-920zM262 514h602l4 733l-606 -731v-2z" glyph-name="four.tnum" horiz-adv-x="1331"/><glyph d="M1065 1321h-717v-522q135 94 331 94t302 -77t148 -161t42 -190q0 -223 -146 -356.5t-410 -133.5t-422 131l67 95q137 -105 344 -105t323.5 99.5t116.5 258.5t-104 240.5t-278 81.5t-336 -119l-99 64v719h838v-119z" glyph-name="five.tnum" horiz-adv-x="1331"/><glyph d="M768 1458q220 0 391 -112l-72 -101q-158 92 -350 92q-255 0 -370 -181.5t-115 -475.5q98 98 209.5 151.5t280.5 53.5t276.5 -76t150.5 -162t43 -194q0 -201 -146 -339.5t-361 -138.5q-573 0 -574 719q0 459 174 586t260.5 152.5t202.5 25.5zM726 766q-288 0 -460 -223 q10 -213 125 -331t299 -118t289.5 101.5t105.5 254.5t-105.5 234.5t-253.5 81.5z" glyph-name="six.tnum" horiz-adv-x="1331"/><glyph d="M160 1321v113h1014v-113l-676 -1321h-140l686 1321h-884z" glyph-name="seven.tnum" horiz-adv-x="1331"/><glyph d="M670 1458q213 0 339 -99t126 -253q0 -115 -62.5 -199t-179.5 -127q121 -25 206 -133t85 -250q0 -190 -133 -306t-384 -116t-384 116t-133 306q0 143 86 250t210 133q-115 41 -178 125t-63 201q0 154 126 253t339 99zM672 1346q-158 0 -250 -67t-92 -185t96 -184t245 -66 t244 65.5t95 184.5t-90 185.5t-248 66.5zM670 721q-174 0 -284 -87t-110 -228t101.5 -226.5t292.5 -85.5q190 0 288.5 85t98.5 227t-106.5 228.5t-280.5 86.5z" glyph-name="eight.tnum" horiz-adv-x="1331"/><glyph d="M629 1458q276 0 419.5 -169t143.5 -498q0 -622 -243.5 -719t-383.5 -97q-205 0 -393 109l64 102q156 -92 352 -92t339.5 156.5t143.5 509.5q-117 -100 -223.5 -143.5t-255.5 -43.5q-195 0 -323 119t-128 322t144.5 323.5t343.5 120.5zM268 1014q0 -148 88 -232t232 -84 t282 56.5t195 142.5q-4 113 -42 201t-128.5 164.5t-255.5 76.5q-164 0 -267.5 -88.5t-103.5 -236.5z" glyph-name="nine.tnum" horiz-adv-x="1331"/><glyph d="M666 1120q238 0 397.5 -153.5t159.5 -413.5t-161.5 -422t-397.5 -162t-394.5 161t-158.5 422t158.5 414.5t396.5 153.5zM667 1006q-177 0 -298 -123t-121 -331t122 -339t297 -131t296.5 132t121.5 339t-120.5 330t-297.5 123z" glyph-name="zero.tnum.oldstyle" horiz-adv-x="1331"/><glyph d="M1028 106v-106h-637v106h262v805l-284 -172l-64 97l383 237h88l-2 -967h254z" glyph-name="one.tnum.oldstyle" horiz-adv-x="1331"/><glyph d="M651 1108q193 0 304.5 -95t111.5 -212t-77 -214.5t-298 -267.5l-262 -204h660v-115h-834v111l332 264q29 19 148 116t156.5 157t37.5 122q0 94 -78 158.5t-209 64.5q-199 0 -330 -121l-69 91q90 72 178 108.5t229 36.5z" glyph-name="two.tnum.oldstyle" horiz-adv-x="1331"/><glyph d="M659 1098q225 0 350.5 -96.5t125.5 -229.5t-75 -223t-196 -131v-6q143 -16 240.5 -113.5t97.5 -235.5q0 -197 -161 -322.5t-433 -125.5t-477 158l74 100q188 -139 407 -139t340 94t121 236t-112.5 210t-348.5 68h-135v123h127q172 0 288 67.5t116 187.5t-101 189.5 t-287 69.5t-366 -141l-74 90q200 170 479 170z" glyph-name="three.tnum.oldstyle" horiz-adv-x="1331"/><glyph d="M989 154h230v-111h-230v-403h-121l-4 403h-751v100l766 930h110v-919zM262 154h602l4 733l-606 -731v-2z" glyph-name="four.tnum.oldstyle" horiz-adv-x="1331"/><glyph d="M1071 954h-717v-522q135 94 330 94t302.5 -76.5t149.5 -160.5t42 -191q0 -223 -146.5 -356t-410.5 -133t-422 131l67 94q136 -104 344 -104t324.5 99t116.5 258t-104.5 240t-278.5 81t-336 -117l-99 63v719h838v-119z" glyph-name="five.tnum.oldstyle" horiz-adv-x="1331"/><glyph d="M762 1458q220 0 391 -112l-72 -101q-158 92 -350 92q-255 0 -370 -181.5t-115 -475.5q98 98 209.5 151.5t280.5 53.5t275.5 -76t150.5 -162t44 -194q0 -201 -146.5 -339.5t-361.5 -138.5q-573 0 -573 719q0 459 174 586t260.5 152.5t202.5 25.5zM718 766 q-287 0 -458 -223q10 -213 125 -331t299 -118t289.5 101.5t105.5 254.5t-106.5 234.5t-254.5 81.5z" glyph-name="six.tnum.oldstyle" horiz-adv-x="1331"/><glyph d="M160 954v113h1014v-113l-676 -1321h-140l686 1321h-884z" glyph-name="seven.tnum.oldstyle" horiz-adv-x="1331"/><glyph d="M670 1466q213 0 339 -99t126 -253q0 -115 -62.5 -199t-179.5 -127q121 -25 206 -133t85 -249q0 -188 -133 -305t-384 -117t-384 115.5t-133 306.5q0 143 86 249.5t210 132.5q-115 41 -178 125t-63 201q0 154 126 253t339 99zM672 1354q-158 0 -250 -66.5t-92 -185.5 t96 -184.5t245 -65.5t244 65.5t95 184.5t-90 185.5t-248 66.5zM670 731q-174 0 -284 -88t-110 -229t101.5 -226.5t292.5 -85.5q190 0 288.5 85t98.5 227t-106.5 229.5t-280.5 87.5z" glyph-name="eight.tnum.oldstyle" horiz-adv-x="1331"/><glyph d="M629 1092q276 0 419.5 -169t143.5 -499q0 -441 -175 -628t-452 -187q-205 0 -393 108l64 103q156 -92 353 -92t339.5 158t142.5 507q-117 -100 -223.5 -143t-255.5 -43q-195 0 -323 118.5t-128 321.5t144.5 324t343.5 121zM268 647q0 -148 88 -231.5t232 -83.5t282 56 t195 142q-4 113 -42 201t-128.5 165t-254.5 77q-165 0 -268.5 -89t-103.5 -237z" glyph-name="nine.tnum.oldstyle" horiz-adv-x="1331"/><glyph d="M409 821q146 0 238 -106.5t92 -318.5t-93 -319.5t-238 -107.5t-236.5 107.5t-91.5 319.5t91.5 318.5t237.5 106.5zM408 711q-197 0 -197 -315.5t197 -315.5q205 0 205 315.5t-205 315.5z" glyph-name="zero.dnom" horiz-adv-x="819"/><glyph d="M489 102h173v-106h-463v106h172v560l-164 -78l-49 92l252 129h79v-703z" glyph-name="one.dnom" horiz-adv-x="819"/><glyph d="M382 821q142 0 220 -67.5t78 -169.5q0 -182 -244 -371l-141 -111h407v-106h-569v94l236 193q182 150 182 292q0 63 -45 100.5t-117 37.5q-117 0 -209 -80l-63 86q123 102 265 102z" glyph-name="two.dnom" horiz-adv-x="819"/><glyph d="M392 821q146 0 220 -59.5t74 -145.5q0 -57 -39 -108t-96 -72v-6q74 -14 122 -66.5t48 -134.5q0 -113 -91 -186.5t-247 -73.5t-285 101l70 94q98 -84 210 -84t163 42t51 110t-48 102.5t-157 34.5h-72v106h56q86 0 137 32t51 91q0 113 -158 113q-111 0 -206 -88l-66 82 q117 116 263 116z" glyph-name="three.dnom" horiz-adv-x="819"/><glyph d="M600 317h123v-100h-123v-217h-117v217h-387v100l412 494h92v-494zM483 317v308l-252 -308h252z" glyph-name="four.dnom" horiz-adv-x="819"/><glyph d="M641 698h-371v-206q55 38 159 38t186.5 -71.5t82.5 -194.5t-92 -203.5t-235 -80.5t-248 83l57 89q86 -64 186 -64t151.5 49t51.5 125t-50 119t-139 43t-147 -57l-77 36v402h485v-107z" glyph-name="five.dnom" horiz-adv-x="819"/><glyph d="M467 821q129 0 242 -80l-60 -92q-82 63 -190 63t-171 -70.5t-63 -235.5q90 94 238 94q102 0 183 -66.5t81 -188.5t-85 -199t-206 -77q-342 0 -342 408q0 337 147.5 390.5t225.5 53.5zM446 389q-64 0 -126 -30.5t-89 -71.5q4 -98 57.5 -153.5t136.5 -55.5t129 44t46 113 t-45 111.5t-109 42.5z" glyph-name="six.dnom" horiz-adv-x="819"/><glyph d="M121 682v111h577v-86l-370 -711h-127l352 686h-432z" glyph-name="seven.dnom" horiz-adv-x="819"/><glyph d="M725 211q0 -96 -89 -169t-227 -73t-226.5 73t-88.5 169q0 158 170 215q-55 18 -93 64t-38 128t77 142.5t201 60.5t201.5 -60.5t77.5 -143.5q0 -150 -131 -191q166 -55 166 -215zM411.5 713q-67.5 0 -113.5 -33t-46 -86q0 -117 159.5 -117t159.5 117q0 53 -46 86 t-113.5 33zM411 78q91 0 137 39t46 105t-50 106.5t-133 40.5t-134.5 -41t-51.5 -107t47.5 -104.5t138.5 -38.5z" glyph-name="eight.dnom" horiz-adv-x="819"/><glyph d="M389 821q338 0 338 -409q0 -339 -151.5 -391t-221.5 -52q-143 0 -237 80l59 88q80 -57 180 -57t171 70.5t71 234.5q-110 -96 -226 -96t-197 67.5t-81 191.5t87 198.5t208 74.5zM399 711q-80 0 -128 -42t-48 -116t39 -114t107 -40t133 26t92 64q-4 106 -59.5 164 t-135.5 58z" glyph-name="nine.dnom" horiz-adv-x="819"/><glyph d="M409 1434q146 0 238 -106.5t92 -318.5t-93 -319.5t-238 -107.5t-236.5 107.5t-91.5 319.5t91.5 318.5t237.5 106.5zM408 1323q-197 0 -197 -315.5t197 -315.5q205 0 205 315.5t-205 315.5z" glyph-name="zero.numr" horiz-adv-x="819"/><glyph d="M489 715h173v-107h-463v107h172v559l-164 -78l-49 92l252 129h79v-702z" glyph-name="one.numr" horiz-adv-x="819"/><glyph d="M382 1434q142 0 220 -68t78 -170q0 -182 -244 -371l-141 -110h407v-107h-569v94l236 193q182 150 182 293q0 63 -45 100t-117 37q-117 0 -209 -80l-63 86q123 103 265 103z" glyph-name="two.numr" horiz-adv-x="819"/><glyph d="M392 1434q146 0 220 -59.5t74 -145.5q0 -57 -39 -108.5t-96 -71.5v-7q74 -14 122 -66t48 -134q0 -113 -91 -186.5t-247 -73.5t-285 100l70 94q98 -84 210 -84t163 42t51 111t-48 102.5t-157 33.5h-72v106h56q86 0 137 32t51 91q0 113 -158 113q-111 0 -206 -88l-66 82 q117 117 263 117z" glyph-name="three.numr" horiz-adv-x="819"/><glyph d="M600 926h123v-101h-123v-217h-117v217h-387v101l412 493h92v-493zM483 926v307l-252 -307h252z" glyph-name="four.numr" horiz-adv-x="819"/><glyph d="M641 1311h-371v-207q55 39 159 39t186.5 -72.5t82.5 -194.5t-92 -203t-235 -81t-248 84l57 88q86 -64 186 -64t151.5 48.5t51.5 125.5t-50 119.5t-139 42.5t-147 -57l-77 37v401h485v-106z" glyph-name="five.numr" horiz-adv-x="819"/><glyph d="M459 1325q-234 0 -234 -307q90 94 238 94q102 0 183 -66.5t81 -189.5t-85 -198.5t-206 -75.5q-342 0 -342 407q0 244 109 344.5t251 100.5t255 -80l-60 -92q-82 63 -190 63zM446 1001q-64 0 -126 -30.5t-89 -71.5q4 -98 57.5 -153.5t136.5 -55.5t129 44t46 113t-45 111.5 t-109 42.5z" glyph-name="six.numr" horiz-adv-x="819"/><glyph d="M121 1294v111h577v-86l-370 -711h-127l352 686h-432z" glyph-name="seven.numr" horiz-adv-x="819"/><glyph d="M725 823q0 -96 -89 -168.5t-227 -72.5t-226.5 72.5t-88.5 168.5q0 156 170 215q-55 18 -93 63.5t-38 128.5t77 143.5t201 60.5t201.5 -60.5t77.5 -143.5q0 -151 -131 -192q166 -55 166 -215zM411.5 1325q-67.5 0 -113.5 -32.5t-46 -86.5q0 -117 159.5 -116.5t159.5 116.5 q0 53 -46 86t-113.5 33zM411 690q91 0 137 39t46 106t-50 106.5t-133 39.5t-134.5 -40.5t-51.5 -106.5t47.5 -105t138.5 -39z" glyph-name="eight.numr" horiz-adv-x="819"/><glyph d="M389 1434q338 0 338 -410q0 -338 -151.5 -390t-221.5 -52q-143 0 -237 80l59 88q80 -58 180 -58t171 71t71 234q-110 -96 -226 -96t-197 67.5t-81 191.5t87 199t208 75zM399 1323q-80 0 -128 -42t-48 -116t39 -113.5t107 -39.5t133 25.5t92 64.5q-4 106 -59.5 163.5 t-135.5 57.5z" glyph-name="nine.numr" horiz-adv-x="819"/><glyph d="M616 1180q207 0 313.5 -106.5t147.5 -225t41 -268.5t-41 -268.5t-147 -228.5t-315 -110t-313.5 110t-145.5 228.5t-41 269.5t41 268.5t146 224t314 106.5zM617 1053q-167 0 -264 -124t-97 -350t97.5 -349.5t263 -123.5t262 125t96.5 349t-95.5 348.5t-262.5 124.5z" glyph-name="zero.sc" horiz-adv-x="1232"/><glyph d="M815 117v-117h-614v117h239v893l-258 -129l-57 96l350 188h103v-1048h237z" glyph-name="one.sc" horiz-adv-x="974"/><glyph d="M508 1180q192 0 297.5 -94.5t105.5 -243.5t-87 -246t-216 -217l-274 -254h612v-125h-786v121l315 289q74 59 147.5 136t87 98.5t37 62.5t23.5 114q0 109 -75 167.5t-217 58.5t-271 -99l-68 105q177 127 369 127z" glyph-name="two.sc" horiz-adv-x="1095"/><glyph d="M470 1180q200 0 299 -79t99 -185t-56 -182.5t-146 -108.5v-4q106 -12 179 -90t73 -187q0 -160 -126 -264.5t-321 -104.5q-244 0 -397 138l67 100q141 -109 303 -109t245 71t83 175t-78 152.5t-241 48.5h-121v119h110q125 0 204 51t79 140t-69.5 139.5t-186.5 50.5 q-158 0 -291 -109l-72 98q164 140 364 140z" glyph-name="three.sc" horiz-adv-x="1032"/><glyph d="M1006 424v-113h-172v-311h-134l-8 311h-563v101l588 745h117v-733h172zM700 971l-424 -547h420z" glyph-name="four.sc" horiz-adv-x="1122"/><glyph d="M893 1032h-543v-379q102 70 253 70t258.5 -88t107.5 -262t-117.5 -286t-323.5 -112t-338 107l60 108q117 -86 264 -86t229 74t82 192t-71.5 178t-194.5 60t-244 -92l-98 59v590h676v-133z" glyph-name="five.sc" horiz-adv-x="1105"/><glyph d="M305 567q154 154 329 154q164 0 280 -85.5t116 -257.5q0 -171 -116.5 -287t-288.5 -116q-219 0 -338 145.5t-119 442.5q0 160 40 282t142.5 227.5t296.5 105.5q193 0 346 -99l-73 -104q-117 76 -260 76t-249 -107.5t-106 -376.5zM638 600q-201 0 -321 -166 q6 -152 88 -242t208 -90t200 76t74 189t-73.5 173t-175.5 60z" glyph-name="six.sc" horiz-adv-x="1187"/><glyph d="M68 1032v123h796v-115l-497 -1040h-150l498 1032h-647z" glyph-name="seven.sc" horiz-adv-x="978"/><glyph d="M528 1178q170 0 274.5 -82t104.5 -209q0 -94 -49 -162t-131 -96q90 -27 152.5 -112t62.5 -193q0 -154 -109.5 -252.5t-305.5 -98.5t-304 97.5t-108 253.5q0 111 63.5 194.5t153.5 106.5q-80 33 -130 101.5t-50 160.5q0 127 103 209t273 82zM531 1053q-110 0 -174 -48.5 t-64 -133.5t66.5 -135t168.5 -50t169 50t67 136t-61.5 133.5t-171.5 47.5zM529 567q-120 0 -198.5 -65.5t-78.5 -167.5t72.5 -168t203.5 -66t199 65t68 169t-73 168.5t-193 64.5z" glyph-name="eight.sc" horiz-adv-x="1056"/><glyph d="M467 1180q221 0 338 -140.5t117 -414.5q0 -490 -197 -570t-281 -80t-157 17.5t-183 70.5l56 113q124 -76 274 -76t250 121t100 371q-78 -76 -157.5 -109.5t-190.5 -33.5q-152 0 -256 95t-104 264t114.5 270.5t276.5 101.5zM483 1051q-115 0 -191.5 -66.5t-76.5 -175.5 t63.5 -169t167.5 -60t198.5 39.5t133.5 105.5q-6 162 -93 244t-202 82z" glyph-name="nine.sc" horiz-adv-x="1036"/><glyph d="M274 1302q0 -246 195 -454l-66 -68q-240 213 -239 525q0 158 58 279.5t181 232.5l72 -56q-201 -213 -201 -459z" glyph-name="glyph602" horiz-adv-x="614"/><glyph d="M451 1305q0 -311 -240 -525l-66 68q195 208 195 454t-201 459l72 56q123 -111 181.5 -233t58.5 -279z" glyph-name="glyph603" horiz-adv-x="614"/><glyph d="M522 1321h-473v84h473v-84z" glyph-name="glyph604" horiz-adv-x="606"/><glyph d="M385 362h-106l-23 799h152zM332 203q41 0 70.5 -26.5t29.5 -78.5q0 -51 -29.5 -77.5t-70.5 -26.5t-70 26.5t-29 77.5t29 78t70 27z" glyph-name="exclam.aalt" horiz-adv-x="663"/><glyph d="M328 893q-41 0 -71 27.5t-30 77.5t30 78t71 28t69.5 -26.5t28.5 -78.5q0 -51 -28.5 -78.5t-69.5 -27.5zM274 735h107l22 -798h-151z" glyph-name="exclamdown.aalt" horiz-adv-x="657"/><glyph d="M539 1305l45 -64q-4 -2 -11 -8q-287 -233 -287 -682t300 -698l-45 -62q-2 2 -11 6q-367 254 -366 758q0 358 132.5 518.5t242.5 231.5z" glyph-name="parenleft.aalt" horiz-adv-x="757"/><glyph d="M586 555q0 -504 -367 -758q-8 -4 -10 -6l-45 62q299 250 299 698t-287 682q-6 6 -10 8l45 64q107 -69 185.5 -162.5t134 -237t55.5 -350.5z" glyph-name="parenright.aalt" horiz-adv-x="757"/><glyph d="M594 932q0 151 -193 151q-125 0 -231 -75l-66 84q138 102 298 102t240.5 -69.5t80.5 -183.5t-69.5 -191.5t-139.5 -151t-70 -154.5v-49h-116v31q0 120 66.5 195t133 145t66.5 166zM383 205q41 0 69.5 -27.5t28.5 -79.5q0 -51 -28.5 -77.5t-69.5 -26.5t-69.5 26.5 t-28.5 77.5t28.5 79t69.5 28z" glyph-name="question.aalt" horiz-adv-x="860"/><glyph d="M461 1128q41 0 70.5 -25.5t29.5 -74.5t-29.5 -74.5t-70.5 -25.5t-70 25.5t-29 74.5t29 74.5t70 25.5zM516 756v-31q0 -116 -65.5 -183t-132 -133.5t-66.5 -168.5q0 -51 47 -90t129 -39q143 0 246 71l63 -84q-141 -98 -299 -98t-236.5 68.5t-78.5 175.5t69.5 179.5 t138 142.5t68.5 143v47h117z" glyph-name="questiondown.aalt" horiz-adv-x="915"/><glyph d="M135 480q0 194 98.5 307.5t270.5 132.5l-6 165h116l-10 -163q152 -12 256 -107l-55 -86q-59 45 -114.5 67.5t-137.5 22.5q-135 0 -218 -88t-83 -258t87 -265t226 -95t258 102l56 -86q-115 -111 -289 -119l6 -168h-109l7 172q-152 25 -255.5 148.5t-103.5 317.5z" glyph-name="cent.oldstyle" horiz-adv-x="1071"/><glyph d="M846 298q0 -122 -78 -210t-217 -108l6 -160h-106l6 155q-190 8 -334 109l43 92q136 -90 286 -90t213.5 57.5t63.5 147.5t-62.5 141.5t-164.5 95.5t-178 82t-129.5 106t-53.5 181t78 193.5t211 97.5l-6 162h104l-4 -162q154 -10 293 -105l-49 -90q-137 97 -261 97 t-186.5 -54.5t-62.5 -152.5t85 -147.5t152 -78.5q66 -30 78 -34q139 -63 206 -133t67 -192z" glyph-name="dollar.aalt" horiz-adv-x="1015"/><glyph d="M962 1503q224 0 374.5 -73.5t240.5 -224t90 -366.5t-107.5 -360.5t-272.5 -144.5t-220 112q-109 -113 -270 -112q-115 0 -196 85t-81 267t124 297t323 115q137 0 254 -49l-64 -424q-14 -94 21.5 -140.5t101.5 -46.5q121 0 194.5 108.5t73.5 303.5q0 268 -161.5 406.5 t-449.5 138.5t-438.5 -139.5t-205.5 -280.5t-55 -313q0 -337 171 -478t449 -141q68 0 176.5 15.5t179.5 37.5l31 -98q-80 -27 -186.5 -44t-177.5 -17q-768 0 -768 743q0 246 114.5 434.5t312.5 288.5t422 100zM944 993q-137 0 -219 -88t-82 -219t52.5 -189.5t138.5 -58.5 q125 0 206 109q-2 34 4 71l50 353q-55 22 -150 22z" glyph-name="glyph613" horiz-adv-x="1779"/><glyph d="M911 934q0 -252 -117.5 -252t-117.5 252v74l-268 86l30 116l473 -151v-125zM1372 934q0 -252 -118.5 -252t-118.5 252v125l475 151l30 -116l-268 -86v-74zM1024 496q223 0 392 -119t210 -297h-127q-57 104 -186 171.5t-289 67.5t-289 -67.5t-186 -171.5h-127 q41 178 210 297t392 119z" glyph-name="u1F620.aalt"/><glyph d="M911 989q0 -256 -119.5 -256t-119.5 256v15l-240 -119l-31 114l510 254v-264zM1376 989q0 -256 -119.5 -256t-119.5 256v264l510 -254l-29 -114l-242 119v-15zM1025 678q275 0 439 -182.5t166 -470.5q-66 49 -242 78.5t-364 29.5q-369 0 -606 -108q2 289 167 471t440 182 zM1025 528q-165 0 -288 -77.5t-168 -231.5q187 53 455 53t455 -53q-43 154 -166 231.5t-288 77.5z" glyph-name="u1F627.aalt"/><glyph d="M918 1233l53 -150l-479 -174l-54 150zM1565 909l-480 174l54 150l479 -174zM1389 434q-74 0 -116 -56t-87 -113.5t-162 -57.5q-115 0 -160 57.5t-87 113.5t-115 56q-147 0 -207 -172l-111 33q27 102 98.5 198.5t212.5 96.5q115 -4 160 -56.5t69.5 -83t59.5 -51t80 -20.5 t80 22.5t59.5 54t70 85t159.5 49.5q182 0 240.5 -122t72.5 -173l-113 -33q-59 172 -204 172z" glyph-name="u1F616.aalt"/><glyph d="M653.5 1198q108.5 0 108.5 -229t-108.5 -229.5t-108.5 229.5q0 229 108.5 229zM1255 1059v-96q0 -164 -130 -164t-130 164v96h260zM592 102l-62 170q328 348 926 336l62 -170q-598 12 -926 -336z" glyph-name="u1F615.aalt"/><glyph d="M743 877q-98 0 -157.5 90t-67.5 260h125q15 -211 78 -211t85.5 51t31.5 160h125q-8 -170 -64.5 -260t-155.5 -90zM1319 475q-82 0 -138.5 55.5t-56.5 118.5t47.5 139.5t69.5 98.5q-143 55 -156 340h123q10 -109 33 -160t66 -51t65.5 51t30.5 160h125q-10 -260 -137 -330 q14 -20 40.5 -58t54 -76t27.5 -108t-56 -125t-138 -55zM1320 575q42 0 68.5 29t26.5 66t-40 96t-56 92q-14 -33 -54 -92t-40 -96t26.5 -66t68.5 -29zM1023 444q218 0 384 -105.5t207 -264.5h-156q-37 84 -157.5 138t-277.5 54t-277.5 -54t-157.5 -138h-154q39 160 205 265 t384 105z" glyph-name="u1F622.aalt"/><glyph d="M952 1100l-409 -219l-68 116l406 222zM1565 997l-68 -116l-410 219l72 119zM1911 660q0 -62 -54.5 -115t-133 -53t-133 53t-54.5 115t39 121t84 126t55 137h19q10 -70 55 -137t84 -126t39 -121zM1632 679q0 -36 25.5 -63.5t65.5 -27.5t66 26.5t26 63.5t-38.5 93t-52.5 89 q-16 -35 -54 -90t-38 -91zM1024 598q223 0 392 -119t210 -297h-127q-57 104 -186 172t-289 68t-289 -67.5t-186 -172.5h-127q41 178 210 297t392 119z" glyph-name="u1F625.aalt"/><glyph d="M866 973q0 -244 -114 -244t-113 242l-104 -60v170l391 207v-158l-60 -34v-123zM1295 729q-114 0 -113 244v123l-60 34v158l391 -207v-170l-104 60q0 -242 -114 -242zM1024 598q223 0 392 -119t210 -297h-127q-57 104 -186 172t-289 68t-289 -67.5t-186 -172.5h-127 q41 178 210 297t392 119z" glyph-name="u1F61E.aalt"/><glyph d="M915 907h-430v150h430v-150zM1565 907h-430v150h430v-150zM1561 340h-1074v147h1074v-147z" glyph-name="u1F611.aalt"/><glyph d="M730 1268q91 0 149.5 -103.5t62.5 -292.5h-123q-8 139 -29.5 204t-62.5 65t-61.5 -64.5t-28.5 -204.5h-123q4 188 64.5 292t151.5 104zM1322 1268q91 0 149.5 -103.5t64.5 -292.5h-125q-8 139 -28.5 204t-61.5 65t-62.5 -64.5t-29.5 -204.5h-123q6 188 65.5 292 t150.5 104zM1024 264q-205 0 -359.5 114t-191.5 284h139q35 -113 150 -188t262 -75t263 75t151 188h137q-20 -96 -84 -179q74 -162 64.5 -243.5t-87.5 -126.5q-51 -27 -129 -25.5t-202 186.5q-55 -10 -113 -10zM1415 203q37 20 39 61t-39 139q-76 -63 -172 -100 q59 -82 99 -103.5t73 3.5z" glyph-name="u1F60B.aalt"/><glyph d="M791 1008q0 -256 -120 -256t-120 256v75l-240 -118l-30 114l510 254v-325zM1255 1008q0 -256 -119.5 -256t-119.5 256v325l510 -254l-29 -114l-242 118v-75zM1767 605q0 -63 -54 -115t-133 -52t-133 52.5t-54 114.5t38.5 121.5t84 127t55.5 135.5h18q10 -68 55.5 -135.5 t84 -126.5t38.5 -122zM1489 622q0 -36 25.5 -61.5t65.5 -25.5t65.5 26.5t25.5 62.5t-38 92t-52 91q-14 -33 -53 -91t-39 -94zM1440 264h-1073v150h1073v-150z" glyph-name="u1F613.aalt"/><glyph d="M516 1171l25 115l428 -123l-25 -114zM1079 1163l426 123l25 -115l-426 -122zM1026 485q-86 0 -160 -12l-139 -952l-63 14l147 928q-51 -12 -92 -29l-211 -872l-66 10l211 829q-82 -49 -123 -120h-118q31 88 102.5 161.5t179.5 118.5l54 211l51 -8l-45 -182q39 12 77 20 l25 150l51 -9l-20 -131q153 19 282 -2l-20 133l51 9l25 -152q41 -8 78 -22l-46 184l52 10l55 -217q209 -92 270 -274h-118q-39 66 -111 112l209 -821l-64 -10l-211 866q-43 18 -92 33l146 -926l-64 -14l-139 950q-78 14 -164 14zM410 -328q-31 -8 -46.5 -13t-37 -24.5 t-26.5 -52.5t14.5 -57.5t52.5 -30.5t57 23l35 -17q2 -51 27.5 -80.5t89 -40t100.5 81.5l39 4q12 -35 46 -41t61.5 11.5t32.5 50.5t-8 57.5t-25.5 33.5t-39.5 28l9 47q158 -72 139 -176q-12 -66 -56.5 -96.5t-98.5 -23.5t-81 50q-20 -55 -63 -78.5t-93 -14.5t-82 45t-34 97 q-33 -31 -88 -21t-87 54.5t-20 112.5q16 98 191 118zM1628 -283q174 -16 193 -120q12 -68 -20 -111t-86 -53t-91 18q-2 -59 -32 -95t-82 -45t-95 14.5t-65 80.5q-18 -37 -76 -48t-102 19.5t-55 94.5t28 104.5t110 75.5l9 -47q-25 -16 -38.5 -26.5t-26.5 -36t-7 -58.5 t32.5 -50.5t59.5 -8.5q33 2 47 36l39 -2q18 -47 52 -65.5t72 -12t64.5 36t28.5 78.5l35 19q20 -25 57 -23q35 6 53.5 32t14.5 50t-9 35.5t-18 24.5t-42 24.5t-42 11.5z" glyph-name="u1F624.aalt"/><glyph d="M715 1225.5q123 -0.5 123 -261.5t-123 -261.5t-123 261.5t123 261.5zM1192 1225.5q123 -0.5 123 -261.5t-123 -261.5t-123 261.5t123 261.5zM1183.5 88q-112.5 0 -192.5 79t-80 191.5t80 192.5t192.5 80t191.5 -80t79 -192.5t-79 -191.5t-191.5 -79z" glyph-name="u1F62E.aalt"/><glyph d="M785.5 1225.5q121.5 -0.5 121.5 -261.5t-121.5 -261.5t-121.5 261.5t121.5 261.5zM1263.5 1225.5q122.5 -0.5 122.5 -261.5t-122.5 -261.5t-122.5 261.5t122.5 261.5zM1559 453h-226q-14 -242 -95 -360t-215 -118t-215 118t-93 360h-226v135h1070v-135zM1024 111 q78 0 118 77t56 265h-348q14 -188 55 -265t119 -77z" glyph-name="u1F61B.aalt"/><glyph d="M938 1042v-69l-332 -219l-51 143l217 107v10l-217 84l51 143zM1493 1098l-217 -84v-10l217 -107l-51 -143l-330 219v69l330 199zM1559 453h-226q-14 -242 -95 -360t-215 -118t-215 118t-93 360h-226v135h1070v-135zM1024 111q78 0 118 77t56 265h-348q14 -188 55 -265 t119 -77z" glyph-name="u1F61D.aalt"/><glyph d="M794 1188q81 0 128 -88t53 -252h-103q-14 227 -79.5 227t-79.5 -227h-103q6 164 54.5 252t129.5 88zM1254 1188q81 0 129.5 -88t54.5 -252h-103q-12 227 -78.5 227t-80.5 -227h-101q4 164 51 252t128 88zM1898 680.5q0 -62.5 -43 -106.5t-99 -51t-97 18 q-63 -205 -229 -325t-406 -120t-405.5 120t-229.5 325q-41 -25 -95 -18t-97 50t-45 107.5t36 101.5t96 49.5t126.5 26.5t115.5 49l11 -12q-28 -38 -34.5 -60t-11 -35.5t-5.5 -19.5t-4 -20.5t-3 -15.5l-6 -44q229 -127 553 -127t549 127l-3 33q-3 33 -9.5 47.5t-9.5 29.5 t-7 22.5t-10.5 25t-24.5 37.5l11 12q47 -35 115.5 -49t126.5 -26.5t96 -50.5t38 -100.5zM1792 627q25 25 24.5 56.5t-22.5 52.5t-80.5 32.5t-85.5 22.5q10 -27 22 -85t34 -80t52.5 -23t55.5 24zM234 683q-1 -31 25 -56t56.5 -24t52.5 23t32 79t22 86q-29 -10 -86 -21.5 t-79 -33.5t-23 -53zM700 504q-111 33 -215 92q53 -139 215 -213v121zM1350 383q162 74 215 213q-102 -59 -215 -92v-121zM2261 318.5q0 -62.5 -47 -110.5t-113.5 -50t-103.5 36t-49.5 97t-25.5 126.5t-48 114.5l10 13q49 -35 116.5 -49.5t126 -26.5t96.5 -50t38 -100.5z M164 545l10 -13q-35 -47 -48 -114.5t-25.5 -126.5t-49.5 -97t-101.5 -37t-112.5 49t-49 112.5t37 101.5t96.5 49t126 26.5t116.5 49.5zM1268 483q-96 -20 -203 -22v-139q111 4 203 30v131zM985 461q-106 2 -203 22v-131q94 -27 203 -30v139zM-128.5 320.5 q-0.5 -29.5 24.5 -55.5t55.5 -24.5t51.5 22.5t32.5 78.5t21.5 86.5q-29 -10 -85 -22t-78 -34t-22.5 -51.5zM1991 428q10 -27 22 -85t34 -80t53.5 -22.5t56.5 23.5q25 25 23.5 56.5t-22.5 53.5t-79.5 32t-87.5 22z" glyph-name="u1F602.aalt"/><glyph d="M677 1311q114 0 193.5 -80t79.5 -192.5t-79.5 -192.5t-193.5 -80t-194 80t-80 192.5t80 192.5t194 80zM1372.5 1311q112.5 0 193.5 -80t81 -192.5t-81 -192.5t-193.5 -80t-192.5 80t-80 192.5t80 192.5t192.5 80zM677 1212q-73 0 -124 -51t-51 -122.5t51 -123t124 -51.5 t123 51.5t50 123t-50 122.5t-123 51zM1372 1212q-72 0 -123 -51t-51 -122.5t51 -123t123 -51.5t123 51.5t51 123t-51 122.5t-123 51zM677 1106q28 0 47 -20.5t19 -48t-19 -47t-47 -19.5t-48.5 19.5t-20.5 47t20.5 48t48.5 20.5zM1373.5 1106q27.5 0 47 -20.5t19.5 -48 t-19.5 -47t-47 -19.5t-48 19.5t-20.5 47t20.5 48t48 20.5zM1025 737q232 0 376.5 -152.5t169.5 -414.5h-1092q25 262 169.5 414.5t376.5 152.5zM1024 594q-139 0 -244.5 -74t-130.5 -215h752q-25 141 -131.5 215t-245.5 74z" glyph-name="u1F628.aalt"/><glyph d="M469 1202l375 172l80 -123l-428 -176zM1124 1251l78 123l377 -172l-27 -127zM346.5 936q63.5 0 118.5 -31t88 -84h-416q35 53 90.5 84t119 31zM1701.5 936q63.5 0 119 -31t90.5 -84h-416q33 53 88 84t118.5 31zM590 695q0 -30 -6 -56h-475q-8 27 -8 57t8 58h475 q6 -29 6 -59zM1458 696q0 30 6 58h475q18 -64 0 -115h-475q-6 27 -6 57zM137 569h418q-31 -51 -78 -79.5t-131 -38.5q-84 10 -131 38.5t-78 79.5zM1493 569h418q-31 -51 -78 -79.5t-131 -38.5q-84 10 -131 38.5t-78 79.5zM1022.5 86q-148.5 0 -254.5 106.5t-106 256.5h718 q0 -150 -104.5 -256.5t-253 -106.5z" glyph-name="u1F633.aalt"/><glyph d="M784.5 1368q122.5 0 122.5 -261t-122.5 -261t-122.5 261t122.5 261zM1261.5 1368q122.5 0 122.5 -261t-122.5 -261t-122.5 261t122.5 261zM1023 709q232 0 376.5 -153t169.5 -415h-1092q25 262 169.5 415t376.5 153zM1023 565q-138 0 -244.5 -74.5t-131.5 -214.5h752 q-25 139 -131.5 214t-244.5 75z" glyph-name="u1F626.aalt"/><glyph d="M784.5 1225.5q122.5 -0.5 122.5 -261.5t-122.5 -261.5t-122.5 261.5t122.5 261.5zM1261.5 1225.5q122.5 -0.5 122.5 -261.5t-122.5 -261.5t-122.5 261.5t122.5 261.5zM299 756q266 -226 726 -226q218 0 406.5 57.5t315.5 172.5q-2 -330 -197.5 -538t-526.5 -208 t-526.5 207t-197.5 535zM442 551q57 -150 232 -229v131q-119 35 -232 98zM1608 551q-113 -61 -234 -98v-131q175 79 234 229zM1286 291v141q-102 -23 -217 -26v-150q117 4 217 35zM762 430v-141q102 -29 219 -33v150q-115 4 -219 24z" glyph-name="u1F600.aalt"/><glyph d="M729 1268q92 0 149.5 -103.5t63.5 -292.5h-125q-8 139 -28.5 204t-61.5 65t-61.5 -64.5t-28.5 -204.5h-125q6 188 65.5 292t151.5 104zM1321 1268q92 0 149.5 -103.5t63.5 -292.5h-125q-8 139 -28.5 204t-61.5 65t-61.5 -64.5t-28.5 -204.5h-125q6 188 65.5 292 t151.5 104zM299 756q266 -226 726 -226q218 0 406.5 57.5t315.5 172.5q-2 -330 -197.5 -538t-526.5 -208t-526.5 207t-197.5 535zM442 551q57 -150 232 -229v131q-119 35 -232 98zM1608 551q-113 -61 -234 -98v-131q175 79 234 229zM1286 291v141q-102 -23 -217 -26v-150 q117 4 217 35zM762 430v-141q102 -29 219 -33v150q-115 4 -219 24z" glyph-name="u1F601.aalt"/><glyph d="M786.5 1225.5q122.5 -0.5 122.5 -261.5t-122.5 -261.5t-122.5 261.5t122.5 261.5zM1263.5 1225.5q122.5 -0.5 122.5 -261.5t-122.5 -261.5t-122.5 261.5t122.5 261.5zM1561 340h-1074v147h1074v-147z" glyph-name="u1F610.aalt"/><glyph d="M727 1059q-75 0 -90 -266h-123q6 188 65.5 290.5t150.5 102.5t149.5 -102.5t64.5 -290.5h-125q-8 139 -29.5 202.5t-62.5 63.5zM1322 1186q91 0 149.5 -102.5t64.5 -290.5h-125q-8 139 -28.5 202.5t-61.5 63.5t-61.5 -63.5t-30.5 -202.5h-123q6 188 65.5 290.5 t150.5 102.5zM1561 340h-1074v147h1074v-147z" glyph-name="u1F614.aalt"/><glyph d="M938 1042v-69l-332 -219l-51 143l217 107v10l-217 84l51 143zM1493 1098l-215 -84v-10l215 -107l-51 -143l-330 219v69l330 199zM1024 598q223 0 392 -119t210 -297h-127q-57 104 -186 172t-289 68t-289 -67.5t-186 -172.5h-127q41 178 210 297t392 119z" glyph-name="u1F623.aalt"/><glyph d="M911 975q0 -252 -117.5 -252t-117.5 252v74l-268 86l30 116l473 -151v-125zM1372 975q0 -252 -118.5 -252t-118.5 252v125l475 151l30 -116l-268 -86v-74zM1023 594q241 0 398.5 -109.5t206.5 -279.5h-135q-51 104 -169 168.5t-301 64.5t-301 -64.5t-169 -168.5h-135 q49 170 206.5 279.5t398.5 109.5zM1023 303q91 0 149.5 -54t74.5 -147h-92q-29 92 -132 92.5t-132 -92.5h-92q16 92 74.5 146.5t149.5 54.5z" glyph-name="u1F621.aalt"/><glyph d="M726 766q-91 0 -148.5 102.5t-63.5 290.5h123q15 -266 90 -266q41 0 62.5 63.5t29.5 202.5h125q-6 -188 -66.5 -290.5t-151.5 -102.5zM1318 766q-91 0 -148.5 102.5t-63.5 290.5h123q10 -139 30.5 -202.5t61.5 -63.5t61.5 63.5t28.5 202.5h125q-6 -188 -66.5 -290.5 t-151.5 -102.5zM1024 119q-238 0 -419 136t-224 343h127q63 -139 202.5 -227t313.5 -88t314.5 88t201.5 227h127q-43 -207 -224 -343t-419 -136z" glyph-name="u1F60C.aalt"/><glyph d="M1023 2230q251 0 462 -65.5t330.5 -174t119.5 -231.5q0 -86 -64.5 -173t-178 -157.5t-289.5 -114.5t-381 -44t-381 44t-288.5 115.5t-176 157.5t-63.5 172q0 123 118.5 230.5t329.5 174t462 66.5zM1023 2103q-216 0 -395 -47t-279.5 -125t-100.5 -168q0 -121 215 -223 t559 -102t561 101t217 222q0 90 -101.5 168t-280.5 126t-395 48zM784.5 1225.5q122.5 -0.5 122.5 -261.5t-122.5 -261.5t-122.5 261.5t122.5 261.5zM1261.5 1225.5q122.5 -0.5 122.5 -261.5t-122.5 -261.5t-122.5 261.5t122.5 261.5zM1024 119q-238 0 -419 136t-224 343h127 q61 -139 201.5 -227t314.5 -88t313.5 88t202.5 227h127q-43 -207 -224 -343t-419 -136z" glyph-name="u1F607.aalt"/><glyph d="M268 2003l486 -352q-303 -43 -486 -209v561zM1780 2003v-561q-180 166 -486 209zM913 934q0 -252 -118.5 -252t-118.5 252v156l-268 86l30 116l475 -151v-207zM1372 934q0 -252 -117.5 -252t-117.5 252v207l473 151l30 -116l-268 -86v-156zM1024 119q-238 0 -419 136 t-224 343h127q63 -139 202.5 -227t313.5 -88t314.5 88t201.5 227h127q-43 -207 -224 -343t-419 -136z" glyph-name="u1F608.aalt"/><glyph d="M784.5 1307.5q122.5 -0.5 122.5 -261.5t-122.5 -261.5t-122.5 261.5t122.5 261.5zM1261.5 1307.5q122.5 -0.5 122.5 -261.5t-122.5 -261.5t-122.5 261.5t122.5 261.5zM1024 43q-307 0 -488.5 190.5t-183.5 495.5q246 -208 674 -210q201 -1 376 53.5t294 160.5 q-2 -307 -183.5 -498.5t-488.5 -191.5zM1025 172q194 0 341.5 95.5t198.5 273.5q-240 -135 -541 -138q-299 2 -539 138q51 -178 198.5 -273.5t341.5 -95.5z" glyph-name="u1F603.aalt"/><glyph d="M628 1268q91 0 148.5 -103.5t63.5 -292.5h-123q-10 139 -30.5 204t-61.5 65t-61.5 -64.5t-28.5 -204.5h-125q6 188 66.5 292t151.5 104zM1220 1268q91 0 148 -103.5t64 -292.5h-123q-15 269 -90 269q-41 0 -62.5 -64.5t-30.5 -204.5h-125q6 188 67 292t152 104zM1800 945 q0 -50 -43 -93t-105.5 -43t-105.5 43t-43 93t31 97.5t66.5 100.5t41.5 108h17q8 -55 44 -108t66.5 -100.5t30.5 -97.5zM1577 958q0 -28 20.5 -49.5t53 -21.5t53 21.5t20.5 50.5t-30.5 73.5t-42.5 71.5q-12 -27 -43 -72.5t-31 -73.5zM922 43q-307 0 -488.5 190.5 t-183.5 495.5q246 -208 674 -210q201 -1 375.5 53.5t293.5 160.5q-2 -307 -183 -498.5t-488 -191.5zM923 172q194 0 341 95.5t198 273.5q-240 -135 -540 -138q-299 2 -539 138q51 -178 198.5 -273.5t341.5 -95.5z" glyph-name="u1F605.aalt"/><glyph d="M730 1268q91 0 148.5 -103.5t63.5 -292.5h-123q-10 139 -30.5 204t-61.5 65t-61.5 -64.5t-28.5 -204.5h-125q6 188 66.5 292t151.5 104zM1322 1268q91 0 148.5 -103.5t63.5 -292.5h-123q-15 269 -90 269q-41 0 -62.5 -64.5t-29.5 -204.5h-125q6 188 66.5 292t151.5 104z M1024 43q-307 0 -488.5 190.5t-183.5 495.5q246 -208 674 -210q201 -1 376 53.5t294 160.5q-2 -307 -183.5 -498.5t-488.5 -191.5zM1025 172q194 0 341.5 95.5t198.5 273.5q-240 -135 -541 -138q-299 2 -539 138q51 -178 198.5 -273.5t341.5 -95.5z" glyph-name="u1F604.aalt"/><glyph d="M936 1090v-70l-330 -219l-51 143l215 105v12l-215 84l51 141zM1493 1145l-217 -84v-12l217 -105l-51 -143l-332 219v70l332 196zM1024 88q-307 0 -488.5 191.5t-183.5 496.5q123 -104 298 -157.5t376 -53.5t376 53.5t294 159.5q-2 -305 -183.5 -497.5t-488.5 -192.5z M1025 451q-300 0 -540 135q51 -178 198.5 -272.5t341.5 -94.5t341.5 94.5t198.5 272.5q-240 -135 -540 -135z" glyph-name="u1F606.aalt"/><glyph d="M727 1141q-75 0 -90 -269h-123q6 188 65.5 292t150.5 104t149.5 -103.5t64.5 -292.5h-125q-8 139 -29.5 204t-62.5 65zM1322 1268q91 0 149.5 -103.5t64.5 -292.5h-125q-8 139 -28.5 204t-61.5 65t-61.5 -64.5t-30.5 -204.5h-123q6 188 65.5 292t150.5 104zM1024 154 q-238 0 -419 136t-224 343h127q63 -139 202.5 -227.5t313.5 -88.5t314.5 88.5t201.5 227.5h127q-43 -207 -224 -343t-419 -136z" glyph-name="u1F60A.aalt"/><glyph d="M1468 727h-137q-82 0 -117.5 32t-62.5 99l-78 215h-82l-80 -215q-25 -68 -60.5 -99.5t-117.5 -31.5h-137q-100 0 -148.5 43t-74.5 139l-51 164h-179l70 144h1622l70 -144h-162l-51 -164q-29 -96 -77 -139t-147 -43zM1032.5 119q-237.5 0 -419 136t-224.5 343h127 q61 -139 201.5 -227t314.5 -88t313.5 88t202.5 227h127q-43 -207 -224 -343t-418.5 -136z" glyph-name="u1F60E.aalt"/><glyph d="M868 936h-430v147h430v-147zM1427 936h-430v147h430v-147zM934 145v160q184 0 327.5 113t186.5 287h162q-45 -240 -235.5 -400t-440.5 -160z" glyph-name="u1F60F.aalt"/><glyph d="M948 1157v-125q0 -262 -121.5 -262t-121.5 262h-302v125h545zM1645 1157v-125q0 -262 -122 -262t-122 262h-301v125h545zM1587 412h-1073v147h1073v-147z" glyph-name="u1F612.aalt"/><glyph d="M784.5 1278q122.5 0 122.5 -260t-122.5 -260t-122.5 260t122.5 260zM1261.5 1278q122.5 0 122.5 -260t-122.5 -260t-122.5 260t122.5 260zM639 172h-145q0 186 155.5 317.5t374.5 131.5t373.5 -131.5t154.5 -317.5h-145q0 119 -112.5 203t-271.5 84t-271.5 -84 t-112.5 -203z" glyph-name="uni2639.aalt"/><glyph d="M785.5 1276q121.5 0 121.5 -258t-121.5 -258t-121.5 258t121.5 258zM1483 1112l-187 -100l187 -125l-53 -129l-285 203v104l285 176zM1024 119q-238 0 -419 136t-224 343h127q63 -139 202.5 -227t313.5 -88t314.5 88t201.5 227h127q-43 -207 -224 -343t-419 -136z" glyph-name="u1F609.aalt"/><glyph d="M864 1028q0 -244 -112 -244q-113 0 -115 240l-105 -57v168l394 208v-159l-62 -33v-123zM1294 784q-113 0 -112 244v123l-60 33v159l391 -208v-168l-104 57q-2 -240 -115 -240zM1023 594q241 0 398.5 -109.5t206.5 -279.5h-135q-51 104 -169 168.5t-301 64.5t-301 -64.5 t-169 -168.5h-135q49 170 206.5 279.5t398.5 109.5zM1023 303q91 0 149.5 -54t74.5 -147h-92q-29 92 -132 92.5t-132 -92.5h-92q16 92 74.5 146.5t149.5 54.5z" glyph-name="u1F61F.aalt"/><glyph d="M463 -25q-125 0 -208 73t-83 190q0 76 41 141t149 141l39 27q-100 94 -137 150.5t-37 154.5t82 173t218 75t220 -72t84 -158t-39.5 -146t-113.5 -116l-92 -69l205 -189l120 262l119 -41l-80 -178q-35 -74 -65 -129l184 -170l-96 -94l-158 152q-68 -90 -147.5 -133.5 t-204.5 -43.5zM358 846q0 -60 35 -110t109 -120l47 33q150 98 149 215q0 55 -47 90t-126 35t-123 -41.5t-44 -101.5zM486 82q86 0 139 36t104 118l-242 229l-67 -49q-61 -47 -88 -88.5t-27 -101.5t47.5 -102t133.5 -42z" glyph-name="ampersand.aalt" horiz-adv-x="1247"/><glyph d="M135 480q0 194 98.5 307.5t270.5 132.5l-6 165h116l-10 -163q152 -12 256 -107l-55 -86q-59 45 -114.5 67.5t-137.5 22.5q-135 0 -218 -88t-83 -258t87 -265t226 -95t258 102l56 -86q-115 -111 -289 -119l6 -168h-109l7 172q-152 25 -255.5 148.5t-103.5 317.5z" glyph-name="cent.sc" horiz-adv-x="1071"/><glyph d="M312 1094q108 0 177.5 -65.5t69.5 -179.5t-70.5 -179.5t-177.5 -65.5q-106 0 -178 65.5t-72 179.5t71.5 179.5t179.5 65.5zM291 0h-105l791 1075h106zM311 1008q-68 0 -105.5 -42t-37.5 -117t38 -118t105 -43q68 0 104 42t36 119t-36 118t-104 41zM948 471 q106 0 177 -65.5t71 -179t-69.5 -179t-177 -65.5t-179.5 64.5t-72 180t72 180t178 64.5zM948 389q-68 0 -105.5 -43t-37.5 -118.5t38 -117.5t105 -42q68 0 103.5 42t35.5 117.5t-35.5 118.5t-103.5 43z" glyph-name="percent.aalt" horiz-adv-x="1255"/><glyph d="M312 1094q108 0 177.5 -65.5t69.5 -179.5t-70.5 -179.5t-177.5 -65.5q-106 0 -178 65.5t-72 179.5t71.5 179.5t179.5 65.5zM291 0h-105l791 1075h106zM311 1008q-68 0 -105.5 -42t-37.5 -117t38 -118t105 -43q68 0 104 42t36 119t-36 118t-104 41zM948 471 q106 0 177 -65.5t71 -179t-69.5 -179t-177 -65.5t-179.5 64.5t-72 180t72 180t178 64.5zM1530 471q108 0 179 -65.5t71 -179t-70 -179t-178.5 -65.5t-180 64.5t-71.5 180t71 180t179 64.5zM948 389q-68 0 -105.5 -43t-37.5 -118.5t38 -117.5t105 -42q68 0 103.5 42 t35.5 117.5t-35.5 118.5t-103.5 43zM1532 68q137 0 137 117.5t-34.5 160.5t-102.5 43t-105.5 -43t-37.5 -118.5t37.5 -117.5t105.5 -42z" glyph-name="perthousand.aalt" horiz-adv-x="1839"/><glyph d="M785.5 1276q121.5 0 121.5 -258t-121.5 -258t-121.5 258t121.5 258zM1483 1112l-187 -100l187 -125l-53 -129l-285 203v104l285 176zM1559 453h-226q-14 -242 -95 -360t-215 -118t-215 118t-93 360h-226v135h1070v-135zM1024 111q78 0 118 77t56 265h-348 q14 -188 55 -265t119 -77z" glyph-name="u1F61C.aalt"/><glyph d="M786.5 1225.5q122.5 -0.5 122.5 -261.5t-122.5 -261.5t-122.5 261.5t122.5 261.5zM1263.5 1225.5q122.5 -0.5 122.5 -261.5t-122.5 -261.5t-122.5 261.5t122.5 261.5zM1024 119q-238 0 -419 136t-224 343h127q63 -139 202.5 -227t313.5 -88t314.5 88t201.5 227h127 q-43 -207 -224 -343t-419 -136z" glyph-name="smileface.aalt"/></font>
</defs>
</svg>
