<?xml version="1.0" standalone="no"?>
<!DOCTYPE svg PUBLIC "-//W3C//DTD SVG 1.1//EN" "http://www.w3.org/Graphics/SVG/1.1/DTD/svg11.dtd">
<svg xmlns="http://www.w3.org/2000/svg"><metadata>This SVG WebFont was generated by YouWorkForThem.
Copyright  2012 by Rodrigo Saiani. All rights reserved.</metadata><defs><font horiz-adv-x="2048" id="ywftsvg"><font-face ascent="1540" bbox="-293 -846 2261 2230" cap-height="1434" descent="-508" font-family="" font-stretch="normal" font-weight="400" panose-1="0 0 5 0 0 0 0 0 0 0" underline-position="0" underline-thickness="0" unicode-range="U+0020-1F633" units-per-em="2048" x-height="1073"/><missing-glyph d="M1030 0h-823v1434h823v-1434zM334 123h569v1190h-569v-1190z" horiz-adv-x="1236"/><glyph d="M1292 1403q-158 0 -184 -143l-35 -185h264l-28 -155h-262l-179 -1055q-45 -299 -342 -299q-84 0 -139 20l39 156q45 -12 102 -12q137 0 162 190l168 1000h-387l-178 -1055q-45 -299 -342 -299q-84 0 -139 20l38 156q45 -12 103 -12q137 0 162 190l168 1000h-160l29 155 h157l35 189q55 299 367 299q96 0 161 -25l-49 -149q-49 14 -106 14q-158 0 -185 -143l-34 -185h387l35 189q55 299 366 299q96 0 162 -25l-49 -149q-49 14 -107 14z" glyph-name="f_f.liga" horiz-adv-x="1329" unicode="ff"/><glyph d="M508 -367q-72 0 -137 23l43 154q43 -14 94 -15q182 0 215 187l166 938h-418l-178 -1055q-45 -299 -342 -299q-84 0 -139 20l38 156q45 -12 103 -12q137 0 162 190l168 1000h-160l29 155h157l35 189q55 299 367 299q96 0 161 -25l-49 -149q-49 14 -106 14 q-158 0 -185 -143l-34 -185h417l33 189q61 305 389 305q168 0 267 -70l-74 -153q-82 63 -197 63q-170 0 -196 -154l-33 -180h340q109 0 146.5 -39.5t17.5 -152.5l-127 -693q-10 -70 53 -69q33 0 57 10l-24 -135q-57 -20 -129 -20t-119 48t-31 144l127 694q12 57 -47 58h-293 l-174 -979q-27 -154 -133 -231t-260 -77z" glyph-name="f_f_i.liga" horiz-adv-x="1763" unicode="ffi"/><glyph d="M1337 1409q-174 0 -200 -149l-33 -185h262l-27 -155h-264l-174 -979q-27 -147 -136.5 -227.5t-256.5 -80.5q-70 0 -137 21l43 156q29 -14 92 -15q184 0 217 189l166 936h-383l-184 -1045q-27 -152 -137.5 -230.5t-266.5 -78.5q-61 0 -125 20l39 156q37 -12 92 -12 q182 0 217 180l178 1010h-157l28 155h156l33 189q27 152 127 228.5t252 76.5q96 0 162 -25l-62 -149q-66 14 -126 14t-106 -35t-57 -100l-34 -199h380l33 189q27 152 127.5 228.5t253.5 76.5q246 0 381 -137l-229 -1242q-14 -70 53 -69q33 0 57 10l-24 -135 q-67 -20 -133 -20t-114 48t-32 144l223 1196q-63 45 -174 45z" glyph-name="f_f_l.liga" horiz-adv-x="1765" unicode="ffl"/><glyph d="M1030 0h-823v1434h823v-1434zM334 123h569v1190h-569v-1190z" glyph-name=".notdef" horiz-adv-x="1236"/><glyph glyph-name="glyph1" horiz-adv-x="0"/><glyph glyph-name="glyph2" horiz-adv-x="681"/><glyph glyph-name="space" horiz-adv-x="573" unicode=" "/><glyph d="M379 428h-164l147 1008h232zM254 256q62 0 97.5 -41t23.5 -109t-53 -101.5t-103 -33.5t-97.5 41.5t-23.5 109.5t53 101t103 33z" glyph-name="exclam" horiz-adv-x="620" unicode="!"/><glyph d="M358 981h-120l49 455h180zM672 981h-121l49 455h180z" glyph-name="quotedbl" horiz-adv-x="780" unicode="&quot;"/><glyph d="M1171 915l-114 -380h325l-22 -125h-340l-123 -410h-133l123 410h-324l-125 -410h-137l125 410h-285l21 125h303l117 380h-310l23 127h326l118 392h133l-118 -392h323l117 392h133l-117 -392h306l-23 -127h-322zM1038 915h-323l-115 -380h324z" glyph-name="numbersign" horiz-adv-x="1398" unicode="#"/><glyph d="M416 1053q0 -61 29.5 -92t48 -46.5t76 -43.5t204 -88.5t226 -136t79.5 -193.5q0 -197 -148.5 -329t-389.5 -147l-27 -208h-158l47 211q-227 20 -380 126l98 162q170 -111 391 -110q172 0 264 71.5t92 180.5q0 80 -66.5 127t-215.5 108q-14 6 -23 8q-176 76 -265 153 t-89 210q0 182 135 304t361 136l26 193h158l-43 -195q207 -18 350 -129l-111 -149q-154 117 -348 116q-141 0 -231 -66.5t-90 -172.5z" glyph-name="dollar" horiz-adv-x="1191" unicode="$"/><glyph d="M506 1458q117 0 189.5 -71.5t72.5 -196.5q0 -180 -109.5 -287.5t-267.5 -107.5q-119 0 -192.5 70.5t-73.5 197.5q0 180 111.5 287.5t269.5 107.5zM233 0h-139l1219 1434h141zM483 1337q-90 0 -148.5 -70.5t-58.5 -193.5q0 -76 35 -117t99 -41q96 0 150 71t54 198 q0 153 -131 153zM1155 643q117 0 188.5 -71.5t71.5 -198.5q0 -180 -109.5 -288t-267.5 -108q-117 0 -190.5 72t-73.5 197q0 182 111.5 289.5t269.5 107.5zM1135 522q-92 0 -151.5 -71.5t-59.5 -196.5q0 -74 35.5 -115t99.5 -41q96 0 150.5 72t54.5 199q0 153 -129 153z" glyph-name="percent" horiz-adv-x="1556" unicode="%"/><glyph d="M557 -25q-188 0 -287.5 79t-99.5 204t73.5 227.5t235.5 206.5l58 37q-82 94 -121 166t-39 160q0 174 126 290.5t339 116.5q156 0 246 -73.5t90 -190.5q0 -217 -279 -407l-96 -64l241 -270q41 59 66 106l125 211l145 -63l-120 -207q-70 -115 -107 -168l217 -244l-143 -127 l-197 217q-199 -207 -473 -207zM991 1167q0 133 -178 133q-119 0 -183.5 -61t-64.5 -162q0 -59 32 -110t108 -129l81 53q205 137 205 276zM371 305q0 -74 51 -117t151 -43q188 0 349 160l-283 311l-84 -55q-184 -123 -184 -256z" glyph-name="ampersand" horiz-adv-x="1503" unicode="&amp;"/><glyph d="M475 983h-141l49 453h201z" glyph-name="quotesingle" horiz-adv-x="509" unicode="'"/><glyph d="M788 1624l66 -88l-39 -31q-116 -92 -161.5 -145t-86.5 -108.5t-126.5 -216.5t-95.5 -481q-10 -306 58 -434t92.5 -164t65.5 -83l-94 -86q-35 27 -67.5 58.5t-139 183t-90.5 520.5q6 203 62.5 381t125 287.5t164.5 204t151.5 132t114.5 70.5z" glyph-name="parenleft" horiz-adv-x="786" unicode="("/><glyph d="M285 1536l98 88q77 -60 194 -241t101 -529q-11 -394 -192 -646t-290.5 -328.5t-138.5 -92.5l-67 86q35 25 70.5 54.5t120.5 124.5t147.5 197.5t115 267.5t58.5 328q11 312 -75.5 474t-141.5 217z" glyph-name="parenright" horiz-adv-x="786" unicode=")"/><glyph d="M604 1323l201 117l43 -103l-207 -100l176 -94l-74 -101l-165 113l-23 -209h-123l49 209l-192 -113l-43 99l205 96l-177 102l74 99l162 -113l27 209h122z" glyph-name="asterisk" horiz-adv-x="843" unicode="*"/><glyph d="M819 786h436l-24 -139h-438l-82 -461h-140l82 461h-436l25 139h436l82 461h139z" glyph-name="plus" horiz-adv-x="1474" unicode="+"/><glyph d="M137 -254l-65 57q117 96 159 203q-41 2 -69.5 38t-20.5 91q20 102 127 103q59 0 91 -43t20 -117q-35 -193 -242 -332z" glyph-name="comma" horiz-adv-x="632" unicode=","/><glyph d="M717 535h-604l24 137h604z" glyph-name="hyphen" horiz-adv-x="831" unicode="-"/><glyph d="M263 238q56 0 90 -40t24 -104t-48 -93.5t-95 -29.5t-91 38.5t-23 102.5t49 95t94 31z" glyph-name="period" horiz-adv-x="649" unicode="."/><glyph d="M156 -88h-172l825 1628h170z" glyph-name="slash" horiz-adv-x="747" unicode="/"/><glyph d="M825 1462q223 0 341 -147.5t118 -409.5q0 -160 -50 -321.5t-139 -299t-230.5 -224.5t-309.5 -87q-221 0 -339 141.5t-118 415.5q0 330 133.5 544t276.5 301t317 87zM795 1282q-100 0 -217 -68t-195 -269t-78 -390q0 -403 285 -403q117 0 214 72.5t186 246.5t89 408 q1 403 -284 403z" glyph-name="zero" horiz-adv-x="1318" unicode="0"/><glyph d="M967 174l-31 -174h-881l33 174h350l189 1040l-348 -155l-52 149l486 232h151l-229 -1266h332z" glyph-name="one" horiz-adv-x="1105" unicode="1"/><glyph d="M750 1462q207 0 327.5 -99t120.5 -249t-82 -275.5t-315 -301.5l-467 -355h751l-32 -182h-1016l31 170l565 432q197 147 272.5 253t75.5 206t-79 157.5t-214 57.5q-207 0 -383 -121l-69 145q242 162 514 162z" glyph-name="two" horiz-adv-x="1255" unicode="2"/><glyph d="M752 1460q217 0 328.5 -93t111.5 -220q0 -265 -326 -365v-6q119 -27 194 -112.5t75 -206.5q0 -190 -176.5 -336t-481.5 -146t-479 168l108 140q150 -127 373 -127t337 98t114 213q0 213 -350 213h-142l29 164h119q186 0 290.5 72.5t104.5 183.5q0 82 -72.5 132t-195.5 50 q-218 0 -404 -135l-80 145q233 168 523 168z" glyph-name="three" horiz-adv-x="1230" unicode="3"/><glyph d="M1231 535l-29 -162h-219l-65 -373h-195l61 373h-721l27 141l916 942h168l-162 -921h219zM936 1190l-629 -655h510z" glyph-name="four" horiz-adv-x="1323" unicode="4"/><glyph d="M752 915q186 0 292.5 -101t106.5 -273q0 -207 -119 -335t-249 -179.5t-291 -51.5q-266 0 -439 127l99 154q143 -98 358 -98t325.5 107.5t110.5 254.5q0 233 -274 234q-168 0 -332 -111l-125 82l129 715h879l-33 -185h-688l-76 -424q140 84 326 84z" glyph-name="five" horiz-adv-x="1275" unicode="5"/><glyph d="M904 1288q-194 0 -352.5 -146.5t-195.5 -422.5q215 180 471 180q174 0 296 -99.5t122 -287.5q0 -227 -175.5 -383t-417.5 -154t-378.5 154t-136.5 403q0 364 145.5 568.5t301 285t369.5 80.5t378 -118l-108 -152q-125 92 -319 92zM765 727q-120 0 -230.5 -51t-192.5 -141 q-14 -141 66.5 -260t243.5 -121t273.5 96t110.5 244q0 113 -75.5 173t-195.5 60z" glyph-name="six" horiz-adv-x="1376" unicode="6"/><glyph d="M1212 1266l-843 -1266h-219l849 1260h-815l31 180h1028z" glyph-name="seven" horiz-adv-x="1148" unicode="7"/><glyph d="M778 1462q205 0 320.5 -92t115.5 -242q0 -113 -74.5 -208t-213.5 -150q98 -35 156.5 -115t58.5 -190q0 -199 -164 -346.5t-457 -147.5q-225 0 -347 104.5t-122 252.5t93.5 269.5t258.5 174.5q-182 82 -182 257t145.5 304t411.5 129zM1008 1098q0 188 -276 188 q-138 0 -224 -70.5t-86 -167.5q0 -196 272 -196q138 0 226 76t88 170zM647 688q-188 0 -287.5 -95t-99.5 -203t73 -173t239 -65t265 93t99 207t-78 175t-211 61z" glyph-name="eight" horiz-adv-x="1241" unicode="8"/><glyph d="M530 543q-188 0 -300 111.5t-86 323.5t195 347t400 135q270 0 390 -159.5t77 -483.5q-57 -420 -268 -631t-526 -211q-221 1 -377 103l90 153q139 -79 329 -79t337 137t204 432q-117 -96 -223 -137t-242 -41zM723 1282q-139 0 -247 -82t-128 -208t44.5 -197.5t189.5 -71.5 t249.5 52t186.5 134q25 184 -65.5 278.5t-229.5 94.5z" glyph-name="nine" horiz-adv-x="1228" unicode="9"/><glyph d="M487 1098q59 0 93 -39t24 -103t-50 -96.5t-99 -32.5t-94 39.5t-24 103.5t51 96t99 32zM333 244q58 0 94 -40t25 -104t-50.5 -96.5t-98.5 -32.5t-94 38.5t-24 104.5t50.5 98t97.5 32z" glyph-name="colon" horiz-adv-x="649" unicode=":"/><glyph d="M388 829q-118 -1 -118 119q0 62 46.5 105t102.5 43q118 0 118 -120q0 -62 -46.5 -104.5t-102.5 -42.5zM262 238q109 0 109 -132q0 -70 -62.5 -172t-191.5 -186l-56 51q113 90 152 201q-37 6 -62.5 33.5t-25.5 80.5t43 88.5t94 35.5z" glyph-name="semicolon" horiz-adv-x="649" unicode=";"/><glyph d="M977 1022l-731 -408l588 -415l-103 -121l-672 473l23 129l840 473z" glyph-name="less" horiz-adv-x="1026" unicode="&lt;"/><glyph d="M1122 721h-944l23 133h944zM1051 315h-945l25 129h942z" glyph-name="equal" horiz-adv-x="1234" unicode="="/><glyph d="M991 680l-22 -129l-838 -471l-59 119l735 415l-588 408l100 133z" glyph-name="greater" horiz-adv-x="1021" unicode=">"/><glyph d="M688 1458q156 0 256 -82t100 -209q0 -96 -47 -175t-117.5 -134t-197 -150t-156.5 -253h-159q18 102 72.5 185t120 137t168.5 137t103 210q0 80 -59 123t-164 43q-192 0 -346 -100l-59 133q192 135 485 135zM375 -23q-123 -1 -123 123q0 64 47 110t107 46q122 0 122 -113 q0 -76 -46 -121t-107 -45z" glyph-name="question" horiz-adv-x="1069" unicode="?"/><glyph d="M770 -295q-313 0 -503.5 138t-190.5 452q0 313 146.5 545.5t390 354.5t532.5 122t452.5 -146.5t163.5 -411.5t-149.5 -454.5t-378.5 -189.5q-158 0 -203 108q-123 -98 -276 -98q-100 0 -168 68.5t-68 201.5q0 229 152.5 367.5t386.5 138.5q135 0 266 -53l-131 -418 q-46 -172 76 -172q137 0 232 137t95 348t-130 321t-363 110q-360 0 -607 -229.5t-247 -612.5q0 -244 139 -361.5t377 -117.5q170 0 354 55l21 -137q-203 -66 -369 -66zM1006 762q-139 0 -228.5 -98.5t-89.5 -239.5q0 -80 36 -120t95 -40q115 0 201 96q2 23 12 52l103 331 q-46 19 -129 19z" glyph-name="at" horiz-adv-x="1820" unicode="@"/><glyph d="M1004 340h-623l-178 -340h-215l786 1434h221l289 -1434h-221zM975 504l-127 725l-381 -725h508z" glyph-name="A" horiz-adv-x="1447" unicode="A"/><glyph d="M758 1434q424 0 424 -299q0 -109 -70 -215.5t-205 -155.5q104 -25 174 -100.5t70 -192.5q0 -205 -148.5 -338t-431.5 -133h-514l252 1434h449zM635 805q168 0 253 84t85 190q0 186 -262 187h-234l-82 -461h240zM578 168q186 0 276 79t90 206q0 197 -272 196h-303 l-86 -481h295z" glyph-name="B" horiz-adv-x="1277" unicode="B"/><glyph d="M690 -29q-250 0 -404.5 149.5t-154.5 444.5q0 219 67.5 393.5t245 339t514.5 164.5q285 0 437 -131l-121 -151q-134 104 -362 104t-402 -182t-174 -514q0 -221 109.5 -329.5t285.5 -106.5q228 2 412 135l76 -142q-229 -174 -529 -174z" glyph-name="C" horiz-adv-x="1345" unicode="C"/><glyph d="M743 1434q264 0 426 -149.5t162 -438.5q0 -225 -94 -414.5t-284.5 -310.5t-444.5 -121h-451l252 1434h434zM526 180q147 0 265 58.5t224.5 202.5t106.5 397q0 203 -108.5 312.5t-296.5 109.5h-242l-190 -1080h241z" glyph-name="D" horiz-adv-x="1400" unicode="D"/><glyph d="M1196 1266h-721l-82 -455h635l-29 -170h-634l-82 -467h721l-31 -174h-916l252 1434h916z" glyph-name="E" horiz-adv-x="1220" unicode="E"/><glyph d="M1122 1262h-649l-86 -490h567l-30 -170h-568l-104 -602h-195l252 1432h844z" glyph-name="F" horiz-adv-x="1079" unicode="F"/><glyph d="M336 592q0 -434 406 -434q202 0 341 155l54 297h-371l29 164h561l-96 -553q-231 -248 -578 -248q-242 0 -398.5 147.5t-156.5 440.5q0 337 151.5 539.5t309 282t350.5 79.5q293 0 475 -174l-129 -145q-146 133 -348 133t-338.5 -105.5t-199 -258t-62.5 -320.5z" glyph-name="G" horiz-adv-x="1466" unicode="G"/><glyph d="M1190 0h-195l113 641h-743l-113 -641h-195l252 1434h195l-111 -625h746l108 625h195z" glyph-name="H" horiz-adv-x="1435" unicode="H"/><glyph d="M252 0h-195l252 1434h195z" glyph-name="I" horiz-adv-x="497" unicode="I"/><glyph d="M122 -29q-132 0 -206 27l39 170q82 -16 174 -16q156 0 243 67.5t117 267.5l168 947h197l-172 -969q-46 -289 -158 -370t-191 -102.5t-211 -21.5z" glyph-name="J" horiz-adv-x="845" unicode="J"/><glyph d="M635 772l530 -772h-250l-426 643l-145 -131l-90 -512h-195l252 1434h195l-117 -672l721 672h260z" glyph-name="K" horiz-adv-x="1304" unicode="K"/><glyph d="M283 174h688l-31 -174h-883l252 1434h195z" glyph-name="L" horiz-adv-x="1071" unicode="L"/><glyph d="M1755 1434l-252 -1434h-190l180 1018l-659 -1002h-109l-305 1002l-180 -1018h-183l252 1434h170l348 -1170l744 1170h184z" glyph-name="M" horiz-adv-x="1748" unicode="M"/><glyph d="M1223 0h-166l-615 1092l-190 -1092h-195l252 1434h168l608 -1094l193 1094h197z" glyph-name="N" horiz-adv-x="1468" unicode="N"/><glyph d="M961 1462q268 0 422.5 -155.5t152.5 -440.5q-2 -225 -103.5 -429t-295 -335t-442.5 -131t-408.5 155t-159.5 445q0 166 58.5 325t163 285t264.5 203.5t348 77.5zM932 1276q-117 0 -257 -60t-240.5 -245.5t-100.5 -385.5t106.5 -313.5t286.5 -113.5q143 0 262 66.5 t228.5 229.5t109.5 410q0 199 -105.5 305.5t-289.5 106.5z" glyph-name="O" horiz-adv-x="1599" unicode="O"/><glyph d="M754 1434q219 0 327.5 -100.5t108.5 -287.5t-102.5 -301t-220 -161t-269.5 -47h-252l-94 -537h-195l252 1434h445zM614 709q186 0 276.5 97t90.5 222t-61.5 181.5t-206.5 56.5h-238l-98 -557h237z" glyph-name="P" horiz-adv-x="1214" unicode="P"/><glyph d="M702 -29q-256 0 -415.5 155t-159.5 445q0 166 58.5 325t163 285t264 203.5t348.5 77.5q268 0 422.5 -155.5t151.5 -438.5t-157.5 -522.5t-410.5 -329.5l372 -184l-122 -164l-490 303h-25zM727 158q143 0 262 66.5t228.5 229.5t109.5 410q0 199 -105.5 305.5t-289.5 106.5 q-117 0 -257 -60t-240.5 -245.5t-100.5 -385.5t106.5 -313.5t286.5 -113.5z" glyph-name="Q" horiz-adv-x="1605" unicode="Q"/><glyph d="M803 1434q229 0 339.5 -97.5t110.5 -263.5t-91 -298t-288 -193l259 -582h-215l-234 543h-338l-94 -543h-195l252 1434h494zM657 713q104 0 183.5 32.5t141.5 110t62 188.5t-67.5 166.5t-222.5 55.5h-279l-98 -553h280z" glyph-name="R" horiz-adv-x="1312" unicode="R"/><glyph d="M862 412q0 43 -14 64.5t-23.5 33.5t-30 25.5t-42 27t-185.5 84.5t-261 152.5t-97 230.5q0 180 137 304t401 124t449 -135l-113 -154q-156 111 -327 111t-255.5 -63.5t-84.5 -161.5q0 -63 27.5 -92t44 -43.5t63.5 -39t199.5 -86t240.5 -152.5t88 -206 q0 -180 -151.5 -320.5t-434 -140t-470.5 133.5l94 161q183 -108 377 -108t281 75.5t87 174.5z" glyph-name="S" horiz-adv-x="1193" unicode="S"/><glyph d="M1339 1264h-469l-221 -1264h-194l221 1264h-469l31 170h1132z" glyph-name="T" horiz-adv-x="1292" unicode="T"/><glyph d="M635 156q170 0 279.5 93t138.5 263l161 922h197l-162 -916q-51 -279 -229 -413t-414 -134t-369.5 127.5t-89.5 419.5l162 916h195l-162 -922q-31 -170 46 -263t247 -93z" glyph-name="U" horiz-adv-x="1402" unicode="U"/><glyph d="M725 0h-229l-299 1434h217l231 -1229l664 1229h219z" glyph-name="V" horiz-adv-x="1404" unicode="V"/><glyph d="M2169 1434l-703 -1434h-166l-172 1143l-577 -1143h-162l-194 1434h188l147 -1135l572 1135h155l170 -1141l529 1141h213z" glyph-name="W" unicode="W"/><glyph d="M784 737l416 -737h-235l-301 596l-488 -596h-242l646 741l-365 693h225l269 -555l446 555h246z" glyph-name="X" horiz-adv-x="1337" unicode="X"/><glyph d="M741 571l-100 -571h-203l101 573l-346 861h231l248 -676l489 676h228z" glyph-name="Y" horiz-adv-x="1265" unicode="Y"/><glyph d="M1315 1298l-1010 -1124h854l-31 -174h-1095l24 145l1004 1121h-762l31 168h1007z" glyph-name="Z" horiz-adv-x="1339" unicode="Z"/><glyph d="M680 1495h-186l-293 -1595h186l-25 -146h-352l344 1884h353z" glyph-name="bracketleft" horiz-adv-x="614" unicode="["/><glyph d="M625 -88h-164l-197 1628h162z" glyph-name="backslash" horiz-adv-x="757" unicode="\"/><glyph d="M315 -246h-350l25 146h188l279 1595h-187l27 143h350z" glyph-name="bracketright" horiz-adv-x="602" unicode="]"/><glyph d="M1104 852l-258 524l-440 -524h-205l585 692h179l344 -692h-205z" glyph-name="asciicircum" horiz-adv-x="1396" unicode="^"/><glyph d="M1294 -162h-1183l26 148h1182z" glyph-name="underscore" horiz-adv-x="1460" unicode="_"/><glyph d="M688 1288h-135l-211 252h244z" glyph-name="grave" horiz-adv-x="716" unicode="`"/><glyph d="M920 -10q-68 0 -102 54t-7 163q-113 -231 -354 -232q-172 0 -274.5 119t-102.5 314q0 285 175 488.5t441 203.5q121 0 265 -41h165l-153 -858q-14 -82 45 -82q18 0 43 4l-33 -115q-40 -18 -108 -18zM698 938q-193 0 -307.5 -155.5t-114.5 -354.5q0 -129 57.5 -210 t180.5 -81t211 96.5t119 268.5l71 395q-92 41 -217 41z" glyph-name="a" horiz-adv-x="1196" unicode="a"/><glyph d="M1085 696q0 -178 -67.5 -336.5t-215.5 -271.5t-364 -113t-387 76l254 1487h189l-107 -623q125 184 344 185q156 0 255 -113t99 -291zM458 143q112 0 194.5 51.5t156.5 175t74 292.5q0 121 -57.5 196.5t-167.5 75.5t-207.5 -96.5t-126.5 -270.5l-66 -391q88 -33 200 -33z " glyph-name="b" horiz-adv-x="1146" unicode="b"/><glyph d="M530 -29q-201 0 -322.5 132.5t-121.5 361.5t115.5 374.5t237.5 204t272 58.5q229 0 366 -131l-108 -131q-111 96 -257 96t-288.5 -108t-142.5 -361q0 -158 79.5 -244t226.5 -86t294 113l71 -129q-178 -150 -422 -150z" glyph-name="c" horiz-adv-x="1075" unicode="c"/><glyph d="M1016 119q20 0 41 4l-33 -115q-38 -18 -104 -18t-99 51t-14 147q-106 -215 -350 -215q-170 0 -270.5 119t-100.5 328q0 287 172 483.5t461 196.5q121 0 217 -39l86 479h182l-235 -1335q-14 -86 47 -86zM707 934q-186 0 -302 -141.5t-116 -346.5q0 -147 60.5 -225 t166.5 -78t201.5 96.5t126.5 266.5l65 387q-88 41 -202 41z" glyph-name="d" horiz-adv-x="1196" unicode="d"/><glyph d="M528 -29q-203 0 -325.5 119t-120.5 336q2 287 184.5 480.5t470.5 193.5q152 0 239 -66.5t85 -181.5q-2 -186 -206 -287.5t-501 -101.5q-57 0 -88 2v-25q0 -303 299 -303q206 0 353 125l73 -131q-197 -160 -463 -160zM721 934q-152 0 -269.5 -91t-162.5 -245l73 -2 q225 0 375 59.5t150 163.5q0 53 -44 84t-122 31z" glyph-name="e" horiz-adv-x="1089" unicode="e"/><glyph d="M717 1403q-158 0 -185 -143l-34 -185h264l-29 -155h-262l-178 -1055q-45 -299 -342 -299q-84 0 -139 20l38 156q45 -12 103 -12q137 0 162 190l168 1000h-160l29 155h157l35 189q55 299 367 299q95 0 161 -25l-49 -149q-49 14 -106 14z" glyph-name="f" horiz-adv-x="704" unicode="f"/><glyph d="M446 33q-152 0 -256 108.5t-104 294.5t71.5 331.5t212 240t312.5 94.5t293 -43l155 -12l-182 -1045q-79 -436 -562 -436q-230 0 -378 119l82 149q125 -100 313 -100q141 0 239.5 64.5t121.5 201.5l39 213q-84 -102 -167 -141t-190 -39zM692 936q-186 0 -293.5 -134 t-107.5 -331q0 -135 63.5 -205.5t168.5 -70.5t203.5 81.5t127.5 247.5l66 369q-90 43 -228 43z" glyph-name="g" horiz-adv-x="1157" unicode="g"/><glyph d="M1010 113q39 0 63 8l-31 -125q-45 -16 -118 -16q-143 0 -144 131q0 25 6 53l105 561q39 209 -137 209q-150 0 -271 -160t-168 -418l-65 -356h-184l237 1321q14 76 -53 76q-31 0 -47 -6l28 135q39 16 117 16q166 0 127 -215l-90 -506h8q72 135 181.5 207t228.5 72 q340 0 276 -344l-106 -584l-2 -16q0 -43 39 -43z" glyph-name="h" horiz-adv-x="1241" unicode="h"/><glyph d="M452 1573q54 0 83.5 -31t22.5 -86t-49 -90t-96 -35t-82 29t-21 85t47.5 92t94.5 36zM335.5 115q22.5 0 65.5 6l-24 -127q-51 -18 -130 -18t-119 47t-22 139l164 911h189l-162 -903q-6 -25 5 -40t33.5 -15z" glyph-name="i" horiz-adv-x="544" unicode="i"/><glyph d="M446 1573q54 0 83.5 -31t23.5 -86t-48.5 -90t-98.5 -35t-81.5 31t-19.5 85t46.5 90t94.5 36zM-150 -434q-84 0 -143 24l41 152q24 -12 108 -12q174 0 210 184l204 1159h187l-215 -1210q-27 -150 -132.5 -223.5t-259.5 -73.5z" glyph-name="j" horiz-adv-x="569" unicode="j"/><glyph d="M887 -25q-72 0 -119 33t-92 117l-158 287l-182 -70l-62 -342h-188l238 1339q8 57 -50 58q-25 0 -51 -8l23 135q70 20 119 20q180 0 141 -196l-90 -476q150 227 372 228q133 0 202 -71t69 -175q0 -236 -371 -379l135 -237q39 -63 61.5 -89t61.5 -26t66 31l51 -113 q-57 -66 -176 -66zM866 813q0 49 -35.5 83t-97.5 34q-111 0 -215 -109.5t-151 -302.5l-5 -26l230 83q274 100 274 238z" glyph-name="k" horiz-adv-x="1155" unicode="k"/><glyph d="M358 1548q176 0 142 -188l-213 -1182q-12 -57 41 -57q25 0 49 8l-27 -137q-46 -14 -112 -14t-113 45t-31 137l215 1181q8 59 -51 60q-20 0 -51 -8l24 135q61 20 127 20z" glyph-name="l" horiz-adv-x="550" unicode="l"/><glyph d="M808 1100q118 0 193.5 -61.5t69.5 -188.5q133 250 385 250q154 0 228.5 -98.5t39.5 -280.5l-104 -555q-10 -57 43 -57q20 0 49 4l-26 -121q-37 -16 -119 -16.5t-118 48t-17 138.5l100 543q41 229 -148 229q-106 0 -206.5 -96.5t-137.5 -292.5l-100 -545h-184l135 745 q16 90 -20.5 139.5t-122.5 49.5q-141 0 -245 -150.5t-149 -408.5l-67 -375h-189l160 889q10 78 -55 78q-27 0 -43 -6l24 120q49 16 109 17q152 0 129 -180l-12 -64h6q84 133 179 189.5t213 56.5z" glyph-name="m" horiz-adv-x="1880" unicode="m"/><glyph d="M836 1100q162 0 237.5 -86t46.5 -236l-116 -604q-12 -59 43 -59q16 0 49 4l-29 -119q-35 -18 -116 -18t-116.5 48t-19.5 138l111 569q18 94 -20 145.5t-126 51.5q-145 0 -265 -153.5t-165 -405.5l-67 -375h-185l162 889q14 78 -53 78q-31 0 -45 -6l24 120q45 16 107 17 q152 0 127 -180l-25 -125h6q166 307 435 307z" glyph-name="n" horiz-adv-x="1261" unicode="n"/><glyph d="M698 1096q205 0 331 -123t126 -338q0 -266 -173 -462t-447 -196q-197 0 -324 127t-127 336q0 266 169 461t445 195zM676 934q-178 0 -289 -144.5t-111 -312.5t73 -253t204 -85q180 0 294 142.5t114 313.5t-74 255t-211 84z" glyph-name="o" horiz-adv-x="1222" unicode="o"/><glyph d="M203 967q-27 0 -41 -6l24 120q49 16 109 17q156 0 129 -187l-10 -65h6q137 252 383 252q170 0 266 -114t96 -318q0 -279 -174 -487t-434 -208q-156 0 -256 78l-84 -471h-188l231 1311q14 78 -57 78zM545 131q184 0 305 152.5t121 363.5q0 137 -59.5 210t-175.5 73 t-216 -101.5t-131 -277.5l-59 -342q76 -78 215 -78z" glyph-name="p" horiz-adv-x="1228" unicode="p"/><glyph d="M459 -25q-160 0 -267.5 127t-107.5 336q0 274 175 468t441 194q121 0 265 -41h165l-260 -1473h-165l106 621q-59 -121 -141 -176.5t-211 -55.5zM702 938q-193 0 -307 -145.5t-114 -333.5q0 -141 66.5 -231.5t180.5 -90.5t201.5 96.5t118.5 268.5l72 395q-92 41 -218 41z " glyph-name="q" horiz-adv-x="1187" unicode="q"/><glyph d="M736 1100q88 0 128 -23l-37 -176q-51 18 -112 19q-125 0 -220.5 -131.5t-127.5 -319.5l-82 -469h-187l158 877q10 78 -51 77q-16 0 -47 -6l28 133q49 17 120 17t101.5 -39t14.5 -135l-12 -72h8q74 141 152 194.5t166 53.5z" glyph-name="r" horiz-adv-x="827" unicode="r"/><glyph d="M383 135q129 0 200.5 53.5t71.5 130.5q0 42 -23.5 63t-52 34.5t-49 20.5t-62.5 21.5t-67 22.5q-127 47 -187 104.5t-60 155.5q0 164 130 262.5t334 98.5t330 -111l-92 -135q-129 90 -274 90q-104 0 -172 -48t-68 -120q0 -85 79 -113t143 -49q122 -40 204 -93.5t82 -170.5 q0 -166 -134 -270.5t-354 -104.5t-346 113l86 150q49 -47 127 -76t154 -29z" glyph-name="s" horiz-adv-x="958" unicode="s"/><glyph d="M498 1073h264l-29 -160h-264l-117 -671q-20 -100 68 -101q70 0 147 33l25 -139q-115 -57 -236 -58q-242 0 -200 232l125 704h-179l29 160h178l27 154l110 121h99z" glyph-name="t" horiz-adv-x="768" unicode="t"/><glyph d="M406 -25q-144 0 -224 96.5t-43 295.5l97 524q14 76 -56 76q-6 0 -43 -4l23 118q49 18 127 19q178 0 137 -207l-96 -528q-41 -221 161 -222q119 0 230.5 113t146.5 324l88 495h189l-164 -915q-8 -55 35 -56q55 0 65 2l-32 -112q-31 -16 -117 -17q-145 0 -121 150l22 104 h-10q-84 -137 -177.5 -196.5t-237.5 -59.5z" glyph-name="u" horiz-adv-x="1218" unicode="u"/><glyph d="M168 891q-14 76 -50 76q-17 0 -50 -4l24 118q47 18 117 19q102 0 129 -119q23 -90 72 -363.5t71 -433.5l477 889h195l-612 -1075h-181z" glyph-name="v" horiz-adv-x="1101" unicode="v"/><glyph d="M166 891q-11 76 -48 76q-17 0 -50 -4l24 118q47 18 117 19q100 0 127 -119q29 -131 94 -748l393 840h168l129 -827l422 827h199l-580 -1075h-164l-129 838l-397 -838h-166z" glyph-name="w" horiz-adv-x="1691" unicode="w"/><glyph d="M178 948q-23 0 -53 -6l12 129q43 14 107 14t106.5 -42t91.5 -136l113 -215l307 381h223l-2 -8l-450 -512l205 -367q43 -74 74 -74t59 9l-8 -125q-45 -18 -107 -18t-104.5 38.5t-85.5 124.5l-158 283l-328 -424h-225l2 8l475 557l-162 301q-49 82 -92 82z" glyph-name="x" horiz-adv-x="1046" unicode="x"/><glyph d="M142 -434q-114 0 -189 35l41 141q61 -20 125 -21q133 0 237 211l52 103l-244 854q-14 47 -23 61.5t-27 14.5t-51 -4l25 118q56 19 114 19t87.5 -30t44.5 -89l198 -762l420 856h201l-635 -1208q-82 -156 -172 -227.5t-204 -71.5z" glyph-name="y" horiz-adv-x="1060" unicode="y"/><glyph d="M997 928l-731 -768h615l-27 -160h-844l23 135l715 772h-543l28 166h791z" glyph-name="z" horiz-adv-x="1038" unicode="z"/><glyph d="M963 1614l-15 -115q-96 -10 -162.5 -73.5t-85.5 -165.5l-55 -312q-14 -84 -78.5 -145.5t-126.5 -73.5l-6 -6q55 -12 101.5 -80t29.5 -147l-53 -314q-18 -100 24 -161.5t134 -71.5l-15 -113q-174 0 -258 96.5t-55 253.5l47 263q31 199 -147 215l16 124q84 12 148.5 67.5 t80.5 152.5l45 262q29 156 145 250t286 94z" glyph-name="braceleft" horiz-adv-x="806" unicode="{"/><glyph d="M131 -168h-127l332 1870h127z" glyph-name="bar" horiz-adv-x="466" unicode="|"/><glyph d="M352 1499l27 115q170 0 252 -94.5t53 -249.5l-49 -262q-18 -96 26 -151.5t125 -68.5l-30 -124q-186 -16 -224 -215l-49 -263q-29 -158 -147.5 -254t-292.5 -96l27 113q96 10 159.5 71.5t83.5 161.5l60 314q14 80 83.5 147.5t129.5 79.5l-4 6q-55 12 -99.5 73.5 t-27.5 145.5l57 312q20 102 -24 165.5t-136 73.5z" glyph-name="braceright" horiz-adv-x="806" unicode="}"/><glyph d="M864 524q-86 0 -225 40t-214 40t-136 -88h-148q53 127 136 194.5t167 67.5t222.5 -42t199.5 -42q95 0 152 92h170q-55 -135 -146.5 -198.5t-177.5 -63.5z" glyph-name="asciitilde" horiz-adv-x="1290" unicode="~"/><glyph d="M400 1083q60 0 96 -41t24 -108t-53 -101t-101 -34t-97 41t-25 109t54 101t102 33zM268 -381h-243l219 1008h164z" glyph-name="exclamdown" horiz-adv-x="620" unicode="¡"/><glyph d="M738 1124q-146 0 -288.5 -107t-142.5 -362q0 -158 79.5 -243.5t227.5 -85.5t293 112l72 -129q-150 -127 -352 -145l-29 -193h-143l41 193q-176 20 -279.5 148t-103.5 329q0 150 60 288t191.5 240.5t307.5 118.5l35 211h143l-45 -213q186 -18 299 -127l-109 -131 q-111 96 -257 96z" glyph-name="cent" horiz-adv-x="1103" unicode="¢"/><glyph d="M877 1284q-209 0 -250 -237l-45 -252h424l-25 -131h-422l-47 -263q-18 -96 -53 -151t-97 -94q66 16 130 16t152.5 -13.5t161.5 -13.5t175 21l6 -166q-94 -29 -210 -29t-212.5 13.5t-202.5 13.5t-210 -25l-29 148q154 78 184 246l53 297h-131l23 131h131l49 280 q33 190 159 287.5t296 97.5q236 0 375 -117l-123 -153q-121 94 -262 94z" glyph-name="sterling" horiz-adv-x="1314" unicode="£"/><glyph d="M607 229q-171 0 -279 84l-191 -161l-86 100l191 160q-49 92 -49 204q0 227 145 377l-125 156l119 102l133 -161q139 76 304 76t271 -85l197 166l84 -98l-197 -166q51 -90 52 -207q0 -227 -140 -373l127 -149l-119 -102l-129 155q-137 -78 -308 -78zM650 403 q124 0 223.5 95.5t99.5 253.5q0 113 -65.5 176t-170.5 63q-143 0 -242.5 -95t-99.5 -255q0 -111 65.5 -174.5t189.5 -63.5z" glyph-name="currency" horiz-adv-x="1314" unicode="¤"/><glyph d="M578 616h-404l25 136h319l-299 682h236l254 -650l489 650h217l-534 -682h315l-25 -136h-397l-2 -2l-22 -135h399l-25 -135h-399l-59 -344h-197l61 344h-403l25 135h401l25 135v2z" glyph-name="yen" horiz-adv-x="1318" unicode="¥"/><glyph d="M410 1419l-230 -1288h-127l230 1288h127z" glyph-name="brokenbar" horiz-adv-x="458" unicode="¦"/><glyph d="M385 117q272 0 272 166q0 63 -56.5 88t-134 44t-110.5 29q-180 61 -180 220q0 102 63.5 180t176.5 108q-68 29 -107 82t-39 121q0 141 115 224t299 83t303 -61l-72 -131q-96 41 -226 41t-190.5 -44.5t-60.5 -100.5t42 -91.5t178 -68.5t203 -85.5t67 -148.5 q0 -201 -248 -291q162 -53 162 -192t-122 -229.5t-322 -90.5t-341 78l78 133q102 -63 250 -63zM758 729q0 154 -187 154q-93 0 -160 -53.5t-67 -131.5q0 -149 178 -149q106 0 171 51t65 129z" glyph-name="section" horiz-adv-x="1036" unicode="§"/><glyph d="M428 1466q49 0 74.5 -28.5t15.5 -83.5q-18 -104 -121 -105q-49 0 -73.5 29t-14.5 84q19 104 119 104zM784 1466q49 0 74 -28.5t14 -83.5q-18 -104 -116 -105q-51 0 -77 29t-15 84q18 104 120 104z" glyph-name="dieresis" horiz-adv-x="888" unicode="¨"/><glyph d="M1008 1462q268 0 446 -171t178 -438t-130 -469t-330.5 -307.5t-426.5 -105.5q-270 0 -447 171.5t-177 439.5t130 469.5t331 306t426 104.5zM987 1339q-299 0 -519 -204.5t-220 -522.5q0 -238 144.5 -379t373.5 -141q297 0 517 206t220 525q0 236 -144.5 376t-371.5 140z M826 340q-152 0 -239 81t-87 232q0 219 133 338t300 119t257 -86l-72 -102q-86 70 -202 70t-201.5 -84.5t-85.5 -227.5q0 -102 59.5 -159.5t163.5 -57.5t209 74l41 -103q-124 -94 -276 -94z" glyph-name="copyright" horiz-adv-x="1687" unicode="©"/><glyph d="M365 1272q250 0 213 -223l-52 -289q-8 -49 37 -49h21l-27 -99q-25 -10 -74 -10q-92 0 -106 74q-81 -76 -189 -76t-159 52.5t-35 146.5t98 143t172 49t156 -8l10 51q18 113 -108 113q-89 -1 -175 -60l-49 93q121 92 267 92zM291 887q-131 0 -150 -92q-6 -35 15.5 -58.5 t62.5 -23.5q88 0 164 59l16 107q-90 8 -108 8z" glyph-name="ordfeminine" horiz-adv-x="776" unicode="ª"/><glyph d="M530 809l-294 -287l192 -286l-119 -95l-256 379l375 383zM907 809l-293 -287l191 -286l-117 -95l-256 379l375 383z" glyph-name="guillemotleft" horiz-adv-x="987" unicode="«"/><glyph d="M1128 307h-143l66 375h-879l25 137h1022z" glyph-name="logicalnot" horiz-adv-x="1314" unicode="¬"/><glyph d="M1008 1462q268 0 446 -171t178 -438t-130 -469t-330.5 -307.5t-426.5 -105.5q-270 0 -447 171.5t-177 439.5t130 469.5t331 306t426 104.5zM987 1339q-299 0 -519 -204.5t-220 -522.5q0 -238 144.5 -379t373.5 -141q297 0 517 206t220 525q0 236 -144.5 376t-371.5 140z M954 1098q115 0 169.5 -49.5t54.5 -124.5q0 -162 -170 -240l112 -322h-141l-94 285h-148l-51 -285h-119l131 736h256zM887 756q70 0 113.5 41t43.5 100q0 88 -118 88h-129l-39 -229h129z" glyph-name="registered" horiz-adv-x="1687" unicode="®"/><glyph d="M901 1321h-539l19 113h541z" glyph-name="macron" horiz-adv-x="987" unicode="¯"/><glyph d="M534 1452q120 0 192.5 -59.5t72.5 -171.5q0 -156 -104.5 -240t-224.5 -84t-191.5 58.5t-71.5 168.5q0 156 103.5 242t223.5 86zM647 1200q1 113 -129 113q-64 0 -110 -44.5t-46 -110.5q0 -124 115 -124q74 0 122 44t48 122z" glyph-name="degree" horiz-adv-x="780" unicode="°"/><glyph d="M774 971h438l-22 -135h-438l-82 -461h-138l82 461h-438l23 135h438l82 461h137zM1049 33h-1014l22 137h1014z" glyph-name="plusminus" horiz-adv-x="1241" unicode="±"/><glyph d="M506 1208h-135l188 252h242z" glyph-name="acute" horiz-adv-x="860" unicode="´"/><glyph d="M694 1434h365l-254 -1434h-141l229 1298h-123l-229 -1298h-142l133 754q-287 37 -286 284q0 174 107.5 285t340.5 111z" glyph-name="paragraph" horiz-adv-x="1050" unicode="¶"/><glyph d="M423 766q58 0 96 -41t26 -112t-53.5 -103.5t-101.5 -32.5t-98 42t-25 113t55.5 102.5t100.5 31.5z" glyph-name="periodcentered" horiz-adv-x="573" unicode="·"/><glyph d="M250 -84q57 0 92 -34t35 -87q0 -84 -73 -147.5t-210 -75.5l-18 92q164 27 164 111q0 45 -47 45q-23 0 -41 -10l-62 63l105 141h106l-76 -98h25z" glyph-name="cedilla" horiz-adv-x="716" unicode="¸"/><glyph d="M417 1280q134 0 215 -85t52 -248t-139.5 -248t-245.5 -85t-215 85t-53 249q31 164 141.5 248t244.5 84zM393 1151q-80 0 -135 -54.5t-71.5 -148.5t19.5 -149.5t115 -55.5t134 54.5t71 149.5t-18.5 149.5t-114.5 54.5z" glyph-name="ordmasculine" horiz-adv-x="813" unicode="º"/><glyph d="M551 520l-381 -379l-94 95l293 286l-193 287l123 94zM926 520l-377 -379l-96 95l292 286l-190 287l123 94z" glyph-name="guillemotright" horiz-adv-x="985" unicode="»"/><glyph d="M668 -258h-125l907 1802h123zM760 743l-23 -135h-506l25 135h174l90 510l-172 -67l-33 117l283 124h109l-121 -684h174zM1978 322l-22 -125h-125l-35 -201h-151l34 201h-385l23 122l493 498h132l-89 -495h125zM1702 322l49 282l-272 -282h223z" glyph-name="onequarter" horiz-adv-x="2103" unicode="¼"/><glyph d="M668 -258h-125l907 1802h123zM760 743l-23 -135h-506l25 135h174l90 510l-172 -67l-33 117l283 124h109l-121 -684h174zM1709 829q148 0 217 -64.5t54 -166.5q-23 -182 -290 -358l-160 -107h391l-25 -139h-593l22 127l266 186q193 135 211 260q8 55 -26.5 87t-100.5 32 q-104 0 -213 -74l-53 117q152 100 300 100z" glyph-name="onehalf" horiz-adv-x="2103" unicode="½"/><glyph d="M668 -258h-125l907 1802h123zM552 1446q152 0 220 -57.5t55 -145.5q-6 -63 -56 -117.5t-130 -76.5q172 -37 152 -193q-14 -119 -122.5 -195.5t-270.5 -76.5t-277 92l84 123q101 -74 203 -74q193 0 217 131q10 61 -28 89t-134 28h-92l22 125h76q78 0 127 29.5t56 78.5 t-23.5 76t-118.5 27t-203 -80l-53 106q144 111 296 111zM1978 322l-22 -125h-125l-35 -201h-151l34 201h-385l23 122l493 498h132l-89 -495h125zM1702 322l49 282l-272 -282h223z" glyph-name="threequarters" horiz-adv-x="2103" unicode="¾"/><glyph d="M866 1116q123 0 123 -122q0 -64 -47.5 -110t-107.5 -46q-122 0 -121 124q0 64 46 109t107 45zM578 -365q-180 0 -280.5 82t-100.5 209q0 96 47 175t117.5 134.5t197 149t156.5 254.5h159q-18 -102 -72 -185t-120 -137.5t-169 -137t-103 -210.5q0 -80 59 -123t164 -43 q192 1 346 101l59 -133q-84 -59 -206.5 -97.5t-253.5 -38.5z" glyph-name="questiondown" horiz-adv-x="1140" unicode="¿"/><glyph d="M1001 1649h-135l-211 252h244zM381 340l-178 -340h-215l786 1434h221l289 -1434h-221l-59 340h-623zM848 1229l-381 -725h508z" glyph-name="Agrave" horiz-adv-x="1447" unicode="À"/><glyph d="M967 1567h-136l189 252h242zM381 340l-178 -340h-215l786 1434h221l289 -1434h-221l-59 340h-623zM848 1229l-381 -725h508z" glyph-name="Aacute" horiz-adv-x="1447" unicode="Á"/><glyph d="M788 1589h-176l279 242h108l179 -242h-168l-95 111zM1284 0h-221l-59 340h-623l-178 -340h-215l786 1434h221zM975 504l-127 725l-381 -725h508z" glyph-name="Acircumflex" horiz-adv-x="1447" unicode="Â"/><glyph d="M1028 1604q-51 0 -116.5 37.5t-102.5 37.5q-72 0 -119 -86l-88 54q76 166 215 165q51 0 116.5 -37.5t94.5 -37.5q62 0 117 92l92 -51q-74 -174 -209 -174zM381 340l-178 -340h-215l786 1434h221l289 -1434h-221l-59 340h-623zM848 1229l-381 -725h508z" glyph-name="Atilde" horiz-adv-x="1447" unicode="Ã"/><glyph d="M768 1827q49 0 74.5 -29t15.5 -84q-18 -104 -121 -104q-49 0 -73.5 28.5t-14.5 83.5q19 105 119 105zM1124 1827q49 0 74 -29t14 -84q-18 -104 -116 -104q-51 0 -77 28.5t-15 83.5q18 105 120 105zM381 340l-178 -340h-215l786 1434h221l289 -1434h-221l-59 340h-623z M848 1229l-381 -725h508z" glyph-name="Adieresis" horiz-adv-x="1447" unicode="Ä"/><glyph d="M968.5 1884q69.5 0 108.5 -40t26 -112t-65.5 -111.5t-122 -39.5t-108.5 40t-25 112q12 72 64.5 111.5t122 39.5zM954.5 1806q-32.5 0 -55 -20.5t-29 -53t10 -53t49.5 -20.5t55.5 20.5t28.5 52.5t-10.5 53t-49 21zM381 340l-178 -340h-215l786 1434h221l289 -1434h-221 l-59 340h-623zM848 1229l-381 -725h508z" glyph-name="Aring" horiz-adv-x="1447" unicode="Å"/><glyph d="M1225 1260l-80 -447h567l-31 -174h-567l-82 -465h645l-30 -174h-844l51 285h-457l-188 -285h-229l974 1434h928l-31 -174h-626zM883 453l137 780l-512 -780h375z" glyph-name="AE" horiz-adv-x="1894" unicode="Æ"/><glyph d="M912 1284q-228 0 -402 -182t-174 -514q0 -221 109.5 -329.5t285.5 -106.5q227 2 412 135l76 -142q-211 -160 -488 -174l-43 -55h25q57 0 92 -34t35 -87q0 -84 -73 -147.5t-210 -75.5l-18 92q164 27 163 111q0 45 -47 45q-23 0 -41 -10l-61 63l74 100q-223 20 -359.5 169 t-136.5 423q0 219 67.5 393.5t245 339t514.5 164.5q285 0 437 -131l-121 -151q-134 104 -362 104z" glyph-name="Ccedilla" horiz-adv-x="1345" unicode="Ç"/><glyph d="M872 1649h-135l-211 252h244zM475 1266l-82 -455h635l-29 -170h-634l-82 -467h721l-31 -174h-916l252 1434h916l-29 -168h-721z" glyph-name="Egrave" horiz-adv-x="1220" unicode="È"/><glyph d="M838 1567h-136l189 252h242zM475 1266l-82 -455h635l-29 -170h-634l-82 -467h721l-31 -174h-916l252 1434h916l-29 -168h-721z" glyph-name="Eacute" horiz-adv-x="1220" unicode="É"/><glyph d="M659 1589h-176l279 242h108l179 -242h-168l-95 111zM475 1266l-82 -455h635l-29 -170h-634l-82 -467h721l-31 -174h-916l252 1434h916l-29 -168h-721z" glyph-name="Ecircumflex" horiz-adv-x="1220" unicode="Ê"/><glyph d="M639 1827q49 0 74.5 -29t15.5 -84q-18 -104 -121 -104q-49 0 -73.5 28.5t-14.5 83.5q19 105 119 105zM995 1827q49 0 74 -29t14 -84q-18 -104 -116 -104q-51 0 -77 28.5t-16 83.5q19 105 121 105zM475 1266l-82 -455h635l-29 -170h-634l-82 -467h721l-31 -174h-916 l252 1434h916l-29 -168h-721z" glyph-name="Edieresis" horiz-adv-x="1220" unicode="Ë"/><glyph d="M526 1649h-135l-211 252h244zM57 0l252 1434h195l-252 -1434h-195z" glyph-name="Igrave" horiz-adv-x="497" unicode="Ì"/><glyph d="M492 1567h-136l189 252h241zM57 0l252 1434h195l-252 -1434h-195z" glyph-name="Iacute" horiz-adv-x="497" unicode="Í"/><glyph d="M702 1589h-167l-95 111l-127 -111h-176l279 242h108zM309 1434h195l-252 -1434h-195z" glyph-name="Icircumflex" horiz-adv-x="497" unicode="Î"/><glyph d="M291 1827q49 0 74.5 -29t15.5 -84q-18 -104 -121 -104q-49 0 -73.5 28.5t-14.5 83.5q19 105 119 105zM647 1827q49 0 73.5 -29t14.5 -84q-18 -104 -117 -104q-51 0 -76.5 28.5t-15.5 83.5q19 105 121 105zM57 0l252 1434h195l-252 -1434h-195z" glyph-name="Idieresis" horiz-adv-x="497" unicode="Ï"/><glyph d="M856 1434q264 0 426 -149.5t162 -438.5q0 -225 -94.5 -414.5t-285 -310.5t-443.5 -121h-451l117 659h-193l25 150h192l111 625h434zM639 180q147 0 265 58.5t224.5 203.5t106.5 396q0 203 -108.5 312.5t-297.5 109.5h-241l-80 -451h235l-26 -150h-236l-84 -479h242z" glyph-name="Eth" horiz-adv-x="1509" unicode="Ð"/><glyph d="M1044 1604q-51 0 -116.5 37.5t-102.5 37.5q-72 0 -118 -86l-89 54q76 166 216 165q51 0 116.5 -37.5t93.5 -37.5q62 0 117 92l92 -51q-74 -174 -209 -174zM1057 0l-615 1092l-190 -1092h-195l252 1434h168l608 -1094l193 1094h197l-252 -1434h-166z" glyph-name="Ntilde" horiz-adv-x="1468" unicode="Ñ"/><glyph d="M1075 1653h-135l-211 252h244zM961 1462q268 0 422.5 -155.5t152.5 -440.5q-2 -225 -103.5 -429t-295 -335t-442.5 -131t-408.5 155t-159.5 445q0 166 58.5 325t163 285t264.5 203.5t348 77.5zM932 1276q-117 0 -257 -60t-240.5 -245.5t-100.5 -385.5t106.5 -313.5 t286.5 -113.5q143 0 262 66.5t228.5 229.5t109.5 410q0 199 -105.5 305.5t-289.5 106.5z" glyph-name="Ograve" horiz-adv-x="1599" unicode="Ò"/><glyph d="M1040 1571h-135l189 252h241zM961 1462q268 0 422.5 -155.5t152.5 -440.5q-2 -225 -103.5 -429t-295 -335t-442.5 -131t-408.5 155t-159.5 445q0 166 58.5 325t163 285t264.5 203.5t348 77.5zM932 1276q-117 0 -257 -60t-240.5 -245.5t-100.5 -385.5t106.5 -313.5 t286.5 -113.5q143 0 262 66.5t228.5 229.5t109.5 410q0 199 -105.5 305.5t-289.5 106.5z" glyph-name="Oacute" horiz-adv-x="1599" unicode="Ó"/><glyph d="M862 1593h-176l279 242h108l178 -242h-168l-94 111zM961 1462q268 0 422.5 -155.5t152.5 -440.5q-2 -225 -103.5 -429t-295 -335t-442.5 -131t-408.5 155t-159.5 445q0 166 58.5 325t163 285t264.5 203.5t348 77.5zM727 158q143 0 262 66.5t228.5 229.5t109.5 410 q0 199 -105.5 305.5t-289.5 106.5q-117 0 -257 -60t-240.5 -245.5t-100.5 -385.5t106.5 -313.5t286.5 -113.5z" glyph-name="Ocircumflex" horiz-adv-x="1599" unicode="Ô"/><glyph d="M1104 1608q-51 0 -116.5 37.5t-102.5 37.5q-72 0 -119 -86l-88 54q76 166 215 166q53 0 118.5 -38t92.5 -38q62 0 117 92l92 -51q-74 -174 -209 -174zM961 1462q268 0 422.5 -155.5t152.5 -440.5q-2 -225 -103.5 -429t-295 -335t-442.5 -131t-408.5 155t-159.5 445 q0 166 58.5 325t163 285t264.5 203.5t348 77.5zM932 1276q-117 0 -257 -60t-240.5 -245.5t-100.5 -385.5t106.5 -313.5t286.5 -113.5q143 0 262 66.5t228.5 229.5t109.5 410q0 199 -105.5 305.5t-289.5 106.5z" glyph-name="Otilde" horiz-adv-x="1599" unicode="Õ"/><glyph d="M842 1831q49 0 74.5 -28.5t15.5 -84.5q-18 -104 -121 -104q-49 0 -73.5 28.5t-14.5 83.5q19 105 119 105zM1198 1831q49 0 73.5 -28.5t14.5 -84.5q-18 -104 -117 -104q-51 0 -76.5 28.5t-15.5 83.5q19 105 121 105zM961 1462q268 0 422.5 -155.5t152.5 -440.5 q-2 -225 -103.5 -429t-295 -335t-442.5 -131t-408.5 155t-159.5 445q0 166 58.5 325t163 285t264.5 203.5t348 77.5zM932 1276q-117 0 -257 -60t-240.5 -245.5t-100.5 -385.5t106.5 -313.5t286.5 -113.5q143 0 262 66.5t228.5 229.5t109.5 410q0 199 -105.5 305.5 t-289.5 106.5z" glyph-name="Odieresis" horiz-adv-x="1599" unicode="Ö"/><glyph d="M1114 113l-123 -107l-336 424l-487 -422l-86 105l485 426l-338 428l127 106l336 -426l486 426l86 -110l-486 -424z" glyph-name="multiply" horiz-adv-x="1347" unicode="×"/><glyph d="M702 -29q-166 0 -286 64l-191 -256l-110 67l192 260q-180 158 -180 465q0 166 58.5 325t163 285t264 203.5t341.5 77.5t312 -67l157 213l115 -62l-168 -225q168 -160 166 -455q-2 -225 -103.5 -429t-295 -335t-435.5 -131zM934 1276q-119 0 -259 -60t-240.5 -245.5 t-100.5 -381.5t100 -313l709 953q-90 47 -209 47zM746 158q124 0 243 66.5t228.5 229.5t109.5 410q0 179 -86 283l-704 -948q85 -41 209 -41z" glyph-name="Oslash" horiz-adv-x="1599" unicode="Ø"/><glyph d="M981 1649h-135l-211 252h244zM635 156q170 0 279.5 93t138.5 263l161 922h197l-162 -916q-51 -279 -229 -413t-414 -134t-369.5 127.5t-89.5 419.5l162 916h195l-162 -922q-31 -170 46 -263t247 -93z" glyph-name="Ugrave" horiz-adv-x="1402" unicode="Ù"/><glyph d="M946 1567h-135l188 252h242zM635 156q170 0 279.5 93t138.5 263l161 922h197l-162 -916q-51 -279 -229 -413t-414 -134t-369.5 127.5t-89.5 419.5l162 916h195l-162 -922q-31 -170 46 -263t247 -93z" glyph-name="Uacute" horiz-adv-x="1402" unicode="Ú"/><glyph d="M768 1589h-176l278 242h109l178 -242h-168l-94 111zM635 156q170 0 279.5 93t138.5 263l161 922h197l-162 -916q-51 -279 -229 -413t-414 -134t-369.5 127.5t-89.5 419.5l162 916h195l-162 -922q-31 -170 46 -263t247 -93z" glyph-name="Ucircumflex" horiz-adv-x="1402" unicode="Û"/><glyph d="M748 1827q49 0 74.5 -29t15.5 -84q-18 -104 -121 -104q-49 0 -74 28.5t-14 83.5q19 105 119 105zM1104 1827q49 0 73.5 -29t14.5 -84q-18 -104 -117 -104q-51 0 -76.5 28.5t-15.5 83.5q19 105 121 105zM635 156q170 0 279.5 93t138.5 263l161 922h197l-162 -916 q-51 -279 -229 -413t-414 -134t-369.5 127.5t-89.5 419.5l162 916h195l-162 -922q-31 -170 46 -263t247 -93z" glyph-name="Udieresis" horiz-adv-x="1402" unicode="Ü"/><glyph d="M866 1571h-135l189 252h241zM641 0h-203l101 573l-346 861h231l248 -676l489 676h228l-648 -863z" glyph-name="Yacute" horiz-adv-x="1265" unicode="Ý"/><glyph d="M713 1190q207 0 311 -99.5t104 -279.5t-100 -296t-214 -163t-257 -47h-250l-51 -305h-199l252 1434h199l-43 -244h248zM563 475q176 0 265.5 97.5t89.5 228.5q0 215 -261 215h-225l-92 -541h223z" glyph-name="Thorn" horiz-adv-x="1193" unicode="Þ"/><glyph d="M674 1479q174 0 263 -69t89 -190t-56.5 -185t-82 -88.5t-85.5 -70t-80 -60.5t-20 -37.5t33 -43.5q56 -28 110 -67t89 -79t54.5 -93t19.5 -117q0 -168 -108.5 -286t-309.5 -118q-123 0 -228 58l52 151q84 -53 181 -53t158.5 62.5t61.5 168.5t-48.5 155t-108.5 82.5 t-78 45.5q-60 35 -60 103t51 110q23 18 85.5 65.5t89 72t53 72.5t26.5 108t-45.5 97.5t-121.5 37.5t-139.5 -46t-80.5 -139l-198 -1126h-191l199 1133q31 164 141.5 255t284.5 91z" glyph-name="germandbls" horiz-adv-x="1124" unicode="ß"/><glyph d="M821 1290h-135l-211 252h244zM920 -10q-68 0 -102 54t-7 163q-113 -231 -354 -232q-172 0 -274.5 119t-102.5 314q0 285 175 488.5t441 203.5q121 0 265 -41h165l-153 -858q-14 -82 45 -82q18 0 43 4l-33 -115q-40 -18 -108 -18zM698 938q-193 0 -307.5 -155.5 t-114.5 -354.5q0 -129 57.5 -210t180.5 -81t211 96.5t119 268.5l71 395q-92 41 -217 41z" glyph-name="agrave" horiz-adv-x="1196" unicode="à"/><glyph d="M786 1208h-135l189 252h241zM920 -10q-68 0 -102 54t-7 163q-113 -231 -354 -232q-172 0 -274.5 119t-102.5 314q0 285 175 488.5t441 203.5q121 0 265 -41h165l-153 -858q-14 -82 45 -82q18 0 43 4l-33 -115q-40 -18 -108 -18zM698 938q-193 0 -307.5 -155.5 t-114.5 -354.5q0 -129 57.5 -210t180.5 -81t211 96.5t119 268.5l71 395q-92 41 -217 41z" glyph-name="aacute" horiz-adv-x="1196" unicode="á"/><glyph d="M608 1231h-176l279 242h108l178 -242h-168l-94 110zM1018 119q18 0 43 4l-33 -115q-40 -18 -108 -18t-102 54t-7 163q-113 -231 -354 -232q-172 0 -274.5 119t-102.5 314q0 285 175 488.5t441 203.5q121 0 265 -41h165l-153 -858q-14 -82 45 -82zM698 938 q-193 0 -307.5 -155.5t-114.5 -354.5q0 -129 57.5 -210t180.5 -81t211 96.5t119 268.5l71 395q-92 41 -217 41z" glyph-name="acircumflex" horiz-adv-x="1196" unicode="â"/><glyph d="M850 1245q-51 0 -116.5 38t-102.5 38q-72 0 -119 -86l-88 53q76 166 215 166q53 0 118.5 -38t92.5 -38q62 0 117 92l92 -51q-74 -174 -209 -174zM920 -10q-68 0 -102 54t-7 163q-113 -231 -354 -232q-172 0 -274.5 119t-102.5 314q0 285 175 488.5t441 203.5 q121 0 265 -41h165l-153 -858q-14 -82 45 -82q18 0 43 4l-33 -115q-40 -18 -108 -18zM698 938q-193 0 -307.5 -155.5t-114.5 -354.5q0 -129 57.5 -210t180.5 -81t211 96.5t119 268.5l71 395q-92 41 -217 41z" glyph-name="atilde" horiz-adv-x="1196" unicode="ã"/><glyph d="M588 1468q49 0 74.5 -28.5t15.5 -83.5q-18 -104 -121 -105q-49 0 -73.5 29t-14.5 84q19 104 119 104zM944 1468q49 0 73.5 -28.5t14.5 -83.5q-18 -104 -117 -105q-51 0 -76.5 29t-15.5 84q19 104 121 104zM920 -10q-68 0 -102 54t-7 163q-113 -231 -354 -232 q-172 0 -274.5 119t-102.5 314q0 285 175 488.5t441 203.5q121 0 265 -41h165l-153 -858q-14 -82 45 -82q18 0 43 4l-33 -115q-40 -18 -108 -18zM698 938q-193 0 -307.5 -155.5t-114.5 -354.5q0 -129 57.5 -210t180.5 -81t211 96.5t119 268.5l71 395q-92 41 -217 41z" glyph-name="adieresis" horiz-adv-x="1196" unicode="ä"/><glyph d="M788.5 1526q69.5 0 108.5 -40t26 -112t-65.5 -111.5t-122 -39.5t-108.5 39.5t-26 111.5t65.5 112t122 40zM774 1448q-33 0 -55.5 -20.5t-28.5 -53.5t10.5 -53.5t49 -20.5t55.5 20.5t29 52.5t-10.5 53.5t-49.5 21.5zM920 -10q-68 0 -102 54t-7 163q-113 -231 -354 -232 q-172 0 -274.5 119t-102.5 314q0 285 175 488.5t441 203.5q121 0 265 -41h165l-153 -858q-14 -82 45 -82q18 0 43 4l-33 -115q-40 -18 -108 -18zM698 938q-193 0 -307.5 -155.5t-114.5 -354.5q0 -129 57.5 -210t180.5 -81t211 96.5t119 268.5l71 395q-92 41 -217 41z" glyph-name="aring" horiz-adv-x="1196" unicode="å"/><glyph d="M664 1102q154 0 226.5 -54.5t94.5 -179.5q174 231 479 232q147 0 233.5 -67.5t86.5 -185.5t-85 -201t-270 -135.5t-432 -39.5q-8 -132 50.5 -236t250.5 -104q191 0 344 125l66 -129q-190 -156 -453 -156q-150 0 -257 70t-144 211q-145 -281 -492 -281q-143 0 -230 71 t-87 204q0 178 139.5 281.5t386.5 103.5q145 0 236 -23l16 84q43 250 -213 250q-161 0 -319 -104l-60 123q205 141 433 141zM1442 934q-152 0 -268.5 -91t-161.5 -245q194 -5 395 38.5t201 182.5q0 53 -43 84t-123 31zM420 123q133 0 239.5 102.5t131.5 245.5 q-133 25 -230 25q-160 0 -245 -58.5t-85 -152.5q1 -162 189 -162z" glyph-name="ae" horiz-adv-x="1814" unicode="æ"/><glyph d="M712 936q-146 0 -288.5 -108t-142.5 -361q0 -158 79.5 -244t225.5 -86t295 113l71 -129q-158 -133 -379 -148l-43 -57h25q59 0 93 -34t34 -87q0 -84 -72.5 -147.5t-210.5 -75.5l-18 92q164 27 164 111q0 45 -47 45q-23 0 -41 -10l-62 63l76 102q-176 20 -280.5 148.5 t-104.5 329.5q0 241 115.5 386.5t237.5 204t272 58.5q229 0 366 -131l-108 -131q-111 96 -257 96z" glyph-name="ccedilla" horiz-adv-x="1075" unicode="ç"/><glyph d="M825 1290h-135l-211 252h244zM528 -29q-203 0 -325.5 119t-120.5 336q2 287 184.5 480.5t470.5 193.5q152 0 239 -66.5t85 -181.5q-2 -186 -206 -287.5t-501 -101.5q-57 0 -88 2v-25q0 -303 299 -303q206 0 353 125l73 -131q-197 -160 -463 -160zM362 596q225 0 375 59.5 t150 163.5q0 53 -44 84t-122 31q-152 0 -269.5 -91t-162.5 -247h73z" glyph-name="egrave" horiz-adv-x="1089" unicode="è"/><glyph d="M791 1208h-136l189 252h241zM528 -29q-203 0 -325.5 119t-120.5 336q2 287 184.5 480.5t470.5 193.5q152 0 239 -66.5t85 -181.5q-2 -186 -206 -287.5t-501 -101.5q-57 0 -88 2v-25q0 -303 299 -303q206 0 353 125l73 -131q-197 -160 -463 -160zM362 596q225 0 375 59.5 t150 163.5q0 53 -44 84t-122 31q-152 0 -269.5 -91t-162.5 -247h73z" glyph-name="eacute" horiz-adv-x="1089" unicode="é"/><glyph d="M612 1231h-176l279 242h108l178 -242h-167l-95 110zM528 -29q-203 0 -325.5 119t-120.5 336q2 287 184.5 480.5t470.5 193.5q152 0 239 -66.5t85 -181.5q-2 -186 -206 -287.5t-501 -101.5q-57 0 -88 2v-25q0 -303 299 -303q206 0 353 125l73 -131q-197 -160 -463 -160z M362 596q225 0 375 59.5t150 163.5q0 53 -44 84t-122 31q-152 0 -269.5 -91t-162.5 -247h73z" glyph-name="ecircumflex" horiz-adv-x="1089" unicode="ê"/><glyph d="M590 1468q49 0 74.5 -28.5t15.5 -83.5q-18 -104 -121 -105q-49 0 -73.5 29t-14.5 84q19 104 119 104zM946 1468q49 0 73.5 -28.5t14.5 -83.5q-18 -104 -116 -105q-51 0 -77 29t-16 84q19 104 121 104zM528 -29q-203 0 -325.5 119t-120.5 336q2 287 184.5 480.5 t470.5 193.5q152 0 239 -66.5t85 -181.5q-2 -186 -206 -287.5t-501 -101.5q-57 0 -88 2v-25q0 -303 299 -303q206 0 353 125l73 -131q-197 -160 -463 -160zM362 596q225 0 375 59.5t150 163.5q0 53 -44 84t-122 31q-152 0 -269.5 -91t-162.5 -247h73z" glyph-name="edieresis" horiz-adv-x="1089" unicode="ë"/><glyph d="M451 1288h-136l-211 252h244zM313 121q43 0 64 6l-25 -135q-49 -16 -124 -16t-118.5 47t-27.5 137l162 913h190l-162 -895q-10 -57 41 -57z" glyph-name="igrave" horiz-adv-x="542" unicode="ì"/><glyph d="M416 1206h-135l188 252h242zM313 121q43 0 64 6l-25 -135q-49 -16 -124 -16t-118.5 47t-27.5 137l162 913h190l-162 -895q-10 -57 41 -57z" glyph-name="iacute" horiz-adv-x="542" unicode="í"/><glyph d="M627 1229h-168l-94 110l-127 -110h-177l279 241h109zM313 121q43 0 64 6l-25 -135q-49 -16 -124 -16t-118.5 47t-27.5 137l162 913h190l-162 -895q-10 -57 41 -57z" glyph-name="icircumflex" horiz-adv-x="542" unicode="î"/><glyph d="M217 1466q49 0 74.5 -28.5t15.5 -83.5q-18 -104 -121 -105q-49 0 -73.5 29t-14.5 84q19 104 119 104zM573 1466q49 0 74 -28.5t15 -83.5q-18 -104 -117 -105q-51 0 -77 29t-15 84q18 104 120 104zM313 121q43 0 64 6l-25 -135q-49 -16 -124 -16t-118.5 47t-27.5 137 l162 913h190l-162 -895q-10 -57 41 -57z" glyph-name="idieresis" horiz-adv-x="542" unicode="ï"/><glyph d="M522 -29q-217 0 -336.5 141.5t-81.5 406.5t205.5 424t378.5 159t301 -150q-37 182 -151 322l-275 -121l-35 92l238 105q-72 63 -141 106l112 109q102 -63 187 -146l211 92l32 -92l-176 -78q225 -279 164 -690q-41 -303 -204 -491.5t-429 -188.5zM690 932 q-148 0 -256 -110t-136 -292t42 -285.5t218 -103.5t254.5 114t134.5 293t-40.5 281.5t-216.5 102.5z" glyph-name="eth" horiz-adv-x="1228" unicode="ð"/><glyph d="M893 1245q-51 0 -116.5 38t-102.5 38q-72 0 -119 -86l-88 53q76 166 215 166q51 0 116.5 -38t94.5 -38q62 0 117 92l92 -51q-74 -174 -209 -174zM836 1100q162 0 237.5 -86t46.5 -236l-116 -604q-12 -59 43 -59q16 0 49 4l-29 -119q-35 -18 -116 -18t-116.5 48t-19.5 138 l111 569q18 94 -20 145.5t-126 51.5q-145 0 -265 -153.5t-165 -405.5l-67 -375h-185l162 889q14 78 -53 78q-31 0 -45 -6l24 120q45 16 107 17q152 0 127 -180l-25 -125h6q166 307 435 307z" glyph-name="ntilde" horiz-adv-x="1261" unicode="ñ"/><glyph d="M829 1288h-135l-211 252h244zM698 1096q205 0 331 -123t126 -338q0 -266 -173 -462t-447 -196q-197 0 -324 127t-127 336q0 266 169 461t445 195zM676 934q-178 0 -289 -144.5t-111 -312.5t73 -253t204 -85q180 0 294 142.5t114 313.5t-74 255t-211 84z" glyph-name="ograve" horiz-adv-x="1222" unicode="ò"/><glyph d="M795 1206h-136l189 252h242zM698 1096q205 0 331 -123t126 -338q0 -266 -173 -462t-447 -196q-197 0 -324 127t-127 336q0 266 169 461t445 195zM676 934q-178 0 -289 -144.5t-111 -312.5t73 -253t204 -85q180 0 294 142.5t114 313.5t-74 255t-211 84z" glyph-name="oacute" horiz-adv-x="1222" unicode="ó"/><glyph d="M616 1229h-176l279 241h108l179 -241h-168l-95 110zM698 1096q205 0 331 -123t126 -338q0 -266 -173 -462t-447 -196q-197 0 -324 127t-127 336q0 266 169 461t445 195zM553 139q180 0 294 142.5t114 313.5t-74 255t-211 84q-178 0 -289 -144.5t-111 -312.5t73 -253 t204 -85z" glyph-name="ocircumflex" horiz-adv-x="1222" unicode="ô"/><glyph d="M856 1243q-51 0 -116.5 38t-102.5 38q-72 0 -119 -86l-88 53q76 166 215 166q51 0 116.5 -38t94.5 -38q62 0 117 92l92 -51q-74 -174 -209 -174zM698 1096q205 0 331 -123t126 -338q0 -266 -173 -462t-447 -196q-197 0 -324 127t-127 336q0 266 169 461t445 195zM676 934 q-178 0 -289 -144.5t-111 -312.5t73 -253t204 -85q180 0 294 142.5t114 313.5t-74 255t-211 84z" glyph-name="otilde" horiz-adv-x="1222" unicode="õ"/><glyph d="M594 1466q49 0 74.5 -28.5t15.5 -83.5q-18 -104 -121 -105q-49 0 -73.5 29t-14.5 84q19 104 119 104zM950 1466q49 0 74 -28.5t14 -83.5q-18 -104 -116 -105q-51 0 -77 29t-16 84q19 104 121 104zM698 1096q205 0 331 -123t126 -338q0 -266 -173 -462t-447 -196 q-197 0 -324 127t-127 336q0 266 169 461t445 195zM676 934q-178 0 -289 -144.5t-111 -312.5t73 -253t204 -85q180 0 294 142.5t114 313.5t-74 255t-211 84z" glyph-name="odieresis" horiz-adv-x="1222" unicode="ö"/><glyph d="M698 834q-114 0 -114 116q0 62 46 102t99 40q115 0 115 -118q0 -64 -46 -102t-100 -38zM1126 469h-993l25 137h993zM580 246q114 0 114 -116q0 -63 -46 -102.5t-99 -39.5q-115 0 -115 106q0 74 46.5 113t99.5 39z" glyph-name="divide" horiz-adv-x="1284" unicode="÷"/><glyph d="M1155 618q0 -248 -173 -444.5t-447 -196.5q-106 0 -199 41l-146 -208l-98 59l152 207q-160 126 -160 378t169 447t445 195q129 0 228 -49l143 213l96 -56l-153 -215q143 -123 143 -371zM676 934q-178 0 -289 -144.5t-111 -313.5t74 -253l473 678q-66 33 -147 33zM553 139 q180 0 294 142.5t114 328.5q-1 139 -60 221l-467 -669q55 -23 119 -23z" glyph-name="oslash" horiz-adv-x="1253" unicode="ø"/><glyph d="M825 1288h-135l-211 252h244zM406 -25q-144 0 -224 96.5t-43 295.5l97 524q14 76 -56 76q-6 0 -43 -4l23 118q49 18 127 19q178 0 137 -207l-96 -528q-41 -221 161 -222q119 0 230.5 113t146.5 324l88 495h189l-164 -915q-8 -55 35 -56q55 0 65 2l-32 -112 q-31 -16 -117 -17q-145 0 -121 150l22 104h-10q-84 -137 -177.5 -196.5t-237.5 -59.5z" glyph-name="ugrave" horiz-adv-x="1218" unicode="ù"/><glyph d="M791 1206h-136l189 252h241zM406 -25q-144 0 -224 96.5t-43 295.5l97 524q14 76 -56 76q-6 0 -43 -4l23 118q49 18 127 19q178 0 137 -207l-96 -528q-41 -221 161 -222q119 0 230.5 113t146.5 324l88 495h189l-164 -915q-8 -55 35 -56q55 0 65 2l-32 -112 q-31 -16 -117 -17q-145 0 -121 150l22 104h-10q-84 -137 -177.5 -196.5t-237.5 -59.5z" glyph-name="uacute" horiz-adv-x="1218" unicode="ú"/><glyph d="M612 1229h-176l279 241h108l178 -241h-167l-95 110zM406 -25q-144 0 -224 96.5t-43 295.5l97 524q14 76 -56 76q-6 0 -43 -4l23 118q49 18 127 19q178 0 137 -207l-96 -528q-41 -221 161 -222q119 0 230.5 113t146.5 324l88 495h189l-164 -915q-8 -55 35 -56q55 0 65 2 l-32 -112q-31 -16 -117 -17q-145 0 -121 150l22 104h-10q-84 -137 -177.5 -196.5t-237.5 -59.5z" glyph-name="ucircumflex" horiz-adv-x="1218" unicode="û"/><glyph d="M590 1466q49 0 74.5 -28.5t15.5 -83.5q-18 -104 -121 -105q-49 0 -73.5 29t-14.5 84q19 104 119 104zM946 1466q49 0 73.5 -28.5t14.5 -83.5q-18 -104 -116 -105q-51 0 -77 29t-16 84q19 104 121 104zM406 -25q-144 0 -224 96.5t-43 295.5l97 524q14 76 -56 76 q-6 0 -43 -4l23 118q49 18 127 19q178 0 137 -207l-96 -528q-41 -221 161 -222q119 0 230.5 113t146.5 324l88 495h189l-164 -915q-8 -55 35 -56q55 0 65 2l-32 -112q-31 -16 -117 -17q-145 0 -121 150l22 104h-10q-84 -137 -177.5 -196.5t-237.5 -59.5z" glyph-name="udieresis" horiz-adv-x="1218" unicode="ü"/><glyph d="M743 1208h-135l189 252h241zM142 -434q-114 0 -189 35l41 141q61 -20 125 -21q133 0 237 211l52 103l-244 854q-14 47 -23 61.5t-27 14.5t-51 -4l25 118q56 19 114 19t87.5 -30t44.5 -89l198 -762l420 856h201l-635 -1208q-82 -156 -172 -227.5t-204 -71.5z" glyph-name="yacute" horiz-adv-x="1060" unicode="ý"/><glyph d="M768 1098q160 0 254 -115t94 -324q0 -270 -175 -479t-419 -209q-172 0 -268 78l-84 -471h-188l348 1962h178l-117 -647h6q119 205 371 205zM924 643q0 287 -234 287q-115 0 -215 -95.5t-129 -261.5l-65 -364q83 -78 241 -78t280 153.5t122 358.5z" glyph-name="thorn" horiz-adv-x="1196" unicode="þ"/><glyph d="M545 1468q49 0 74.5 -28.5t15.5 -83.5q-18 -104 -121 -105q-49 0 -73.5 29t-14.5 84q19 104 119 104zM901 1468q49 0 73.5 -28.5t14.5 -83.5q-18 -104 -117 -105q-51 0 -76.5 29t-15.5 84q19 104 121 104zM142 -434q-114 0 -189 35l41 141q61 -20 125 -21q133 0 237 211 l52 103l-244 854q-14 47 -23 61.5t-27 14.5t-51 -4l25 118q56 19 114 19t87.5 -30t44.5 -89l198 -762l420 856h201l-635 -1208q-82 -156 -172 -227.5t-204 -71.5z" glyph-name="ydieresis" horiz-adv-x="1060" unicode="ÿ"/><glyph d="M1190 1681h-539l19 113h540zM381 340l-178 -340h-215l786 1434h221l289 -1434h-221l-59 340h-623zM848 1229l-381 -725h508z" glyph-name="Amacron" horiz-adv-x="1447" unicode="Ā"/><glyph d="M1010 1323h-539l18 113h541zM920 -10q-68 0 -102 54t-7 163q-113 -231 -354 -232q-172 0 -274.5 119t-102.5 314q0 285 175 488.5t441 203.5q121 0 265 -41h165l-153 -858q-14 -82 45 -82q18 0 43 4l-33 -115q-40 -18 -108 -18zM698 938q-193 0 -307.5 -155.5 t-114.5 -354.5q0 -129 57.5 -210t180.5 -81t211 96.5t119 268.5l71 395q-92 41 -217 41z" glyph-name="amacron" horiz-adv-x="1196" unicode="ā"/><glyph d="M906 1579q-104 0 -170 62.5t-58 179.5h113q0 -61 35.5 -94t101.5 -33q131 0 178 127h117q-37 -117 -125 -179.5t-192 -62.5zM381 340l-178 -340h-215l786 1434h221l289 -1434h-221l-59 340h-623zM848 1229l-381 -725h508z" glyph-name="Abreve" horiz-adv-x="1447" unicode="Ă"/><glyph d="M725 1221q-104 0 -170 62.5t-57 178.5h112q0 -61 36 -94t102 -33q131 0 178 127h116q-37 -117 -125 -179t-192 -62zM920 -10q-68 0 -102 54t-7 163q-113 -231 -354 -232q-172 0 -274.5 119t-102.5 314q0 285 175 488.5t441 203.5q121 0 265 -41h165l-153 -858 q-14 -82 45 -82q18 0 43 4l-33 -115q-40 -18 -108 -18zM698 938q-193 0 -307.5 -155.5t-114.5 -354.5q0 -129 57.5 -210t180.5 -81t211 96.5t119 268.5l71 395q-92 41 -217 41z" glyph-name="abreve" horiz-adv-x="1196" unicode="ă"/><glyph d="M1079 -186q0 -82 92 -111l-57 -115q-182 37 -182 185q0 129 162 227h-31l-59 340h-623l-178 -340h-215l786 1434h221l289 -1434h-41q-164 -104 -164 -186zM975 504l-127 725l-381 -725h508z" glyph-name="Aogonek" horiz-adv-x="1447" unicode="Ą"/><glyph d="M1018 119q18 0 43 4l-33 -115q-168 -106 -168 -188t92 -111l-57 -115q-182 37 -182 185q0 127 153 223q-96 41 -55 205q-113 -231 -354 -232q-172 0 -274.5 119t-102.5 314q0 285 175 488.5t441 203.5q121 0 265 -41h165l-153 -858q-14 -82 45 -82zM698 938 q-193 0 -307.5 -155.5t-114.5 -354.5q0 -129 57.5 -210t180.5 -81t211 96.5t119 268.5l71 395q-92 41 -217 41z" glyph-name="aogonek" horiz-adv-x="1196" unicode="ą"/><glyph d="M1047 1573h-136l189 252h241zM690 -29q-250 0 -404.5 149.5t-154.5 444.5q0 219 67.5 393.5t245 339t514.5 164.5q285 0 437 -131l-121 -151q-134 104 -362 104t-402 -182t-174 -514q0 -221 109.5 -329.5t285.5 -106.5q228 2 412 135l76 -142q-229 -174 -529 -174z" glyph-name="Cacute" horiz-adv-x="1345" unicode="Ć"/><glyph d="M788 1206h-135l189 252h241zM530 -29q-201 0 -322.5 132.5t-121.5 361.5t115.5 374.5t237.5 204t272 58.5q229 0 366 -131l-108 -131q-111 96 -257 96t-288.5 -108t-142.5 -361q0 -158 79.5 -244t226.5 -86t294 113l71 -129q-178 -150 -422 -150z" glyph-name="cacute" horiz-adv-x="1075" unicode="ć"/><glyph d="M1037 1837q48 0 77 -28.5t20 -84.5t-48.5 -86t-87.5 -30t-75.5 29.5t-17.5 85.5t47 85t85 29zM690 -29q-250 0 -404.5 149.5t-154.5 444.5q0 219 67.5 393.5t245 339t514.5 164.5q285 0 437 -131l-121 -151q-134 104 -362 104t-402 -182t-174 -514q0 -221 109.5 -329.5 t285.5 -106.5q228 2 412 135l76 -142q-229 -174 -529 -174z" glyph-name="Cdotaccent" horiz-adv-x="1345" unicode="Ċ"/><glyph d="M779 1470q48 0 77.5 -28.5t19.5 -84.5t-49 -86t-87 -30t-75.5 29.5t-17.5 85.5t47 85t85 29zM530 -29q-201 0 -322.5 132.5t-121.5 361.5t115.5 374.5t237.5 204t272 58.5q229 0 366 -131l-108 -131q-111 96 -257 96t-288.5 -108t-142.5 -361q0 -158 79.5 -244t226.5 -86 t294 113l71 -129q-178 -150 -422 -150z" glyph-name="cdotaccent" horiz-adv-x="1075" unicode="ċ"/><glyph d="M924 1591l-185 236h170l92 -119l140 119h164l-256 -236h-125zM912 1284q-228 0 -402 -182t-174 -514q0 -221 109.5 -329.5t285.5 -106.5q227 2 412 135l76 -142q-229 -174 -529 -174q-250 0 -404.5 149.5t-154.5 444.5q0 219 67.5 393.5t245 339t514.5 164.5 q285 0 437 -131l-121 -151q-134 104 -362 104z" glyph-name="Ccaron" horiz-adv-x="1345" unicode="Č"/><glyph d="M666 1225l-185 235h170l92 -119l140 119h164l-256 -235h-125zM712 936q-146 0 -288.5 -108t-142.5 -361q0 -158 79.5 -244t225.5 -86t295 113l71 -129q-178 -150 -422 -150q-201 0 -322.5 132.5t-121.5 361.5t115.5 374.5t237.5 204t272 58.5q229 0 366 -131l-108 -131 q-111 96 -257 96z" glyph-name="ccaron" horiz-adv-x="1075" unicode="č"/><glyph d="M698 1585l-184 236h170l92 -119l139 119h164l-256 -236h-125zM743 1434q264 0 426 -149.5t162 -438.5q0 -225 -94 -414.5t-284.5 -310.5t-444.5 -121h-451l252 1434h434zM526 180q147 0 265 58.5t224.5 202.5t106.5 397q0 203 -108.5 312.5t-296.5 109.5h-242l-190 -1080 h241z" glyph-name="Dcaron" horiz-adv-x="1400" unicode="Ď"/><glyph d="M1016 119q20 0 41 4l-33 -115q-38 -18 -104 -18t-99 51t-14 147q-106 -215 -350 -215q-170 0 -270.5 119t-100.5 328q0 287 172 483.5t461 196.5q121 0 217 -39l86 479h182l-235 -1335q-14 -86 47 -86zM1374 1227h-94l66 313h165zM707 934q-186 0 -302 -141.5 t-116 -346.5q0 -147 60.5 -225t166.5 -78t201.5 96.5t126.5 266.5l65 387q-88 41 -202 41z" glyph-name="dcaron" horiz-adv-x="1196" unicode="ď"/><glyph d="M1044 1681h-538l18 113h541zM743 1434q264 0 426 -149.5t162 -438.5q0 -225 -94 -414.5t-284.5 -310.5t-444.5 -121h-451l252 1434h434zM526 180q147 0 265 58.5t224.5 202.5t106.5 397q0 203 -108.5 312.5t-296.5 109.5h-242l-190 -1080h241z" glyph-name="Dcroat" horiz-adv-x="1400" unicode="Đ"/><glyph d="M1016 119q20 0 41 4l-33 -115q-38 -18 -104 -18t-99 51t-14 147q-106 -215 -350 -215q-170 0 -270.5 119t-100.5 328q0 287 172 483.5t461 196.5q121 0 217 -39l33 186h-185l21 113h184l33 180h182l-33 -180h189l-21 -113h-186l-184 -1042q-14 -86 47 -86zM707 934 q-186 0 -302 -141.5t-116 -346.5q0 -147 60.5 -225t166.5 -78t201.5 96.5t126.5 266.5l65 387q-88 41 -202 41z" glyph-name="dcroat" horiz-adv-x="1193" unicode="đ"/><glyph d="M1061 1681h-539l19 113h540zM475 1266l-82 -455h635l-29 -170h-634l-82 -467h721l-31 -174h-916l252 1434h916l-29 -168h-721z" glyph-name="Emacron" horiz-adv-x="1220" unicode="Ē"/><glyph d="M1014 1323h-539l19 113h540zM528 -29q-203 0 -325.5 119t-120.5 336q2 287 184.5 480.5t470.5 193.5q152 0 239 -66.5t85 -181.5q-2 -186 -206 -287.5t-501 -101.5q-57 0 -88 2v-25q0 -303 299 -303q206 0 353 125l73 -131q-197 -160 -463 -160zM362 596q225 0 375 59.5 t150 163.5q0 53 -44 84t-122 31q-152 0 -269.5 -91t-162.5 -247h73z" glyph-name="emacron" horiz-adv-x="1089" unicode="ē"/><glyph d="M774 1579q-104 0 -169.5 62.5t-57.5 179.5h112q0 -61 36 -94t102 -33q131 0 178 127h117q-37 -117 -125.5 -179.5t-192.5 -62.5zM475 1266l-82 -455h635l-29 -170h-634l-82 -467h721l-31 -174h-916l252 1434h916l-29 -168h-721z" glyph-name="Ebreve" horiz-adv-x="1220" unicode="Ĕ"/><glyph d="M727 1221q-104 0 -169.5 62.5t-57.5 178.5h112q0 -61 36 -94t102 -33q131 0 178 127h116q-37 -117 -125 -179t-192 -62zM528 -29q-203 0 -325.5 119t-120.5 336q2 287 184.5 480.5t470.5 193.5q152 0 239 -66.5t85 -181.5q-2 -186 -206 -287.5t-501 -101.5q-57 0 -88 2 v-25q0 -303 299 -303q206 0 353 125l73 -131q-197 -160 -463 -160zM362 596q225 0 375 59.5t150 163.5q0 53 -44 84t-122 31q-152 0 -269.5 -91t-162.5 -247h73z" glyph-name="ebreve" horiz-adv-x="1089" unicode="ĕ"/><glyph d="M826 1831q48 0 77 -28.5t20 -84.5t-48 -86t-87 -30t-76 29.5t-18 85.5t47 85t85 29zM475 1266l-82 -455h635l-29 -170h-634l-82 -467h721l-31 -174h-916l252 1434h916l-29 -168h-721z" glyph-name="Edotaccent" horiz-adv-x="1220" unicode="Ė"/><glyph d="M779 1473q48 0 77.5 -29t19.5 -85t-49 -86t-87 -30t-75.5 30t-17.5 86t47 85t85 29zM528 -29q-203 0 -325.5 119t-120.5 336q2 287 184.5 480.5t470.5 193.5q152 0 239 -66.5t85 -181.5q-2 -186 -206 -287.5t-501 -101.5q-57 0 -88 2v-25q0 -303 299 -303q206 0 353 125 l73 -131q-197 -160 -463 -160zM362 596q225 0 375 59.5t150 163.5q0 53 -44 84t-122 31q-152 0 -269.5 -91t-162.5 -247h73z" glyph-name="edotaccent" horiz-adv-x="1089" unicode="ė"/><glyph d="M461 -188q0 -82 92 -111l-57 -115q-182 37 -183 185q0 131 164 229h-420l252 1434h916l-29 -168h-721l-82 -455h635l-29 -170h-634l-82 -467h721l-31 -174h-344q-168 -106 -168 -188z" glyph-name="Eogonek" horiz-adv-x="1220" unicode="Ę"/><glyph d="M737 1100q152 0 239 -66.5t85 -181.5q-2 -186 -206 -287.5t-501 -101.5q-57 0 -88 2v-25q0 -303 299 -303q205 0 353 125l73 -131q-162 -133 -362 -154q-86 -74 -86 -143t92 -98l-57 -115q-182 37 -183 184q0 92 82 168q-182 16 -289.5 133t-105.5 320q2 287 184.5 480.5 t470.5 193.5zM362 596q225 0 375 59.5t150 163.5q0 53 -44 84t-122 31q-152 0 -269.5 -91t-162.5 -247h73z" glyph-name="eogonek" horiz-adv-x="1089" unicode="ę"/><glyph d="M713 1585l-185 236h170l93 -119l139 119h164l-256 -236h-125zM475 1266l-82 -455h635l-29 -170h-634l-82 -467h721l-31 -174h-916l252 1434h916l-29 -168h-721z" glyph-name="Ecaron" horiz-adv-x="1220" unicode="Ě"/><glyph d="M666 1227l-185 235h170l92 -119l140 119h164l-256 -235h-125zM528 -29q-203 0 -325.5 119t-120.5 336q2 287 184.5 480.5t470.5 193.5q152 0 239 -66.5t85 -181.5q-2 -186 -206 -287.5t-501 -101.5q-57 0 -88 2v-25q0 -303 299 -303q206 0 353 125l73 -131 q-197 -160 -463 -160zM362 596q225 0 375 59.5t150 163.5q0 53 -44 84t-122 31q-152 0 -269.5 -91t-162.5 -247h73z" glyph-name="ecaron" horiz-adv-x="1089" unicode="ě"/><glyph d="M910 1583q-104 0 -170 62.5t-58 179.5h113q0 -61 35.5 -94t101.5 -33q131 0 178 127h117q-37 -117 -125 -179.5t-192 -62.5zM336 592q0 -434 406 -434q202 0 341 155l54 297h-371l29 164h561l-96 -553q-231 -248 -578 -248q-242 0 -398.5 147.5t-156.5 440.5 q0 337 151.5 539.5t309 282t350.5 79.5q293 0 475 -174l-129 -145q-146 133 -348 133t-338.5 -105.5t-199 -258t-62.5 -320.5z" glyph-name="Gbreve" horiz-adv-x="1466" unicode="Ğ"/><glyph d="M705 1221q-104 0 -170 62.5t-58 178.5h113q0 -61 36 -94t101 -33q131 0 178 127h117q-37 -117 -125 -179t-192 -62zM446 33q-152 0 -256 108.5t-104 294.5t71.5 331.5t212 240t312.5 94.5t293 -43l155 -12l-182 -1045q-79 -436 -562 -436q-230 0 -378 119l82 149 q125 -100 313 -100q141 0 239.5 64.5t121.5 201.5l39 213q-84 -102 -167 -141t-190 -39zM692 936q-186 0 -293.5 -134t-107.5 -331q0 -135 63.5 -205.5t168.5 -70.5t203.5 81.5t127.5 247.5l66 369q-90 43 -228 43z" glyph-name="gbreve" horiz-adv-x="1157" unicode="ğ"/><glyph d="M962 1835q48 0 76.5 -28.5t19.5 -84.5t-48 -86t-87 -30t-76 29.5t-18 85.5t47.5 85t85.5 29zM336 592q0 -434 406 -434q202 0 341 155l54 297h-371l29 164h561l-96 -553q-231 -248 -578 -248q-242 0 -398.5 147.5t-156.5 440.5q0 337 151.5 539.5t309 282t350.5 79.5 q293 0 475 -174l-129 -145q-146 133 -348 133t-338.5 -105.5t-199 -258t-62.5 -320.5z" glyph-name="Gdotaccent" horiz-adv-x="1466" unicode="Ġ"/><glyph d="M757 1473q48 0 76.5 -29t19.5 -85t-48 -86t-87 -30t-76 30t-18 86t47.5 85t85.5 29zM446 33q-152 0 -256 108.5t-104 294.5t71.5 331.5t212 240t312.5 94.5t293 -43l155 -12l-182 -1045q-79 -436 -562 -436q-230 0 -378 119l82 149q125 -100 313 -100q141 0 239.5 64.5 t121.5 201.5l39 213q-84 -102 -167 -141t-190 -39zM692 936q-186 0 -293.5 -134t-107.5 -331q0 -135 63.5 -205.5t168.5 -70.5t203.5 81.5t127.5 247.5l66 369q-90 43 -228 43z" glyph-name="gdotaccent" horiz-adv-x="1157" unicode="ġ"/><glyph d="M336 592q0 -434 406 -434q202 0 341 155l54 297h-371l29 164h561l-96 -553q-231 -248 -578 -248q-242 0 -398.5 147.5t-156.5 440.5q0 337 151.5 539.5t309 282t350.5 79.5q293 0 475 -174l-129 -145q-146 133 -348 133t-338.5 -105.5t-199 -258t-62.5 -320.5zM627 -422 h-95l66 313h166z" glyph-name="Gcommaaccent" horiz-adv-x="1466" unicode="Ģ"/><glyph d="M446 33q-152 0 -256 108.5t-104 294.5t71.5 331.5t212 240t312.5 94.5t293 -43l155 -12l-182 -1045q-79 -436 -562 -436q-230 0 -378 119l82 149q125 -100 313 -100q141 0 239.5 64.5t121.5 201.5l39 213q-84 -102 -167 -141t-190 -39zM692 936q-186 0 -293.5 -134 t-107.5 -331q0 -135 63.5 -205.5t168.5 -70.5t203.5 81.5t127.5 247.5l66 369q-90 43 -228 43zM338 -846h-94l65 314h166z" glyph-name="gcommaaccent" horiz-adv-x="1157" unicode="ģ"/><glyph d="M1651 1059h-135l-187 -1059h-194l114 641h-745l-113 -641h-194l186 1059h-139l22 133h140l43 242h194l-43 -242h746l43 242h192l-43 -242h135zM1323 1059h-745l-46 -250h746z" glyph-name="Hbar" horiz-adv-x="1710" unicode="Ħ"/><glyph d="M1010 113q39 0 63 8l-31 -125q-45 -16 -118 -16q-143 0 -144 131q0 25 6 53l105 561q39 209 -137 209q-150 0 -271 -160t-168 -418l-65 -356h-184l206 1151h-178l19 113h180l10 57q14 76 -53 76q-31 0 -47 -6l28 135q39 16 117 16q166 0 127 -215l-12 -63h145l-16 -113 h-148l-59 -330h8q72 135 181.5 207t228.5 72q339 0 276 -344l-106 -584l-2 -16q0 -43 39 -43z" glyph-name="hbar" horiz-adv-x="1226" unicode="ħ"/><glyph d="M715 1681h-539l19 113h540zM57 0l252 1434h195l-252 -1434h-195z" glyph-name="Imacron" horiz-adv-x="497" unicode="Ī"/><glyph d="M639 1321h-539l19 113h540zM313 121q43 0 64 6l-25 -135q-49 -16 -124 -16t-118.5 47t-27.5 137l162 913h190l-162 -895q-10 -57 41 -57z" glyph-name="imacron" horiz-adv-x="542" unicode="ī"/><glyph d="M-78 -227q0 129 162 227h-27l252 1434h195l-252 -1434h-19q-163 -104 -163 -186t92 -111l-58 -115q-182 37 -182 185z" glyph-name="Iogonek" horiz-adv-x="497" unicode="Į"/><glyph d="M452 1573q54 0 83.5 -31t22.5 -86t-49 -90t-96 -35t-82 29t-21 85t47.5 92t94.5 36zM335.5 115q22.5 0 65.5 6l-24 -127q-25 -8 -84 -17q-115 -85 -115 -159t92 -103l-57 -114q-182 37 -182 184q0 119 133 209q-82 43 -58 168l164 911h189l-162 -903q-6 -25 5 -40 t33.5 -15z" glyph-name="iogonek" horiz-adv-x="544" unicode="į"/><glyph d="M480 1831q48 0 77 -28.5t19 -84.5t-48.5 -86t-86.5 -30t-75.5 29.5t-17.5 85.5t47 85t85 29zM57 0l252 1434h195l-252 -1434h-195z" glyph-name="Idotaccent" horiz-adv-x="497" unicode="İ"/><glyph d="M313 121q43 0 64 6l-25 -135q-49 -16 -124 -16t-118.5 47t-27.5 137l162 913h190l-162 -895q-10 -57 41 -57z" glyph-name="dotlessi" horiz-adv-x="542" unicode="ı"/><glyph d="M57 0l252 1434h195l-252 -1434h-195zM620 -29q-132 0 -206 27l39 170q82 -16 174 -16q156 0 242.5 67.5t117.5 267.5l168 947h197l-172 -969q-46 -289 -158.5 -370t-191 -102.5t-210.5 -21.5z" glyph-name="IJ" horiz-adv-x="1343" unicode="Ĳ"/><glyph d="M452 1573q54 0 83.5 -31t22.5 -86t-49 -90t-96 -35t-82 29t-21 85t47.5 92t94.5 36zM990 1573q54 0 84 -31t24 -86t-48 -90t-98 -35t-82 31t-20 85t46 90t94 36zM335.5 115q22.5 0 65.5 6l-24 -127q-51 -18 -130 -18t-119 47t-22 139l164 911h189l-162 -903q-6 -25 5 -40 t33.5 -15zM395 -434q-84 0 -143 24l41 152q25 -12 109 -12q175 0 208 184l205 1159h186l-215 -1210q-27 -150 -132 -223.5t-259 -73.5z" glyph-name="ij" horiz-adv-x="1114" unicode="ĳ"/><glyph d="M1165 0h-250l-426 643l-145 -131l-90 -512h-195l252 1434h195l-117 -672l721 672h260l-735 -662zM510 -422h-94l65 313h166z" glyph-name="Kcommaaccent" horiz-adv-x="1304" unicode="Ķ"/><glyph d="M887 -25q-72 0 -119 33t-92 117l-158 287l-182 -70l-62 -342h-188l238 1339q8 57 -50 58q-25 0 -51 -8l23 135q70 20 119 20q180 0 141 -196l-90 -476q150 227 372 228q133 0 202 -71t69 -175q0 -236 -371 -379l135 -237q39 -63 61.5 -89t61.5 -26t66 31l51 -113 q-57 -66 -176 -66zM866 813q0 49 -35.5 83t-97.5 34q-111 0 -215 -109.5t-151 -302.5l-5 -26l230 83q274 100 274 238zM418 -422h-94l65 313h166z" glyph-name="kcommaaccent" horiz-adv-x="1155" unicode="ķ"/><glyph d="M530 1567h-135l189 252h241zM971 174l-31 -174h-883l252 1434h195l-221 -1260h688z" glyph-name="Lacute" horiz-adv-x="1071" unicode="Ĺ"/><glyph d="M485 1673h-135l189 252h241zM358 1548q176 0 142 -188l-213 -1182q-12 -57 41 -57q25 0 49 8l-27 -137q-46 -14 -112 -14t-113 45t-31 137l215 1181q8 59 -51 60q-20 0 -51 -8l24 135q61 20 127 20z" glyph-name="lacute" horiz-adv-x="550" unicode="ĺ"/><glyph d="M971 174l-31 -174h-883l252 1434h195l-221 -1260h688zM440 -422h-94l66 313h166z" glyph-name="Lcommaaccent" horiz-adv-x="1071" unicode="Ļ"/><glyph d="M358 1548q176 0 142 -188l-213 -1182q-12 -57 41 -57q25 0 49 8l-27 -137q-46 -14 -112 -14t-113 45t-31 137l215 1181q8 59 -51 60q-20 0 -51 -8l24 135q61 20 127 20zM145 -422h-94l66 313h166z" glyph-name="lcommaaccent" horiz-adv-x="550" unicode="ļ"/><glyph d="M971 174l-31 -174h-883l252 1434h195l-221 -1260h688zM758 1120h-94l65 314h166z" glyph-name="Lcaron" horiz-adv-x="1071" unicode="Ľ"/><glyph d="M358 1548q176 0 142 -188l-213 -1182q-12 -57 41 -57q25 0 49 8l-27 -137q-46 -14 -112 -14t-113 45t-31 137l215 1181q8 59 -51 60q-20 0 -51 -8l24 135q61 20 127 20zM676 1227h-94l65 313h166z" glyph-name="lcaron" horiz-adv-x="673" unicode="ľ"/><glyph d="M971 174l-31 -174h-883l252 1434h195l-221 -1260h688zM775 911q58 0 96 -41.5t26 -111.5t-53.5 -102.5t-101.5 -32.5t-98 42.5t-24 112.5t55.5 101.5t99.5 31.5z" glyph-name="Ldot" horiz-adv-x="1071" unicode="Ŀ"/><glyph d="M358 1548q176 0 142 -188l-213 -1182q-12 -57 41 -57q25 0 49 8l-27 -137q-46 -14 -112 -14t-113 45t-31 137l215 1181q8 59 -51 60q-20 0 -51 -8l24 135q61 20 127 20zM642 940q58 0 96 -41t26 -112t-54 -103.5t-102 -32.5t-97.5 42t-24.5 113t55.5 102.5t100.5 31.5z " glyph-name="ldot" horiz-adv-x="667" unicode="ŀ"/><glyph d="M453 883l301 118l-29 -153l-299 -121l-98 -553h665l-28 -174h-861l111 637l-197 -80l27 156l197 80l114 641h193z" glyph-name="Lslash" horiz-adv-x="1193" unicode="Ł"/><glyph d="M342 121q25 0 49 8l-26 -137q-47 -14 -113 -14t-113 45t-30 137l112 616l-172 -65l29 147l170 66l76 417q8 59 -52 60q-20 0 -51 -8l25 135q61 20 127 20q176 0 141 -188l-65 -359l172 66l-29 -147l-168 -66l-123 -676q-12 -57 41 -57z" glyph-name="lslash" horiz-adv-x="604" unicode="ł"/><glyph d="M981 1567h-135l188 252h242zM1057 0l-615 1092l-190 -1092h-195l252 1434h168l608 -1094l193 1094h197l-252 -1434h-166z" glyph-name="Nacute" horiz-adv-x="1468" unicode="Ń"/><glyph d="M829 1208h-135l189 252h241zM836 1100q162 0 237.5 -86t46.5 -236l-116 -604q-12 -59 43 -59q16 0 49 4l-29 -119q-35 -18 -116 -18t-116.5 48t-19.5 138l111 569q18 94 -20 145.5t-126 51.5q-145 0 -265 -153.5t-165 -405.5l-67 -375h-185l162 889q14 78 -53 78 q-31 0 -45 -6l24 120q45 16 107 17q152 0 127 -180l-25 -125h6q166 307 435 307z" glyph-name="nacute" horiz-adv-x="1261" unicode="ń"/><glyph d="M1057 0l-615 1092l-190 -1092h-195l252 1434h168l608 -1094l193 1094h197l-252 -1434h-166zM657 -422h-94l66 313h166z" glyph-name="Ncommaaccent" horiz-adv-x="1468" unicode="Ņ"/><glyph d="M836 1100q162 0 237.5 -86t46.5 -236l-116 -604q-12 -59 43 -59q16 0 49 4l-29 -119q-35 -18 -116 -18t-116.5 48t-19.5 138l111 569q18 94 -20 145.5t-126 51.5q-145 0 -265 -153.5t-165 -405.5l-67 -375h-185l162 889q14 78 -53 78q-31 0 -45 -6l24 120q45 16 107 17 q152 0 127 -180l-25 -125h6q166 307 435 307zM483 -422h-94l66 313h166z" glyph-name="ncommaaccent" horiz-adv-x="1261" unicode="ņ"/><glyph d="M858 1585l-184 236h170l92 -119l139 119h164l-256 -236h-125zM1475 1434l-252 -1434h-166l-615 1092l-190 -1092h-195l252 1434h168l608 -1094l193 1094h197z" glyph-name="Ncaron" horiz-adv-x="1468" unicode="Ň"/><glyph d="M707 1227l-185 235h170l92 -119l140 119h163l-256 -235h-124zM1047 115q16 0 49 4l-29 -119q-35 -18 -116 -18t-116.5 48t-19.5 138l111 569q18 94 -20 145.5t-126 51.5q-145 0 -265 -153.5t-165 -405.5l-67 -375h-185l162 889q14 78 -53 78q-31 0 -45 -6l24 120 q45 16 107 17q152 0 127 -180l-25 -125h6q166 307 435 307q162 0 237.5 -86t46.5 -236l-116 -604q-12 -59 43 -59z" glyph-name="ncaron" horiz-adv-x="1261" unicode="ň"/><glyph d="M721 -436q-180 0 -254 26l39 170q82 -16 174 -16q150 0 234.5 60.5t119.5 236.5l-592 1051l-190 -1092h-195l252 1434h168l608 -1094l193 1094h197l-250 -1424q-50 -251 -187 -348.5t-317 -97.5z" glyph-name="Eng" horiz-adv-x="1468" unicode="Ŋ"/><glyph d="M844 1100q160 0 234.5 -86t47.5 -236l-161 -915q-29 -152 -134.5 -224.5t-259.5 -72.5q-86 0 -141 24l41 152q25 -12 107 -12t136 42t72 142l148 823q35 197 -146 197q-145 0 -265 -153.5t-165 -405.5l-67 -375h-185l158 877q14 78 -53 77q-18 0 -49 -6l31 133 q49 16 108 17q152 0 127 -180l-25 -125h7q166 307 434 307z" glyph-name="eng" horiz-adv-x="1216" unicode="ŋ"/><glyph d="M1264 1686h-539l18 112h541zM961 1462q268 0 422.5 -155.5t152.5 -440.5q-2 -225 -103.5 -429t-295 -335t-442.5 -131t-408.5 155t-159.5 445q0 166 58.5 325t163 285t264.5 203.5t348 77.5zM932 1276q-117 0 -257 -60t-240.5 -245.5t-100.5 -385.5t106.5 -313.5 t286.5 -113.5q143 0 262 66.5t228.5 229.5t109.5 410q0 199 -105.5 305.5t-289.5 106.5z" glyph-name="Omacron" horiz-adv-x="1599" unicode="Ō"/><glyph d="M1018 1321h-539l19 113h540zM698 1096q205 0 331 -123t126 -338q0 -266 -173 -462t-447 -196q-197 0 -324 127t-127 336q0 266 169 461t445 195zM676 934q-178 0 -289 -144.5t-111 -312.5t73 -253t204 -85q180 0 294 142.5t114 313.5t-74 255t-211 84z" glyph-name="omacron" horiz-adv-x="1222" unicode="ō"/><glyph d="M848 1655h-119l158 250h203zM1171 1655h-129l185 250h209zM961 1462q268 0 422.5 -155.5t152.5 -440.5q-2 -225 -103.5 -429t-295 -335t-442.5 -131t-408.5 155t-159.5 445q0 166 58.5 325t163 285t264.5 203.5t348 77.5zM932 1276q-117 0 -257 -60t-240.5 -245.5 t-100.5 -385.5t106.5 -313.5t286.5 -113.5q143 0 262 66.5t228.5 229.5t109.5 410q0 199 -105.5 305.5t-289.5 106.5z" glyph-name="Ohungarumlaut" horiz-adv-x="1599" unicode="Ő"/><glyph d="M602 1290h-119l158 250h203zM926 1290h-129l184 250h209zM698 1096q205 0 331 -123t126 -338q0 -266 -173 -462t-447 -196q-197 0 -324 127t-127 336q0 266 169 461t445 195zM676 934q-178 0 -289 -144.5t-111 -312.5t73 -253t204 -85q180 0 294 142.5t114 313.5t-74 255 t-211 84z" glyph-name="ohungarumlaut" horiz-adv-x="1222" unicode="ő"/><glyph d="M743 0q-328 0 -495.5 188.5t-108.5 532.5q61 344 295 528.5t565 184.5h820l-31 -170h-604l-80 -457h526l-28 -160h-527l-86 -477h606l-28 -170h-824zM950 1270q-238 0 -399.5 -148.5t-206.5 -401.5t63.5 -402.5t348.5 -149.5h37l194 1102h-37z" glyph-name="OE" horiz-adv-x="1814" unicode="Œ"/><glyph d="M78 399q0 276 167 489.5t408 213.5q262 0 316 -275q82 129 201.5 201t257.5 72t215 -63.5t77 -174.5q0 -184 -182 -291.5t-442 -107.5q-35 0 -101 4q-41 -330 240 -330q182 0 354 119l49 -135q-201 -143 -426 -144q-305 0 -362 263q-164 -262 -420 -263q-160 0 -256 115 t-96 307zM473 139q156 0 262.5 158t106.5 360q0 129 -54.5 203t-152.5 74q-158 0 -262.5 -159t-104.5 -359q0 -129 53.5 -203t151.5 -74zM1407 934q-131 0 -236.5 -89t-152.5 -245q33 -2 98 -2q182 0 306 61.5t124 167.5q0 49 -35.5 78t-103.5 29z" glyph-name="oe" horiz-adv-x="1763" unicode="œ"/><glyph d="M864 1567h-135l189 252h241zM803 1434q229 0 339.5 -97.5t110.5 -263.5t-91 -298t-288 -193l259 -582h-215l-234 543h-338l-94 -543h-195l252 1434h494zM657 713q104 0 183.5 32.5t141.5 110t62 188.5t-67.5 166.5t-222.5 55.5h-279l-98 -553h280z" glyph-name="Racute" horiz-adv-x="1312" unicode="Ŕ"/><glyph d="M629 1206h-135l188 252h242zM736 1100q88 0 128 -23l-37 -176q-51 18 -112 19q-125 0 -220.5 -131.5t-127.5 -319.5l-82 -469h-187l158 877q10 78 -51 77q-16 0 -47 -6l28 133q49 17 120 17t101.5 -39t14.5 -135l-12 -72h8q74 141 152 194.5t166 53.5z" glyph-name="racute" horiz-adv-x="827" unicode="ŕ"/><glyph d="M803 1434q229 0 339.5 -97.5t110.5 -263.5t-91 -298t-288 -193l259 -582h-215l-234 543h-338l-94 -543h-195l252 1434h494zM657 713q104 0 183.5 32.5t141.5 110t62 188.5t-67.5 166.5t-222.5 55.5h-279l-98 -553h280zM473 -422h-94l65 313h166z" glyph-name="Rcommaaccent" horiz-adv-x="1312" unicode="Ŗ"/><glyph d="M736 1100q88 0 128 -23l-37 -176q-51 18 -112 19q-125 0 -220.5 -131.5t-127.5 -319.5l-82 -469h-187l158 877q10 78 -51 77q-16 0 -47 -6l28 133q49 17 120 17t101.5 -39t14.5 -135l-12 -72h8q74 141 152 194.5t166 53.5zM129 -422h-94l65 313h166z" glyph-name="rcommaaccent" horiz-adv-x="827" unicode="ŗ"/><glyph d="M739 1585l-184 236h170l92 -119l139 119h164l-256 -236h-125zM803 1434q229 0 339.5 -97.5t110.5 -263.5t-91 -298t-288 -193l259 -582h-215l-234 543h-338l-94 -543h-195l252 1434h494zM657 713q104 0 183.5 32.5t141.5 110t62 188.5t-67.5 166.5t-222.5 55.5h-279 l-98 -553h280z" glyph-name="Rcaron" horiz-adv-x="1312" unicode="Ř"/><glyph d="M506 1225l-184 235h170l92 -119l139 119h164l-256 -235h-125zM736 1100q88 0 128 -23l-37 -176q-51 18 -112 19q-125 0 -220.5 -131.5t-127.5 -319.5l-82 -469h-187l158 877q10 78 -51 77q-16 0 -47 -6l28 133q49 17 120 17t101.5 -39t14.5 -135l-12 -72h8 q74 141 152 194.5t166 53.5z" glyph-name="rcaron" horiz-adv-x="827" unicode="ř"/><glyph d="M831 1567h-135l189 252h241zM862 412q0 43 -14 64.5t-23.5 33.5t-30 25.5t-42 27t-185.5 84.5t-261 152.5t-97 230.5q0 180 137 304t401 124t449 -135l-113 -154q-156 111 -327 111t-255.5 -63.5t-84.5 -161.5q0 -63 27.5 -92t44 -43.5t63.5 -39t199.5 -86t240.5 -152.5 t88 -206q0 -180 -151.5 -320.5t-434 -140t-470.5 133.5l94 161q183 -108 377 -108t281 75.5t87 174.5z" glyph-name="Sacute" horiz-adv-x="1193" unicode="Ś"/><glyph d="M682 1208h-135l188 252h242zM383 135q129 0 200.5 53.5t71.5 130.5q0 42 -23.5 63t-52 34.5t-49 20.5t-62.5 21.5t-67 22.5q-127 47 -187 104.5t-60 155.5q0 164 130 262.5t334 98.5t330 -111l-92 -135q-129 90 -274 90q-104 0 -172 -48t-68 -120q0 -85 79 -113t143 -49 q122 -40 204 -93.5t82 -170.5q0 -166 -134 -270.5t-354 -104.5t-346 113l86 150q49 -47 127 -76t154 -29z" glyph-name="sacute" horiz-adv-x="958" unicode="ś"/><glyph d="M756 1280q-171 0 -255.5 -63.5t-84.5 -161.5q0 -63 27.5 -92t44 -43.5t63.5 -39t199.5 -86t240.5 -152.5t88 -206q0 -164 -127 -298t-368 -158l-49 -64h24q59 0 93 -34t34 -87q0 -84 -72.5 -147.5t-210.5 -75.5l-18 92q164 27 164 111q0 45 -47 45q-23 0 -41 -10l-62 63 l76 102q-276 6 -452 134l94 161q183 -108 377 -108t281 75.5t87 174.5q0 43 -14 64.5t-23.5 33.5t-30 25.5t-42 27t-185.5 84.5t-261 152.5t-97 230.5q0 180 137.5 304t401.5 124t448 -135l-113 -154q-156 111 -327 111z" glyph-name="Scedilla" horiz-adv-x="1193" unicode="Ş"/><glyph d="M582 946q-104 0 -172 -48t-68 -120q0 -85 79 -113t143 -49q122 -40 204 -93.5t82 -185.5t-107.5 -232.5t-287.5 -120.5l-52 -68h25q59 0 93 -34t34 -87q0 -84 -72.5 -147.5t-210.5 -75.5l-18 92q164 27 164 111q0 45 -47 45q-23 0 -41 -10l-62 63l78 104q-98 2 -186 34 t-144 79l86 150q49 -47 127 -76t154 -29q129 0 200.5 53.5t71.5 130.5q0 42 -23.5 63t-52 34.5t-49 20.5t-62.5 21.5t-67 22.5q-127 47 -187 104.5t-60 155.5q0 164 130 262.5t334 98.5t330 -111l-92 -135q-129 90 -274 90z" glyph-name="scedilla" horiz-adv-x="958" unicode="ş"/><glyph d="M709 1585l-185 236h170l92 -119l140 119h164l-256 -236h-125zM756 1280q-171 0 -255.5 -63.5t-84.5 -161.5q0 -63 27.5 -92t44 -43.5t63.5 -39t199.5 -86t240.5 -152.5t88 -206q0 -180 -151.5 -320.5t-434 -140.5t-470.5 134l94 161q183 -108 377 -108t281 75.5t87 174.5 q0 43 -14 64.5t-23.5 33.5t-30 25.5t-42 27t-185.5 84.5t-261 152.5t-97 230.5q0 180 137.5 304t401.5 124t448 -135l-113 -154q-156 111 -327 111z" glyph-name="Scaron" horiz-adv-x="1193" unicode="Š"/><glyph d="M559 1227l-184 235h170l92 -119l139 119h164l-256 -235h-125zM582 946q-104 0 -172 -48t-68 -120q0 -85 79 -113t143 -49q122 -40 204 -93.5t82 -170.5q0 -166 -134 -270.5t-353 -104.5t-347 113l86 150q49 -47 127 -76t154 -29q129 0 200.5 53.5t71.5 130.5 q0 42 -23.5 63t-52 34.5t-49 20.5t-62.5 21.5t-67 22.5q-127 47 -187 104.5t-60 155.5q0 164 130 262.5t334 98.5t330 -111l-92 -135q-129 90 -274 90z" glyph-name="scaron" horiz-adv-x="958" unicode="š"/><glyph d="M565 -84q57 0 92 -34t35 -87q0 -84 -72.5 -147.5t-209.5 -75.5l-19 92q164 27 164 111q0 45 -47 45q-23 0 -41 -10l-61 63l94 127h-45l221 1264h-469l31 170h1132l-31 -170h-469l-221 -1264h-43l-65 -84h24z" glyph-name="Tcommaaccent" horiz-adv-x="1292" unicode="Ţ"/><glyph d="M360 -84q57 0 92 -34t35 -87q0 -84 -72.5 -147.5t-209.5 -75.5l-19 92q164 27 164 111q0 45 -47 45q-23 0 -41 -10l-61 63l82 111q-162 33 -127 225l125 704h-179l29 160h178l27 154l110 121h99l-47 -275h264l-29 -160h-264l-117 -671q-20 -100 68 -101q70 0 147 33 l25 -139q-102 -49 -209 -58l-47 -61h24z" glyph-name="tcommaaccent" horiz-adv-x="768" unicode="ţ"/><glyph d="M754 1585l-185 236h170l92 -119l140 119h164l-256 -236h-125zM1370 1434l-31 -170h-469l-221 -1264h-194l221 1264h-469l31 170h1132z" glyph-name="Tcaron" horiz-adv-x="1292" unicode="Ť"/><glyph d="M680 1147h-94l65 313h166zM762 1073l-29 -160h-264l-117 -671q-20 -100 68 -101q70 0 147 33l25 -139q-115 -57 -236 -58q-242 0 -200 232l125 704h-179l29 160h178l27 154l110 121h99l-47 -275h264z" glyph-name="tcaron" horiz-adv-x="768" unicode="ť"/><glyph d="M1102 1681h-539l19 113h540zM870 1264l-221 -1264h-194l221 1264h-469l31 170h1132l-31 -170h-469z" glyph-name="Tbar" horiz-adv-x="1292" unicode="Ŧ"/><glyph d="M469 913l-31 -172h203l-20 -112h-201l-68 -387q-20 -100 68 -101q70 0 147 33l25 -139q-115 -57 -236 -58q-242 0 -200 232l73 420h-147l18 112h150l31 172h-179l29 160h178l27 154l110 121h99l-47 -275h264l-29 -160h-264z" glyph-name="tbar" horiz-adv-x="768" unicode="ŧ"/><glyph d="M1169 1681h-538l18 113h541zM635 156q170 0 279.5 93t138.5 263l161 922h197l-162 -916q-51 -279 -229 -413t-414 -134t-369.5 127.5t-89.5 419.5l162 916h195l-162 -922q-31 -170 46 -263t247 -93z" glyph-name="Umacron" horiz-adv-x="1402" unicode="Ū"/><glyph d="M1014 1321h-539l19 113h540zM406 -25q-144 0 -224 96.5t-43 295.5l97 524q14 76 -56 76q-6 0 -43 -4l23 118q49 18 127 19q178 0 137 -207l-96 -528q-41 -221 161 -222q119 0 230.5 113t146.5 324l88 495h189l-164 -915q-8 -55 35 -56q55 0 65 2l-32 -112 q-31 -16 -117 -17q-145 0 -121 150l22 104h-10q-84 -137 -177.5 -196.5t-237.5 -59.5z" glyph-name="umacron" horiz-adv-x="1218" unicode="ū"/><glyph d="M948.5 1884q69.5 0 108.5 -40t25 -112t-65.5 -111.5t-121.5 -39.5t-108.5 40t-24.5 112q12 72 64.5 111.5t122 39.5zM934 1806q-33 0 -55.5 -20.5t-28.5 -53t10.5 -53t49 -20.5t55 20.5t28.5 52.5t-10 53t-49 21zM635 156q170 0 279.5 93t138.5 263l161 922h197 l-162 -916q-51 -279 -229 -413t-414 -134t-369.5 127.5t-89.5 419.5l162 916h195l-162 -922q-31 -170 46 -263t247 -93z" glyph-name="Uring" horiz-adv-x="1402" unicode="Ů"/><glyph d="M792.5 1524q69.5 0 108.5 -40t26 -112t-65.5 -111.5t-122 -39.5t-108.5 39.5t-25 111.5q12 72 64.5 112t122 40zM778 1446q-33 0 -55.5 -20.5t-28.5 -53.5t10.5 -53.5t49 -20.5t55.5 20.5t29 52.5t-10.5 53.5t-49.5 21.5zM406 -25q-144 0 -224 96.5t-43 295.5l97 524 q14 76 -56 76q-6 0 -43 -4l23 118q49 18 127 19q178 0 137 -207l-96 -528q-41 -221 161 -222q119 0 230.5 113t146.5 324l88 495h189l-164 -915q-8 -55 35 -56q55 0 65 2l-32 -112q-31 -16 -117 -17q-145 0 -121 150l22 104h-10q-84 -137 -177.5 -196.5t-237.5 -59.5z" glyph-name="uring" horiz-adv-x="1218" unicode="ů"/><glyph d="M754 1651h-119l158 250h202zM1077 1651h-129l185 250h208zM635 156q170 0 279.5 93t138.5 263l161 922h197l-162 -916q-51 -279 -229 -413t-414 -134t-369.5 127.5t-89.5 419.5l162 916h195l-162 -922q-31 -170 46 -263t247 -93z" glyph-name="Uhungarumlaut" horiz-adv-x="1402" unicode="Ű"/><glyph d="M598 1290h-119l158 250h203zM922 1290h-129l184 250h209zM406 -25q-144 0 -224 96.5t-43 295.5l97 524q14 76 -56 76q-6 0 -43 -4l23 118q49 18 127 19q178 0 137 -207l-96 -528q-41 -221 161 -222q119 0 230.5 113t146.5 324l88 495h189l-164 -915q-8 -55 35 -56 q55 0 65 2l-32 -112q-31 -16 -117 -17q-145 0 -121 150l22 104h-10q-84 -137 -177.5 -196.5t-237.5 -59.5z" glyph-name="uhungarumlaut" horiz-adv-x="1218" unicode="ű"/><glyph d="M557 -209q0 100 96 182l-51 -2q-232 0 -365.5 127.5t-89.5 419.5l162 916h195l-162 -922q-31 -170 46 -263t247 -93t279.5 93t138.5 263l161 922h197l-162 -916q-70 -375 -377 -498q-168 -106 -168 -188t93 -111l-58 -114q-182 37 -182 184z" glyph-name="Uogonek" horiz-adv-x="1402" unicode="Ų"/><glyph d="M406 -25q-144 0 -224 96.5t-43 295.5l97 524q14 76 -56 76q-6 0 -43 -4l23 118q49 18 127 19q178 0 137 -207l-96 -528q-41 -221 161 -222q119 0 230.5 113t146.5 324l88 495h189l-164 -915q-8 -55 35 -56q55 0 65 2l-32 -112q-31 -16 -111 -16t-111 38 q-153 -100 -153 -180t92 -108l-57 -115q-183 37 -183 189t232 259l57 -24q-12 35 -4 90l22 104h-10q-84 -137 -177.5 -196.5t-237.5 -59.5z" glyph-name="uogonek" horiz-adv-x="1218" unicode="ų"/><glyph d="M1092 1593h-177l279 242h109l178 -242h-168l-94 111zM2169 1434l-703 -1434h-166l-172 1143l-577 -1143h-162l-194 1434h188l147 -1135l572 1135h155l170 -1141l529 1141h213z" glyph-name="Wcircumflex" unicode="Ŵ"/><glyph d="M772 1231h-176l278 242h109l178 -242h-168l-94 110zM166 891q-11 76 -48 76q-17 0 -50 -4l24 118q47 18 117 19q100 0 127 -119q29 -131 94 -748l393 840h168l129 -827l422 827h199l-580 -1075h-164l-129 838l-397 -838h-166z" glyph-name="wcircumflex" horiz-adv-x="1691" unicode="ŵ"/><glyph d="M688 1593h-176l279 242h108l178 -242h-168l-94 111zM1389 1434l-648 -863l-100 -571h-203l101 573l-346 861h231l248 -676l489 676h228z" glyph-name="Ycircumflex" horiz-adv-x="1265" unicode="Ŷ"/><glyph d="M565 1231h-176l279 242h108l178 -242h-168l-94 110zM142 -434q-114 0 -189 35l41 141q61 -20 125 -21q133 0 237 211l52 103l-244 854q-14 47 -23 61.5t-27 14.5t-51 -4l25 118q56 19 114 19t87.5 -30t44.5 -89l198 -762l420 856h201l-635 -1208q-82 -156 -172 -227.5 t-204 -71.5z" glyph-name="ycircumflex" horiz-adv-x="1060" unicode="ŷ"/><glyph d="M668 1831q49 0 74.5 -28.5t15.5 -84.5q-18 -104 -121 -104q-49 0 -73.5 28.5t-14.5 83.5q19 105 119 105zM1024 1831q49 0 73.5 -28.5t14.5 -84.5q-18 -104 -117 -104q-51 0 -76.5 28.5t-15.5 83.5q19 105 121 105zM641 0h-203l101 573l-346 861h231l248 -676l489 676 h228l-648 -863z" glyph-name="Ydieresis" horiz-adv-x="1265" unicode="Ÿ"/><glyph d="M920 1567h-136l189 252h241zM305 174h854l-31 -174h-1095l24 145l1004 1121h-762l31 168h1007l-22 -136z" glyph-name="Zacute" horiz-adv-x="1339" unicode="Ź"/><glyph d="M707 1208h-136l189 252h241zM266 160h615l-27 -160h-844l23 135l715 772h-543l28 166h791l-27 -145z" glyph-name="zacute" horiz-adv-x="1038" unicode="ź"/><glyph d="M910 1831q48 0 77 -28.5t20 -84.5t-48 -86t-87 -30t-76 29.5t-18 85.5t47 85t85 29zM305 174h854l-31 -174h-1095l24 145l1004 1121h-762l31 168h1007l-22 -136z" glyph-name="Zdotaccent" horiz-adv-x="1339" unicode="Ż"/><glyph d="M697 1473q48 0 77 -29t20 -85t-48.5 -86t-87.5 -30t-75.5 30t-17.5 86t47 85t85 29zM266 160h615l-27 -160h-844l23 135l715 772h-543l28 166h791l-27 -145z" glyph-name="zdotaccent" horiz-adv-x="1038" unicode="ż"/><glyph d="M797 1585l-185 236h170l92 -119l140 119h164l-256 -236h-125zM1315 1298l-1010 -1124h854l-31 -174h-1095l24 145l1004 1121h-762l31 168h1007z" glyph-name="Zcaron" horiz-adv-x="1339" unicode="Ž"/><glyph d="M584 1227l-185 235h170l93 -119l139 119h164l-256 -235h-125zM997 928l-731 -768h615l-27 -160h-844l23 135l715 772h-543l28 166h791z" glyph-name="zcaron" horiz-adv-x="1038" unicode="ž"/><glyph d="M877 1563q96 0 163 -25l-61 -152q-53 14 -117 15q-154 0 -180 -144l-33 -182h271l-27 -155h-270l-150 -840q-27 -152 -127 -228.5t-250 -76.5q-102 0 -172 26l62 150q50 -17 116 -17t117 37t64 113l149 836h-164l27 155h164l33 182q27 154 128 230t257 76z" glyph-name="florin" horiz-adv-x="962" unicode="ƒ"/><glyph d="M862 412q0 43 -14 64.5t-23.5 33.5t-30 25.5t-42 27t-185.5 84.5t-261 152.5t-97 230.5q0 180 137 304t401 124t449 -135l-113 -154q-156 111 -327 111t-255.5 -63.5t-84.5 -161.5q0 -63 27.5 -92t44 -43.5t63.5 -39t199.5 -86t240.5 -152.5t88 -206 q0 -180 -151.5 -320.5t-434 -140t-470.5 133.5l94 161q183 -108 377 -108t281 75.5t87 174.5zM463 -422h-94l65 313h166z" glyph-name="Scommaaccent" horiz-adv-x="1193" unicode="Ș"/><glyph d="M383 135q129 0 200.5 53.5t71.5 130.5q0 42 -23.5 63t-52 34.5t-49 20.5t-62.5 21.5t-67 22.5q-127 47 -187 104.5t-60 155.5q0 164 130 262.5t334 98.5t330 -111l-92 -135q-129 90 -274 90q-104 0 -172 -48t-68 -120q0 -85 79 -113t143 -49q122 -40 204 -93.5t82 -170.5 q0 -166 -134 -270.5t-354 -104.5t-346 113l86 150q49 -47 127 -76t154 -29zM332 -422h-94l65 313h166z" glyph-name="scommaaccent" horiz-adv-x="958" unicode="ș"/><glyph d="M870 1264l-221 -1264h-194l221 1264h-469l31 170h1132l-31 -170h-469zM469 -422h-94l65 313h166z" glyph-name="uni021A" horiz-adv-x="1292" unicode="Ț"/><glyph d="M762 1073l-29 -160h-264l-117 -671q-20 -100 68 -101q70 0 147 33l25 -139q-115 -57 -236 -58q-242 0 -200 232l125 704h-179l29 160h178l27 154l110 121h99l-47 -275h264zM264 -422h-94l66 313h165z" glyph-name="uni021B" horiz-adv-x="768" unicode="ț"/><glyph d="M569 1229l-94 110l-127 -110h-176l279 241h108l178 -241h-168z" glyph-name="circumflex" horiz-adv-x="665" unicode="ˆ"/><glyph d="M778 1460l-256 -235h-125l-184 235h170l92 -119l139 119h164z" glyph-name="caron" horiz-adv-x="665" unicode="ˇ"/><glyph d="M434 1219q-104 0 -169.5 62t-57.5 179h112q0 -61 36 -94t102 -33q131 0 178 127h117q-37 -117 -125.5 -179t-192.5 -62z" glyph-name="breve" horiz-adv-x="632" unicode="˘"/><glyph d="M499 1470q48 0 76.5 -28.5t19.5 -84.5t-48 -86t-87 -30t-76 29.5t-18 85.5t47.5 85t85.5 29z" glyph-name="dotaccent" horiz-adv-x="665" unicode="˙"/><glyph d="M514 1524q70 0 109 -40t25 -112t-66 -111.5t-121.5 -39.5t-108.5 39.5t-24 111.5q12 72 64 112t122 40zM499.5 1446q-32.5 0 -55 -20.5t-28.5 -53.5t10 -53.5t49 -20.5t55.5 20.5t28.5 52.5t-10.5 53.5t-49 21.5z" glyph-name="ring" horiz-adv-x="663" unicode="˚"/><glyph d="M248 -188q0 -82 92 -111l-57 -115q-182 37 -182 190t231 259l84 -35q-168 -106 -168 -188z" glyph-name="ogonek" horiz-adv-x="716" unicode="˛"/><glyph d="M819 1243q-51 0 -116.5 38t-102.5 38q-72 0 -119 -86l-88 53q76 166 215 166q51 0 117 -38t94 -38q62 0 117 92l92 -51q-74 -174 -209 -174z" glyph-name="tilde" horiz-adv-x="1136" unicode="˜"/><glyph d="M406 1290h-119l157 250h203zM729 1290h-129l184 250h209z" glyph-name="hungarumlaut" horiz-adv-x="966" unicode="˝"/><glyph d="M199 -422h-95l66 313h166z" glyph-name="uni0326" horiz-adv-x="0" unicode="̦"/><glyph d="M455 143q172 0 323 197l129 733h189l-189 -1073h-135l-14 156q-164 -180 -340 -180.5t-236 83.5l-78 -448h-186l256 1462h188l-120 -682q-20 -121 42 -184.5t171 -63.5z" glyph-name="mu" horiz-adv-x="1085" unicode="μ"/><glyph d="M1305 1653h-136l-211 252h244zM1466 0h-166l-172 1143l-577 -1143h-162l-194 1434h188l147 -1135l572 1135h155l170 -1141l529 1141h213z" glyph-name="Wgrave" unicode="Ẁ"/><glyph d="M985 1290h-135l-211 252h244zM166 891q-11 76 -48 76q-17 0 -50 -4l24 118q47 18 117 19q100 0 127 -119q29 -131 94 -748l393 840h168l129 -827l422 827h199l-580 -1075h-164l-129 838l-397 -838h-166z" glyph-name="wgrave" horiz-adv-x="1691" unicode="ẁ"/><glyph d="M1270 1571h-135l188 252h242zM1466 0h-166l-172 1143l-577 -1143h-162l-194 1434h188l147 -1135l572 1135h155l170 -1141l529 1141h213z" glyph-name="Wacute" unicode="Ẃ"/><glyph d="M950 1208h-135l189 252h241zM166 891q-11 76 -48 76q-17 0 -50 -4l24 118q47 18 117 19q100 0 127 -119q29 -131 94 -748l393 840h168l129 -827l422 827h199l-580 -1075h-164l-129 838l-397 -838h-166z" glyph-name="wacute" horiz-adv-x="1691" unicode="ẃ"/><glyph d="M1071 1831q49 0 74.5 -28.5t15.5 -84.5q-18 -104 -121 -104q-49 0 -73.5 28.5t-14.5 83.5q19 105 119 105zM1427 1831q49 0 74 -28.5t15 -84.5q-18 -104 -117 -104q-51 0 -77 28.5t-15 83.5q18 105 120 105zM1466 0h-166l-172 1143l-577 -1143h-162l-194 1434h188 l147 -1135l572 1135h155l170 -1141l529 1141h213z" glyph-name="Wdieresis" unicode="Ẅ"/><glyph d="M752 1468q49 0 74.5 -28.5t15.5 -83.5q-18 -104 -121 -105q-49 0 -73.5 29t-14.5 84q19 104 119 104zM1108 1468q49 0 73.5 -28.5t14.5 -83.5q-18 -104 -117 -105q-51 0 -76.5 29t-15.5 84q19 104 121 104zM166 891q-11 76 -48 76q-17 0 -50 -4l24 118q47 18 117 19 q100 0 127 -119q29 -131 94 -748l393 840h168l129 -827l422 827h199l-580 -1075h-164l-129 838l-397 -838h-166z" glyph-name="wdieresis" horiz-adv-x="1691" unicode="ẅ"/><glyph d="M1202 428q0 -193 -148.5 -324t-361.5 -131q-156 0 -256 54l64 166q86 -45 206 -45t205.5 77t85.5 179t-89 165.5t-290 63.5l23 131l346 274q20 111 -41 177.5t-184 66.5t-216 -73.5t-120 -219.5l-174 -989h-197l181 1018q35 207 194.5 323.5t371.5 116.5t316.5 -121.5 t67.5 -332.5l-334 -261q154 -14 252 -94t98 -221z" glyph-name="uni1E9E" horiz-adv-x="1337" unicode="ẞ"/><glyph d="M901 1653h-135l-211 252h244zM641 0h-203l101 573l-346 861h231l248 -676l489 676h228l-648 -863z" glyph-name="Ygrave" horiz-adv-x="1265" unicode="Ỳ"/><glyph d="M778 1290h-135l-211 252h244zM142 -434q-114 0 -189 35l41 141q61 -20 125 -21q133 0 237 211l52 103l-244 854q-14 47 -23 61.5t-27 14.5t-51 -4l25 118q56 19 114 19t87.5 -30t44.5 -89l198 -762l420 856h201l-635 -1208q-82 -156 -172 -227.5t-204 -71.5z" glyph-name="ygrave" horiz-adv-x="1060" unicode="ỳ"/><glyph glyph-name="uni2009" horiz-adv-x="73" unicode=" "/><glyph d="M1059 451h-922l29 165h921z" glyph-name="endash" horiz-adv-x="1226" unicode="–"/><glyph d="M1700 451h-1571l29 165h1571z" glyph-name="emdash" horiz-adv-x="1857" unicode="—"/><glyph d="M442 1130q-24 -124 -156 -124q-62 0 -96 48t-20 128q28 163 229 286l72 -43q-92 -82 -121 -147q51 -10 76 -50t16 -98z" glyph-name="quoteleft" horiz-adv-x="466" unicode="‘"/><glyph d="M418 1464q62 0 96.5 -48t20.5 -128q-31 -168 -228 -287l-74 43q90 74 121 148q-51 10 -76.5 50t-15.5 98t52 91t104 33z" glyph-name="quoteright" horiz-adv-x="524" unicode="’"/><glyph d="M232 260q62 0 96 -49t20 -129q-28 -166 -227 -285l-74 41q94 82 125 152q-51 4 -77.5 45t-16.5 100.5t51 92t103 32.5z" glyph-name="quotesinglbase" horiz-adv-x="577" unicode="‚"/><glyph d="M356 989q-62 0 -94.5 43t-23.5 115q18 184 241 315l66 -32q-98 -82 -129 -166q49 -6 77.5 -41t21.5 -95t-52 -99.5t-107 -39.5zM700 989q-62 0 -94.5 43t-23.5 115q18 184 241 315l66 -32q-94 -80 -127 -162q47 -6 75.5 -43t21.5 -97t-52 -99.5t-107 -39.5z" glyph-name="quotedblleft" horiz-adv-x="813" unicode="“"/><glyph d="M352.5 1460q61.5 0 94 -43t26.5 -114q-23 -185 -242 -316l-65 33q94 80 127 162q-47 6 -77 43t-22 97t52.5 99t106 39zM696.5 1460q61.5 0 94 -43t26.5 -114q-23 -185 -242 -316l-65 33q98 82 129 166q-47 4 -78 39t-23 96t52.5 100t106 39z" glyph-name="quotedblright" horiz-adv-x="813" unicode="”"/><glyph d="M232 260q62 0 96 -49t20 -129q-28 -166 -225 -285l-76 41q90 78 119 146q-49 12 -73.5 54t-14.5 99t51 90t103 33zM578 260q62 0 96.5 -49t19.5 -129q-28 -164 -227 -285l-74 41q88 72 121 150q-51 10 -75.5 50t-14.5 98t51 91t103 33z" glyph-name="quotedblbase" horiz-adv-x="925" unicode="„"/><glyph d="M856 920h-268l-164 -920h-176l164 920h-271l25 155h272l64 359h176l-64 -359h269z" glyph-name="dagger" horiz-adv-x="860" unicode="†"/><glyph d="M621 938l-39 -231h249l-26 -158h-252l-96 -549h-178l96 549h-252l29 158h251l39 231h-249l26 158h252l59 340h179l-60 -340h252l-29 -158h-251z" glyph-name="daggerdbl" horiz-adv-x="921" unicode="‡"/><glyph d="M434 764q66 0 110 -47t30 -127t-65.5 -119t-118.5 -39t-109.5 47t-28.5 127t65 119t117 39z" glyph-name="bullet" horiz-adv-x="595" unicode="•"/><glyph d="M372 256q60 0 96 -41t25 -109t-52 -101.5t-103 -33.5t-97.5 41.5t-23.5 109.5t53.5 101t101.5 33zM940 256q60 0 95.5 -41t23.5 -109t-53 -101.5t-102 -33.5t-96.5 41.5t-24.5 109.5t54 101t103 33zM1506 256q60 0 96 -41t24 -109t-53 -101.5t-103 -33.5t-97 41.5 t-23 109.5t54 101t102 33z" glyph-name="ellipsis" horiz-adv-x="1804" unicode="…"/><glyph d="M532 1458q117 0 189 -71.5t72 -196.5q0 -180 -109 -287.5t-268 -107.5q-117 0 -190.5 71.5t-73.5 196.5q0 180 111 287.5t269 107.5zM260 0h-141l1220 1434h142zM510 1337q-90 0 -148.5 -70.5t-58.5 -193.5q0 -76 34 -117t97 -41q98 0 152.5 71t54.5 198q0 153 -131 153z M1182 643q117 0 188.5 -71.5t71.5 -198.5q0 -180 -109.5 -288t-267.5 -108q-119 0 -191.5 71t-72.5 198q0 182 111.5 289.5t269.5 107.5zM1909 643q117 0 189.5 -71.5t72.5 -198.5q0 -180 -110.5 -288t-268.5 -108q-119 0 -191.5 71t-72.5 198q0 182 111.5 289.5 t269.5 107.5zM1159 522q-92 0 -150.5 -71.5t-58.5 -196.5q0 -74 35 -115t98 -41q96 0 151.5 72t55.5 199q0 153 -131 153zM1886 522q-92 0 -149.5 -71.5t-57.5 -196.5q0 -74 34 -115t97 -41q96 0 151.5 72t55.5 199q0 153 -131 153z" glyph-name="perthousand" horiz-adv-x="2287" unicode="‰"/><glyph d="M528 819l-299 -297l193 -297l-113 -84l-256 379l375 383z" glyph-name="guilsinglleft" horiz-adv-x="606" unicode="‹"/><glyph d="M549 518l-383 -381l-92 90l299 295l-193 295l115 86z" glyph-name="guilsinglright" horiz-adv-x="608" unicode="›"/><glyph d="M737 1544l-905 -1802h-125l907 1802h123z" glyph-name="fraction" horiz-adv-x="432" unicode="⁄"/><glyph d="M1046 1280q-174 0 -301 -89t-194 -251h729l-55 -133h-715q-16 -78 -21 -182h674l-55 -133h-612q23 -160 110.5 -248t214.5 -88q203 0 400 131l79 -133q-236 -178 -522 -179q-209 0 -346 131.5t-151 385.5h-189l25 133h164q6 109 22 182h-156l25 133h168q88 252 282.5 385 t455.5 133t417 -155l-133 -138q-142 115 -316 115z" glyph-name="Euro" horiz-adv-x="1468" unicode="€"/><glyph d="M748 1292h-234v-641h-154v641h-231v142h619v-142zM1669 651h-156v465l-235 -397h-53l-226 395v-463h-151v783h125l284 -498l304 498h108v-783z" glyph-name="trademark" horiz-adv-x="1781" unicode="™"/><glyph d="M668 -258h-125l907 1802h123zM760 743l-23 -135h-506l25 135h174l90 510l-172 -67l-33 117l283 124h109l-121 -684h174zM1582 -31q-144 0 -224 73t-62 179q29 150 189 209q-109 53 -86 178q16 98 111.5 160.5t226.5 62.5t203.5 -62.5t54.5 -160.5q-20 -125 -154 -178 q141 -59 115 -209q-16 -106 -123 -179t-251 -73zM1714 702q-62 0 -109 -28.5t-55 -80.5t27 -79t98 -27q144 0 164 109q8 47 -27.5 76.5t-97.5 29.5zM1655 369q-76 0 -129 -37t-63.5 -96.5t27.5 -96.5t118 -37t128 36.5t59 96.5t-26.5 97t-113.5 37z" glyph-name="oneeighth" horiz-adv-x="2099" unicode="⅛"/><glyph d="M668 -258h-125l907 1802h123zM552 1446q152 0 220 -57.5t55 -145.5q-6 -63 -56 -117.5t-130 -76.5q172 -37 152 -193q-14 -119 -122.5 -195.5t-270.5 -76.5t-277 92l84 123q101 -74 203 -74q193 0 217 131q10 61 -28 89t-134 28h-92l22 125h76q78 0 127 29.5t56 78.5 t-23.5 76t-118.5 27t-203 -80l-53 106q144 111 296 111zM1582 -31q-144 0 -224 73t-62 179q29 150 189 209q-109 53 -86 178q16 98 111.5 160.5t226.5 62.5t203.5 -62.5t54.5 -160.5q-20 -125 -154 -178q141 -59 115 -209q-16 -106 -123 -179t-251 -73zM1714 702 q-62 0 -109 -28.5t-55 -80.5t27 -79t98 -27q144 0 164 109q8 47 -27.5 76.5t-97.5 29.5zM1655 369q-76 0 -129 -37t-63.5 -96.5t27.5 -96.5t118 -37t128 36.5t59 96.5t-26.5 97t-113.5 37z" glyph-name="threeeighths" horiz-adv-x="2099" unicode="⅜"/><glyph d="M668 -258h-125l907 1802h123zM562 1135q104 0 170.5 -72t44.5 -196t-131 -203.5t-261 -79.5t-250 80l76 114q91 -57 185 -57t148 42t66 108t-24.5 103.5t-117.5 37.5t-146 -56l-97 43l74 420h516l-22 -139h-365l-33 -182q63 37 167 37zM1582 -31q-144 0 -224 73t-62 179 q29 150 189 209q-109 53 -86 178q16 98 111.5 160.5t226.5 62.5t203.5 -62.5t54.5 -160.5q-20 -125 -154 -178q141 -59 115 -209q-16 -106 -123 -179t-251 -73zM1714 702q-62 0 -109 -28.5t-55 -80.5t27 -79t98 -27q144 0 164 109q8 47 -27.5 76.5t-97.5 29.5zM1655 369 q-76 0 -129 -37t-63.5 -96.5t27.5 -96.5t118 -37t128 36.5t59 96.5t-26.5 97t-113.5 37z" glyph-name="fiveeighths" horiz-adv-x="2099" unicode="⅝"/><glyph d="M668 -258h-125l907 1802h123zM395 608h-168l443 668h-424l24 143h607l-23 -123zM1582 -31q-144 0 -224 73t-62 179q29 150 189 209q-109 53 -86 178q16 98 111.5 160.5t226.5 62.5t203.5 -62.5t54.5 -160.5q-20 -125 -154 -178q141 -59 115 -209q-16 -106 -123 -179 t-251 -73zM1714 702q-62 0 -109 -28.5t-55 -80.5t27 -79t98 -27q144 0 164 109q8 47 -27.5 76.5t-97.5 29.5zM1655 369q-76 0 -129 -37t-63.5 -96.5t27.5 -96.5t118 -37t128 36.5t59 96.5t-26.5 97t-113.5 37z" glyph-name="seveneighths" horiz-adv-x="2099" unicode="⅞"/><glyph d="M1167 502h-960l24 135h961z" glyph-name="minus" horiz-adv-x="1388" unicode="−"/><glyph d="M791 721l-148 -277h455l-23 -129h-502l-151 -280h-143l151 280h-299l25 129h344l147 277h-444l22 133h494l151 281h144l-152 -281h307l-22 -133h-356z" glyph-name="notequal" horiz-adv-x="1398" unicode="≠"/><glyph d="M1024 608q180 0 317.5 -103.5t169.5 -258.5h-96q-47 100 -152.5 163.5t-238.5 63.5t-238.5 -63.5t-152.5 -163.5h-96q33 156 170 259t317 103z" glyph-name="uni2322" unicode="⌢"/><glyph d="M1024 199q-180 0 -317.5 103.5t-169.5 258.5h96q47 -104 152.5 -170.5t238.5 -66.5t238.5 66.5t152.5 170.5h96q-33 -156 -170 -259t-317 -103z" glyph-name="uni2323" unicode="⌣"/><glyph d="M1023 1458q329 0 561.5 -233t232.5 -561t-232.5 -561.5t-560.5 -233.5t-560.5 232.5t-232.5 562t231.5 562t560.5 232.5zM843 1077q-93 1 -93 -197t93 -198t93 198t-93 197zM1205 1077q-93 1 -93 -197t93 -198t93 198t-93 197zM733 219q0 106 85 181t206 75t206 -74.5 t85 -181.5h110q0 156 -117.5 267.5t-283.5 111.5t-283.5 -111.5t-117.5 -267.5h110z" glyph-name="uni2639" unicode="☹"/><glyph d="M1023 1458q329 0 561.5 -233t232.5 -561t-232.5 -561.5t-560.5 -233.5t-560.5 232.5t-232.5 562t231.5 562t560.5 232.5zM843 1036q-93 0 -93 -198t93 -197q93 -1 93 197t-93 198zM1205 1036q-93 0 -93 -198t93 -197q93 -1 93 197t-93 198zM1024 324q-133 0 -238.5 66.5 t-152.5 170.5h-96q33 -156 170 -259t317 -103t317.5 103.5t169.5 258.5h-96q-47 -104 -152.5 -170.5t-238.5 -66.5z" glyph-name="smileface" unicode="☺"/><glyph d="M936 0h-881l33 174h350l189 1040l-348 -155l-52 149l486 232h151l-229 -1266h332z" glyph-name="uniF6DC" horiz-adv-x="1105" unicode=""/><glyph d="M1139 524h-1028l30 166h1026z" glyph-name="uniF6DE" horiz-adv-x="1255" unicode=""/><glyph d="M1023 1458q329 0 561.5 -233t232.5 -561t-232.5 -561.5t-560.5 -233.5t-560.5 232.5t-232.5 562t231.5 562t560.5 232.5zM843 1036q-93 0 -93 -198t93 -197q93 -1 93 197t-93 198zM1205 1036q-93 0 -93 -198t93 -197q93 -1 93 197t-93 198zM1026 510q-348 0 -551 172 q2 -250 149.5 -405.5t399.5 -155.5t399.5 156.5t149.5 406.5q-199 -174 -547 -174zM760 352q-131 59 -176 174q88 -49 176 -73v-101zM1290 453q88 25 176 73q-45 -115 -176 -174v101zM1225 328q-72 -20 -166 -27v115q86 4 166 20v-108zM825 434q86 -16 166 -18v-115 q-92 6 -166 27v106z" glyph-name="u1F600" unicode="😀"/><glyph d="M1023 1458q329 0 561.5 -233t232.5 -561t-232.5 -561.5t-560.5 -233.5t-560.5 232.5t-232.5 562t231.5 562t560.5 232.5zM800 973q56 0 68 -203h95q-4 143 -48.5 221t-114.5 78t-114.5 -78t-48.5 -221h94q13 203 69 203zM1248 973q56 0 69 -203h94q-4 143 -48 221 t-114 78t-114.5 -78t-49.5 -221h95q12 203 68 203zM1026 510q-348 0 -551 172q2 -250 149.5 -405.5t399.5 -155.5t399.5 156.5t149.5 406.5q-199 -174 -547 -174zM760 352q-131 59 -176 174q88 -49 176 -73v-101zM1290 453q88 25 176 73q-45 -115 -176 -174v101zM1225 328 q-72 -20 -166 -27v115q86 4 166 20v-108zM825 434q86 -16 166 -18v-115q-92 6 -166 27v106z" glyph-name="u1F601" unicode="😁"/><glyph d="M1023 -131q-257 0 -462 149.5t-287 387.5q-4 -16 -14 -81t-43 -100t-88 -33.5t-94 40t-40 94t36 88.5q29 31 113.5 46t107.5 23q-20 82 -21 181q0 330 231.5 562t560.5 232t561.5 -232.5t232.5 -561.5q0 -98 -21 -181q23 -8 107.5 -23t117.5 -47t32 -87.5t-40 -94 t-94 -40t-88 33.5t-43 99.5t-14 81.5q-82 -236 -288 -386.5t-463 -150.5zM832 1051q-66 0 -107 -74t-45 -211h84q12 188 66 188t67 -188h86q-6 137 -45.5 211t-105.5 74zM1215 1051q-67 0 -105.5 -74t-44.5 -211h86q13 188 67 188t66 -188h84q-4 137 -45 211t-108 74z M297 626q0 -54 36 -90t82 -41.5t81 15.5q53 -170 191 -269.5t337 -99.5t337 99.5t191 269.5q35 -20 81 -15t82 42t36 90t-34 88t-132 50t-145 50l-10 -8q35 -45 53 -162q-183 -109 -455 -107t-463 107q18 117 53 162l-8 8q-47 -35 -146 -50t-133 -50t-34 -89zM385 584 q-20 20 -19 45t18 43t65.5 28.5t72.5 18.5q-8 -23 -18 -71t-28 -65t-43 -18t-48 19zM1526 719q27 -10 74 -18.5t64 -26.5t18.5 -44t-20.5 -46t-47.5 -20t-42.5 18t-27.5 66t-18.5 71zM756 479v-100q-137 63 -181 176q89 -47 181 -76zM1294 379v100q98 31 181 76 q-46 -115 -181 -176zM823 354v109q86 -18 168 -19v-116q-94 3 -168 26zM1059 328v116q98 4 168 19v-109q-74 -22 -168 -26zM176 281q16 16 24.5 63t18.5 74q-23 -8 -71 -18.5t-65 -27.5t-18.5 -44t19.5 -47q43 -45 92 0zM1964 281q20 20 20 46.5t-16 42.5t-35.5 21.5 t-49.5 11t-54 15.5q10 -27 18 -74t25 -63q49 -45 92 0z" glyph-name="u1F602" horiz-adv-x="2045" unicode="😂"/><glyph d="M1023 1458q329 0 561.5 -233t232.5 -561t-232.5 -561.5t-560.5 -233.5t-560.5 232.5t-232.5 562t231.5 562t560.5 232.5zM843 1098q-93 0 -93 -198t93 -198t93 198t-93 198zM1205 1098q-93 0 -93 -198t93 -198t93 198t-93 198zM1027 502q-325 0 -511 160 q2 -231 138.5 -376t369.5 -145t370.5 146t137.5 377q-180 -162 -505 -162zM1025 240q-146 0 -258 71.5t-151 206.5q178 -102 409 -102t409 102q-39 -135 -151 -206.5t-258 -71.5z" glyph-name="u1F603" unicode="😃"/><glyph d="M1023 1458q329 0 561.5 -233t232.5 -561t-232.5 -561.5t-560.5 -233.5t-560.5 232.5t-232.5 562t231.5 562t560.5 232.5zM800 973q56 0 68 -203h95q-4 143 -48.5 221t-114.5 78t-114.5 -78t-48.5 -221h94q13 203 69 203zM1248 973q56 0 69 -203h94q-4 143 -48 221 t-114 78t-114.5 -78t-49.5 -221h95q12 203 68 203zM1027 502q-325 0 -511 160q2 -231 138.5 -376t369.5 -145t370.5 146t137.5 377q-180 -162 -505 -162zM1025 240q-146 0 -258 71.5t-151 206.5q178 -102 409 -102t409 102q-39 -135 -151 -206.5t-258 -71.5z" glyph-name="u1F604" unicode="😄"/><glyph d="M1023 1458q329 0 561.5 -233t232.5 -561t-232.5 -561.5t-560.5 -233.5t-560.5 232.5t-232.5 562t231.5 562t560.5 232.5zM800 973q56 0 68 -203h95q-4 143 -48.5 221t-114.5 78t-114.5 -78t-48.5 -221h94q13 203 69 203zM1248 973q56 0 69 -203h94q-4 143 -48 221 t-114 78t-114.5 -78t-49.5 -221h95q12 203 68 203zM1464 827q0 -41 33 -72.5t80 -31.5t80 31.5t33 72.5t-49.5 110t-57.5 120h-12q-8 -51 -57.5 -120t-49.5 -110zM1632 836q0 -20 -15 -37t-40 -17t-40 17t-15 37t22.5 53.5t32.5 56.5q10 -23 32.5 -56.5t22.5 -53.5z M1027 502q-325 0 -511 160q2 -231 138.5 -376t369.5 -145t370.5 146t137.5 377q-180 -162 -505 -162zM1025 240q-146 0 -258 71.5t-151 206.5q178 -102 409 -102t409 102q-39 -135 -151 -206.5t-258 -71.5z" glyph-name="u1F605" unicode="😅"/><glyph d="M1023 1458q329 0 561.5 -233t232.5 -561t-232.5 -561.5t-560.5 -233.5t-560.5 232.5t-232.5 562t231.5 562t560.5 232.5zM958 934l-249 149l-41 -108l166 -64v-8l-166 -80l41 -108l249 166v53zM1380 975l-41 108l-249 -149v-53l249 -166l41 108l-166 80v8zM1024 176 q233 0 370.5 145.5t137.5 376.5q-180 -162 -505 -162t-511 160q2 -231 138.5 -375.5t369.5 -144.5zM1025 274q-146 0 -258 72t-151 207q178 -102 409 -102t409 102q-39 -135 -151 -207t-258 -72z" glyph-name="u1F606" unicode="😆"/><glyph d="M1817 664q0 -328 -232.5 -561.5t-560.5 -233.5t-560.5 232.5t-232.5 562.5q0 178 73 334.5t202 267.5q-172 98 -172 220t200.5 217t488.5 95t489.5 -95t201.5 -218t-172 -219q129 -111 202 -267.5t73 -334.5zM457 1487q0 -37 41 -75t116 -66q190 112 410 112t410 -115 q158 63 157 142q0 88 -163.5 152.5t-403.5 64.5t-403.5 -63.5t-163.5 -151.5zM750 838q0 -198 93 -197q93 0 93 198t-92 197q-94 0 -94 -198zM1112 838q0 -198 93 -197q93 0 93 198t-94 197q-92 0 -92 -198zM1024 199q180 0 317.5 103.5t169.5 258.5h-96 q-47 -104 -152.5 -170.5t-238.5 -66.5t-238.5 66.5t-152.5 170.5h-96q33 -156 170 -259t317 -103z" glyph-name="u1F607" unicode="😇"/><glyph d="M1024 -131q-328 0 -560.5 232.5t-232.5 556.5t220 554v414l299 -217q129 49 274 49t274 -49l299 217v-414q219 -232 219 -554t-232 -555.5t-560 -233.5zM760 817q0 -193 90 -192.5t90 192.5v156l-360 114l-23 -88l203 -65v-117zM1108 817q0 -193 90 -192.5t90 192.5v117 l203 65l-23 88l-360 -114v-156zM1024 199q180 0 317.5 103.5t169.5 258.5h-96q-47 -104 -152.5 -170.5t-238.5 -66.5t-238.5 66.5t-152.5 170.5h-96q33 -156 170 -259t317 -103z" glyph-name="u1F608" unicode="😈"/><glyph d="M1023 1458q329 0 561.5 -233t232.5 -561t-232.5 -561.5t-560.5 -233.5t-560.5 232.5t-232.5 562t231.5 562t560.5 232.5zM844 1076q-92 0 -92 -196t92 -196t92 196t-92 196zM1372 950l-41 101l-215 -136v-79l215 -154l41 98l-141 94zM1024 324q-133 0 -238.5 66.5 t-152.5 170.5h-96q33 -156 170 -259t317 -103t317.5 103.5t169.5 258.5h-96q-47 -104 -152.5 -170.5t-238.5 -66.5z" glyph-name="u1F609" unicode="😉"/><glyph d="M1023 1458q329 0 561.5 -233t232.5 -561t-232.5 -561.5t-560.5 -233.5t-560.5 232.5t-232.5 562t231.5 562t560.5 232.5zM800 973q56 0 68 -203h95q-4 143 -48.5 221t-114.5 78t-114.5 -78t-48.5 -221h94q13 203 69 203zM1248 973q56 0 69 -203h94q-4 143 -48 221 t-114 78t-114.5 -78t-49.5 -221h95q12 203 68 203zM1024 350q-133 0 -238.5 66.5t-152.5 171.5h-96q33 -156 170 -259.5t317 -103.5t317.5 103.5t169.5 259.5h-96q-47 -104 -152.5 -171t-238.5 -67z" glyph-name="u1F60A" unicode="😊"/><glyph d="M1023 1458q329 0 561.5 -233t232.5 -561t-232.5 -561.5t-560.5 -233.5t-560.5 232.5t-232.5 562t231.5 562t560.5 232.5zM800 973q56 0 68 -203h95q-4 143 -48.5 221t-114.5 78t-114.5 -78t-48.5 -221h94q13 203 69 203zM1248 973q56 0 69 -203h94q-4 143 -48 221 t-114 78t-114.5 -78t-49.5 -221h95q12 203 68 203zM1024 412q-113 0 -200 56t-113 142h-105q29 -131 145.5 -216t272.5 -85q47 0 86 8q129 -193 250 -123t18 281q49 66 64 135h-105q-27 -86 -113.5 -142t-199.5 -56zM1321 264q-51 -37 -131 74q68 25 131 76q31 -76 30 -105 t-30 -45z" glyph-name="u1F60B" unicode="😋"/><glyph d="M1023 1458q329 0 561.5 -233t232.5 -561t-232.5 -561.5t-560.5 -233.5t-560.5 232.5t-232.5 562t231.5 562t560.5 232.5zM800 784q-56 0 -69 203h-94q4 -143 48 -221t114 -78t114.5 78t49.5 221h-95q-12 -203 -68 -203zM1248 784q-56 0 -68 203h-95q4 -143 48.5 -221 t114.5 -78t114.5 78t48.5 221h-94q-13 -203 -69 -203zM1024 324q-133 0 -238.5 66.5t-152.5 170.5h-96q33 -156 170 -259t317 -103t317.5 103.5t169.5 258.5h-96q-47 -104 -152.5 -170.5t-238.5 -66.5z" glyph-name="u1F60C" unicode="😌"/><glyph d="M1023 1458q329 0 561.5 -233t232.5 -561t-232.5 -561.5t-560.5 -233.5t-560.5 232.5t-232.5 562t231.5 562t560.5 232.5zM694 659h105q61 0 88.5 24t46.5 77l59 162h64l57 -162q20 -53 48 -77t87 -24h105q76 0 111.5 33t58.5 105l39 125h123l-54 108h-1229l-53 -108h137 l37 -125q23 -72 58.5 -105t111.5 -33zM1024 324q-133 0 -238.5 66.5t-152.5 170.5h-96q33 -156 170 -259t317 -103t317.5 103.5t169.5 258.5h-96q-47 -104 -152.5 -170.5t-238.5 -66.5z" glyph-name="u1F60E" unicode="😎"/><glyph d="M1023 1458q329 0 561.5 -233t232.5 -561t-232.5 -561.5t-560.5 -233.5t-560.5 232.5t-232.5 562t231.5 562t560.5 232.5zM934 735v123h-328v-123h328zM1440 735v123h-328v-123h328zM1024 340v-121q188 0 332.5 121t179.5 303h-123q-33 -131 -141.5 -217t-247.5 -86z" glyph-name="u1F60F" unicode="😏"/><glyph d="M1023 1458q329 0 561.5 -233t232.5 -561t-232.5 -561.5t-560.5 -233.5t-560.5 232.5t-232.5 562t231.5 562t560.5 232.5zM843 1036q-93 0 -93 -198t93 -197q93 -1 93 197t-93 198zM1205 1036q-93 0 -93 -198t93 -197q93 -1 93 197t-93 198zM1432 358v123h-816v-123h816z " glyph-name="u1F610" unicode="😐"/><glyph d="M1023 1458q329 0 561.5 -233t232.5 -561t-232.5 -561.5t-560.5 -233.5t-560.5 232.5t-232.5 562t231.5 562t560.5 232.5zM934 735v123h-328v-123h328zM1440 735v123h-328v-123h328zM1432 358v123h-816v-123h816z" glyph-name="u1F611" unicode="😑"/><glyph d="M1023 1458q329 0 561.5 -233t232.5 -561t-232.5 -561.5t-560.5 -233.5t-560.5 232.5t-232.5 562t231.5 562t560.5 232.5zM946 985h-414v-94h228q0 -199 93 -199t93 199v94zM1475 985h-414v-94h227q0 -199 93 -199t94 199v94zM1432 358v123h-816v-123h816z" glyph-name="u1F612" unicode="😒"/><glyph d="M1023 1458q329 0 561.5 -233t232.5 -561t-232.5 -561.5t-560.5 -233.5t-560.5 232.5t-232.5 562t231.5 562t560.5 232.5zM758 872q0 -195 90 -194.5t90 194.5v246l-385 -190l22 -88l183 90v-58zM1110 872q0 -195 90 -194.5t90 194.5v58l183 -90l22 88l-385 190v-246z M1395 572q0 -52 41 -92t100 -40t100 40t41 91t-62.5 137.5t-70.5 149.5h-16q-8 -63 -70.5 -148.5t-62.5 -137.5zM1606 582q0 -26 -19.5 -47t-50.5 -21t-50.5 20.5t-19.5 47.5t30 68.5t40 68.5q10 -27 40 -69t30 -68zM1432 248v123h-816v-123h816z" glyph-name="u1F613" unicode="😓"/><glyph d="M1023 1458q329 0 561.5 -233t232.5 -561t-232.5 -561.5t-560.5 -233.5t-560.5 232.5t-232.5 562t231.5 562t560.5 232.5zM800 1008q-70 0 -114.5 -78t-48.5 -221h94q12 203 68 202q57 0 69 -202h95q-4 143 -48.5 221t-114.5 78zM1249 1008q-70 0 -114.5 -78t-49.5 -221 h95q12 203 69 202q55 0 68 -202h94q-4 143 -48 221t-114 78zM1432 317v123h-816v-123h816z" glyph-name="u1F614" unicode="😔"/><glyph d="M1023 1458q329 0 561.5 -233t232.5 -561t-232.5 -561.5t-560.5 -233.5t-560.5 232.5t-232.5 562t231.5 562t560.5 232.5zM837 1016q-81 0 -81 -174t81 -174t81 174t-81 174zM1292 911h-196v-73q0 -125 98 -125t98 125v73zM791 186q248 264 700 254l-47 129 q-451 8 -701 -256z" glyph-name="u1F615" unicode="😕"/><glyph d="M1023 1458q329 0 561.5 -233t232.5 -561t-232.5 -561.5t-560.5 -233.5t-560.5 232.5t-232.5 562t231.5 562t560.5 232.5zM985 930l-45 127l-362 -131l45 -127zM1477 926l-363 131l-47 -127l363 -131zM705 496q66 0 102.5 -49.5t76.5 -99.5t140 -50q66 0 113 30.5 t68.5 68.5t57 69t80.5 31q129 0 181 -150l98 27q-74 258 -272 260q-102 4 -142.5 -42t-62 -74t-51 -48t-70.5 -20t-70.5 18t-51 44t-61 72t-143.5 50q-199 0 -272 -260l98 -27q51 150 181 150z" glyph-name="u1F616" unicode="😖"/><glyph d="M1023 1458q329 0 561.5 -233t232.5 -561t-232.5 -561.5t-560.5 -233.5t-560.5 232.5t-232.5 562t231.5 562t560.5 232.5zM843 1036q-93 0 -93 -198t93 -197q93 -1 93 197t-93 198zM1205 1036q-93 0 -93 -198t93 -197q93 -1 93 197t-93 198zM1430 451v102h-812v-102h173 q18 -356 233 -361q213 0 233 361h173zM1024 193q-59 0 -90 58t-41 200h262q-12 -141 -42 -199.5t-89 -58.5z" glyph-name="u1F61B" unicode="😛"/><glyph d="M1023 1458q329 0 561.5 -233t232.5 -561t-232.5 -561.5t-560.5 -233.5t-560.5 232.5t-232.5 562t231.5 562t560.5 232.5zM844 1076q-92 0 -92 -196t92 -196t92 196t-92 196zM1372 950l-41 101l-215 -136v-79l215 -154l41 98l-141 94zM1430 451v102h-812v-102h173 q18 -356 233 -361q213 0 233 361h173zM1024 193q-59 0 -90 58t-41 200h262q-12 -141 -42 -199.5t-89 -58.5z" glyph-name="u1F61C" unicode="😜"/><glyph d="M1023 1458q329 0 561.5 -233t232.5 -561t-232.5 -561.5t-560.5 -233.5t-560.5 232.5t-232.5 562t231.5 562t560.5 232.5zM958 899l-249 150l-41 -109l166 -63v-9l-166 -80l41 -108l249 166v53zM1380 940l-41 109l-249 -150v-53l249 -166l41 108l-166 80v9zM1430 451v102 h-812v-102h173q18 -356 233 -361q213 0 233 361h173zM1024 193q-59 0 -90 58t-41 200h262q-12 -141 -42 -199.5t-89 -58.5z" glyph-name="u1F61D" unicode="😝"/><glyph d="M1023 1458q329 0 561.5 -233t232.5 -561t-232.5 -561.5t-560.5 -233.5t-560.5 232.5t-232.5 562t231.5 562t560.5 232.5zM819 662q86 0 86 184v94l45 25v120l-297 -157v-127l78 43q2 -182 88 -182zM1143 846q0 -184 86 -184t88 182l78 -43v127l-297 157v-120l45 -25v-94z M1024 432q133 0 238.5 -63.5t152.5 -163.5h96q-33 156 -170 259t-317 103t-317.5 -103.5t-169.5 -258.5h96q47 100 152.5 163.5t238.5 63.5z" glyph-name="u1F61E" unicode="😞"/><glyph d="M1023 1458q329 0 561.5 -233t232.5 -561t-232.5 -561.5t-560.5 -233.5t-560.5 232.5t-232.5 562t231.5 562t560.5 232.5zM905 887v94l45 25v120l-297 -157v-127l78 43q2 -182 86 -183q88 0 88 185zM1143 887q0 -184 88 -185q84 0 86 183l78 -43v127l-297 157v-120l45 -25 v-94zM1024 446q258 0 340 -170h98q-35 123 -149.5 202t-288.5 79t-288.5 -79t-149.5 -202h98q82 170 340 170zM1024 348q-66 0 -109 -40t-55 -105h68q23 66 96.5 65.5t95.5 -65.5h68q-12 66 -55 105.5t-109 39.5z" glyph-name="u1F61F" unicode="😟"/><glyph d="M1023 1458q329 0 561.5 -233t232.5 -561t-232.5 -561.5t-560.5 -233.5t-560.5 232.5t-232.5 562t231.5 562t560.5 232.5zM760 817q0 -193 90 -192.5t90 192.5v156l-360 114l-23 -88l203 -65v-117zM1108 817q0 -193 90 -192.5t90 192.5v117l203 65l-23 88l-360 -114v-156z M1024 473q133 0 238.5 -63.5t152.5 -163.5h96q-33 156 -170 259t-317 103t-317.5 -103.5t-169.5 -258.5h96q47 100 152.5 163.5t238.5 63.5z" glyph-name="u1F620" unicode="😠"/><glyph d="M1023 1458q329 0 561.5 -233t232.5 -561t-232.5 -561.5t-560.5 -233.5t-560.5 232.5t-232.5 562t231.5 562t560.5 232.5zM760 817q0 -193 90 -192.5t90 192.5v156l-360 114l-23 -88l203 -65v-117zM1108 817q0 -193 90 -192.5t90 192.5v117l203 65l-23 88l-360 -114v-156z M1024 446q258 0 340 -170h98q-35 123 -149.5 202t-288.5 79t-288.5 -79t-149.5 -202h98q82 170 340 170zM1024 348q-66 0 -109 -40t-55 -105h68q23 66 96.5 65.5t95.5 -65.5h68q-12 66 -55 105.5t-109 39.5z" glyph-name="u1F621" unicode="😡"/><glyph d="M1023 1458q329 0 561.5 -233t232.5 -561t-232.5 -561.5t-560.5 -233.5t-560.5 232.5t-232.5 562t231.5 562t560.5 232.5zM812 772q75 0 118 68.5t47 197.5h-94q-12 -160 -74 -159q-59 0 -74 159h-94q6 -129 51 -197.5t120 -68.5zM1248 469q62 0 104.5 42t42.5 92 t-28.5 93t-63.5 92q96 53 104 250h-94q-12 -160 -73.5 -159.5t-74.5 159.5h-94q10 -217 117 -258q-8 -12 -28.5 -41.5t-39 -57.5t-18.5 -78t42 -92t104 -42zM1248 545q-32 0 -52 20.5t-20 50.5t29.5 74.5t41.5 69.5q12 -27 43 -72t31 -74t-20.5 -49t-52.5 -20zM1024 309 q119 0 210 -41t120 -104h116q-29 121 -155.5 200.5t-290.5 79.5t-290 -79.5t-156 -200.5h116q29 63 120 104t210 41z" glyph-name="u1F622" unicode="😢"/><glyph d="M1023 1458q329 0 561.5 -233t232.5 -561t-232.5 -561.5t-560.5 -233.5t-560.5 232.5t-232.5 562t231.5 562t560.5 232.5zM958 899l-249 150l-41 -109l166 -63v-9l-166 -80l41 -108l249 166v53zM1380 940l-41 109l-249 -150v-53l249 -166l41 108l-166 80v9zM1024 473 q133 0 238.5 -63.5t152.5 -163.5h96q-33 156 -170 259t-317 103t-317.5 -103.5t-169.5 -258.5h96q47 100 152.5 163.5t238.5 63.5z" glyph-name="u1F623" unicode="😣"/><glyph d="M231 664q0 330 231.5 562t560.5 232t561.5 -232.5t232.5 -561.5q0 -215 -107.5 -398.5t-288.5 -290.5l-96 379q51 -33 86 -88h92q-47 145 -211 215l-43 172l-41 -8l37 -145q-8 4 -63 18l-19 119l-39 -6l15 -107q-47 8 -109 8t-112 -6l14 105l-39 6l-19 -119 q-35 -6 -61 -14l35 141l-41 8l-41 -168q-170 -67 -221 -219h92q33 55 96 94l-100 -389q-182 104 -292 288.5t-110 404.5zM631 889l325 -96l27 94l-326 94zM1067 887l27 -94l323 96l-28 92zM1026 -131q-104 0 -201 25l76 524q61 10 129 10t125 -12l78 -518q-103 -29 -207 -29 zM678 -51l106 438q41 14 72 23l-80 -502q-65 25 -98 41zM1278 -88l-78 496q25 -6 72 -25l104 -430q-51 -27 -98 -41zM1376 -47l45 22l68 -264l-51 -8zM633 -29l45 -22l-60 -246l-51 8zM1233 -102l45 14l37 -231l-49 -11zM776 -92l49 -14l-32 -224l-52 11zM834 -264l8 37 q123 -55 108 -140q-8 -51 -43 -74.5t-78 -17.5t-63 37q-35 -90 -123 -72q-41 6 -65.5 36t-24.5 77q-27 -25 -71 -17t-67.5 43.5t-15.5 86.5q14 82 150 94l-6 -37q-25 -6 -37 -10t-28.5 -19.5t-20.5 -41.5t11 -45t40 -23t45 16l29 -12q2 -80 71.5 -92.5t98.5 61.5l30 2 q10 -25 35 -31q63 -10 76 52q9 47 -59 90zM1505 -213l-6 37q133 -8 150 -94q10 -51 -14.5 -86t-66.5 -42t-73 13q0 -45 -24.5 -74.5t-65.5 -36.5q-90 -14 -123 74q-16 -29 -61 -37t-80 15.5t-43 74.5q-14 82 108 142l6 -37q-66 -45 -56 -98t75 -44q23 2 35 29l30 -2 q29 -74 98.5 -61.5t71.5 92.5l29 12q16 -18 44 -15t43 23t10 46q-10 52 -87 69z" glyph-name="u1F624" unicode="😤"/><glyph d="M1023 1458q329 0 561.5 -233t232.5 -561t-232.5 -561.5t-560.5 -233.5t-560.5 232.5t-232.5 562t231.5 562t560.5 232.5zM973 942l-53 88l-308 -166l52 -90zM1436 864l-308 166l-53 -88l309 -168zM1415 612q0 -52 41 -91.5t100.5 -39.5t100.5 40t41 91t-62.5 137.5 t-70.5 149.5h-17q-8 -63 -70.5 -149t-62.5 -138zM1626 622q0 -26 -19.5 -46.5t-50 -20.5t-50 20.5t-19.5 47.5t29.5 68.5t39.5 68.5q10 -27 40 -69.5t30 -68.5zM1024 473q133 0 238.5 -63.5t152.5 -163.5h96q-33 156 -170 259t-317 103t-317.5 -103.5t-169.5 -258.5h96 q47 100 152.5 163.5t238.5 63.5z" glyph-name="u1F625" unicode="😥"/><glyph d="M1023 1458q329 0 561.5 -233t232.5 -561t-232.5 -561.5t-560.5 -233.5t-560.5 232.5t-232.5 562t231.5 562t560.5 232.5zM936 948q0 198 -93 197q-93 0 -93 -198t94 -197q92 0 92 198zM1298 948q0 198 -93 197q-93 0 -93 -198t92 -197q94 0 94 198zM1024 645 q-176 0 -285.5 -115.5t-128.5 -314.5h828q-18 199 -128 314.5t-286 115.5zM1024 537q104 0 185 -56.5t100 -163.5h-570q18 106 99.5 163t185.5 57z" glyph-name="u1F626" unicode="😦"/><glyph d="M1023 1458q329 0 561.5 -233t232.5 -561t-232.5 -561.5t-560.5 -233.5t-560.5 232.5t-232.5 562t231.5 562t560.5 232.5zM758 858q0 -195 90 -194.5t90 194.5v246l-385 -191l22 -88l183 90v-57zM1110 858q0 -195 90 -194.5t90 194.5v57l183 -90l22 88l-385 191v-246z M1024 623q-209 0 -333 -139.5t-126 -356.5q180 82 459 82q141 0 275.5 -21.5t183.5 -60.5q-2 217 -126 356.5t-333 139.5zM1024 510q125 0 218 -59.5t126 -176.5q-139 41 -344 41t-344 -41q33 117 126 176.5t218 59.5z" glyph-name="u1F627" unicode="😧"/><glyph d="M1023 1458q329 0 561.5 -233t232.5 -561t-232.5 -561.5t-560.5 -233.5t-560.5 232.5t-232.5 562t231.5 562t560.5 232.5zM760 1102q-86 0 -146.5 -60.5t-60.5 -146.5t60.5 -146.5t146.5 -60.5t146.5 60.5t60.5 146.5t-60.5 146.5t-146.5 60.5zM1288 1102 q-86 0 -146.5 -60.5t-60.5 -146.5t60.5 -146.5t146.5 -60.5t146.5 60.5t60.5 146.5t-60.5 146.5t-146.5 60.5zM761 1026q54 0 93 -38t39 -93t-39 -93t-93 -38t-93 38t-39 93t39 93t93 38zM1287 1026q54 0 93 -38t39 -93t-39 -93t-93 -38t-93 38t-39 93t39 93t93 38z M759.5 946q-22.5 0 -36.5 -14t-14 -37t14 -37t36.5 -14t37 14t14.5 37t-14.5 37t-37 14zM1288.5 946q-22.5 0 -37 -14t-14.5 -37t14.5 -37t37 -14t36.5 14t14 37t-14 37t-36.5 14zM1024 668q-176 0 -285.5 -116t-128.5 -314h828q-18 199 -128 314.5t-286 115.5zM1024 559 q104 0 185 -56.5t100 -162.5h-570q18 106 99.5 162.5t185.5 56.5z" glyph-name="u1F628" unicode="😨"/><glyph d="M1023 1458q329 0 561.5 -233t232.5 -561t-232.5 -561.5t-560.5 -233.5t-560.5 232.5t-232.5 562t231.5 562t560.5 232.5zM781 1036q-93 0 -93 -198t93 -197q93 -1 93 197t-93 198zM1144 1036q-93 0 -93 -198t93 -197q93 -1 93 197t-93 198zM1137 174q84 0 144 60.5 t60 145.5t-60 145.5t-144 60.5t-144.5 -60.5t-60.5 -145.5t60.5 -145.5t144.5 -60.5z" glyph-name="u1F62E" unicode="😮"/><glyph d="M1023 1458q329 0 561.5 -233t232.5 -561t-232.5 -561.5t-560.5 -233.5t-560.5 232.5t-232.5 562t231.5 562t560.5 232.5zM909 1104l-307 -113l43 -114l307 112zM1444 991l-307 113l-41 -115l307 -112zM542 778q-101 0 -159 -88h317q-57 88 -158 88zM1508 778 q-102 0 -160 -88h319q-57 88 -159 88zM354 598q0 -22 4 -47h365q6 18 6 42t-6 46h-363q-6 -19 -6 -41zM1321 598q0 -22 4 -47h365q6 18 6 42.5t-6 45.5h-363q-6 -19 -6 -41zM381 498q45 -76 160 -92q117 16 161 92h-321zM1348 498q45 -76 159 -92q115 16 160 92h-319z M756 424q0 -111 78.5 -189.5t189.5 -78.5t188.5 78.5t77.5 189.5h-534z" glyph-name="u1F633" unicode="😳"/><glyph d="M725 1409q-160 0 -184 -143l-35 -191h262l-27 -155h-264l-227 -1280h-189l230 1280h-160l29 155h157l35 195q53 299 367 299q102 0 172 -25l-57 -149q-53 14 -109 14z" glyph-name="f.salt" horiz-adv-x="763"/><glyph d="M770 1100q158 0 226.5 -91t35.5 -253l-108 -588q-10 -59 39 -59q35 0 65 6l-35 -121q-37 -16 -108 -17q-180 0 -146 187l107 561q41 209 -133 209q-158 0 -278 -160t-165 -418l-65 -356h-187l275 1540h172l-121 -704h8q150 264 418 264z" glyph-name="h.salt" horiz-adv-x="1189"/><glyph d="M963 109q35 0 65 6l-35 -121q-37 -16 -108 -17q-180 0 -146 187l107 561q41 209 -133 209q-158 0 -278 -160t-165 -418l-65 -356h-187l213 1198h-131l19 113h133l41 229h172l-39 -229h158l-19 -113h-159l-62 -362h8q150 264 418 264q158 0 226.5 -91t35.5 -253l-108 -588 q-10 -59 39 -59z" glyph-name="hbar.salt" horiz-adv-x="1189"/><glyph d="M627 623l366 -623h-229l-279 492l-168 -158l-59 -334h-188l272 1540h188l-172 -973l508 506h242z" glyph-name="k.salt" horiz-adv-x="1107"/><glyph d="M993 0h-229l-279 492l-168 -158l-59 -334h-188l272 1540h188l-172 -973l508 506h242l-481 -450zM424 -422h-94l65 313h166z" glyph-name="kcommaaccent.salt" horiz-adv-x="1107"/><glyph d="M630 1423q110 0 175 -68.5t65 -193.5q0 -190 -114.5 -306t-246.5 -116t-183 88h-7l-34 -75h-105l166 925h141l-61 -342q94 88 204 88zM512 864q80 0 144.5 79t64.5 177q0 180 -131 180q-107 1 -189 -108l-43 -244q35 -84 154 -84z" glyph-name="glyph391" horiz-adv-x="915"/><glyph d="M805 1569q176 0 287 -70l-58 -153q-111 63 -239 63q-180 0 -211 -149l-33 -185h340q106 0 146 -37t22 -129l-131 -719q-10 -70 53 -69q29 0 57 10l-24 -135q-68 -20 -134 -20t-113.5 48t-31.5 144l127 706q4 25 -4 35.5t-35 10.5h-301l-184 -1045q-27 -152 -137.5 -230.5 t-266.5 -78.5q-61 0 -122 20l36 156q37 -12 93 -12q186 0 217 180l178 1010h-170l29 155h167l33 189q58 305 410 305z" glyph-name="f_i.dlig" horiz-adv-x="1210"/><glyph d="M762 1569q270 0 436 -111l-233 -1268q-14 -70 53 -69q31 0 57 10l-24 -135q-67 -20 -133 -20t-114 48t-32 144l223 1198q-59 43 -228 43t-196 -149l-32 -185h262l-29 -155h-262l-174 -979q-27 -150 -137.5 -230t-264.5 -80q-55 0 -127 21l39 158q57 -14 95 -15 q184 0 215 182l166 943h-168l28 155h168l31 189q29 152 128 228.5t253 76.5z" glyph-name="f_l.dlig" horiz-adv-x="1247"/><glyph d="M1337 1409q-174 0 -200 -149l-33 -185h262l-27 -155h-264l-229 -1280h-180l223 1280h-383l-230 -1280h-180l223 1280h-157l28 155h156l33 189q27 152 127 228.5t252 76.5q96 0 162 -25l-62 -149q-66 14 -126 14t-106 -35t-57 -100l-34 -199h380l33 189 q27 152 127.5 228.5t253.5 76.5q246 0 381 -137l-229 -1242q-14 -70 53 -69q33 0 57 10l-24 -135q-67 -20 -133 -20t-114 48t-32 144l223 1196q-63 45 -174 45z" glyph-name="f_f_l.liga.salt" horiz-adv-x="1765"/><glyph d="M719 1569q102 0 172 -25l-57 -149q-53 14 -109 14q-160 0 -184 -143l-35 -191h409l33 189q61 305 389 305q168 0 267 -70l-74 -153q-82 63 -197 63q-170 0 -196 -154l-33 -180h340q109 0 146.5 -39.5t17.5 -152.5l-127 -693q-10 -70 53 -69q33 0 57 10l-24 -135 q-57 -20 -129 -20t-119 48t-31 144l127 694q12 57 -47 58h-293l-223 -1280h-180l217 1280h-412l-227 -1280h-189l230 1280h-160l29 155h157l35 195q53 299 367 299z" glyph-name="f_f_i.liga.salt" horiz-adv-x="1763"/><glyph d="M1319 1409q-160 0 -184 -143l-35 -191h262l-27 -155h-264l-227 -1280h-189l230 1280h-408l-227 -1280h-189l230 1280h-160l29 155h157l35 195q53 299 367 299q102 0 172 -25l-57 -149q-53 14 -109 14q-160 0 -184 -143l-35 -191h405l35 195q53 299 367 299q102 0 172 -25 l-58 -149q-53 14 -108 14z" glyph-name="f_f.liga.salt" horiz-adv-x="1409"/><glyph d="M805 1569q176 0 287 -70l-58 -153q-111 63 -239 63q-180 0 -211 -149l-33 -185h340q106 0 146 -37t22 -129l-131 -719q-10 -70 53 -69q29 0 57 10l-24 -135q-68 -20 -134 -20t-113.5 48t-31.5 144l127 706q4 25 -4 35.5t-35 10.5h-301l-223 -1280h-190l227 1280h-170 l29 155h167l33 189q58 305 410 305z" glyph-name="f_i.dlig.salt" horiz-adv-x="1210"/><glyph d="M767 1409q-169 0 -196 -149l-32 -185h262l-29 -155h-262l-229 -1280h-189l230 1280h-168l28 155h168l31 189q29 152 128 228.5t253 76.5q270 0 436 -111l-233 -1268q-14 -70 53 -69q31 0 57 10l-24 -135q-67 -20 -133 -20t-114 48t-32 144l223 1198q-59 43 -228 43z" glyph-name="f_l.dlig.salt" horiz-adv-x="1247"/><glyph d="M815 254h-514l-131 -254h-190l628 1165h205l234 -1165h-185zM786 406l-108 583l-299 -583h407z" glyph-name="A.c2sc" horiz-adv-x="1167"/><glyph d="M786 1278h-135l189 252h241zM301 254l-131 -254h-190l628 1165h205l234 -1165h-185l-47 254h-514zM678 989l-299 -583h407z" glyph-name="Aacute.aalt" horiz-adv-x="1167"/><glyph d="M725 1292q-104 0 -170 62.5t-57 179.5h112q0 -61 36 -94t102 -33q131 0 178 127h116q-37 -117 -125 -179.5t-192 -62.5zM301 254l-131 -254h-190l628 1165h205l234 -1165h-185l-47 254h-514zM678 989l-299 -583h407z" glyph-name="Abreve.aalt" horiz-adv-x="1167"/><glyph d="M608 1303h-176l279 241h108l178 -241h-168l-94 110zM1047 0h-185l-47 254h-514l-131 -254h-190l628 1165h205zM786 406l-108 583l-299 -583h407z" glyph-name="Acircumflex.aalt" horiz-adv-x="1167"/><glyph d="M588 1540q49 0 74.5 -28.5t15.5 -84.5q-18 -104 -121 -104q-49 0 -73.5 28.5t-14.5 84.5q19 104 119 104zM944 1540q49 0 73.5 -28.5t14.5 -84.5q-18 -104 -117 -104q-51 0 -76.5 28.5t-15.5 84.5q19 104 121 104zM301 254l-131 -254h-190l628 1165h205l234 -1165h-185 l-47 254h-514zM678 989l-299 -583h407z" glyph-name="Adieresis.aalt" horiz-adv-x="1167"/><glyph d="M821 1362h-135l-211 252h244zM301 254l-131 -254h-190l628 1165h205l234 -1165h-185l-47 254h-514zM678 989l-299 -583h407z" glyph-name="Agrave.aalt" horiz-adv-x="1167"/><glyph d="M1010 1395h-539l18 112h541zM301 254l-131 -254h-190l628 1165h205l234 -1165h-185l-47 254h-514zM678 989l-299 -583h407z" glyph-name="Amacron.aalt" horiz-adv-x="1167"/><glyph d="M745 -188q0 -82 93 -111l-58 -115q-182 37 -182 190t231 259l29 -12l-43 231h-514l-131 -254h-190l628 1165h205l234 -1165h-134q-168 -106 -168 -188zM786 406l-108 583l-299 -583h407z" glyph-name="Aogonek.aalt" horiz-adv-x="1167"/><glyph d="M788.5 1597q69.5 0 108.5 -39.5t26 -111.5t-65.5 -112t-122 -40t-108.5 40t-25 112q12 72 64.5 111.5t122 39.5zM774 1520q-33 0 -55.5 -20.5t-28.5 -53.5t10.5 -53.5t49 -20.5t55.5 20.5t29 52.5t-10.5 53.5t-49.5 21.5zM301 254l-131 -254h-190l628 1165h205l234 -1165 h-185l-47 254h-514zM678 989l-299 -583h407z" glyph-name="Aring.aalt" horiz-adv-x="1167"/><glyph d="M850 1317q-51 0 -116.5 38t-102.5 38q-72 0 -119 -86l-88 53q76 166 215 166q53 0 118.5 -38t92.5 -38q62 0 117 92l92 -51q-74 -174 -209 -174zM301 254l-131 -254h-190l628 1165h205l234 -1165h-185l-47 254h-514zM678 989l-299 -583h407z" glyph-name="Atilde.aalt" horiz-adv-x="1167"/><glyph d="M995 1008l-55 -328h428l-27 -162h-426l-57 -356h494l-29 -162h-688l43 254h-340l-158 -254h-200l759 1165h783l-31 -157h-496zM705 418l96 579l-361 -579h265z" glyph-name="AE.aalt" horiz-adv-x="1531"/><glyph d="M662 1165q328 0 327 -233q0 -209 -192 -316q80 -23 126 -86t46 -153q0 -178 -119 -277.5t-311 -99.5h-478l205 1165h396zM793 877q0 133 -168 133h-201l-62 -348h199q111 2 171.5 62t60.5 153zM526 156q129 0 186.5 56t57.5 169q0 141 -184 141h-246l-64 -366h250z" glyph-name="B.aalt" horiz-adv-x="1101"/><glyph d="M98 465q0 178 59.5 320.5t208 273.5t412.5 131q221 0 352 -127l-108 -135q-109 96 -252 96q-203 0 -337 -137t-134 -395q0 -170 86.5 -260.5t232.5 -90.5t308 109l55 -137q-183 -135 -401 -135t-350 124.5t-132 362.5z" glyph-name="C.aalt" horiz-adv-x="1155"/><glyph d="M897 1272h-135l188 252h242zM98 465q0 178 59.5 320.5t208 273.5t412.5 131q221 0 352 -127l-108 -135q-109 96 -252 96q-203 0 -337 -137t-134 -395q0 -170 86.5 -260.5t232.5 -90.5t308 109l55 -137q-183 -135 -401 -135t-350 124.5t-132 362.5z" glyph-name="Cacute.aalt" horiz-adv-x="1155"/><glyph d="M774 1292l-184 236h170l92 -119l139 119h164l-256 -236h-125zM98 465q0 178 59.5 320.5t208 273.5t412.5 131q221 0 352 -127l-108 -135q-109 96 -252 96q-203 0 -337 -137t-134 -395q0 -170 86.5 -260.5t232.5 -90.5t308 109l55 -137q-183 -135 -401 -135t-350 124.5 t-132 362.5z" glyph-name="Ccaron.aalt" horiz-adv-x="1155"/><glyph d="M770 1024q-203 0 -337 -137t-134 -395q0 -170 86 -260.5t232 -90.5t309 109l55 -137q-152 -115 -356 -133l-66 -84h25q59 0 93 -34t34 -87q0 -84 -73 -147.5t-210 -76.5l-18 93q164 27 163 110q0 45 -47 45q-23 0 -41 -10l-61 64l94 127q-186 14 -303 137t-117 348 q0 178 59.5 320.5t208 273.5t412.5 131q221 0 352 -127l-108 -135q-109 96 -252 96z" glyph-name="Ccedilla.aalt" horiz-adv-x="1155"/><glyph d="M886 1538q48 0 76.5 -29t19.5 -85t-48 -85.5t-87 -29.5t-75.5 29.5t-17.5 85.5t47 85t85 29zM98 465q0 178 59.5 320.5t208 273.5t412.5 131q221 0 352 -127l-108 -135q-109 96 -252 96q-203 0 -337 -137t-134 -395q0 -170 86.5 -260.5t232.5 -90.5t308 109l55 -137 q-183 -135 -401 -135t-350 124.5t-132 362.5z" glyph-name="Cdotaccent.aalt" horiz-adv-x="1155"/><glyph d="M635 1165q229 0 359 -109.5t130 -338.5q0 -350 -192.5 -533.5t-501.5 -183.5h-369l205 1165h369zM430 162q500 0 500 534q0 164 -87 237t-263 73h-154l-147 -844h151z" glyph-name="D.aalt" horiz-adv-x="1208"/><glyph d="M635 1165q229 0 359 -109.5t130 -338.5q0 -350 -192.5 -533.5t-501.5 -183.5h-369l93 522h-177l25 137h176l88 506h369zM430 162q500 0 500 534q0 164 -87 237t-263 73h-154l-61 -347h241l-24 -137h-240l-63 -360h151z" glyph-name="Eth.aalt" horiz-adv-x="1208"/><glyph d="M623 1298l-185 236h170l92 -119l140 119h164l-256 -236h-125zM635 1165q229 0 359 -109.5t130 -338.5q0 -350 -192.5 -533.5t-501.5 -183.5h-369l205 1165h369zM430 162q500 0 500 534q0 164 -87 237t-263 73h-154l-147 -844h151z" glyph-name="Dcaron.aalt" horiz-adv-x="1208"/><glyph d="M969 1395h-539l19 112h540zM635 1165q229 0 359 -109.5t130 -338.5q0 -350 -192.5 -533.5t-501.5 -183.5h-369l205 1165h369zM430 162q500 0 500 534q0 164 -87 237t-263 73h-154l-147 -844h151z" glyph-name="Dcroat.aalt" horiz-adv-x="1208"/><glyph d="M985 1008h-561l-55 -330h499l-26 -162h-500l-57 -354h565l-31 -162h-751l198 1165h752z" glyph-name="E.aalt" horiz-adv-x="1028"/><glyph d="M723 1278h-135l188 252h242zM424 1008l-55 -330h499l-26 -162h-500l-57 -354h565l-31 -162h-751l198 1165h752l-33 -157h-561z" glyph-name="Eacute.aalt" horiz-adv-x="1028"/><glyph d="M662 1292q-104 0 -170 62.5t-58 179.5h113q0 -61 35.5 -94t101.5 -33q131 0 178 127h117q-37 -117 -125 -179.5t-192 -62.5zM424 1008l-55 -330h499l-26 -162h-500l-57 -354h565l-31 -162h-751l198 1165h752l-33 -157h-561z" glyph-name="Ebreve.aalt" horiz-adv-x="1028"/><glyph d="M600 1298l-184 236h170l92 -119l139 119h164l-256 -236h-125zM424 1008l-55 -330h499l-26 -162h-500l-57 -354h565l-31 -162h-751l198 1165h752l-33 -157h-561z" glyph-name="Ecaron.aalt" horiz-adv-x="1028"/><glyph d="M545 1303h-176l278 241h109l178 -241h-168l-94 110zM424 1008l-55 -330h499l-26 -162h-500l-57 -354h565l-31 -162h-751l198 1165h752l-33 -157h-561z" glyph-name="Ecircumflex.aalt" horiz-adv-x="1028"/><glyph d="M524 1540q49 0 75 -28.5t15 -84.5q-18 -104 -120 -104q-49 0 -74 28.5t-14 84.5q18 104 118 104zM881 1540q49 0 73.5 -28.5t14.5 -84.5q-18 -104 -117 -104q-51 0 -76.5 28.5t-15.5 84.5q19 104 121 104zM424 1008l-55 -330h499l-26 -162h-500l-57 -354h565l-31 -162 h-751l198 1165h752l-33 -157h-561z" glyph-name="Edieresis.aalt" horiz-adv-x="1028"/><glyph d="M714 1544q48 0 76.5 -28.5t19.5 -84.5t-48 -86t-87 -30t-75.5 29.5t-17.5 85.5t47 85t85 29zM424 1008l-55 -330h499l-26 -162h-500l-57 -354h565l-31 -162h-751l198 1165h752l-33 -157h-561z" glyph-name="Edotaccent.aalt" horiz-adv-x="1028"/><glyph d="M758 1362h-135l-211 252h243zM424 1008l-55 -330h499l-26 -162h-500l-57 -354h565l-31 -162h-751l198 1165h752l-33 -157h-561z" glyph-name="Egrave.aalt" horiz-adv-x="1028"/><glyph d="M946 1395h-538l18 112h541zM424 1008l-55 -330h499l-26 -162h-500l-57 -354h565l-31 -162h-751l198 1165h752l-33 -157h-561z" glyph-name="Emacron.aalt" horiz-adv-x="1028"/><glyph d="M393 -188q0 -82 92 -111l-57 -115q-182 37 -182 185q0 131 164 229h-342l198 1165h752l-33 -157h-561l-55 -330h499l-26 -162h-500l-57 -354h565l-31 -162h-258q-168 -106 -168 -188z" glyph-name="Eogonek.aalt" horiz-adv-x="1028"/><glyph d="M969 1008h-551l-62 -396h488l-33 -161h-487l-72 -451h-184l198 1165h735z" glyph-name="F.aalt" horiz-adv-x="958"/><glyph d="M100 477q0 174 58.5 313.5t209 269.5t420.5 130q225 0 377 -127l-118 -145q-119 104 -311 104t-318.5 -143.5t-126.5 -378.5q0 -360 315 -361q158 0 264 86l48 279h-306l29 147h481l-90 -501q-178 -174 -467 -175q-213 0 -339 122t-126 380z" glyph-name="G.aalt" horiz-adv-x="1196"/><glyph d="M799 1286q-104 0 -170 62.5t-58 179.5h113q0 -61 36 -94t101 -33q131 0 178 127h117q-37 -117 -125 -179.5t-192 -62.5zM100 477q0 174 58.5 313.5t209 269.5t420.5 130q225 0 377 -127l-118 -145q-119 104 -311 104t-318.5 -143.5t-126.5 -378.5q0 -360 315 -361 q158 0 264 86l48 279h-306l29 147h481l-90 -501q-178 -174 -467 -175q-213 0 -339 122t-126 380z" glyph-name="Gbreve.aalt" horiz-adv-x="1196"/><glyph d="M100 477q0 174 58.5 313.5t209 269.5t420.5 130q225 0 377 -127l-118 -145q-119 104 -311 104t-318.5 -143.5t-126.5 -378.5q0 -360 315 -361q158 0 264 86l48 279h-306l29 147h481l-90 -501q-178 -174 -467 -175q-213 0 -339 122t-126 380zM526 -424h-94l66 313h166z " glyph-name="Gcommaaccent.aalt" horiz-adv-x="1196"/><glyph d="M851 1538q48 0 76.5 -29t19.5 -85t-48 -85.5t-87 -29.5t-75.5 29.5t-17.5 85.5t47 85t85 29zM100 477q0 174 58.5 313.5t209 269.5t420.5 130q225 0 377 -127l-118 -145q-119 104 -311 104t-318.5 -143.5t-126.5 -378.5q0 -360 315 -361q158 0 264 86l48 279h-306l29 147 h481l-90 -501q-178 -174 -467 -175q-213 0 -339 122t-126 380z" glyph-name="Gdotaccent.aalt" horiz-adv-x="1196"/><glyph d="M1212 1165l-196 -1165h-193l84 487h-567l-84 -487h-188l198 1165h189l-88 -512h567l88 512h190z" glyph-name="H.aalt" horiz-adv-x="1267"/><glyph d="M1262 795h-101l-133 -795h-192l84 487h-568l-84 -487h-188l135 795h-84l21 123h84l43 247h188l-43 -247h567l43 247h191l-41 -247h100zM971 795h-568l-24 -142h567z" glyph-name="Hbar.aalt" horiz-adv-x="1273"/><glyph d="M254 0h-186l198 1165h187z" glyph-name="dotlessi.aalt" horiz-adv-x="507"/><glyph d="M428 1280h-135l188 252h242zM254 0h-186l198 1165h187z" glyph-name="Iacute.aalt" horiz-adv-x="507"/><glyph d="M639 1303h-168l-94 110l-127 -110h-176l278 241h109zM266 1165h187l-199 -1165h-186z" glyph-name="Icircumflex.aalt" horiz-adv-x="507"/><glyph d="M229 1540q49 0 75 -28.5t15 -84.5q-18 -104 -120 -104q-49 0 -74 28.5t-14 84.5q18 104 118 104zM586 1540q49 0 73.5 -28.5t14.5 -84.5q-18 -104 -117 -104q-51 0 -76.5 28.5t-15.5 84.5q19 104 121 104zM254 0h-186l198 1165h187z" glyph-name="Idieresis.aalt" horiz-adv-x="507"/><glyph d="M463 1362h-135l-211 252h243zM254 0h-186l198 1165h187z" glyph-name="Igrave.aalt" horiz-adv-x="507"/><glyph d="M651 1395h-538l18 112h541zM254 0h-186l198 1165h187z" glyph-name="Imacron.aalt" horiz-adv-x="507"/><glyph d="M-129 -206q0 148 205 251l190 1120h187l-199 -1165h-102q-134 -92 -134 -170t93 -106l-58 -115q-182 37 -182 185z" glyph-name="Iogonek.aalt" horiz-adv-x="507"/><glyph d="M82 -29q-115 0 -162 23l51 158q61 -12 127 -13q256 0 291 223l137 803h183l-142 -823q-59 -371 -485 -371z" glyph-name="J.aalt" horiz-adv-x="759"/><glyph d="M586 618l413 -618h-239l-316 487l-129 -120l-65 -367h-189l205 1165h189l-99 -559l576 559h235z" glyph-name="K.aalt" horiz-adv-x="1107"/><glyph d="M999 0h-239l-316 487l-129 -120l-65 -367h-189l205 1165h189l-99 -559l576 559h235l-581 -547zM399 -422h-94l66 313h166z" glyph-name="Kcommaaccent.aalt" horiz-adv-x="1107"/><glyph d="M283 166h544l-28 -166h-731l198 1167h185z" glyph-name="L.aalt" horiz-adv-x="937"/><glyph d="M500 1278h-135l188 252h242zM827 166l-28 -166h-731l198 1167h185l-168 -1001h544z" glyph-name="Lacute.aalt" horiz-adv-x="937"/><glyph d="M827 166l-28 -166h-731l198 1167h185l-168 -1001h544zM748 803h-95l66 313h166z" glyph-name="Lcaron.aalt" horiz-adv-x="972"/><glyph d="M827 166l-28 -166h-731l198 1167h185l-168 -1001h544zM367 -422h-95l66 313h166z" glyph-name="Lcommaaccent.aalt" horiz-adv-x="937"/><glyph d="M827 166l-28 -166h-731l198 1167h185l-168 -1001h544zM687 795q56 0 92 -39.5t24 -105.5t-52.5 -98t-96.5 -32t-92 40t-24 106t52.5 97.5t96.5 31.5z" glyph-name="Ldot.aalt" horiz-adv-x="937"/><glyph d="M872 166l-28 -166h-731l88 522l-158 -51l25 135l157 51l86 510h185l-76 -446l188 61l-22 -135l-189 -61l-69 -420h544z" glyph-name="Lslash.aalt" horiz-adv-x="1017"/><glyph d="M1479 1165l-199 -1165h-184l133 795l-490 -777h-114l-242 773l-131 -791h-184l198 1165h180l279 -913l578 913h176z" glyph-name="M.aalt" horiz-adv-x="1533"/><glyph d="M1247 1167l-198 -1167h-168l-486 866l-143 -866h-184l198 1167h170l482 -870l145 870h184z" glyph-name="N.aalt" horiz-adv-x="1302"/><glyph d="M840 1278h-135l188 252h242zM1049 0h-168l-486 866l-143 -866h-184l198 1167h170l482 -870l145 870h184z" glyph-name="Nacute.aalt" horiz-adv-x="1302"/><glyph d="M715 1298l-185 236h170l93 -119l139 119h164l-256 -236h-125zM1247 1167l-198 -1167h-168l-486 866l-143 -866h-184l198 1167h170l482 -870l145 870h184z" glyph-name="Ncaron.aalt" horiz-adv-x="1302"/><glyph d="M1049 0h-168l-486 866l-143 -866h-184l198 1167h170l482 -870l145 870h184zM489 -422h-94l66 313h166z" glyph-name="Ncommaaccent.aalt" horiz-adv-x="1302"/><glyph d="M559 -457q-115 0 -172 23l51 162q53 -14 127 -15q131 0 201 54.5t90 169.5l14 79l-473 850l-145 -866h-184l198 1165h170l482 -870l145 870h184l-213 -1249q-61 -373 -475 -373z" glyph-name="Eng.aalt" horiz-adv-x="1302"/><glyph d="M901 1317q-51 0 -116.5 38t-102.5 38q-72 0 -119 -86l-88 53q76 166 215 166q51 0 116.5 -38t94.5 -38q62 0 117 92l92 -51q-74 -174 -209 -174zM1049 0h-168l-486 866l-143 -866h-184l198 1167h170l482 -870l145 870h184z" glyph-name="Ntilde.aalt" horiz-adv-x="1302"/><glyph d="M793 1190q207 0 350 -126t143 -370q0 -176 -64.5 -318.5t-221.5 -271.5t-410 -129q-203 0 -346.5 129t-143.5 371q0 178 61.5 319.5t215 268.5t416.5 127zM764 1020q-188 0 -327.5 -136t-139.5 -378q0 -168 91 -264.5t233 -96.5q188 0 327 145.5t139 385.5q0 168 -89 256 t-234 88z" glyph-name="O.c2sc" horiz-adv-x="1368"/><glyph d="M860 1272h-135l188 252h242zM793 1190q207 0 350 -126t143 -370q0 -176 -64.5 -318.5t-221.5 -271.5t-410 -129q-203 0 -346.5 129t-143.5 371q0 178 61.5 319.5t215 268.5t416.5 127zM764 1020q-188 0 -327.5 -136t-139.5 -378q0 -168 91 -264.5t233 -96.5 q188 0 327 145.5t139 385.5q0 168 -89 256t-234 88z" glyph-name="Oacute.aalt" horiz-adv-x="1368"/><glyph d="M682 1294h-176l278 242h109l178 -242h-168l-94 111zM793 1190q207 0 350 -126t143 -370q0 -176 -64.5 -318.5t-221.5 -271.5t-410 -129q-203 0 -346.5 129t-143.5 371q0 178 61.5 319.5t215 268.5t416.5 127zM621 145q188 0 327 145.5t139 385.5q0 168 -89 256t-234 88 q-188 0 -327.5 -136t-139.5 -378q0 -168 91.5 -264.5t232.5 -96.5z" glyph-name="Ocircumflex.aalt" horiz-adv-x="1368"/><glyph d="M659 1532q49 0 75 -28.5t16 -84.5q-18 -104 -121 -104q-49 0 -74 28.5t-14 83.5q18 105 118 105zM1016 1532q49 0 73.5 -28.5t14.5 -84.5q-18 -104 -117 -104q-51 0 -76.5 28.5t-15.5 83.5q19 105 121 105zM793 1190q207 0 350 -126t143 -370q0 -176 -64.5 -318.5 t-221.5 -271.5t-410 -129q-203 0 -346.5 129t-143.5 371q0 178 61.5 319.5t215 268.5t416.5 127zM764 1020q-188 0 -327.5 -136t-139.5 -378q0 -168 91 -264.5t233 -96.5q188 0 327 145.5t139 385.5q0 168 -89 256t-234 88z" glyph-name="Odieresis.aalt" horiz-adv-x="1368"/><glyph d="M895 1354h-135l-211 252h244zM793 1190q207 0 350 -126t143 -370q0 -176 -64.5 -318.5t-221.5 -271.5t-410 -129q-203 0 -346.5 129t-143.5 371q0 178 61.5 319.5t215 268.5t416.5 127zM764 1020q-188 0 -327.5 -136t-139.5 -378q0 -168 91 -264.5t233 -96.5 q188 0 327 145.5t139 385.5q0 168 -89 256t-234 88z" glyph-name="Ograve.aalt" horiz-adv-x="1368"/><glyph d="M668 1356h-119l158 250h202zM991 1356h-129l185 250h208zM793 1190q207 0 350 -126t143 -370q0 -176 -64.5 -318.5t-221.5 -271.5t-410 -129q-203 0 -346.5 129t-143.5 371q0 178 61.5 319.5t215 268.5t416.5 127zM764 1020q-188 0 -327.5 -136t-139.5 -378 q0 -168 91 -264.5t233 -96.5q188 0 327 145.5t139 385.5q0 168 -89 256t-234 88z" glyph-name="Ohungarumlaut.aalt" horiz-adv-x="1368"/><glyph d="M1083 1386h-538l18 113h541zM793 1190q207 0 350 -126t143 -370q0 -176 -64.5 -318.5t-221.5 -271.5t-410 -129q-203 0 -346.5 129t-143.5 371q0 178 61.5 319.5t215 268.5t416.5 127zM764 1020q-188 0 -327.5 -136t-139.5 -378q0 -168 91 -264.5t233 -96.5 q188 0 327 145.5t139 385.5q0 168 -89 256t-234 88z" glyph-name="Omacron.aalt" horiz-adv-x="1368"/><glyph d="M1286 694q0 -176 -64.5 -318.5t-221.5 -271.5t-410 -129q-109 0 -193 35l-129 -200l-110 55l131 203q-188 133 -189 407q0 178 61.5 319.5t215 268.5t416.5 127q104 0 202 -35l125 193l101 -52l-125 -194q190 -135 190 -408zM297 506q0 -179 100 -273l496 766 q-55 20 -129 21q-188 0 -327.5 -136t-139.5 -378zM621 145q188 0 327 145.5t139 385.5q0 170 -96 262l-493 -770q57 -23 123 -23z" glyph-name="Oslash.aalt" horiz-adv-x="1366"/><glyph d="M922 1309q-51 0 -117 37.5t-103 37.5q-72 0 -118 -86l-88 54q76 166 215 166q51 0 116.5 -38t94.5 -38q61 0 116 92l92 -51q-74 -174 -208 -174zM793 1190q207 0 350 -126t143 -370q0 -176 -64.5 -318.5t-221.5 -271.5t-410 -129q-203 0 -346.5 129t-143.5 371 q0 178 61.5 319.5t215 268.5t416.5 127zM764 1020q-188 0 -327.5 -136t-139.5 -378q0 -168 91 -264.5t233 -96.5q188 0 327 145.5t139 385.5q0 168 -89 256t-234 88z" glyph-name="Otilde.aalt" horiz-adv-x="1368"/><glyph d="M565 0q-199 0 -335 118t-136 353q0 145 57.5 311.5t235 274.5t387.5 108h723l-29 -157h-489l-57 -330h426l-29 -162h-426l-64 -354h492l-29 -162h-727zM741 1008q-201 0 -328.5 -133.5t-127.5 -378.5q0 -164 84 -254t223 -90h55l150 856h-56z" glyph-name="OE.aalt" horiz-adv-x="1499"/><glyph d="M670 1165q180 0 270 -83t90 -226q0 -199 -135 -328t-360 -129h-220l-69 -399h-185l205 1165h404zM537 561q139 0 221 72t82 194q0 88 -57.5 134.5t-166.5 46.5h-194l-78 -447h193z" glyph-name="P.aalt" horiz-adv-x="1081"/><glyph d="M672 977q199 0 290 -103.5t61 -276.5t-158 -279.5t-310 -106.5h-180l-35 -211h-182l194 1169h183l-31 -192h168zM547 371q121 0 196 60.5t91 165.5t-39.5 161.5t-176.5 56.5h-145l-70 -444h144z" glyph-name="Thorn.aalt" horiz-adv-x="1024"/><glyph d="M100 475q0 178 61.5 319.5t215 268.5t416.5 127q207 0 350 -126t143 -371t-116.5 -412.5t-299.5 -245.5l308 -168l-134 -143l-376 256q-53 -4 -78 -5q-203 0 -346.5 129t-143.5 371zM297 506q0 -168 91 -264.5t233 -96.5q188 0 327 145.5t139 385.5q0 168 -89 256 t-234 88q-188 0 -327.5 -136t-139.5 -378z" glyph-name="Q.aalt" horiz-adv-x="1396"/><glyph d="M682 1165q350 0 350 -284q0 -145 -75.5 -265t-211.5 -170l187 -446h-219l-160 420h-231l-74 -420h-189l207 1165h416zM565 582q133 0 201 70.5t68 191.5q0 164 -193 164h-217l-74 -426h215z" glyph-name="R.aalt" horiz-adv-x="1089"/><glyph d="M717 1278h-135l188 252h242zM682 1165q350 0 350 -284q0 -145 -75.5 -265t-211.5 -170l187 -446h-219l-160 420h-231l-74 -420h-189l207 1165h416zM565 582q133 0 201 70.5t68 191.5q0 164 -193 164h-217l-74 -426h215z" glyph-name="Racute.aalt" horiz-adv-x="1089"/><glyph d="M594 1298l-184 236h170l92 -119l139 119h164l-256 -236h-125zM682 1165q350 0 350 -284q0 -145 -75.5 -265t-211.5 -170l187 -446h-219l-160 420h-231l-74 -420h-189l207 1165h416zM565 582q133 0 201 70.5t68 191.5q0 164 -193 164h-217l-74 -426h215z" glyph-name="Rcaron.aalt" horiz-adv-x="1089"/><glyph d="M682 1165q350 0 350 -284q0 -145 -75.5 -265t-211.5 -170l187 -446h-219l-160 420h-231l-74 -420h-189l207 1165h416zM565 582q133 0 201 70.5t68 191.5q0 164 -193 164h-217l-74 -426h215zM371 -422h-95l66 313h166z" glyph-name="Rcommaaccent.aalt" horiz-adv-x="1089"/><glyph d="M391 141q141 0 208 54.5t67 130.5t-54.5 112.5t-176.5 89.5t-187.5 118t-65.5 173q0 162 124 266.5t318 104.5t330 -113l-100 -133q-109 92 -258 92q-102 0 -164.5 -51t-62.5 -135q0 -38 12 -56t20.5 -28t26.5 -22.5t29.5 -19.5t37 -19.5t39 -18.5t45 -20.5t46.5 -20.5 q115 -51 173 -112.5t58 -157.5q0 -176 -132 -288t-342 -112t-351 109l84 143q135 -86 276 -86z" glyph-name="S.aalt" horiz-adv-x="968"/><glyph d="M707 1270h-136l189 252h241zM391 141q141 0 208 54.5t67 130.5t-54.5 112.5t-176.5 89.5t-187.5 118t-65.5 173q0 162 124 266.5t318 104.5t330 -113l-100 -133q-109 92 -258 92q-102 0 -164.5 -51t-62.5 -135q0 -38 12 -56t20.5 -28t26.5 -22.5t29.5 -19.5t37 -19.5 t39 -18.5t45 -20.5t46.5 -20.5q115 -51 173 -112.5t58 -157.5q0 -176 -132 -288t-342 -112t-351 109l84 143q135 -86 276 -86z" glyph-name="Sacute.aalt" horiz-adv-x="968"/><glyph d="M582 1290l-185 236h170l92 -119l140 119h164l-256 -236h-125zM596 1036q-102 0 -164.5 -51t-62.5 -135q0 -38 12 -56t20.5 -28t26.5 -22.5t29.5 -19.5t37 -19.5t39 -18.5t45 -20.5t46.5 -20.5q115 -51 173 -112.5t58 -157.5q0 -176 -132 -288t-342 -112t-351 109l84 143 q135 -86 276 -86t208 54.5t67 130.5t-54.5 112.5t-176.5 89.5t-187.5 118t-65.5 173q0 162 124 266.5t318 104.5t330 -113l-100 -133q-109 92 -258 92z" glyph-name="Scaron.aalt" horiz-adv-x="968"/><glyph d="M596 1036q-102 0 -164.5 -51t-62.5 -135q0 -38 12 -56t20.5 -28t26.5 -22.5t29.5 -19.5t37 -19.5t39 -18.5t45 -20.5t46.5 -20.5q115 -51 173 -112.5t58 -157.5q0 -160 -108.5 -267.5t-288.5 -127.5l-49 -64h24q57 0 92 -34t35 -87q0 -84 -72.5 -147.5t-209.5 -75.5 l-19 92q164 27 164 111q0 45 -47 45q-23 0 -41 -10l-62 63l76 102q-193 10 -319 109l84 143q135 -86 276 -86t208 54.5t67 130.5t-54.5 112.5t-176.5 89.5t-187.5 118t-65.5 173q0 162 124 266.5t318 104.5t330 -113l-100 -133q-109 92 -258 92z" glyph-name="Scedilla.c2sc" horiz-adv-x="968"/><glyph d="M391 141q141 0 208 54.5t67 130.5t-54.5 112.5t-176.5 89.5t-187.5 118t-65.5 173q0 162 124 266.5t318 104.5t330 -113l-100 -133q-109 92 -258 92q-102 0 -164.5 -51t-62.5 -135q0 -38 12 -56t20.5 -28t26.5 -22.5t29.5 -19.5t37 -19.5t39 -18.5t45 -20.5t46.5 -20.5 q115 -51 173 -112.5t58 -157.5q0 -176 -132 -288t-342 -112t-351 109l84 143q135 -86 276 -86zM338 -422h-94l65 313h166z" glyph-name="Scommaaccent.aalt" horiz-adv-x="968"/><glyph d="M973 365q0 -164 -124 -277t-292 -113q-123 0 -197 41l58 154q66 -33 152 -33t150 59.5t64 153.5q0 162 -264 162l19 113l241 213q16 84 -26.5 135t-129.5 51t-154 -55.5t-85 -163.5l-141 -805h-185l148 829q29 172 157 266.5t296 94.5t252 -96.5t51 -270.5l-246 -213 q117 -12 186.5 -73.5t69.5 -171.5z" glyph-name="germandbls.aalt" horiz-adv-x="1105"/><glyph d="M1087 1001h-372l-168 -1001h-182l165 1001h-370l28 164h930z" glyph-name="T.aalt" horiz-adv-x="1081"/><glyph d="M940 1393h-539l19 112h541zM715 1001l-168 -1001h-182l165 1001h-370l28 164h930l-31 -164h-372z" glyph-name="Tbar.aalt" horiz-adv-x="1081"/><glyph d="M594 1296l-184 236h170l92 -119l139 119h164l-256 -236h-125zM1118 1165l-31 -164h-372l-168 -1001h-182l165 1001h-370l28 164h930z" glyph-name="Tcaron.aalt" horiz-adv-x="1081"/><glyph d="M481 -84q59 0 93 -34t34 -87q0 -84 -72.5 -147.5t-209.5 -75.5l-19 92q164 27 164 111q0 45 -47 45q-23 0 -41 -10l-61 63l94 127h-51l165 1001h-370l28 164h930l-31 -164h-372l-168 -1001h-25l-65 -84h24z" glyph-name="Tcommaaccent.c2sc" horiz-adv-x="1081"/><glyph d="M715 1001l-168 -1001h-182l165 1001h-370l28 164h930l-31 -164h-372zM385 -422h-94l65 313h166z" glyph-name="uni021A.aalt" horiz-adv-x="1081"/><glyph d="M515 -27q-200 0 -309.5 112t-68.5 339l129 741h185l-136 -768q-18 -113 41.5 -183.5t191.5 -70.5t215 71t103 183l135 768h183l-131 -741q-39 -229 -188.5 -340t-349.5 -111z" glyph-name="U.aalt" horiz-adv-x="1230"/><glyph d="M791 1278h-136l189 252h241zM515 -27q-200 0 -309.5 112t-68.5 339l129 741h185l-136 -768q-18 -113 41.5 -183.5t191.5 -70.5t215 71t103 183l135 768h183l-131 -741q-39 -229 -188.5 -340t-349.5 -111z" glyph-name="Uacute.aalt" horiz-adv-x="1230"/><glyph d="M612 1303h-176l279 241h108l178 -241h-167l-95 110zM515 -27q-200 0 -309.5 112t-68.5 339l129 741h185l-136 -768q-18 -113 41.5 -183.5t191.5 -70.5t215 71t103 183l135 768h183l-131 -741q-39 -229 -188.5 -340t-349.5 -111z" glyph-name="Ucircumflex.aalt" horiz-adv-x="1230"/><glyph d="M592 1540q49 0 74.5 -28.5t15.5 -84.5q-18 -104 -121 -104q-49 0 -73.5 28.5t-14.5 84.5q19 104 119 104zM948 1540q49 0 74 -28.5t14 -84.5q-18 -104 -116 -104q-51 0 -77 28.5t-16 84.5q19 104 121 104zM515 -27q-200 0 -309.5 112t-68.5 339l129 741h185l-136 -768 q-18 -113 41.5 -183.5t191.5 -70.5t215 71t103 183l135 768h183l-131 -741q-39 -229 -188.5 -340t-349.5 -111z" glyph-name="Udieresis.aalt" horiz-adv-x="1230"/><glyph d="M827 1362h-135l-211 252h244zM515 -27q-200 0 -309.5 112t-68.5 339l129 741h185l-136 -768q-18 -113 41.5 -183.5t191.5 -70.5t215 71t103 183l135 768h183l-131 -741q-39 -229 -188.5 -340t-349.5 -111z" glyph-name="Ugrave.aalt" horiz-adv-x="1230"/><glyph d="M598 1364h-119l158 250h203zM922 1364h-129l184 250h209zM515 -27q-200 0 -309.5 112t-68.5 339l129 741h185l-136 -768q-18 -113 41.5 -183.5t191.5 -70.5t215 71t103 183l135 768h183l-131 -741q-39 -229 -188.5 -340t-349.5 -111z" glyph-name="Uhungarumlaut.aalt" horiz-adv-x="1230"/><glyph d="M1014 1395h-539l19 112h540zM515 -27q-200 0 -309.5 112t-68.5 339l129 741h185l-136 -768q-18 -113 41.5 -183.5t191.5 -70.5t215 71t103 183l135 768h183l-131 -741q-39 -229 -188.5 -340t-349.5 -111z" glyph-name="Umacron.aalt" horiz-adv-x="1230"/><glyph d="M549 -172q0 -76 92 -104l-57 -115q-182 37 -183 184q0 98 97 180q-190 4 -295 116t-66 335l129 741h185l-136 -768q-18 -113 41.5 -183.5t191.5 -70.5t215 71t103 183l135 768h183l-131 -741q-59 -348 -381 -432q-123 -88 -123 -164z" glyph-name="Uogonek.aalt" horiz-adv-x="1230"/><glyph d="M792.5 1597q69.5 0 108.5 -39.5t26 -111.5t-65.5 -112t-122 -40t-108.5 40t-25 112q12 72 64.5 111.5t122 39.5zM778 1520q-33 0 -55.5 -20.5t-28.5 -53.5t10.5 -53.5t49 -20.5t55.5 20.5t29 52.5t-10.5 53.5t-49.5 21.5zM515 -27q-200 0 -309.5 112t-68.5 339l129 741 h185l-136 -768q-18 -113 41.5 -183.5t191.5 -70.5t215 71t103 183l135 768h183l-131 -741q-39 -229 -188.5 -340t-349.5 -111z" glyph-name="Uring.aalt" horiz-adv-x="1230"/><glyph d="M1214 1165l-645 -1165h-190l-244 1165h207l174 -942l496 942h202z" glyph-name="V.aalt" horiz-adv-x="1132"/><glyph d="M1774 1165l-566 -1173h-157l-133 905l-451 -905h-160l-153 1173h200l97 -895l436 893h164l123 -891l413 893h187z" glyph-name="W.aalt" horiz-adv-x="1712"/><glyph d="M1051 1272h-136l189 252h242zM1208 -8h-157l-133 905l-451 -905h-160l-153 1173h200l97 -895l436 893h164l123 -891l413 893h187z" glyph-name="Wacute.aalt" horiz-adv-x="1712"/><glyph d="M872 1296h-176l279 242h108l179 -242h-168l-95 111zM1774 1165l-566 -1173h-157l-133 905l-451 -905h-160l-153 1173h200l97 -895l436 893h164l123 -891l413 893h187z" glyph-name="Wcircumflex.aalt" horiz-adv-x="1712"/><glyph d="M852 1534q49 0 74.5 -28.5t15.5 -84.5q-18 -104 -121 -104q-49 0 -73.5 28.5t-14.5 84.5q19 104 119 104zM1208 1534q49 0 74 -28.5t14 -84.5q-18 -104 -116 -104q-51 0 -77 28.5t-16 84.5q19 104 121 104zM1208 -8h-157l-133 905l-451 -905h-160l-153 1173h200l97 -895 l436 893h164l123 -891l413 893h187z" glyph-name="Wdieresis.aalt" horiz-adv-x="1712"/><glyph d="M1085 1356h-135l-211 252h244zM1208 -8h-157l-133 905l-451 -905h-160l-153 1173h200l97 -895l436 893h164l123 -891l413 893h187z" glyph-name="Wgrave.aalt" horiz-adv-x="1712"/><glyph d="M666 596l323 -596h-217l-231 455l-361 -455h-223l502 596l-303 571h223l211 -434l340 434h221z" glyph-name="X.aalt" horiz-adv-x="1079"/><glyph d="M1141 1165l-512 -710l-80 -459h-184l79 459l-297 710h203l215 -544l381 544h195z" glyph-name="Y.aalt" horiz-adv-x="1067"/><glyph d="M717 1278h-135l188 252h242zM629 455l-80 -459h-184l79 459l-297 710h203l215 -544l381 544h195z" glyph-name="Yacute.aalt" horiz-adv-x="1067"/><glyph d="M539 1303h-177l279 241h109l178 -241h-168l-94 110zM1141 1165l-512 -710l-80 -459h-184l79 459l-297 710h203l215 -544l381 544h195z" glyph-name="Ycircumflex.aalt" horiz-adv-x="1067"/><glyph d="M518 1540q49 0 74.5 -28.5t15.5 -84.5q-18 -104 -121 -104q-49 0 -73.5 28.5t-14.5 84.5q19 104 119 104zM874 1540q49 0 74 -28.5t15 -84.5q-18 -104 -117 -104q-51 0 -77 28.5t-15 84.5q18 104 120 104zM629 455l-80 -459h-184l79 459l-297 710h203l215 -544l381 544 h195z" glyph-name="ydieresis.aalt" horiz-adv-x="1067"/><glyph d="M752 1362h-136l-210 252h243zM629 455l-80 -459h-184l79 459l-297 710h203l215 -544l381 544h195z" glyph-name="Ygrave.aalt" horiz-adv-x="1067"/><glyph d="M1012 1022l-740 -856h627l-29 -166h-843l22 145l729 859h-559l33 161h786z" glyph-name="Z.aalt" horiz-adv-x="1054"/><glyph d="M700 1278h-135l189 252h241zM272 166h627l-29 -166h-843l22 145l729 859h-559l33 161h786l-26 -143z" glyph-name="Zacute.aalt" horiz-adv-x="1054"/><glyph d="M578 1298l-185 236h170l92 -119l140 119h163l-256 -236h-124zM1012 1022l-740 -856h627l-29 -166h-843l22 145l729 859h-559l33 161h786z" glyph-name="Zcaron.aalt" horiz-adv-x="1054"/><glyph d="M691 1544q48 0 77.5 -28.5t19.5 -84.5t-49 -86t-87 -30t-75.5 29.5t-17.5 85.5t47 85t85 29zM272 166h627l-29 -166h-843l22 145l729 859h-559l33 161h786l-26 -143z" glyph-name="Zdotaccent.aalt" horiz-adv-x="1054"/><glyph d="M254 0h-186l198 1165h187z" glyph-name="I.aalt" horiz-adv-x="507"/><glyph d="M415 526q157 0 235.5 -107.5t41.5 -318.5t-154.5 -320.5t-273 -109.5t-232.5 108.5t-40 320.5t151.5 319.5t271.5 107.5zM393 391q-182 0 -233 -293t130 -293t232 293q53 293 -129 293z" glyph-name="zero.sinf" horiz-adv-x="835"/><glyph d="M389 -170h174l-22 -135h-506l24 135h174l91 510l-172 -68l-33 117l282 125h109z" glyph-name="one.sinf" horiz-adv-x="835"/><glyph d="M390 530q150 0 218 -64.5t54 -166.5q-23 -182 -291 -358l-160 -107h391l-24 -139h-594l22 127l266 186q193 135 211 260q8 55 -26.5 87t-100.5 32q-104 0 -213 -74l-53 117q150 100 300 100z" glyph-name="two.sinf" horiz-adv-x="835"/><glyph d="M240 -334q-162 0 -277 92l84 123q101 -74 203 -74t154.5 36.5t62.5 96.5t-28 87.5t-134 27.5h-92l23 125h75q78 0 126.5 30t56.5 79t-23 75.5t-119 26.5t-202 -80l-54 107q144 110 296 110t220 -57t56 -145q-6 -63 -56.5 -117.5t-130.5 -77.5q172 -37 152 -192 q-14 -119 -122.5 -196t-270.5 -77z" glyph-name="three.sinf" horiz-adv-x="835"/><glyph d="M532 20h125l-22 -124h-125l-35 -201h-151l34 201h-385l23 122l493 498h132zM158 20h223l49 283z" glyph-name="four.sinf" horiz-adv-x="835"/><glyph d="M406 225q102 0 169 -71.5t45 -195.5t-131 -204t-261 -80t-251 80l76 115q91 -57 185 -57t148 42t66 108t-25 103t-117 37t-146 -55l-96 43l73 420h516l-22 -139h-365l-32 -183q66 37 168 37z" glyph-name="five.sinf" horiz-adv-x="835"/><glyph d="M444 399q-211 0 -260 -274q102 86 223 86t189 -67.5t45 -189.5t-121 -201t-231 -79q-349 0 -276 426q38 222 166 329.5t281 107.5t247 -76l-82 -117q-68 55 -181 55zM372 80q-56 0 -115.5 -27.5t-90.5 -64.5q-10 -84 27.5 -132.5t110.5 -48.5t120 40.5t57 98.5t-21.5 96 t-87.5 38z" glyph-name="six.sinf" horiz-adv-x="835"/><glyph d="M692 383l-459 -688h-167l442 667h-424l25 144h606z" glyph-name="seven.sinf" horiz-adv-x="835"/><glyph d="M264 -330q-144 0 -224.5 73t-62.5 179q29 150 189 209q-109 53 -86 178q16 98 111.5 160.5t226.5 62.5t203.5 -62.5t54.5 -160.5q-20 -125 -154 -178q141 -59 115 -209q-16 -106 -122.5 -179t-250.5 -73zM394 403q-62 0 -108 -28.5t-54 -80.5t26.5 -79t97.5 -27 q144 0 164 109q8 47 -28 76.5t-98 29.5zM336 70q-76 0 -129 -37t-63.5 -96.5t27.5 -96.5t118 -37t128 36.5t59 96.5t-26.5 97t-113.5 37z" glyph-name="eight.sinf" horiz-adv-x="831"/><glyph d="M221 -186q229 0 279 264q-119 -84 -235 -84t-181.5 71.5t-43.5 195.5t123 200t232 76q174 0 243 -106.5t34 -301.5q-41 -238 -168 -345.5t-285 -107.5t-246 72l78 117q76 -51 170 -51zM379 395q-70 0 -119 -35.5t-60 -99.5t18.5 -100.5t88.5 -36.5t118.5 21.5t90.5 56.5 q12 94 -27.5 144t-109.5 50z" glyph-name="nine.sinf" horiz-adv-x="835"/><glyph d="M626 1726q157 0 235.5 -107.5t41.5 -318.5t-154.5 -320.5t-273.5 -109.5t-232.5 108.5t-39.5 320.5t151.5 319.5t271.5 107.5zM500 1006q182 0 234 292t-130 293q-182 0 -234 -292.5t130 -292.5z" glyph-name="zero.superior" horiz-adv-x="835"/><glyph d="M600 1026h174l-22 -135h-506l24 135h174l91 510l-173 -68l-32 117l282 125h109z" glyph-name="one.superior" horiz-adv-x="835"/><glyph d="M598 1726q149 0 218 -64.5t54 -166.5q-23 -182 -290 -358l-160 -107h391l-25 -139h-593l22 127l266 186q193 135 211 260q8 55 -26.5 87t-100.5 32q-104 0 -213 -74l-53 117q150 100 299 100z" glyph-name="two.superior" horiz-adv-x="835"/><glyph d="M600 1729q152 0 220.5 -57.5t56.5 -145.5q-6 -63 -56.5 -117.5t-130.5 -77.5q172 -37 152 -192q-14 -119 -123 -196t-271 -77t-276 92l84 123q100 -73 202 -73q196 1 218 131q10 61 -28 88.5t-134 27.5h-92l22 125h76q78 0 127 30t57 79t-23.5 75.5t-119.5 26.5t-203 -80 l-53 107q143 111 295 111z" glyph-name="three.superior" horiz-adv-x="835"/><glyph d="M743 1217h125l-22 -125h-125l-35 -201h-151l34 201h-385l23 122l493 498h131zM369 1217h223l49 282z" glyph-name="four.superior" horiz-adv-x="835"/><glyph d="M613 1417q104 0 170.5 -71.5t44.5 -195.5t-131 -204t-261 -80t-250 80l76 115q90 -57 184 -57t149 42t67 108t-25 103t-118 37t-146 -55l-97 43l74 420h516l-22 -139h-365l-33 -183q63 37 167 37z" glyph-name="five.superior" horiz-adv-x="835"/><glyph d="M655 1591q-211 0 -260 -274q102 86 223 86t188.5 -67.5t45.5 -189.5t-120.5 -201t-231.5 -79q-349 0 -276 426q38 222 166 329.5t281 107.5t247 -76l-82 -117q-68 55 -181 55zM582 1272q-56 0 -115 -27.5t-90 -64.5q-10 -84 27.5 -132.5t110.5 -48.5t120 40.5t57 98.5 t-22 96t-88 38z" glyph-name="six.superior" horiz-adv-x="835"/><glyph d="M903 1579l-459 -688h-168l443 668h-424l24 143h607z" glyph-name="seven.superior" horiz-adv-x="835"/><glyph d="M474 866q-144 0 -224 73t-62 179q29 150 189 209q-109 53 -86 178q16 98 111.5 161t226.5 63t203.5 -63t54.5 -161q-20 -125 -154 -178q141 -59 115 -209q-16 -106 -123 -179t-251 -73zM606 1599q-62 0 -109 -28.5t-55 -80.5t27 -79t98 -27q144 0 164 109 q8 47 -27.5 76.5t-97.5 29.5zM547 1266q-76 0 -129 -37t-63.5 -96.5t27.5 -96.5t118 -37t128 36.5t59 96.5t-26.5 97t-113.5 37z" glyph-name="eight.superior" horiz-adv-x="831"/><glyph d="M432 1004q229 0 279 264q-119 -84 -235 -84t-182 71.5t-44 195.5t123.5 199.5t232.5 75.5q174 0 243 -106.5t34 -300.5q-41 -238 -168 -345.5t-285 -107.5t-246 72l78 117q76 -51 170 -51zM589.5 1585q-69.5 0 -118.5 -36t-60 -100t18.5 -100t88.5 -36t118.5 21.5 t90.5 56.5q12 94 -28 144t-109.5 50z" glyph-name="nine.superior" horiz-adv-x="835"/><glyph d="M784 1118q190 0 323.5 -125t133.5 -344q0 -303 -203.5 -492.5t-470.5 -189.5q-207 0 -341 129.5t-134 343.5t98.5 369.5t251 232t342.5 76.5zM737 944q-180 0 -311 -129t-131 -342q0 -154 84 -244t217 -90q174 0 309 137.5t135 346.5q0 150 -85 235.5t-218 85.5z" glyph-name="zero.tnum.oldstyle" horiz-adv-x="1331"/><glyph d="M983 156l-29 -160h-684l29 160h250l127 702l-291 -149l-57 139l438 227h139l-166 -919h244z" glyph-name="one.tnum.oldstyle" horiz-adv-x="1331"/><glyph d="M749 1114q205 0 307.5 -81t102.5 -208t-87 -224t-335 -257l-274 -176h606l-29 -168h-870l29 160l391 246q231 156 287 208q73 74 73 155t-59.5 129t-175.5 48q-176 1 -328 -110l-68 133q225 145 430 145z" glyph-name="two.tnum.oldstyle" horiz-adv-x="1331"/><glyph d="M739 1100q217 0 329 -93.5t112 -220.5q0 -266 -326 -364v-6q119 -27 193.5 -113t74.5 -207q0 -190 -176 -335.5t-481 -145.5t-479 168l108 139q150 -127 373 -127t337 98.5t114 212.5q0 213 -351 213h-141l29 164h118q186 0 291 73t105 183q0 82 -73 132.5t-196 50.5 q-217 -1 -403 -136l-80 146q233 168 522 168z" glyph-name="three.tnum.oldstyle" horiz-adv-x="1331"/><glyph d="M1163 12h-219l-65 -372h-195l61 372h-720l26 142l916 942h168l-162 -922h219zM268 174h510l119 655z" glyph-name="four.tnum.oldstyle" horiz-adv-x="1331"/><glyph d="M710 551q186 0 292 -101.5t106 -273.5q0 -207 -119 -335t-249 -179t-291 -51q-266 0 -439 127l99 153q143 -98 358 -98t325.5 107.5t110.5 255.5q0 233 -274 233q-170 0 -332 -110l-125 81l129 715h879l-33 -184h-688l-76 -424q141 84 327 84z" glyph-name="five.tnum.oldstyle" horiz-adv-x="1331"/><glyph d="M884 1288q-194 0 -352.5 -146.5t-195.5 -422.5q215 180 471 180q174 0 296 -99.5t122 -287.5q0 -227 -175.5 -383t-417.5 -154t-378.5 154t-136.5 403q0 366 145.5 569.5t301 284t347.5 80.5q236 1 400 -118l-109 -152q-124 92 -318 92zM744 727q-120 0 -230.5 -51 t-191.5 -141q-14 -141 66.5 -260t243.5 -121t273.5 96t110.5 244q0 113 -76 173t-196 60z" glyph-name="six.tnum.oldstyle" horiz-adv-x="1331"/><glyph d="M399 -362h-219l850 1259h-815l31 180h1028l-31 -174z" glyph-name="seven.tnum.oldstyle" horiz-adv-x="1331"/><glyph d="M823 1462q205 0 321 -92t116 -242q0 -113 -75 -208t-214 -150q98 -35 156.5 -115t58.5 -190q0 -199 -164 -346.5t-457 -147.5q-225 0 -347 104.5t-122 252.5t93.5 269.5t259.5 174.5q-183 82 -183 257t145.5 304t411.5 129zM1053 1098q-1 188 -277 188 q-138 0 -223.5 -70.5t-85.5 -167.5q1 -196 273 -196q138 0 225.5 76t87.5 170zM692 688q-188 0 -287.5 -95t-99.5 -203t72.5 -173t238.5 -65t265.5 93t99.5 207t-78 175t-211 61z" glyph-name="eight.tnum.oldstyle" horiz-adv-x="1331"/><glyph d="M442 -213q190 0 337 137t204 432q-117 -96 -223.5 -137t-241.5 -41q-188 0 -301 111.5t-86 323.5t196 347.5t400 135.5q270 0 390 -160t77 -483q-57 -420 -268 -631t-527 -211q-220 0 -376 102l90 154q139 -80 329 -80zM711 918q-139 0 -248 -82t-128 -208t45 -198 t189 -72t250 52.5t187 134.5q25 184 -65.5 278.5t-229.5 94.5z" glyph-name="nine.tnum.oldstyle" horiz-adv-x="1331"/><glyph d="M691 1118q214 0 336 -145.5t87 -394.5q-35 -276 -215 -443.5t-394 -167.5t-335 151.5t-87 414.5t214 424t394 161zM666 950q-137 0 -251 -112.5t-142 -297.5t46 -295t210 -110t251 120t143 303t-46 287.5t-211 104.5z" glyph-name="zero.oldstyle" horiz-adv-x="1193"/><glyph d="M825 156l-28 -160h-684l28 160h250l127 702l-291 -149l-57 139l438 227h140l-166 -919h243z" glyph-name="one.oldstyle" horiz-adv-x="1030"/><glyph d="M254 840l-70 125q211 150 428 149q182 0 276.5 -90t79.5 -211t-95 -215t-287 -246l-258 -190h549l-27 -162h-805l25 131l352 266q218 165 276 225t68 140t-45 135t-160 55q-168 1 -307 -112z" glyph-name="two.oldstyle" horiz-adv-x="1079"/><glyph d="M692 1100q217 0 329 -93.5t112 -220.5q0 -266 -326 -364v-6q119 -27 193.5 -113t74.5 -207q0 -190 -176 -335.5t-481 -145.5t-479 168l108 139q150 -127 373 -127t336.5 98.5t113.5 212.5q0 213 -350 213h-141l29 164h118q186 0 291 73t105 183q0 82 -73 132.5t-196 50.5 q-217 -1 -403 -136l-80 146q233 168 522 168z" glyph-name="three.oldstyle" horiz-adv-x="1230"/><glyph d="M1159 12h-219l-66 -372h-194l61 372h-721l27 142l916 942h167l-161 -922h219zM264 174h510l119 655z" glyph-name="four.oldstyle" horiz-adv-x="1323"/><glyph d="M686 551q186 0 292.5 -101.5t106.5 -273.5q0 -208 -118.5 -335.5t-248.5 -178.5t-292 -51q-266 0 -438 127l98 153q142 -98 358 -98t326.5 107.5t110.5 255.5q0 233 -275 233q-170 0 -332 -110l-124 81l129 715h878l-33 -184h-688l-76 -424q140 84 326 84z" glyph-name="five.oldstyle" horiz-adv-x="1275"/><glyph d="M904 1288q-194 0 -352.5 -146.5t-195.5 -422.5q215 180 471 180q174 0 296 -99.5t122 -287.5q0 -227 -175.5 -383t-417.5 -154t-378.5 154t-136.5 403q0 364 145.5 568.5t301 285t369.5 80.5t378 -118l-108 -152q-125 92 -319 92zM765 727q-120 0 -230.5 -51t-192.5 -141 q-14 -141 66.5 -260t243.5 -121t273.5 96t110.5 244q0 113 -75.5 173t-195.5 60z" glyph-name="six.oldstyle" horiz-adv-x="1376"/><glyph d="M303 -365h-219l850 1260h-815l31 180h1028l-31 -174z" glyph-name="seven.oldstyle" horiz-adv-x="1148"/><glyph d="M778 1462q205 0 320.5 -92t115.5 -242q0 -113 -74.5 -208t-213.5 -150q98 -35 156.5 -115t58.5 -190q0 -199 -164 -346.5t-457 -147.5q-225 0 -347 104.5t-122 252.5t93.5 269.5t258.5 174.5q-182 82 -182 257t145.5 304t411.5 129zM1008 1098q0 188 -276 188 q-138 0 -224 -70.5t-86 -167.5q0 -196 272 -196q138 0 226 76t88 170zM647 688q-188 0 -287.5 -95t-99.5 -203t73 -173t239 -65t265 93t99 207t-78 175t-211 61z" glyph-name="eight.oldstyle" horiz-adv-x="1241"/><glyph d="M388 -213q190 0 337 137t205 432q-117 -96 -223.5 -137t-241.5 -41q-188 0 -301 111.5t-86 323.5t195.5 347.5t400.5 135.5q270 0 390 -160t77 -483q-57 -420 -268 -631t-527 -211q-221 0 -377 102l90 154q139 -80 329 -80zM657 918q-139 0 -247.5 -82t-127.5 -208 t45 -198t189 -72t250 52.5t186 134.5q25 184 -65.5 278.5t-229.5 94.5z" glyph-name="nine.oldstyle" horiz-adv-x="1228"/><glyph d="M825 1460q223 0 341 -147.5t118 -409.5q0 -160 -50 -321.5t-139 -299t-230.5 -224.5t-309.5 -87q-221 0 -339 141.5t-118 415.5q0 330 133.5 544t276.5 301t317 87zM795 1280q-100 0 -217 -68t-195 -270t-78 -389q0 -403 285 -403q117 0 214 72.5t186 246.5t89 408 q1 403 -284 403z" glyph-name="zero.case" horiz-adv-x="1368"/><glyph d="M936 0h-881l33 174h350l189 1040l-348 -155l-52 149l486 232h151l-229 -1266h332z" glyph-name="one.case" horiz-adv-x="1132"/><glyph d="M750 1462q207 0 327.5 -99t120.5 -249t-82 -275.5t-315 -301.5l-467 -355h751l-32 -182h-1016l31 170l565 432q197 147 272.5 253t75.5 206t-79 157.5t-214 57.5q-207 0 -383 -121l-69 145q242 162 514 162z" glyph-name="two.case" horiz-adv-x="1277"/><glyph d="M752 1460q217 0 328.5 -93t111.5 -220q0 -265 -326 -365v-6q119 -27 194 -112.5t75 -206.5q0 -190 -176.5 -336t-481.5 -146t-479 168l108 140q150 -127 373 -127t337 98t114 213q0 213 -350 213h-142l29 164h119q186 0 290.5 72.5t104.5 183.5q0 82 -72.5 132t-195.5 50 q-218 0 -404 -135l-80 145q233 168 523 168z" glyph-name="three.case" horiz-adv-x="1230"/><glyph d="M1202 373h-219l-65 -373h-195l61 373h-721l27 141l916 942h168l-162 -921h219zM307 535h510l119 655z" glyph-name="four.case" horiz-adv-x="1323"/><glyph d="M752 915q186 0 292.5 -101t106.5 -273q0 -207 -119 -335t-249 -179.5t-291 -51.5q-266 0 -439 127l99 154q143 -98 358 -98t325.5 107.5t110.5 254.5q0 233 -274 234q-168 0 -332 -111l-125 82l129 715h879l-33 -185h-688l-76 -424q140 84 326 84z" glyph-name="five.case" horiz-adv-x="1275"/><glyph d="M904 1288q-194 0 -352.5 -146.5t-195.5 -422.5q215 180 471 180q174 0 296 -99.5t122 -287.5q0 -227 -175.5 -383t-417.5 -154t-378.5 154t-136.5 403q0 364 145.5 568.5t301 285t369.5 80.5t378 -118l-108 -152q-125 92 -319 92zM765 727q-120 0 -230.5 -51t-192.5 -141 q-14 -141 66.5 -260t243.5 -121t273.5 96t110.5 244q0 113 -75.5 173t-195.5 60z" glyph-name="six.case" horiz-adv-x="1378"/><glyph d="M369 0h-219l849 1260h-815l31 180h1028l-31 -174z" glyph-name="seven.case" horiz-adv-x="1148"/><glyph d="M778 1462q205 0 320.5 -92t115.5 -242q0 -113 -74.5 -208t-213.5 -150q98 -35 156.5 -115t58.5 -190q0 -199 -164 -346.5t-457 -147.5q-225 0 -347 104.5t-122 252.5t93.5 269.5t258.5 174.5q-182 82 -182 257t145.5 304t411.5 129zM1008 1098q0 188 -276 188 q-138 0 -224 -70.5t-86 -167.5q0 -196 272 -196q138 0 226 76t88 170zM647 688q-188 0 -287.5 -95t-99.5 -203t73 -173t239 -65t265 93t99 207t-78 175t-211 61z" glyph-name="eight.case" horiz-adv-x="1241"/><glyph d="M530 543q-188 0 -300 111.5t-86 323.5t195 347t400 135q270 0 390 -159.5t77 -483.5q-57 -420 -268 -631t-526 -211q-221 1 -377 103l90 153q139 -79 329 -79t337 137t204 432q-117 -96 -223 -137t-242 -41zM723 1282q-139 0 -247 -82t-128 -208t44.5 -197.5t189.5 -71.5 t249.5 52t186.5 134q25 184 -65.5 278.5t-229.5 94.5z" glyph-name="nine.case" horiz-adv-x="1228"/><glyph d="M797 1462q215 0 328.5 -147.5t113.5 -407.5q0 -160 -48 -322.5t-135 -301t-225.5 -225.5t-300.5 -87q-215 0 -328.5 141.5t-113.5 413.5q0 337 131 549.5t270.5 299.5t307.5 87zM762 1280q-117 0 -210 -72.5t-173 -246t-80 -410.5q0 -397 266 -397q145 0 255 126 t159 287.5t49 313.5q0 399 -266 399z" glyph-name="zero.tnum" horiz-adv-x="1331"/><glyph d="M1010 0h-881l33 174h350l190 1040l-350 -155l-51 149l485 232h152l-229 -1266h331z" glyph-name="one.tnum" horiz-adv-x="1331"/><glyph d="M743 1462q207 0 328 -99t121 -249t-82 -275.5t-315 -301.5l-467 -355h751l-32 -182h-1016l30 170l566 432q197 147 272.5 253t75.5 206t-79 157.5t-214 57.5q-207 0 -383 -121l-70 145q242 162 514 162z" glyph-name="two.tnum" horiz-adv-x="1331"/><glyph d="M745 1460q217 0 329 -93t112 -220q0 -265 -326 -365v-6q119 -27 193.5 -112.5t74.5 -206.5q0 -190 -176 -336t-481 -146t-479 168l108 140q150 -127 373 -127t337 98t114 213q0 213 -351 213h-141l29 164h119q186 0 290.5 72.5t104.5 183.5q0 82 -73 132t-195 50 q-218 0 -404 -135l-80 145q233 168 522 168z" glyph-name="three.tnum" horiz-adv-x="1331"/><glyph d="M1149 373h-219l-66 -373h-194l61 373h-721l27 141l915 942h168l-162 -921h220zM254 535h510l119 655z" glyph-name="four.tnum" horiz-adv-x="1331"/><glyph d="M746 915q186 0 292.5 -101t106.5 -273q0 -207 -119 -335t-249 -179.5t-292 -51.5q-266 0 -438 127l98 154q143 -98 359 -98t326 107.5t110 254.5q0 233 -274 234q-170 0 -332 -111l-125 82l129 715h879l-33 -185h-688l-76 -424q140 84 326 84z" glyph-name="five.tnum" horiz-adv-x="1331"/><glyph d="M857 1288q-194 0 -352.5 -146.5t-195.5 -422.5q215 180 471 180q174 0 296 -99.5t122 -287.5q0 -227 -175 -383t-417 -154t-379 154t-137 403q0 366 145.5 569.5t301 284t369.5 80.5t378 -118l-108 -152q-125 92 -319 92zM718 727q-120 0 -230.5 -51t-192.5 -141 q-14 -141 66.5 -260t243.5 -121t273.5 96t110.5 244q0 113 -75.5 173t-195.5 60z" glyph-name="six.tnum" horiz-adv-x="1331"/><glyph d="M1323 1245l-901 -1245h-248l938 1260h-885l31 180h1096z" glyph-name="seven.tnum" horiz-adv-x="1331"/><glyph d="M795 1462q205 0 320.5 -92t115.5 -242q0 -113 -75 -208t-214 -150q98 -35 156.5 -115t58.5 -190q0 -199 -164 -346.5t-456 -147.5q-225 0 -347 104.5t-122 252.5t93 269.5t259 174.5q-182 82 -182 257t145.5 304t411.5 129zM1024 1098q0 188 -276 188q-138 0 -224 -70.5 t-86 -167.5q0 -196 272 -196q138 0 226 76t88 170zM664 688q-188 0 -288 -95t-100 -203t73 -173t239 -65t265 93t99 207t-77.5 175t-210.5 61z" glyph-name="eight.tnum" horiz-adv-x="1331"/><glyph d="M528 543q-188 0 -300 111.5t-86 323.5t195 347t400 135q270 0 390 -159.5t77 -483.5q-57 -420 -268 -631t-526 -211q-221 1 -377 103l90 153q139 -79 329 -79t337 137t204 432q-117 -96 -223 -137t-242 -41zM721 1282q-139 0 -247 -82t-128 -208t44.5 -197.5t189.5 -71.5 t249.5 52t186.5 134q25 184 -65.5 278.5t-229.5 94.5z" glyph-name="nine.tnum" horiz-adv-x="1331"/><glyph d="M468 829q157 0 235.5 -107.5t41.5 -318.5t-154.5 -320.5t-273 -109.5t-232.5 108.5t-40 320.5t151.5 319.5t271.5 107.5zM343 109q181 1 233 293t-130 292t-233 -292.5t130 -292.5z" glyph-name="zero.dnom" horiz-adv-x="835"/><glyph d="M614 129l-22 -135h-506l25 135h174l90 510l-172 -68l-33 117l283 125h108l-121 -684h174z" glyph-name="one.dnom" horiz-adv-x="835"/><glyph d="M440 829q150 0 218.5 -64.5t54.5 -166.5q-23 -182 -291 -358l-160 -107h391l-24 -139h-594l22 127l267 186q193 135 211 260q8 55 -27 87t-100 32q-104 0 -213 -74l-54 117q149 100 299 100z" glyph-name="two.dnom" horiz-adv-x="835"/><glyph d="M291 -31q-162 0 -277 92l84 123q100 -74 202 -74q196 1 218 132q10 61 -27.5 88.5t-134.5 27.5h-92l23 125h75q78 0 127.5 30t56.5 79t-23.5 75.5t-118.5 26.5t-203 -80l-54 107q143 111 296 111t220.5 -57.5t55.5 -145.5q-6 -63 -56.5 -117.5t-130.5 -77.5 q172 -37 152 -192q-14 -119 -122.5 -196t-270.5 -77z" glyph-name="three.dnom" horiz-adv-x="835"/><glyph d="M711 322l-23 -125h-125l-35 -201h-151l35 201h-385l22 122l494 498h131l-88 -495h125zM434 322l49 282l-272 -282h223z" glyph-name="four.dnom" horiz-adv-x="835"/><glyph d="M457 520q102 0 168.5 -71.5t44.5 -195.5t-131 -204t-261 -80t-249 80l75 115q90 -58 184 -58t149 42t67 108t-25 103.5t-117 37.5t-147 -55l-96 43l74 420h516l-23 -139h-364l-33 -183q66 37 168 37z" glyph-name="five.dnom" horiz-adv-x="835"/><glyph d="M496 694q-211 0 -260 -274q102 86 222 86t188.5 -67.5t45.5 -189.5t-121 -201t-231 -79q-348 1 -276 427q38 222 166 328.5t300 106.5q134 1 228 -75l-82 -117q-68 55 -180 55zM424 375q-56 0 -116 -28t-91 -64q-10 -84 28.5 -132.5t110.5 -48.5t119 40t57 98t-21 96.5 t-87 38.5z" glyph-name="six.dnom" horiz-adv-x="835"/><glyph d="M287 -6h-168l442 668h-424l25 143h606l-23 -123z" glyph-name="seven.dnom" horiz-adv-x="835"/><glyph d="M314 -31q-144 0 -224 73t-61 179q29 150 188 209q-109 53 -86 178q16 98 111.5 160.5t226.5 62.5t203.5 -62.5t54.5 -160.5q-20 -125 -154 -178q141 -59 115 -209q-16 -106 -123 -179t-251 -73zM446 702q-62 0 -108.5 -28.5t-54.5 -80.5t26.5 -79t98.5 -27q143 0 163 109 q8 47 -27.5 76.5t-97.5 29.5zM387 369q-76 0 -129 -37t-63.5 -96.5t27.5 -96.5t118 -37t128 36.5t59 96.5t-26.5 97t-113.5 37z" glyph-name="eight.dnom" horiz-adv-x="831"/><glyph d="M318 287q-116 0 -181 71.5t-44 195.5t122.5 199.5t233.5 75.5q174 0 242.5 -106.5t33.5 -300.5q-41 -238 -168 -345.5t-285 -107.5t-245 72l77 117q76 -51 170 -52q229 0 279 265q-119 -84 -235 -84zM432 688q-70 0 -119 -36t-60 -100t18.5 -100t88.5 -36t119 21.5 t90 56.5q12 94 -27.5 144t-109.5 50z" glyph-name="nine.dnom" horiz-adv-x="835"/><glyph d="M577 1442q157 0 235.5 -107.5t41.5 -318.5t-154.5 -320.5t-273.5 -109.5t-232.5 108.5t-39.5 320.5t151.5 319.5t271.5 107.5zM555 1307q-182 0 -233.5 -293t130.5 -293t232 293q53 293 -129 293z" glyph-name="zero.numr" horiz-adv-x="835"/><glyph d="M760 743l-23 -135h-506l25 135h174l90 510l-172 -67l-33 117l283 124h109l-121 -684h174z" glyph-name="one.numr" horiz-adv-x="835"/><glyph d="M303 1227l-53 116q150 101 299 101t218 -64.5t54 -167.5q-23 -182 -291 -358l-159 -106h391l-25 -140h-594l23 127l266 187q193 135 211 260q8 55 -26.5 86.5t-100.5 31.5q-104 1 -213 -73z" glyph-name="two.numr" horiz-adv-x="835"/><glyph d="M552 1446q152 0 220 -57.5t55 -145.5q-6 -63 -56 -117.5t-130 -76.5q172 -37 152 -193q-14 -119 -122.5 -195.5t-270.5 -76.5t-277 92l84 123q101 -74 203 -74q193 0 217 131q10 61 -28 89t-134 28h-92l22 125h76q78 0 127 29.5t56 78.5t-23.5 76t-118.5 27t-203 -80 l-53 106q144 111 296 111z" glyph-name="three.numr" horiz-adv-x="835"/><glyph d="M817 934l-22 -125h-125l-35 -201h-152l35 201h-385l23 123l493 498h131l-88 -496h125zM541 934l49 283l-273 -283h224z" glyph-name="four.numr" horiz-adv-x="835"/><glyph d="M562 1135q104 0 170.5 -72t44.5 -196t-131 -203.5t-261 -79.5t-250 80l76 114q91 -57 185 -57t148 42t66 108t-24.5 103.5t-117.5 37.5t-146 -56l-97 43l74 420h516l-22 -139h-365l-33 -182q63 37 167 37z" glyph-name="five.numr" horiz-adv-x="835"/><glyph d="M567 1120q121 0 188 -67.5t45 -189.5t-120 -200.5t-248 -78.5t-223.5 102t-35.5 324t166 329t300 107q133 0 227 -76l-82 -117q-68 55 -180 56q-211 0 -260 -275q102 86 223 86zM532 989q-56 0 -116 -27.5t-90 -64.5q-10 -84 27.5 -132t110.5 -48t120 40t57 98t-21.5 96 t-87.5 38z" glyph-name="six.numr" horiz-adv-x="835"/><glyph d="M395 608h-168l443 668h-424l24 143h607l-23 -123z" glyph-name="seven.numr" horiz-adv-x="835"/><glyph d="M462 584q-144 0 -224 72.5t-62 179.5q29 150 189 208q-109 53 -86 179q16 98 111 160.5t226.5 62.5t203.5 -62.5t54 -160.5q-20 -125 -153 -179q141 -59 115 -208q-16 -106 -123 -179t-251 -73zM593 1317q-62 0 -108.5 -28.5t-54.5 -80.5t27 -79t98 -27q144 -1 164 108 q8 47 -28 77t-98 30zM534.5 983q-75.5 0 -129 -37t-63.5 -96t28 -96t117.5 -37t128 36t59.5 96t-27 97t-113.5 37z" glyph-name="eight.numr" horiz-adv-x="831"/><glyph d="M381 721q229 0 278 264q-119 -84 -235 -84t-181 71.5t-43 195.5t123 200t232 76q174 0 242.5 -106.5t33.5 -301.5q-41 -238 -167.5 -345t-284.5 -107t-246 71l78 117q76 -51 170 -51zM538.5 1303q-69.5 0 -118 -36.5t-60.5 -100.5t18 -100t89 -36t118.5 21.5t90.5 56.5 q12 94 -28 144.5t-109.5 50.5z" glyph-name="nine.numr" horiz-adv-x="835"/><glyph d="M735 1180q190 0 306 -118t116 -366q0 -166 -55 -306t-147.5 -229t-208 -139.5t-236.5 -50.5q-188 0 -303 122t-115 372q0 330 191.5 522.5t451.5 192.5zM700 1008q-180 0 -293.5 -153t-113.5 -378q0 -328 254 -327q182 0 294.5 153.5t112.5 378.5q0 326 -254 326z" glyph-name="zero.sc" horiz-adv-x="1234"/><glyph d="M803 166l-31 -166h-663l30 166h242l143 790l-272 -118l-41 139l397 197h140l-185 -1008h240z" glyph-name="one.sc" horiz-adv-x="993"/><glyph d="M616 1190q198 0 293 -95.5t66 -252.5q-20 -119 -104.5 -213t-262.5 -236l-282 -219h559l-31 -174h-799l29 158l367 293q20 16 73.5 58t69.5 55.5t53 45t49.5 48t39.5 53t36 98.5q16 100 -42 151.5t-190 51.5t-261 -90l-58 141q197 127 395 127z" glyph-name="two.sc" horiz-adv-x="1091"/><glyph d="M614 1188q193 0 277 -80t61 -197q-16 -94 -82.5 -169.5t-162.5 -110.5v-6q102 -16 156.5 -93t33.5 -184q-31 -166 -175 -268.5t-345 -102.5q-256 0 -381 136l108 137q116 -100 266 -100t234 59t102 151t-43 133.5t-202 41.5h-142l27 149h123q115 0 191.5 45t93.5 133 q10 68 -43.5 113t-155.5 45q-145 0 -295 -100l-61 133q178 135 415 135z" glyph-name="three.sc" horiz-adv-x="1028"/><glyph d="M985 442l-24 -151h-166l-58 -291h-180l49 291h-545l21 133l715 741h153l-131 -723h166zM727 909l-442 -467h354z" glyph-name="four.sc" horiz-adv-x="1112"/><glyph d="M396 -23q-214 0 -328 105l98 149q102 -81 240 -81t222.5 62t103.5 166t-33.5 158t-162.5 54t-241 -90l-109 71l109 603h706l-32 -179h-529l-61 -327q102 68 253 68t237.5 -91.5t52.5 -268.5t-173 -288t-353 -111z" glyph-name="five.sc" horiz-adv-x="1099"/><glyph d="M730 1020q-138 0 -244.5 -99.5t-151.5 -322.5q174 141 340 141t259 -93t62 -264t-170 -288t-319 -117q-221 0 -317.5 146.5t-42.5 450.5t222.5 457t382.5 153t341 -99l-115 -141q-109 76 -247 76zM614 578q-166 0 -297 -142q-16 -133 41.5 -212t165.5 -79t184 64.5 t92.5 163t-36 152t-150.5 53.5z" glyph-name="six.sc" horiz-adv-x="1161"/><glyph d="M958 1004l-647 -1004h-198l645 995h-606l30 170h805z" glyph-name="seven.sc" horiz-adv-x="958"/><glyph d="M645 1184q176 0 270.5 -83t67.5 -218q-18 -94 -76.5 -162t-142.5 -96q84 -33 127 -114t24 -185q-29 -156 -161.5 -255.5t-331.5 -99.5t-294 98.5t-67 256.5q20 104 94 186t169 111q-74 33 -111 100.5t-18 159.5q25 135 149.5 218t300.5 83zM616.5 1020q-94.5 0 -159 -43 t-77.5 -118t37 -119t138 -44t153.5 44t78.5 119t-31.5 118t-139 43zM527 549q-103 0 -182 -57.5t-94 -146.5t38 -146.5t166 -57.5t182.5 56.5t85.5 147.5t-38.5 147.5t-157.5 56.5z" glyph-name="eight.sc" horiz-adv-x="1052"/><glyph d="M367 141q141 0 252.5 105.5t154.5 324.5q-156 -139 -348 -139q-147 0 -238.5 89t-67.5 266t161 289t315 112q217 0 314.5 -134t60.5 -401q-25 -180 -87.5 -315t-195 -248t-354.5 -113q-157 0 -309 84l86 146q115 -66 256 -66zM577.5 1020q-102.5 0 -179 -61.5t-91 -157.5 t32.5 -149.5t138 -53.5t180.5 38t136.5 99q16 139 -49.5 212t-168 73z" glyph-name="nine.sc" horiz-adv-x="1036"/><glyph d="M709 1837l96 -84q-231 -199 -277 -459t109 -450l-109 -74q-205 207 -147 547q58 311 328 520z" glyph-name="glyph607" horiz-adv-x="608"/><glyph d="M449 1761l108 70q207 -217 151 -541t-329 -528l-94 90q231 201 277 460t-113 449z" glyph-name="glyph608" horiz-adv-x="608"/><glyph d="M915 1282h-509l24 139h508z" glyph-name="glyph609" horiz-adv-x="903"/><glyph d="M379 385h-148l103 778h215zM240 -6q-106 0 -105 114q0 60 43.5 98t93.5 38q107 0 107 -101q0 -70 -44.5 -109.5t-94.5 -39.5z" glyph-name="exclam.aalt" horiz-adv-x="661"/><glyph d="M566 1122q106 0 106 -114q0 -60 -43.5 -98t-93.5 -38q-107 0 -107 112q0 60 44 99t94 39zM575 731l-102 -778h-215l170 778h147z" glyph-name="exclamdown.aalt" horiz-adv-x="657"/><glyph d="M637 1333l53 -88q-37 -29 -54.5 -42t-68.5 -61t-118 -136t-123 -234.5t-60 -337.5q-10 -302 71 -423.5t109 -149.5l-84 -88q-37 33 -58 53t-69.5 84.5t-76 129t-48 171t-14.5 225.5q11 339 123.5 493t149.5 195t124 111t144 98z" glyph-name="parenleft.aalt" horiz-adv-x="647"/><glyph d="M629 706q0 -152 -48.5 -304t-105.5 -245.5t-150.5 -186.5t-134 -122.5t-106.5 -74.5l-55 88q43 33 85 70.5t109.5 119.5t115.5 172t85 224.5t37 277.5q-1 338 -187 520l84 88q47 -39 80 -72.5t84 -107.5t79 -184.5t28 -262.5z" glyph-name="parenright.aalt" horiz-adv-x="737"/><glyph d="M860 979q0 -88 -34.5 -153.5t-86 -111.5t-143.5 -119t-107 -151l-10 -49h-166l9 39q14 80 70.5 148.5t113.5 109.5t103 99.5t46 121.5q0 113 -155 113q-127 0 -236 -74l-61 131q162 106 360 107q141 0 219 -61.5t78 -149.5zM329 -8q-108 0 -108 114q0 60 44.5 98t94.5 38 q107 0 107 -99q0 -74 -44 -112.5t-94 -38.5z" glyph-name="question.aalt" horiz-adv-x="897"/><glyph d="M649 1143q49 0 82 -31t26 -90t-46 -91t-91 -32t-82 31t-23 90t46 91t88 32zM469 160q141 0 250 69l65 -133q-160 -102 -364 -102q-150 0 -226.5 70.5t-60.5 185.5q8 76 63.5 145.5t167.5 149t130 166.5l8 47h166l-9 -43q-23 -115 -96.5 -174.5t-144.5 -118t-86 -156.5 q-6 -45 29.5 -75.5t107.5 -30.5z" glyph-name="questiondown.aalt" horiz-adv-x="927"/><glyph d="M631 756q-129 0 -219 -94.5t-90 -264.5q0 -117 60 -180t173 -63t233 88l52 -123q-127 -106 -305 -121l-23 -180h-143l39 188q-121 29 -197 128t-76 249q0 219 120 357.5t318 164.5l27 185h150l-43 -181q149 -14 235 -96l-92 -133q-90 76 -219 76z" glyph-name="cent.oldstyle" horiz-adv-x="1142"/><glyph d="M596 1036q-102 0 -164.5 -51t-62.5 -135q0 -38 12 -56t20.5 -28t26.5 -22.5t29.5 -19.5t37 -19.5t39 -18.5t45 -20.5t46.5 -20.5q115 -51 173 -112.5t58 -157.5q0 -164 -115.5 -272.5t-300.5 -125.5l-41 -170h-153l55 175q-166 20 -270 102l84 143q135 -86 276 -86 t208 54.5t67 130.5t-54.5 112.5t-176.5 89.5t-187.5 118t-65.5 173q0 152 109.5 254.5t281.5 114.5l23 102h160l-35 -108q135 -23 233 -105l-100 -133q-109 92 -258 92z" glyph-name="dollar.aalt" horiz-adv-x="1030"/><glyph d="M383 -29q-133 0 -209 64.5t-76 169t60.5 177.5t195.5 157l29 18q-63 72 -93 126t-30 122q0 137 104 230t250 93t221.5 -61t75.5 -155.5t-55 -165t-164 -146.5l-69 -47l153 -166l168 250l141 -57l-139 -209q-45 -66 -65 -97l153 -165l-141 -117l-129 145 q-166 -166 -381 -166zM733 881q0 43 -34.5 70.5t-103.5 27.5t-115 -44t-46 -107.5t98 -176.5l19 13q182 113 182 217zM281 230q0 -52 37.5 -81.5t109.5 -29.5q125 0 240 123l-191 213l-43 -31q-84 -57 -118.5 -99.5t-34.5 -94.5z" glyph-name="ampersand.aalt" horiz-adv-x="1259"/><glyph d="M631 756q-129 0 -219 -94.5t-90 -264.5q0 -117 60 -180t173 -63t233 88l52 -123q-127 -106 -305 -121l-23 -180h-143l39 188q-121 29 -197 128t-76 249q0 219 120 357.5t318 164.5l27 185h150l-43 -181q149 -14 235 -96l-92 -133q-90 76 -219 76z" glyph-name="cent.sc" horiz-adv-x="1142"/><glyph d="M424 1124q118 0 182 -58t64 -163q0 -143 -94 -229t-212 -86t-180.5 57t-62.5 162q0 145 92.5 231t210.5 86zM240 0h-119l995 1106h119zM422 1014q-72 0 -116 -52.5t-44 -146.5q0 -119 105 -119q158 0 157 205q0 113 -102 113zM988 520q118 0 180.5 -58.5t62.5 -162.5 q0 -143 -92 -230t-212 -87t-182.5 58t-62.5 163q0 145 94 231t212 86zM985 412q-72 0 -116 -54.5t-44 -148.5q0 -115 103 -115q76 0 116.5 53.5t40.5 149.5q0 115 -100 115z" glyph-name="percent.aalt" horiz-adv-x="1345"/><glyph d="M426 1124q118 0 181 -58t63 -163q0 -145 -92 -230t-212 -85t-182.5 57t-62.5 162q0 145 93.5 231t211.5 86zM242 0h-119l993 1106h119zM422 1014q-72 0 -116 -52.5t-44 -146.5q0 -119 105 -119q158 0 157 205q0 113 -102 113zM988 520q118 0 180.5 -58.5t62.5 -162.5 q0 -143 -92 -230t-230 -87q-100 0 -162.5 58t-62.5 163q0 145 93 231t211 86zM1602 520q118 0 180.5 -58.5t62.5 -162.5q0 -143 -92.5 -230t-210.5 -87t-181 58t-63 163q0 145 93 231t211 86zM985 412q-72 0 -116 -54.5t-44 -148.5q0 -115 103 -115q76 0 116.5 53.5 t40.5 149.5q0 115 -100 115zM1602 412q-74 0 -118 -53.5t-44 -149.5q0 -115 104 -115q76 0 116 53.5t40 149.5q0 115 -98 115z" glyph-name="perthousand.aalt" horiz-adv-x="1959"/><glyph d="M911 934q1 -252 -117 -252t-118 252v74l-268 86l30 116l473 -151v-125zM1372 934q0 -252 -118.5 -252t-118.5 252v125l475 151l30 -116l-268 -86v-74zM1024 496q223 0 392 -119t210 -297h-127q-57 104 -186 171.5t-289 67.5t-289 -67.5t-186 -171.5h-127q41 178 210 297 t392 119z" glyph-name="u1F620.aalt"/><glyph d="M911 989q1 -256 -119 -256t-120 256v15l-240 -119l-31 114l510 254v-264zM1376 989q0 -256 -120 -256t-119 256v264l510 -254l-29 -114l-242 119v-15zM1024 678q276 0 440 -182.5t166 -470.5q-68 49 -244 78.5t-362 29.5q-365 0 -606 -108q4 289 167 471t439 182z M1025 528q-165 0 -288 -77.5t-168 -231.5q185 53 455 53t455 -53q-43 154 -166 231.5t-288 77.5z" glyph-name="u1F627.aalt"/><glyph d="M918 1233l53 -150l-479 -174l-54 150zM1565 909l-480 174l54 150l479 -174zM1389 434q-51 0 -92.5 -36t-65 -77.5t-77.5 -77.5t-129 -36t-128 36t-77.5 77.5t-65.5 77.5t-92 36q-147 0 -207 -172l-111 33q33 119 107.5 208t196.5 86t167 -55.5t87.5 -103.5t109.5 -51 t109 33.5t66.5 73.5t77 73t128.5 31q129 -2 204.5 -90t108.5 -205l-113 -33q-59 172 -204 172z" glyph-name="u1F616.aalt"/><glyph d="M653.5 1198q108.5 0 108.5 -229.5t-108.5 -229.5t-108.5 229.5t108.5 229.5zM1255 1059v-96q0 -164 -130 -164t-130 164v96h260zM592 102l-62 170q330 348 926 336l62 -170q-596 12 -926 -336z" glyph-name="u1F615.aalt"/><glyph d="M742 1016q81 0 96 211h125q-8 -170 -64.5 -260t-155 -90t-158 90t-67.5 260h125q18 -211 99 -211zM1319 475q-82 0 -138.5 56.5t-56.5 118.5t23.5 101.5t54.5 81t39 54.5q-143 53 -156 340h123q18 -211 100 -211t95 211h125q-12 -260 -137 -330q14 -23 40.5 -59.5 t54 -74.5t27.5 -107t-56 -125t-138 -56zM1319 575q41 0 68.5 29t27.5 66t-41 96t-55 92q-14 -33 -54 -91t-40 -96t26.5 -67t67.5 -29zM1024 444q217 0 383 -105.5t207 -264.5h-156q-35 84 -155.5 138t-277.5 54t-278.5 -54t-158.5 -138h-154q41 160 207 265t383 105z" glyph-name="u1F622.aalt"/><glyph d="M952 1100l-409 -219l-68 116l406 222zM1565 997l-68 -116l-410 219l72 119zM1911 660q0 -62 -54.5 -115t-132 -53t-133 53t-55.5 115t39 121t84 126t55 137h19q10 -70 55 -137t84 -126t39 -121zM1632 679q0 -36 25.5 -63.5t66.5 -27.5t66 26.5t25 62.5t-38.5 93t-52.5 90 q-14 -35 -53 -90t-39 -91zM1024 598q223 0 392 -119t210 -297h-127q-57 104 -186 172t-289 68t-289 -68t-186 -172h-127q41 178 210 297t392 119z" glyph-name="u1F625.aalt"/><glyph d="M866 973q0 -244 -114 -244t-113 242l-104 -60v170l391 207v-158l-60 -34v-123zM1295 729q-114 0 -113 244v123l-60 34v158l391 -207v-170l-104 60q0 -242 -114 -242zM1024 598q223 0 392 -119t210 -297h-127q-57 104 -186 172t-289 68t-289 -68t-186 -172h-127 q41 178 210 297t392 119z" glyph-name="u1F61E.aalt"/><glyph d="M915 907h-430v150h430v-150zM1565 907h-430v150h430v-150zM1561 340h-1074v147h1074v-147z" glyph-name="u1F611.aalt"/><glyph d="M730 1268q91 0 148.5 -103.5t63.5 -292.5h-123q-10 141 -30.5 205t-61.5 64t-60.5 -64t-29.5 -205h-123q6 188 65.5 292t150.5 104zM1322 1268q91 0 149.5 -103.5t64.5 -292.5h-125q-14 268 -90 269q-41 0 -61.5 -64t-30.5 -205h-123q6 190 65.5 293t150.5 103zM1024 264 q-205 0 -359.5 114t-191.5 284h139q35 -113 150 -188t262 -75t262 74t152 189h137q-23 -98 -84 -179q135 -283 -23 -370q-152 -104 -331 161q-61 -10 -113 -10zM1415 203q37 20 39 60t-39 140q-70 -61 -172 -100q59 -82 99 -103.5t73 3.5z" glyph-name="u1F60B.aalt"/><glyph d="M791 1008q0 -256 -120 -256t-120 256v75l-240 -118l-30 114l510 254v-325zM1255 1008q1 -256 -119 -256t-120 256v325l510 -254l-29 -114l-242 118v-75zM1767 611q0 -67 -54 -120t-132 -53t-133 53.5t-55 119.5t83 181t95 197h18q12 -82 95 -196.5t83 -181.5zM1489 622 q0 -34 25.5 -60.5t65.5 -26.5t65.5 26.5t25.5 62.5t-38 93t-52 90q-14 -33 -53 -92t-39 -93zM1440 264h-1073v150h1073v-150z" glyph-name="u1F613.aalt"/><glyph d="M516 1171l25 115l428 -123l-25 -114zM1079 1163l426 123l25 -115l-426 -122zM1028 485q-92 0 -162 -12l-139 -952l-63 14l147 928q-45 -10 -92 -29l-211 -872l-66 10l211 829q-82 -51 -123 -120h-118q31 88 102.5 161.5t179.5 118.5l54 211l51 -10l-45 -180q25 8 77 20 l25 150l51 -9l-20 -131q164 15 282 -2l-20 133l51 9l25 -152q53 -12 78 -22l-46 184l52 10l55 -217q207 -90 270 -274h-118q-39 66 -111 112l209 -821l-64 -10l-211 866q-35 14 -92 33l146 -926l-64 -14l-139 950q-70 14 -162 14zM410 -328q-31 -8 -46.5 -13t-37 -24.5 t-26.5 -52.5t14.5 -57.5t52.5 -30.5t57 23l35 -17q2 -100 92 -116q88 -14 125 77l39 4q12 -35 46 -41t61.5 11.5t32.5 50.5t-8 57.5t-25.5 34.5t-39.5 27l9 47q156 -72 139 -176q-12 -66 -56.5 -96.5t-98.5 -23.5t-81 50q-20 -55 -63 -78.5t-93 -14.5t-82 45t-34 97 q-33 -31 -88 -21t-87 54.5t-20 112.5q16 98 191 118zM1628 -283q176 -18 193 -120q12 -68 -20 -111t-85 -53t-92 18q-2 -121 -115 -139q-115 -23 -159 94q-18 -37 -76 -48t-102 19.5t-56 96.5q-18 102 139 178l9 -47q-82 -53 -72 -117q6 -37 32.5 -54.5t61.5 -8.5 q31 2 45 36l39 -2q16 -47 51 -65.5t74 -12t64.5 36t27.5 78.5l35 19q20 -25 57 -23q33 6 52.5 32t15.5 50t-8 35.5t-21 28.5t-47.5 23.5t-34.5 8.5z" glyph-name="u1F624.aalt"/><glyph d="M715 1225.5q123 -0.5 123 -261.5t-123 -261.5t-123 261.5t123 261.5zM1192 1225.5q123 -0.5 123 -261.5t-123 -261.5t-123 261.5t123 261.5zM1183.5 88q-112.5 0 -192.5 79t-80 191.5t80 192.5t192.5 80t191.5 -80t79 -192.5t-79 -191.5t-191.5 -79z" glyph-name="u1F62E.aalt"/><glyph d="M663 964q0 262 122 261q122 0 122 -261t-121 -262q-123 0 -123 262zM1263.5 1225.5q122.5 -0.5 122.5 -261.5t-122.5 -261.5t-122.5 261.5t122.5 261.5zM1559 453h-226q-14 -242 -95 -360t-214 -118q-285 0 -309 478h-226v135h1070v-135zM1024 111q78 0 118 77t56 265 h-348q14 -188 55 -265t119 -77z" glyph-name="u1F61B.aalt"/><glyph d="M938 1042v-69l-332 -219l-51 143l217 107v10l-217 84l51 143zM1493 1098l-217 -84v-10l217 -107l-51 -143l-330 219v69l330 199zM1559 453h-226q-14 -242 -95 -360t-214 -118q-285 0 -309 478h-226v135h1070v-135zM1024 111q78 0 118 77t56 265h-348q14 -188 55 -265 t119 -77z" glyph-name="u1F61D.aalt"/><glyph d="M793 1075q-68 0 -80 -227h-103q6 164 54.5 252t129.5 88t128 -88t53 -252h-103q-16 227 -79 227zM1255 1075q-63 0 -79 -227h-101q6 164 52.5 252t126.5 88t129 -88t55 -252h-103q-12 227 -80 227zM1898 679.5q0 -63.5 -44 -107.5t-99 -51t-96 20q-63 -205 -229 -325 t-406 -120t-405.5 120t-229.5 325q-41 -27 -95 -20t-98 51t-45 108.5t40 104.5t159.5 60.5t175.5 61.5l11 -12q-41 -55 -64 -195q229 -127 554 -127t548 127q-23 139 -64 195l11 12q57 -41 176.5 -61.5t159.5 -61.5t40 -104.5zM258 626.5q25 -24.5 55.5 -23.5t52.5 21t33 78 t23 89q-31 -10 -67 -17.5t-59.5 -13.5t-41.5 -26t-19.5 -51.5t23.5 -56zM1792 626.5q25 24.5 24.5 55.5t-22.5 53t-80.5 33.5t-85.5 22.5q10 -27 22 -85t34 -80t52.5 -23t55.5 23.5zM700 504q-104 31 -215 92q53 -141 215 -213v121zM1350 383q160 70 217 213 q-113 -61 -217 -92v-121zM164 545l10 -13q-43 -57 -61.5 -175.5t-58.5 -159.5t-104.5 -40t-112.5 49t-49 112.5t40 104.5t160 59.5t176 62.5zM2261 317.5q0 -63.5 -48 -110.5t-113.5 -49t-105.5 39t-58.5 159.5t-61.5 175.5l12 13q57 -43 175 -62.5t159 -60.5t41 -104.5z M985 461q-113 4 -203 22v-131q94 -29 203 -30v139zM1270 483q-92 -18 -203 -22v-139q109 4 203 30v131zM-128.5 319.5q-0.5 -30.5 24 -55t55.5 -23.5t50 20t25.5 43t13.5 59.5t17 64.5q-29 -10 -85 -22t-78 -34t-22.5 -52.5zM1991 428q10 -27 22 -85t34 -80t53.5 -22.5 t56 24t23.5 55t-22 52.5t-79.5 34t-87.5 22z" glyph-name="u1F602.aalt"/><glyph d="M675.5 1311q112.5 0 193.5 -80t81 -192.5t-79.5 -192.5t-193.5 -80t-194 80t-80 192.5t80 192.5t192.5 80zM1372.5 1311q112.5 0 193.5 -80t81 -192.5t-80 -192.5t-194 -80t-193.5 80t-79.5 192.5t80 192.5t192.5 80zM676 1212q-72 0 -123 -51t-51 -122.5t51 -123 t123 -51.5t123 51.5t51 123t-51 122.5t-123 51zM1372 1212q-72 0 -123 -51t-51 -122.5t51 -123t123 -51.5t123 51.5t51 123t-51 122.5t-123 51zM676 1106q29 0 48 -19.5t19 -48t-19 -48t-48 -19.5t-48.5 20.5t-19.5 47t19.5 47t48.5 20.5zM1372 1106q29 0 48.5 -20.5 t19.5 -47t-19.5 -47t-48.5 -20.5t-48 20.5t-19 47t19 47t48 20.5zM1024 737q233 0 377.5 -152.5t169.5 -414.5h-1092q23 262 167.5 414.5t377.5 152.5zM1025 594q-138 0 -244.5 -75t-131.5 -214h752q-25 139 -131.5 214t-244.5 75z" glyph-name="u1F628.aalt"/><glyph d="M469 1202l375 172l80 -123l-428 -176zM1124 1251l78 123l377 -172l-27 -127zM346 936q135 0 207 -115h-416q74 115 209 115zM1702 936q135 0 209 -115h-416q72 115 207 115zM590 696q0 -29 -6 -57h-475q-8 37 -8 57t8 58h475q6 -29 6 -58zM1458 696q0 28 6 58h475 q13 -61 0 -115h-475q-6 29 -6 57zM137 569h418q-59 -100 -209 -118q-150 18 -209 118zM1493 569h418q-59 -100 -209 -118q-150 18 -209 118zM662 449h718q0 -150 -105 -256.5t-253 -106.5t-254 106.5t-106 256.5z" glyph-name="u1F633.aalt"/><glyph d="M784.5 1368q122.5 0 122.5 -261t-122.5 -261t-122.5 261t122.5 261zM1261.5 1368q122.5 0 122.5 -261t-122.5 -261t-122.5 261t122.5 261zM1024 709q233 0 376.5 -153t168.5 -415h-1092q25 262 169.5 415t377.5 153zM1023 565q-138 0 -244.5 -75t-131.5 -214h752 q-25 139 -131.5 214t-244.5 75z" glyph-name="u1F626.aalt"/><glyph d="M784.5 1225.5q122.5 -0.5 122.5 -261.5t-122.5 -261.5t-122.5 261.5t122.5 261.5zM1261.5 1225.5q122.5 -0.5 122.5 -261.5t-122.5 -261.5t-122.5 261.5t122.5 261.5zM1025 14q-331 0 -526.5 207t-199.5 535q268 -225 730 -225t718 229q-2 -330 -196.5 -538t-525.5 -208z M674 322v131q-117 35 -232 98q58 -149 232 -229zM1374 453v-131q174 78 234 229q-123 -65 -234 -98zM1286 291v141q-104 -23 -217 -26v-150q113 2 217 35zM762 430v-141q111 -31 219 -33v150q-108 4 -219 24z" glyph-name="u1F600.aalt"/><glyph d="M729 1268q92 0 149.5 -103.5t63.5 -292.5h-125q-14 268 -92 269q-74 -1 -88 -269h-125q6 188 65.5 292t151.5 104zM1321 1268q92 0 149.5 -103.5t63.5 -292.5h-125q-14 268 -88 269q-78 -1 -92 -269h-125q6 188 65.5 292t151.5 104zM1025 14q-331 0 -526.5 207 t-199.5 535q268 -225 730 -225t718 229q-2 -330 -196.5 -538t-525.5 -208zM674 322v131q-117 35 -232 98q58 -149 232 -229zM1374 453v-131q174 78 234 229q-123 -65 -234 -98zM1286 291v141q-104 -23 -217 -26v-150q113 2 217 35zM762 430v-141q111 -31 219 -33v150 q-108 4 -219 24z" glyph-name="u1F601.aalt"/><glyph d="M786.5 1225.5q122.5 -0.5 122.5 -261.5t-122.5 -261.5t-122.5 261.5t122.5 261.5zM1263.5 1225.5q122.5 -0.5 122.5 -261.5t-122.5 -261.5t-122.5 261.5t122.5 261.5zM1561 340h-1074v147h1074v-147z" glyph-name="u1F610.aalt"/><glyph d="M730 1186q91 0 149.5 -103.5t64.5 -289.5h-125q-14 266 -92 266q-72 0 -90 -266h-123q6 188 65.5 290.5t150.5 102.5zM1322 1186q91 0 149.5 -103.5t64.5 -289.5h-125q-14 266 -90 266q-41 0 -61.5 -63.5t-30.5 -202.5h-123q6 188 65.5 290.5t150.5 102.5zM1561 340 h-1074v147h1074v-147z" glyph-name="u1F614.aalt"/><glyph d="M938 1042v-69l-332 -219l-51 143l217 107v10l-217 84l51 143zM1493 1098l-215 -84v-10l215 -107l-51 -143l-330 219v69l330 199zM1024 598q223 0 392 -119t210 -297h-127q-57 104 -186 172t-289 68t-289 -68t-186 -172h-127q41 178 210 297t392 119z" glyph-name="u1F623.aalt"/><glyph d="M911 975q1 -252 -117 -252t-118 252v74l-268 86l30 116l473 -151v-125zM1372 975q0 -252 -118.5 -252t-118.5 252v125l475 151l30 -116l-268 -86v-74zM1023 594q241 0 398.5 -109.5t206.5 -279.5h-135q-49 104 -168 168.5t-302 64.5t-301 -64.5t-169 -168.5h-135 q49 170 206.5 279.5t398.5 109.5zM1023 303q91 0 149.5 -54t74.5 -147h-92q-29 92 -132 92t-132 -92h-92q16 92 74.5 146.5t149.5 54.5z" glyph-name="u1F621.aalt"/><glyph d="M726 766q-91 0 -148.5 102.5t-63.5 290.5h123q18 -266 90 -266q78 0 92 266h125q-6 -188 -66.5 -290.5t-151.5 -102.5zM1318 766q-91 0 -148.5 102.5t-63.5 290.5h123q10 -139 30.5 -202.5t61.5 -63.5q76 0 90 266h125q-6 -188 -66.5 -290.5t-151.5 -102.5zM1024 119 q-238 0 -419 136t-224 343h127q63 -139 202.5 -227t313.5 -88t314.5 88t201.5 227h127q-43 -207 -224 -343t-419 -136z" glyph-name="u1F60C.aalt"/><glyph d="M1022 2230q252 0 464 -66.5t330.5 -174t118.5 -230.5q0 -186 -255 -337.5t-658.5 -151.5t-656 152.5t-252.5 338.5t265 327.5t644 141.5zM1022 2103q-326 0 -550 -101t-224 -239q0 -121 215 -223t559 -102t561 101t217 222q0 137 -226 239.5t-552 102.5zM784.5 1225.5 q122.5 -0.5 122.5 -261.5t-122.5 -261.5t-122.5 261.5t122.5 261.5zM1261.5 1225.5q122.5 -0.5 122.5 -261.5t-122.5 -261.5t-122.5 261.5t122.5 261.5zM1024 119q-238 0 -419 136t-224 343h127q63 -139 202.5 -227t313.5 -88t313.5 88t202.5 227h127q-43 -207 -224 -343 t-419 -136z" glyph-name="u1F607.aalt"/><glyph d="M268 2003l486 -352q-303 -43 -486 -209v561zM1780 2003v-561q-182 166 -486 209zM913 934q0 -252 -118.5 -252t-118.5 252v156l-268 86l30 116l475 -151v-207zM1372 934q0 -252 -118 -252t-117 252v207l473 151l30 -116l-268 -86v-156zM1024 119q-238 0 -419 136 t-224 343h127q63 -139 202.5 -227t313.5 -88t313.5 88t202.5 227h127q-43 -207 -224 -343t-419 -136z" glyph-name="u1F608.aalt"/><glyph d="M784.5 1307.5q122.5 -0.5 122.5 -261.5t-122.5 -261.5t-122.5 261.5t122.5 261.5zM1261.5 1307.5q122.5 -0.5 122.5 -261.5t-122.5 -261.5t-122.5 261.5t122.5 261.5zM1024 43q-307 0 -488.5 190.5t-183.5 495.5q246 -207 675 -209t669 213q-2 -305 -183.5 -497.5 t-488.5 -192.5zM1024 172q195 0 342.5 95.5t198.5 273.5q-238 -133 -541 -138q-301 4 -539 138q51 -178 197.5 -273.5t341.5 -95.5z" glyph-name="u1F603.aalt"/><glyph d="M627 1268q92 0 149.5 -103.5t63.5 -292.5h-123q-10 141 -30.5 205t-61.5 64q-76 -1 -90 -269h-125q6 188 65.5 292t151.5 104zM1218 1268q92 0 149.5 -103.5t64.5 -292.5h-123q-18 268 -90 269q-79 -1 -93 -269h-125q6 188 65.5 292t151.5 104zM1800 950q0 -54 -43 -97.5 t-106.5 -43.5t-105.5 43t-42 97t66 145t76 157h14q10 -66 75.5 -156.5t65.5 -144.5zM1577 958q0 -28 21.5 -49.5t53.5 -21.5t52 21.5t20 50.5t-30.5 73.5t-42.5 71.5q-12 -27 -43 -72.5t-31 -73.5zM921.5 43q-307.5 0 -488.5 190.5t-183 495.5q246 -207 674 -209t669 213 q-2 -305 -183 -497.5t-488.5 -192.5zM921.5 172q194.5 0 342 95.5t198.5 273.5q-238 -133 -540 -138q-301 4 -539 138q51 -178 197.5 -273.5t341 -95.5z" glyph-name="u1F605.aalt"/><glyph d="M729 1268q92 0 149.5 -103.5t63.5 -292.5h-123q-10 141 -30.5 205t-61.5 64q-76 -1 -90 -269h-125q6 188 65.5 292t151.5 104zM1321 1268q92 0 149.5 -103.5t63.5 -292.5h-123q-18 268 -90 269q-78 -1 -92 -269h-125q6 188 65.5 292t151.5 104zM1024 43 q-307 0 -488.5 190.5t-183.5 495.5q246 -207 675 -209t669 213q-2 -305 -183.5 -497.5t-488.5 -192.5zM1024 172q195 0 342.5 95.5t198.5 273.5q-238 -133 -541 -138q-301 4 -539 138q51 -178 197.5 -273.5t341.5 -95.5z" glyph-name="u1F604.aalt"/><glyph d="M936 1090v-70l-330 -219l-51 143l215 105v12l-215 84l51 141zM1493 1145l-217 -84v-12l217 -105l-51 -143l-332 219v70l332 196zM1024 88q-307 0 -488.5 191.5t-183.5 496.5q248 -211 676 -211t668 213q-2 -305 -183.5 -497.5t-488.5 -192.5zM1025 451q-298 0 -540 135 q51 -178 197.5 -272.5t341.5 -94.5t342.5 94.5t198.5 272.5q-242 -135 -540 -135z" glyph-name="u1F606.aalt"/><glyph d="M730 1268q91 0 149.5 -103.5t64.5 -292.5h-125q-14 268 -92 269q-72 -1 -90 -269h-123q6 190 65.5 293t150.5 103zM1322 1268q91 0 149.5 -103.5t64.5 -292.5h-125q-14 268 -90 269q-41 0 -61.5 -64t-30.5 -205h-123q6 190 65.5 293t150.5 103zM1024 154q-238 0 -419 136 t-224 343h127q63 -139 203.5 -227.5t313.5 -88.5t313.5 88.5t201.5 227.5h127q-43 -207 -224 -343t-419 -136z" glyph-name="u1F60A.aalt"/><glyph d="M1468 727h-137q-82 0 -117.5 30.5t-62.5 100.5l-78 215h-82l-80 -215q-25 -70 -60.5 -100.5t-117.5 -30.5h-137q-98 0 -146.5 44t-76.5 138l-51 164h-179l70 144h1622l70 -144h-162l-51 -164q-29 -94 -77 -138t-147 -44zM1032.5 119q-237.5 0 -419 136t-224.5 343h125 q63 -139 203.5 -227t314.5 -88t313.5 88t202.5 227h127q-43 -207 -224 -343t-418.5 -136z" glyph-name="u1F60E.aalt"/><glyph d="M868 936h-430v147h430v-147zM1427 936h-430v147h430v-147zM934 145v160q184 0 327.5 113t186.5 287h162q-45 -240 -235.5 -400t-440.5 -160z" glyph-name="u1F60F.aalt"/><glyph d="M948 1157v-125q0 -262 -122 -262t-121 262h-302v125h545zM1645 1157v-125q0 -262 -122 -262t-122 262h-301v125h545zM1587 412h-1073v147h1073v-147z" glyph-name="u1F612.aalt"/><glyph d="M784.5 1278q122.5 0 122.5 -260t-122.5 -260t-122.5 260t122.5 260zM1261.5 1278q122.5 0 122.5 -260t-122.5 -260t-122.5 260t122.5 260zM639 172h-145q0 186 155.5 317.5t374.5 131.5t373.5 -131.5t154.5 -317.5h-145q0 119 -112.5 203t-271.5 84t-271.5 -84 t-112.5 -203z" glyph-name="uni2639.aalt"/><glyph d="M785 1276q122 0 122 -258t-122 -258t-122 258t122 258zM1483 1112l-187 -100l187 -125l-53 -129l-285 203v104l285 178zM1024 119q-238 0 -419 136t-224 343h127q63 -139 202.5 -227t313.5 -88t314.5 88t201.5 227h127q-43 -207 -224 -343t-419 -136z" glyph-name="u1F609.aalt"/><glyph d="M864 1028q0 -244 -112.5 -244t-114.5 240l-105 -57v168l394 208v-159l-62 -33v-123zM1295 784q-114 0 -113 244v123l-60 33v159l391 -208v-168l-104 57q0 -240 -114 -240zM1023 594q241 0 398.5 -109.5t206.5 -279.5h-135q-49 104 -168 168.5t-302 64.5t-301 -64.5 t-169 -168.5h-135q49 170 206.5 279.5t398.5 109.5zM1023 303q91 0 149.5 -54t74.5 -147h-92q-29 92 -132 92t-132 -92h-92q16 92 74.5 146.5t149.5 54.5z" glyph-name="u1F61F.aalt"/><glyph d="M785 1276q122 0 122 -258t-122 -258t-122 258t122 258zM1483 1112l-187 -100l187 -123l-53 -131l-285 203v104l285 178zM1559 453h-226q-14 -242 -95 -360t-214 -118q-285 0 -309 478h-226v135h1070v-135zM1024 111q78 0 118 77t56 265h-348q14 -188 55 -265t119 -77z " glyph-name="u1F61C.aalt"/><glyph d="M786.5 1225.5q122.5 -0.5 122.5 -261.5t-122.5 -261.5t-122.5 261.5t122.5 261.5zM1263.5 1225.5q122.5 -0.5 122.5 -261.5t-122.5 -261.5t-122.5 261.5t122.5 261.5zM1024 119q-238 0 -419 136t-224 343h127q63 -139 202.5 -227t313.5 -88t314.5 88t201.5 227h127 q-43 -207 -224 -343t-419 -136z" glyph-name="smileface.aalt"/></font>
</defs>
</svg>
